<?xml version="1.0" encoding="utf-8"?>
<!-- Generator: Adobe Illustrator 19.0.0, SVG Export Plug-In . SVG Version: 6.00 Build 0)  -->
<svg version="1.1" id="圖層_1" xmlns="http://www.w3.org/2000/svg" xmlns:xlink="http://www.w3.org/1999/xlink" x="0px" y="0px"
	 viewBox="0 0 1027.5 896.8" style="enable-background:new 0 0 1027.5 896.8;" xml:space="preserve">
<style type="text/css">
	.st0{stroke:#040000;stroke-miterlimit:10;}
	.st1{fill:#FFFFFF;stroke:#040000;stroke-miterlimit:10;}
</style>
<g id="XMLID_59_">
	<path id="XMLID_63_" class="st0" d="M0.8,612.2c-0.5,15.5-0.4,31.1,0.3,46.8c0.6,12.2,1.6,24.3,1.8,36.5c0.1,7.1,0,14.3,1.4,21.3
		c7.8,37.9,54.9,67.2,85.6,86.4c90.3,56.3,196.8,82.8,303,90.5c63.4,4.6,127,2.7,190.3-2.1c54.1-4.1,109.5-8,162.7-19.2
		c21.1-4.4,179-50,224.6-92.3c45.6-42.3,44.5-60,44.5-60s13.3-24.5-5.6-75.6c-18.9-51.1,0-94.5,0-94.5s35.6-145.7,5.6-251.3
		C985,193,897.1,86.2,791.5,44S575.8-6.1,496.9,5.1C420,15.9,338.6,38.4,272.8,80.4c-39.7,25.3-73.7,58.6-104.9,93.8
		C95.7,255.7,35.8,357.5,17.6,466.5C9.6,514.8,2.4,563.3,0.8,612.2z"/>
	<path id="XMLID_62_" class="st1" d="M263.4,205.2c29.9,5,60.3,4.4,89.2-5.6c0.4-0.2,0.9-0.3,1.3-0.1c0.5,0.2,0.7,0.8,0.9,1.3
		c8.9,26.1,7.2,55.3-10.3,77.6c-10.3,13.2-26.3,22.4-43,22.9c-45.3,1.2-62.3-56.5-42-90.4C261.1,208,263.4,205.2,263.4,205.2z"/>
	<path id="XMLID_65_" class="st1" d="M575.8,268.6c-47.5,10.4-61.7,97.7-15.5,118.6c4.7,2.1,9.8,3.4,15,3.8c14.6,1,29.1-5,40.7-14
		c8.4-6.5,15.6-14.9,19.6-24.7c2.5-6.2,7.8-19.4,5.7-26c-1.6-4.9-15.9-9.3-20.8-12.2c-10.1-5.9-19.7-12.9-28-21.2
		c-4.1-4.1-8.2-8.6-11.2-13.5C580.1,277.5,577.7,269.2,575.8,268.6z"/>
	<path id="XMLID_66_" class="st1" d="M820.4,448.2c0,0-5.6-18.9-18.9-3.9c-18.4,20.7-30.2,49.5-39.7,75.3c-5.9,16-9.8,33-8.1,50
		c2.1,21,13.8,42.4,34.9,49.1c14.9,4.8,34,1.6,44.6-10.6c6.3-7.3,8.6-17.2,10-26.7C850.2,533.5,837.7,492,820.4,448.2z"/>
	<path id="XMLID_67_" class="st1" d="M426.3,425.4c0,0-9-15.8-25.3-24.5c-11.7-6.3-27.3-9-45.9,0.6
		c-63.3,32.4-102.1,149.3-35.6,197.4c38.1,27.5,96.4,32.6,117.4-18.4c5.6-13.5,7.5-28.1,8.5-42.7c1.9-29.2,4.3-70.2-10.3-96.4
		C426.3,425.4,426.3,425.4,426.3,425.4z"/>
</g>
<g id="XMLID_14_">
</g>
<g id="XMLID_15_">
</g>
<g id="XMLID_16_">
</g>
<g id="XMLID_17_">
</g>
<g id="XMLID_18_">
</g>
<g id="XMLID_19_">
</g>
</svg>
