<?xml version="1.0" encoding="utf-8"?>
<!-- Generator: Adobe Illustrator 19.0.0, SVG Export Plug-In . SVG Version: 6.00 Build 0)  -->
<svg version="1.1" id="圖層_1" xmlns="http://www.w3.org/2000/svg" xmlns:xlink="http://www.w3.org/1999/xlink" x="0px" y="0px"
	 viewBox="0 0 1917.2 1994" style="enable-background:new 0 0 1917.2 1994;" xml:space="preserve">
<style type="text/css">
	.st0{fill:#FDFBFB;stroke:#FFFFFF;stroke-miterlimit:10;}
	.st1{fill:#82C7EC;}
</style>
<g id="XMLID_38_">
	<path id="XMLID_45_" class="st0" d="M834.2,1247.8c-12.4-7.7-31.8-8.7-44.6-0.8c-28.6,17.8-4.6,41.9,17.7,53.2
		c22.5,11.3,51.4,17.3,71.4,31.4c5.8,4.1,10.8,8.8,14.6,14.1c23.6,32.3-6.6,72-48.6,83c-20.5,5.4-44.2,5.2-64.6-0.5
		c-18.7-5.2-36.2-15.4-43.8-29.8c-10.8-20.3,1.8-43,11.1-62.1c-2.6,5.3,28,15.5,27.6,23.5c-0.4,8.9-10.8,13.3-4.2,23.2
		c2.7,4.1,7.3,7.4,12.3,9.9c10.7,5.3,23.9,7.4,36.4,5.6c25.3-3.6,46.3-27.8,28.8-45.9c-7.9-8.2-21-11.9-33.2-15.7
		c-22.7-7.2-45.1-16.6-60.7-31.3c-25.3-23.8-21.9-54.3,2.6-77.5c7.9-7.4,17.2-12.5,27.9-15.3c10.6-2.8,21.9-4,33.8-3.4
		c11.7,0.8,22.5,3.3,32.6,7.7c27,11.7,44.5,39.7,35.9,63.2c-2.7,7.4-5.6,13.8-4.8,21.5c-10.3-1.8-31.5-10.5-36-18.6
		c-4.1-7.3,1-16-1.9-23.6C842.6,1254.6,838.9,1250.7,834.2,1247.8z"/>
	<path id="XMLID_42_" class="st0" d="M1066.3,1209.6c28.2-2.6,57.8,1.9,79.2,16.7c9.8,6.8,17.5,14.6,23.1,23.5
		c8.8,13.8,11.6,29.4,6,44.3c-7.3,19.5-23,32.2-46.4,40.3c-2,0.7-1.3,9.5-1.3,9.5c12,17.5,26.4,33.8,39,51
		c8.9,12.2,18.8,26,33.3,34.9c-4.4-2.7-32.1,2.7-37.4,2.5c-8.1-0.3-11.6,2-17.7-2.5c-11.8-8.6-20.7-23.3-28.3-34.2
		c-10.4-14.8-15.9-31.3-25.9-46.1c-0.9-1.3-13.9,1.1-15.7,1.6c0,0-7.7,2-7.7,2c-18.8,4.9,12.6,61.1-1.9,72.3c-2.5,1.9-6,2.8-9.3,3.4
		c-10.1,2-20.4,3-30.8,3c4.1,0,3.1-51.9,3-56.2c-0.7-22.2-1.2-39.2-1.4-50.9c-0.6-32.5,1.2-64.9,2.3-97.4c0.1-2.9,0.3-5.9,2.2-8.4
		c2.4-3.1,7.1-4.5,11.6-5.6C1049.9,1211.7,1058,1210.3,1066.3,1209.6z M1064.4,1314.8c15.8,8.4,59.9-9.9,71.3-21.9
		c5.7-6,7.6-18.4,0.4-29.8c-10.4-16.3-32.7-26.5-56.3-25.6c-2.9,0.1-6.9,0.6-8.4,1.8C1054.7,1253.1,1044.4,1304.1,1064.4,1314.8z"/>
	<path id="XMLID_39_" class="st0" d="M1316.9,1210.6c2.1,0,4.2-0.1,6.3-0.2c54.2-3.6,104-0.6,143.3,32.5
		c38.3,32.2,50.9,84.5,26.1,124.4c-27.3,43.7-88.3,60-146.6,65.1c-1.8,0.1-5.4-0.2-5.4-0.2s-2,0-2.9,0.4c-3.2,1.7-19.5,1.2-23.3-2.3
		c-11.4-10.7-3.3-39.1-2.1-55.7c1.4-19.5,2.5-35.2,3.2-47.3c1.2-20.8,0.2-41.7-1.5-62.5c-1.6-19.1-2.3-37.8-8.4-56.5
		c2.6,0.9,5.2,1.7,8,2.1C1314.6,1210.5,1315.8,1210.5,1316.9,1210.6z M1353.8,1390.4c0.1,0.9,11.5,0.9,12.4,1.5c1.1,0.7-1.4,0.1,0,0
		c60.2-4.6,99-25.4,91.2-78.1c-3.7-24.7-14.3-56.5-44.1-67.7c-13.6-5.1-41.3-15.8-55.5-7.7c-14.1,8-6.2,20.5-5.7,31.4
		c0.6,10.9,0.7,22.7,0.4,35.4c-0.4,12.8-0.7,23.1-1.1,31c-0.9,20.5-1.7,29.1-3.1,49.6C1348.2,1386.3,1353.8,1390,1353.8,1390.4z"/>
</g>
<g id="XMLID_22_">
	<path id="XMLID_24_" class="st1" d="M1903.9,987.7l-815.4,985.2c-20.5,24.7-57.5,28.2-82.2,7.8L21.1,1165.3
		c-24.7-20.5-28.2-57.5-7.8-82.2L828.7,97.9c20.5-24.7,57.5-28.2,82.2-7.8l985.2,815.4C1920.9,926,1924.3,963,1903.9,987.7z"/>
	<path id="XMLID_23_" class="st1" d="M1544.8,641.1c-62.4-43.1-23.9-96.1,28.5-124.9c25.9-14.3,55-25.1,84.4-28.8
		c47-6,94.2,10.9,139.6-7.8c37.9-15.6,81.8-61.1,49.8-102.1c-25-32.1-69.4-45.3-106.3-58.3c-1.4-0.5-1.1-2.5,0.4-2.7
		c35.7-4.7,78.8-69.9,82.3-99.2c10.3-86.5-79.1-65.6-130.5-47.7c-4.6,1.6,34.1-137.3-36.6-143.2s-95.6,96.4-95.6,96.4
		s-41.9-138.5-92.7-121.4s-52.8,63.1-29.8,142c22.9,78.4-9.3,64.4-18.8,63.4c-32-3.2-105.3-42.9-122.7-14.3
		c-25,41.2,14.5,72,36.1,103.1c25.9,37.3,48,99.9,17.7,140.8c-31.8,42.9-59.8-3.7-92-35.2"/>
</g>
<g id="XMLID_11_">
	<path id="XMLID_20_" class="st0" d="M534.4,901.1c-19.8-14.1-51-16-71.4-1.4c-45.9,32.7-7.4,77.1,28.3,97.9
		c36,20.9,82.4,31.8,114.3,57.7c9.2,7.5,17.3,16.2,23.5,25.9c37.7,59.3-10.5,132.4-77.8,152.6c-32.9,9.9-70.7,9.5-103.5-0.9
		c-30-9.6-57.9-28.4-70.1-54.7c-17.3-37.4,2.9-79.1,17.9-114.2c-4.1,9.8,44.8,28.6,44.3,43.1c-0.6,16.3-17.3,24.4-6.8,42.7
		c4.4,7.6,11.6,13.7,19.7,18.3c17.1,9.8,38.4,13.5,58.3,10.3c40.6-6.6,74.2-51.2,46.2-84.5c-12.7-15-33.7-21.9-53.2-29
		c-36.4-13.2-72.2-30.5-97.3-57.6c-40.6-43.8-35-99.9,4.1-142.6c12.7-13.6,27.6-22.9,44.6-28.2c17-5.2,35.1-7.3,54.2-6.3
		c18.7,1.4,36.1,6.1,52.2,14.1c43.2,21.4,71.3,73,57.5,116.2c-4.4,13.7-9,25.3-7.7,39.5c-16.4-3.4-50.4-19.3-57.7-34.1
		c-6.5-13.4,1.7-29.4-3.1-43.4C547.9,913.7,542,906.5,534.4,901.1z"/>
	<path id="XMLID_17_" class="st0" d="M906.1,830.8c45.1-4.7,92.6,3.5,126.9,30.8c15.7,12.5,28.1,26.9,37.1,43.3
		c14.1,25.4,18.6,54.1,9.6,81.5c-11.7,35.8-36.8,59.1-74.3,74.2c-3.2,1.3-2.1,17.5-2.1,17.5c19.2,32.1,42.2,62.2,62.4,93.9
		c14.3,22.4,30.1,47.8,53.2,64.2c-7.1-5-51.4,4.9-59.9,4.5c-12.9-0.5-18.5,3.7-28.3-4.5c-18.9-15.8-33.1-42.8-45.4-62.9
		c-16.7-27.3-25.5-57.6-41.5-84.8c-1.4-2.4-22.3,2-25.1,2.9c0,0-12.3,3.7-12.3,3.7c-30.1,9,20.2,112.3-3,133c-4,3.5-9.6,5.1-15,6.3
		c-16.1,3.6-32.7,5.5-49.3,5.5c6.5,0,5-95.4,4.8-103.3c-1.1-40.8-1.9-72-2.2-93.6c-1-59.7,2-119.4,3.8-179.1
		c0.2-5.3,0.4-10.9,3.5-15.4c3.9-5.7,11.4-8.4,18.6-10.3C879.8,834.7,892.9,832.2,906.1,830.8z M903.1,1024.4
		c25.3,15.5,96-18.2,114.2-40.3c9.1-11,12.2-33.9,0.6-54.7c-16.7-30-52.3-48.8-90.2-47.1c-4.7,0.2-11.1,1-13.4,3.3
		C887.6,910.9,871,1004.7,903.1,1024.4z"/>
	<path id="XMLID_12_" class="st0" d="M1307.5,832.6c3.4,0.1,6.7-0.2,10.1-0.4c86.8-6.6,166.5-1.1,229.4,59.7
		c61.3,59.3,81.6,155.5,41.7,228.8c-43.7,80.4-141.5,110.3-234.7,119.8c-2.9,0.3-8.7-0.4-8.7-0.4s-3.3,0-4.6,0.8
		c-5.1,3.2-31.3,2.2-37.2-4.3c-18.3-19.7-5.2-71.9-3.4-102.4c2.2-35.8,3.9-64.8,5.1-87.1c1.9-38.3,0.3-76.7-2.4-115
		c-2.6-35.2-3.7-69.5-13.4-103.9c4.2,1.6,8.4,3.2,12.8,3.9C1303.8,832.5,1305.6,832.6,1307.5,832.6z M1366.5,1163.4
		c0.1,1.6,18.5,1.7,19.8,2.7c1.7,1.3-2.3,0.2,0,0c96.5-8.5,158.6-46.7,146.1-143.6c-5.9-45.4-22.9-103.9-70.6-124.6
		c-21.7-9.4-66.2-29-88.9-14.2c-22.6,14.7-10,37.7-9.1,57.8c0.9,20,1.1,41.7,0.6,65.2c-0.6,23.5-1.1,42.5-1.7,57.1
		c-1.5,37.8-2.7,53.5-5,91.3C1357.6,1155.8,1366.5,1162.7,1366.5,1163.4z"/>
</g>
<g id="XMLID_26_">
</g>
<g id="XMLID_27_">
</g>
<g id="XMLID_28_">
</g>
<g id="XMLID_29_">
</g>
<g id="XMLID_30_">
</g>
<g id="XMLID_31_">
</g>
</svg>
