<?xml version="1.0" encoding="utf-8"?>
<!-- Generator: Adobe Illustrator 19.0.0, SVG Export Plug-In . SVG Version: 6.00 Build 0)  -->
<svg version="1.1" id="圖層_1" xmlns="http://www.w3.org/2000/svg" xmlns:xlink="http://www.w3.org/1999/xlink" x="0px" y="0px"
	 viewBox="0 0 3401.6 5000" style="enable-background:new 0 0 3401.6 5000;" xml:space="preserve">
<style type="text/css">
	.st0{fill:#BEE2F8;}
	.st1{fill:#040000;}
	.st2{fill:#FFFFFF;}
	.st3{fill:#0C6BB0;}
	.st4{fill:#DE2726;}
	.st5{fill:none;}
	.st6{fill:none;stroke:#0C6BB0;stroke-width:12;stroke-miterlimit:10;}
	.st7{fill:#0958A2;}
	.st8{fill:#FDFBFB;stroke:#FFFFFF;stroke-miterlimit:10;}
	.st9{fill:#FDFBFB;}
	.st10{fill:none;stroke:#FFFFFF;stroke-miterlimit:10;}
	.st11{stroke:#040000;stroke-miterlimit:10;}
	.st12{fill:#FFFFFF;stroke:#040000;stroke-miterlimit:10;}
	.st13{fill:#82C7EC;}
</style>
<rect id="XMLID_27_" x="0.4" class="st0" width="3401.6" height="5000"/>
<rect id="XMLID_135_" x="3422" y="10" class="st0" width="3401.6" height="5000"/>
<g id="XMLID_292_">
	<path id="XMLID_516_" class="st1" d="M482.7,1929c0,3.2-0.4,6.1-1.1,8.6c-0.7,2.6-1.7,4.7-3.1,6.5s-3.1,3.2-5.1,4.2
		c-2,1-4.3,1.5-6.9,1.5c-1.1,0-2.1-0.1-3.1-0.4c-1-0.2-1.9-0.6-2.8-1.1s-1.8-1.1-2.8-1.9s-1.9-1.6-2.9-2.7v19.3c0,0.2,0,0.3-0.1,0.5
		c-0.1,0.1-0.2,0.3-0.4,0.4c-0.2,0.1-0.4,0.2-0.7,0.2c-0.3,0-0.7,0.1-1.2,0.1c-0.5,0-0.9,0-1.2-0.1c-0.3,0-0.6-0.1-0.8-0.2
		c-0.2-0.1-0.3-0.2-0.4-0.4c-0.1-0.1-0.1-0.3-0.1-0.5v-52.2c0-0.2,0-0.4,0.1-0.5s0.2-0.2,0.4-0.3c0.2-0.1,0.4-0.1,0.7-0.2
		c0.3,0,0.6-0.1,1.1-0.1c0.4,0,0.8,0,1,0.1c0.3,0,0.5,0.1,0.7,0.2c0.2,0.1,0.3,0.2,0.4,0.3c0.1,0.1,0.1,0.3,0.1,0.5v5.4
		c1.2-1.2,2.3-2.2,3.3-3.1c1-0.9,2.1-1.6,3.1-2.2c1-0.6,2.1-1,3.2-1.3c1.1-0.3,2.3-0.4,3.5-0.4c2.7,0,5,0.5,6.9,1.5s3.5,2.4,4.7,4.2
		s2.1,3.9,2.6,6.3C482.4,1923.7,482.7,1926.3,482.7,1929z M477.5,1929.8c0-2.1-0.2-4.1-0.5-6.1c-0.3-1.9-0.9-3.7-1.7-5.2
		c-0.8-1.5-1.8-2.7-3.1-3.6c-1.3-0.9-3-1.4-4.9-1.4c-1,0-2,0.1-2.9,0.4c-1,0.3-1.9,0.7-2.9,1.4c-1,0.6-2,1.5-3.1,2.5
		s-2.2,2.3-3.4,3.7v16.3c2.1,2.5,4,4.4,5.9,5.8c1.9,1.3,3.9,2,5.9,2c1.9,0,3.5-0.5,4.9-1.4c1.4-0.9,2.5-2.1,3.3-3.6
		c0.9-1.5,1.5-3.2,1.9-5.1C477.3,1933.6,477.5,1931.7,477.5,1929.8z"/>
	<path id="XMLID_519_" class="st1" d="M520.2,1948.2c0,0.3-0.1,0.5-0.3,0.6c-0.2,0.2-0.4,0.3-0.7,0.3c-0.3,0.1-0.7,0.1-1.2,0.1
		c-0.5,0-0.9,0-1.2-0.1c-0.3-0.1-0.6-0.2-0.8-0.3c-0.2-0.2-0.3-0.4-0.3-0.6v-4.2c-1.7,1.8-3.5,3.2-5.6,4.2c-2,1-4.1,1.5-6.3,1.5
		c-2,0-3.7-0.3-5.3-0.8c-1.6-0.5-2.9-1.2-3.9-2.2c-1.1-1-1.9-2.1-2.5-3.5c-0.6-1.3-0.9-2.9-0.9-4.5c0-2.1,0.4-3.9,1.3-5.4
		c0.9-1.5,2.1-2.8,3.6-3.8s3.5-1.8,5.7-2.3c2.2-0.5,4.7-0.8,7.4-0.8h6v-3.2c0-1.6-0.2-3-0.5-4.2c-0.3-1.2-0.9-2.3-1.6-3.1
		c-0.7-0.8-1.7-1.4-2.9-1.9c-1.2-0.4-2.6-0.6-4.3-0.6c-1.7,0-3.1,0.2-4.5,0.6s-2.5,0.8-3.5,1.3c-1,0.5-1.8,0.9-2.5,1.3
		c-0.6,0.4-1.1,0.6-1.4,0.6c-0.2,0-0.3,0-0.5-0.1c-0.1-0.1-0.3-0.2-0.4-0.3c-0.1-0.2-0.2-0.3-0.2-0.6c0-0.2-0.1-0.5-0.1-0.8
		c0-0.6,0-1,0.1-1.4c0.1-0.3,0.3-0.7,0.6-1c0.3-0.3,1-0.8,1.8-1.2c0.9-0.5,1.9-0.9,3-1.3c1.1-0.4,2.4-0.7,3.7-1s2.6-0.4,4-0.4
		c2.6,0,4.7,0.3,6.5,0.9c1.8,0.6,3.2,1.5,4.3,2.7c1.1,1.2,1.9,2.6,2.3,4.3c0.5,1.7,0.7,3.6,0.7,5.8V1948.2z M515.3,1930.6h-6.8
		c-2,0-3.7,0.2-5.2,0.5c-1.5,0.4-2.7,0.9-3.7,1.6s-1.7,1.5-2.2,2.5c-0.5,1-0.7,2.1-0.7,3.3c0,2.1,0.7,3.9,2,5.1
		c1.4,1.3,3.3,1.9,5.8,1.9c2,0,3.8-0.5,5.5-1.5c1.7-1,3.5-2.6,5.4-4.7V1930.6z"/>
	<path id="XMLID_522_" class="st1" d="M555.8,1938.3c0,1.8-0.3,3.4-1,4.8c-0.7,1.4-1.6,2.6-2.8,3.6c-1.2,1-2.7,1.8-4.4,2.3
		c-1.7,0.5-3.6,0.8-5.7,0.8c-1.3,0-2.5-0.1-3.7-0.3c-1.2-0.2-2.2-0.5-3.1-0.8c-0.9-0.3-1.7-0.7-2.4-1s-1.1-0.7-1.4-1
		c-0.3-0.3-0.5-0.6-0.7-1c-0.1-0.4-0.2-1-0.2-1.7c0-0.4,0-0.7,0.1-1c0.1-0.3,0.1-0.5,0.2-0.7c0.1-0.2,0.2-0.3,0.3-0.4
		c0.1-0.1,0.3-0.1,0.5-0.1c0.3,0,0.7,0.2,1.3,0.6s1.3,0.8,2.2,1.3c0.9,0.5,1.9,0.9,3.1,1.3s2.6,0.6,4.2,0.6c1.3,0,2.4-0.1,3.5-0.4
		c1-0.3,2-0.7,2.7-1.2c0.8-0.6,1.4-1.3,1.8-2.1c0.4-0.9,0.6-1.9,0.6-3s-0.3-2.1-0.8-2.9c-0.6-0.8-1.3-1.5-2.2-2.1
		c-0.9-0.6-1.9-1.1-3.1-1.6c-1.1-0.5-2.3-0.9-3.5-1.4c-1.2-0.5-2.4-1-3.5-1.6c-1.1-0.6-2.2-1.3-3.1-2.1c-0.9-0.8-1.6-1.8-2.2-3
		c-0.6-1.2-0.8-2.5-0.8-4.2c0-1.3,0.2-2.6,0.7-3.8s1.3-2.4,2.3-3.4c1-1,2.4-1.8,4-2.4c1.6-0.6,3.5-0.9,5.7-0.9
		c0.9,0,1.9,0.1,2.8,0.2c0.9,0.2,1.8,0.4,2.5,0.6c0.8,0.2,1.4,0.5,2,0.8c0.6,0.3,1,0.5,1.3,0.8c0.3,0.2,0.5,0.4,0.6,0.6
		c0.1,0.2,0.2,0.3,0.2,0.5c0,0.2,0.1,0.4,0.1,0.6c0,0.2,0,0.5,0,0.8c0,0.3,0,0.6-0.1,0.9c0,0.3-0.1,0.5-0.2,0.7
		c-0.1,0.2-0.2,0.3-0.3,0.4c-0.1,0.1-0.3,0.1-0.4,0.1c-0.2,0-0.6-0.2-1-0.5c-0.4-0.3-1-0.6-1.7-1c-0.7-0.4-1.6-0.7-2.6-1
		c-1-0.3-2.1-0.5-3.4-0.5s-2.4,0.2-3.4,0.5c-1,0.3-1.8,0.7-2.4,1.3c-0.6,0.6-1.1,1.2-1.4,1.9c-0.3,0.7-0.5,1.6-0.5,2.4
		c0,1.2,0.3,2.2,0.8,3.1c0.6,0.8,1.3,1.5,2.2,2.1c0.9,0.6,1.9,1.1,3.1,1.6c1.2,0.5,2.3,0.9,3.5,1.4c1.2,0.5,2.4,1,3.5,1.6
		c1.2,0.6,2.2,1.2,3.1,2c0.9,0.8,1.6,1.8,2.2,2.9S555.8,1936.7,555.8,1938.3z"/>
	<path id="XMLID_524_" class="st1" d="M588.6,1938.3c0,1.8-0.3,3.4-1,4.8c-0.7,1.4-1.6,2.6-2.8,3.6c-1.2,1-2.7,1.8-4.4,2.3
		c-1.7,0.5-3.6,0.8-5.7,0.8c-1.3,0-2.5-0.1-3.7-0.3c-1.2-0.2-2.2-0.5-3.1-0.8c-0.9-0.3-1.7-0.7-2.4-1s-1.1-0.7-1.4-1
		c-0.3-0.3-0.5-0.6-0.7-1c-0.1-0.4-0.2-1-0.2-1.7c0-0.4,0-0.7,0.1-1c0.1-0.3,0.1-0.5,0.2-0.7c0.1-0.2,0.2-0.3,0.3-0.4
		c0.1-0.1,0.3-0.1,0.5-0.1c0.3,0,0.7,0.2,1.3,0.6s1.3,0.8,2.2,1.3c0.9,0.5,1.9,0.9,3.1,1.3s2.6,0.6,4.2,0.6c1.3,0,2.4-0.1,3.5-0.4
		c1-0.3,2-0.7,2.7-1.2c0.8-0.6,1.4-1.3,1.8-2.1c0.4-0.9,0.6-1.9,0.6-3s-0.3-2.1-0.8-2.9c-0.6-0.8-1.3-1.5-2.2-2.1
		c-0.9-0.6-1.9-1.1-3.1-1.6c-1.1-0.5-2.3-0.9-3.5-1.4c-1.2-0.5-2.4-1-3.5-1.6c-1.1-0.6-2.2-1.3-3.1-2.1c-0.9-0.8-1.6-1.8-2.2-3
		c-0.6-1.2-0.8-2.5-0.8-4.2c0-1.3,0.2-2.6,0.7-3.8s1.3-2.4,2.3-3.4c1-1,2.4-1.8,4-2.4c1.6-0.6,3.5-0.9,5.7-0.9
		c0.9,0,1.9,0.1,2.8,0.2c0.9,0.2,1.8,0.4,2.5,0.6c0.8,0.2,1.4,0.5,2,0.8c0.6,0.3,1,0.5,1.3,0.8c0.3,0.2,0.5,0.4,0.6,0.6
		c0.1,0.2,0.2,0.3,0.2,0.5c0,0.2,0.1,0.4,0.1,0.6c0,0.2,0,0.5,0,0.8c0,0.3,0,0.6-0.1,0.9c0,0.3-0.1,0.5-0.2,0.7
		c-0.1,0.2-0.2,0.3-0.3,0.4c-0.1,0.1-0.3,0.1-0.4,0.1c-0.2,0-0.6-0.2-1-0.5c-0.4-0.3-1-0.6-1.7-1c-0.7-0.4-1.6-0.7-2.6-1
		c-1-0.3-2.1-0.5-3.4-0.5s-2.4,0.2-3.4,0.5c-1,0.3-1.8,0.7-2.4,1.3c-0.6,0.6-1.1,1.2-1.4,1.9c-0.3,0.7-0.5,1.6-0.5,2.4
		c0,1.2,0.3,2.2,0.8,3.1c0.6,0.8,1.3,1.5,2.2,2.1c0.9,0.6,1.9,1.1,3.1,1.6c1.2,0.5,2.3,0.9,3.5,1.4c1.2,0.5,2.4,1,3.5,1.6
		c1.2,0.6,2.2,1.2,3.1,2c0.9,0.8,1.6,1.8,2.2,2.9S588.6,1936.7,588.6,1938.3z"/>
	<path id="XMLID_526_" class="st1" d="M648.5,1910.7c0,0.1,0,0.3-0.1,0.5c0,0.2-0.1,0.4-0.1,0.6l-11.6,36.4
		c-0.1,0.2-0.2,0.4-0.3,0.5c-0.2,0.1-0.4,0.2-0.6,0.3s-0.6,0.1-1,0.2c-0.4,0-0.9,0-1.4,0c-0.6,0-1.1,0-1.5-0.1c-0.4,0-0.8-0.1-1-0.2
		c-0.3-0.1-0.5-0.2-0.6-0.3c-0.2-0.1-0.3-0.3-0.3-0.5l-8.7-29.5l-0.1-0.3l-0.1,0.3l-8.1,29.5c-0.1,0.2-0.2,0.4-0.3,0.5
		c-0.2,0.1-0.4,0.2-0.7,0.3c-0.3,0.1-0.6,0.1-1.1,0.2c-0.4,0-0.9,0-1.4,0c-0.6,0-1,0-1.4-0.1c-0.4,0-0.7-0.1-1-0.2
		c-0.3-0.1-0.5-0.2-0.6-0.3c-0.1-0.1-0.2-0.3-0.3-0.5l-11.5-36.4c-0.1-0.2-0.1-0.4-0.2-0.6c0-0.2-0.1-0.4-0.1-0.5
		c0-0.2,0-0.4,0.1-0.5c0.1-0.1,0.2-0.2,0.4-0.3c0.2-0.1,0.4-0.1,0.7-0.1c0.3,0,0.7,0,1.1,0c0.6,0,1,0,1.4,0.1c0.4,0,0.6,0.1,0.8,0.2
		c0.2,0.1,0.3,0.2,0.4,0.3s0.2,0.3,0.2,0.5l9.9,32.7l0.1,0.3l0.1-0.3l9-32.7c0.1-0.2,0.1-0.4,0.2-0.5c0.1-0.1,0.2-0.2,0.4-0.3
		c0.2-0.1,0.4-0.1,0.7-0.2c0.3,0,0.7-0.1,1.2-0.1c0.5,0,0.9,0,1.2,0.1c0.3,0,0.6,0.1,0.7,0.2c0.2,0.1,0.3,0.2,0.4,0.3
		s0.2,0.3,0.2,0.5l9.7,32.7l0.1,0.3l0-0.3l9.8-32.7c0.1-0.2,0.1-0.4,0.2-0.5c0.1-0.1,0.2-0.2,0.4-0.3c0.2-0.1,0.5-0.1,0.8-0.2
		c0.3,0,0.8-0.1,1.3-0.1c0.4,0,0.8,0,1.1,0c0.3,0,0.5,0.1,0.7,0.2c0.2,0.1,0.3,0.2,0.3,0.3C648.5,1910.4,648.5,1910.6,648.5,1910.7z
		"/>
	<path id="XMLID_528_" class="st1" d="M690.3,1929.1c0,3-0.4,5.7-1.2,8.2c-0.8,2.5-1.9,4.7-3.5,6.5s-3.4,3.3-5.7,4.3
		c-2.3,1-4.9,1.5-8,1.5c-2.9,0-5.5-0.5-7.7-1.4s-4-2.2-5.5-4c-1.5-1.7-2.6-3.8-3.3-6.3c-0.7-2.5-1.1-5.2-1.1-8.3
		c0-3,0.4-5.7,1.1-8.2c0.8-2.5,1.9-4.7,3.4-6.5c1.5-1.8,3.4-3.3,5.7-4.3c2.3-1,5-1.5,8-1.5c2.9,0,5.5,0.5,7.7,1.4
		c2.2,0.9,4,2.2,5.5,3.9c1.5,1.7,2.6,3.8,3.3,6.3C690,1923.3,690.3,1926.1,690.3,1929.1z M685.1,1929.6c0-2.1-0.2-4.1-0.6-6.1
		c-0.4-1.9-1.1-3.6-2.1-5.1c-1-1.5-2.3-2.6-3.9-3.5c-1.6-0.9-3.7-1.3-6.1-1.3c-2.2,0-4.2,0.4-5.8,1.2c-1.6,0.8-3,1.9-4,3.3
		c-1,1.4-1.8,3.1-2.3,5c-0.5,1.9-0.7,4-0.7,6.2c0,2.1,0.2,4.2,0.6,6.1c0.4,1.9,1.1,3.6,2.1,5.1c1,1.5,2.3,2.6,3.9,3.5
		c1.6,0.9,3.7,1.3,6.1,1.3c2.2,0,4.2-0.4,5.8-1.2c1.6-0.8,3-1.9,4-3.3c1-1.4,1.8-3.1,2.3-5S685.1,1931.9,685.1,1929.6z"/>
	<path id="XMLID_531_" class="st1" d="M722.1,1912.7c0,0.4,0,0.8,0,1.1c0,0.3-0.1,0.5-0.1,0.7c-0.1,0.2-0.2,0.3-0.2,0.4
		c-0.1,0.1-0.2,0.1-0.4,0.1c-0.2,0-0.5-0.1-0.9-0.2s-0.7-0.3-1.2-0.4s-0.9-0.3-1.4-0.4s-1.1-0.2-1.7-0.2c-0.7,0-1.5,0.2-2.2,0.5
		c-0.7,0.3-1.5,0.8-2.3,1.5c-0.8,0.7-1.6,1.6-2.5,2.8c-0.9,1.2-1.8,2.6-2.9,4.3v25.3c0,0.2,0,0.3-0.1,0.5s-0.2,0.2-0.4,0.3
		c-0.2,0.1-0.4,0.2-0.7,0.2c-0.3,0.1-0.7,0.1-1.2,0.1c-0.5,0-0.9,0-1.2-0.1c-0.3-0.1-0.6-0.1-0.8-0.2c-0.2-0.1-0.3-0.2-0.4-0.3
		s-0.1-0.3-0.1-0.5v-37.4c0-0.2,0-0.3,0.1-0.5c0.1-0.1,0.2-0.3,0.4-0.4c0.2-0.1,0.4-0.2,0.7-0.2c0.3,0,0.7-0.1,1.1-0.1
		c0.5,0,0.9,0,1.2,0.1c0.3,0,0.5,0.1,0.7,0.2c0.2,0.1,0.3,0.2,0.4,0.4c0.1,0.1,0.1,0.3,0.1,0.5v5.9c1.1-1.6,2.1-2.8,3-3.8
		c0.9-1,1.8-1.7,2.6-2.3c0.8-0.5,1.6-0.9,2.4-1.1c0.8-0.2,1.6-0.3,2.4-0.3c0.4,0,0.8,0,1.2,0.1c0.5,0,1,0.1,1.5,0.2
		c0.5,0.1,1,0.2,1.4,0.4s0.7,0.3,0.9,0.4c0.2,0.1,0.3,0.2,0.3,0.3c0.1,0.1,0.1,0.2,0.1,0.4s0.1,0.4,0.1,0.6
		C722.1,1912,722.1,1912.3,722.1,1912.7z"/>
	<path id="XMLID_533_" class="st1" d="M759.5,1948.2c0,0.2,0,0.4-0.1,0.5c-0.1,0.1-0.2,0.2-0.4,0.3c-0.2,0.1-0.4,0.1-0.7,0.2
		c-0.3,0-0.6,0.1-1,0.1c-0.4,0-0.8,0-1.1-0.1c-0.3,0-0.5-0.1-0.7-0.2c-0.2-0.1-0.3-0.2-0.4-0.3c-0.1-0.1-0.1-0.3-0.1-0.5v-5.4
		c-2,2.2-4,3.8-6.2,5.1c-2.1,1.2-4.4,1.8-6.9,1.8c-2.7,0-5-0.5-6.9-1.6s-3.5-2.5-4.7-4.3c-1.2-1.8-2.1-3.9-2.6-6.3s-0.8-5-0.8-7.7
		c0-3.2,0.3-6,1-8.6c0.7-2.5,1.7-4.7,3.1-6.5c1.4-1.8,3-3.2,5-4.1c2-1,4.3-1.4,6.9-1.4c2.3,0,4.3,0.5,6.2,1.5s3.7,2.5,5.5,4.4v-22.5
		c0-0.2,0-0.3,0.1-0.5c0.1-0.1,0.2-0.2,0.4-0.3c0.2-0.1,0.4-0.2,0.8-0.2c0.3-0.1,0.7-0.1,1.2-0.1c0.5,0,0.9,0,1.2,0.1
		c0.3,0.1,0.6,0.1,0.7,0.2c0.2,0.1,0.3,0.2,0.4,0.3c0.1,0.1,0.1,0.3,0.1,0.5V1948.2z M754.6,1921.2c-2.1-2.5-4.1-4.4-6-5.7
		c-1.9-1.3-3.9-2-6-2c-1.9,0-3.5,0.5-4.9,1.4c-1.4,0.9-2.5,2.1-3.3,3.6c-0.9,1.5-1.5,3.2-1.9,5c-0.4,1.9-0.6,3.8-0.6,5.7
		c0,2.1,0.2,4.1,0.5,6c0.3,2,0.9,3.7,1.7,5.2c0.8,1.5,1.9,2.8,3.2,3.7c1.3,0.9,3,1.4,5,1.4c1,0,2-0.1,2.9-0.4
		c0.9-0.3,1.9-0.7,2.9-1.4s2-1.5,3.1-2.5c1.1-1,2.2-2.3,3.4-3.7V1921.2z"/>
</g>
<rect id="XMLID_297_" x="443.1" y="1686.7" class="st2" width="1662.9" height="130.3"/>
<rect id="XMLID_298_" x="443.1" y="1995.8" class="st2" width="1677.7" height="130.3"/>
<rect id="XMLID_128_" x="2336.1" y="1687.5" class="st3" width="582.5" height="162.7"/>
<g id="XMLID_300_">
	<path id="XMLID_495_" class="st2" d="M2536.9,1806.8c0,1.9,0.7,2.8,2.7,2.8h3.6v1.9h-15.8v-1.9h3.5c2,0,2.8-1,2.8-2.8v-22.4h-8.1
		v-1.9h8.1v-2.7c0-4.8,0.9-8.4,2.5-10.8c1.4-2,3.6-3.1,6.4-3.1c4.1,0,9,2.2,9,6.9c0,1-0.9,1.8-1.9,1.8c-1.5,0-2-1.3-2-1.9v-1.3
		c0-1.8-1.5-3.7-5-3.7c-4.1,0-5.7,2.8-5.7,9.5v5.3h8.5v1.9h-8.5V1806.8z"/>
	<path id="XMLID_497_" class="st2" d="M2566,1809.6c-2.7,2.1-5.9,3.2-9.7,3.2c-2.8,0-7.6-1.4-7.6-7.4c0-2.5,1-4.5,3.2-6.2
		c2.8-2.2,8.1-3.7,15.9-4.8v-4.1c0-4.1-3.9-6.8-7.5-6.8c-4.4,0-6.5,2.8-6.5,4.1v0.7c0.1,0.7,0.4,2.5-1.8,2.5c-1.5,0-1.9-1.2-1.9-1.9
		c0-3.8,4.3-7.4,10.3-7.4c6.5,0,10.6,4.4,10.6,8.7v14.3c0,2.3,0,6.2,1.3,6.2c0.6,0,1.3-1.2,2.1-3.4l1.7,0.9c-1.2,4-2.9,4.4-4.5,4.4
		c-3.3,0-3.5-3-3.7-5.1L2566,1809.6z M2567.7,1796.4c-6.2,1.1-10.6,2.5-13.2,4.3c-1.9,1.2-2.7,2.8-2.7,4.7c0,3.3,3,5.5,5.7,5.5
		c3.9,0,9.6-2.8,10.2-7.3V1796.4z"/>
	<path id="XMLID_500_" class="st2" d="M2605.6,1804.8c-3.6,5.6-7.1,8-12.1,8c-8.4,0-13.9-6.5-13.9-15.9c0-10.1,7.5-15.3,14.9-15.3
		c4.6,0,9.9,3.2,9.9,8.3c0,0.8-0.5,1.8-2,1.8c-0.9,0-2-0.6-2-1.9c0.1-0.2,0.2-1.5,0.2-1.9c0-1.5-2-4.5-6.2-4.5
		c-5.3,0-11.4,4.4-11.4,12.4c0,12.7,8.2,14.6,11.2,14.6c4,0,6.5-2.3,9.7-6.9L2605.6,1804.8z"/>
	<path id="XMLID_502_" class="st2" d="M2613.8,1796.1v1.4c0,6.9,4.8,13.3,11,13.3c4.8,0,7.4-3.2,10.3-7.1l1.6,1.1
		c-4.9,6.2-7.5,7.9-12.5,7.9c-9.5,0-13.5-8.4-13.5-15.2c0-9.7,6.4-15.9,12.9-15.9c6.8,0,12.4,5.8,12.4,14.5H2613.8z M2632.7,1794.2
		c-0.2-3.6-1.1-6.4-2.8-8.1c-1.6-1.7-3.7-2.6-6.4-2.6c-4.7,0-8.7,4.4-9.6,10.7H2632.7z"/>
	<path id="XMLID_505_" class="st2" d="M2646.1,1786.6c2.7-2.9,5.6-4.3,9.8-4.3c5.3,0,11.4,4.1,11.4,13.9c0,7.8-4.1,15.8-12.9,15.8
		c-3.5,0-6-1.4-8.6-4l-1.3,3.6h-1.5V1772c0-1.5-0.9-1.7-4.7-1.7v-1.9c2.2,0,4.9-0.7,7.8-2.3V1786.6z M2646.1,1805
		c1,2.2,4.4,5.1,8.3,5.1c2.8,0,5-1,6.7-3.2c2-2.3,3-5.9,3-10.7c0-4.1-0.9-7.2-2.8-9.1c-1.8-1.9-4-2.8-6.6-2.8
		c-4.4,0-7.9,3.8-8.7,5.6V1805z"/>
	<path id="XMLID_508_" class="st2" d="M2686.7,1812.9c-10.3,0-14-8.8-14-15.4c0-11.9,8.5-16.1,14-16.1c7,0,13.7,5.3,13.7,16.1
		C2700.4,1804.3,2696.5,1812.9,2686.7,1812.9z M2694.1,1786.8c-1.9-2.2-4.4-3.4-7.4-3.4c-3,0-5.6,1.2-7.7,3.5
		c-2,2.2-2.9,5.8-2.9,10.6c0,4.5,1.7,13.4,10.6,13.4c8.1,0,10.1-8.2,10.1-13.4C2696.9,1792.6,2695.9,1789,2694.1,1786.8z"/>
	<path id="XMLID_511_" class="st2" d="M2719.8,1812.9c-10.3,0-14-8.8-14-15.4c0-11.9,8.5-16.1,14-16.1c7,0,13.7,5.3,13.7,16.1
		C2733.4,1804.3,2729.5,1812.9,2719.8,1812.9z M2727.1,1786.8c-1.9-2.2-4.4-3.4-7.4-3.4c-3,0-5.6,1.2-7.7,3.5
		c-2,2.2-2.9,5.8-2.9,10.6c0,4.5,1.7,13.4,10.6,13.4c8.1,0,10.1-8.2,10.1-13.4C2729.9,1792.6,2729,1789,2727.1,1786.8z"/>
	<path id="XMLID_514_" class="st2" d="M2741.7,1772.5c0-2.1-1.4-2.3-4.7-2.3v-1.9c2.2,0,4.8-0.7,7.8-2.2v31.1l11.1-9.7
		c0.8-0.7,1.2-1.4,1.2-1.9c0-1.1-1-0.9-1.3-0.9h-2.3v-1.9h13.3v1.9h-1.9c-2,0-4.1,0.6-6.2,2.8l-6.2,5.4l10.1,13.8c2,3,2.8,3,5.3,3
		v1.9h-12.5v-1.9h2.8c0.5-0.1,1.4-0.1,1.4-0.9c0-0.2-0.1-0.5-0.2-0.8l-9.3-13.1l-5.3,4.6v7.6c0,1.8,1.1,2.5,2.2,2.5h2.3v1.9h-12.3
		v-1.9h2.5c1.7,0,2.2-1,2.2-2.5V1772.5z"/>
</g>
<rect id="XMLID_129_" x="2339.2" y="2012.5" class="st4" width="589" height="166.7"/>
<g id="XMLID_301_">
	<path id="XMLID_98_" class="st2" d="M2580.7,2105.9c7,1.4,11.6,2.7,11.6,5.6c0,2-2.2,6-13.6,6c-6.5,0-12.8-0.8-12.8-4.7
		c0-1,0.5-2,1.4-3c0.9-1,2.7-1.9,5.7-3c-3.8-1.1-4.2-1.6-4.2-3.1c0-2.3,2.8-3.4,4.1-3.9l-1.5-0.9c-2.2-1.8-3.2-3.7-3.2-6.1
		c0-6.1,5.8-8.6,10.5-8.6c2.8,0,5.2,0.8,7,2.3c1.2-1.3,3.6-2.8,5.9-2.8c1.9,0,2,1.3,2,1.5c0,1.1-0.6,1.6-1.8,1.6
		c-0.3,0-2-0.7-2.4-0.7h-0.3c-0.6,0-1.4,0.5-2.4,1.3c1.2,1.4,1.9,3.2,1.9,5.3c0,4.7-4.1,8.1-10.2,8.1c-2.4,0-6.8,0-6.8,1.9
		c0,0.3,0.1,0.6,0.3,0.7c0.4,0.3,2.4,0.8,6,1.6v0.1L2580.7,2105.9z M2576,2107.6c-3.1,1-7.2,2.3-7.2,5.2c0,2.8,7.9,2.9,9.9,2.9
		c8.1,0,10.7-2.3,10.7-3.6c0-1.6-3.8-2.5-8.7-3.5L2576,2107.6z M2571.2,2092.9c0,4.3,4.1,6.2,7.3,6.2c4.1,0,7.3-2.4,7.3-6.4
		c0-4.9-3.9-6.8-7-6.8C2574.2,2086,2571.2,2088.9,2571.2,2092.9z"/>
	<path id="XMLID_480_" class="st2" d="M2610.4,2112.5c-9.5,0-12.9-8.1-12.9-14.1c0-10.9,7.8-14.8,12.9-14.8
		c6.5,0,12.5,4.8,12.5,14.8C2622.9,2104.7,2619.3,2112.5,2610.4,2112.5z M2617.1,2088.5c-1.8-2-4-3.1-6.8-3.1c-2.8,0-5.1,1.1-7,3.2
		c-1.8,2-2.7,5.3-2.7,9.8c0,4.1,1.5,12.3,9.7,12.3c7.4,0,9.3-7.5,9.3-12.3C2619.7,2093.9,2618.8,2090.6,2617.1,2088.5z"/>
	<path id="XMLID_483_" class="st2" d="M2640.7,2112.5c-9.5,0-12.9-8.1-12.9-14.1c0-10.9,7.8-14.8,12.9-14.8
		c6.5,0,12.5,4.8,12.5,14.8C2653.3,2104.7,2649.7,2112.5,2640.7,2112.5z M2647.5,2088.5c-1.8-2-4-3.1-6.8-3.1c-2.8,0-5.1,1.1-7,3.2
		c-1.8,2-2.7,5.3-2.7,9.8c0,4.1,1.5,12.3,9.7,12.3c7.4,0,9.3-7.5,9.3-12.3C2650,2093.9,2649.2,2090.6,2647.5,2088.5z"/>
	<path id="XMLID_486_" class="st2" d="M2670.7,2105.9c7,1.4,11.6,2.7,11.6,5.6c0,2-2.2,6-13.6,6c-6.5,0-12.8-0.8-12.8-4.7
		c0-1,0.5-2,1.4-3c0.9-1,2.7-1.9,5.7-3c-3.8-1.1-4.2-1.6-4.2-3.1c0-2.3,2.8-3.4,4.1-3.9l-1.5-0.9c-2.2-1.8-3.2-3.7-3.2-6.1
		c0-6.1,5.8-8.6,10.5-8.6c2.8,0,5.2,0.8,7,2.3c1.2-1.3,3.6-2.8,5.9-2.8c1.9,0,2,1.3,2,1.5c0,1.1-0.6,1.6-1.8,1.6
		c-0.3,0-2-0.7-2.4-0.7h-0.3c-0.6,0-1.4,0.5-2.4,1.3c1.2,1.4,1.9,3.2,1.9,5.3c0,4.7-4.1,8.1-10.2,8.1c-2.4,0-6.8,0-6.8,1.9
		c0,0.3,0.1,0.6,0.3,0.7c0.4,0.3,2.4,0.8,6,1.6v0.1L2670.7,2105.9z M2666,2107.6c-3.1,1-7.2,2.3-7.2,5.2c0,2.8,7.9,2.9,9.9,2.9
		c8.1,0,10.7-2.3,10.7-3.6c0-1.6-3.8-2.5-8.7-3.5L2666,2107.6z M2661.2,2092.9c0,4.3,4.1,6.2,7.3,6.2c4.1,0,7.3-2.4,7.3-6.4
		c0-4.9-3.9-6.8-7-6.8C2664.2,2086,2661.2,2088.9,2661.2,2092.9z"/>
	<path id="XMLID_490_" class="st2" d="M2692.8,2075.1c0-0.6-0.1-1-0.3-1.2c-0.3-0.3-1.6-0.4-4-0.4v-1.8c2,0,4.5-0.8,7.2-2.3v37.6
		c0,1.3,0.3,2.5,2,2.5h3.7v1.8h-14.3v-1.8h3.3c2.3,0,2.3-1.5,2.3-2.5V2075.1z"/>
	<path id="XMLID_492_" class="st2" d="M2708.4,2097.1v1.3c0,6.3,4.4,12.2,10.1,12.2c4.4,0,6.8-3,9.4-6.5l1.5,1
		c-4.5,5.7-6.9,7.3-11.5,7.3c-8.7,0-12.4-7.7-12.4-14c0-8.9,5.9-14.6,11.9-14.6c6.2,0,11.4,5.3,11.4,13.3H2708.4z M2725.8,2095.4
		c-0.2-3.3-1-5.8-2.6-7.4c-1.5-1.6-3.4-2.4-5.9-2.4c-4.3,0-8,4-8.9,9.8H2725.8z"/>
</g>
<g id="XMLID_333_">
	<g id="XMLID_30_">
		<rect id="XMLID_476_" x="1216.1" y="2421.9" class="st5" width="304.9" height="120.1"/>
		<path id="XMLID_466_" d="M1278.3,2452.4c2.4-1.5,4.8-3.4,7.2-5.8c5.2-5,5.9-6.7,7.4-10.2l4.3,2.9c0.6,0.5,1,0.9,1,1.4
			c0,1-0.9,1-3,1c-4,5.7-11.4,10.3-15.5,11.8c2.9,2.4,5.9,4.4,9.1,6.1c5.2,2.7,10.4,4.8,15.5,6.2c0.4,0.1,0.6,0.4,0.6,0.7
			c0,0.4-0.6,0.8-1.9,1c-1.3,0.2-2.1,0.8-2.5,1.8c-0.3,0.8-0.6,1.2-1,1.2h-0.2c-16-6.5-29.5-20.5-37.9-37.1l-0.7,1.1
			c-1.5,3-4.3,7.3-8.4,12.6c-9.6,12.4-22.5,20-31.9,23.9c-0.9-0.5-0.9-0.6-0.9-1c0-0.2,0-0.4,0.2-0.5c6.7-3.6,12.4-7.5,17.1-11.5
			c10.4-8.8,16.9-18.4,19.8-25.7h-28.7l-0.6-2.8h30.5l1.6-2.4l4.2,2.9c0.5,0.3,0.6,0.7,0.6,1.2c0,0.9-0.6,1.5-1,1.6
			c1.9,3.4,4.2,6.7,6.6,9.7c1.8-1.3,3.6-2.9,5.2-4.9c3.2-3.5,3.8-5.1,4.9-8.5l4.5,2.6c0.7,0.5,1.1,0.9,1.1,1.4c0,0.9-1,1-3,1.3
			c-2.4,4.1-7.8,7.7-11.8,9.5l3.4,3.9L1278.3,2452.4z M1221.9,2508.2l-0.7-2.8h45.3l3-5.7l1.8-5.4l0.6-2.9l5.4,1.8
			c0.9,0.4,1.4,0.8,1.4,1.4c0,0.5-0.5,1.1-1.3,1.1l-1.4,0.5l-3.8,5.9l-2.6,3.2h18.7l5.8-4.9l5.9,4.4c0.5,0.3,0.7,0.8,0.7,1.4
			c0,1-0.7,1.8-2.1,1.8H1221.9z M1240.4,2449c-0.2,0.9-1,1.5-1.9,1.5c-1.1,0-1.8-0.6-2.2-1.6c-1.7-5.1-4.3-9.1-6.7-10.7
			c-0.4-0.2-0.6-0.5-0.6-0.6c0-0.3,0.3-0.8,0.8-0.8c1.7,0,9.3,5.6,10.6,9.9V2449z M1277.6,2467.9l2.4-2.6l4.3,2.9
			c0.4,0.1,0.6,0.5,0.6,0.8c0,0.5-0.4,1.3-1.5,1.6c-0.7,0.2-1.2,0.6-1.2,1.1v18.9c0.1,0.6-0.4,1-0.8,1.3c-3,0.7-3.6,0.8-3.6-1.3
			v-3.6h-34.1v3.1c0,0.5-0.4,0.9-1,1.3c-3.1,0.6-3.5,0.7-3.5-1.5v-24.5l3.5,2.5H1277.6z M1243.6,2470.7v13.4h34.1v-13.4H1243.6z
			 M1248.9,2502.8c-0.6-3.4-2.5-7.8-4.7-9.5c-0.3-0.2-0.5-0.5-0.5-0.6c0-0.3,0.3-0.8,0.9-0.8c1.3,0,8.7,6,8.7,9.8
			c0,0.6-0.3,2.9-2.1,2.9C1250.1,2504.5,1249.1,2503.6,1248.9,2502.8z M1265.5,2456l5-5l4.8,4.4c0.5,0.4,0.6,0.8,0.6,1.4
			c0,0.8-0.7,1.9-1.9,1.9h-27.5l-0.7-2.8H1265.5z"/>
		<path id="XMLID_474_" d="M1354,2429.3l3-3.1l3.4,3.9c0.3,0.3,0.4,0.6,0.4,1c0,1.7-1.3,2-2,2c-0.8,0.1-1.5,0.6-1.5,1.5
			c0,6.9,1.1,18.9,4.7,29.7c7.8,24.2,26.3,37.1,34.7,40.2c0.5,0.2,0.6,0.5,0.6,0.8c0,0.4-0.7,0.6-2.2,0.8s-2.6,0.9-3.3,2.2
			c-0.6,1-1.1,1.6-1.5,1.6c-0.3,0-8.4-5.2-15.4-12.9c-11.6-12.8-16.4-30.5-18.1-39c-5,14.9-10.3,25.9-23.9,38.4
			c-9.7,9.2-19.6,13.5-20.1,13.5c-0.6,0-0.7-0.6-0.7-0.8c0-0.4,0.2-0.6,0.4-0.7c7.7-4.6,13.9-9.4,18.5-14.4
			c10.2-11,16.4-21.7,20.4-33.4c1.7-5.2,3-9.6,3.6-13.1c-0.5-4.9-0.8-10.1-0.8-15.3h-21.6l-0.6-2.8H1354z"/>
	</g>
	<path id="XMLID_342_" class="st6" d="M1465.2,2554.6H1149c-19.7,0-35.7-16.1-35.7-35.7V2429c0-19.7,16.1-35.7,35.7-35.7h316.2
		c19.7,0,35.7,16.1,35.7,35.7v89.9C1500.9,2538.6,1484.8,2554.6,1465.2,2554.6z"/>
</g>
<g id="XMLID_28_">
	<path id="XMLID_446_" d="M1926,1624.7h15.6v3h-12.5v9.7h12.5v3h-12.5v15.3h-3.1V1624.7z"/>
	<path id="XMLID_448_" d="M1957.4,1632.2c3.5,0,6.5,1.3,8.8,3.8c2.1,2.3,3.2,5.1,3.2,8.3c0,3.2-1.1,6-3.4,8.4s-5.1,3.6-8.6,3.6
		c-3.5,0-6.4-1.2-8.7-3.6c-2.2-2.4-3.4-5.2-3.4-8.4c0-3.2,1.1-5.9,3.2-8.3C1950.9,1633.5,1953.8,1632.2,1957.4,1632.2z
		 M1957.4,1635.1c-2.5,0-4.6,0.9-6.3,2.7c-1.8,1.8-2.7,4-2.7,6.6c0,1.7,0.4,3.2,1.2,4.7c0.8,1.4,1.9,2.5,3.3,3.3s2.9,1.2,4.5,1.2
		s3.1-0.4,4.5-1.2c1.4-0.8,2.5-1.9,3.3-3.3c0.8-1.4,1.2-3,1.2-4.7c0-2.6-0.9-4.8-2.7-6.6S1959.8,1635.1,1957.4,1635.1z"/>
	<path id="XMLID_451_" d="M1973.7,1632.8h3v3.4c0.9-1.3,1.9-2.3,2.9-3s2-1,3.1-1c0.8,0,1.7,0.3,2.6,0.8l-1.5,2.5
		c-0.6-0.3-1.1-0.4-1.6-0.4c-1,0-1.9,0.4-2.9,1.2c-0.9,0.8-1.6,2.1-2.1,3.8c-0.4,1.3-0.5,4-0.5,7.9v7.8h-3V1632.8z"/>
	<path id="XMLID_453_" d="M2007.7,1632.8h3v18.3c0,3.2-0.3,5.6-0.8,7.1c-0.8,2.1-2.1,3.7-4,4.9s-4.2,1.7-6.9,1.7
		c-2,0-3.7-0.3-5.3-0.8c-1.6-0.6-2.9-1.3-3.8-2.2c-1-0.9-1.9-2.3-2.7-4.1h3.2c0.9,1.5,2,2.7,3.4,3.4c1.4,0.7,3.1,1.1,5.1,1.1
		c2,0,3.7-0.4,5.1-1.1c1.4-0.8,2.4-1.7,3-2.8c0.6-1.1,0.9-3,0.9-5.5v-1.2c-1.1,1.4-2.5,2.5-4.1,3.2c-1.6,0.8-3.3,1.1-5.1,1.1
		c-2.1,0-4.1-0.5-6-1.6c-1.9-1-3.3-2.5-4.3-4.2c-1-1.8-1.5-3.7-1.5-5.9c0-2.1,0.5-4.1,1.6-6c1.1-1.8,2.5-3.3,4.4-4.4
		c1.9-1.1,3.8-1.6,5.9-1.6c1.7,0,3.3,0.4,4.8,1.1c1.5,0.7,2.9,1.9,4.3,3.5V1632.8z M1999,1635.1c-1.7,0-3.2,0.4-4.7,1.2
		c-1.4,0.8-2.6,1.9-3.4,3.4s-1.2,3-1.2,4.6c0,2.5,0.8,4.6,2.5,6.3c1.7,1.6,3.9,2.5,6.6,2.5c2.7,0,4.9-0.8,6.6-2.5
		c1.7-1.6,2.5-3.8,2.5-6.4c0-1.7-0.4-3.3-1.1-4.6c-0.8-1.4-1.8-2.4-3.2-3.2S2000.6,1635.1,1999,1635.1z"/>
	<path id="XMLID_456_" d="M2027.9,1632.2c3.5,0,6.5,1.3,8.8,3.8c2.1,2.3,3.2,5.1,3.2,8.3c0,3.2-1.1,6-3.4,8.4s-5.1,3.6-8.6,3.6
		c-3.5,0-6.4-1.2-8.7-3.6c-2.2-2.4-3.4-5.2-3.4-8.4c0-3.2,1.1-5.9,3.2-8.3C2021.4,1633.5,2024.3,1632.2,2027.9,1632.2z
		 M2027.9,1635.1c-2.5,0-4.6,0.9-6.3,2.7c-1.8,1.8-2.7,4-2.7,6.6c0,1.7,0.4,3.2,1.2,4.7c0.8,1.4,1.9,2.5,3.3,3.3s2.9,1.2,4.5,1.2
		s3.1-0.4,4.5-1.2c1.4-0.8,2.5-1.9,3.3-3.3c0.8-1.4,1.2-3,1.2-4.7c0-2.6-0.9-4.8-2.7-6.6S2030.3,1635.1,2027.9,1635.1z"/>
	<path id="XMLID_459_" d="M2047.9,1624.3h3v8.5h4.7v2.6h-4.7v20.4h-3v-20.4h-4v-2.6h4V1624.3z"/>
	<path id="XMLID_461_" d="M2072.1,1624.7h3.1v31.1h-3.1V1624.7z"/>
	<path id="XMLID_463_" d="M2082.3,1655.8v-31.1h6.4c4.7,0,8,0.4,10.1,1.1c3,1.1,5.4,2.9,7.1,5.5c1.7,2.6,2.5,5.7,2.5,9.3
		c0,3.1-0.7,5.9-2,8.2s-3.1,4.1-5.2,5.2c-2.2,1.1-5.2,1.7-9,1.7H2082.3z M2085.3,1652.9h3.6c4.3,0,7.3-0.3,8.9-0.8
		c2.3-0.8,4.2-2.1,5.5-4.1s2-4.4,2-7.3c0-3-0.7-5.6-2.2-7.7c-1.5-2.1-3.5-3.6-6.1-4.4c-1.9-0.6-5.2-0.9-9.6-0.9h-2.2V1652.9z"/>
</g>
<g id="XMLID_31_">
	<path id="XMLID_411_" d="M1753.2,1914.6h17.3v3.4h-13.8v10.8h13.8v3.4h-13.8v16.9h-3.4V1914.6z"/>
	<path id="XMLID_413_" d="M1788,1922.9c3.9,0,7.2,1.4,9.8,4.3c2.3,2.6,3.5,5.7,3.5,9.2c0,3.6-1.2,6.7-3.7,9.3c-2.5,2.7-5.7,4-9.6,4
		c-3.9,0-7.1-1.3-9.6-4c-2.5-2.7-3.7-5.8-3.7-9.3c0-3.5,1.2-6.6,3.5-9.2C1780.8,1924.3,1784.1,1922.9,1788,1922.9z M1788,1926.1
		c-2.7,0-5.1,1-7,3c-2,2-2.9,4.5-2.9,7.3c0,1.8,0.4,3.6,1.3,5.2c0.9,1.6,2.1,2.8,3.6,3.7c1.5,0.9,3.2,1.3,5,1.3s3.5-0.4,5-1.3
		c1.5-0.9,2.7-2.1,3.6-3.7c0.9-1.6,1.3-3.3,1.3-5.2c0-2.9-1-5.3-3-7.3C1793.1,1927.1,1790.7,1926.1,1788,1926.1z"/>
	<path id="XMLID_416_" d="M1806.1,1923.6h3.4v3.7c1-1.5,2.1-2.6,3.2-3.3c1.1-0.7,2.3-1.1,3.5-1.1c0.9,0,1.9,0.3,2.9,0.9l-1.7,2.8
		c-0.7-0.3-1.3-0.4-1.7-0.4c-1.1,0-2.1,0.4-3.2,1.3c-1,0.9-1.8,2.3-2.3,4.2c-0.4,1.5-0.6,4.4-0.6,8.8v8.6h-3.4V1923.6z"/>
	<path id="XMLID_418_" d="M1843.8,1923.6h3.3v20.3c0,3.6-0.3,6.2-0.9,7.9c-0.9,2.3-2.4,4.2-4.5,5.4c-2.1,1.3-4.7,1.9-7.7,1.9
		c-2.2,0-4.2-0.3-5.9-0.9s-3.2-1.5-4.3-2.5c-1.1-1-2.1-2.6-3-4.6h3.6c1,1.7,2.2,2.9,3.8,3.8c1.5,0.8,3.4,1.2,5.7,1.2
		c2.2,0,4.1-0.4,5.7-1.3c1.5-0.8,2.6-1.9,3.3-3.1s1-3.3,1-6.1v-1.3c-1.2,1.6-2.7,2.8-4.5,3.6c-1.8,0.8-3.7,1.3-5.7,1.3
		c-2.3,0-4.6-0.6-6.6-1.7c-2.1-1.2-3.7-2.7-4.8-4.7c-1.1-2-1.7-4.1-1.7-6.5c0-2.4,0.6-4.6,1.8-6.6c1.2-2,2.8-3.7,4.9-4.8
		c2.1-1.2,4.3-1.8,6.6-1.8c1.9,0,3.7,0.4,5.3,1.2c1.7,0.8,3.2,2.1,4.8,3.9V1923.6z M1834.1,1926.1c-1.9,0-3.6,0.4-5.2,1.3
		c-1.6,0.9-2.8,2.1-3.8,3.7c-0.9,1.6-1.4,3.3-1.4,5.1c0,2.8,0.9,5.1,2.8,6.9c1.9,1.8,4.3,2.7,7.3,2.7c3,0,5.4-0.9,7.3-2.7
		c1.8-1.8,2.8-4.2,2.8-7.2c0-1.9-0.4-3.6-1.3-5.1c-0.8-1.5-2-2.7-3.6-3.6C1837.6,1926.5,1835.9,1926.1,1834.1,1926.1z"/>
	<path id="XMLID_421_" d="M1866.2,1922.9c3.9,0,7.2,1.4,9.8,4.3c2.3,2.6,3.5,5.7,3.5,9.2c0,3.6-1.2,6.7-3.7,9.3
		c-2.5,2.7-5.7,4-9.6,4c-3.9,0-7.1-1.3-9.6-4c-2.5-2.7-3.7-5.8-3.7-9.3c0-3.5,1.2-6.6,3.5-9.2
		C1859,1924.3,1862.3,1922.9,1866.2,1922.9z M1866.2,1926.1c-2.7,0-5.1,1-7,3c-2,2-2.9,4.5-2.9,7.3c0,1.8,0.4,3.6,1.3,5.2
		c0.9,1.6,2.1,2.8,3.6,3.7c1.5,0.9,3.2,1.3,5,1.3s3.5-0.4,5-1.3c1.5-0.9,2.7-2.1,3.6-3.7c0.9-1.6,1.3-3.3,1.3-5.2c0-2.9-1-5.3-3-7.3
		C1871.3,1927.1,1868.9,1926.1,1866.2,1926.1z"/>
	<path id="XMLID_424_" d="M1888.4,1914.1h3.3v9.5h5.2v2.8h-5.2v22.7h-3.3v-22.7h-4.5v-2.8h4.5V1914.1z"/>
	<path id="XMLID_426_" d="M1915.7,1914.6h6.9c3.9,0,6.6,0.2,8,0.5c2,0.5,3.6,1.5,4.8,3c1.3,1.5,1.9,3.4,1.9,5.7
		c0,2.3-0.6,4.2-1.8,5.7c-1.2,1.5-2.9,2.5-5,3c-1.6,0.4-4.5,0.6-8.8,0.6h-2.5v16h-3.4V1914.6z M1919.1,1918v11.7l5.8,0.1
		c2.4,0,4.1-0.2,5.2-0.6c1.1-0.4,2-1.1,2.6-2.1c0.6-1,0.9-2,0.9-3.2c0-1.2-0.3-2.2-0.9-3.2c-0.6-1-1.5-1.6-2.5-2
		c-1-0.4-2.7-0.6-5-0.6H1919.1z"/>
	<path id="XMLID_429_" d="M1969,1923.6v25.5h-3.2v-4.4c-1.4,1.7-2.9,2.9-4.6,3.8c-1.7,0.8-3.6,1.3-5.6,1.3c-3.6,0-6.7-1.3-9.3-3.9
		c-2.6-2.6-3.8-5.8-3.8-9.6c0-3.7,1.3-6.8,3.9-9.4c2.6-2.6,5.7-3.9,9.3-3.9c2.1,0,4,0.4,5.7,1.3c1.7,0.9,3.2,2.2,4.5,4v-4.7H1969z
		 M1955.9,1926.1c-1.8,0-3.5,0.4-5.1,1.3c-1.5,0.9-2.8,2.2-3.7,3.8c-0.9,1.6-1.4,3.3-1.4,5.2c0,1.8,0.5,3.5,1.4,5.2
		c0.9,1.6,2.2,2.9,3.7,3.8c1.6,0.9,3.2,1.4,5,1.4c1.8,0,3.5-0.5,5.1-1.4c1.6-0.9,2.8-2.1,3.7-3.7c0.9-1.5,1.3-3.3,1.3-5.2
		c0-3-1-5.4-2.9-7.4C1961.1,1927.1,1958.7,1926.1,1955.9,1926.1z"/>
	<path id="XMLID_432_" d="M1989.2,1926.3l-2.1,2.2c-1.8-1.7-3.5-2.6-5.1-2.6c-1.1,0-2,0.4-2.7,1.1c-0.8,0.7-1.1,1.5-1.1,2.5
		c0,0.8,0.3,1.6,0.9,2.4c0.6,0.8,1.9,1.7,3.9,2.7c2.4,1.3,4.1,2.5,5,3.7c0.9,1.2,1.3,2.5,1.3,4c0,2.1-0.7,3.9-2.2,5.3
		s-3.3,2.2-5.5,2.2c-1.5,0-2.9-0.3-4.2-1c-1.3-0.6-2.4-1.5-3.3-2.7l2.1-2.3c1.7,1.9,3.5,2.8,5.3,2.8c1.3,0,2.4-0.4,3.4-1.3
		c0.9-0.8,1.4-1.8,1.4-3c0-0.9-0.3-1.8-0.9-2.5c-0.6-0.7-2-1.6-4.1-2.7c-2.3-1.2-3.9-2.4-4.7-3.5c-0.8-1.2-1.2-2.5-1.2-4
		c0-1.9,0.7-3.5,2-4.8c1.3-1.3,3-1.9,5-1.9C1984.4,1922.9,1986.8,1924,1989.2,1926.3z"/>
	<path id="XMLID_434_" d="M2007.8,1926.3l-2.1,2.2c-1.8-1.7-3.5-2.6-5.1-2.6c-1.1,0-2,0.4-2.7,1.1c-0.8,0.7-1.1,1.5-1.1,2.5
		c0,0.8,0.3,1.6,0.9,2.4c0.6,0.8,1.9,1.7,3.9,2.7c2.4,1.3,4.1,2.5,5,3.7c0.9,1.2,1.3,2.5,1.3,4c0,2.1-0.7,3.9-2.2,5.3
		s-3.3,2.2-5.5,2.2c-1.5,0-2.9-0.3-4.2-1c-1.3-0.6-2.4-1.5-3.3-2.7l2.1-2.3c1.7,1.9,3.5,2.8,5.3,2.8c1.3,0,2.4-0.4,3.4-1.3
		c0.9-0.8,1.4-1.8,1.4-3c0-0.9-0.3-1.8-0.9-2.5c-0.6-0.7-2-1.6-4.1-2.7c-2.3-1.2-3.9-2.4-4.7-3.5c-0.8-1.2-1.2-2.5-1.2-4
		c0-1.9,0.7-3.5,2-4.8c1.3-1.3,3-1.9,5-1.9C2003.1,1922.9,2005.4,1924,2007.8,1926.3z"/>
	<path id="XMLID_436_" d="M2010.2,1923.6h3.4l7.8,18.5l8.1-18.5h0.6l8.2,18.5l8-18.5h3.4l-11.1,25.5h-0.6l-8.2-18.3l-8.2,18.3h-0.6
		L2010.2,1923.6z"/>
	<path id="XMLID_438_" d="M2065.6,1922.9c3.9,0,7.2,1.4,9.8,4.3c2.3,2.6,3.5,5.7,3.5,9.2c0,3.6-1.2,6.7-3.7,9.3
		c-2.5,2.7-5.7,4-9.6,4c-3.9,0-7.1-1.3-9.6-4c-2.5-2.7-3.7-5.8-3.7-9.3c0-3.5,1.2-6.6,3.5-9.2
		C2058.4,1924.3,2061.7,1922.9,2065.6,1922.9z M2065.6,1926.1c-2.7,0-5.1,1-7,3s-2.9,4.5-2.9,7.3c0,1.8,0.4,3.6,1.3,5.2
		c0.9,1.6,2.1,2.8,3.6,3.7c1.5,0.9,3.2,1.3,5,1.3c1.8,0,3.5-0.4,5-1.3c1.5-0.9,2.7-2.1,3.6-3.7c0.9-1.6,1.3-3.3,1.3-5.2
		c0-2.9-1-5.3-3-7.3S2068.3,1926.1,2065.6,1926.1z"/>
	<path id="XMLID_441_" d="M2083.8,1923.6h3.4v3.7c1-1.5,2.1-2.6,3.2-3.3c1.1-0.7,2.3-1.1,3.5-1.1c0.9,0,1.9,0.3,2.9,0.9l-1.7,2.8
		c-0.7-0.3-1.3-0.4-1.7-0.4c-1.1,0-2.1,0.4-3.2,1.3c-1,0.9-1.8,2.3-2.3,4.2c-0.4,1.5-0.6,4.4-0.6,8.8v8.6h-3.4V1923.6z"/>
	<path id="XMLID_443_" d="M2124.9,1913.7v35.4h-3.2v-4.4c-1.4,1.7-2.9,2.9-4.6,3.8c-1.7,0.8-3.6,1.3-5.6,1.3c-3.6,0-6.7-1.3-9.3-3.9
		c-2.6-2.6-3.8-5.8-3.8-9.6c0-3.7,1.3-6.8,3.9-9.4c2.6-2.6,5.7-3.9,9.3-3.9c2.1,0,4,0.4,5.7,1.3c1.7,0.9,3.2,2.2,4.5,4v-14.5H2124.9
		z M2111.8,1926.1c-1.8,0-3.5,0.4-5.1,1.3c-1.5,0.9-2.8,2.2-3.7,3.8c-0.9,1.6-1.4,3.3-1.4,5.2c0,1.8,0.5,3.5,1.4,5.2
		c0.9,1.6,2.2,2.9,3.7,3.8c1.6,0.9,3.2,1.4,5,1.4c1.8,0,3.5-0.5,5.1-1.4c1.6-0.9,2.8-2.1,3.7-3.7c0.9-1.5,1.3-3.3,1.3-5.2
		c0-3-1-5.4-2.9-7.4C2117,1927.1,2114.6,1926.1,2111.8,1926.1z"/>
</g>
<g id="XMLID_32_">
	<path id="XMLID_295_" d="M599.7,2219.4c0.3,0,0.6,0.2,0.6,0.5c0.2,1.1,0.3,2.2,0.3,3.3c0,5.3-1.9,8.4-3.8,8.4
		c-1.1,0-1.3-0.3-1.8-1.8c0-0.4,0.5-1.1,1.3-1.8c2.2-2.3,3-4.6,3-8C599.3,2219.7,599.5,2219.4,599.7,2219.4z M609.7,2201.4
		c0.5,0.2,0.9,0.5,0.9,0.8c0,0.5-0.5,0.7-0.9,0.7c-0.3,0-0.7,0.1-0.8,0.4c-1.1,2.2-2.4,4.5-4.1,6.9l-3,3.6l6.2-1.1
		c-0.6-1.8-0.9-2.6-1.6-3.6c-0.1-0.1-0.2-0.2-0.2-0.3c0-0.2,0.2-0.5,0.5-0.5c0.9,0,4.6,5.5,4.6,8.1l-0.5,1.5c-0.3,0.4-0.6,0.6-1,0.6
		l-0.9-0.5l-0.4-1l-0.2-2.7l-4.4,1.5l-5.1,1.3c-0.3,0-0.3,0.2-0.3,1.1c0,0.4-0.2,0.6-0.7,0.7c-0.7,0-1.1-0.3-1.4-1.3l-1.1-3.1
		l4.4-0.3c1.3-1.7,2.5-3.6,3.7-5.6l3.2-6.6l0.6-1.7L609.7,2201.4z M605.5,2195c0.6,0.3,0.9,0.6,0.9,0.9c0,0.3-0.3,0.7-0.9,0.7
		c-0.4,0-0.7,0.1-0.9,0.4c-0.5,1.2-1.3,2.5-2.2,3.8l-2.2,2.6c0.9,1.1,1.6,2,1.8,2.9c0,1.2,0,2.2-0.9,2.2c-0.3,0-1.5-0.1-1.7-1
		c-0.2-0.9-1.3-4.8-3.7-6.5c-0.2-0.1-0.3-0.3-0.3-0.5c0-0.2,0.1-0.5,0.5-0.5c0.5,0,1.8,0.9,3.2,2.3l1.7-3l1.4-3.7l0.5-1.8
		L605.5,2195z M600.2,2172.7l2.9,2h17.7l1.8-1.8l3,2c0.2,0.1,0.3,0.3,0.3,0.6c0,0.6-0.4,1.1-1,1.2c-0.5,0.1-0.9,0.5-0.9,0.7v15.9
		c0.1,0.7-0.4,0.9-2.2,1.3c-1,0-1-0.3-1-3.2h-17.3c0,1.1,0,1.3-0.8,1.7c-2.2,0.5-2.5,0.6-2.5-1.1V2172.7z M603.5,2176.7v5.5h17.3
		v-5.5H603.5z M603.5,2184.2v5.2h17.3v-5.2H603.5z M605.1,2220.7c-0.1-0.1-0.2-0.3-0.2-0.4c0-0.3,0.3-0.6,0.7-0.6
		c0.9,0,4.1,5.5,4.1,8.9c0,1.7-1,2.6-1.8,2.6c-1.1,0-1.5-0.8-1.5-1.8c0.1-0.9,0.1-1.7,0.1-2.4
		C606.5,2224.4,606.1,2222.1,605.1,2220.7z M621.3,2195.3c0.5,0.3,0.8,0.5,0.8,0.9c0,0.3-0.4,0.7-0.9,0.7c-0.4,0-0.7,0.1-0.9,0.5
		c-0.5,1.2-1.3,2.4-2.2,3.6l-2.1,2.4c0.8,1.1,1.3,1.9,1.5,2.7c0,1,0,2.2-1.3,2.2c-0.6,0-0.7-0.1-1.4-1.1c-0.3-2.5-1.5-5.4-3-6.7
		c-0.1-0.1-0.3-0.2-0.3-0.3c0-0.2,0.2-0.6,0.5-0.6c0.3,0,1.5,0.7,3.1,2.6l1.5-2.6l1.4-3.6l0.6-1.8L621.3,2195.3z M625,2202.3
		c0.6,0.3,0.8,0.6,0.8,1c0,0.3-0.3,0.7-0.9,0.7c-0.4,0-0.7,0.1-0.9,0.4c-0.9,2-2.2,4.1-3.7,6.3l-2.8,3.4h1.1l5.4-1
		c-0.9-1.7-1.3-2.6-2.1-3.2c-0.1-0.1-0.3-0.3-0.3-0.4c0-0.2,0.2-0.5,0.5-0.5c1.3,0,5.8,5.6,5.8,7.2c0,0.5-0.1,2.2-1.1,2.2l-1-0.3
		l-0.6-0.9l-0.6-2.4l-4,1.3l-4.6,1.1c-0.3,0.1-0.3,0.3-0.3,1.1c0,0.5-0.3,0.7-0.8,0.7c-0.6,0-1.1-0.3-1.3-1.3l-1.1-3.1l3-0.1
		c3.5-4.4,5.3-8.9,6.9-13.1L625,2202.3z M615.7,2229.5l-0.5-1.2c-0.1-2.6-0.5-6-2.5-8.4c-0.1-0.1-0.2-0.3-0.2-0.5s0.3-0.5,0.6-0.5
		c1.1,0,5.4,5.7,5.4,8.6c0,1.1-0.7,2.4-1.7,2.4L615.7,2229.5z M623.8,2226.9c-0.3-1.4-1.2-5.5-4-8c-0.2-0.1-0.3-0.3-0.3-0.4
		s0.2-0.6,0.6-0.6c1.3,0,6.8,5.3,6.8,8.3c0,0.4-0.3,2-1.5,2C624.7,2228.2,623.9,2227.7,623.8,2226.9z M638.7,2224.3
		c-0.3,0-0.6,0.1-0.8,0.3c-4.1,4.7-13.8,8-15.3,8c-0.4,0-0.7-0.2-0.7-0.6c0-0.3,0.2-0.5,0.5-0.6c5.3-1.9,11.6-6,13.9-10.4l3.2,1.5
		c0.6,0.3,0.9,0.7,0.9,1.1c0,0.5-0.3,0.9-0.9,0.9L638.7,2224.3z M630.9,2182.5l3.2,2.8h3.3l1.3-4.1l0.8-4H628l-0.5-2h20.5l4.2-3.5
		l4.2,3.2c0.3,0.2,0.5,0.6,0.5,1.1c0,0.6-0.4,1.3-1.5,1.3h-12.1l-1.6,3.9l-2.4,4.2h10.5l1.6-2.2l3,2c0.2,0.1,0.3,0.3,0.3,0.6
		c0,0.8-0.5,1.2-0.9,1.3c-0.5,0.2-0.7,0.5-0.7,0.7v31.5c0,0.7-0.5,0.8-2.4,1.3c-0.9,0-0.9-0.5-0.9-2.4h-15.6v2.5
		c0,0.8-0.6,1-2.6,1.5c-0.4,0-0.6-0.5-0.6-1.5V2182.5z M634.2,2187.3v8.1h15.6v-8.1H634.2z M634.2,2197.3v8.3h15.6v-8.3H634.2z
		 M634.2,2207.6v8.3h15.6v-8.3H634.2z M656.5,2230.6c0,0.5-0.3,1.4-1.5,1.4c-0.7,0-1.3-0.5-1.5-0.9c-2.6-4.6-6.1-7.5-8.5-8.4
		c-0.3-0.1-0.5-0.3-0.5-0.5c0-0.5,0.3-0.7,0.7-0.7c1.8,0,9.3,4.2,10.8,7.4L656.5,2230.6z"/>
	<path id="XMLID_388_" d="M678.6,2203.5c0.7,0.2,1.1,0.6,1.1,1.1c0,0.8-0.5,0.8-1.4,0.8c-0.3,0-0.5,0.1-0.6,0.2
		c-6.3,13.5-15,19.8-15.8,19.8c-0.3,0-0.5-0.3-0.5-0.5c0-0.3,0.1-0.5,0.3-0.7c3.2-3,6-6.5,8.2-10.3c2.8-4.6,4.3-7.7,5.1-11.6
		L678.6,2203.5z M713,2193l4.2-3.5l4.2,3.2c0.3,0.2,0.5,0.6,0.5,1c0,0.7-0.5,1.3-1.5,1.3h-26.8v31.5c0,1.6-1,4.2-6.1,5.6
		c0-3.2-4.4-4.4-7.3-5.1c-0.3-0.1-0.4-0.3-0.4-0.5c0-0.3,0.3-0.4,0.7-0.4c4.1,0.6,6.8,1,8.3,1c1.1,0,1.5-0.1,1.5-1.3V2195h-27.7
		l-0.5-2H713z M704.2,2177.2l4.2-3.4l4.2,3.2c0.3,0.2,0.5,0.5,0.5,1c0,0.8-0.6,1.3-1.5,1.3h-41.1l-0.5-2H704.2z M708.6,2207.3
		c6,5.1,9.8,11.8,9.8,14.6c0,1.1-0.7,2.2-1.8,2.2c-0.9,0-1.5,0-2.4-2.8c-1.9-6.6-7.4-14.3-10.7-17.5c-0.1-0.1-0.2-0.3-0.2-0.5
		c0-0.1,0-0.1,0.1-0.2h0.7L708.6,2207.3z"/>
	<path id="XMLID_393_" d="M735,2181.3l-0.6,2.7c-0.9,2.9-2.5,5.9-4.6,5.9c-1.5,0-1.7-1.8-1.7-1.9c0.1-0.4,0.6-1.1,1.5-1.7
		c2.6-2.2,4.4-4.7,4.8-9.4c0-0.3,0.2-0.5,0.5-0.5c0.3,0,0.5,0.2,0.5,0.5l-0.1,2.4h20.9v-8.5l3.4,0.7c1.1,0.1,1.5,0.5,1.5,1
		c0,0.5-0.3,0.9-0.8,1.1c-0.5,0.2-0.8,0.6-0.8,1v4.8h21.7l2.2-2.1l2.4,3c0.3,0.4,0.5,0.8,0.5,1.3c0,0.2-0.1,1.3-1.1,1.3
		c-0.2,0-1.1-0.1-1.2-0.1c-0.5,0-0.9,0.1-1.1,0.3l-5,4.8c-0.1,0.1-0.3,0.1-0.3,0.1c-0.4,0-0.6-0.5-0.6-0.7c0-0.1,0-0.2,0.1-0.3
		c1.5-1.8,2.7-3.8,3.6-5.7H735z M748.3,2208.3l-1.3-0.7l-0.5-0.9c-6.3,3.3-16.5,6.6-17.3,6.6c-0.1,0-0.5,0-0.5-0.4
		c0-0.2,0.1-0.4,0.4-0.5c9.1-3.1,16.3-7.1,17.3-7.7v-16.9l4.4,1.2c0.5,0.1,0.8,0.5,0.8,1c0,0.5-0.4,0.9-1,0.9s-0.9,0.3-0.9,0.8v11
		c11.5-7.1,17.1-15.3,18.6-18l3.4,1.3c0.6,0.3,0.9,0.7,0.9,1c0,0.3-0.3,1-1,1l-1.1,0.3c-6.5,7.3-13,12.6-20.6,16.5l0.9,0.3h17.9
		c2,0,3-1.1,3.7-3.8l1-4.5c0-0.3,0.3-0.4,0.7-0.4s0.5,0.2,0.5,0.6l-0.1,4.6c-0.1,1.7,0.3,2.7,0.9,3c0.6,0.3,1,0.8,1,1.3
		c0,0.6-0.3,1.2-0.9,1.6c-1.2,0.6-1.3,0.7-2.2,0.7H748.3z M739,2189.5c0.3,0,0.5,0.3,0.5,0.6c0,4.1-3.9,13.8-7.7,13.8
		c-1.2,0-1.7-0.9-1.7-1.7c0-0.3,0-0.9,1.5-1.9c2.2-1.5,4-3.2,4.8-4.9c1-1.7,1.7-3.5,2-5.4C738.4,2189.7,738.7,2189.5,739,2189.5z
		 M740.6,2229.7v2.8c0,1.1-2,1.5-2.6,1.5c-0.5,0-0.7-0.2-0.7-0.6v-19.4l3.7,0.5c1,0.1,1.5,0.5,1.5,1.1c0,0.5-0.3,1-1,1.3
		c-0.6,0.3-0.9,0.7-0.9,1.2v9.7h16.1v-17.5l3.4,0.6c1,0.1,1.5,0.5,1.5,1.1c0,0.5-0.3,0.9-0.8,1.1c-0.5,0.2-0.8,0.5-0.8,1v13.8h15.3
		v-14l3.7,0.5c1.1,0.1,1.5,0.5,1.5,1.1s-0.3,1-0.9,1.3c-0.7,0.3-1,0.7-1,1.2v15c0,1.1-2,1.5-2.6,1.5c-0.5,0-0.7-0.2-0.7-0.6v-4
		H740.6z M759.3,2190.1c-3-4.2-6-5.6-7.1-5.9c-0.3-0.1-0.5-0.3-0.5-0.6c0-0.6,0.5-0.6,0.7-0.6c1.5,0,9.8,2.6,9.8,6.2
		c0,1.3-1,1.5-1.5,1.5S759.6,2190.4,759.3,2190.1z M784.6,2202c-3.1-6.7-6.6-9.5-8.3-10.4c-0.3-0.1-0.4-0.3-0.4-0.5
		c0-0.3,0.2-0.7,0.6-0.7c1.9,0,11.2,6.9,11.2,10.8c0,0.8-0.3,1.7-1.5,1.7C785.4,2203.1,784.8,2202.7,784.6,2202z"/>
	<path id="XMLID_400_" d="M811.8,2226.5c0,0.3-0.1,0.7-0.7,0.9c-2,0.5-2.6,0.7-2.6-0.9v-4.7H801v7.9c0,0.4-0.3,0.7-0.8,0.9
		c-2,0.7-2.5,0.9-2.5-0.9v-26c-1.8,3.1-3.8,5.4-4.2,5.4c-0.3,0-0.5-0.3-0.5-0.6c0-0.1,0.1-0.3,0.1-0.5c5.5-8.9,7.5-18.4,8.1-28.6
		h-6.5l-0.5-2h14.1l3.8-3l3.4,2.7c0.3,0.1,0.5,0.5,0.5,0.9c0,0.7-0.4,1.4-1.5,1.4h-10c-0.5,6.4-1.7,12.2-3.4,17.1h7.3l1.8-1.8l3,2
		c0.3,0.1,0.4,0.4,0.4,0.7c0,0.3-0.3,0.9-1,1.1c-0.5,0.1-0.9,0.5-0.9,0.7V2226.5z M801,2219.9h7.5v-21.2H801V2219.9z M816.1,2225.6
		c3.6-5.1,4.2-9.3,4.2-10.9c0-0.8,0-1,0.5-1c0.4,0,0.7,0.2,0.7,0.7c0.1,0.8,0.1,1.6,0.1,2.5c0,5.6-1.7,11.2-4.4,11.2
		c-0.7,0-1.4-0.4-1.4-1.5C815.9,2226.3,816,2225.9,816.1,2225.6z M819.4,2172.1l3.3,2.8h21.5l4.1-3.4l4,3c0.5,0.4,0.7,0.9,0.7,1.3
		c0,0.8-0.6,1.3-1.3,1.3h-14.5v8.1h5.4l3.6-2.9l3.2,2.4c0.5,0.4,0.7,0.9,0.7,1.3c0,0.7-0.6,1.3-1.3,1.3h-11.6v8.3h5.6l3.6-2.9
		l3.3,2.4c0.5,0.4,0.7,0.9,0.7,1.3c0,0.8-0.7,1.2-1.4,1.2h-11.8v8.3h12.4l1.4-2.1l2.8,1.7c0.7,0.3,1.1,0.9,1.1,1.4
		c0,0.3,0,1.2-1.1,1.3c-0.6,0.1-1,0.5-1,0.9c-0.1,3.6-0.4,7.1-0.9,10.3c-0.9,5.4-1.7,10.1-8.9,12.5c-0.3-3.3-3.6-4.4-5.8-5.1
		c-0.4-0.1-0.7-0.4-0.7-0.7c0-0.4,0.3-0.8,0.7-0.8c0.1,0,0.2,0.1,0.3,0.1c2.8,1.2,4.9,1.9,6.1,1.9c1.3-0.4,2.5-1.3,3.3-2.4
		c0.9-1,1.5-3.6,1.7-7.5l0.4-7.9l0.2-1.5h-26.6v3.3c0,0.9-0.8,1.1-2.6,1.5c-0.5,0-0.7-0.5-0.7-1.5V2172.1z M833.9,2185v-8.1h-11.2
		v8.1H833.9z M833.9,2195.3v-8.3h-11.2v8.3H833.9z M822.7,2197.3v8.4h11.2v-8.4H822.7z M827,2223.2c0.3-1.6,0.5-3.1,0.5-4.5
		c0-1.8-0.2-3.6-0.9-5.2c-0.1-0.1-0.1-0.2-0.1-0.3c0-0.3,0.3-0.5,0.5-0.5c0.9,0,2.9,5.2,2.9,8.9c0,0.5,0,3.1-1.8,3.1
		c-0.2,0-0.3-0.1-1.1-0.7L827,2223.2z M835.2,2221.7l-0.3-0.9c0-5-1.5-7.4-2.1-8.1c-0.1-0.1-0.2-0.2-0.2-0.3c0-0.2,0.2-0.5,0.5-0.5
		c0.9,0,4.6,5.2,4.6,8.5l-0.5,1.3c-0.3,0.4-0.6,0.6-1,0.6L835.2,2221.7z M842.7,2218.7c-0.3-1.9-1.5-5.4-3.3-7.1
		c-0.1-0.1-0.3-0.3-0.3-0.4c0-0.2,0.2-0.5,0.5-0.5c1.1,0,5.8,5.2,5.8,7c0,0.5-0.2,2.2-1.1,2.2l-1-0.3L842.7,2218.7z"/>
</g>
<g id="XMLID_34_">
	<path id="XMLID_280_" class="st7" d="M2538.3,986.6l5.8-4.8l5.7,4.3c0.5,0.3,0.7,0.8,0.7,1.4c0,1.3-1.1,1.7-2,1.7h-28.7l-0.6-2.7
		H2538.3z M2521.5,1021.7l4.4,3.1h14.6l2.4-2.4l4.2,2.7c0.4,0.2,0.5,0.5,0.5,0.8s-0.3,1.3-1.4,1.5c-0.6,0.2-1.1,0.6-1.1,1.1v23.1
		c0.1,0.5-0.4,1-0.9,1.3c-2.7,0.7-3.5,0.9-3.5-1.3v-4.6H2526v4.5c0,0.5-0.4,0.9-1.1,1.2c-2.9,0.7-3.4,0.8-3.4-1.4V1021.7z
		 M2535.1,999.6l5.8-4.7l5.7,4.3c0.5,0.3,0.7,0.7,0.7,1.4c0,1.2-0.9,1.8-2,1.8h-22.6l-0.7-2.8H2535.1z M2534.8,1011.6l5.8-4.7
		l5.7,4.3c0.5,0.3,0.7,0.8,0.7,1.4c0,1.2-0.9,1.8-2,1.8h-22.3l-0.7-2.8H2534.8z M2534.8,974.5l5.8-4.8l5.7,4.3
		c0.5,0.3,0.7,0.8,0.7,1.4c0,1.2-0.9,1.7-2,1.7h-21.9l-0.7-2.7H2534.8z M2526,1044.2h14.6v-16.7H2526V1044.2z M2550.2,1048l-0.7-2.8
		h22.8v-27.6h-17.1l-0.7-2.8h17.8v-25.2h-18.6l-0.6-2.7h19.2v-17.3l4.7,0.9c1.4,0.2,2.1,0.7,2.1,1.4s-0.5,1.2-1.2,1.4
		c-0.7,0.3-1.1,0.8-1.1,1.4v12.1h12.4l5.7-4.8l5.8,4.3c0.5,0.3,0.7,0.8,0.7,1.4c0,1-0.7,1.8-2.1,1.8h-22.5v25.2h9.6l5.7-4.7l5.8,4.3
		c0.5,0.3,0.6,0.8,0.6,1.4c0,1.4-1.2,1.7-2,1.7h-19.7v27.6h13.8l5.7-4.7l5.8,4.3c0.4,0.2,0.6,0.7,0.6,1.3c0,1-0.5,1.9-2,1.9H2550.2z
		"/>
	<path id="XMLID_288_" class="st7" d="M2676.3,973.8l2-2.4l3.5,2.9c0.7,0.5,1.2,1.2,1.2,1.9c0,0.7-0.5,1.3-1.2,1.5
		c-0.6,0.3-1,0.7-1,1.1v26.9h1.9l5-4.9l4.7,4.3c0.4,0.4,0.5,0.9,0.5,1.4c0,1-0.6,1.9-1.8,1.9h-10.3v39.1c0,2.5-1.8,4.3-8.2,5.5
		c-0.4-3-2.1-3.7-6.7-5.3c-0.6-0.2-0.9-0.5-0.9-1.1c0.1-0.5,0.4-0.6,0.8-0.6h0.3c3,0.5,5.3,0.7,7,0.7c1.8,0,3.3-0.2,3.3-2.3v-36
		h-14.9v41.5c0,1.4-3.3,1.7-3.4,1.7c-0.7,0-1.1-0.5-1.1-1.7v-41.5H2643v41.5c0,1.4-3.3,1.7-3.4,1.7c-0.7,0-1.1-0.5-1.1-1.7v-41.5
		h-13.8v43.1c0,1.1-1,1.4-3.6,2c-0.6,0-0.9-0.7-0.9-2v-43.1h-9.8l-0.6-2.7h10.4V970l4.5,3.8H2676.3z M2624.6,1005.7h13.8v-29.1
		h-13.8V1005.7z M2643,1005.7h13.8v-29.1H2643V1005.7z M2661.4,1005.7h14.9v-29.1h-14.9V1005.7z"/>
</g>
<g id="XMLID_375_">
	<g id="XMLID_13_">
		<path id="XMLID_35_" class="st8" d="M648.9,1129.6c-8.3-1.1-16.1-4.1-21.9-10.6c-11.2-12.6-6.5-31.5-6.7-46.8
			c-0.4-21.8-0.5-43.5-0.6-65.3c-0.2-45.6,0.5-91.1,0.4-136.7c0-3.3,0-6.8,1.7-9.7c5.6-9.8,36.1-16.5,46.1-20.4
			c20.9-8.2,41.8-16.5,62.8-24.8c40.8-16.1,81.7-32.2,122.9-47.5c19.7-7.4,48.5-24.5,69.1-11.4c18.9,12,21.9,46.5,22.6,66.6
			c2.1,53.3-5.8,107.4-21.1,158.3c-10.4,34.6-36.8,63.2-66,83.3c-31.6,21.7-68.1,35.6-104.4,47.2
			C720.7,1122.6,684,1134.2,648.9,1129.6z M720.2,887.7c-2.1,5.3,1.5,123.5,3.9,149c28.7,1.2,147.1-41.3,175.1-80.5
			c20.8-29.1,22.7-124.7,1.1-143.2c-34.3-29.3-132.8,41.7-173.2,67.3C723.4,882.7,721.3,885.1,720.2,887.7z"/>
	</g>
	<g id="XMLID_5_">
		<g id="XMLID_9_">
			<path id="XMLID_11_" class="st9" d="M885.1,665.6c23.3,9,34.2,20.6,29.5,30c-6,11.8-49.9,18.2-49.9,18.2s-36.3-17.5-41.9-19.6
				c-59.7-22.4-106.3-48.7-166.2-74c-21.1-8.9-42.7-18-65.5-19.8c-14.7-1.2-52.1,16.1-50.3,31.4c2.3,18.7,243.9,30.3,262.9,97.8
				c5.9,20.9-22.5,25.3-73.2,46.6c-28.9,12.2-91.4,43.1-124,41c-17.6-1.1-198.8-78.7-265.9-103.9c-21.5-8.1-59.3-10.9-62.9-27.7
				c-3.2-14.8,30.1-35.3,49.1-35.5c15.8-0.2,31,6,45.6,12.2c67.2,28.2,134.4,56.4,201.6,84.6c8.5,3.6,19.7,7.2,26.6,7.2
				c15,0,58.4-5.9,56.2-20.7c-10.3-69.1-249.4-42.5-255.8-112c-3.9-42.2,122-73.6,151.7-75.7c41.5-3,81.6,13.3,120,29.2
				C741.6,603.4,879.6,663.4,885.1,665.6z"/>
		</g>
		<g id="XMLID_10_">
			<path id="XMLID_12_" class="st10" d="M326.9,650.1c15.8-0.2,31,6,45.6,12.2c67.2,28.2,134.4,56.4,201.6,84.6
				c8.5,3.6,19.7,7.2,26.6,7.2c15,0,58.4-5.9,56.2-20.7c-10.3-69.1-249.4-42.5-255.8-112c-3.9-42.2,122-73.6,151.7-75.7
				c41.5-3,81.6,13.3,120,29.2c68.9,28.6,206.9,88.7,212.4,90.8c23.3,9,34.2,20.6,29.5,30c-6,11.8-49.9,18.2-49.9,18.2
				s-36.3-17.5-41.9-19.6c-59.7-22.4-106.3-48.7-166.2-74c-21.1-8.9-42.7-18-65.5-19.8c-14.7-1.2-52.1,16.1-50.3,31.4
				c2.3,18.7,243.9,30.3,262.9,97.8c5.9,20.9-22.5,25.3-73.2,46.6c-28.9,12.2-91.4,43.1-124,41c-17.6-1.1-198.8-78.7-265.9-103.9
				c-21.5-8.1-59.3-10.9-62.9-27.7C274.6,670.8,307.9,650.3,326.9,650.1z"/>
		</g>
	</g>
	<path id="XMLID_2_" class="st8" d="M262.1,994.2c1.7-31.5,113.7-36.7,113.7-36.7S270,927.7,248,895.5
		c-15.3-22.4-18.9-50.7-16.6-77.2c1.8-19.7,6.6-56,23.3-69.3c2.4-1.9,5.4-3.1,8.3-3.9c25.9-7.8,43.4,5.8,66.6,14.3
		c20.6,7.5,40.5,16.5,61,24.4c36.7,14.1,73.2,28.7,109.4,44.1c4.1,1.8,8.3,3.5,12.4,5.4c11.1,5.1,61,23.5,66,31.1
		c4.5,7,2.5,24.6,2.9,32.5c1.4,24.8,2.2,49.7,2.5,74.6c0.4,28.9,0.2,57.8-1.4,86.7c-0.7,12.7,0.8,66.8-12.2,72.8
		c-10.6,4.9-31.7-3.3-41.9-6.8c-31.7-10.9-26.6-41.7-25.1-69c0.4-7.6,7.3-54.5-8.6-52.7c-15.9,1.9-29.7,13-44.4,18.3
		c-19.4,7-61.7,31-84.2,33.2c-21,2.1-46.8-4.8-65.8-13.2C283.3,1033.1,261,1015.2,262.1,994.2z M299.8,869.4
		c11.9,13.2,134.8,71.9,180.5,60.2c5-1.3,21.3-9,17.7-33.6c-7.3-50.5-153.9-76.5-176.9-76.5C281,819.5,289.2,857.7,299.8,869.4z"/>
</g>
<g id="XMLID_59_">
	<path id="XMLID_63_" class="st11" d="M4626.7,1267.1l5.6,86.7c0,0-31.1,55.6,170.1,146.8c201.2,91.2,550.4,31.1,571.5,26.7
		c21.1-4.4,179-50,224.6-92.3c45.6-42.3,44.5-60,44.5-60s13.3-24.5-5.6-75.6c-18.9-51.1,0-94.5,0-94.5s35.6-145.7,5.6-251.3
		S5525.1,741.2,5419.5,699c-105.6-42.3-215.7-50-294.6-38.9s-169,41.1-221.3,72.3c-52.3,31.1-132.3,123.4-145.7,141.2
		s-57.8,86.7-67.8,112.3c-10,25.6-37.8,95.6-44.5,135.6C4638.9,1161.5,4626.7,1267.1,4626.7,1267.1z"/>
	<path id="XMLID_62_" class="st12" d="M4891.3,860.2c0,0,16.7,2.8,21.7,2.8s12.8,0.6,22.8,0c10-0.6,16.7-0.6,25.6-2.8
		c8.9-2.2,15-4.4,16.7-5c1.7-0.6,3.3-2.8,4.4,0c1.1,2.8,3.9,5,5.6,18.9s3.3,18.3,0,28.9c-3.3,10.6-2.8,12.2-11.7,23.9
		c-8.9,11.7-4.4,14.5-21.1,21.1c-16.7,6.7-11.7,11.1-33.4,8.3s-32.8-20-34.5-25c-1.7-5-11.7-22.5-8.9-36.5c2.8-14,7.2-26.3,8.9-29.1
		C4889.1,863,4891.3,860.2,4891.3,860.2z"/>
	<path id="XMLID_65_" class="st12" d="M5203.8,923.6c0,0-25.6,5.6-35.6,33.6c-10,28.1-11.7,44.2-6.1,54.8
		c5.6,10.6,17.8,35,41.7,33.4c23.9-1.7,38.9-7.2,43.9-16.1c5-8.9,15-13.9,18.3-30c3.3-16.1,3.3-19.5,3.3-19.5s-25.6-11.1-35-20
		c-9.5-8.9-14.3-10-20.2-18.3C5208.2,933,5203.8,923.6,5203.8,923.6z"/>
	<path id="XMLID_66_" class="st12" d="M5448.4,1103.2c0,0-5.6-18.9-18.9-3.9c-13.3,15-30.6,51.7-30.6,51.7s-20.6,42.4-17.2,71.8
		c3.3,29.4,17.2,48.9,37.8,51.6c20.6,2.8,46.7,0,52.3-38.4c5.6-38.4-5-86.2-5-86.2L5448.4,1103.2z"/>
	<path id="XMLID_67_" class="st12" d="M5054.2,1080.3c0,0-9-15.8-25.3-24.5c-11.7-6.3-27.3-9-45.9,0.6
		c-44.5,22.8-63.4,82.8-63.4,82.8s-26.1,75.6,27.8,114.5c53.9,38.9,90.6,12.8,90.6,12.8s31.1-11.3,34.5-67.4
		c3.3-56-0.6-86.8-9.5-102.8C5054.2,1080.3,5054.2,1080.3,5054.2,1080.3z"/>
</g>
<rect id="XMLID_188_" x="4084.5" y="2467.3" class="st2" width="1662.9" height="130.3"/>
<g id="XMLID_215_">
	<path id="XMLID_61_" class="st1" d="M4134.5,2344.6c0,3.2-0.4,6.1-1.1,8.6c-0.7,2.6-1.7,4.7-3.1,6.5c-1.4,1.8-3.1,3.2-5.1,4.2
		s-4.3,1.5-6.9,1.5c-1.1,0-2.1-0.1-3.1-0.4c-1-0.2-1.9-0.6-2.8-1.1c-0.9-0.5-1.8-1.1-2.8-1.9c-0.9-0.7-1.9-1.6-2.9-2.7v19.3
		c0,0.2,0,0.3-0.1,0.5c-0.1,0.1-0.2,0.3-0.4,0.4c-0.2,0.1-0.4,0.2-0.7,0.2s-0.7,0.1-1.2,0.1c-0.5,0-0.9,0-1.2-0.1
		c-0.3,0-0.6-0.1-0.8-0.2c-0.2-0.1-0.3-0.2-0.4-0.4c-0.1-0.1-0.1-0.3-0.1-0.5v-52.2c0-0.2,0-0.4,0.1-0.5c0.1-0.1,0.2-0.2,0.4-0.3
		s0.4-0.1,0.7-0.2c0.3,0,0.6-0.1,1.1-0.1c0.4,0,0.8,0,1,0.1s0.5,0.1,0.7,0.2c0.2,0.1,0.3,0.2,0.4,0.3c0.1,0.1,0.1,0.3,0.1,0.5v5.4
		c1.2-1.2,2.3-2.2,3.3-3.1s2.1-1.6,3.1-2.2c1-0.6,2.1-1,3.2-1.3c1.1-0.3,2.3-0.4,3.5-0.4c2.7,0,5,0.5,6.9,1.5c1.9,1,3.5,2.4,4.7,4.2
		c1.2,1.8,2.1,3.9,2.6,6.3C4134.2,2339.4,4134.5,2341.9,4134.5,2344.6z M4129.3,2345.4c0-2.1-0.2-4.1-0.5-6.1s-0.9-3.7-1.7-5.2
		c-0.8-1.5-1.8-2.7-3.1-3.6c-1.3-0.9-3-1.4-4.9-1.4c-1,0-2,0.1-2.9,0.4c-1,0.3-1.9,0.7-2.9,1.4c-1,0.6-2,1.5-3.1,2.5
		c-1.1,1-2.2,2.3-3.4,3.7v16.3c2.1,2.5,4,4.4,5.9,5.8c1.9,1.3,3.9,2,5.9,2c1.9,0,3.5-0.5,4.9-1.4c1.4-0.9,2.5-2.1,3.3-3.6
		c0.9-1.5,1.5-3.2,1.9-5.1C4129.1,2349.2,4129.3,2347.3,4129.3,2345.4z"/>
	<path id="XMLID_263_" class="st1" d="M4172,2363.9c0,0.3-0.1,0.5-0.3,0.6c-0.2,0.2-0.4,0.3-0.7,0.3c-0.3,0.1-0.7,0.1-1.2,0.1
		c-0.5,0-0.9,0-1.2-0.1c-0.3-0.1-0.6-0.2-0.8-0.3c-0.2-0.2-0.3-0.4-0.3-0.6v-4.2c-1.7,1.8-3.5,3.2-5.6,4.2c-2,1-4.1,1.5-6.3,1.5
		c-2,0-3.7-0.3-5.3-0.8s-2.9-1.2-3.9-2.2s-1.9-2.1-2.5-3.5c-0.6-1.3-0.9-2.9-0.9-4.5c0-2.1,0.4-3.9,1.3-5.4c0.9-1.5,2.1-2.8,3.6-3.8
		c1.6-1,3.5-1.8,5.7-2.3c2.2-0.5,4.7-0.8,7.4-0.8h6v-3.2c0-1.6-0.2-3-0.5-4.2c-0.3-1.2-0.9-2.3-1.6-3.1s-1.7-1.4-2.9-1.9
		c-1.2-0.4-2.6-0.6-4.3-0.6c-1.7,0-3.1,0.2-4.5,0.6c-1.3,0.4-2.5,0.8-3.5,1.3c-1,0.5-1.8,0.9-2.5,1.3c-0.6,0.4-1.1,0.6-1.4,0.6
		c-0.2,0-0.3,0-0.5-0.1c-0.1-0.1-0.3-0.2-0.4-0.3c-0.1-0.2-0.2-0.3-0.2-0.6c0-0.2-0.1-0.5-0.1-0.8c0-0.6,0-1,0.1-1.4
		c0.1-0.3,0.3-0.7,0.6-1c0.3-0.3,1-0.8,1.8-1.2c0.9-0.5,1.9-0.9,3-1.3c1.1-0.4,2.4-0.7,3.7-1s2.6-0.4,4-0.4c2.6,0,4.7,0.3,6.5,0.9
		c1.8,0.6,3.2,1.5,4.3,2.7c1.1,1.2,1.9,2.6,2.3,4.3s0.7,3.6,0.7,5.8V2363.9z M4167.1,2346.2h-6.8c-2,0-3.7,0.2-5.2,0.5
		c-1.5,0.4-2.7,0.9-3.7,1.6c-1,0.7-1.7,1.5-2.2,2.5c-0.5,1-0.7,2.1-0.7,3.3c0,2.1,0.7,3.9,2,5.1c1.4,1.3,3.3,1.9,5.8,1.9
		c2,0,3.8-0.5,5.5-1.5c1.7-1,3.5-2.6,5.4-4.7V2346.2z"/>
	<path id="XMLID_266_" class="st1" d="M4207.6,2353.9c0,1.8-0.3,3.4-1,4.8c-0.7,1.4-1.6,2.6-2.8,3.6c-1.2,1-2.7,1.8-4.4,2.3
		c-1.7,0.5-3.6,0.8-5.7,0.8c-1.3,0-2.5-0.1-3.7-0.3c-1.2-0.2-2.2-0.5-3.1-0.8c-0.9-0.3-1.7-0.7-2.4-1c-0.6-0.4-1.1-0.7-1.4-1
		c-0.3-0.3-0.5-0.6-0.7-1c-0.1-0.4-0.2-1-0.2-1.7c0-0.4,0-0.7,0.1-1c0.1-0.3,0.1-0.5,0.2-0.7c0.1-0.2,0.2-0.3,0.3-0.4
		c0.1-0.1,0.3-0.1,0.5-0.1c0.3,0,0.7,0.2,1.3,0.6c0.6,0.4,1.3,0.8,2.2,1.3c0.9,0.5,1.9,0.9,3.1,1.3c1.2,0.4,2.6,0.6,4.2,0.6
		c1.3,0,2.4-0.1,3.5-0.4c1-0.3,2-0.7,2.7-1.2s1.4-1.3,1.8-2.1c0.4-0.9,0.6-1.9,0.6-3c0-1.2-0.3-2.1-0.8-2.9
		c-0.6-0.8-1.3-1.5-2.2-2.1c-0.9-0.6-1.9-1.1-3.1-1.6c-1.1-0.5-2.3-0.9-3.5-1.4c-1.2-0.5-2.4-1-3.5-1.6c-1.1-0.6-2.2-1.3-3.1-2.1
		c-0.9-0.8-1.6-1.8-2.2-3c-0.6-1.2-0.8-2.5-0.8-4.2c0-1.3,0.2-2.6,0.7-3.8c0.5-1.3,1.3-2.4,2.3-3.4s2.4-1.8,4-2.4
		c1.6-0.6,3.5-0.9,5.7-0.9c0.9,0,1.9,0.1,2.8,0.2c0.9,0.2,1.8,0.4,2.5,0.6c0.8,0.2,1.4,0.5,2,0.8c0.6,0.3,1,0.5,1.3,0.8
		c0.3,0.2,0.5,0.4,0.6,0.6s0.2,0.3,0.2,0.5c0,0.2,0.1,0.4,0.1,0.6c0,0.2,0,0.5,0,0.8s0,0.6-0.1,0.9c0,0.3-0.1,0.5-0.2,0.7
		c-0.1,0.2-0.2,0.3-0.3,0.4c-0.1,0.1-0.3,0.1-0.4,0.1c-0.2,0-0.6-0.2-1-0.5c-0.4-0.3-1-0.6-1.7-1c-0.7-0.4-1.6-0.7-2.6-1
		s-2.1-0.5-3.4-0.5c-1.3,0-2.4,0.2-3.4,0.5c-1,0.3-1.8,0.7-2.4,1.3c-0.6,0.6-1.1,1.2-1.4,1.9c-0.3,0.7-0.5,1.6-0.5,2.4
		c0,1.2,0.3,2.2,0.8,3.1c0.6,0.8,1.3,1.5,2.2,2.1c0.9,0.6,1.9,1.1,3.1,1.6c1.2,0.5,2.3,0.9,3.5,1.4c1.2,0.5,2.4,1,3.5,1.6
		c1.2,0.6,2.2,1.2,3.1,2c0.9,0.8,1.6,1.8,2.2,2.9C4207.3,2351,4207.6,2352.3,4207.6,2353.9z"/>
	<path id="XMLID_268_" class="st1" d="M4240.4,2353.9c0,1.8-0.3,3.4-1,4.8c-0.7,1.4-1.6,2.6-2.8,3.6c-1.2,1-2.7,1.8-4.4,2.3
		c-1.7,0.5-3.6,0.8-5.7,0.8c-1.3,0-2.5-0.1-3.7-0.3c-1.2-0.2-2.2-0.5-3.1-0.8c-0.9-0.3-1.7-0.7-2.4-1c-0.6-0.4-1.1-0.7-1.4-1
		c-0.3-0.3-0.5-0.6-0.7-1c-0.1-0.4-0.2-1-0.2-1.7c0-0.4,0-0.7,0.1-1c0.1-0.3,0.1-0.5,0.2-0.7c0.1-0.2,0.2-0.3,0.3-0.4
		c0.1-0.1,0.3-0.1,0.5-0.1c0.3,0,0.7,0.2,1.3,0.6c0.6,0.4,1.3,0.8,2.2,1.3c0.9,0.5,1.9,0.9,3.1,1.3c1.2,0.4,2.6,0.6,4.2,0.6
		c1.3,0,2.4-0.1,3.5-0.4c1-0.3,2-0.7,2.7-1.2s1.4-1.3,1.8-2.1c0.4-0.9,0.6-1.9,0.6-3c0-1.2-0.3-2.1-0.8-2.9s-1.3-1.5-2.2-2.1
		c-0.9-0.6-1.9-1.1-3.1-1.6c-1.1-0.5-2.3-0.9-3.5-1.4c-1.2-0.5-2.4-1-3.5-1.6s-2.2-1.3-3.1-2.1c-0.9-0.8-1.6-1.8-2.2-3
		c-0.6-1.2-0.8-2.5-0.8-4.2c0-1.3,0.2-2.6,0.7-3.8c0.5-1.3,1.3-2.4,2.3-3.4s2.4-1.8,4-2.4c1.6-0.6,3.5-0.9,5.7-0.9
		c0.9,0,1.9,0.1,2.8,0.2c0.9,0.2,1.8,0.4,2.5,0.6c0.8,0.2,1.4,0.5,2,0.8c0.6,0.3,1,0.5,1.3,0.8c0.3,0.2,0.5,0.4,0.6,0.6
		c0.1,0.2,0.2,0.3,0.2,0.5c0,0.2,0.1,0.4,0.1,0.6c0,0.2,0,0.5,0,0.8s0,0.6-0.1,0.9c0,0.3-0.1,0.5-0.2,0.7c-0.1,0.2-0.2,0.3-0.3,0.4
		c-0.1,0.1-0.3,0.1-0.4,0.1c-0.2,0-0.6-0.2-1-0.5c-0.4-0.3-1-0.6-1.7-1c-0.7-0.4-1.6-0.7-2.6-1s-2.1-0.5-3.4-0.5s-2.4,0.2-3.4,0.5
		s-1.8,0.7-2.4,1.3c-0.6,0.6-1.1,1.2-1.4,1.9c-0.3,0.7-0.5,1.6-0.5,2.4c0,1.2,0.3,2.2,0.8,3.1c0.6,0.8,1.3,1.5,2.2,2.1
		c0.9,0.6,1.9,1.1,3.1,1.6c1.2,0.5,2.3,0.9,3.5,1.4c1.2,0.5,2.4,1,3.5,1.6c1.2,0.6,2.2,1.2,3.1,2c0.9,0.8,1.6,1.8,2.2,2.9
		C4240.1,2351,4240.4,2352.3,4240.4,2353.9z"/>
	<path id="XMLID_270_" class="st1" d="M4300.3,2326.4c0,0.1,0,0.3-0.1,0.5c0,0.2-0.1,0.4-0.1,0.6l-11.6,36.4
		c-0.1,0.2-0.2,0.4-0.3,0.5c-0.2,0.1-0.4,0.2-0.6,0.3c-0.2,0.1-0.6,0.1-1,0.2c-0.4,0-0.9,0-1.4,0c-0.6,0-1.1,0-1.5-0.1
		c-0.4,0-0.8-0.1-1-0.2s-0.5-0.2-0.6-0.3c-0.2-0.1-0.3-0.3-0.3-0.5l-8.7-29.5l-0.1-0.3l-0.1,0.3l-8.1,29.5c-0.1,0.2-0.2,0.4-0.3,0.5
		c-0.2,0.1-0.4,0.2-0.7,0.3c-0.3,0.1-0.6,0.1-1.1,0.2c-0.4,0-0.9,0-1.4,0c-0.6,0-1,0-1.4-0.1s-0.7-0.1-1-0.2
		c-0.3-0.1-0.5-0.2-0.6-0.3c-0.1-0.1-0.2-0.3-0.3-0.5l-11.5-36.4c-0.1-0.2-0.1-0.4-0.2-0.6s-0.1-0.4-0.1-0.5c0-0.2,0-0.4,0.1-0.5
		c0.1-0.1,0.2-0.2,0.4-0.3c0.2-0.1,0.4-0.1,0.7-0.1s0.7,0,1.1,0c0.6,0,1,0,1.4,0.1c0.4,0,0.6,0.1,0.8,0.2c0.2,0.1,0.3,0.2,0.4,0.3
		c0.1,0.1,0.2,0.3,0.2,0.5l9.9,32.7l0.1,0.3l0.1-0.3l9-32.7c0.1-0.2,0.1-0.4,0.2-0.5c0.1-0.1,0.2-0.2,0.4-0.3
		c0.2-0.1,0.4-0.1,0.7-0.2c0.3,0,0.7-0.1,1.2-0.1c0.5,0,0.9,0,1.2,0.1c0.3,0,0.6,0.1,0.7,0.2c0.2,0.1,0.3,0.2,0.4,0.3
		c0.1,0.1,0.2,0.3,0.2,0.5l9.7,32.7l0.1,0.3l0-0.3l9.8-32.7c0.1-0.2,0.1-0.4,0.2-0.5c0.1-0.1,0.2-0.2,0.4-0.3
		c0.2-0.1,0.5-0.1,0.8-0.2s0.8-0.1,1.3-0.1c0.4,0,0.8,0,1.1,0s0.5,0.1,0.7,0.2c0.2,0.1,0.3,0.2,0.3,0.3S4300.3,2326.2,4300.3,2326.4
		z"/>
	<path id="XMLID_272_" class="st1" d="M4342.1,2344.8c0,3-0.4,5.7-1.2,8.2c-0.8,2.5-1.9,4.7-3.5,6.5c-1.5,1.8-3.4,3.3-5.7,4.3
		c-2.3,1-4.9,1.5-8,1.5c-2.9,0-5.5-0.5-7.7-1.4c-2.2-0.9-4-2.2-5.5-4c-1.5-1.7-2.6-3.8-3.3-6.3c-0.7-2.5-1.1-5.2-1.1-8.3
		c0-3,0.4-5.7,1.1-8.2c0.8-2.5,1.9-4.7,3.4-6.5c1.5-1.8,3.4-3.3,5.7-4.3c2.3-1,5-1.5,8-1.5c2.9,0,5.5,0.5,7.7,1.4
		c2.2,0.9,4,2.2,5.5,3.9c1.5,1.7,2.6,3.8,3.3,6.3C4341.8,2339,4342.1,2341.7,4342.1,2344.8z M4336.9,2345.2c0-2.1-0.2-4.1-0.6-6.1
		c-0.4-1.9-1.1-3.6-2.1-5.1s-2.3-2.6-3.9-3.5c-1.6-0.9-3.7-1.3-6.1-1.3c-2.2,0-4.2,0.4-5.8,1.2c-1.6,0.8-3,1.9-4,3.3
		c-1,1.4-1.8,3.1-2.3,5c-0.5,1.9-0.7,4-0.7,6.2c0,2.1,0.2,4.2,0.6,6.1c0.4,1.9,1.1,3.6,2.1,5.1c1,1.5,2.3,2.6,3.9,3.5
		c1.6,0.9,3.7,1.3,6.1,1.3c2.2,0,4.2-0.4,5.8-1.2c1.6-0.8,3-1.9,4-3.3c1-1.4,1.8-3.1,2.3-5
		C4336.7,2349.6,4336.9,2347.5,4336.9,2345.2z"/>
	<path id="XMLID_275_" class="st1" d="M4373.9,2328.4c0,0.4,0,0.8,0,1.1c0,0.3-0.1,0.5-0.1,0.7c-0.1,0.2-0.2,0.3-0.2,0.4
		c-0.1,0.1-0.2,0.1-0.4,0.1c-0.2,0-0.5-0.1-0.9-0.2c-0.3-0.1-0.7-0.3-1.2-0.4c-0.4-0.1-0.9-0.3-1.4-0.4s-1.1-0.2-1.7-0.2
		c-0.7,0-1.5,0.2-2.2,0.5c-0.7,0.3-1.5,0.8-2.3,1.5c-0.8,0.7-1.6,1.6-2.5,2.8c-0.9,1.2-1.8,2.6-2.9,4.3v25.3c0,0.2,0,0.3-0.1,0.5
		c-0.1,0.1-0.2,0.2-0.4,0.3c-0.2,0.1-0.4,0.2-0.7,0.2c-0.3,0.1-0.7,0.1-1.2,0.1c-0.5,0-0.9,0-1.2-0.1c-0.3-0.1-0.6-0.1-0.8-0.2
		c-0.2-0.1-0.3-0.2-0.4-0.3c-0.1-0.1-0.1-0.3-0.1-0.5v-37.4c0-0.2,0-0.3,0.1-0.5c0.1-0.1,0.2-0.3,0.4-0.4c0.2-0.1,0.4-0.2,0.7-0.2
		s0.7-0.1,1.1-0.1c0.5,0,0.9,0,1.2,0.1c0.3,0,0.5,0.1,0.7,0.2c0.2,0.1,0.3,0.2,0.4,0.4c0.1,0.1,0.1,0.3,0.1,0.5v5.9
		c1.1-1.6,2.1-2.8,3-3.8c0.9-1,1.8-1.7,2.6-2.3c0.8-0.5,1.6-0.9,2.4-1.1c0.8-0.2,1.6-0.3,2.4-0.3c0.4,0,0.8,0,1.2,0.1
		c0.5,0,1,0.1,1.5,0.2c0.5,0.1,1,0.2,1.4,0.4c0.4,0.2,0.7,0.3,0.9,0.4c0.2,0.1,0.3,0.2,0.3,0.3c0.1,0.1,0.1,0.2,0.1,0.4
		c0,0.2,0.1,0.4,0.1,0.6C4373.9,2327.6,4373.9,2327.9,4373.9,2328.4z"/>
	<path id="XMLID_277_" class="st1" d="M4411.3,2363.9c0,0.2,0,0.4-0.1,0.5c-0.1,0.1-0.2,0.2-0.4,0.3s-0.4,0.1-0.7,0.2
		s-0.6,0.1-1,0.1c-0.4,0-0.8,0-1.1-0.1s-0.5-0.1-0.7-0.2s-0.3-0.2-0.4-0.3c-0.1-0.1-0.1-0.3-0.1-0.5v-5.4c-2,2.1-4,3.8-6.2,5.1
		s-4.4,1.8-6.9,1.8c-2.7,0-5-0.5-6.9-1.6s-3.5-2.5-4.7-4.3c-1.2-1.8-2.1-3.9-2.6-6.3c-0.6-2.4-0.8-5-0.8-7.7c0-3.2,0.3-6,1-8.6
		c0.7-2.5,1.7-4.7,3.1-6.5c1.3-1.8,3-3.2,5-4.1c2-1,4.3-1.4,6.9-1.4c2.3,0,4.3,0.5,6.2,1.5c1.9,1,3.7,2.5,5.5,4.4v-22.5
		c0-0.2,0-0.3,0.1-0.5c0.1-0.1,0.2-0.2,0.4-0.3c0.2-0.1,0.4-0.2,0.8-0.2c0.3-0.1,0.7-0.1,1.2-0.1c0.5,0,0.9,0,1.2,0.1
		c0.3,0.1,0.6,0.1,0.7,0.2c0.2,0.1,0.3,0.2,0.4,0.3c0.1,0.1,0.1,0.3,0.1,0.5V2363.9z M4406.4,2336.9c-2.1-2.5-4.1-4.4-6-5.7
		c-1.9-1.3-3.9-2-6-2c-1.9,0-3.5,0.5-4.9,1.4c-1.4,0.9-2.5,2.1-3.3,3.6c-0.9,1.5-1.5,3.2-1.9,5s-0.6,3.8-0.6,5.7
		c0,2.1,0.2,4.1,0.5,6c0.3,2,0.9,3.7,1.7,5.2c0.8,1.5,1.9,2.8,3.2,3.7c1.3,0.9,3,1.4,5,1.4c1,0,2-0.1,2.9-0.4
		c0.9-0.3,1.9-0.7,2.9-1.4c1-0.6,2-1.5,3.1-2.5c1.1-1,2.2-2.3,3.4-3.7V2336.9z"/>
</g>
<g id="XMLID_219_">
	<g id="XMLID_243_">
		<rect id="XMLID_258_" x="5033.4" y="2860.2" class="st5" width="304.9" height="120.1"/>
		<path id="XMLID_94_" d="M5095.6,2890.7c2.4-1.5,4.8-3.4,7.2-5.8c5.2-5,5.9-6.7,7.4-10.2l4.3,2.9c0.6,0.5,1,0.9,1,1.4
			c0,1-0.9,1-3,1c-4,5.7-11.4,10.3-15.5,11.8c2.9,2.4,5.9,4.4,9.1,6.1c5.2,2.7,10.4,4.8,15.5,6.2c0.4,0.1,0.6,0.4,0.6,0.7
			c0,0.4-0.6,0.8-1.9,1c-1.3,0.2-2.1,0.8-2.5,1.8c-0.3,0.8-0.6,1.2-1,1.2h-0.2c-16-6.5-29.5-20.5-37.9-37.1l-0.7,1.1
			c-1.5,3-4.3,7.3-8.4,12.6c-9.6,12.4-22.5,20-31.9,23.9c-0.9-0.5-0.9-0.6-0.9-1c0-0.2,0-0.4,0.2-0.5c6.7-3.6,12.4-7.5,17.1-11.5
			c10.4-8.8,16.9-18.4,19.8-25.7H5045l-0.6-2.8h30.5l1.6-2.4l4.2,2.9c0.5,0.3,0.6,0.7,0.6,1.2c0,0.9-0.6,1.5-1,1.6
			c1.9,3.4,4.2,6.7,6.6,9.7c1.8-1.3,3.6-2.9,5.2-4.9c3.2-3.5,3.8-5.1,4.9-8.5l4.5,2.6c0.7,0.5,1.1,0.9,1.1,1.4c0,0.9-1,1-3,1.3
			c-2.4,4.1-7.8,7.7-11.8,9.5l3.4,3.9L5095.6,2890.7z M5039.2,2946.5l-0.7-2.8h45.3l3-5.7l1.8-5.4l0.6-2.9l5.4,1.8
			c0.9,0.4,1.4,0.8,1.4,1.4c0,0.5-0.5,1.1-1.3,1.1l-1.4,0.5l-3.8,5.9l-2.6,3.2h18.7l5.8-4.9l5.9,4.4c0.5,0.3,0.7,0.8,0.7,1.4
			c0,1-0.7,1.8-2.1,1.8H5039.2z M5057.7,2887.3c-0.2,0.9-1,1.5-1.9,1.5c-1.1,0-1.8-0.6-2.2-1.6c-1.7-5.1-4.3-9.1-6.7-10.7
			c-0.4-0.2-0.6-0.5-0.6-0.6c0-0.3,0.3-0.8,0.8-0.8c1.7,0,9.3,5.6,10.6,9.9V2887.3z M5094.9,2906.2l2.4-2.6l4.3,2.9
			c0.4,0.1,0.6,0.5,0.6,0.8c0,0.5-0.4,1.3-1.5,1.6c-0.7,0.2-1.2,0.6-1.2,1.1v18.9c0.1,0.6-0.4,1-0.8,1.3c-3,0.7-3.6,0.8-3.6-1.3
			v-3.6h-34.1v3.1c0,0.5-0.4,0.9-1,1.3c-3.1,0.6-3.5,0.7-3.5-1.5v-24.5l3.5,2.5H5094.9z M5060.9,2909v13.4h34.1V2909H5060.9z
			 M5066.2,2941.2c-0.6-3.4-2.5-7.8-4.7-9.5c-0.3-0.2-0.5-0.5-0.5-0.6c0-0.3,0.3-0.8,0.9-0.8c1.3,0,8.7,6,8.7,9.8
			c0,0.6-0.3,2.9-2.1,2.9C5067.4,2942.8,5066.4,2941.9,5066.2,2941.2z M5082.8,2894.3l5-5l4.8,4.4c0.5,0.4,0.6,0.8,0.6,1.4
			c0,0.8-0.7,1.9-1.9,1.9h-27.5l-0.7-2.8H5082.8z"/>
		<path id="XMLID_256_" d="M5171.3,2867.6l3-3.1l3.4,3.9c0.3,0.3,0.4,0.6,0.4,1c0,1.7-1.3,2-2,2c-0.8,0.1-1.5,0.6-1.5,1.5
			c0,6.9,1.1,18.9,4.7,29.7c7.8,24.2,26.3,37.1,34.7,40.2c0.5,0.2,0.6,0.5,0.6,0.8c0,0.4-0.7,0.6-2.2,0.8s-2.6,0.9-3.3,2.2
			c-0.6,1-1.1,1.6-1.5,1.6c-0.3,0-8.4-5.2-15.4-12.9c-11.6-12.8-16.4-30.5-18.1-39c-5,14.9-10.3,25.9-23.9,38.4
			c-9.7,9.2-19.6,13.5-20.1,13.5c-0.6,0-0.7-0.6-0.7-0.8c0-0.4,0.2-0.6,0.4-0.7c7.7-4.6,13.9-9.4,18.5-14.4
			c10.2-11,16.4-21.7,20.4-33.4c1.7-5.2,3-9.6,3.6-13.1c-0.5-4.9-0.8-10.1-0.8-15.3h-21.6l-0.6-2.8H5171.3z"/>
	</g>
	<path id="XMLID_242_" class="st6" d="M5302.5,3001h-316.2c-19.7,0-35.7-16.1-35.7-35.7v-89.9c0-19.7,16.1-35.7,35.7-35.7h316.2
		c19.7,0,35.7,16.1,35.7,35.7v89.9C5338.2,2984.9,5322.2,3001,5302.5,3001z"/>
</g>
<rect id="XMLID_104_" x="1" y="5020" class="st0" width="3401.6" height="5000"/>
<g id="XMLID_97_">
	<path id="XMLID_103_" class="st11" d="M1187.6,6395.8l5.6,86.7c0,0-31.1,55.6,170.1,146.8s550.4,31.1,571.5,26.7
		c21.1-4.4,179-50,224.6-92.3s44.5-60,44.5-60s13.3-24.5-5.6-75.6c-18.9-51.1,0-94.5,0-94.5s35.6-145.7,5.6-251.3
		s-117.9-212.4-223.5-254.6c-105.6-42.3-215.7-50-294.6-38.9c-78.9,11.1-169,41.1-221.3,72.3s-132.3,123.4-145.7,141.2
		c-13.3,17.8-57.8,86.7-67.8,112.3c-10,25.6-37.8,95.6-44.5,135.6C1199.9,6290.2,1187.6,6395.8,1187.6,6395.8z"/>
	<path id="XMLID_102_" class="st12" d="M1452.3,5988.9c0,0,16.7,2.8,21.7,2.8s12.8,0.6,22.8,0c10-0.6,16.7-0.6,25.6-2.8
		c8.9-2.2,15-4.4,16.7-5c1.7-0.6,3.3-2.8,4.4,0c1.1,2.8,3.9,5,5.6,18.9c1.7,13.9,3.3,18.3,0,28.9c-3.3,10.6-2.8,12.2-11.7,23.9
		c-8.9,11.7-4.4,14.5-21.1,21.1c-16.7,6.7-11.7,11.1-33.4,8.3c-21.7-2.8-32.8-20-34.5-25c-1.7-5-11.7-22.5-8.9-36.5
		c2.8-14,7.2-26.3,8.9-29.1C1450,5991.6,1452.3,5988.9,1452.3,5988.9z"/>
	<path id="XMLID_101_" class="st12" d="M1764.7,6052.2c0,0-25.6,5.6-35.6,33.6c-10,28.1-11.7,44.2-6.1,54.8
		c5.6,10.6,17.8,35,41.7,33.4c23.9-1.7,38.9-7.2,43.9-16.1c5-8.9,15-13.9,18.3-30c3.3-16.1,3.3-19.5,3.3-19.5s-25.6-11.1-35-20
		c-9.5-8.9-14.3-10-20.2-18.3C1769.1,6061.7,1764.7,6052.2,1764.7,6052.2z"/>
	<path id="XMLID_100_" class="st12" d="M2009.3,6231.8c0,0-5.6-18.9-18.9-3.9c-13.3,15-30.6,51.7-30.6,51.7s-20.6,42.4-17.2,71.8
		c3.3,29.4,17.2,48.9,37.8,51.6c20.6,2.8,46.7,0,52.3-38.4c5.6-38.4-5-86.2-5-86.2L2009.3,6231.8z"/>
	<path id="XMLID_99_" class="st12" d="M1615.2,6209c0,0-9-15.8-25.3-24.5c-11.7-6.3-27.3-9-45.9,0.6c-44.5,22.8-63.4,82.8-63.4,82.8
		s-26.1,75.6,27.8,114.5c53.9,38.9,90.6,12.8,90.6,12.8s31.1-11.3,34.5-67.4c3.3-56-0.6-86.8-9.5-102.8S1615.2,6209,1615.2,6209z"/>
</g>
<rect id="XMLID_95_" x="869.3" y="7482.9" class="st2" width="1662.9" height="130.3"/>
<g id="XMLID_149_">
	<g id="XMLID_93_">
		<rect id="XMLID_248_" x="1664" y="7886.9" class="st5" width="304.9" height="120.1"/>
		<path id="XMLID_236_" d="M1726.3,7917.4c2.4-1.5,4.8-3.4,7.2-5.8c5.2-5,5.9-6.7,7.4-10.2l4.3,2.9c0.6,0.5,1,0.9,1,1.4
			c0,1-0.9,1-3,1c-4,5.7-11.4,10.3-15.5,11.8c2.9,2.4,5.9,4.4,9.1,6.1c5.2,2.7,10.4,4.8,15.5,6.2c0.4,0.1,0.6,0.4,0.6,0.7
			c0,0.4-0.6,0.8-1.9,1s-2.1,0.8-2.5,1.8c-0.3,0.8-0.6,1.2-1,1.2h-0.2c-16-6.5-29.5-20.5-37.9-37.1l-0.7,1.1
			c-1.5,3-4.3,7.3-8.4,12.6c-9.6,12.4-22.5,20-31.9,23.9c-0.9-0.5-0.9-0.6-0.9-1c0-0.2,0-0.4,0.2-0.5c6.7-3.6,12.4-7.5,17.1-11.5
			c10.4-8.8,16.9-18.4,19.8-25.7h-28.7l-0.6-2.8h30.5l1.6-2.4l4.2,2.9c0.5,0.3,0.6,0.7,0.6,1.2c0,0.9-0.6,1.5-1,1.6
			c1.9,3.4,4.2,6.7,6.6,9.7c1.8-1.3,3.6-2.9,5.2-4.9c3.2-3.5,3.8-5.1,4.9-8.5l4.5,2.6c0.7,0.5,1.1,0.9,1.1,1.4c0,0.9-1,1-3,1.3
			c-2.4,4.1-7.8,7.7-11.8,9.5l3.4,3.9L1726.3,7917.4z M1669.9,7973.3l-0.7-2.8h45.3l3-5.7l1.8-5.4l0.6-2.9l5.4,1.8
			c0.9,0.4,1.4,0.8,1.4,1.4c0,0.5-0.5,1.1-1.3,1.1l-1.4,0.5l-3.8,5.9l-2.6,3.2h18.7l5.8-4.9l5.9,4.4c0.5,0.3,0.7,0.8,0.7,1.4
			c0,1-0.7,1.8-2.1,1.8H1669.9z M1688.3,7914c-0.2,0.9-1,1.5-1.9,1.5c-1.1,0-1.8-0.6-2.2-1.6c-1.7-5.1-4.3-9.1-6.7-10.7
			c-0.4-0.2-0.6-0.5-0.6-0.6c0-0.3,0.3-0.8,0.8-0.8c1.7,0,9.3,5.6,10.6,9.9V7914z M1725.6,7933l2.4-2.6l4.3,2.9
			c0.4,0.1,0.6,0.5,0.6,0.8c0,0.5-0.4,1.3-1.5,1.6c-0.7,0.2-1.2,0.6-1.2,1.1v18.9c0.1,0.6-0.4,1-0.8,1.3c-3,0.7-3.6,0.8-3.6-1.3
			v-3.6h-34.1v3.1c0,0.5-0.4,0.9-1,1.3c-3.1,0.6-3.5,0.7-3.5-1.5v-24.5l3.5,2.5H1725.6z M1691.6,7935.7v13.4h34.1v-13.4H1691.6z
			 M1696.8,7967.9c-0.6-3.4-2.5-7.8-4.7-9.5c-0.3-0.2-0.5-0.5-0.5-0.6c0-0.3,0.3-0.8,0.9-0.8c1.3,0,8.7,6,8.7,9.8
			c0,0.6-0.3,2.9-2.1,2.9C1698.1,7969.6,1697.1,7968.6,1696.8,7967.9z M1713.5,7921l5-5l4.8,4.4c0.5,0.4,0.6,0.8,0.6,1.4
			c0,0.8-0.7,1.9-1.9,1.9h-27.5l-0.7-2.8H1713.5z"/>
		<path id="XMLID_246_" d="M1802,7894.3l3-3.1l3.4,3.9c0.3,0.3,0.4,0.6,0.4,1c0,1.7-1.3,2-2,2c-0.8,0.1-1.5,0.6-1.5,1.5
			c0,6.9,1.1,18.9,4.7,29.7c7.8,24.2,26.3,37.1,34.7,40.2c0.5,0.2,0.6,0.5,0.6,0.8c0,0.4-0.7,0.6-2.2,0.8c-1.5,0.2-2.6,0.9-3.3,2.2
			c-0.6,1-1.1,1.6-1.5,1.6c-0.3,0-8.4-5.2-15.4-12.9c-11.6-12.8-16.4-30.5-18.1-39c-5,14.9-10.3,25.9-23.9,38.4
			c-9.7,9.2-19.6,13.5-20.1,13.5c-0.6,0-0.7-0.6-0.7-0.8c0-0.4,0.2-0.6,0.4-0.7c7.7-4.6,13.9-9.4,18.5-14.4
			c10.2-11,16.4-21.7,20.4-33.4c1.7-5.2,3-9.6,3.6-13.1c-0.5-4.9-0.8-10.1-0.8-15.3h-21.6l-0.6-2.8H1802z"/>
	</g>
	<path id="XMLID_92_" class="st6" d="M1933.2,8027.7H1617c-19.7,0-35.7-16.1-35.7-35.7V7902c0-19.7,16.1-35.7,35.7-35.7h316.2
		c19.7,0,35.7,16.1,35.7,35.7v89.9C1968.9,8011.6,1952.8,8027.7,1933.2,8027.7z"/>
</g>
<rect id="XMLID_134_" x="869.3" y="7144.4" class="st2" width="1662.9" height="130.3"/>
<g id="XMLID_291_">
	<path id="XMLID_231_" class="st1" d="M458.6,1611.2c0,0.2-0.1,0.5-0.2,0.6c-0.1,0.2-0.3,0.3-0.6,0.4c-0.3,0.1-0.7,0.2-1.2,0.3
		c-0.5,0.1-1.1,0.1-1.9,0.1c-0.7,0-1.3,0-1.8-0.1c-0.5-0.1-0.9-0.2-1.2-0.3c-0.3-0.1-0.5-0.2-0.6-0.4c-0.1-0.2-0.2-0.4-0.2-0.6v-56
		c0-0.2,0.1-0.5,0.2-0.6c0.1-0.2,0.4-0.3,0.7-0.4c0.3-0.1,0.7-0.2,1.2-0.3c0.5-0.1,1.1-0.1,1.8-0.1c0.8,0,1.4,0,1.9,0.1
		c0.5,0.1,0.9,0.2,1.2,0.3c0.3,0.1,0.5,0.2,0.6,0.4c0.1,0.2,0.2,0.4,0.2,0.6V1611.2z"/>
	<path id="XMLID_233_" class="st1" d="M519,1582.3c0,5.1-0.6,9.5-1.9,13.2c-1.3,3.8-3.2,6.9-5.7,9.4c-2.5,2.5-5.5,4.3-9.1,5.6
		c-3.6,1.2-7.9,1.9-12.9,1.9H477c-0.7,0-1.3-0.2-2-0.7c-0.6-0.5-0.9-1.3-0.9-2.5v-52.1c0-1.2,0.3-2,0.9-2.5c0.6-0.5,1.3-0.7,2-0.7
		h13.2c5.1,0,9.3,0.7,12.8,2c3.5,1.3,6.4,3.2,8.8,5.6c2.4,2.5,4.2,5.4,5.4,8.9S519,1578,519,1582.3z M510.9,1582.7
		c0-3.2-0.4-6.1-1.2-8.8c-0.8-2.7-2-5.1-3.7-7.1s-3.8-3.5-6.3-4.6c-2.6-1.1-5.9-1.7-9.9-1.7h-7.9v45.4h8c3.7,0,6.9-0.5,9.4-1.4
		c2.6-0.9,4.7-2.4,6.4-4.3c1.7-1.9,3-4.3,3.9-7.2C510.4,1590.1,510.9,1586.6,510.9,1582.7z"/>
</g>
<g id="XMLID_191_">
	<path id="XMLID_209_" class="st1" d="M905.8,7398.9c0,3.2-0.4,6.1-1.1,8.6c-0.7,2.6-1.7,4.7-3.1,6.5c-1.4,1.8-3.1,3.2-5.1,4.2
		c-2,1-4.3,1.5-6.9,1.5c-1.1,0-2.1-0.1-3.1-0.4c-1-0.2-1.9-0.6-2.8-1.1c-0.9-0.5-1.8-1.1-2.8-1.9c-0.9-0.7-1.9-1.6-2.9-2.7v19.3
		c0,0.2,0,0.3-0.1,0.5c-0.1,0.1-0.2,0.3-0.4,0.4c-0.2,0.1-0.4,0.2-0.7,0.2c-0.3,0-0.7,0.1-1.2,0.1c-0.5,0-0.9,0-1.2-0.1
		c-0.3,0-0.6-0.1-0.8-0.2c-0.2-0.1-0.3-0.2-0.4-0.4c-0.1-0.1-0.1-0.3-0.1-0.5v-52.2c0-0.2,0-0.4,0.1-0.5c0.1-0.1,0.2-0.2,0.4-0.3
		c0.2-0.1,0.4-0.1,0.7-0.2c0.3,0,0.6-0.1,1.1-0.1c0.4,0,0.8,0,1,0.1c0.3,0,0.5,0.1,0.7,0.2c0.2,0.1,0.3,0.2,0.4,0.3
		c0.1,0.1,0.1,0.3,0.1,0.5v5.4c1.2-1.2,2.3-2.2,3.3-3.1c1-0.9,2.1-1.6,3.1-2.2c1-0.6,2.1-1,3.2-1.3c1.1-0.3,2.3-0.4,3.5-0.4
		c2.7,0,5,0.5,6.9,1.5c1.9,1,3.5,2.4,4.7,4.2c1.2,1.8,2.1,3.9,2.6,6.3C905.5,7393.6,905.8,7396.2,905.8,7398.9z M900.6,7399.7
		c0-2.1-0.2-4.1-0.5-6.1c-0.3-1.9-0.9-3.7-1.7-5.2c-0.8-1.5-1.8-2.7-3.1-3.6c-1.3-0.9-3-1.4-4.9-1.4c-1,0-2,0.1-2.9,0.4
		c-1,0.3-1.9,0.7-2.9,1.4s-2,1.5-3.1,2.5c-1.1,1-2.2,2.3-3.4,3.7v16.3c2.1,2.5,4,4.4,5.9,5.8c1.9,1.3,3.9,2,5.9,2
		c1.9,0,3.5-0.5,4.9-1.4s2.5-2.1,3.3-3.6c0.9-1.5,1.5-3.2,1.9-5.1C900.4,7403.5,900.6,7401.6,900.6,7399.7z"/>
	<path id="XMLID_212_" class="st1" d="M943.3,7418.1c0,0.3-0.1,0.5-0.3,0.6c-0.2,0.2-0.4,0.3-0.7,0.3c-0.3,0.1-0.7,0.1-1.2,0.1
		c-0.5,0-0.9,0-1.2-0.1c-0.3-0.1-0.6-0.2-0.8-0.3c-0.2-0.2-0.3-0.4-0.3-0.6v-4.2c-1.7,1.8-3.5,3.2-5.6,4.2c-2,1-4.1,1.5-6.3,1.5
		c-2,0-3.7-0.3-5.3-0.8s-2.9-1.2-3.9-2.2c-1.1-1-1.9-2.1-2.5-3.5c-0.6-1.3-0.9-2.9-0.9-4.5c0-2.1,0.4-3.9,1.3-5.4
		c0.9-1.5,2.1-2.8,3.6-3.8c1.6-1,3.5-1.8,5.7-2.3c2.2-0.5,4.7-0.8,7.4-0.8h6v-3.2c0-1.6-0.2-3-0.5-4.2c-0.3-1.2-0.9-2.3-1.6-3.1
		c-0.7-0.8-1.7-1.4-2.9-1.9c-1.2-0.4-2.6-0.6-4.3-0.6c-1.7,0-3.1,0.2-4.5,0.6c-1.3,0.4-2.5,0.8-3.5,1.3s-1.8,0.9-2.5,1.3
		c-0.6,0.4-1.1,0.6-1.4,0.6c-0.2,0-0.3,0-0.5-0.1c-0.1-0.1-0.3-0.2-0.4-0.3s-0.2-0.3-0.2-0.6c0-0.2-0.1-0.5-0.1-0.8
		c0-0.6,0-1,0.1-1.4c0.1-0.3,0.3-0.7,0.6-1s1-0.8,1.8-1.2c0.9-0.5,1.9-0.9,3-1.3c1.1-0.4,2.4-0.7,3.7-1c1.3-0.2,2.6-0.4,4-0.4
		c2.6,0,4.7,0.3,6.5,0.9c1.8,0.6,3.2,1.5,4.3,2.7c1.1,1.2,1.9,2.6,2.3,4.3c0.5,1.7,0.7,3.6,0.7,5.8V7418.1z M938.4,7400.5h-6.8
		c-2,0-3.7,0.2-5.2,0.5s-2.7,0.9-3.7,1.6c-1,0.7-1.7,1.5-2.2,2.5c-0.5,1-0.7,2.1-0.7,3.3c0,2.1,0.7,3.9,2,5.1
		c1.4,1.3,3.3,1.9,5.8,1.9c2,0,3.8-0.5,5.5-1.5c1.7-1,3.5-2.6,5.4-4.7V7400.5z"/>
	<path id="XMLID_216_" class="st1" d="M979,7408.2c0,1.8-0.3,3.4-1,4.8s-1.6,2.6-2.8,3.6c-1.2,1-2.7,1.8-4.4,2.3
		c-1.7,0.5-3.6,0.8-5.7,0.8c-1.3,0-2.5-0.1-3.7-0.3c-1.2-0.2-2.2-0.5-3.1-0.8s-1.7-0.7-2.4-1c-0.6-0.4-1.1-0.7-1.4-1
		c-0.3-0.3-0.5-0.6-0.7-1c-0.1-0.4-0.2-1-0.2-1.7c0-0.4,0-0.7,0.1-1c0.1-0.3,0.1-0.5,0.2-0.7c0.1-0.2,0.2-0.3,0.3-0.4
		c0.1-0.1,0.3-0.1,0.5-0.1c0.3,0,0.7,0.2,1.3,0.6c0.6,0.4,1.3,0.8,2.2,1.3c0.9,0.5,1.9,0.9,3.1,1.3c1.2,0.4,2.6,0.6,4.2,0.6
		c1.3,0,2.4-0.1,3.5-0.4c1-0.3,2-0.7,2.7-1.2s1.4-1.3,1.8-2.1c0.4-0.9,0.6-1.9,0.6-3c0-1.2-0.3-2.1-0.8-2.9
		c-0.6-0.8-1.3-1.5-2.2-2.1c-0.9-0.6-1.9-1.1-3.1-1.6c-1.1-0.5-2.3-0.9-3.5-1.4c-1.2-0.5-2.4-1-3.5-1.6c-1.1-0.6-2.2-1.3-3.1-2.1
		c-0.9-0.8-1.6-1.8-2.2-3c-0.6-1.2-0.8-2.5-0.8-4.2c0-1.3,0.2-2.6,0.7-3.8s1.3-2.4,2.3-3.4s2.4-1.8,4-2.4c1.6-0.6,3.5-0.9,5.7-0.9
		c0.9,0,1.9,0.1,2.8,0.2c0.9,0.2,1.8,0.4,2.5,0.6s1.4,0.5,2,0.8c0.6,0.3,1,0.5,1.3,0.8c0.3,0.2,0.5,0.4,0.6,0.6s0.2,0.3,0.2,0.5
		c0,0.2,0.1,0.4,0.1,0.6c0,0.2,0,0.5,0,0.8s0,0.6-0.1,0.9c0,0.3-0.1,0.5-0.2,0.7c-0.1,0.2-0.2,0.3-0.3,0.4s-0.3,0.1-0.4,0.1
		c-0.2,0-0.6-0.2-1-0.5s-1-0.6-1.7-1c-0.7-0.4-1.6-0.7-2.6-1s-2.1-0.5-3.4-0.5c-1.3,0-2.4,0.2-3.4,0.5c-1,0.3-1.8,0.7-2.4,1.3
		c-0.6,0.6-1.1,1.2-1.4,1.9s-0.5,1.6-0.5,2.4c0,1.2,0.3,2.2,0.8,3.1c0.6,0.8,1.3,1.5,2.2,2.1c0.9,0.6,1.9,1.1,3.1,1.6
		c1.2,0.5,2.3,0.9,3.5,1.4c1.2,0.5,2.4,1,3.5,1.6c1.2,0.6,2.2,1.2,3.1,2s1.6,1.8,2.2,2.9C978.7,7405.3,979,7406.6,979,7408.2z"/>
	<path id="XMLID_218_" class="st1" d="M1011.7,7408.2c0,1.8-0.3,3.4-1,4.8c-0.7,1.4-1.6,2.6-2.8,3.6c-1.2,1-2.7,1.8-4.4,2.3
		c-1.7,0.5-3.6,0.8-5.7,0.8c-1.3,0-2.5-0.1-3.7-0.3s-2.2-0.5-3.1-0.8c-0.9-0.3-1.7-0.7-2.4-1c-0.6-0.4-1.1-0.7-1.4-1
		c-0.3-0.3-0.5-0.6-0.7-1c-0.1-0.4-0.2-1-0.2-1.7c0-0.4,0-0.7,0.1-1s0.1-0.5,0.2-0.7c0.1-0.2,0.2-0.3,0.3-0.4
		c0.1-0.1,0.3-0.1,0.5-0.1c0.3,0,0.7,0.2,1.3,0.6c0.6,0.4,1.3,0.8,2.2,1.3c0.9,0.5,1.9,0.9,3.1,1.3c1.2,0.4,2.6,0.6,4.2,0.6
		c1.3,0,2.4-0.1,3.5-0.4s2-0.7,2.7-1.2s1.4-1.3,1.8-2.1c0.4-0.9,0.6-1.9,0.6-3c0-1.2-0.3-2.1-0.8-2.9c-0.6-0.8-1.3-1.5-2.2-2.1
		c-0.9-0.6-1.9-1.1-3.1-1.6c-1.1-0.5-2.3-0.9-3.5-1.4c-1.2-0.5-2.4-1-3.5-1.6c-1.1-0.6-2.2-1.3-3.1-2.1c-0.9-0.8-1.6-1.8-2.2-3
		c-0.6-1.2-0.8-2.5-0.8-4.2c0-1.3,0.2-2.6,0.7-3.8s1.3-2.4,2.3-3.4c1-1,2.4-1.8,4-2.4c1.6-0.6,3.5-0.9,5.7-0.9
		c0.9,0,1.9,0.1,2.8,0.2c0.9,0.2,1.8,0.4,2.5,0.6c0.8,0.2,1.4,0.5,2,0.8c0.6,0.3,1,0.5,1.3,0.8c0.3,0.2,0.5,0.4,0.6,0.6
		c0.1,0.2,0.2,0.3,0.2,0.5c0,0.2,0.1,0.4,0.1,0.6c0,0.2,0,0.5,0,0.8s0,0.6-0.1,0.9c0,0.3-0.1,0.5-0.2,0.7c-0.1,0.2-0.2,0.3-0.3,0.4
		s-0.3,0.1-0.4,0.1c-0.2,0-0.6-0.2-1-0.5c-0.4-0.3-1-0.6-1.7-1c-0.7-0.4-1.6-0.7-2.6-1s-2.1-0.5-3.4-0.5c-1.3,0-2.4,0.2-3.4,0.5
		s-1.8,0.7-2.4,1.3c-0.6,0.6-1.1,1.2-1.4,1.9c-0.3,0.7-0.5,1.6-0.5,2.4c0,1.2,0.3,2.2,0.8,3.1c0.6,0.8,1.3,1.5,2.2,2.1
		c0.9,0.6,1.9,1.1,3.1,1.6c1.2,0.5,2.3,0.9,3.5,1.4c1.2,0.5,2.4,1,3.5,1.6s2.2,1.2,3.1,2c0.9,0.8,1.6,1.8,2.2,2.9
		C1011.4,7405.3,1011.7,7406.6,1011.7,7408.2z"/>
	<path id="XMLID_221_" class="st1" d="M1071.7,7380.7c0,0.1,0,0.3-0.1,0.5s-0.1,0.4-0.1,0.6l-11.6,36.4c-0.1,0.2-0.2,0.4-0.3,0.5
		s-0.4,0.2-0.6,0.3c-0.2,0.1-0.6,0.1-1,0.2c-0.4,0-0.9,0-1.4,0c-0.6,0-1.1,0-1.5-0.1c-0.4,0-0.8-0.1-1-0.2c-0.3-0.1-0.5-0.2-0.6-0.3
		c-0.2-0.1-0.3-0.3-0.3-0.5l-8.7-29.5l-0.1-0.3l-0.1,0.3l-8.1,29.5c-0.1,0.2-0.2,0.4-0.3,0.5c-0.2,0.1-0.4,0.2-0.7,0.3
		c-0.3,0.1-0.6,0.1-1.1,0.2c-0.4,0-0.9,0-1.4,0c-0.6,0-1,0-1.4-0.1c-0.4,0-0.7-0.1-1-0.2c-0.3-0.1-0.5-0.2-0.6-0.3s-0.2-0.3-0.3-0.5
		l-11.5-36.4c-0.1-0.2-0.1-0.4-0.2-0.6s-0.1-0.4-0.1-0.5c0-0.2,0-0.4,0.1-0.5c0.1-0.1,0.2-0.2,0.4-0.3c0.2-0.1,0.4-0.1,0.7-0.1
		c0.3,0,0.7,0,1.1,0c0.6,0,1,0,1.4,0.1c0.4,0,0.6,0.1,0.8,0.2c0.2,0.1,0.3,0.2,0.4,0.3c0.1,0.1,0.2,0.3,0.2,0.5l9.9,32.7l0.1,0.3
		l0.1-0.3l9-32.7c0.1-0.2,0.1-0.4,0.2-0.5c0.1-0.1,0.2-0.2,0.4-0.3c0.2-0.1,0.4-0.1,0.7-0.2c0.3,0,0.7-0.1,1.2-0.1
		c0.5,0,0.9,0,1.2,0.1c0.3,0,0.6,0.1,0.7,0.2c0.2,0.1,0.3,0.2,0.4,0.3c0.1,0.1,0.2,0.3,0.2,0.5l9.7,32.7l0.1,0.3l0-0.3l9.8-32.7
		c0.1-0.2,0.1-0.4,0.2-0.5c0.1-0.1,0.2-0.2,0.4-0.3c0.2-0.1,0.5-0.1,0.8-0.2c0.3,0,0.8-0.1,1.3-0.1c0.4,0,0.8,0,1.1,0
		c0.3,0,0.5,0.1,0.7,0.2c0.2,0.1,0.3,0.2,0.3,0.3C1071.7,7380.3,1071.7,7380.5,1071.7,7380.7z"/>
	<path id="XMLID_223_" class="st1" d="M1113.5,7399c0,3-0.4,5.7-1.2,8.2c-0.8,2.5-1.9,4.7-3.5,6.5c-1.5,1.8-3.4,3.3-5.7,4.3
		s-4.9,1.5-8,1.5c-2.9,0-5.5-0.5-7.7-1.4c-2.2-0.9-4-2.2-5.5-4c-1.5-1.7-2.6-3.8-3.3-6.3c-0.7-2.5-1.1-5.2-1.1-8.3
		c0-3,0.4-5.7,1.1-8.2s1.9-4.7,3.4-6.5c1.5-1.8,3.4-3.3,5.7-4.3c2.3-1,5-1.5,8-1.5c2.9,0,5.5,0.5,7.7,1.4c2.2,0.9,4,2.2,5.5,3.9
		c1.5,1.7,2.6,3.8,3.3,6.3C1113.1,7393.2,1113.5,7396,1113.5,7399z M1108.3,7399.5c0-2.1-0.2-4.1-0.6-6.1c-0.4-1.9-1.1-3.6-2.1-5.1
		c-1-1.5-2.3-2.6-3.9-3.5c-1.6-0.9-3.7-1.3-6.1-1.3c-2.2,0-4.2,0.4-5.8,1.2c-1.6,0.8-3,1.9-4,3.3c-1,1.4-1.8,3.1-2.3,5
		c-0.5,1.9-0.7,4-0.7,6.2c0,2.1,0.2,4.2,0.6,6.1c0.4,1.9,1.1,3.6,2.1,5.1c1,1.5,2.3,2.6,3.9,3.5c1.6,0.9,3.7,1.3,6.1,1.3
		c2.2,0,4.2-0.4,5.8-1.2c1.6-0.8,3-1.9,4-3.3c1-1.4,1.8-3.1,2.3-5C1108,7403.9,1108.3,7401.8,1108.3,7399.5z"/>
	<path id="XMLID_226_" class="st1" d="M1145.3,7382.6c0,0.4,0,0.8,0,1.1c0,0.3-0.1,0.5-0.1,0.7c-0.1,0.2-0.2,0.3-0.2,0.4
		c-0.1,0.1-0.2,0.1-0.4,0.1c-0.2,0-0.5-0.1-0.9-0.2c-0.3-0.1-0.7-0.3-1.2-0.4c-0.4-0.1-0.9-0.3-1.4-0.4c-0.5-0.1-1.1-0.2-1.7-0.2
		c-0.7,0-1.5,0.2-2.2,0.5c-0.7,0.3-1.5,0.8-2.3,1.5c-0.8,0.7-1.6,1.6-2.5,2.8c-0.9,1.2-1.8,2.6-2.9,4.3v25.3c0,0.2,0,0.3-0.1,0.5
		c-0.1,0.1-0.2,0.2-0.4,0.3c-0.2,0.1-0.4,0.2-0.7,0.2c-0.3,0.1-0.7,0.1-1.2,0.1c-0.5,0-0.9,0-1.2-0.1c-0.3-0.1-0.6-0.1-0.8-0.2
		c-0.2-0.1-0.3-0.2-0.4-0.3c-0.1-0.1-0.1-0.3-0.1-0.5v-37.4c0-0.2,0-0.3,0.1-0.5c0.1-0.1,0.2-0.3,0.4-0.4c0.2-0.1,0.4-0.2,0.7-0.2
		c0.3,0,0.7-0.1,1.1-0.1c0.5,0,0.9,0,1.2,0.1c0.3,0,0.5,0.1,0.7,0.2c0.2,0.1,0.3,0.2,0.4,0.4c0.1,0.1,0.1,0.3,0.1,0.5v5.9
		c1.1-1.6,2.1-2.8,3-3.8c0.9-1,1.8-1.7,2.6-2.3c0.8-0.5,1.6-0.9,2.4-1.1s1.6-0.3,2.4-0.3c0.4,0,0.8,0,1.2,0.1c0.5,0,1,0.1,1.5,0.2
		c0.5,0.1,1,0.2,1.4,0.4c0.4,0.2,0.7,0.3,0.9,0.4c0.2,0.1,0.3,0.2,0.3,0.3c0.1,0.1,0.1,0.2,0.1,0.4c0,0.2,0.1,0.4,0.1,0.6
		C1145.3,7381.9,1145.3,7382.2,1145.3,7382.6z"/>
	<path id="XMLID_228_" class="st1" d="M1182.6,7418.1c0,0.2,0,0.4-0.1,0.5c-0.1,0.1-0.2,0.2-0.4,0.3c-0.2,0.1-0.4,0.1-0.7,0.2
		s-0.6,0.1-1,0.1c-0.4,0-0.8,0-1.1-0.1c-0.3,0-0.5-0.1-0.7-0.2c-0.2-0.1-0.3-0.2-0.4-0.3c-0.1-0.1-0.1-0.3-0.1-0.5v-5.4
		c-2,2.2-4,3.8-6.2,5.1c-2.1,1.2-4.4,1.8-6.9,1.8c-2.7,0-5-0.5-6.9-1.6s-3.5-2.5-4.7-4.3c-1.2-1.8-2.1-3.9-2.6-6.3
		c-0.6-2.4-0.8-5-0.8-7.7c0-3.2,0.3-6,1-8.6c0.7-2.5,1.7-4.7,3.1-6.5s3-3.2,5-4.1c2-1,4.3-1.4,6.9-1.4c2.3,0,4.3,0.5,6.2,1.5
		c1.9,1,3.7,2.5,5.5,4.4v-22.5c0-0.2,0-0.3,0.1-0.5c0.1-0.1,0.2-0.2,0.4-0.3c0.2-0.1,0.4-0.2,0.8-0.2c0.3-0.1,0.7-0.1,1.2-0.1
		c0.5,0,0.9,0,1.2,0.1c0.3,0.1,0.6,0.1,0.7,0.2c0.2,0.1,0.3,0.2,0.4,0.3c0.1,0.1,0.1,0.3,0.1,0.5V7418.1z M1177.7,7391.2
		c-2.1-2.5-4.1-4.4-6-5.7c-1.9-1.3-3.9-2-6-2c-1.9,0-3.5,0.5-4.9,1.4c-1.4,0.9-2.5,2.1-3.3,3.6c-0.9,1.5-1.5,3.2-1.9,5
		c-0.4,1.9-0.6,3.8-0.6,5.7c0,2.1,0.2,4.1,0.5,6c0.3,2,0.9,3.7,1.7,5.2c0.8,1.5,1.9,2.8,3.2,3.7c1.3,0.9,3,1.4,5,1.4
		c1,0,2-0.1,2.9-0.4c0.9-0.3,1.9-0.7,2.9-1.4c1-0.6,2-1.5,3.1-2.5c1.1-1,2.2-2.3,3.4-3.7V7391.2z"/>
</g>
<g id="XMLID_190_">
	<path id="XMLID_204_" class="st1" d="M881.8,7081.1c0,0.2-0.1,0.5-0.2,0.6c-0.1,0.2-0.3,0.3-0.6,0.4c-0.3,0.1-0.7,0.2-1.2,0.3
		c-0.5,0.1-1.1,0.1-1.9,0.1c-0.7,0-1.3,0-1.8-0.1c-0.5-0.1-0.9-0.2-1.2-0.3c-0.3-0.1-0.5-0.2-0.6-0.4c-0.1-0.2-0.2-0.4-0.2-0.6v-56
		c0-0.2,0.1-0.5,0.2-0.6c0.1-0.2,0.4-0.3,0.7-0.4c0.3-0.1,0.7-0.2,1.2-0.3s1.1-0.1,1.8-0.1c0.8,0,1.4,0,1.9,0.1
		c0.5,0.1,0.9,0.2,1.2,0.3c0.3,0.1,0.5,0.2,0.6,0.4c0.1,0.2,0.2,0.4,0.2,0.6V7081.1z"/>
	<path id="XMLID_206_" class="st1" d="M942.2,7052.3c0,5.1-0.6,9.5-1.9,13.2c-1.3,3.8-3.2,6.9-5.7,9.4c-2.5,2.5-5.5,4.3-9.1,5.6
		c-3.6,1.2-7.9,1.8-12.9,1.8h-12.4c-0.7,0-1.3-0.2-2-0.7c-0.6-0.5-0.9-1.3-0.9-2.5v-52.1c0-1.2,0.3-2,0.9-2.5c0.6-0.5,1.3-0.7,2-0.7
		h13.2c5.1,0,9.3,0.7,12.8,2c3.5,1.3,6.4,3.2,8.8,5.6s4.2,5.4,5.4,8.9C941.6,7043.9,942.2,7047.9,942.2,7052.3z M934,7052.6
		c0-3.2-0.4-6.1-1.2-8.8c-0.8-2.7-2-5.1-3.7-7.1c-1.7-2-3.8-3.5-6.3-4.6c-2.6-1.1-5.9-1.7-9.9-1.7H905v45.4h8c3.7,0,6.9-0.5,9.4-1.4
		s4.7-2.4,6.4-4.3c1.7-1.9,3-4.3,3.9-7.2C933.6,7060,934,7056.5,934,7052.6z"/>
</g>
<rect id="XMLID_259_" x="517.1" y="2185.1" class="st2" width="42" height="42"/>
<g id="XMLID_260_">
	<path id="XMLID_153_" d="M5868.2,2516.5v9.3l0.2,0.5l0.6,0.1h29.5c0.2,0,0.3,0.2,0.3,0.5c0,1.7,0,1.9-0.3,1.9h-31.2
		c-1.2,0-1.5-1.1-1.5-2.1v-10.2h-5.5l-0.4-1.4h20.7v-6.7l2.5,0.5c0.7,0.1,1.1,0.4,1.1,0.8c0,0.4-0.2,0.6-0.6,0.7
		c-0.3,0.1-0.5,0.4-0.5,0.8v4h12.9l3.1-2.5l3,2.3c0.2,0.1,0.4,0.4,0.4,0.8c0,0.7-0.6,0.9-1.1,0.9H5868.2z M5866.1,2537.3
		c0.3,0,0.3,0.2,0.3,0.8c0,5-2.3,10.5-4.6,10.5c-0.9,0-1.2-0.6-1.2-1.3c0-0.3,0.4-0.8,1-1.2c1.6-1.3,2.6-2.7,3.2-4.1
		c0.6-1.4,0.9-2.8,1-4.2C5865.7,2537.4,5865.8,2537.3,5866.1,2537.3z M5871.3,2534l3.2,0.9c0.4,0.1,0.6,0.3,0.6,0.7
		c0,0.4-0.3,0.6-0.7,0.7c-0.4,0-0.7,0.2-0.7,0.6v11.3c0,0.5,0.2,0.6,1,0.9h14.3c1.7,0,2.3-1.3,2.5-2.8l0.5-3.2
		c0-0.2,0.2-0.4,0.5-0.4s0.4,0.1,0.4,0.4v3.4c0,1.2,0.3,1.9,0.8,2.2c0.4,0.2,0.7,0.6,0.7,1c0,0.8-0.5,1.1-1.6,1.7h-20.1
		c-1.1-0.6-1.4-0.7-1.4-2.1V2534z M5886.5,2538.2c0,0.5-0.5,0.9-1,0.9c-0.6,0-1-0.3-1.1-0.7c-1.8-3.4-4.1-5.7-5.9-6.3
		c-0.2,0-0.3-0.2-0.3-0.3c0-0.1,0-0.5,0.5-0.5c1.1,0,6.4,3.1,7.6,5.7L5886.5,2538.2z M5900,2546.8c-1.3-5-3.9-8.5-5.7-9.7
		c-0.2-0.1-0.2-0.2-0.2-0.3c0-0.1,0.1-0.4,0.5-0.4c1.2,0,7.7,6.7,7.7,9.8c0,0.2,0,1.6-1.1,1.6
		C5900.6,2547.8,5900.1,2547.3,5900,2546.8z"/>
	<path id="XMLID_159_" d="M5920.3,2516.7l3.1-2.5l3,2.3c0.2,0.1,0.4,0.4,0.4,0.8c0,0.6-0.5,1-1.1,1h-18.2l-0.3-1.5H5920.3z
		 M5918.8,2510.3l3-2.5l3.1,2.3c0.2,0.1,0.4,0.4,0.4,0.7c0,0.6-0.5,1-1.1,1h-15l-0.4-1.5H5918.8z M5909,2535.2l2.1,1.4h10l1.2-1.3
		l2.2,1.4c0.2,0.1,0.3,0.3,0.3,0.5c0,0.2-0.2,0.7-0.8,0.8c-0.4,0.1-0.6,0.3-0.6,0.5v13.4c0,0.3-0.1,0.5-0.4,0.7
		c-1.5,0.4-1.9,0.4-1.9-0.7v-3h-9.8v2.6c0,0.2-0.2,0.5-0.6,0.7c-1.7,0.3-1.8,0.4-1.8-0.8V2535.2z M5918.8,2523.3l3-2.5l3.1,2.3
		c0.2,0.1,0.4,0.4,0.4,0.8c0,0.7-0.6,0.9-1.1,0.9h-14.8l-0.4-1.4H5918.8z M5918.8,2530.2l3-2.5l3.1,2.3c0.2,0.1,0.4,0.4,0.4,0.7
		c0,0.6-0.4,1-1.1,1h-14.8l-0.4-1.5H5918.8z M5911.4,2538.1v9.4h9.8v-9.4H5911.4z M5947.7,2530.4c0,0.3-0.1,0.6-0.4,0.7
		c-1.6,0.4-1.9,0.4-1.9-0.7v-3h-13v20.9c0,0.8,0.6,1.1,1.2,1.1h12.2c0.7,0,1.2-0.2,1.4-0.5c0.5-0.6,1.1-1.5,1.4-2.6l0.8-3.1
		c0-0.2,0.2-0.3,0.5-0.3c0.2,0,0.3,0.2,0.3,0.5l-0.5,3.4c-0.1,0.5-0.1,1-0.1,1.3c0,0.4,0.1,0.7,0.2,0.9c0.4,0.2,0.6,0.6,0.6,1
		c0,0.3-0.4,1.9-1.9,1.9h-16.5c-0.6,0-2.3-0.2-2.3-2.3V2524l2.7,1.9h12.7v-13.7h-17l-0.3-1.5h17.2l1.2-1.3l2.2,1.4
		c0.2,0.1,0.3,0.3,0.3,0.5c0,0.2-0.2,0.7-0.8,0.8c-0.4,0-0.6,0.3-0.6,0.5V2530.4z"/>
	<path id="XMLID_167_" d="M5960.7,2515.2l-0.4,2c-0.6,2.1-1.8,4.3-3.4,4.3c-1.1,0-1.2-1.3-1.2-1.4c0-0.3,0.4-0.8,1.1-1.2
		c1.9-1.6,3.2-3.4,3.5-6.8c0-0.2,0.1-0.4,0.4-0.4c0.2,0,0.4,0.1,0.4,0.4l-0.1,1.8h15.2v-6.1l2.5,0.5c0.8,0.1,1.1,0.3,1.1,0.7
		s-0.2,0.7-0.6,0.8c-0.4,0.1-0.6,0.4-0.6,0.7v3.5h15.8l1.6-1.5l1.7,2.2c0.2,0.3,0.4,0.6,0.4,0.9c0,0.1-0.1,0.9-0.8,0.9
		c-0.1,0-0.8-0.1-0.9-0.1c-0.3,0-0.6,0.1-0.8,0.2l-3.6,3.5c-0.1,0-0.2,0.1-0.2,0.1c-0.3,0-0.4-0.3-0.4-0.5c0-0.1,0-0.1,0-0.2
		c1.1-1.3,2-2.7,2.6-4.1H5960.7z M5970.4,2534.8l-0.9-0.5l-0.4-0.7c-4.6,2.4-12,4.8-12.6,4.8c-0.1,0-0.4,0-0.4-0.3
		c0-0.1,0.1-0.3,0.3-0.4c6.6-2.3,11.8-5.1,12.6-5.6v-12.3l3.2,0.9c0.4,0.1,0.6,0.3,0.6,0.7c0,0.4-0.3,0.6-0.7,0.7s-0.6,0.2-0.6,0.6
		v8c8.4-5.2,12.4-11.1,13.5-13.1l2.5,0.9c0.4,0.2,0.7,0.5,0.7,0.7c0,0.2-0.2,0.7-0.7,0.7l-0.8,0.2c-4.8,5.3-9.5,9.1-14.9,12l0.7,0.2
		h13c1.5,0,2.2-0.8,2.7-2.7l0.7-3.3c0-0.2,0.2-0.3,0.5-0.3c0.3,0,0.3,0.1,0.3,0.4l-0.1,3.3c0,1.2,0.2,2,0.6,2.2
		c0.4,0.2,0.7,0.6,0.7,1c0,0.4-0.2,0.9-0.7,1.2c-0.9,0.4-1,0.5-1.6,0.5H5970.4z M5963.6,2521.1c0.2,0,0.3,0.2,0.3,0.4
		c0,3-2.8,10-5.6,10c-0.9,0-1.2-0.7-1.2-1.2c0-0.2,0-0.7,1.1-1.4c1.6-1.1,2.9-2.4,3.5-3.6c0.7-1.2,1.2-2.5,1.5-3.9
		C5963.2,2521.2,5963.4,2521.1,5963.6,2521.1z M5964.8,2550.3v2c0,0.8-1.5,1.1-1.9,1.1c-0.3,0-0.5-0.1-0.5-0.4v-14.1l2.7,0.4
		c0.7,0.1,1.1,0.4,1.1,0.8c0,0.3-0.2,0.7-0.7,0.9c-0.4,0.2-0.7,0.5-0.7,0.9v7h11.7v-12.7l2.5,0.4c0.7,0.1,1.1,0.4,1.1,0.8
		s-0.2,0.7-0.6,0.8c-0.4,0.1-0.6,0.4-0.6,0.7v10h11.1v-10.1l2.7,0.4c0.8,0.1,1.1,0.4,1.1,0.8s-0.2,0.7-0.7,0.9
		c-0.5,0.2-0.7,0.5-0.7,0.9v10.9c0,0.8-1.5,1.1-1.9,1.1c-0.3,0-0.5-0.1-0.5-0.4v-2.9H5964.8z M5978.3,2521.5c-2.2-3.1-4.4-4-5.1-4.3
		c-0.2,0-0.4-0.2-0.4-0.4c0-0.4,0.3-0.4,0.5-0.4c1.1,0,7.1,1.9,7.1,4.5c0,0.9-0.7,1.1-1.1,1.1S5978.6,2521.8,5978.3,2521.5z
		 M5996.7,2530.2c-2.3-4.9-4.8-6.9-6.1-7.5c-0.2,0-0.3-0.2-0.3-0.3c0-0.2,0.1-0.5,0.4-0.5c1.3,0,8.1,5,8.1,7.9
		c0,0.6-0.2,1.2-1.1,1.2C5997.4,2531,5996.9,2530.7,5996.7,2530.2z"/>
	<path id="XMLID_174_" d="M6016.5,2548c0,0.2,0,0.5-0.5,0.7c-1.4,0.4-1.9,0.5-1.9-0.7v-3.4h-5.5v5.8c0,0.3-0.2,0.5-0.6,0.7
		c-1.4,0.5-1.8,0.6-1.8-0.7v-18.9c-1.3,2.3-2.7,3.9-3,3.9c-0.2,0-0.3-0.2-0.3-0.4c0-0.1,0-0.2,0.1-0.4c4-6.5,5.4-13.4,5.9-20.7h-4.8
		l-0.4-1.5h10.3l2.8-2.2l2.5,2c0.2,0.1,0.3,0.4,0.3,0.7c0,0.5-0.3,1-1.1,1h-7.3c-0.3,4.7-1.2,8.8-2.5,12.4h5.3l1.3-1.3l2.2,1.4
		c0.2,0.1,0.3,0.3,0.3,0.5c0,0.2-0.2,0.7-0.7,0.8c-0.4,0.1-0.6,0.3-0.6,0.5V2548z M6008.7,2543.2h5.5v-15.4h-5.5V2543.2z
		 M6019.6,2547.4c2.6-3.7,3-6.8,3-7.9c0-0.6,0-0.7,0.4-0.7c0.3,0,0.5,0.1,0.5,0.5c0.1,0.6,0.1,1.2,0.1,1.8c0,4.1-1.2,8.1-3.2,8.1
		c-0.5,0-1-0.3-1-1.1C6019.4,2547.8,6019.5,2547.5,6019.6,2547.4z M6022,2508.5l2.4,2h15.6l3-2.5l2.9,2.2c0.3,0.3,0.5,0.6,0.5,0.9
		c0,0.6-0.4,0.9-1,0.9H6035v5.9h3.9l2.6-2.1l2.4,1.7c0.3,0.3,0.5,0.6,0.5,0.9c0,0.5-0.4,0.9-1,0.9h-8.5v6h4.1l2.6-2.1l2.4,1.7
		c0.3,0.3,0.5,0.7,0.5,1c0,0.6-0.5,0.9-1,0.9h-8.6v6.1h9l1-1.5l2,1.2c0.5,0.2,0.8,0.6,0.8,1c0,0.2,0,0.9-0.8,1
		c-0.4,0.1-0.7,0.3-0.7,0.6c0,2.6-0.3,5.1-0.6,7.5c-0.6,3.9-1.2,7.3-6.4,9.1c-0.2-2.4-2.6-3.2-4.2-3.7c-0.3-0.1-0.5-0.3-0.5-0.5
		c0-0.3,0.2-0.6,0.5-0.6c0,0,0.1,0,0.2,0c2.1,0.9,3.6,1.3,4.5,1.3c1-0.3,1.8-0.9,2.4-1.7c0.6-0.7,1.1-2.6,1.2-5.5l0.3-5.8l0.1-1.1
		h-19.3v2.4c0,0.6-0.6,0.8-1.9,1.1c-0.3,0-0.5-0.4-0.5-1.1V2508.5z M6032.6,2517.9v-5.9h-8.1v5.9H6032.6z M6032.6,2525.4v-6h-8.1v6
		H6032.6z M6024.4,2526.8v6.1h8.1v-6.1H6024.4z M6027.5,2545.6c0.2-1.2,0.3-2.3,0.3-3.3c0-1.3-0.1-2.6-0.7-3.7c0,0,0-0.1,0-0.2
		c0-0.2,0.2-0.3,0.4-0.3c0.6,0,2.1,3.8,2.1,6.5c0,0.4,0,2.3-1.3,2.3c-0.1,0-0.2,0-0.8-0.5L6027.5,2545.6z M6033.5,2544.5l-0.2-0.7
		c0-3.6-1.1-5.4-1.5-5.9c-0.1-0.1-0.1-0.1-0.1-0.2c0-0.1,0.1-0.4,0.4-0.4c0.6,0,3.4,3.8,3.4,6.1l-0.4,1c-0.2,0.3-0.4,0.4-0.7,0.4
		L6033.5,2544.5z M6038.9,2542.3c-0.2-1.4-1.1-3.9-2.4-5.1c-0.1,0-0.2-0.2-0.2-0.3c0-0.1,0.1-0.4,0.3-0.4c0.8,0,4.2,3.7,4.2,5.1
		c0,0.3-0.1,1.6-0.8,1.6l-0.7-0.2L6038.9,2542.3z"/>
	<path id="XMLID_185_" d="M6087.6,2510.5l2.6-1.1l1.6,2.1c0.1,0.2,0.2,0.4,0.2,0.6c0,0.3-0.5,0.5-1,0.5c-0.5,0-0.9,0.1-1.1,0.2
		c-3.9,3.5-8.3,6.4-12.8,8.6c0,0.2,0,0.7-0.7,0.8c-0.5,0.1-0.7,0.3-0.7,0.6v26.2c0,0.6-0.3,1.2-1,1.9c-0.7,0.6-1.9,1.1-3.6,1.3
		c-0.3-2-2.8-2.4-4.2-2.6c-0.4,0-0.6-0.2-0.6-0.5s0.2-0.3,0.6-0.3l5.2,0.2l1.1-0.2l0.2-0.7v-27.8l2.4,0.3h0.3
		c4.5-2.5,8.4-5.4,11.7-8.7h-32.3l-0.7-1.5H6087.6z"/>
	<path id="XMLID_187_" d="M6100.7,2511.5l2.1,1.4h6.9l1.2-1.5l2.2,1.4c0.1,0.1,0.2,0.2,0.2,0.5c0,0.4-0.3,0.8-0.7,0.9
		c-0.4,0.1-0.5,0.3-0.5,0.5v23.6c0,0.2-0.2,0.5-0.5,0.6c-1.6,0.4-1.9,0.4-1.9-0.6v-2.6h-6.6v3.7c0,0.2-0.2,0.5-0.6,0.7
		c-1.6,0.3-1.8,0.4-1.8-0.8V2511.5z M6103.1,2534.3h6.6v-19.9h-6.6V2534.3z M6115.7,2538.8c0.2,0,0.4,0.1,0.4,0.3
		c0,0.6,0.1,1.3,0.1,1.9c0,5.5-2.1,8.8-3.6,8.8c-0.8,0-1.3-0.5-1.3-1.3c0-0.3,0.3-0.8,0.9-1.3c1.4-1.5,3.2-3.7,3.2-8.1
		C6115.4,2538.9,6115.5,2538.8,6115.7,2538.8z M6117.4,2507.8l2.5,2.2h16.1l2.6-2.1l2.4,1.7c0.3,0.3,0.5,0.6,0.5,0.9
		c0,0.5-0.4,0.9-1,0.9h-10.3v6.1h4.8l2.6-2.1l2.4,1.7c0.3,0.3,0.5,0.7,0.5,1c0,0.4-0.3,0.9-1,0.9h-9.4v6.2h5.4l2.6-2.1l2.4,1.7
		c0.3,0.3,0.5,0.7,0.5,1c0,0.6-0.5,0.9-1,0.9h-9.9v5.9h8.8l1-1.5l2,1.2c0.6,0.2,0.8,0.6,0.8,1c0,0.1,0,0.9-0.8,1.1
		c-0.4,0-0.7,0.2-0.7,0.6c0,2.8-0.2,5.5-0.6,7.9c-0.5,3.6-1.1,8.1-6.5,9.6c-0.2-2.1-1.9-2.9-3.7-3.5c-0.3-0.1-0.5-0.3-0.5-0.5
		c0,0,0.1-0.5,0.5-0.5c0.1,0,0.1,0,0.2,0c1.8,0.7,3.1,1.2,3.9,1.2c1-0.4,1.9-1.1,2.5-1.9c0.6-0.8,1.1-2.8,1.2-5.9l0.2-6.2l0.1-1.1
		h-19.2v2.4c0,0.6-0.4,0.8-1.9,1.1c-0.3,0-0.4-0.4-0.4-1.1V2507.8z M6127.8,2517.5v-6.1h-8.1v6.1H6127.8z M6127.8,2525.2v-6.3h-8.1
		v6.3H6127.8z M6119.7,2526.6v5.9h8.1v-5.9H6119.7z M6120.7,2538.8c0-0.1,0-0.2,0-0.2c0-0.1,0.1-0.3,0.4-0.3c0.8,0,1.7,4.2,1.7,6.5
		c0,3-1.2,3.6-1.9,3.6c-0.5,0-1-0.4-1-1.2c0-0.1,0-0.3,0-0.4c1-2.7,1.1-4.4,1.1-5.5C6121,2540.2,6120.9,2539.4,6120.7,2538.8z
		 M6127,2545.1c0.1-0.7,0.1-1.3,0.1-1.9c0-2.2-0.5-4-1.2-5.1c0-0.1-0.1-0.2-0.1-0.3c0-0.2,0.2-0.3,0.4-0.3c0.8,0,2.9,4.5,2.9,7.1
		v0.4c-0.6,1.3-0.6,1.3-1.3,1.3l-0.6-0.4L6127,2545.1z M6133,2543.4c0-1.6-0.4-4.3-1.8-6.2c-0.1-0.1-0.1-0.2-0.1-0.3
		c0-0.1,0.2-0.4,0.4-0.4c0.8,0,3.6,4.4,3.6,6.5l-0.3,1.1c-0.2,0.2-0.4,0.4-0.7,0.4l-0.7-0.3L6133,2543.4z"/>
	<path id="XMLID_201_" d="M6153.4,2528.5c2.5-0.2,9-1,9-8c0-3.9-3.2-6.2-7-6.2c-3.6,0-5.3,2.1-5.3,3.9c0.2,0.9,0.2,1,0.3,1.9
		c0,0.9-0.6,1.9-1.8,1.9c-1.3,0-1.9-1-1.9-1.9c0-3.4,3.3-7.1,8.2-7.1c4.3,0,9.6,2,9.6,8.8c0,6.3-6,8.5-9.7,9v6.1h-1.3V2528.5z
		 M6156.2,2546.5c0,1.4-0.7,2.2-2.2,2.2c-0.8,0-2.1-0.6-2.1-2.2c0-1.2,0.8-2.1,2.1-2.1C6155.3,2544.4,6156.2,2545.3,6156.2,2546.5z"
		/>
</g>
<g id="XMLID_305_">
	<path id="XMLID_147_" class="st1" d="M4100,1810.5c0,0.2-0.1,0.5-0.2,0.6c-0.1,0.2-0.3,0.3-0.6,0.4c-0.3,0.1-0.7,0.2-1.2,0.3
		c-0.5,0.1-1.1,0.1-1.9,0.1c-0.7,0-1.3,0-1.8-0.1c-0.5-0.1-0.9-0.2-1.2-0.3c-0.3-0.1-0.5-0.2-0.6-0.4c-0.1-0.2-0.2-0.4-0.2-0.6v-56
		c0-0.2,0.1-0.5,0.2-0.6c0.1-0.2,0.4-0.3,0.7-0.4c0.3-0.1,0.7-0.2,1.2-0.3c0.5-0.1,1.1-0.1,1.8-0.1c0.8,0,1.4,0,1.9,0.1
		c0.5,0.1,0.9,0.2,1.2,0.3c0.3,0.1,0.5,0.2,0.6,0.4c0.1,0.2,0.2,0.4,0.2,0.6V1810.5z"/>
	<path id="XMLID_150_" class="st1" d="M4160.4,1781.6c0,5.1-0.6,9.5-1.9,13.2c-1.3,3.8-3.2,6.9-5.7,9.4c-2.5,2.5-5.5,4.3-9.1,5.6
		c-3.6,1.2-7.9,1.9-12.9,1.9h-12.4c-0.7,0-1.3-0.2-2-0.7c-0.6-0.5-0.9-1.3-0.9-2.5v-52.1c0-1.2,0.3-2,0.9-2.5c0.6-0.5,1.3-0.7,2-0.7
		h13.2c5.1,0,9.3,0.7,12.8,2s6.4,3.2,8.8,5.6c2.4,2.5,4.2,5.4,5.4,8.9C4159.8,1773.2,4160.4,1777.2,4160.4,1781.6z M4152.3,1781.9
		c0-3.2-0.4-6.1-1.2-8.8c-0.8-2.7-2-5.1-3.7-7.1c-1.7-2-3.8-3.5-6.3-4.6c-2.6-1.1-5.9-1.7-9.9-1.7h-7.9v45.4h8
		c3.7,0,6.9-0.5,9.4-1.4c2.6-0.9,4.7-2.4,6.4-4.3c1.7-1.9,3-4.3,3.9-7.2C4151.8,1789.3,4152.3,1785.9,4152.3,1781.9z"/>
</g>
<g id="XMLID_306_">
	<path id="XMLID_130_" d="M4135.7,2076.7c0,3.2-0.6,6-1.8,8.5c-1.2,2.5-2.8,4.7-5,6.4c-2.2,1.8-4.8,3.1-7.8,4c-3,0.9-6.4,1.4-10,1.4
		c-2.3,0-4.5-0.2-6.5-0.5s-3.9-0.8-5.6-1.4c-1.7-0.6-3.1-1.2-4.2-1.8c-1.1-0.6-2-1.2-2.5-1.7c-0.5-0.5-0.9-1.1-1.2-1.8
		c-0.2-0.7-0.4-1.7-0.4-2.9c0-0.6,0-1.2,0.1-1.7c0.1-0.5,0.2-0.9,0.4-1.2c0.1-0.3,0.3-0.6,0.6-0.8c0.2-0.2,0.5-0.3,0.8-0.3
		c0.5,0,1.3,0.3,2.3,1c1,0.7,2.3,1.4,3.8,2.2c1.5,0.8,3.4,1.6,5.5,2.2c2.1,0.7,4.6,1,7.4,1c2.2,0,4.3-0.2,6.2-0.7
		c1.9-0.5,3.5-1.2,4.8-2.2c1.4-1,2.4-2.2,3.2-3.8c0.8-1.5,1.1-3.3,1.1-5.4s-0.5-3.8-1.5-5.2c-1-1.4-2.3-2.6-3.8-3.7
		c-1.6-1-3.4-2-5.4-2.8s-4.1-1.6-6.2-2.5c-2.1-0.9-4.2-1.8-6.2-2.8s-3.8-2.3-5.4-3.7s-2.9-3.2-3.8-5.3c-1-2.1-1.5-4.5-1.5-7.4
		c0-2.3,0.4-4.6,1.3-6.8c0.9-2.2,2.2-4.2,4.1-6c1.8-1.8,4.2-3.2,7-4.2c2.9-1.1,6.2-1.6,10.1-1.6c1.7,0,3.3,0.1,4.9,0.4
		c1.6,0.3,3.1,0.6,4.5,1.1s2.5,0.9,3.5,1.4c1,0.5,1.7,1,2.2,1.4c0.5,0.4,0.9,0.7,1,1c0.2,0.3,0.3,0.5,0.4,0.8
		c0.1,0.3,0.1,0.6,0.2,1.1c0,0.4,0.1,0.9,0.1,1.5s0,1.1-0.1,1.6c-0.1,0.5-0.2,0.9-0.3,1.2c-0.1,0.3-0.3,0.6-0.5,0.8
		c-0.2,0.2-0.5,0.3-0.8,0.3c-0.4,0-1-0.3-1.8-0.8c-0.8-0.5-1.8-1.1-3.1-1.8c-1.3-0.6-2.8-1.2-4.5-1.8c-1.8-0.5-3.8-0.8-6.1-0.8
		c-2.3,0-4.3,0.3-6,0.8c-1.7,0.5-3.2,1.3-4.3,2.3c-1.1,1-2,2.1-2.5,3.4s-0.8,2.8-0.8,4.3c0,2.1,0.5,4,1.5,5.4c1,1.5,2.3,2.7,3.9,3.8
		c1.6,1.1,3.4,2,5.5,2.9c2.1,0.8,4.1,1.7,6.3,2.5c2.1,0.8,4.2,1.7,6.3,2.7c2.1,1,3.9,2.2,5.5,3.6c1.6,1.4,2.9,3.1,3.9,5.1
		C4135.2,2071.5,4135.7,2073.9,4135.7,2076.7z"/>
	<path id="XMLID_132_" d="M4208.5,2094.3c0,0.3-0.1,0.6-0.2,0.8c-0.1,0.2-0.4,0.4-0.7,0.6c-0.3,0.1-0.8,0.3-1.3,0.4
		c-0.6,0.1-1.3,0.1-2.1,0.1c-0.9,0-1.6,0-2.2-0.1c-0.6-0.1-1-0.2-1.3-0.4c-0.3-0.1-0.5-0.3-0.7-0.6c-0.1-0.2-0.2-0.5-0.2-0.8V2055
		c0-4.1-0.3-7.4-1-10c-0.6-2.6-1.6-4.8-2.9-6.6c-1.3-1.8-2.9-3.2-4.9-4.2c-2-1-4.3-1.5-6.9-1.5c-3.4,0-6.7,1.2-10.1,3.6
		c-3.4,2.4-6.9,5.9-10.6,10.5v47.5c0,0.3-0.1,0.6-0.2,0.8c-0.1,0.2-0.4,0.4-0.7,0.6s-0.8,0.3-1.3,0.4c-0.6,0.1-1.3,0.1-2.2,0.1
		c-0.8,0-1.5,0-2.1-0.1c-0.6-0.1-1-0.2-1.4-0.4c-0.3-0.1-0.6-0.3-0.7-0.6c-0.1-0.2-0.2-0.5-0.2-0.8v-66.3c0-0.3,0.1-0.6,0.2-0.8
		c0.1-0.2,0.4-0.5,0.7-0.6c0.3-0.2,0.8-0.3,1.3-0.4c0.5-0.1,1.2-0.1,2-0.1c0.8,0,1.5,0,2.1,0.1c0.5,0.1,1,0.2,1.2,0.4
		c0.3,0.2,0.5,0.4,0.6,0.6c0.1,0.2,0.2,0.5,0.2,0.8v9.4c3.8-4.2,7.5-7.3,11.2-9.2s7.3-2.9,10.9-2.9c4.3,0,8,0.7,11,2.2
		c3,1.5,5.4,3.4,7.2,5.9c1.8,2.5,3.1,5.4,4,8.7c0.8,3.3,1.2,7.3,1.2,12V2094.3z"/>
	<path id="XMLID_136_" d="M4291.3,2060.5c0,5.3-0.7,10.1-2.1,14.6c-1.4,4.4-3.4,8.3-6.1,11.6c-2.7,3.3-6.1,5.8-10.1,7.7
		c-4.1,1.8-8.8,2.7-14.1,2.7c-5.2,0-9.7-0.8-13.6-2.5c-3.9-1.6-7.1-4-9.7-7c-2.6-3.1-4.6-6.7-5.9-11.1c-1.3-4.3-1.9-9.3-1.9-14.7
		c0-5.3,0.7-10.1,2-14.6c1.3-4.4,3.4-8.3,6.1-11.5c2.7-3.2,6.1-5.8,10.1-7.6c4.1-1.8,8.8-2.7,14.2-2.7c5.2,0,9.7,0.8,13.6,2.4
		c3.9,1.6,7.1,3.9,9.7,7c2.6,3.1,4.5,6.8,5.9,11.1C4290.7,2050.2,4291.3,2055.1,4291.3,2060.5z M4282.1,2061.3
		c0-3.8-0.4-7.3-1.1-10.8c-0.7-3.4-2-6.4-3.7-9c-1.7-2.6-4-4.7-6.9-6.2c-2.9-1.5-6.5-2.3-10.8-2.3c-4,0-7.4,0.7-10.3,2.1
		c-2.9,1.4-5.2,3.4-7.1,5.9c-1.8,2.5-3.2,5.5-4.1,8.9c-0.9,3.4-1.3,7.1-1.3,11.1c0,3.8,0.4,7.4,1.1,10.9s2,6.5,3.7,9
		c1.7,2.6,4,4.6,6.9,6.2c2.9,1.5,6.5,2.3,10.8,2.3c4,0,7.4-0.7,10.3-2.1c2.9-1.4,5.2-3.4,7.1-5.9c1.8-2.5,3.2-5.4,4.1-8.9
		C4281.7,2069,4282.1,2065.3,4282.1,2061.3z"/>
	<path id="XMLID_139_" d="M4369.5,2060.5c0,5.3-0.7,10.1-2.1,14.6c-1.4,4.4-3.4,8.3-6.1,11.6c-2.7,3.3-6.1,5.8-10.1,7.7
		c-4.1,1.8-8.8,2.7-14.1,2.7c-5.2,0-9.7-0.8-13.6-2.5c-3.9-1.6-7.1-4-9.7-7c-2.6-3.1-4.6-6.7-5.9-11.1c-1.3-4.3-1.9-9.3-1.9-14.7
		c0-5.3,0.7-10.1,2-14.6c1.3-4.4,3.4-8.3,6.1-11.5c2.7-3.2,6.1-5.8,10.1-7.6c4.1-1.8,8.8-2.7,14.2-2.7c5.2,0,9.7,0.8,13.6,2.4
		c3.9,1.6,7.1,3.9,9.7,7c2.6,3.1,4.5,6.8,5.9,11.1C4368.9,2050.2,4369.5,2055.1,4369.5,2060.5z M4360.3,2061.3
		c0-3.8-0.4-7.3-1.1-10.8c-0.7-3.4-2-6.4-3.7-9c-1.7-2.6-4-4.7-6.9-6.2c-2.9-1.5-6.5-2.3-10.8-2.3c-4,0-7.4,0.7-10.3,2.1
		c-2.9,1.4-5.2,3.4-7.1,5.9c-1.8,2.5-3.2,5.5-4.1,8.9c-0.9,3.4-1.3,7.1-1.3,11.1c0,3.8,0.4,7.4,1.1,10.9s2,6.5,3.7,9
		c1.7,2.6,4,4.6,6.9,6.2c2.9,1.5,6.5,2.3,10.8,2.3c4,0,7.4-0.7,10.3-2.1c2.9-1.4,5.2-3.4,7.1-5.9c1.8-2.5,3.2-5.4,4.1-8.9
		C4359.9,2069,4360.3,2065.3,4360.3,2061.3z"/>
	<path id="XMLID_142_" d="M4447,2060.2c0,5.7-0.6,10.8-1.9,15.3c-1.2,4.5-3.1,8.4-5.5,11.6c-2.4,3.2-5.4,5.6-9,7.4
		c-3.6,1.7-7.6,2.6-12.2,2.6c-2,0-3.8-0.2-5.5-0.6c-1.7-0.4-3.4-1.1-5-1.9s-3.3-2-4.9-3.3c-1.6-1.3-3.4-2.9-5.2-4.8v34.2
		c0,0.3-0.1,0.6-0.2,0.8c-0.1,0.2-0.4,0.5-0.7,0.6c-0.3,0.2-0.8,0.3-1.3,0.4s-1.3,0.1-2.2,0.1c-0.8,0-1.5,0-2.1-0.1s-1-0.2-1.4-0.4
		c-0.3-0.2-0.6-0.4-0.7-0.6c-0.1-0.2-0.2-0.5-0.2-0.8v-92.6c0-0.3,0.1-0.6,0.2-0.9c0.1-0.2,0.3-0.4,0.7-0.6c0.3-0.1,0.7-0.3,1.2-0.3
		c0.5-0.1,1.1-0.1,1.9-0.1s1.3,0,1.8,0.1c0.5,0.1,0.9,0.2,1.2,0.3c0.3,0.1,0.6,0.3,0.7,0.6c0.1,0.2,0.2,0.5,0.2,0.9v9.6
		c2.1-2.1,4-3.9,5.9-5.5c1.9-1.5,3.7-2.8,5.6-3.8c1.9-1,3.8-1.8,5.7-2.3c2-0.5,4-0.7,6.2-0.7c4.8,0,8.9,0.9,12.2,2.7
		s6.1,4.3,8.2,7.5c2.1,3.2,3.7,6.9,4.6,11.1C4446.5,2050.9,4447,2055.4,4447,2060.2z M4437.8,2061.6c0-3.7-0.3-7.3-0.9-10.7
		s-1.6-6.5-3-9.2c-1.4-2.7-3.2-4.8-5.6-6.4s-5.2-2.4-8.8-2.4c-1.8,0-3.5,0.2-5.2,0.7c-1.7,0.5-3.4,1.3-5.2,2.4
		c-1.8,1.1-3.6,2.6-5.5,4.4c-1.9,1.8-3.9,4-6,6.6v28.9c3.7,4.4,7.2,7.8,10.5,10.2c3.3,2.4,6.8,3.6,10.5,3.6c3.4,0,6.3-0.8,8.7-2.5
		c2.4-1.6,4.4-3.8,5.9-6.4c1.5-2.7,2.6-5.7,3.3-9C4437.5,2068.3,4437.8,2065,4437.8,2061.6z"/>
	<path id="XMLID_145_" d="M4492.1,2095.8l-9.2,24.8c-0.2,0.5-0.8,1-1.5,1.4c-0.8,0.4-2,0.5-3.7,0.5c-0.9,0-1.6,0-2.2-0.1
		c-0.6-0.1-1-0.3-1.4-0.5c-0.3-0.3-0.5-0.6-0.5-1c0-0.4,0-0.9,0.3-1.5l9.4-23.5c-0.4-0.1-0.7-0.4-1-0.7c-0.3-0.3-0.5-0.7-0.6-1
		l-24.1-64.7c-0.2-0.7-0.4-1.2-0.4-1.6c0-0.4,0.1-0.7,0.4-1c0.3-0.2,0.7-0.4,1.3-0.5c0.6-0.1,1.4-0.1,2.5-0.1c1.1,0,1.9,0,2.6,0.1
		c0.6,0.1,1.1,0.2,1.5,0.3c0.4,0.1,0.6,0.3,0.8,0.6c0.2,0.2,0.3,0.5,0.5,0.9l20.7,57.9h0.3l20.4-57.9c0.2-0.7,0.6-1.1,1-1.4
		s1-0.4,1.6-0.4c0.7-0.1,1.5-0.1,2.5-0.1c0.9,0,1.7,0,2.3,0.1c0.6,0.1,1.1,0.3,1.4,0.5c0.3,0.2,0.4,0.6,0.4,1c0,0.4-0.1,0.9-0.4,1.6
		L4492.1,2095.8z"/>
</g>
<g id="XMLID_348_">
	<path id="XMLID_64_" d="M2682.2,7516.1v9.3l0.2,0.5l0.6,0.1h29.5c0.2,0,0.3,0.2,0.3,0.5c0,1.7,0,1.9-0.3,1.9h-31.2
		c-1.2,0-1.5-1.1-1.5-2.1v-10.2h-5.5l-0.4-1.4h20.7v-6.7l2.5,0.5c0.7,0.1,1.1,0.4,1.1,0.8c0,0.4-0.2,0.6-0.6,0.7
		c-0.3,0.1-0.5,0.4-0.5,0.8v4h12.9l3.1-2.5l3,2.3c0.2,0.1,0.4,0.4,0.4,0.8c0,0.7-0.6,0.9-1.1,0.9H2682.2z M2680.1,7536.9
		c0.3,0,0.3,0.2,0.3,0.8c0,5-2.3,10.5-4.6,10.5c-0.9,0-1.2-0.6-1.2-1.3c0-0.3,0.4-0.8,1-1.2c1.6-1.3,2.6-2.7,3.2-4.1
		c0.6-1.4,0.9-2.8,1-4.2C2679.7,7537,2679.8,7536.9,2680.1,7536.9z M2685.3,7533.6l3.2,0.9c0.4,0.1,0.6,0.3,0.6,0.7
		c0,0.4-0.3,0.6-0.7,0.7c-0.4,0-0.7,0.2-0.7,0.6v11.3c0,0.5,0.2,0.6,1,0.9h14.3c1.7,0,2.3-1.3,2.5-2.8l0.5-3.2
		c0-0.2,0.2-0.4,0.5-0.4s0.4,0.1,0.4,0.4v3.4c0,1.2,0.3,1.9,0.8,2.2c0.4,0.2,0.7,0.6,0.7,1c0,0.8-0.5,1.1-1.6,1.7h-20.1
		c-1.1-0.6-1.4-0.7-1.4-2.1V7533.6z M2700.5,7537.8c0,0.5-0.5,0.9-1,0.9c-0.6,0-1-0.3-1.1-0.7c-1.8-3.4-4.1-5.7-5.9-6.3
		c-0.2,0-0.3-0.2-0.3-0.3c0-0.1,0-0.5,0.5-0.5c1.1,0,6.4,3.1,7.6,5.7L2700.5,7537.8z M2714,7546.4c-1.3-5-3.9-8.5-5.7-9.7
		c-0.2-0.1-0.2-0.2-0.2-0.3c0-0.1,0.1-0.4,0.5-0.4c1.2,0,7.7,6.7,7.7,9.8c0,0.2,0,1.6-1.1,1.6
		C2714.6,7547.4,2714.1,7546.9,2714,7546.4z"/>
	<path id="XMLID_73_" d="M2734.3,7516.3l3.1-2.5l3,2.3c0.2,0.1,0.4,0.4,0.4,0.8c0,0.6-0.5,1-1.1,1h-18.2l-0.3-1.5H2734.3z
		 M2732.8,7509.9l3-2.5l3.1,2.3c0.2,0.1,0.4,0.4,0.4,0.7c0,0.6-0.5,1-1.1,1h-15l-0.4-1.5H2732.8z M2723,7534.8l2.1,1.4h10l1.2-1.3
		l2.2,1.4c0.2,0.1,0.3,0.3,0.3,0.5c0,0.2-0.2,0.7-0.8,0.8c-0.4,0.1-0.6,0.3-0.6,0.5v13.4c0,0.3-0.1,0.5-0.4,0.7
		c-1.5,0.4-1.9,0.4-1.9-0.7v-3h-9.8v2.6c0,0.2-0.2,0.5-0.6,0.7c-1.7,0.3-1.8,0.4-1.8-0.8V7534.8z M2732.8,7522.9l3-2.5l3.1,2.3
		c0.2,0.1,0.4,0.4,0.4,0.8c0,0.7-0.6,0.9-1.1,0.9h-14.8l-0.4-1.4H2732.8z M2732.8,7529.8l3-2.5l3.1,2.3c0.2,0.1,0.4,0.4,0.4,0.7
		c0,0.6-0.4,1-1.1,1h-14.8l-0.4-1.5H2732.8z M2725.4,7537.7v9.4h9.8v-9.4H2725.4z M2761.7,7530c0,0.3-0.1,0.6-0.4,0.7
		c-1.6,0.4-1.9,0.4-1.9-0.7v-3h-13v20.9c0,0.8,0.6,1.1,1.2,1.1h12.2c0.7,0,1.2-0.2,1.4-0.5c0.5-0.6,1.1-1.5,1.4-2.6l0.8-3.1
		c0-0.2,0.2-0.3,0.5-0.3c0.2,0,0.3,0.2,0.3,0.5l-0.5,3.4c-0.1,0.5-0.1,1-0.1,1.3c0,0.4,0.1,0.7,0.2,0.9c0.4,0.2,0.6,0.6,0.6,1
		c0,0.3-0.4,1.9-1.9,1.9h-16.5c-0.6,0-2.3-0.2-2.3-2.3v-25.4l2.7,1.9h12.7v-13.7h-17l-0.3-1.5h17.2l1.2-1.3l2.2,1.4
		c0.2,0.1,0.3,0.3,0.3,0.5c0,0.2-0.2,0.7-0.8,0.8c-0.4,0-0.6,0.3-0.6,0.5V7530z"/>
	<path id="XMLID_82_" d="M2774.7,7514.8l-0.4,2c-0.6,2.1-1.8,4.3-3.4,4.3c-1.1,0-1.2-1.3-1.2-1.4c0-0.3,0.4-0.8,1.1-1.2
		c1.9-1.6,3.2-3.4,3.5-6.8c0-0.2,0.1-0.4,0.4-0.4c0.2,0,0.4,0.1,0.4,0.4l-0.1,1.8h15.2v-6.1l2.5,0.5c0.8,0.1,1.1,0.3,1.1,0.7
		c0,0.4-0.2,0.7-0.6,0.8c-0.4,0.1-0.6,0.4-0.6,0.7v3.5h15.8l1.6-1.5l1.7,2.2c0.2,0.3,0.4,0.6,0.4,0.9c0,0.1-0.1,0.9-0.8,0.9
		c-0.1,0-0.8-0.1-0.9-0.1c-0.3,0-0.6,0.1-0.8,0.2l-3.6,3.5c-0.1,0-0.2,0.1-0.2,0.1c-0.3,0-0.4-0.3-0.4-0.5c0-0.1,0-0.1,0-0.2
		c1.1-1.3,2-2.7,2.6-4.1H2774.7z M2784.4,7534.4l-0.9-0.5l-0.4-0.7c-4.6,2.4-12,4.8-12.6,4.8c-0.1,0-0.4,0-0.4-0.3
		c0-0.1,0.1-0.3,0.3-0.4c6.6-2.3,11.8-5.1,12.6-5.6v-12.3l3.2,0.9c0.4,0.1,0.6,0.3,0.6,0.7s-0.3,0.6-0.7,0.7c-0.4,0-0.6,0.2-0.6,0.6
		v8c8.4-5.2,12.4-11.1,13.5-13.1l2.5,0.9c0.4,0.2,0.7,0.5,0.7,0.7s-0.2,0.7-0.7,0.7l-0.8,0.2c-4.8,5.3-9.5,9.1-14.9,12l0.7,0.2h13
		c1.5,0,2.2-0.8,2.7-2.7l0.7-3.3c0-0.2,0.2-0.3,0.5-0.3s0.3,0.1,0.3,0.4l-0.1,3.3c0,1.2,0.2,2,0.6,2.2c0.4,0.2,0.7,0.6,0.7,1
		c0,0.4-0.2,0.9-0.7,1.2c-0.9,0.4-1,0.5-1.6,0.5H2784.4z M2777.6,7520.7c0.2,0,0.3,0.2,0.3,0.4c0,3-2.8,10-5.6,10
		c-0.9,0-1.2-0.7-1.2-1.2c0-0.2,0-0.7,1.1-1.4c1.6-1.1,2.9-2.4,3.5-3.6c0.7-1.2,1.2-2.5,1.5-3.9
		C2777.2,7520.8,2777.4,7520.7,2777.6,7520.7z M2778.8,7549.9v2c0,0.8-1.5,1.1-1.9,1.1c-0.3,0-0.5-0.1-0.5-0.4v-14.1l2.7,0.4
		c0.7,0.1,1.1,0.4,1.1,0.8c0,0.3-0.2,0.7-0.7,0.9c-0.4,0.2-0.7,0.5-0.7,0.9v7h11.7v-12.7l2.5,0.4c0.7,0.1,1.1,0.4,1.1,0.8
		s-0.2,0.7-0.6,0.8c-0.4,0.1-0.6,0.4-0.6,0.7v10h11.1v-10.1l2.7,0.4c0.8,0.1,1.1,0.4,1.1,0.8c0,0.4-0.2,0.7-0.7,0.9
		c-0.5,0.2-0.7,0.5-0.7,0.9v10.9c0,0.8-1.5,1.1-1.9,1.1c-0.3,0-0.5-0.1-0.5-0.4v-2.9H2778.8z M2792.3,7521.1c-2.2-3.1-4.4-4-5.1-4.3
		c-0.2,0-0.4-0.2-0.4-0.4c0-0.4,0.3-0.4,0.5-0.4c1.1,0,7.1,1.9,7.1,4.5c0,0.9-0.7,1.1-1.1,1.1S2792.6,7521.4,2792.3,7521.1z
		 M2810.7,7529.8c-2.3-4.9-4.8-6.9-6.1-7.5c-0.2,0-0.3-0.2-0.3-0.3c0-0.2,0.1-0.5,0.4-0.5c1.3,0,8.1,5,8.1,7.9
		c0,0.6-0.2,1.2-1.1,1.2C2811.4,7530.6,2810.9,7530.3,2810.7,7529.8z"/>
	<path id="XMLID_89_" d="M2830.5,7547.6c0,0.2,0,0.5-0.5,0.7c-1.4,0.4-1.9,0.5-1.9-0.7v-3.4h-5.5v5.8c0,0.3-0.2,0.5-0.6,0.7
		c-1.4,0.5-1.8,0.6-1.8-0.7v-18.9c-1.3,2.3-2.7,3.9-3,3.9c-0.2,0-0.3-0.2-0.3-0.4c0-0.1,0-0.2,0.1-0.4c4-6.5,5.4-13.4,5.9-20.7h-4.8
		l-0.4-1.5h10.3l2.8-2.2l2.5,2c0.2,0.1,0.3,0.4,0.3,0.7c0,0.5-0.3,1-1.1,1h-7.3c-0.3,4.7-1.2,8.8-2.5,12.4h5.3l1.3-1.3l2.2,1.4
		c0.2,0.1,0.3,0.3,0.3,0.5c0,0.2-0.2,0.7-0.7,0.8c-0.4,0.1-0.6,0.3-0.6,0.5V7547.6z M2822.7,7542.8h5.5v-15.4h-5.5V7542.8z
		 M2833.6,7547c2.6-3.7,3-6.8,3-7.9c0-0.6,0-0.7,0.4-0.7c0.3,0,0.5,0.1,0.5,0.5c0.1,0.6,0.1,1.2,0.1,1.8c0,4.1-1.2,8.1-3.2,8.1
		c-0.5,0-1-0.3-1-1.1C2833.4,7547.4,2833.5,7547.1,2833.6,7547z M2836,7508.1l2.4,2h15.6l3-2.5l2.9,2.2c0.3,0.3,0.5,0.6,0.5,0.9
		c0,0.6-0.4,0.9-1,0.9H2849v5.9h3.9l2.6-2.1l2.4,1.7c0.3,0.3,0.5,0.6,0.5,0.9c0,0.5-0.4,0.9-1,0.9h-8.5v6h4.1l2.6-2.1l2.4,1.7
		c0.3,0.3,0.5,0.7,0.5,1c0,0.6-0.5,0.9-1,0.9h-8.6v6.1h9l1-1.5l2,1.2c0.5,0.2,0.8,0.6,0.8,1c0,0.2,0,0.9-0.8,1
		c-0.4,0.1-0.7,0.3-0.7,0.6c0,2.6-0.3,5.1-0.6,7.5c-0.6,3.9-1.2,7.3-6.4,9.1c-0.2-2.4-2.6-3.2-4.2-3.7c-0.3-0.1-0.5-0.3-0.5-0.5
		c0-0.3,0.2-0.6,0.5-0.6c0,0,0.1,0,0.2,0c2.1,0.9,3.6,1.3,4.5,1.3c1-0.3,1.8-0.9,2.4-1.7c0.6-0.7,1.1-2.6,1.2-5.5l0.3-5.8l0.1-1.1
		h-19.3v2.4c0,0.6-0.6,0.8-1.9,1.1c-0.3,0-0.5-0.4-0.5-1.1V7508.1z M2846.6,7517.5v-5.9h-8.1v5.9H2846.6z M2846.6,7525v-6h-8.1v6
		H2846.6z M2838.4,7526.4v6.1h8.1v-6.1H2838.4z M2841.5,7545.2c0.2-1.2,0.3-2.3,0.3-3.3c0-1.3-0.1-2.6-0.7-3.7c0,0,0-0.1,0-0.2
		c0-0.2,0.2-0.3,0.4-0.3c0.6,0,2.1,3.8,2.1,6.5c0,0.4,0,2.3-1.3,2.3c-0.1,0-0.2,0-0.8-0.5L2841.5,7545.2z M2847.5,7544.1l-0.2-0.7
		c0-3.6-1.1-5.4-1.5-5.9c-0.1-0.1-0.1-0.1-0.1-0.2c0-0.1,0.1-0.4,0.4-0.4c0.6,0,3.4,3.8,3.4,6.1l-0.4,1c-0.2,0.3-0.4,0.4-0.7,0.4
		L2847.5,7544.1z M2852.9,7541.9c-0.2-1.4-1.1-3.9-2.4-5.1c-0.1,0-0.2-0.2-0.2-0.3c0-0.1,0.1-0.4,0.3-0.4c0.8,0,4.2,3.7,4.2,5.1
		c0,0.3-0.1,1.6-0.8,1.6l-0.7-0.2L2852.9,7541.9z"/>
	<path id="XMLID_112_" d="M2901.6,7510.1l2.6-1.1l1.6,2.1c0.1,0.2,0.2,0.4,0.2,0.6c0,0.3-0.5,0.5-1,0.5c-0.5,0-0.9,0.1-1.1,0.2
		c-3.9,3.5-8.3,6.4-12.8,8.6c0,0.2,0,0.7-0.7,0.8c-0.5,0.1-0.7,0.3-0.7,0.6v26.2c0,0.6-0.3,1.2-1,1.9c-0.7,0.6-1.9,1.1-3.6,1.3
		c-0.3-2-2.8-2.4-4.2-2.6c-0.4,0-0.6-0.2-0.6-0.5s0.2-0.3,0.6-0.3l5.2,0.2l1.1-0.2l0.2-0.7V7520l2.4,0.3h0.3
		c4.5-2.5,8.4-5.4,11.7-8.7h-32.3l-0.7-1.5H2901.6z"/>
	<path id="XMLID_114_" d="M2914.7,7511.1l2.1,1.4h6.9l1.2-1.5l2.2,1.4c0.1,0.1,0.2,0.2,0.2,0.5c0,0.4-0.3,0.8-0.7,0.9
		c-0.4,0.1-0.5,0.3-0.5,0.5v23.6c0,0.2-0.2,0.5-0.5,0.6c-1.6,0.4-1.9,0.4-1.9-0.6v-2.6h-6.6v3.7c0,0.2-0.2,0.5-0.6,0.7
		c-1.6,0.3-1.8,0.4-1.8-0.8V7511.1z M2917.1,7533.9h6.6V7514h-6.6V7533.9z M2929.7,7538.4c0.2,0,0.4,0.1,0.4,0.3
		c0,0.6,0.1,1.3,0.1,1.9c0,5.5-2.1,8.8-3.6,8.8c-0.8,0-1.3-0.5-1.3-1.3c0-0.3,0.3-0.8,0.9-1.3c1.4-1.5,3.2-3.7,3.2-8.1
		C2929.4,7538.5,2929.5,7538.4,2929.7,7538.4z M2931.4,7507.4l2.5,2.2h16.1l2.6-2.1l2.4,1.7c0.3,0.3,0.5,0.6,0.5,0.9
		c0,0.5-0.4,0.9-1,0.9h-10.3v6.1h4.8l2.6-2.1l2.4,1.7c0.3,0.3,0.5,0.7,0.5,1c0,0.4-0.3,0.9-1,0.9h-9.4v6.2h5.4l2.6-2.1l2.4,1.7
		c0.3,0.3,0.5,0.7,0.5,1c0,0.6-0.5,0.9-1,0.9h-9.9v5.9h8.8l1-1.5l2,1.2c0.6,0.2,0.8,0.6,0.8,1c0,0.1,0,0.9-0.8,1.1
		c-0.4,0-0.7,0.2-0.7,0.6c0,2.8-0.2,5.5-0.6,7.9c-0.5,3.6-1.1,8.1-6.5,9.6c-0.2-2.1-1.9-2.9-3.7-3.5c-0.3-0.1-0.5-0.3-0.5-0.5
		c0,0,0.1-0.5,0.5-0.5c0.1,0,0.1,0,0.2,0c1.8,0.7,3.1,1.2,3.9,1.2c1-0.4,1.9-1.1,2.5-1.9c0.6-0.8,1.1-2.8,1.2-5.9l0.2-6.2l0.1-1.1
		h-19.2v2.4c0,0.6-0.4,0.8-1.9,1.1c-0.3,0-0.4-0.4-0.4-1.1V7507.4z M2941.8,7517.1v-6.1h-8.1v6.1H2941.8z M2941.8,7524.8v-6.3h-8.1
		v6.3H2941.8z M2933.7,7526.2v5.9h8.1v-5.9H2933.7z M2934.7,7538.4c0-0.1,0-0.2,0-0.2c0-0.1,0.1-0.3,0.4-0.3c0.8,0,1.7,4.2,1.7,6.5
		c0,3-1.2,3.6-1.9,3.6c-0.5,0-1-0.4-1-1.2c0-0.1,0-0.3,0-0.4c1-2.7,1.1-4.4,1.1-5.5C2935,7539.8,2934.9,7539,2934.7,7538.4z
		 M2941,7544.7c0.1-0.7,0.1-1.3,0.1-1.9c0-2.2-0.5-4-1.2-5.1c0-0.1-0.1-0.2-0.1-0.3c0-0.2,0.2-0.3,0.4-0.3c0.8,0,2.9,4.5,2.9,7.1
		v0.4c-0.6,1.3-0.6,1.3-1.3,1.3l-0.6-0.4L2941,7544.7z M2947,7543c0-1.6-0.4-4.3-1.8-6.2c-0.1-0.1-0.1-0.2-0.1-0.3
		c0-0.1,0.2-0.4,0.4-0.4c0.8,0,3.6,4.4,3.6,6.5l-0.3,1.1c-0.2,0.2-0.4,0.4-0.7,0.4l-0.7-0.3L2947,7543z"/>
	<path id="XMLID_125_" d="M2967.4,7528.1c2.5-0.2,9-1,9-8c0-3.9-3.2-6.2-7-6.2c-3.6,0-5.3,2.1-5.3,3.9c0.2,0.9,0.2,1,0.3,1.9
		c0,0.9-0.6,1.9-1.8,1.9c-1.3,0-1.9-1-1.9-1.9c0-3.4,3.3-7.1,8.2-7.1c4.3,0,9.6,2,9.6,8.8c0,6.3-6,8.5-9.7,9v6.1h-1.3V7528.1z
		 M2970.2,7546.1c0,1.4-0.7,2.2-2.2,2.2c-0.8,0-2.1-0.6-2.1-2.2c0-1.2,0.8-2.1,2.1-2.1C2969.3,7544,2970.2,7544.9,2970.2,7546.1z"/>
</g>
<g id="XMLID_1_">
	<path id="XMLID_15_" class="st13" d="M2016.4,869.1l-283.1,342.1c-20.5,24.7-57.5,28.2-82.2,7.8l-342.1-283.1
		c-24.7-20.5-28.2-57.5-7.8-82.2l283.1-342.1c20.5-24.7,57.5-28.2,82.2-7.8l342.1,283.1C2033.4,807.4,2036.9,844.4,2016.4,869.1z"/>
	<path id="XMLID_14_" class="st13" d="M1894.4,702.9c-25.1-17.3-9.6-38.6,11.5-50.2c10.4-5.7,22.1-10.1,33.9-11.6
		c18.9-2.4,37.8,4.4,56.1-3.1c15.2-6.3,32.9-24.5,20-41c-10-12.9-27.9-18.2-42.7-23.4c-0.6-0.2-0.5-1,0.2-1.1
		c14.3-1.9,31.7-28.1,33.1-39.8c4.1-34.8-31.8-26.4-52.4-19.1c-1.8,0.6,13.7-55.2-14.7-57.5c-28.4-2.4-38.4,38.7-38.4,38.7
		s-16.9-55.6-37.3-48.8c-20.4,6.9-21.2,25.3-12,57c9.2,31.5-3.7,25.9-7.6,25.5c-12.9-1.3-42.3-17.2-49.3-5.7
		c-10,16.5,5.8,28.9,14.5,41.4c10.4,15,19.3,40.1,7.1,56.6c-12.8,17.2-24-1.5-37-14.1"/>
</g>
<g id="XMLID_38_">
	<path id="XMLID_45_" class="st8" d="M1488.4,807.4c-8-5.7-20.5-6.4-28.7-0.6c-18.4,13.1-3,31,11.4,39.3
		c14.5,8.4,33.1,12.8,45.9,23.2c3.7,3,6.9,6.5,9.4,10.4c15.2,23.8-4.2,53.2-31.3,61.3c-13.2,4-28.4,3.8-41.6-0.4
		c-12-3.8-23.3-11.4-28.2-22c-6.9-15,1.2-31.8,7.2-45.9c-1.7,4,18,11.5,17.8,17.3c-0.2,6.6-6.9,9.8-2.7,17.2
		c1.8,3.1,4.7,5.5,7.9,7.3c6.9,3.9,15.4,5.4,23.4,4.1c16.3-2.6,29.8-20.6,18.6-34c-5.1-6-13.5-8.8-21.4-11.6
		c-14.6-5.3-29-12.3-39.1-23.1c-16.3-17.6-14.1-40.1,1.7-57.3c5.1-5.4,11.1-9.2,17.9-11.3c6.8-2.1,14.1-2.9,21.8-2.5
		c7.5,0.6,14.5,2.4,21,5.7c17.4,8.6,28.6,29.3,23.1,46.7c-1.8,5.5-3.6,10.2-3.1,15.9c-6.6-1.4-20.3-7.8-23.2-13.7
		c-2.6-5.4,0.7-11.8-1.2-17.5C1493.8,812.5,1491.4,809.6,1488.4,807.4z"/>
	<path id="XMLID_42_" class="st8" d="M1637.8,779.1c18.1-1.9,37.2,1.4,51,12.4c6.3,5,11.3,10.8,14.9,17.4
		c5.7,10.2,7.5,21.7,3.9,32.8c-4.7,14.4-14.8,23.8-29.9,29.8c-1.3,0.5-0.9,7-0.9,7c7.7,12.9,17,25,25.1,37.7
		c5.7,9,12.1,19.2,21.4,25.8c-2.9-2-20.7,2-24.1,1.8c-5.2-0.2-7.4,1.5-11.4-1.8c-7.6-6.4-13.3-17.2-18.2-25.3
		c-6.7-11-10.3-23.2-16.7-34.1c-0.6-0.9-9,0.8-10.1,1.2c0,0-4.9,1.5-4.9,1.5c-12.1,3.6,8.1,45.1-1.2,53.4c-1.6,1.4-3.8,2-6,2.5
		c-6.5,1.5-13.1,2.2-19.8,2.2c2.6,0,2-38.3,1.9-41.5c-0.5-16.4-0.8-28.9-0.9-37.6c-0.4-24,0.8-48,1.5-72c0.1-2.1,0.2-4.4,1.4-6.2
		c1.6-2.3,4.6-3.4,7.5-4.2C1627.2,780.7,1632.4,779.7,1637.8,779.1z M1636.5,856.9c10.2,6.2,38.6-7.3,45.9-16.2
		c3.6-4.4,4.9-13.6,0.2-22c-6.7-12.1-21-19.6-36.2-18.9c-1.9,0.1-4.4,0.4-5.4,1.3C1630.3,811.4,1623.6,849,1636.5,856.9z"/>
	<path id="XMLID_39_" class="st8" d="M1799,779.9c1.3,0,2.7-0.1,4.1-0.2c34.9-2.6,66.9-0.4,92.2,24c24.6,23.8,32.8,62.5,16.8,91.9
		c-17.6,32.3-56.8,44.3-94.3,48.1c-1.2,0.1-3.5-0.2-3.5-0.2s-1.3,0-1.9,0.3c-2,1.3-12.6,0.9-15-1.7c-7.3-7.9-2.1-28.9-1.4-41.2
		c0.9-14.4,1.6-26,2-35c0.8-15.4,0.1-30.8-1-46.2c-1-14.1-1.5-27.9-5.4-41.8c1.7,0.6,3.4,1.3,5.2,1.6
		C1797.6,779.8,1798.3,779.9,1799,779.9z M1822.8,912.8c0,0.6,7.4,0.7,7.9,1.1c0.7,0.5-0.9,0.1,0,0c38.8-3.4,63.7-18.7,58.7-57.7
		c-2.4-18.2-9.2-41.7-28.4-50.1c-8.7-3.8-26.6-11.7-35.7-5.7c-9.1,5.9-4,15.2-3.6,23.2c0.4,8,0.5,16.8,0.2,26.2
		c-0.2,9.4-0.5,17.1-0.7,22.9c-0.6,15.2-1.1,21.5-2,36.7C1819.2,909.7,1822.7,912.5,1822.8,912.8z"/>
</g>
<g id="XMLID_46_">
</g>
<g id="XMLID_536_">
</g>
<g id="XMLID_537_">
</g>
<g id="XMLID_538_">
</g>
<g id="XMLID_539_">
</g>
<g id="XMLID_540_">
</g>
</svg>
