<?xml version="1.0" encoding="utf-8"?>
<!-- Generator: Adobe Illustrator 19.0.0, SVG Export Plug-In . SVG Version: 6.00 Build 0)  -->
<svg version="1.1" id="圖層_1" xmlns="http://www.w3.org/2000/svg" xmlns:xlink="http://www.w3.org/1999/xlink" x="0px" y="0px"
	 viewBox="0 0 131.3 348.6" style="enable-background:new 0 0 131.3 348.6;" xml:space="preserve">
<style type="text/css">
	.st0{fill:#1C4256;stroke:#95CCF4;stroke-width:4;stroke-miterlimit:10;}
</style>
<g id="XMLID_49_">
	<path id="XMLID_81_" class="st0" d="M84.2,331c-14.1,2.8-21.4,15.6-14.1,14.8c7.4-0.8,14.6-2.5,21.8-4.3c8.5-2.1,17.3-3.8,25.8-6.2
		c0.9,3.5,1.7,7,2.6,10.5c3,0.2,6,0.5,9,0.7c-0.3-5.5-0.5-11-0.8-16.5"/>
	<g id="XMLID_47_">
		<path id="XMLID_79_" class="st0" d="M128,153L98.8,2.3C73.6,6.6,47.9,13.6,30.4,30.5S2.5,70.5,2,94c12.5-0.8,24.8-3.4,36.5-7.6
			c-9.2,13.4-12.9,30-10.2,45.7c1,5.9,3,11.8,7.1,16.4c5.2,5.8,13.1,8.7,20.9,10.6c23.1,5.6,48.5,3.6,70.4-5.4"/>
		<path id="XMLID_78_" class="st0" d="M128,291.2c0,0-0.2-136.7-0.2-136.7c0-1.9-26.4,4.5-28.7,5.3c-8.3,3-16.2,7.2-23.7,11.6
			C56.1,182.9,29,204.7,17.6,222c-15.1,22.9-11.3,52.5,18.2,63.3c6.3,2.3,13.1,3.1,19.8,3.7C79.5,291.3,103.9,292.1,128,291.2"/>
		<g id="XMLID_44_">
			<path id="XMLID_73_" class="st0" d="M86.7,275.1c-0.3,0.7-5.1-1.8-6.5-2c-1-0.8-0.7-1.6-0.4-2.2c1.2-2.3,2.5-4.7,3.7-7
				c0.9-1.7,1.9-3.5,3.8-4.6c2-1.1,5-1.5,8.4-1.1"/>
			<line id="XMLID_72_" class="st0" x1="84.1" y1="193.2" x2="95.7" y2="258.4"/>
			<line id="XMLID_71_" class="st0" x1="99.6" y1="196" x2="105.5" y2="259.7"/>
			<line id="XMLID_70_" class="st0" x1="95.7" y1="258.4" x2="107" y2="260.4"/>
			<line id="XMLID_69_" class="st0" x1="94.4" y1="251.2" x2="104.9" y2="254"/>
			<path id="XMLID_64_" class="st0" d="M105.5,259.7c1,3,2.1,21.7,3.3,23.6"/>
			<path id="XMLID_63_" class="st0" d="M92.1,274.1c-0.3,2.3,0.4,5.1,2.1,7.8c0.8,1.4,2.1,2.9,4.1,3.9s4.5,0.7,4.1-0.6
				c-1.1-3.3-3.6-7.1-5.5-10.5"/>
			<path id="XMLID_62_" class="st0" d="M100.6,280.5c-0.4,0.7,0.2,1.8,1.2,2.8c1.5,1.5,4,2.9,6.1,3c2.1,0.1,2.1,0.1,0.8-3.1"/>
			<path id="XMLID_61_" class="st0" d="M86.7,275.1c-0.1,2.6,0.4,5.4,1.3,8.3c0.5,1.5,2,3.7,4.3,4c0.7-1.2,2-3.5,2-3.5"/>
		</g>
		<polygon id="XMLID_53_" class="st0" points="85.1,329.9 128.2,329.9 128.2,290.9 71,292.2 		"/>
		<polygon id="XMLID_48_" class="st0" points="60.2,291.3 72.9,291.8 85.7,329.5 84.4,330.3 		"/>
	</g>
	<path id="XMLID_45_" class="st0" d="M67.2,132.5c-6.7-20.2-18.5-15-37.3-21.6"/>
</g>
<g id="XMLID_14_">
</g>
<g id="XMLID_15_">
</g>
<g id="XMLID_16_">
</g>
<g id="XMLID_17_">
</g>
<g id="XMLID_18_">
</g>
<g id="XMLID_19_">
</g>
<g id="XMLID_20_">
</g>
<g id="XMLID_21_">
</g>
<g id="XMLID_22_">
</g>
<g id="XMLID_23_">
</g>
<g id="XMLID_24_">
</g>
<g id="XMLID_25_">
</g>
<g id="XMLID_26_">
</g>
<g id="XMLID_27_">
</g>
<g id="XMLID_28_">
</g>
</svg>
