<?xml version="1.0" encoding="utf-8"?>
<!-- Generator: Adobe Illustrator 19.0.0, SVG Export Plug-In . SVG Version: 6.00 Build 0)  -->
<svg version="1.1" id="圖層_1" xmlns="http://www.w3.org/2000/svg" xmlns:xlink="http://www.w3.org/1999/xlink" x="0px" y="0px"
	 viewBox="0 0 393.1 341.5" style="enable-background:new 0 0 393.1 341.5;" xml:space="preserve">
<style type="text/css">
	.st0{fill:#ED1C24;}
	.st1{fill:#EF3940;}
</style>
<g id="XMLID_931_">
	<g id="XMLID_984_">
		<path id="XMLID_1101_" class="st0" d="M196.7,215.8l0-2.1c-0.7,0.1-1.4,0.2-2.1,0.4C195.1,214.9,195.9,215.4,196.7,215.8z"/>
		<path id="XMLID_1100_" class="st0" d="M140.2,205.2c0.3-1.1-0.8-1.9-1.3-2.4l2.4-1.2l-1-1.1c0.4-1.6,2.5-2.9,3.7-4.1l-0.5-0.6
			c-0.3-0.2-0.7-0.7-0.7-0.7l-5.1,3.2c0.2,0.4,0.8,1.2,1.6,1.2l-0.5,2.1c-0.5-0.3-1-0.8-1.4-0.4l0.6-1.5l-1.8,0.3
			c0.4-0.6,0.9-0.8,0.9-1.3l-4.4,2.8c1.2-0.2,2.6,0.3,3,0.7c-1-0.8-2.2,0.4-3.2,0.5c1.9,2.4,2,1.6,4.2,1.5l1.5,2.8c0,0,0,0,0,0
			C138.5,206.1,139,205.2,140.2,205.2z"/>
		<path id="XMLID_1097_" class="st0" d="M148.2,199.4c1.3-0.5,2.1-0.1,3.2,0.7l-0.9,0.1c-0.1,0.3,0.2,0.4,0.5,0.5l-2.1,0.1
			c0.6,0.8,1.3,0.3,1.4,1.4l26.7-16.9l-5.3-8.4l-9.7,6.2c0,0,0.3,0.6,0.4,0.6l-1.2-0.1L143,195.1l0.6,0.8
			C145.1,197,148,197,148.2,199.4z M151.4,197.2l-1.1,0.9l-1.7-2L151.4,197.2z"/>
		<path id="XMLID_1096_" class="st0" d="M83.5,177.7c1.1,0.4,2.3,1.1,2.9,1.1l0,1.5l2,0.4c-1.5-1.2-0.3-1.1-0.2-1.9
			c-0.2-0.7-0.3-1.4-0.5-2.1L83.5,177.7z"/>
		<path id="XMLID_1089_" class="st0" d="M94.7,192L92,191l-0.7,0.4c-0.4,0.8-0.7,1.8,0.4,2.2c-2.3-0.5-1,0.4-2.2,1.6
			c0.5-0.9-0.7-2.1-0.6-2.6c-3.4-2.8-3.3,1-6.2,0.1c0,0,0.1,0.1,0.1,0.1l-0.5-0.3c0.1,0.1,0.3,0.1,0.4,0.1c-1-0.9-1.6-0.3-2.4,0.1
			c1.4,11.4,1.2,21.2-0.6,29.5l5.8,0.2l-1.9-0.7l2.2-0.4l-0.2,1l4.7,0.1c1.4-6,1.8-12.2,1.2-19.1l2-1.3c-0.9,0-1.6-0.1-1.9,1
			c-1.2,0.3,0-2.8-2-2.5c0,0-0.1,0-0.1,0c0,0,0.1,0,0.1,0c0.6-0.1,1.1-1.1,2.3,0l-0.2-3.1c2.3-0.7,2.9-2.1,6-0.9
			c-1.3-3.6,3,0,2.6-3.4c-1,0.4-0.9,1.1-2.4-0.3c-0.6-1.2,0.3-1.4-0.1-2.5c-1.2-1.4-2.3-1.4-3.4-1.3l-2,1.3
			C93.3,191.8,94.3,191.7,94.7,192z M89.6,221c-1.1,0.7-3.4,0.1-4.8-0.3c0.1-0.3,0.5-0.7,0.7-1.1c-0.2-0.2-0.4-0.4-0.6-0.6
			c0.7,0.1,0.7,0.3,0.6,0.6C87.4,220.8,91,218.5,89.6,221z M85.5,202.4c0.8-0.8,2,0.4,2.5,0.9L85.5,202.4z M88.1,201.3l0.7-0.3
			l1.4,1.9L88.1,201.3z M88.2,195.8c-0.6,2.6-2-0.2-3.5-0.8c-0.8,0.4-1.5,0.9-2.1,1.3c0.7-1.3,1.4-1.5,2.1-1.3
			C86,194.4,87.4,194.3,88.2,195.8z M92.7,194.7c-0.2-0.4-0.2-0.7,0-1.2l1.2,1.2C93.6,194.6,93.2,195.3,92.7,194.7z"/>
		<path id="XMLID_1088_" class="st0" d="M81.6,178.2l-0.6,0.1c0.2,0.2,0.4,0.4,0.5,0.5C81.6,178.6,81.6,178.4,81.6,178.2z"/>
		<path id="XMLID_1087_" class="st0" d="M78.4,179c0.8,0.5,1.6,0.8,2.4,0.7c-0.4-0.5-0.6-0.8-0.7-1.1L78.4,179z"/>
		<path id="XMLID_1086_" class="st0" d="M101.8,197.1l1.4-0.9l0-0.1C102.5,195.5,101.7,196,101.8,197.1z"/>
		<path id="XMLID_1075_" class="st0" d="M158.3,224.3c0.2-0.7,0.8-1.1,1.7-0.4c0.5,0.3-0.4,0.2-0.9,0.5c1,0.2,2,0.4,3.1,0.5
			c1.1-0.1,2.3-0.2,2.8-1.6l-0.5,1.9c4.5,0.6,9.4,0.8,14.4,0.7l-0.6-0.2c2-0.8-0.8-1.6-0.3-2.8c1.8-1.3,1.9,0.1,3.2,0.6
			c0.1-0.2,0.5-0.2,1.2,0.1c-0.5,0-0.9,0-1.2-0.1c-0.3,0.4,0.4,1.5,0.6,2.3c4.8-0.2,9.8-0.7,15-1.5l-0.1-7.5
			c-0.7-0.2-1.7-0.9-2.4-0.8c0,0.1,0.1,0.1,0.1,0.2l-0.7,0.3c0.1-0.3,0.3-0.4,0.6-0.5c-0.8-1.9-3.2-1.4-4.7-1.3l0.1-0.2
			c-7.5,1-14.5,1.2-20.9,0.7c1.1,0.3,2.7,1.5,3.7,1.6c-0.2,0.8-1.6,1.6,0.2,1.9l-2.1,1.3l1.1,1.7l-3.7-1c1.3-0.5-0.6-1.5-0.1-2.1
			l2.6,0.7c-0.3-1.3-3.3-1.3-1.7-2.9l-1.3,0.5c0-1.2,0.4-1.7,0.9-1.8c-7.9-0.7-14.8-2.4-21-5.3c0,0.7-0.7,2.1,0.8,2.8
			c0.6,0,0.5-0.9,0.6-1.2c2.4,1.2,2.4,1.5,4.2,3.9c-1.3,0.3-0.8-0.7-2.6-1.9c-0.3,0.1-1,0.4-0.5,0.9c-1.2-0.6-2.6-1-3.8-1.2l0.1,0.3
			c-0.4,0.4-0.9-0.1-1.4-0.4c0.3,0,0.8,0,1.3,0.1l-1.3-2.5l-2.2,1.6c0.8-1.3,2.1-3,3.6-3c-1.3-0.7-2.6-1.3-3.9-2.2l2.6-1.7
			c-0.9-0.6-1.8-0.8-2.6-1.2c-0.5,0.9,1.9,0.9,0.9,1.3c0.1,0.9-1.4-1.6-2.3-1.7c0.6,1.7-0.2,2.7,0.9,4.1c0.1,0,0.2,0,0.3,0l1,1.1
			c-0.6-0.4-1-0.8-1.2-1.1c-0.1,0-0.3,0-0.4,0c-0.1,0.1-0.2,0.2-0.3,0.3c-0.1,0.5,0.6,1.3,1.1,1.5c-0.1,0.5-1.1-0.5-1.7-0.5
			c0.1-0.4,0.3-0.7,0.6-1c0-0.1,0.1-0.2,0.3-0.3c0,0,0,0,0,0c-1-0.9-2.1-1.2-3-1.2c0,0,0,0,0,0l0,0c-1.2,0-2.3,0.3-3.1,0.6
			c0.5,0.5-0.1,1.7,0,2.6l-2.4-1.2c-0.2-1.9,1.6-3,1.1-4.8c-1.8,1.2-1.1-1.7-3.3-1.6c0.3-0.6,1-0.9,1.7-1.1c-0.5-1.2-1-2.3-1.5-3.5
			l-0.6-0.1c0.3-0.1,0.1-0.3-0.2-0.7c0.1-0.1,0.2-0.2,0.3-0.3c-2-4.3-4.5-8.8-7.2-13.3l32.1-20.3l-3.1-4.9c0.1,1,0.1,2.2-1.4,1.5
			l1.4,2.1c-0.9,0.1-1.6-2-2.6-1.6c-0.5,0.7-0.2,2,0.7,2.4c-1.7,0.6-6.2-2.2-6,1.2c-0.3-1.3-1.7-0.5-1.5-1.3l0.3-0.2
			c-1.4-1.6-1.9-1.8-3.6-1.3l-0.1,0l0.5,1.1c0.1,0.1,0.2,0.3,0.2,0.4l-0.2-0.5c-0.2-0.3-0.5-0.5-1-0.7l-4.4,2.8
			c0.6,1.3,0.9,1.9,0.8,2.8l-2-2l-1.7,1.1c0,0,0,0,0,0l0,0l-7.5,4.7c0.2,0.4,0.3,0.5,0.8,0.5c-0.6,0-1.2,0.3-2,0.2l-4.9,3.1
			c-0.7-1.2-1.4-2.4-2.1-3.5l-1.3,0.5c0.3-1.3,0.3-1,1.3-0.5c-1.3-2.2-2.5-4.2-3.8-6.1c-1.4-2.1-2.6-4-3.7-5.6l-0.2,0.1
			c-0.3,0.2-0.5,0.9-0.9,0.6l-2.3,1.4l0.7,0.3l0,0.3l-1-0.4l-5.3,3.3c1.6,2.3,3.4,5.1,5,7.6c1.6,2.5,3.1,5.1,4.6,7.5l-0.6,0.4
			c0.6,0.2,1-0.2,1.3-0.4c-0.7-0.9-0.6-1.2-1.3-2.1c1.8,1.2,4.8-1.1,7.3,1.3l-1.7,0.7c0.2,0.4,0.8,0.7,1,0.8c-2-0.7-4.9,1.4-6.7,0.2
			c0.8,1.6,0.2,0.3,0.5,1.6c-0.4-0.5-0.9-0.7-1.7-1.4l-1.1,0.7c0.2,0.4,0.4,1,0.8,1.2l-1.7-0.2l2.3,1.8c0.4,1.1-0.3,4-2.2,3
			c0,2.4,1,2.3,3.1,2.4c-0.2,0.8,0.3,1.3-1.1,2.1c0.4-0.2,0.9,0.1,1.3,0.4l5.8-3.7c1,1.6,1.9,3.3,2.7,5c1-0.2,1.9-0.6,2.5-1.5
			c-1.9-2.4,0.3-0.1,0.2-2.3l0.5,1.7c2.5-0.2,6.7,1,8.4,3c-0.7,0.5,0.5,1.7-2,0.8l0.4,2.3l1.8,0c1.3,0.9-0.7,0.5,0.5,1.7l-3.5-1.7
			l1.5,2.5l-2.3-0.5c-1.9-0.9-1.5,2.8-3.6,2.4l0.1-0.5c-0.2,0.1-0.6-0.3-1.1-0.5c0.9,2,1.7,4,2.6,6.2l-36.6,23.2l5.3,8.4l34.5-21.9
			c0.5,2.5,0.9,5.1,0.9,7.7c0.7-0.6,1.9-0.5,2.6-0.7l-1.5-1.1l0.9-0.1l0.6,1.2c0.7-0.2,1.1-0.6,0.8-2.2l0.9,2.8
			c-1.6-0.2-2.3,1.3-4,0.7c1,0.7,1,2.1,1.3,3c-0.6-0.5-1.1-0.7-1.7-0.8c-0.3,13.2-6.2,26.9-17.9,41.1l9.7,4.7
			c0.9-1.1,1.7-2.3,2.5-3.4c-1-0.1-2.1,1.2-3.4,0.4c2.5,0.9,2.6-3.2,2.4-3.8c1.3,0.2,1.1,1.8,1.6,2.5c4.3-6.1,7.6-12,10.1-17.9
			c-0.8,0.3-1.6,1-2.2,1.5c-1.2-3.2,1.1-3.1,2.8-3.1c0.9-2.4,1.7-4.7,2.4-7.1c-0.9-1.2-0.2-3.2,0.3-3.3c0.2-0.1,0.4-0.2,0.6-0.3
			c1.8-8.1,1.9-16,0.2-23.8C142.9,219.6,150.1,222.5,158.3,224.3z M173.8,216.8c1.1-0.7,0.8,0.7,1,1.1
			C174.1,217.9,174,217.2,173.8,216.8z M108.3,222.5l-1.9,1.9l0.5,0.3l-0.5-0.3l0.1-0.1l-2.4-1.7c-2.2-1.1-0.6,2.7-2.7,1
			c1.5,0.1,0.8-2,1.6-2.8c1.3-0.3,3.6,2.9,3.7-0.3l0.7,2.1C107.6,222.7,108,222.6,108.3,222.5l0.4-0.4
			C108.7,222.3,108.5,222.4,108.3,222.5z M116.6,216.9l1.1-0.1c-0.3-0.5-1.2-1.5-0.6-1.8l1.1,1.7l-0.5,0
			C117.8,217.1,117.7,217.3,116.6,216.9z M117.5,212.9l-0.9,0.1l0.3-1.3L117.5,212.9z M130.6,232.9c-0.1,0-0.3,0-0.5-0.2
			C130.3,232.8,130.5,232.8,130.6,232.9c0.7,0-0.4-1.9,1.6-1.5C132.6,233.2,132,233.3,130.6,232.9z M135.2,226.4l-0.8-1.6l1.9,0.9
			L135.2,226.4z M129.2,213.4c-0.1,0.5-0.5,0.9,0,1.5c0.5-0.7,3.2-0.8,2.9,0.6c-2.9-0.6-1.3,0.3-3.1,1.4c-0.6-1.2-2.5-2.4-3.3-2.5
			c2.6,0.7,2-2,3.5-2.1l-0.8-0.4c1.4,0.4,2.7,0.2,3.8,0.4c0.5-0.9-1.4-1.9-0.1-2.1c-0.2-0.4,0.6,1.2,1.6,1.1
			C132.8,212.2,130.8,213,129.2,213.4z M130.7,209.4c-0.7-0.9-0.6-1.5-1.2-2.4l1.7,0.3L130.7,209.4z M127.8,203.8
			c-0.3-0.1-0.5-0.5-0.1-0.7l1.6,0.8L127.8,203.8z"/>
		<path id="XMLID_1074_" class="st0" d="M127.9,226.6l-0.6-0.9c0,0.3,0,0.7,0,1C127.5,226.7,127.7,226.7,127.9,226.6z"/>
		<path id="XMLID_1073_" class="st0" d="M101.3,197.4c-1-0.5-2.3-0.1-3.6-0.5l1.6,1.8L101.3,197.4z"/>
	</g>
	<g id="XMLID_933_">
		<path id="XMLID_983_" class="st0" d="M232,144.7c-0.1,0.1-0.1,0.1-0.1,0.2l0.4,0.3L232,144.7z"/>
		<path id="XMLID_982_" class="st0" d="M269.1,153.9c0.3,0.3,0.4,0.7,0,0.9c-0.4-0.5-1.8-0.8-1.5-1.6c-0.6-0.3-1.3-0.5-1.9-0.8
			c-0.4,0.1-0.8,0-1.3-0.2c0.9,1.1,1.7,0.6,2.5,1.9l-0.6,2.4c-5.5-2.3-4.2,2.2-9.1,0.9c0.9,1.9,3.1,2.6,3.2,4c1.1,0.5,2.2,1,3.2,1.5
			c0.1-0.5,0.5-0.9-0.1-1.5l-0.1,0c-0.3,0.1-0.4,0.3-0.5-0.1l0.5,0.1c0,0,0,0,0.1,0c0,0,0,0,0,0l1.4,0.1c-1.3-0.2,0.3,1.3-0.8,1.6
			c1.7,0.9,3.4,1.8,4.9,2.7l5.6-9.2C272.8,155.7,270.9,154.8,269.1,153.9z"/>
		<polygon id="XMLID_981_" class="st0" points="229.2,130.9 229.1,130.9 229.3,131.1 		"/>
		<path id="XMLID_980_" class="st0" d="M257.7,156.6c1.5-0.7,0.9-1.1,0.2-1.7l-0.5,0.8C257.5,155.9,257.6,156.2,257.7,156.6z"/>
		<path id="XMLID_1067_" class="st0" d="M259.8,151.7C259.8,151.7,259.8,151.7,259.8,151.7c1,0.5,1.4,0,1.8-0.5
			c-0.4-0.1-0.8-0.2-1.3-0.3L259.8,151.7z"/>
		<path id="XMLID_1066_" class="st0" d="M260.3,152.3c-0.1-0.1-0.4-0.3-0.6-0.5l-0.4,0.6L260.3,152.3z"/>
		<path id="XMLID_1054_" class="st0" d="M199.4,103.2l3.9-0.6c-0.8,0.8-1.2,1.2-0.3,2.5c-2.3-0.3-3.9,0-5.4,1
			c-0.3-0.3-0.6-0.7-0.8-1.1l7.5,12.7c0.4-0.3,0.7-1.2,2.1-0.7c-0.2,0.8-1.2,1.4-1.8,1.2l7.5,12.6c0.5-0.1,0.9,0,1.2,0
			c0.1-0.1,0.2-0.1,0.3,0.1c0,0-0.1-0.1-0.3-0.1c-0.2,0.2-0.7,0.8-0.7,0.9l4.2,7.1c0.9-0.4,1.4-2.4,2.3-1.7c0.7,0.7,1.4,1.7,2.3,1.6
			l-0.6-1.2c0.9,0.2,0.4,0.8,0.9,1.4l-2.1-0.2c3.1,1,2.4,4.6,5.7,6.3l-2,0.5c2.4,2.5,5.2-1.1,7.2,1.7c-3.5-0.7,1.1,3-1.1,3
			c1.4,2.8,5.7,2.7,7.8,2.7c0.5,0.6,2.6-0.4,3.4-1.5c0.8,0.4,1.2,2.4,2.1,1.1c-0.1-0.7-0.6-1.2-1.5-1.4c0.9-2.2,2.2,2.1,3.4,0.9
			c0.2,0.4,4-1.4,6,0.2c-0.2,0.8-5,2.4-6.4,3.2c0.1,0.7,0.5,1.3,0.6,1.2l20.7-12.3l-36-60.6l-30.8,18.3
			C199.1,102.1,199.3,102.6,199.4,103.2z M205.5,116c0.3-0.1,0.9-0.1,0.8-0.8c0-1.1-2.1-2-2.3-1.9c0,0,0,0,0,0.1c0,0,0-0.1,0-0.1
			c0.1-0.9,2.5-2.5,4-1.1c-0.8,0.8-3.4,0-1.8,2.3c0.9-0.1,0.2-0.8,0.9-1l0.4,2C206.8,115.8,206.1,116.3,205.5,116z M223.2,140.4
			l-1.5-1.1l1.5-0.1L223.2,140.4z M218.2,132.9c-1.5-1.4-3.4,1.2-3.9-0.3c2.2-0.3-0.6-2.4,0.2-2.9l1.3,2.2c0.7-0.2,0.8-0.8,1-1.3
			c-0.1-0.3-0.4-1-0.7-1.3c-0.1-0.1-0.3-0.2-0.4-0.2c0.2,0,0.3,0.1,0.4,0.2c0.9,0.6,1.5,2.1,2.6,1.1
			C218.3,131.2,217.8,132.1,218.2,132.9z M241.3,112.2l1.1,1.8c-0.5-0.3-1.3-0.7-1.2,0l-2.1-1.4
			C240.1,111.9,241.4,114.1,241.3,112.2z M228.7,94.1c-0.1,0.5,0.9,2.6-0.7,1.7C228.6,95.6,227.2,94,228.7,94.1z M223.6,89.1
			c-0.1,0.5,1.3,0.7,0.5,1.5l-1.7-0.3L223.6,89.1z M209.5,107l16.3-9.7l5.3,8.9l-11.5,6.9c0.2,0.4,0.2,0.6,0.2,0.8
			c0.6,0.8,2,0.4,2.5,1.4c-1,0.4-0.1,1.5-1.3,1.7c-0.9-0.2-2.7-2.6-2.8-0.9c-1-1.7,1.4-1.3,1.7-2.2c-0.1-0.1-0.1-0.2-0.3-0.7
			l-4.6,2.7L209.5,107z M227.5,140.3C227.5,140.3,227.5,140.3,227.5,140.3c-0.3-0.6-0.8-0.9-0.1-2.1c1.8-1.1,1.4-1.7,2.4-3.2
			l-0.6-0.1c-0.1,0.2-0.4,0.2-1.2-0.2l1.2,0.2c0.3-0.4-0.4-1.7-0.1-2.2c-0.6,0.2-1.2-0.3-1.7-0.6l-2.3,1.4l-1.8-3.1
			c-0.4,0.3-0.6,0.4-0.9-0.1l0.4-0.8l-0.3-0.6l-2.2,0.2c0.4-0.6,1.2-1,1.7-1l-2.4-4l16.3-9.7l5.6,9.4l-11.8,7l1.7,0.9l-0.9,1
			c0.7-0.2,2.1,1.1,2.2-0.3c1.1,1.5,1.1,2.7,0.8,5.2l-1-2c-0.7,0.2-1.9-3.1-2.5-0.7c2.1,0.2,2,2.8,1.6,4.2c-2.7-4.5-1.7,1.2-3.5,1.5
			c1.1,0.1,2.2,0.4,3.1,0l0,0l1.5-0.9c0-0.5,0.2-1.1,0.9-1.4c0.2,0.2,0.5,0.6,0.5,0.6l12-7.1l6,10.2l-16.3,9.7l-3.5-5.8l-0.9,0.3
			c0.1-0.3,0.2-0.6,0.3-0.8l-0.9-0.6c-0.1,0-0.2,0-0.2-0.2l0.2,0.2c0.2,0,0.6-0.3,0.6-0.2l-0.6-1c-1.4-1.4-2.6,2.6-4.5,0
			c0.2-2-0.6-1.2,1.3-1.4C227.8,141,227.7,140.6,227.5,140.3C227.5,140.3,227.5,140.3,227.5,140.3z M220.2,131l-0.1,0.3l-0.4-0.8
			l1.8,1.3L220.2,131z M211.9,116.4l-0.8-0.2c-0.5,0.2-0.4,1.5-1.3,1.4c0,0.1,0,0.1,0,0.2l2.1,1.6l-2-0.5c0-0.6-0.1-0.9-0.1-1.2
			l-0.4-0.3c0.1,0,0.3,0.1,0.4,0.1c0-0.4,0.1-0.4,0.8-1c-0.1-0.7-1-0.8-1.3-1l1.8,0.5C211.3,116.1,211.5,116.1,211.9,116.4z"/>
		<path id="XMLID_954_" class="st0" d="M325.9,131.7c-10.2,1.8-19.5,1.3-28.1-1.3c0.5-6.8-0.4-14.5-2.8-23.2c-0.7,0.1-1.3,0.3-1.5,0
			l0.1,0.3c-3,3.2-4.7-1.9-8-0.9c-0.1,0.2-0.5,0.3-1.1,0.4c0.1,0.4,0.2,0.7,0.3,1.1l1.3,0c-0.1,0.5-0.5,0.9-0.7,1.4l-0.3-0.4
			c1.8,6,2.6,11.4,2.5,16.1c-0.9-0.6-1.8-1.2-2.7-1.9l-2.2-0.3c-1-1.1-0.7-1.4-0.2-1.5c-3.6-2.9-7.1-6.3-10.3-10.2l-5.7,8.5
			c5.7,6.4,12.3,11.9,20.1,16.5c-0.9,5.5-3.5,12.1-7.7,20.1l1-0.3c0.7,1,3.1,1,2.6,2.9c0.4-0.4,2.7,0,1.3-1.4l2,1.7
			c-1.7,1.8-4.1-0.4-5.7-1.5c0,1.2-0.2,0.8-1.2,0.9l-0.3-1.6c-0.9,1.7-1.9,3.4-3,5.3l9.8,3.9c4.9-7.5,8.6-16.1,10.9-25.7
			c9.2,2.7,18.9,3.3,29.1,1.9L325.9,131.7z M294.6,121.6c0.8-0.8,1.1,0.3,1.3,1C296.6,123.3,294.3,122.7,294.6,121.6z M284.4,156.7
			l-1.3-0.7c0.3-1.1,1.8-0.9,1.8-1.1L284.4,156.7z M282.7,151.6c0.5-0.9,1-0.4,1.5-0.4c0-0.1,0.1-0.2,0.1,0c0,0-0.1,0-0.1,0
			C284.1,151.6,283.8,152.8,282.7,151.6z M286.9,155.3l0.4,0.8c-0.7-1-1.8-1.3-1.5-2.6l3.2,1.7C288.4,156.7,288,154.7,286.9,155.3z
			 M289.2,147.8l-1.7-0.6l2.8,0L289.2,147.8z M278.9,128l-0.9,0.1c-0.2-0.4-0.3-1.1-1.2-1.2C277.6,127,278.6,126.6,278.9,128z
			 M284,129.5l-1.5,0.1l1.6-0.3L284,129.5z M291.2,120.7l1.5,0.2l-0.5,0.9C291.8,121.6,291.3,121.4,291.2,120.7z M316,140.8l0.1-1.7
			l0.7,0.7L316,140.8z M314.3,135.7l-0.2-1.6c0.6,1.2,1.9,0.7,2.4,1.3C315.9,135.3,315.3,136.5,314.3,135.7z"/>
		<path id="XMLID_950_" class="st0" d="M249.3,159.5l-4-0.3l0,0.1c0,0,0-0.1,0-0.1l-4.7-0.4l0.8-0.5c-0.2,0.1-0.4,0.2-0.6,0.4
			c-0.2-0.4-1.3-0.7-0.6-1.2c1.1,0.3,2.7,0.2,3-1.1c-0.8-1.6-2.8-0.9-3.8-0.5l0.3,0.1c-1.2,1.2-3.6,0.8-5.5,0.1l1.2,1.2l-1.9,0.2
			l0.3-1.1c-1.5-0.2-3.5-1.8-5-0.6c-1.4-1.6,0.5-0.6,1.1-0.6c-1.7-1.8-0.6-4.6-2.2-6.4c-1,0.8-2.4,1.3-3.7,1.9l2.7,4.5
			c0.7,0.2,1,1.8,1.9,2.1c-0.1,0.2-0.5,0.3-0.5,0.3l3.8,6.3l7.4-4.4c1.1,8.2,1,15.9,0.1,23.5c1.4,0,2.8-0.2,3.9-1
			c4.3-0.1-0.6,3.3,3.9,5.1c-1.6-2,1.4,0.4,1-1.5c0.3,0.5,0.6,1,1,1.3c1.2-6.4,1.4-15.5,0.6-27.1
			C249.6,159.8,249.4,159.7,249.3,159.5z M247.1,169.9l-0.1-0.7l1.7,0.6L247.1,169.9z M247,160.7l-0.5,0.1
			C246.5,160.6,246.7,160.6,247,160.7l1.5-0.3C248.9,161.9,247.7,161,247,160.7z"/>
		<path id="XMLID_949_" class="st0" d="M263.8,152.9c0.2-0.3,0.3-0.6,0.4-0.9c-0.3-0.1-0.6-0.2-0.9-0.3L263.8,152.9z"/>
		<path id="XMLID_948_" class="st0" d="M259.8,161c-2.1-0.2-2.9-1.6-4.5-1.8l-0.1,0.2c1.5,0.5,3,1.1,4.4,1.7L259.8,161z"/>
		<path id="XMLID_940_" class="st0" d="M257.4,98.3c-0.3,1.3,0.2,2.8,1.1,3.9c1.6-0.3,0.5-1.8-0.1-3.1c0.9,1.4,2,0.5,3.1,2
			c0.1-0.5,0.6-1.2-0.3-1.1c0.6-0.1,1.1-0.1,1.7-0.2c-0.2-1.3-0.5-2.6-0.7-3.9c-0.3-0.1-0.6-0.2-1-0.4l0.5,0.5
			c-0.7-0.7-2.7-1.2-2.8,0c-3.5-2.8,4.3-1.3,0.8-4.1c0.1,0.7-0.5-0.3-0.6,0c-0.2-0.4-0.5-0.5-0.3-1.1c0.7,0.9,1.9-0.2,1.5,1.4
			c1-0.4,1.5-1.3,1.5-2.2c-0.3-0.1-0.6,0-0.9-0.2L262,89l0,1.2c-0.1-0.9,4.1,0.7,2.9-1.7l0.8,1.6l3-1.8c0,0,0-0.1,0-0.2
			c0,0,0.1,0.1,0.1,0.1l4-2.4c-0.6-0.2-0.9,0.1-1.2,0c1.8,0.1,1.4-2,3.4-1.5c0,0,0,0,0-0.1l-0.5-0.5c0.3-0.1,0.5,0.2,0.5,0.5
			l0.7,0.7c0.8-0.3,2.1,0.1,2.3-0.5l-0.2-0.8c0.2,0.4,0.2,0.6,0.2,0.8l0.1,0.5c0.7,0.9,1.2,0,1.8,0.1l-0.5-1.5
			c2.1,1.4-1.4,3.1,1.5,3.5l0.1-1.7c0.8-2,1.9,1,3.3,0.2c0.1,2.1-2.6,0.7-2,2.9c0.5,0.5,0.9-0.1,1.4,0.4c-0.1,0.5-0.6,1.2-0.1,1.7
			l0.8-0.8c-0.7,1.7-2.7,2.2-3.4,3.6c2.9-0.6,2.1,3.8,4.7,4c-0.1-0.7,2.8-2.7,3.7-0.1l-3.8,0.7c1.7,1.8,4.7,3.1,7.1,4.4
			c0.2,0,0.4-0.1,0.6-0.2c-0.5-1.6-1.1-3.3-1.8-5l-0.5,0.1l0-1.2l0.2,0.2c-2-5.4-4.6-11-7.5-17l6.9-4.1l-5.1-8.5l-27,16
			c-1.6-5.6-3.4-10.7-5.2-14.9l-9.8,4c4.2,10.8,7.2,20.8,9,30.1c1.3-0.5,2.6-0.9,4-0.4C256.6,100.3,256,98.1,257.4,98.3z M285,93.1
			l0.2-0.8l1.4,0.4L285,93.1z M285.7,90.5l-1.1-2.7l1.4,0.5L285.7,90.5z M255.6,84.4l-2.9-0.6C252.9,82.1,255.5,83.5,255.6,84.4z"/>
		<path id="XMLID_934_" class="st0" d="M265,125.3c0.4-6.2-0.2-13.7-1.6-22.5c-0.9,0.3-1.9,0.6-3.2,0.9c0.9,1.1,2.1,1.1,2.9,3
			c-1.5,1-4.4-1.7-5.6-0.9c0.1,0.7,0.9,1.4,1.5,1.1c-0.5,0.6-2.8,2.4-4,0c-0.5-0.5,3-0.8,0.6-2.4c1.3-0.2,2.7,0.2,3.3-0.9
			c-0.7-0.7-1.2-2.4-2.3-1.8c-0.5,0.9-1.4,1.7-1.8,1.1c1.2,0,0.5-0.6,0.4-1.6c-1.3,1.1-1.9,1-2.6,1.6c1.2,6.8,1.8,13.3,1.6,19.3
			L265,125.3z M264.9,115.1c-0.7,0.2-1.4,0.7-2.3,0.6C263,115.3,264,114.1,264.9,115.1z M263.7,113.9c-1.2,1.2-2.2-2.1-3-0.4
			C260.5,112.2,263.4,112.8,263.7,113.9z M258.9,113.5l2,2.9c-1.3-1-2.4-1.3-2.8,0L258.9,113.5z M257.8,118c0.1,0.7-0.5-0.3-1,0.1
			l-0.5-1.5L257.8,118z"/>
	</g>
	<g id="XMLID_932_">
		<g id="XMLID_69_">
			<g id="XMLID_73_">
				<g id="XMLID_74_">
					<g id="XMLID_75_">
						<path id="XMLID_130_" class="st1" d="M389.8,149.2c0.6,0.3,1.1-0.4,0.2-1.6l-1.7-0.2L389.8,149.2z"/>
						<path id="XMLID_129_" class="st1" d="M386.6,139.2c-1.5-1.2-3.5-2.4-3.9-0.8c2,0.9,1.8,1.5,4.1,2.3c0.9,1.2,1,2.5,0.5,2.5
							c0.6,0.3,1,2.2,2.1,2.4c-0.1-2.2-1.4-4.4-3.5-6.2C385.7,138.9,386.3,139.2,386.6,139.2z"/>
						<path id="XMLID_128_" class="st1" d="M311.6,11.1L312,12C311.9,11.7,311.8,11.4,311.6,11.1z"/>
						<path id="XMLID_127_" class="st1" d="M234.4,42.6c0.6-0.4,0.8-0.7,0.7-0.8C234.6,42.2,234.2,42.6,234.4,42.6z"/>
						<path id="XMLID_126_" class="st1" d="M220.3,49.7c0.3-0.2,0.6-0.3,0.8-0.4C220.8,49.4,220.4,49.5,220.3,49.7z"/>
						<path id="XMLID_125_" class="st1" d="M311.6,11.1l-0.9-2.3C310.2,8.8,311.1,10,311.6,11.1z"/>
						<path id="XMLID_124_" class="st1" d="M373.3,123.3c0.3,0.4,0.6,0.7,1,1c-0.3-0.3-0.5-0.7-0.8-1
							C373.4,123.3,373.4,123.3,373.3,123.3z"/>
						<path id="XMLID_123_" class="st1" d="M333.5,45.2l0.4,0.6c0.2,0.1,0.5,0.2,0.8,0.3L333.5,45.2z"/>
						<path id="XMLID_122_" class="st1" d="M349.7,71.7c-0.3-0.6-1.4-0.3-2-0.2c0.6,0.1,1.1,0.4,1.5,0.9
							C349.4,72.3,349.6,72.1,349.7,71.7z"/>
						<path id="XMLID_121_" class="st1" d="M373.6,115l0.6,0.7C374,115.5,373.8,115.2,373.6,115z"/>
						<path id="XMLID_120_" class="st1" d="M322.2,26c0.1-0.1,0.2-0.3,0.2-0.5C322.3,25.6,322.2,25.8,322.2,26z"/>
						<path id="XMLID_119_" class="st1" d="M358.7,162.4c0,0.1,0.1,0.1,0.1,0.2C358.9,162.4,358.9,162.3,358.7,162.4z"/>
						<path id="XMLID_118_" class="st1" d="M392.2,148.1l-0.4,0.3c0.1,0.2,0.1,0.4,0.2,0.6L392.2,148.1z"/>
						<path id="XMLID_117_" class="st1" d="M195.2,63.7c0.1,0,0.1,0,0.1,0C195.9,63.1,195.5,63.4,195.2,63.7z"/>
						<path id="XMLID_116_" class="st1" d="M18.8,222c-0.7-3.1,3.6,3.5,2.2-0.9C20.8,221.6,17.4,218.4,18.8,222z"/>
						<path id="XMLID_115_" class="st1" d="M373,122.5c-0.2-0.4-0.5-0.7-0.7-1.1C372.6,122,372.8,122.3,373,122.5z"/>
						<path id="XMLID_114_" class="st1" d="M21,221L21,221l-0.1-0.5C20.9,220.8,21,220.9,21,221z"/>
						<path id="XMLID_113_" class="st1" d="M139.3,99.3c0.2,0.1,0.5,0.1,0.8,0.1C140.1,99.3,139.9,99.2,139.3,99.3z"/>
						<path id="XMLID_112_" class="st1" d="M182,74.5l-1.1,0.5C181.4,74.9,181.7,74.7,182,74.5z"/>
						<path id="XMLID_111_" class="st1" d="M118.5,114.2c-0.6,0.3-0.9,0.3-1.6,0.9c0.1,0,0.2,0,0.3,0
							C117.4,114.7,117.7,114.4,118.5,114.2z"/>
						<path id="XMLID_110_" class="st1" d="M95.8,128.3c0.2,0,0.4,0,0.5-0.1c0.2-0.2,0.5-0.3,0.7-0.5L95.8,128.3z"/>
						<path id="XMLID_109_" class="st1" d="M290.2,205.8c0.7,0,1.2,0.1,1.6,0.2C291,205.5,294.2,203.2,290.2,205.8z"/>
						<path id="XMLID_108_" class="st1" d="M373.8,123c-0.3,0-0.6-0.1-0.8-0.4c0.2,0.3,0.3,0.5,0.5,0.7
							C373.7,123.3,373.8,123.2,373.8,123z"/>
						<path id="XMLID_107_" class="st1" d="M122.2,122.3l-3.7,2.1C119.6,123.9,120.9,123.1,122.2,122.3z"/>
						<path id="XMLID_106_" class="st1" d="M128,307.1l0.8-0.6C128.4,306.7,128.2,306.9,128,307.1z"/>
						<path id="XMLID_105_" class="st1" d="M108,131.2c-0.9,0.1-1.7,0.3-2.4,0.6c-0.1,0.2-0.2,0.3-0.3,0.5L108,131.2z"/>
						<path id="XMLID_104_" class="st1" d="M291.8,206C291.8,206,291.8,206,291.8,206C291.8,206,291.8,206,291.8,206z"/>
						<path id="XMLID_99_" class="st1" d="M314.1,188.9c-3.4,2.1-0.8,2.2-1.1,3.4c-3.9,2.9-2.5,0.3-4.3,0.5
							c-2.3,1.9-3.6,4.3-5.5,5.4c-0.3-0.1-0.7,0-0.4-0.5c-2.1,2.7-8,5-10.3,8.3c-0.3,0-0.5,0-0.6-0.1c0.9,0.3,1.4,0.9,1.6,1.4
							c-1.5,1-2.4,2.6-3.4,2.1c1-0.6,0.8-0.9,1.1-1.5l-1.4,1.4c-2.2-0.3,1.9-1.8,1.4-2.6c-2.9,2.3-5.9,5.6-8.6,6.8
							c-1.2-0.8,5.4-3.9,1.5-2.9l4-1.9c-4,0,2.3-1.3-1.5-1.6c-5.1,2.7-5.1,4-10.2,6.7c-0.7,1.3,1,0.7,0.3,2
							c-6.2,5.5-7.3,0.5-11.4,5.2c-0.8,1.6-0.4,3.4-4.6,4.9l0.4-2.1c-4.8,2.8-1.5,3.6-7,5.8c0.6-1.1,3.5-2.8,2.6-2.5
							c-3.9,1-1.8,2.2-4.3,3.7l-1.2-0.8c-4.9,3.3-10,7.6-15.4,11.3c0.1-0.5,0.8-1.5-0.7-1c-6.7,5-15.1,9.2-22.4,12.8l-2,2.6
							c-0.6,0.4-1.4,0.2-0.9-0.4c-2.9,1.3,0.3,0.7-0.8,1.9c-1.5,1-2.3,0.7-1.6-0.2c-4.1,3.8-12.2,10.1-17.8,12.1l0.8-0.9
							c-4.1,2-3.1,4.7-7.2,6l0.6-0.6c-8.6,4.8-17.2,11.4-24.5,13.9c-0.3,2.2-8.6,4.5-7.9,6.8c-5.4,2-4.2,0.8-11.3,4.3
							c-1.8,1-1.9,2.9-4,4.5l-0.7-1l-2.3,3l-2.4-0.3l-1.9,1.6c0.9-0.5,2-0.6,2.1-0.2c-2.9,2.5-8.3,4.2-8.8,3.7l-7.1,5.7
							c-0.1-0.5,1.1-1.5,1.9-2.4c-3.4,3.6-1.4-0.6-4.6,2.7c0.7-0.1,0.1,0.8,0.2,1.1c-2.3,0.5-6.5,3.2-9.5,5.4l0.2-1.1
							c-2.2,1.3-4.4,2.7-6.7,4.2l-0.9,0.6l-0.4,0.3l-0.2,0.1c-0.1,0,0,0-0.1,0l-0.2,0.2c-0.2,0.2-0.4,0.3-0.6,0.5
							c-0.2-0.2-0.4-0.4-0.5-0.7c0,0.3-0.2,0.9-0.5,1.3c-0.3,0.4-0.7,0.5-1,0c0,0,0.2-0.3,0.4-0.6c0.2-0.3,0.5-0.5,0.5-0.5
							c-0.5,0-0.5,0.3-0.5,0.5c0,0.1,0,0.2-0.2,0.3c-0.1,0-0.1,0-0.3,0c-0.1,0-0.2,0-0.6-0.3c-1.3-2.5,0.3-2.4,1.5-1.2l-2.2-2.7
							c0.2-0.4,0.8,0.2,1.4,0.1c-1.4-0.8-1.9-5.7-4.2-6.7l0.2-0.4c-3.9-6.4-6-9.1-9.2-14.3c-1,0.5-2-1.7-3.8-2.8
							c-2-4-3.8-8.8-6.7-13.4c-2.4-3-1.4-0.5-2.8-1.6c0.7-0.8-2.1-5.4-0.1-3.3c-3.5-5.5-4.5-7-9.4-13.6c0.1,1,0.5,1.9-0.1,1.7
							c-0.9-1.2-1.4-3.1-0.9-3.2l0.3,0.3c-6.1-7.1-8.5-19.8-14.1-25l0.3,0.3l-4.9-6c-1.7-3.1,1.7,1.4,0.9-1.1
							c-5.7-6.2-6.5-11.3-11-16.5c-0.1-6.1-9.8-15.8-11.8-22.9l-0.4,0.7c-1.5-1.2-0.8-2.1-1.4-3.3c-0.4,0.4,0.5,2-0.4,1.3l-1-1.5
							c-0.1-0.1-0.2-0.3-0.4-0.5c-0.2-0.3-0.5-0.7-0.7-1c0.4-0.3,0.8-0.5,1.3-0.7l0.3-0.2c0,0,0,0,0.1-0.1l0.3-0.2l0.5-0.3l2.1-1.2
							c2.9-1.6,5.8-3.2,8.7-4.8c5.9-3.2,11.8-6.3,17.5-9.5c5-2.9,0.8-4.9,8-7.3l-1.1,2.2c9.1-7.6,20.4-12.6,29.4-19.9
							c-0.4,0.6-0.2,1-1.2,1.6c2.6-0.5,7.6-4.7,7.3-5.4c1.6-0.9,0.7,0.4,1.9,0.1c2.4-0.8,4.5-4.3,6.1-4.1c0.3,0-0.4,0.6-0.8,0.9
							c1.1-1.2,6.3-3.8,4.5-3.9c3.9-1.8,6.7-4.8,10-6c1.2-2.2,6.6-3.4,6.2-5.3c0.7,1.7,7.2-2.8,9-4.9c-0.5,0.9,2.3-0.8,1.8,0.4
							c2.6-1.7,4.9-3.5,3.9-4c6-1.2,8.8-7.6,13-6.9c7.3-5.7,14.2-10.8,21-15.5c0.7,1.7-7.7,5-6.4,6.4c6.3-4.8,9.3-8.5,16.2-12.3
							c1.8-0.9-0.6,1.3-1,1.9c6.3-4.8,13-7.9,18.4-12.5c0.1,0.2-0.5,0.7-1,1.2c1.1-0.8,2.9-1.5,2.3-2.1l-1,0.9
							c-2.5,0.2,3.3-5,3.2-5.7c-0.7,3.2,6.2-3.2,4.6,1.3c0.7-0.6,1.5-1.5,1-1.9c1.2-0.6,1.8-0.5,0.9,0.7c4-3,2-2.8,5.8-5.2
							c0.2,0.3-0.5,1-0.6,1.6c1.5-1.9,3-3.7,6.4-5.4c-0.1,0.3,0.5,0.4-0.5,0.9c5.5-3.5,8.3-7.6,14.8-10.8c-0.9,2.6,2.4-0.8,3.5,0.3
							l3-2.4l-1.7,0.2c2.9-1.8,4.8-4.3,7.5-5.4l-1.8,1.8l5.2-3.6l-3.3,1.4c2.5-2.5-1.3-1.4,2.7-3.4c-0.7,0.6,2.9-1.8,4.8-1.9l0,0
							c1.2-1.3,2.3-2.6,4.6-3.6c0.8,0.1,0.4,1.7,1,1.7c0.7-1.9,6.5-4.5,7.6-6.7c-0.4,0.6,0,1.3,0.2,1.3l0.6-1.6
							c1.5-0.5,1.8-0.5,1.9,0.1c4.1-2.3-2.3-0.8,2.9-3.1c-0.3,0.3-0.1,0.3-0.8,0.9c5-2.6,8.8-6.3,13.4-8.5c2.1,0.5-3.6,2.7-1.5,2.8
							c6.1-4.1,12-9.6,18.3-13.1l-1.2,0.6c-0.3-2.3,5.1-1.9,7.6-4.7c-0.7,0.6-0.4,1.6-0.3,1.3c0.6-0.3,1.2-0.7,1.8-1l0.3-0.2
							l0.2-0.2c0.2-0.1,0.3-0.2,0.5-0.3c0.7-0.5,1.4-1.1,2.3-1.8c0.4,0.5,0.9,1,1.5,1.7c0.3,0.4,0.6,0.7,0.9,1.1
							c0.1,0.2,0.4,0.5,0.6,0.8c0.2,0.3,0.5,0.6,0.7,1l-0.9-0.5c1.1,2.7,3.7,6.7,5.1,9.5c0.9,0.5,1.8,2.1,1.9,0.7
							c2.3,9.8,10.9,14.8,13.1,23.5c-0.5-0.9-1.7-1.8-1.2-1.1l4.2,6c0.5-1,0-1.1-0.2-2.8c0.9,0.5,2.4,2,3.3,3.6
							c-2.2-2.5-1.3,0.8-1,2.3c0.1-0.3,0.6-0.1,0.8-0.3c0.6,4.1,1.9-0.4,3.7,4.6l-0.6,0c1.2,1.5,2.7,2.7,3.7,4.6
							c-0.5,1.3-1.5-1.5-2.3-1.2c1.6,2.5,4.7,3.9,5.2,6.7c-0.9-0.9-1.8-2.4-2.7-3.4c0.4,3.1,0.9,3.3,1.8,5.2l-0.1-0.2l2.1,4.6
							l-0.4-1.3c4.3,1.7,4.3,6.1,8.4,9.4c-4-3.2-1.3-0.2-2.5,0.1c0.4,1.3,1,3.1,0.5,2.8c2,1.5,1.4,3.7,4.3,5.8
							c-0.3,0.3,1.3,2.2,0.2,2.2c1.8,2.4,0.2-1,0.8-1c3.6,3.3,4.3,10.3,9.4,15.1c3.7,4.6,5.3,4.8,8.7,9.1c0.4,1.9-2-0.5-2-0.5
							c1,2.8,2.3,4.7,4.1,6.8c-0.6-0.3-0.5,0.3-0.5,1.3c1.2,1.9,2,0.5,3,3.3c-0.6-0.2-1.6-0.4-2.5-1.1c1.7,2.1,3.6,3.9,5.3,6
							c-0.2,1-1.7-0.9-2.6-1.5c1.8,2.5,4.6,6.4,6,6.7l-0.7-1.9c0.6,0.9-0.5,1-1.1,0.4c-2.1-1.8-1.6-3.4-1.4-3.7l1.2,1.5
							c0.9-2.9-4.3-6.5-6.2-9.8l2.3,0.5l-3.2-2.7c-0.1-0.9,0.4-1.9,1.6-0.4c-0.7-2.8-1.8-1.8-2.2-4.3c0-0.3,0.1-0.2,0.3-0.1
							l-1.8-2.1c0.6,0.3,0.8-1,1.4,0.6c-1.7-4.7-5.1-6.1-5-8.3l0.3,0.3c-4-5.5-1.4,0.1-5.2-3.5l0.8-4.5l-1.4,0.1
							c-0.3-0.6-1-1.9-0.4-1.9c-2.1-1.8-0.2,0.7-1.7-0.2c-0.8-3.5-5.2-7.7-4-9.3c-1.4-0.6,1.1,3.1-1.4,0.4c1.3-2-2.5-3.4-3.2-6.5
							c1.4,0.3,2.4,3,1.7-0.1c-2.5-0.6-2.8-5.3-4.4-7.4c-1.3,0.6-3.4-4.5-6.1-8c0.6,0-3.6-7.4-5.2-11.2l0.3,0
							c-1.7,0.1-3.6-3.6-5.4-6.1c0.8-0.4,1.4-0.1,2.6,1.1l-1.5-2.4c-0.8-0.3-1.4-1-2.5-2.5l1.3,0c-2-3.2-5.1-5.9-7-10.5
							c-1,0.3-0.4,4.8-3.7,0.7c0.4-0.5,1.1-1.1,2-0.1c-0.3-0.3-1.2-1.1-1.5-2l1.9,1.3c-0.8-2.1-1.3-0.6-2.1-2.2
							c0.7-0.4-0.2-1.4,0.5-1.5c0.3,0.4,0.5,1.5,1.1,1.9c-0.9-1.8-1.8-4.1-1.7-5.1c-0.3,0.4-0.9,0.5-1.8-0.7c-2-3.2,0.1-1.6-0.7-3.7
							c-0.9-0.5-1.7-2.9-2.8-2.3c-0.6-1-0.2-1.4-0.2-2c-1.5-1.4-4.9-7.8-4.8-5.3l0.2,0.5c-0.1-0.1-0.1-0.2-0.2-0.2c0,0,0,0,0,0l0,0
							c-1.4-1.6-2.5-3.3-3.6-5.3c-1.2-2.2-2.5-4.6-3.8-7.1c-1.2,0.7-2.5,1.4-3.8,2.1c-0.6,0.4-1.3,0.8-1.9,1.2L298,3.9l-0.4,0.3
							l-0.3,0.3L297,4.1c-3,2.4-7.1,4.7-9,6.9c-1,0.6-2.6,0.8-2.5,0.1c-2.3,1.8-2.4,2.3-6.3,4c2.1-2.1-1.2,0,2.3-2
							c-3.4,1.7-4.5,1.6-7.4,4.7c0.6-1.6-3.1,0.4-4.5,1.6l2.6-0.8c-1.6,1.2-3.2,2.1-4.8,2.9l0.1-1.6c-7.5,2.7-10.4,9.8-16.9,10.6
							c-1.3,1.9,3.9-1.7,2.9,0.2c-3.1,1.7-7.3,2.1-8.3,2.7c-4.5,2-2.9,4.1-7.5,6.4c0.8,0.1,2,0.8-1,3.2c-3.1,1.7-4.8,0.6-3.1-0.9
							c0.7-0.5,1.1-0.6,1.2-0.4c0.9-0.8,2.1-1.7,0.6-1.4l-0.1,0.6c-1.8,0.5-5.9,3.2-5.3,1.9c-2.1,1.8-0.6,1.3,1.3,0.4
							c-4.3,1.8-6.1,3.8-10.4,5.9c0.8-0.2,1.7-0.1,1,0.3c-6.2,3.2-2.1,2.4-6,5c-2.6,0.8-0.1-2-3.8,1c-2.7,1.1-1.2-0.7-0.4-1.7
							c-3.2,3.1-7.1,3.7-9.3,4.9l1.7-1.5c-1,0.9-2,1.5-2.9,2.1l1.6,0.1c-1.2,0.6-2.2,1.2-2.4,0.8c-0.8,1.3,1.7,0.8-0.1,2.9
							c-1.8,0.5-4.3,3.3-5.5,2.6c5-2.6-1.2-0.7,2.7-3.4c-0.7,0.6-1.6,1.2-2.9,1.8c-0.2,0,0-0.3,0.3-0.6c-5.1,1.9-1.3,2.5-6,5.4
							c0.2-1-1.8-0.5-2.5,0.1c1.9-1.2,1.5,0.4,0.1,2c-3.3,1.4-3.1,2.4-4.7,3.3l1.9-0.9c-0.2,1-1.8,1.8-3.8,3.3
							c-0.5-0.4,1.7-1.5,0.8-1.3c-1.7,2.5-6,2.2-8.8,4.9c-1.8,0.5-0.9-1-2.3-0.5c-3.2,3.1-4.5,1.6-7.9,4.7c1.6,0.1,1.7-0.2-0.5,2.3
							l5.9-4.5l-3.3,3.7c1.9-1.2,3.7-3,4.9-3.6c-1.5,1.9-1.4,1.5-0.1,1.6c-3.4,0.4-4.7,3.9-8.2,5l-1.2-2.1c-5.1,1.9-7.4,6-13.6,9.2
							l2.1-0.8c-0.3,1.3-3.6,2.4-5.3,3.9c-0.2-0.8-1.6-0.3-2.7-0.2c0.4,0.4-4.3,2.6-4,4.3l-3.2,0.8c-5,2.6-4.2,5.3-8.9,7.9
							c0.9-1.6-1.4-0.8,1.3-3.2c-1.5,0.9-3,1.7-2.7,2.2c-1.2,0.1-3.7,3.5-5.5,3.8c-0.5,0.7-0.2,1.5-2,2.5c-0.3,0-0.2-0.3-0.2-0.3
							c0.2,0.3-2.4,2.1-0.4,1.9c-6,0.8-13,8.3-18.2,9.1c-3.2,2.3-7,5-10,6.9c0.1-0.3-0.2-0.3,0.4-0.6c-4.5,2-1.4,3.5-6.5,5.8
							c-3.1,0.4,2.1-2.2,0.4-1.6c-2-1.8-5.5,3.9-9.5,4.6l0.7-0.6c-2.9,0.8-5.4,4.5-9.5,6.9c0,0,0.1-0.3-0.2-0.3
							c-2,2.8-6.9,6.4-10.6,9.1c0.7-1.6,1.5-1.5,0.2-2c-1.6,1.2,1.4,1.1-1.9,3.5c-1.4,0.2-4.1,1.3-5,0.6l3.2-2.1
							c-2.4-0.2-4.2,2.6-6,3.5l-0.1-0.7c-4.8,3.3-4.1,4.6-9.5,7.9l0.8,0.1c-2.1,3.1-2.9,0.8-5.2,3.6l-1.7-0.8
							c-1.7,1.5-5.9,5.5-9.2,7.9c1.3-2.2,5-5.2,7.2-7.4c-1.9,1.2-6.4,4.1-7,5.4c0.7-0.6,1.4-1.5,2.3-1.8c-1.7,2.5-4.4,4.9-8.2,7.3
							c-0.3-1-1.5-0.7-3.1,0c-1.1,0.6-2.5,1.4-3.9,2.2c-1.4,0.9-3,1.8-4.4,2.6c1.7,3,3.1,5.9,3.3,7.9l0.7,1l0.5,0.6
							c0.3,0.4,0.6,0.8,0.9,1.2c0.6,0.8,1.1,1.6,1.6,2.5c1,1.7,2,3.4,2.9,5.3c1.9,3.6,3.8,7.4,6.2,11.3c0.4-4,1.4,2.3,3.2,0.5
							c1.2,1.8,1.6,2.5,1.6,2.7l2.1,6.3c0.2,1.7-1.5-1.5-1.9-1c2.3,4.1,0.1,2.2,1.2,5.2c0.4-1,1.9,0.7,3,3.2l-1-3.8
							c4.5,4.9,1.2,5.9,5.7,10.9l-1.7-1.4c2.1,2.7,6.5,10.7,9.9,12.5c0.1,0.7-0.1,1.7-1,0.5c3.9,7.1,11.1,14.4,13.3,20.4l-0.8-0.2
							c0.9,1.2,2.3,1.7,2.8,3.6c-0.3,0-0.8-0.2-0.5,0.4c0.6,0.6,3,2.9,3.7,4.8l-1.5-1.1c3.4,7.2,7.7,9.5,11.5,15
							c-1.5,0.9,1.2,6.5,2.6,9.3l-0.3,0c4.6,8,9.3,12.6,14.3,19.6c0.3,1.5,1.1,3.3,2.1,5.4c0.1,0.3,0.3,0.5,0.4,0.8
							c0.2,0.4,0.5,0.8,0.7,1.3c0.5,0.9,1.1,1.9,1.6,2.8c1.1,1.9,2.3,3.9,3.5,6c1.7-1,3.4-2.1,5.1-3.1c1.7-1,3.3-2,5-3
							c1.9-1.1,3.8-2.1,5.6-3c-1.3,0.4-0.5-1.3,0.6-2.2c1.9-0.8,4-4,4.6-2.4l-0.6,0.4c2.1,0.5,5.4-2,8.1-3.6l-0.7-2.1
							c8.7-1.8,18-12.6,23.4-12.7c1.4-1.5,3.6-2.8,5-4.3l0.5,1c4.9-2.7,7.4-4.1,13.1-8l-0.8,1.4c3.4-2,2.5-5.4,5.5-7.3l1.8,0.9
							c5.8-3.6,12.4-6,17.3-10.9c0,0.3,0.1,0.8-0.8,1.4c2.7-1.7,11.1-5.6,8.9-6.9c0.9,1.2,6-3.6,8.8-6.1l0.1,1.2
							c1.9-2.9,1.8-3.2,5.2-5.9c0.9-0.4,1.2,0.3-0.1,0.8c3.2-1.3,1.7-2.3,5.5-4l-0.9,1.4c3-1.8,2.6-2,3.8-3.7
							c1.6-1.6,5.8-3.3,6.8-2.7c0.1-0.8,1.3-2.5,3.2-3.3c0.4,0.2-0.1,0.8-0.3,1.1c5.4-2.5,6.7-5.7,10.8-7c0.3,0.3,0.6,0.3,0.9,0.2
							c-4,2.5-7.2,4.4-7,4.1c0.5,0.9,3.8-1,2,1.8c2.2-2.3,5.7-6.4,9.1-8c0.2,0,0.4,0,0.6,0l-0.3,0.3c0.8-0.4,1.4-0.8,1.9-1.4
							c1.1-0.5,1.8-0.8,2.8-1.4c0.8,0.5,3.9-1.9,5.5-2.9c-0.7-0.9,1.5-2-1-1.6c0.3-0.1-0.2,0.3-1.3,1c-0.2,0.2-0.5,0.4-0.6,0.5
							c0,0,0-0.1,0.1-0.2c-1,0.7-2.4,1.5-3.9,2.5c1-1.3,2-2.5,4.1-3.1c0.4-1.1,0.9-2.3,1.3-2.9c3,0,7.7-1.9,8.8-1.5
							c4.6-3.6,11.3-7.5,13.2-11.2c1.2-1.1,1.9-0.5,2.6-0.5c-0.7,0.7-1.7,1.2-1.9,1.8c2.5-2.2,8.1-5.3,8-7c3.9-1.6-1.2,2.4,3.4-0.8
							l-0.4,0.8c10.7-3.9,13.4-12.8,25.5-16.8c-0.8,0.3-1.2,0.4-1.5,0.3c12.7-6.3,24-16.4,36.9-22c3.6-1.7,3.4-2.8,5.1-4.6l1.4,0.6
							l2.8-3.4c4.4-4,10.2-2.8,15.4-8.4l-1.2-0.2c2.3-1.3,6.9-4.9,7-3.8c0.2-0.3,0.3-1.2,1.4-1.4l0.4,0.5l5-4.4
							c4.5-2.3,0.7,2.5,7-1.3c2.2-1.7,5.7-5.7,4.6-5.5c-1,0.6-2.6,1.2-3,0.7l2-1.6c-0.6-1.8,0-4.5-5.9-2.3l-3,3.2l-1.7,0l3-2
							c-2.2,0.4-2.9,1.7-3.9,2.9c-0.5-0.2-1.2-0.2-2.1,0.1l-2.6,3.7c-0.8-0.3,0.8-2.2-1.8-1.1c-1.2,1.7,2.5,0.4,0,2.6
							c-2.2,0.4-2-0.5-3.7,1.4c-0.5-0.2-0.3-0.8,0.4-1.4c-1.5,1.6-4.7,3.2-5.1,4.6c-2.4,0.2-6,4.1-6.8,2.5c-0.3,0.7-2.5,3.2-4.1,4.3
							c1.9-3.7-6.3,3.8-6.7,1.4c-1.3,3-7.7,5.8-11.2,9.2c0.1-0.3,0.4-0.8,0.8-0.9c-2.3,1.3-3.3,1.2-4.9,1.8c0.5,1.5-2.8,4-4.2,6
							c-3.6,0.4,0.7-2.6-0.9-3.3c0.8,1-4.1,4.1-2.6,4.4c-2.6,0.5-2.1,0.8-3.8,0.3c0.7,1.9-1.8,1.5-2.9,3.6c-3.6,1.1-1.8-1.1-4.8,1.5
							C311.4,191.4,314.1,188.9,314.1,188.9z M235.9,241.7C235.9,241.7,235.9,241.7,235.9,241.7c0.7-0.5,1.2-0.9,1.6-1.1
							C237.1,240.8,236.7,241.1,235.9,241.7z M229.2,245.9c0.8-0.5,1.9-1.1,2.9-1.8c0.4,0.2,0.4,0.7-0.3,1.1
							C232,244.8,230.3,245.6,229.2,245.9z M247.5,243.7c-1,0.8-1.5,0.8-1.7,0.7c0.5-0.3,1.1-0.7,1.8-1.3c0-0.1,0-0.1,0.1-0.2
							C247.6,243.2,247.6,243.4,247.5,243.7z"/>
						<path id="XMLID_98_" class="st1" d="M248.6,241.2c0.1-0.1,0.2-0.2,0.4-0.3c-0.3,0.1-0.5,0.1-0.8,0.2c-0.1,0.2-0.1,0.4-0.2,0.5
							C248.3,241.5,248.5,241.3,248.6,241.2z"/>
						<path id="XMLID_97_" class="st1" d="M312,12.1L312,12c0,0.1,0.1,0.3,0,0.4C312,12.2,312,12.2,312,12.1z"/>
						<polygon id="XMLID_96_" class="st1" points="135.2,302 135.4,302.2 135.8,301.6 						"/>
						<path id="XMLID_95_" class="st1" d="M331.3,51.5c0,0.1,0,0.3,0,0.6C331.4,52,331.3,51.8,331.3,51.5z"/>
						<path id="XMLID_94_" class="st1" d="M340.8,67.7l1,2.5C341.4,69.1,341.1,68.3,340.8,67.7z"/>
						<path id="XMLID_93_" class="st1" d="M347.8,80.4c0.3,0.1,0.4,0,0.6,0c0,0,0,0,0,0L347.8,80.4z"/>
						<path id="XMLID_92_" class="st1" d="M186.9,80.4c-0.2,0.1-0.3,0.2-0.4,0.3C185.4,81.6,186.1,81.1,186.9,80.4z"/>
						<path id="XMLID_91_" class="st1" d="M243.7,41.9c-0.5,0.6-1,1.1-1.6,1.6C243.1,42.9,244,42.4,243.7,41.9z"/>
						<path id="XMLID_90_" class="st1" d="M122.6,122.1C122.6,122,122.6,122.1,122.6,122.1c-0.1,0.1-0.3,0.1-0.4,0.2L122.6,122.1z"
							/>
						<path id="XMLID_89_" class="st1" d="M239.4,45.2c1.2-0.5,2-1,2.7-1.7C241.2,44,240.1,44.5,239.4,45.2z"/>
						<path id="XMLID_88_" class="st1" d="M379.9,134.4l0.3,0.6c0.1,0,0.1,0,0.2,0L379.9,134.4z"/>
						<path id="XMLID_87_" class="st1" d="M380.4,135l0.5,0.6C380.7,135.3,380.5,135.1,380.4,135z"/>
						<path id="XMLID_86_" class="st1" d="M382,136.9l-1.1-1.2C381.2,136.1,381.5,136.7,382,136.9z"/>
						<path id="XMLID_85_" class="st1" d="M370.4,117.7l-0.5,0C370.1,117.8,370.2,117.8,370.4,117.7z"/>
						<path id="XMLID_84_" class="st1" d="M367.3,112.8c0.6,1.2,1.1,3.4,2.3,5l0.4,0C368.9,117.3,368.5,113.6,367.3,112.8z"/>
						<path id="XMLID_83_" class="st1" d="M359,89.4l2.2,4.3c-0.1-1-0.2-2.2,1.1-0.4C360.3,87.4,362.2,94.9,359,89.4z"/>
						<path id="XMLID_82_" class="st1" d="M351.7,76.1c1.5,2.1,0.5-0.4,0.8-0.4C351.3,74.5,351,74.2,351.7,76.1z"/>
						<path id="XMLID_81_" class="st1" d="M284.4,11.4l-0.3-1C282.5,11.6,284.3,10.8,284.4,11.4z"/>
						<polygon id="XMLID_80_" class="st1" points="269.5,27 271.5,26.5 271.8,25.2 						"/>
						<polygon id="XMLID_79_" class="st1" points="255.1,27.4 255.8,26.8 253.1,28.9 						"/>
						<path id="XMLID_78_" class="st1" d="M99.3,125l1.2,0.7C101.6,124.8,101.1,123.4,99.3,125z"/>
						<path id="XMLID_77_" class="st1" d="M32.7,168c-1.1-0.1-3.2,0.8-4,2C30.2,169.2,32,168.7,32.7,168z"/>
						<polygon id="XMLID_76_" class="st1" points="122.7,321.7 121.6,322.9 123.9,321 						"/>
					</g>
				</g>
			</g>
		</g>
	</g>
</g>
<g id="XMLID_1_">
</g>
<g id="XMLID_2_">
</g>
<g id="XMLID_3_">
</g>
<g id="XMLID_4_">
</g>
<g id="XMLID_5_">
</g>
<g id="XMLID_6_">
</g>
<g id="XMLID_8_">
</g>
<g id="XMLID_9_">
</g>
<g id="XMLID_10_">
</g>
<g id="XMLID_11_">
</g>
<g id="XMLID_12_">
</g>
<g id="XMLID_13_">
</g>
<g id="XMLID_14_">
</g>
<g id="XMLID_15_">
</g>
<g id="XMLID_16_">
</g>
</svg>
