<?xml version="1.0" encoding="utf-8"?>
<!-- Generator: Adobe Illustrator 19.0.0, SVG Export Plug-In . SVG Version: 6.00 Build 0)  -->
<svg version="1.1" id="圖層_1" xmlns="http://www.w3.org/2000/svg" xmlns:xlink="http://www.w3.org/1999/xlink" x="0px" y="0px"
	 viewBox="0 0 300.5 153" style="enable-background:new 0 0 300.5 153;" xml:space="preserve">
<style type="text/css">
	.st0{fill:none;stroke:#3FA9F5;stroke-width:12;stroke-miterlimit:10;}
</style>
<g id="XMLID_266_">
	<path id="XMLID_268_" class="st0" d="M274.8,147H25.7C14.9,147,6,138.1,6,127.3L6,25.7C6,14.9,14.9,6,25.7,6h249.1
		c10.8,0,19.7,8.9,19.7,19.7v101.6C294.5,138.1,285.6,147,274.8,147z"/>
	<g id="XMLID_267_">
		<path id="XMLID_2_" d="M100.9,50.5H89.4c-2.1,10.2-4.3,18-6.4,23.4h16v39.8h-3.6v-4.5H84.7v6.3H81V78.9c-1.8,3.8-3.8,7.1-6,10.1
			l-2.5-2.8c6.1-8.2,10.6-20.1,13.3-35.7H73.5v-3.3h27.4V50.5z M95.4,105.9V77.3H84.6v28.6H95.4z M150.4,115.4h-36.6v5.7h-3.6V76.6
			c-2.3,2.4-4.6,4.6-7,6.4l-2.3-2.5c9.6-8.2,16.3-16.9,20.3-26.1h-13.3v11h-3.6V51.1h18.2c0.8-2,1.8-4.9,2.9-8.7l3.2,1
			c-0.6,2.7-1.3,5.3-2.2,7.7H148v14.3h-3.6v-11h-19.3c-2.8,6.4-6.7,12.6-11.8,18.6h17.8c-0.7-2.5-1.9-5.3-3.4-8.5l3.2-1.2
			c2.1,4.9,3.4,8.1,3.8,9.7h14.4v3.3h-15.8v9.3h14.5v3.3h-14.5v9.6h14.5v3.3h-14.5v10.2h17.1V115.4z M129.7,85.6v-9.3h-15.9v9.3
			H129.7z M129.7,98.6v-9.6h-15.9v9.6H129.7z M129.7,112.1v-10.2h-15.9v10.2H129.7z"/>
		<path id="XMLID_9_" d="M190.2,55.5h-27.8v-3.3h12.3c-0.8-3.2-2-6.1-3.6-8.7l3.6-1.4c1.7,2.8,3,6.2,4,10.2h11.4V55.5z M187.1,68.5
			h-22v-3.3h22V68.5z M187.1,81.8h-22v-3.3h22V81.8z M186.1,119.1h-3.6v-5.2h-12.9v6.9H166v-29h20V119.1z M182.5,110.6V95.2h-12.9
			v15.4H182.5z M199.4,92c-1.9,8.4-4.4,15.5-7.4,21.4l-3.2-1.4c3.2-6.3,5.5-13.3,7.1-21L199.4,92z M236.3,45.2
			c-0.2,6.5-0.5,12.8-1,18.8c-0.5,6.1-0.9,9.7-1.3,10.9c-0.4,1.2-1.1,2.2-2.1,3c-1,0.9-2.3,1.4-3.8,1.8c-1.5,0.3-3.4,0.5-5.5,0.5
			l-4.6-0.1l-1-3.5l5.8,0.1c4.1,0,6.6-0.8,7.6-2.4s1.8-10.2,2.3-25.7h-13c-0.7,18.2-9.8,29.8-27.5,34.7l-2.1-2.9
			c8.3-2.5,14.5-6.1,18.6-10.7c-3.1-3.5-6.8-6.7-11.1-9.7l2.3-2.5c3.9,2.5,7.5,5.7,11.1,9.3c3.1-4.6,4.9-10.7,5.2-18.2h-23.7v-3.3
			H236.3z M227.8,103.3c-0.3,5.4-0.8,9.1-1.4,11.2s-1.7,3.4-2.9,4.1c-1.3,0.7-3.9,1-8,1c-4.3,0-7.2-0.5-8.5-1.5c-1.3-1-2-2.9-2-5.6
			V90.7h3.6v22.1c0,1.2,0.5,2.1,1.5,2.6s3.2,0.8,6.6,0.8c2.9,0,4.8-0.5,5.7-1.6s1.6-5.1,2.1-12L227.8,103.3z M222.2,93.6l-2.6,2.4
			c-2.8-4.1-6.2-8.2-10.1-12.2l2.3-2.4C216.2,85.5,219.7,89.6,222.2,93.6z M240.1,110.8l-3.3,1.5c-1.7-6.8-4.2-13.6-7.5-20.4
			l3.2-1.5C235.7,96.8,238.2,103.6,240.1,110.8z"/>
	</g>
</g>
<g id="XMLID_1_">
</g>
<g id="XMLID_20_">
</g>
<g id="XMLID_21_">
</g>
<g id="XMLID_22_">
</g>
<g id="XMLID_23_">
</g>
<g id="XMLID_24_">
</g>
<g id="XMLID_25_">
</g>
<g id="XMLID_26_">
</g>
<g id="XMLID_27_">
</g>
<g id="XMLID_28_">
</g>
<g id="XMLID_29_">
</g>
<g id="XMLID_30_">
</g>
<g id="XMLID_31_">
</g>
<g id="XMLID_32_">
</g>
<g id="XMLID_33_">
</g>
</svg>
