<?xml version="1.0" encoding="utf-8"?>
<!-- Generator: Adobe Illustrator 19.0.0, SVG Export Plug-In . SVG Version: 6.00 Build 0)  -->
<svg version="1.1" id="圖層_1" xmlns="http://www.w3.org/2000/svg" xmlns:xlink="http://www.w3.org/1999/xlink" x="0px" y="0px"
	 viewBox="0 0 424.4 427.2" style="enable-background:new 0 0 424.4 427.2;" xml:space="preserve">
<style type="text/css">
	.st0{fill:#FFFFFF;}
	.st1{stroke:#000000;stroke-miterlimit:10;}
	.st2{fill:#FFFFFF;stroke:#FFFFFF;stroke-miterlimit:10;}
</style>
<circle id="XMLID_4_" class="st0" cx="212.2" cy="212.2" r="212.2"/>
<g id="XMLID_21_">
	<path id="XMLID_5_" class="st1" d="M193.1,225.8c2.3-9.6,41.8,0.5,41.8,0.5s5.6,2.6,7.3,3.2c2.9,1.1,5.7,2.5,8.3,4.1
		c5.3,3.2,10.1,7.2,14.5,11.6c4.8,4.7,9,10,12,16c5.8,11.5,8.2,23.1,9.9,35.8c0.7,5.6,1.4,11.2,2,16.8c4,38.3,9,97.8,9,97.8
		c-8.4,7-71,18.2-94.5,14"/>
	<path id="XMLID_3_" class="st1" d="M193.8,226.4c-20.7,5.8-34.7,15.6-45.3,35.5c-8.7,16.3-15,34.5-16.6,52.7
		c-0.4,4.6-2.1,12.3-2.4,16.9c-1.9,25.7-5.3,48.1-8,74.9c-0.1,0.5-2.7-1.2,3.7,1.7c17.8,8.1,37.6,11.8,56.7,15.3
		c6.2,1.1,15.1,2.2,21.5,2.3"/>
	<path id="XMLID_2_" class="st2" d="M217.8,209.1c8.4,1.8,19.8,6.9,16.4,17.5c-2.1,6.5-9.3,8.4-14.9,10.7c0,0,0.3,11.1,0.7,15.4
		c0.7,8.8,1.5,17.6,2.2,26.4c0.7,8.8,1.5,17.5,2.2,26.3c0.7,8.8,1.5,17.5,2.2,26.3c0.1,0.9,0.2,1.8,0.2,2.7c0.3,2,0.6,3.9,0.8,5.9
		c0.5,4.9,0.8,9.8,0.9,14.6c0.1,6.7-0.1,13.4-0.8,20c-0.8,7-2.1,13.9-3.8,20.7c-1.2,5-2.6,10.1-4.9,14.8c-1,2.1-2.8,5.6-5.5,5.9
		c-2.8,0.2-4.6-3.3-5.6-5.4c-1.8-3.6-2.9-7.6-4-11.5c-1.2-4.7-2.1-9.5-2.9-14.3c-0.8-4.8-1.4-9.6-1.9-14.5
		c-0.4-3.9-0.7-7.9-0.8-11.8c0-2.1,0-4.1,0.1-6.2c0.1-2.5,0.3-5,0.5-7.5c0.2-3.3,0.5-6.7,0.8-10c0.3-3.8,0.6-7.7,0.9-11.5
		c0.3-4,0.7-8.1,1-12.1c0.3-3.9,0.6-7.7,1-11.6c0.3-3.4,0.6-6.8,0.9-10.2c0.2-2.6,0.4-5.2,0.7-7.8c0.1-1.5,0.3-2.9,0.4-4.4
		c0-0.2,0-0.4,0.1-0.6c0.8-10.9,1.6-22,2.4-33c0.2-2.4,0.4-4.9,0.5-7.3c-2.8-0.2-6-1.8-8.5-3.2c-3-1.7-5.6-4.6-6.2-8
		c-0.9-5.5,2.8-11.4,7.5-14c3.1-1.7,6.7-2.3,10.2-2.4C213.1,208.9,215.4,208.9,217.8,209.1"/>
	<path id="XMLID_9_" class="st1" d="M265,53.5c3.5,3.6,7.1,7.5,8.8,12.3c2,5.8-0.4,10.5-2.2,16c-0.2,0.5-1.8,5.7,0.2,4.3
		c4.7-3,9.3-6.6,14.6-8.5c1.4-0.5,2.8-1.2,4.3-1.6c0.9-0.3,4.4-0.8,2.5,0.9c-5.1,4.5-8.7,10.2-11.6,16.3c-1.8,3.8-3.6,7.7-5.1,11.6
		c-1,2.7-2.3,4.8-1.2,7.6c1.4,3.7,3.1,7.4,4.2,11.3c1.2,4.1,1.7,8.5,1.9,12.8c0.6,11.7-1.9,23.5-6.6,34.2
		c-11.5,26-36.8,45.2-65.9,44.3"/>
	<path id="XMLID_8_" class="st1" d="M265,53.5l-2.1-2.6l-9.8,6.2c0,0-12.6,9.5-9.9,1.3c2.7-8.2,0.6-12.7,0.3-14.7s-4.2-8.5-5-9.8
		c-0.8-1.3-8.5-10.2-9.3-11c-0.8-0.8-1.6-1.2-1.5,1.2s0.6,6.7-3.5,12.7c-4.2,6-10.6,11.5-16.7,12s-10-0.7-10-3c0-2.3-0.5-5,4.3-10
		s6.6-6,0.8-5s-12.4,4.4-17.2,11.3s-6.4,14.1-8.4,18.6c-1.9,4.5-4.3,10.5-8.8,3.5s2.6-16.7,2.7-17.3c0.2-0.7,1.4-4.4-1.9-2
		c-3.4,2.5-21.7,17.3-16.2,30.8c0.9,2.2,3.1,6.3,2.6,8.8c-0.6,2.6-4.5-1.2-5.7-2c-1.8-1.1-3.6-2.5-5.5-3.5c-2.3-1.1-4.8-1.9-7.2-2.6
		c-0.8-0.2-4.5-1.1-2.6,0.6c3.9,3.5,6.6,7.2,9.6,13c3.1,5.8,8,19.1,8.2,19.7c0.7,2.2-2.1,6-2.9,7.9c-5.3,13.5-4.6,30-0.6,43.7
		c3.9,13.4,11.5,25.7,21.8,35.1c10.5,9.7,23.7,16.3,37.8,18.5c0.2,0,0.4,0.1,0.7,0.1"/>
	<path id="XMLID_6_" class="st2" d="M217.1,135.9c3.5-12.1,17.3-17.1,28.8-16.9c2.9,0,5.8,0.4,8.6,1.2c6.3,1.7,12.6,4.5,16.7,9.8
		c4,5.2,5,12.4,2.7,18.6c-4.8,13.3-20.9,16.4-33.3,15.6c-8.4-0.5-18.7-3-23.1-11c-1-1.8-2.1-9.8-2.1-9.8s0-0.5-2.1-0.2
		c-2.3,0.3-2.1-0.2-2.1-0.2s-3.3,8.4-4.6,10.4c-5.9,9.5-18.9,12.6-29.5,11.7c-9.8-0.8-19.9-5.6-23.8-15.2
		c-3.8-9.3-0.7-20.7,7.8-26.2c5.1-3.4,11.4-4.2,17.4-4.1c6.2,0.1,12.8,0.7,18.6,3c4.8,1.9,9.4,5.5,11.2,10.5
		c0.9,2.3,2.6,7.3,2.6,7.3l4.2-0.2C215.3,140.1,216.8,137,217.1,135.9z"/>
</g>
<g id="XMLID_22_">
</g>
<g id="XMLID_23_">
</g>
<g id="XMLID_24_">
</g>
<g id="XMLID_25_">
</g>
<g id="XMLID_26_">
</g>
<g id="XMLID_27_">
</g>
<g id="XMLID_28_">
</g>
<g id="XMLID_29_">
</g>
<g id="XMLID_30_">
</g>
<g id="XMLID_31_">
</g>
<g id="XMLID_32_">
</g>
<g id="XMLID_33_">
</g>
<g id="XMLID_34_">
</g>
<g id="XMLID_35_">
</g>
<g id="XMLID_36_">
</g>
</svg>
