<?xml version="1.0" encoding="utf-8"?>
<!-- Generator: Adobe Illustrator 19.0.0, SVG Export Plug-In . SVG Version: 6.00 Build 0)  -->
<svg version="1.1" id="圖層_1" xmlns="http://www.w3.org/2000/svg" xmlns:xlink="http://www.w3.org/1999/xlink" x="0px" y="0px"
	 viewBox="0 0 300.5 153" style="enable-background:new 0 0 300.5 153;" xml:space="preserve">
<style type="text/css">
	.st0{fill:none;stroke:#3FA9F5;stroke-width:12;stroke-miterlimit:10;}
</style>
<g id="XMLID_40_">
	<path id="XMLID_42_" class="st0" d="M274.8,147H25.7C14.9,147,6,138.1,6,127.3V25.7C6,14.9,14.9,6,25.7,6h249.1
		c10.8,0,19.7,8.9,19.7,19.7v101.6C294.5,138.1,285.6,147,274.8,147z"/>
	<g id="XMLID_41_">
		<path id="XMLID_2_" d="M91.1,44c-0.8,3.7-2,7.9-3.4,12.5l-2.2,6.4v57.9h-3.6V71.2c-2.1,4.3-4.6,8.4-7.5,12.3l-2.2-2.7
			c6.8-9.7,12-22.4,15.4-38.1L91.1,44z M97.4,113.9h-3.6V56.3h3.6V113.9z M150.9,78.9l-1.9,3.3c-9.6-2.8-17.2-6-22.6-9.4
			c-5.6,3.6-13.6,6.8-23.8,9.5l-1.6-3.2c9.7-2.5,17.2-5.3,22.5-8.5c-3.7-2.7-6.9-5.9-9.7-9.7l3-1.4c2.7,3.5,5.9,6.6,9.7,9.2
			c5.5-3.8,9.9-8.9,13.2-15.1h-25.2c-3.5,4.4-7,8.1-10.4,11l-2.9-2.1c7.1-6,12.7-12.7,16.8-20.1l3.5,0.9c-1,2-2.5,4.3-4.4,7h33.2
			v3.4h-6.8c-3.6,7.1-8.3,12.7-13.9,17C135.4,74.3,142.6,77.1,150.9,78.9z M131.4,82.5c-7,5.8-16.3,10.2-27.9,13l-1.8-2.9
			c11.1-2.5,20-6.6,26.8-12.3L131.4,82.5z M141.3,89.4c-8.9,8.7-20.9,14.8-36,18.2l-1.9-3.3c15.2-3,26.9-8.7,35.1-17L141.3,89.4z
			 M150.1,97.1c-10.8,13.6-25.6,21.7-44.6,24.2l-1.9-3.1c19.7-3.1,34.1-10.7,43.2-22.9L150.1,97.1z"/>
		<path id="XMLID_9_" d="M197.6,101.3c-10.5,6.1-20.5,11.2-30.1,15.4l-2-3.4c0.9-1,1.4-2.2,1.4-3.7V74.9h21.3V49.5h-25.2v-3.3h28.8
			v32h-21.3v33.3c6.9-2.8,15.6-7.3,26-13.4L197.6,101.3z M240.5,118.8l-2.2,2.9c-9.6-4.8-17.2-10.2-22.5-16.3
			c-6.3,6.7-14.8,12.2-25.5,16.4l-1.9-3.1c10.5-3.9,18.9-9.2,25.2-16c-4.9-6.3-8.3-14-10.2-22.9l3.4-1.1c1.4,8,4.4,15.1,9.1,21.2
			c6.5-8.4,10.1-21.1,10.7-38.2h-18.7c-3.3,9.5-7.2,17.2-11.6,23.2l-2.9-2.2c8.1-11,13.2-24.4,15.4-40.2l3.7,0.8c-0.8,5-2,10-3.5,15
			H240v3.3h-9.9c-0.8,18.1-4.8,31.8-12.1,41.1C223.1,108.4,230.6,113.7,240.5,118.8z"/>
	</g>
</g>
<g id="XMLID_1_">
</g>
<g id="XMLID_12_">
</g>
<g id="XMLID_13_">
</g>
<g id="XMLID_14_">
</g>
<g id="XMLID_15_">
</g>
<g id="XMLID_16_">
</g>
<g id="XMLID_17_">
</g>
<g id="XMLID_18_">
</g>
<g id="XMLID_19_">
</g>
<g id="XMLID_20_">
</g>
<g id="XMLID_21_">
</g>
<g id="XMLID_22_">
</g>
<g id="XMLID_23_">
</g>
<g id="XMLID_24_">
</g>
<g id="XMLID_25_">
</g>
</svg>
