<?xml version="1.0" encoding="utf-8"?>
<!-- Generator: Adobe Illustrator 19.0.0, SVG Export Plug-In . SVG Version: 6.00 Build 0)  -->
<svg version="1.1" id="圖層_1" xmlns="http://www.w3.org/2000/svg" xmlns:xlink="http://www.w3.org/1999/xlink" x="0px" y="0px"
	 viewBox="0 0 300 99.2" style="enable-background:new 0 0 300 99.2;" xml:space="preserve">
<style type="text/css">
	.st0{fill:#68BEC3;}
	.st1{fill:none;}
	.st2{fill:#32545F;}
</style>
<g id="XMLID_13_">
	<g id="XMLID_79_">
		<path id="XMLID_10_" class="st0" d="M143.4,2.8c-11.3-0.3-22.6,0-33.9-0.2c-2.4,0-5.1,0-6.8,1.8c-1.8,1.8-1.8,4.6-1.7,7.1
			c0.3,7.3,0.7,14.7,1,22c0.1,1.8,0.2,3.8,1.2,5.3c1.2,1.8,3.5,2.6,5.6,2.8c5.1,0.6,10.3-1.3,14.5-4.3c4.2-2.9,7.7-6.9,11-10.8
			c1-1.1,2-2.3,3.3-2.9c1.4-0.6,3.2-0.3,4,1c1.7,3-3.9,6.4-2.3,9.4c1.3,2.3,4.7,1,7-0.1c3.4-1.7,8.8-1.8,9.8,1.9
			c0.9,3.3-2.7,5.9-5.8,7.5c1.9,0.3,3.9,0.6,5.5,1.6c1.6,1,2.8,3,2.3,4.9c-0.9,3.2-5.4,3.3-8.7,2.7c0.8,1.9,2.9,2.8,4.5,4.1
			c1.6,1.3,2.7,3.9,1.2,5.3c-0.9,0.8-2.2,0.8-3.4,0.6c-4.3-0.6-8.5-2.1-12.3-4.4c-1.2,1.1,0.7,2.8,1,4.4c0.4,2-2.2,3.6-4.2,3.2
			s-3.5-2.1-5.1-3.5c-6.1-5.7-14.6-8.7-22.9-8.2c-3,0.2-6.3,1-8.1,3.5c-1.5,2-1.6,4.7-1.7,7.1C98.3,74,98,83.4,97.7,92.8
			c0,0.9,0,2,0.7,2.6c0.5,0.4,1.1,0.4,1.7,0.4c17.6,0.7,35.3,1.5,52.9,1.5c9,0,18-0.2,26.9-0.6c6-0.3,17.4,0.9,22.2-3.6
			c2.2-2,3-5.2,3-8.1c0.1-15.5-1.9-29.8,1.2-45.3c1.3-6.6,3.2-13.3,2.4-20c-1.1-8.9-6.9-14.5-15.6-15.6c-8.1-1-16.6-0.3-24.8-0.5
			C160,3.4,151.8,2.8,143.4,2.8"/>
	</g>
	<rect id="XMLID_81_" x="-60.7" y="50" class="st1" width="653.6" height="167.8"/>
	<rect id="XMLID_66_" x="-60.7" y="50" class="st1" width="653.6" height="181.6"/>
</g>
<g id="XMLID_142_">
	<g id="XMLID_132_">
		<path id="XMLID_117_" class="st2" d="M36,57.8l15.9,1.3c-0.7,9.2-3.3,16.2-7.7,21.2c-4.4,4.9-9.7,7.4-16.1,7.4
			c-7.7,0-13.9-3.4-18.6-10.1c-4.7-6.7-7.1-16-7.1-27.9c0-11.8,2.2-21.2,6.7-28.5c4.5-7.2,10.7-10.8,18.7-10.8
			c7.5,0,13.2,2.7,17.2,8.2c4,5.5,6.3,12.8,6.8,21.9l-16.2,1.2c0-5-0.7-8.6-2.2-10.9c-1.4-2.2-3.2-3.4-5.1-3.4
			c-5.5,0-8.2,7.3-8.2,21.9c0,8.2,0.7,13.7,2.1,16.6c1.4,2.9,3.4,4.4,6,4.4C32.9,70.2,35.5,66.1,36,57.8z"/>
		<path id="XMLID_119_" class="st2" d="M84.4,87.1c-5,0-9.1-2.2-12.2-6.6c-3.1-4.4-4.7-10.3-4.7-17.6c0-7,1.5-12.8,4.5-17.4
			c3-4.6,7.2-6.9,12.5-6.9c4.9,0,9,2.2,12.1,6.5c3.1,4.3,4.7,10.1,4.7,17.3c0,7.5-1.6,13.5-4.7,18C93.4,84.9,89.4,87.1,84.4,87.1z
			 M84.3,76.5c1.8,0,3.2-1.1,4-3.2c0.8-2.1,1.2-6,1.2-11.7c0-8.2-1.7-12.3-5-12.3c-3.6,0-5.3,4.7-5.3,14
			C79.2,72.1,80.9,76.5,84.3,76.5z"/>
		<path id="XMLID_122_" class="st2" d="M144.1,86.4h-8.9l-9.7-20.8c-1.2-2.7-2.5-5.9-3.8-9.7c0.6,3,0.9,5.6,0.9,7.7v22.8h-8.8v-47
			h10.3l8.3,17.2c1.6,3.4,2.9,6.4,3.7,9c-0.6-4-0.8-8.1-0.8-12.3V39.4h8.9V86.4z"/>
		<path id="XMLID_124_" class="st2" d="M172.8,50.6v35.8h-10.3V50.6h-7.3V39.4h25v11.3H172.8z"/>
		<path id="XMLID_126_" class="st2" d="M217.9,75.2v11.2h-26.7v-47h26.7v10.9h-16V57h12.9v10.4h-12.9v7.7H217.9z"/>
		<path id="XMLID_128_" class="st2" d="M260.5,86.4h-8.9L242,65.6c-1.2-2.7-2.5-5.9-3.8-9.7c0.6,3,0.9,5.6,0.9,7.7v22.8h-8.8v-47
			h10.3l8.3,17.2c1.6,3.4,2.9,6.4,3.7,9c-0.6-4-0.8-8.1-0.8-12.3V39.4h8.9V86.4z"/>
		<path id="XMLID_130_" class="st2" d="M289.3,50.6v35.8h-10.3V50.6h-7.3V39.4h25v11.3H289.3z"/>
	</g>
</g>
<g id="XMLID_116_">
</g>
<g id="XMLID_133_">
</g>
<g id="XMLID_134_">
</g>
<g id="XMLID_135_">
</g>
<g id="XMLID_136_">
</g>
<g id="XMLID_137_">
</g>
</svg>
