<?xml version="1.0" encoding="utf-8"?>
<!-- Generator: Adobe Illustrator 16.0.0, SVG Export Plug-In . SVG Version: 6.00 Build 0)  -->
<!DOCTYPE svg PUBLIC "-//W3C//DTD SVG 1.1//EN" "http://www.w3.org/Graphics/SVG/1.1/DTD/svg11.dtd">
<svg version="1.1" id="圖層_1" xmlns="http://www.w3.org/2000/svg" xmlns:xlink="http://www.w3.org/1999/xlink" x="0px" y="0px"
	 width="600px" height="600px" viewBox="180 -20 600 600" enable-background="new 180 -20 600 600" xml:space="preserve">
<g id="圖層_2">
	<circle id="XMLID_5_" fill="#050101" stroke="#FFFFFF" stroke-miterlimit="10" cx="480" cy="280" r="300"/>
	<path id="XMLID_4_" fill="#FFFFFF" stroke="#FFFFFF" stroke-width="2" stroke-miterlimit="10" d="M218.106,386.587
		c-0.373-3.733,0-7.094,1.307-10.267c1.867-4.294,5.787-7.094,9.52-9.521c25.76-17.173,54.88-27.439,77.84-48.533
		c9.893-9.146,19.787-18.106,29.68-27.253c6.907-6.348,14.187-12.88,23.147-15.68c12.506-3.92,26.693-2.8,39.573-5.6
		c16.987-3.92,44.426-22.027,51.333-10.64c7.84,13.067-25.76,33.04-40.507,44.614c10.453-8.214,30.8,1.307,41.253,4.853
		c18.48,6.16,38.268,6.721,57.494,3.921c23.893-3.547,46.853-11.947,69.626-20.348c9.521-3.546,36.4-25.013,45.547-13.813
		c15.12,18.293-70.747,61.041-83.44,66.64c-37.333,16.24-77.84,24.827-118.533,24.64c-16.986-0.187-33.226-2.613-50.026,0.934
		c-19.04,3.92-36.96,12.507-53.947,21.653c-7.84,4.294-15.867,8.773-21.84,15.493c-6.533,7.653-9.893,17.36-14.56,26.32
		c-4.293,8.213-9.707,19.413-12.693,30.24c-1.867,6.347-23.52-25.573-26.88-30.613C235.093,423.174,219.787,402.64,218.106,386.587z
		"/>
	<path id="XMLID_3_" fill="#FFFFFF" stroke="#FFFFFF" stroke-width="2" stroke-miterlimit="10" d="M708.667,179.013
		c0.187,0.934,0.56,1.68,0.933,2.613c0.561,1.867,1.12,4.293-0.373,5.787c-0.934,0.934-2.24,0.934-3.547,1.12
		c-12.319,0.747-24.826,0.56-37.146-0.56c-3.733-0.373-7.84-0.933-10.453-3.546c-4.106-3.92-5.04-36.773-3.92-42.374
		c2.613-12.32,22.96-15.867,22.399-24.267c-0.373-5.6-21.279,0.187-23.706,0.187c-0.934-2.426,3.546-12.32,5.413-14.187
		c0,0,0,0,0.187,0c0.561-0.56,0.934-1.307,1.307-1.867c1.12-2.053,2.24-4.106,2.613-6.347c0.747-3.92-0.187-7.467-2.613-10.453
		c-2.427-2.987-6.347-5.04-10.08-3.547s-5.973,13.813-7.84,17.36c-1.68-4.853-4.479-18.853-9.706-18.853
		c-5.787,0-2.24,18.667-3.734,23.893c-2.613-2.613-12.692-16.986-16.426-17.733c-3.733-0.747-7.467,2.24-8.4,6.346
		c-1.12,5.787,3.547,8.027,5.6,12.32c1.494,3.36,6.907,13.813,4.854,14c-4.293,0.187-17.173-10.454-18.854-4.667
		c-1.493,5.04,0.374,10.64,2.801,14.747c0.373,0.56,10.453,12.693,14.56,19.227c1.12,1.68,2.054,3.733,2.8,5.787
		c0.747,2.8,0.747,5.6,1.12,8.586c0.561,3.36,0.747,6.534,0.747,9.894c0,3.547,0.187,8.586-1.867,11.76
		c-0.746,1.307-1.866,1.866-3.173,2.24c-2.24,0.374-4.667,0.187-6.72,0.187c-9.707,0.187-19.601,0.187-29.308-0.187
		c-5.04-0.187-10.079-0.56-15.12-1.12c-2.426-0.187-5.039-0.747-6.72-2.613c-2.239-2.24-2.613-5.787-2.613-8.773
		c-0.187-2.426,0-4.853,0.187-7.093c0.374-5.787,0.561-11.573,0.934-17.173c0.373-4.293,0.747-8.773,0.373-13.253
		c-0.187-3.173-1.119-6.16-2.986-8.4c-1.493-1.68-3.36-2.8-5.413-3.546c-2.987-1.12-6.16-1.68-9.146-2.054
		c-2.24-0.187-4.294-0.56-6.534-0.747c-5.413-0.373-11.013-0.933-16.426-0.56c-4.107,0.187-8.214,0.934-11.947,3.173
		c-3.173,2.053-5.413,5.227-7.279,8.773c-1.681,3.547-3.174,8.027-6.16,10.64c-2.613,2.053-7.28,4.293-10.267,1.867
		c-2.427-1.867-3.36-5.787-3.733-8.773c-0.561-4.107-0.561-8.4,0-12.507c0.187-1.307,0.56-2.8,0.746-4.106
		c0-0.747,0-1.307-0.187-2.053c-0.373-0.56-0.747-0.934-1.12-1.307c-0.56-0.187-1.307-0.374-1.866-0.374
		c-6.721,1.12-14.747,3.36-18.667,1.12c-7.28-9.707,5.413-10.454,12.32-13.813c0.56-0.374,1.12-0.56,1.68-0.933
		c-8.026-2.054-17.92-6.347-11.946-14.747c2.053-2.053,9.893,2.054,15.493,2.987c0.56,0.374,1.307,0.56,1.866,0.933h0.187
		c1.12,0,1.494-0.56,2.054-1.307c0-0.187,0-0.56,0.187-0.747c-0.187-0.373-0.373-0.933-0.56-1.493
		c-0.187-0.374-0.374-0.933-0.561-1.307c-0.373-0.934-0.933-1.867-1.493-2.8c-0.56-0.933-1.307-1.866-2.24-2.8
		c-2.426-2.8-6.347-7.093-8.399-9.146c-3.92-6.347,3.173-8.027,8.587-4.854c0.746,0,3.732,2.987,4.293,3.547
		c4.293,4.48,12.693,7.093,14.187,7.28c0.561,0,1.12,0,1.493-0.374c0.561-0.373,1.12-0.747,1.494-1.307
		c0.56-0.56,0.933-1.307,1.493-2.053c2.239-4.293,4.106-8.586,6.159-8.586c8.214-1.493,8.027,6.16,7.467,13.626
		c-0.187,3.36-0.373,6.72,0,9.147c0.188,0.747,0.374,1.493,0.561,2.24s0.56,1.493,0.934,2.053c0.373,0.56,0.746,1.12,1.119,1.68
		c6.721,8.213,21.654,4.854,32.667,3.733c14.561-1.494,7.467-52.827,7.094-61.414c0-2.053-0.187-4.106,1.12-5.787
		c1.307-1.493,3.359-2.053,5.413-2.427c33.6-5.787,81.387-16.986,114.24-2.8c27.439,11.76,30.053,39.013,30.613,65.52
		C700.64,124.133,699.146,148.4,708.667,179.013z"/>
</g>
<g id="圖層_1_1_">
</g>
</svg>
