<?xml version="1.0" encoding="utf-8"?>
<!-- Generator: Adobe Illustrator 19.0.0, SVG Export Plug-In . SVG Version: 6.00 Build 0)  -->
<svg version="1.1" id="圖層_1" xmlns="http://www.w3.org/2000/svg" xmlns:xlink="http://www.w3.org/1999/xlink" x="0px" y="0px"
	 viewBox="0 0 230.9 141.7" style="enable-background:new 0 0 230.9 141.7;" xml:space="preserve">
<style type="text/css">
	.st0{fill:#A3D2D7;}
</style>
<path id="XMLID_43_" class="st0" d="M182.7,140.3c-0.8-7,1.9-14.1,1.1-21.3c-0.7-6.2-2.9-13.2-1.2-19.4c0.8-3.1,2.7-6,5.6-7.3
	c5.5-2.4,12.6,0.8,18,2c6,1.3,11.7,1.2,17-2.1c10.2-6.3,10.9-31.2-1.4-35.5c-4.9-1.7-10.2-0.7-15.2,0.6s-10,3.1-15.1,2.8
	c-2.5-0.1-5.2-0.8-6.7-2.8c-1-1.4-1.4-3.1-1.6-4.8c0-0.3-0.1-0.6-0.1-0.9c-2.2-16.6-2.3-34.1-2.3-50.8c0-1.2-17.2-0.8-18.8-0.8
	c-10.4,0-19.9,0-30.3,0c-21.9,0-42.9,0-64.8,0c-5.4,0-11.1,0-16.5,0c-1.2-0.5-2.4,1.1-3.2,2.1c-2.6,3.2-1,6.6-0.5,10.3
	c0.5,3.7-0.5,7.4-0.6,11.2C46,31.7,54.2,47.1,45.7,53c-4.6,3.2-7.9,3.9-13.4,1.8c-3.3-1.3-6.3-3.1-9.6-4.3c-3.5-1.3-7.3-1.9-11-1.7
	c-0.9,0-1.8,0.1-2.5,0.6c-0.7,0.4-1.2,1.2-1.7,1.9c-3.5,5.4-7.1,11.1-7.5,17.5C-0.4,74.1,1.5,79.2,3.6,84c1,2.4,2.2,4.9,4.4,6.3
	c6,3.8,15.7-1,21.7-2.6c6.1-1.6,15.6-3.1,18.6,4.1c1.2,2.8,0.8,7.7,0.4,10.7c-0.6,4.2-0.6,8.6-0.8,12.8c-0.3,8.6-0.1,17.1,0.3,25.7
	c0,0,55.6,0.2,55.6,0.2c2.2,0-0.3-10.2-0.6-11.4c-1-3.4-2.7-6.7-3.6-10.1c-0.3-1.1-0.5-2-0.6-2.4c-1.4-7.7,2.8-11.1,10-13.3
	c7-2.1,15.5-2.2,21.8,2c2.8,1.9,4.9,4.6,5.9,7.8c1.3,4.1,0.3,9.1-0.8,13.1c-1.3,4.8-1.7,10.1-3.3,15.1h50.2
	C182.8,140.9,182.7,140.6,182.7,140.3z"/>
</svg>
