<?xml version="1.0" encoding="utf-8"?>
<!-- Generator: Adobe Illustrator 19.0.0, SVG Export Plug-In . SVG Version: 6.00 Build 0)  -->
<svg version="1.1" id="圖層_1" xmlns="http://www.w3.org/2000/svg" xmlns:xlink="http://www.w3.org/1999/xlink" x="0px" y="0px"
	 viewBox="0 0 141.5 141.7" style="enable-background:new 0 0 141.5 141.7;" xml:space="preserve">
<style type="text/css">
	.st0{fill:#C1E3E3;}
</style>
<path id="XMLID_45_" class="st0" d="M1.8,132.4c-0.5,2.5-1.7,4.8-0.5,7.2c0.3,0.5,0.4,2.1,0.4,2.1l110.7,0c0.4-1.9,0.5-4.3,0.5-6.4
	c0-7-0.4-14.2-0.9-21.2c-0.4-6.9-2.5-15.1,1.1-21.5c1.3-2.4,4.1-4.2,6.8-3.6c2.4,0.5,3.9,2.7,6.1,3.8c2.6,1.4,5.7,1.1,8.6,0.4
	c1.7-0.4,3.5-0.9,4.8-2.1c2.7-2.5,2.3-6.8,1.7-10.4c-0.5-2.9-1.2-6.1-3.6-7.7c-2.1-1.5-5-1.2-7.5-0.5c-2.5,0.8-4.8,2-7.3,2.5
	c-2.5,0.5-5.5,0-7-2.1c-1.8-2.4-1.4-7.6-1.6-10.4c-0.4-5.4-0.5-11.4-0.3-16.9c0-4.5,0.9-9,0.9-14H77c-9.9-1-4.1-12.9-4.2-19.3
	c-0.1-4.3-1.7-8.7-5.3-11c-5.1-3.3-11.9-1-17.3,1.7c-1.5,0.7-3.1,1.6-4,3.1c-1,1.6-0.9,3.6-0.8,5.4c0.2,2.8,1,5.8,1.4,8.6
	c0.5,3.3,2.1,7.5,1.5,10.7c-0.1,0.6-0.4,0.8-1,0.8c-0.9,0-1.8,0-2.7,0c-8.2,0-16.5,0-24.7,0c-4.1,0-8.2,0-12.3,0
	c-1.4,0-5.4-0.3-6.3,1c-0.4,0.5-0.5,1.4-0.6,2c-1.6,12-0.5,24.7,1.3,36.5c0.8,5.5,4.2,8.7,10,7.6c7.2-1.4,18.1-7.5,23.6,0.1
	c2,2.7,2.6,6.2,2.8,9.6c0.1,3.2-0.1,6.5-1.4,9.4c-1.2,2.9-3.6,5.5-6.6,6.6c-3,1.1-6.4,0.5-9.5-0.5s-6.1-2.2-9.3-2.5s-6.8,0.5-8.7,3
	c-3.1,4-1.5,10.2-1,14.7C2.4,123.8,2.6,128.2,1.8,132.4z"/>
</svg>
