<?xml version="1.0" encoding="iso-8859-1"?>
<!-- Generator: Adobe Illustrator 19.0.0, SVG Export Plug-In . SVG Version: 6.00 Build 0)  -->
<svg version="1.1" id="Layer_1" xmlns="http://www.w3.org/2000/svg" xmlns:xlink="http://www.w3.org/1999/xlink" x="0px" y="0px"
	 viewBox="0 0 512.004 512.004" style="enable-background:new 0 0 512.004 512.004;" xml:space="preserve">
<g>
	<g>
		<path d="M498.145,326.379h-23.45c-4.698,0-9.055,2.458-11.483,6.479c-6.545,10.838-17.867,17.053-31.062,17.053
			c-20.342,0-36.891-16.523-36.891-36.834c-0.003-20.362,16.546-36.929,36.888-36.929c12.217,0,24.238,6.671,31.372,17.41
			c2.487,3.743,6.681,5.992,11.174,5.992h23.45c7.409,0,13.859-6.007,13.859-13.415V129.182c0-7.408-6.45-13.415-13.859-13.415
			H353.706v-2.319c14.756-12.316,23.224-30.579,23.224-49.225c0-35.135-28.702-63.72-63.846-63.72
			c-35.122,0-63.531,28.586-63.531,63.72c0,19.769,8.909,37.767,23.665,49.533v2.012H129.236c-7.409,0-12.971,6.007-12.971,13.415
			v143.538h-3.321c-12.304-14.587-30.566-23.401-49.224-23.401C28.585,249.319,0,277.92,0,313.076
			c0,35.105,28.586,63.664,63.72,63.664c19.763,0,37.76-8.669,49.534-23.532h3.012v144.879c0,7.408,5.562,13.415,12.971,13.415
			h156.953c7.409,0,13.859-6.007,13.859-13.415v-22.982c0-4.698-2.679-9.054-6.701-11.483
			c-10.816-6.533-17.129-17.855-17.129-31.063c0-20.341,16.483-36.891,36.813-36.891c20.35,0,36.879,16.55,36.879,36.891
			c0,12.199-6.481,24.22-17.246,31.373c-3.743,2.487-5.783,6.679-5.783,11.173v22.982c0,7.408,5.562,13.415,12.971,13.415h158.294
			c7.409,0,13.859-6.007,13.859-13.415V339.793C512.004,332.386,505.554,326.379,498.145,326.379z M485.172,484.673H353.707v-2.887
			c14.756-12.316,23.224-30.579,23.224-49.225c0-35.135-28.702-63.72-63.846-63.72c-35.123,0-63.531,28.586-63.531,63.72
			c0,19.769,8.909,37.767,23.665,49.533v2.581H143.095V339.795c0-7.408-6.45-13.415-13.859-13.415h-22.971
			c-4.698,0-9.055,2.458-11.483,6.479c-6.545,10.838-17.867,17.053-31.062,17.053c-20.342,0-36.891-16.523-36.891-36.834
			c0-20.362,16.548-36.928,36.891-36.928c12.217,0,24.238,6.671,31.372,17.41c2.487,3.743,6.681,5.992,11.174,5.992h22.971
			c7.409,0,13.859-6.007,13.859-13.415V142.599h143.094c7.409,0,13.859-6.007,13.859-13.415v-22.416
			c0-4.698-2.679-9.054-6.701-11.483c-10.816-6.533-17.129-17.855-17.129-31.063c0-20.342,16.483-36.891,36.813-36.891
			c20.35,0,36.878,16.548,36.878,36.891c0,12.199-6.481,24.22-17.246,31.373c-3.743,2.487-5.783,6.679-5.783,11.173v22.413
			c0,7.408,5.562,13.415,12.971,13.415h145.323v130.123h-3.8c-12.304-14.587-30.566-23.401-49.224-23.401
			c-35.135,0-63.72,28.602-63.72,63.758c-0.004,35.105,28.58,63.664,63.716,63.664c19.763,0,37.76-8.669,49.534-23.532h3.49V484.673
			z"/>
	</g>
</g>
<g>
</g>
<g>
</g>
<g>
</g>
<g>
</g>
<g>
</g>
<g>
</g>
<g>
</g>
<g>
</g>
<g>
</g>
<g>
</g>
<g>
</g>
<g>
</g>
<g>
</g>
<g>
</g>
<g>
</g>
</svg>
