<?xml version="1.0" encoding="utf-8"?>
<!-- Generator: Adobe Illustrator 19.0.0, SVG Export Plug-In . SVG Version: 6.00 Build 0)  -->
<svg version="1.1" id="圖層_1" xmlns="http://www.w3.org/2000/svg" xmlns:xlink="http://www.w3.org/1999/xlink" x="0px" y="0px"
	 viewBox="0 0 117.1 141.7" style="enable-background:new 0 0 117.1 141.7;" xml:space="preserve">
<style type="text/css">
	.st0{fill:#C1E3E3;}
</style>
<path id="XMLID_47_" class="st0" d="M3.7,136.2c-0.1,1.7-0.4,3.3-1,5.2c2.8,0.1,5.6,0,8.3,0c5.2,0,10.3,0,15.5,0c6.5,0,13,0,19.4,0
	c6.4,0,12.9,0,19.3,0c5,0,10,0,15.1,0c10.5,0,21.1,0.1,31.6,0.1c0.3,0,4.8,0.1,4.8,0c0.3-2.8-0.1-5.7-0.1-8.5c0-4.3,0-8.6,0-12.9
	c0-8.6,0-17.2,0-25.8c0-4.3,0-8.6,0-12.9c0-7.7,0.2-15.4,0.2-23.2c0-3.9,0.2-7.9,0.2-11.8c0-2.1,0.2-4,0.2-6.1
	c0-1.5,0.1-6.9,0.1-6.9H70.1c-0.4-2,3.2-7.8,3.9-11c1.4-6.9,0.8-18.5-7.1-21.6c-2.2-0.9-4.6-0.8-6.9-0.4c-0.8,0.1-1.6,0.3-2.3,0.5
	c-3.4,0.8-7.4,2.1-9.5,5.1c-1.7,2.5-1.8,5.6-1.8,8.6c0,2.7-0.1,5.5,0.3,8.2c0.4,3,2.1,3.7,3.6,6.1c0.8,1.3,1.2,2.5,0.7,4.5
	c-5.3,0-10.6,0-15.9,0c-7.9,0-14.2-0.2-22.1-0.1c-2.2,0-6-0.2-8.2-0.1c0.3-1.2-0.8,1.9-1,2c-0.5,0.6-0.8,1-1.1,1.7
	c-0.6,1.6-0.8,3.3-0.9,5C1.7,45.2,2.1,48.6,1.6,52C0.8,57.6,0,63.1,0,68.7c0,0,1.8,14.4,13.7,12.1c5.4-1.1,17.1-8.2,20.4-0.9
	c0.8,1.8,2.1,2.3,2,4.3c0,2.7-0.2,5.5-0.5,8.2c-0.3,3-2.4,3.4-4.6,5.5c-1.7,1.7-2.7,5.1-5,5.7c-2,0.5-4.1,1.1-6.2,0.6
	c-1.9-0.4-3.4-1.7-5.1-2.6c-3.1-1.6-6.7-2-10.1-1c-0.4,0.1-0.9,0.3-1.2,0.6c-0.5,0.5-0.6,1.4-0.6,2.1c0,4.4-1.2,9.7,0,13.9
	c1.1,4.1,1.2,8.6,1,12.8c-0.1,3.4-0.7,6.9-0.1,10.3c0.1,0.4,0.1-1-0.2,1h113.5c-0.2-2-0.3-1.3-0.4-2"/>
</svg>
