<?xml version="1.0" encoding="utf-8"?>
<!-- Generator: Adobe Illustrator 19.0.0, SVG Export Plug-In . SVG Version: 6.00 Build 0)  -->
<svg version="1.1" id="圖層_1" xmlns="http://www.w3.org/2000/svg" xmlns:xlink="http://www.w3.org/1999/xlink" x="0px" y="0px"
	 viewBox="0 0 189.3 141.7" style="enable-background:new 0 0 189.3 141.7;" xml:space="preserve">
<style type="text/css">
	.st0{fill:#A3D2D7;}
</style>
<path id="XMLID_46_" class="st0" d="M146.1,141.8c0.2,0,0.3,0,0.3,0c1.3,0,0.8-10.4,0.9-11.9c0.5-7-0.6-13.2-1.6-20.1
	c-0.8-5.9-1.4-15.8,4.2-19.7c6-4.2,13.2,2.4,19.3,3.2c3.2,0.4,7,0.1,10-1.2c4.6-1.9,7.4-6.8,8.2-11.7c0.6-3.3,1.9-7,1.8-10.4
	c-0.1-1.4-0.4-2.7-0.7-4c-0.6-2.6,0.6-4.3-0.8-6.5s-5.7-4.8-8.3-4.5c-1,0.1-2,0.5-3,0.8c-1.8,0.5-3.7,0.6-5.4,1.1
	c-5.7,1.8-11.1,4.7-17.3,2.8c-4.7-1.4-7.5-6.3-8.2-11.1c-1-6.9,0.2-14.5,0.3-21.4c0.1-5.4,0.3-10.7,0.4-16.1c0-3.7,0.5-7.6,2.3-10.9
	c-10.7-0.3-21.4-0.1-32.1-0.1C107.6,0.2,98.9,0,90.1,0c-8.2,0-16.4-0.2-24.6-0.2c-7.7,0-15.4,0-23.1,0c-8.2,0-16.4,0-24.6,0
	c-3.8,0-7.6,0-11.4,0c-0.9,1-1.2,3-1.3,5.1C5.1,7,5.1,9.2,5,11.3c-0.1,4.3-0.2,8.6,0,12.9C5.3,31.6,3.6,41,5.6,48.1
	c0.7,2.4,2.2,6.6,4.5,7.7c4,1.9,7,0.9,10.1,0c5.7-1.6,13.9-6.7,18.4-0.1c1.8,2.6,2.1,5.9,2.1,9C40.6,73,33.8,80.1,25,77.8
	c-7.6-2-17.4-11.3-21.1,1.3c-5.1,17.7-4.4,34.7-2.4,52.8c0.4,3.5,1,6.6,1.9,9.9C3.4,141.9,138.4,141.8,146.1,141.8z"/>
</svg>
