<?xml version="1.0" encoding="utf-8"?>
<!-- Generator: Adobe Illustrator 16.0.0, SVG Export Plug-In . SVG Version: 6.00 Build 0)  -->
<!DOCTYPE svg PUBLIC "-//W3C//DTD SVG 1.1//EN" "http://www.w3.org/Graphics/SVG/1.1/DTD/svg11.dtd">
<svg version="1.1" id="圖層_1" xmlns="http://www.w3.org/2000/svg" xmlns:xlink="http://www.w3.org/1999/xlink" x="0px" y="0px"
	 width="600px" height="600px" viewBox="208.934 -26.996 600 600" enable-background="new 208.934 -26.996 600 600"
	 xml:space="preserve">
<g id="XMLID_1_">
	<g>
		<defs>
			<circle id="SVGID_1_" cx="508.933" cy="273.004" r="300"/>
		</defs>
		<clipPath id="SVGID_2_">
			<use xlink:href="#SVGID_1_"  overflow="visible"/>
		</clipPath>
		<path id="XMLID_3_" clip-path="url(#SVGID_2_)" fill="#040000" d="M525.898-62.63c1.827,2.247,0,26.739,0,33.031
			c0,19.998,0,19.998,0.685,42.018c0.23,5.168-1.37,9.437-0.913,14.605c0.686,7.864,1.828,9.438-2.742,15.954
			c-15.539,22.246-56.669,4.494-66.266-13.257c-4.114-7.415-6.399-16.853-13.939-20.897c-1.372-0.674-3.201-1.124-4.571-0.45
			c-2.058,1.124-1.6,4.044-1.143,6.292c2.743,10.111,7.313,20.222,8.683,30.334c-5.712-1.573-10.969-4.943-16.453-7.64
			l-27.421-18.874c0,0-30.162-2.696-8.226,13.481C415.301,47.922,416.9,52.64,416.9,52.865c1.143,3.82-33.362-6.292-34.048-6.292
			c-5.027-0.673-10.511,1.798-13.253,6.067c-1.372,2.247-2.058,5.393-0.914,7.866c1.371,2.695,4.342,4.044,7.083,5.167
			c8.912,2.921,17.366,2.696,25.593,6.516c4.113,1.798,10.969,10.111,15.311,10.111c-13.253,0-25.593,1.573-38.618,3.596
			c-6.855,1.123-14.854,2.695-18.28,8.762c-0.686,1.348-1.372,2.922-0.915,4.494c0.915,3.371,5.027,4.494,8.684,4.719
			c17.139,1.573,34.276,1.123,51.415,0.225c-5.027,9.662-10.511,19.549-13.482,30.333c-0.457,1.798-0.915,4.044,0.686,5.394
			c1.6,1.348,3.885,0.449,5.713-0.674c25.135-14.605,41.359-54.152,76.322-39.322c7.312,3.146,19.65,2.023,25.592,6.741
			c8.912,6.966,6.17,22.021,6.17,31.683c0,21.347,0.229,42.468,0.229,63.813c0,15.505,4.57,48.984-0.685,66.286
			c0,0-13.255,5.169-30.85,5.394c-25.364,0.225-86.604-1.348-111.969-1.348c-12.34,0-24.908,0.225-37.247-0.225
			c1.142,15.729-4.57,33.707,7.541,47.188c4.798,5.167,11.197,8.313,16.909,12.807c5.485,4.27,10.512,10.786,9.141,17.751
			c-0.458,2.697-2.285,5.395-5.028,5.617c-1.143,0-2.285-0.447-3.427-0.672c-6.17-2.474-18.509-8.09-23.994-1.574
			c-1.599,2.023-2.056,4.942-2.056,7.641c0,10.561,4.113,21.346,0.229,31.009c-0.458,1.122-1.371,2.469-2.514,2.694
			c-2.285,0.448-3.885-2.021-4.799-4.045c-4.799-12.135-7.77-26.289-14.167-37.748c-4.342,10.786-5.941,23.817-8.455,35.279
			c0,0-6.855,8.087-6.855-9.44c0-17.525,0-26.962,0-26.962l-21.938,28.312c0,0-23.308,12.133-10.968-10.786
			c3.656-6.741,8.455-14.154,10.512-21.347c-7.313,2.247-15.082,6.292-23.309,5.168c-1.371-0.224-2.971-0.674-3.884-1.796
			c-2.057-2.472,0-6.068,2.056-8.314c6.627-7.415,15.082-13.032,23.08-19.099c7.77-6.067,15.539-13.258,19.423-22.245
			c9.826-22.696-8.455-30.11-27.878-32.134c-22.394-2.47-45.016-3.819-67.41-5.392c-14.625-1.123-53.471,1.573-57.812-12.134
			c-4.114-13.931-2.285-39.098,0.228-52.804c11.197-61.792,59.64-136.616,107.399-178.635
			c46.845-41.344,111.512-68.756,173.438-84.935c22.165-5.843,48.672-17.525,71.524-16.627
			C507.846-80.38,522.699-66.673,525.898-62.63z"/>
	</g>
	<g>
		<defs>
			<circle id="SVGID_3_" cx="508.933" cy="273.004" r="300"/>
		</defs>
		<clipPath id="SVGID_4_">
			<use xlink:href="#SVGID_3_"  overflow="visible"/>
		</clipPath>
		<path id="XMLID_2_" clip-path="url(#SVGID_4_)" fill="#040000" d="M509.903,607.42c-2.515-2.698-4.113-6.967-4.113-13.257
			c0.456-30.784,1.143-61.568,1.143-92.128c-0.687-7.863-1.829-9.437,2.742-15.953c15.538-22.246,56.67-4.494,66.267,13.257
			c4.114,7.416,6.398,16.853,13.939,20.898c1.371,0.673,3.199,1.124,4.57,0.447c2.057-1.124,1.6-4.042,1.143-6.29
			c-2.742-10.112-7.313-20.223-8.684-30.335c5.713,1.572,10.969,4.943,16.453,7.641l27.421,18.874c0,0,30.162,2.696,8.226-13.483
			c-21.707-15.953-23.307-20.671-23.307-20.895c-1.143-3.82,33.361,6.291,34.047,6.291c5.028,0.675,10.511-1.798,13.254-6.067
			c1.371-2.246,2.056-5.392,0.913-7.865c-1.371-2.696-4.34-4.043-7.083-5.166c-8.912-2.923-17.366-2.698-25.593-6.517
			c-4.112-1.798-10.969-10.111-15.312-10.111c13.255,0,25.594-1.574,38.619-3.596c6.855-1.122,14.853-2.695,18.28-8.763
			c0.686-1.348,1.371-2.921,0.915-4.494c-0.915-3.371-5.029-4.493-8.685-4.718c-17.138-1.574-34.275-1.125-51.413-0.226
			c5.026-9.663,10.511-19.549,13.482-30.335c0.456-1.797,0.913-4.045-0.687-5.392c-1.6-1.349-3.884-0.449-5.712,0.674
			c-25.139,14.605-41.361,54.15-76.322,39.322c-7.313-3.146-19.652-2.022-25.594-6.741c-8.912-6.967-6.17-22.021-6.17-31.683
			c-0.229-35.726,4.799-119.09,4.799-119.09s0,0,2.742-3.372c9.141-11.234,52.558-7.864,65.354-8.762
			c7.997-0.449,107.4-6.067,107.628-2.92c-1.143-15.73,4.57-33.705-7.54-47.188c-4.8-5.168-11.198-8.314-16.91-12.808
			c-5.484-4.269-10.512-10.785-9.14-17.75c0.456-2.697,2.284-5.393,5.026-5.618c1.143,0,2.284,0.449,3.428,0.674
			c6.169,2.471,18.51,8.089,23.993,1.572c1.599-2.021,2.058-4.943,2.058-7.639c0-10.56-4.114-21.346-0.229-31.008
			c0.456-1.124,1.37-2.473,2.513-2.697c2.286-0.45,3.886,2.022,4.798,4.044c4.8,12.133,7.77,26.289,14.168,37.75
			c4.342-10.786,5.941-23.818,8.455-35.279c0,0,6.854-8.088,6.854,9.438c0,17.527,0,26.964,0,26.964l21.937-28.313
			c0,0,23.309-12.134,10.97,10.786c-3.655,6.741-8.455,14.156-10.512,21.346c7.313-2.247,15.082-6.292,23.31-5.169
			c1.369,0.226,2.969,0.675,3.884,1.798c2.056,2.472,0,6.067-2.057,8.314c-6.627,7.416-15.083,13.033-23.08,19.099
			c-7.77,6.067-15.539,13.258-19.423,22.245c-9.826,22.694,8.454,30.11,27.879,32.132c24.449,2.695,49.128,4.494,73.807,5.618
			c11.427,0.449,47.073-3.147,51.415,11.909c4.112,13.93,2.284,39.097-0.228,52.803c-28.336,155.266-182.579,254.133-332.481,275.93
			C541.895,607.867,519.043,617.08,509.903,607.42z"/>
	</g>
</g>
</svg>
