<?xml version="1.0" encoding="utf-8"?>
<!-- Generator: Adobe Illustrator 19.0.0, SVG Export Plug-In . SVG Version: 6.00 Build 0)  -->
<svg version="1.1" id="圖層_1" xmlns="http://www.w3.org/2000/svg" xmlns:xlink="http://www.w3.org/1999/xlink" x="0px" y="0px"
	 viewBox="0 0 650 250" style="enable-background:new 0 0 650 250;" xml:space="preserve">
<style type="text/css">
	.st0{fill:#A9DAEA;}
	.st1{fill:#325561;}
</style>
<g id="XMLID_16_">
	<path id="XMLID_20_" class="st0" d="M437.7,227c-3.2,3.5-7.9,5.1-12.2,6.5c-1.9,0.6-3.8,1.2-5.8,1.7c-11.5,2.7-23.6,3.7-35.4,2.5
		c-8.2-0.8-17.8-2.3-23.5-9.4c-6.3-7.7-6.4-19.1-4.7-28.7c0.9-5.1,2.4-10.1,4.5-14.8c1-2.3,2.3-4.5,4-6.3c1.7-1.8,3.6-3.2,5.6-4.6
		c6.6-4.6,12.6-9.3,15.3-17.6c1.2-3.9,1.6-8.4-0.8-11.9c-3-4.3-8.7-4-13.1-4.9c-0.9-0.2-1.6-0.4-2.2-0.8c-1.4-0.5-2.5-1.5-2.9-3
		c0,0,0.1,0,0,0c0.1-0.3-0.3-0.7-0.1-1c0-0.1,0-0.2,0-0.3c0-0.8,0.2-1.7,0.8-2.6c0.1-0.2,0.2-0.2,0.4-0.2c0.5-0.9,1.2-1.8,2.2-2.6
		c0,0,0.1-0.1,0.1-0.1c0.6-0.7,1.1-1.4,1.7-2.2c1.4-2.3,2.6-4.6,3.2-7.3c1-4.4-0.3-8.6-3.1-11.9c-3-3.5-7.7-5.7-12-4.1
		c-4.4,1.7-7,6.9-9.1,11.1c-2-5.7-5.5-12.8-11.9-12.8c-6.8,0-11.1,8-12.9,14.2c-3.2-3-6.9-6.2-11.2-7c-4.5-0.8-9,2.7-10,7.3
		c-1.4,6.5,4.3,9.3,6.7,14.2c1.8,3.8-1.9,4.4-4.5,4.5c-5.2,0.3-10.3-0.4-12.3,6.2c-1.7,5.7,0.5,12.1,3.4,16.9
		c0.3,0.6,12.4,14.6,17.5,21.9c1.4,2,2.6,4.2,3.3,6.6c0.9,3,0.9,6.1,1.4,9.2c0.5,3.7,1,7.4,1,11.2c0,4.2,0.4,10.2-2.2,14.2
		c-0.9,1.4-2.3,2.2-3.9,2.5c-2.6,0.5-5.5,0.2-8.1,0.3c-11.7,0.2-23.4,0.2-35-0.3c-6-0.3-12-0.6-18-1.2c-2.8-0.3-5.9-0.9-8.1-3
		c-2.5-2.5-3-6.4-3.2-9.7c-0.2-2.9-0.1-5.8,0.1-8.7c0.4-6.5,0.7-13.1,1.2-19.6c0.3-5,0.8-10.1,0.4-15.2c-0.3-3.5-1.3-6.9-3.6-9.6
		c-1.7-2-4-3.3-6.4-4.1c-3.5-1.3-7.2-1.8-10.9-2.3c-2.6-0.3-5.2-0.6-7.8-0.8c-6.5-0.5-13.2-1.2-19.7-0.7c-4.8,0.3-9.9,1.1-14.2,3.6
		c-3.8,2.3-6.5,6-8.6,10.1c-2.1,4.1-3.7,9.2-7.4,12.1c-3.1,2.4-8.6,5-12.2,2.2c-2.8-2.2-3.9-6.5-4.5-10.1c-0.8-4.7-0.7-9.6,0-14.4
		c0.2-1.6,0.6-3.1,1-4.7c0-0.8-0.1-1.5-0.3-2.3c-0.4-0.6-1-1.2-1.6-1.6c-0.6-0.1-1.3-0.2-1.9-0.3c-8,1.3-17.6,3.8-22.3,1.3
		c-8.7-11.1,6.5-12,14.7-15.8c0.7-0.3,1.4-0.7,2-1.1c-9.5-2.4-21.4-7.3-14.3-16.9c2.4-2.4,11.9,2.4,18.4,3.5c0.8,0.3,1.5,0.7,2.2,1
		c0.1,0,0.2,0,0.3,0c1.5,0,1.9-0.8,2.6-1.7c0-0.4-0.1-0.8-0.1-1.1c-0.2-0.4-0.4-0.9-0.6-1.4c-0.2-0.5-0.4-1-0.7-1.5
		c-0.4-1.1-1-2.1-1.8-3.2c-0.8-1.1-1.6-2.1-2.6-3.2c-2.9-3.2-7.7-8.1-10.1-10.5c-4.8-7.3,3.7-9.1,10.2-5.5c1,0,4.6,3.3,5.2,4.2
		c5.2,5,15.1,8,17,8.3c0.6,0.1,1.2-0.1,1.9-0.4c0.6-0.3,1.2-0.9,1.8-1.6c0.6-0.7,1.2-1.5,1.8-2.4c2.6-5,5-9.8,7.3-9.8
		c14.3-2.4,7.1,16.9,9,26c0.2,0.9,0.4,1.7,0.7,2.6s0.7,1.6,1.2,2.4c0.4,0.7,0.9,1.3,1.4,1.9c8.1,9.4,25.9,5.6,38.9,4.3
		c6.2-0.6,9.7-4.8,8.9-11.5c-0.5-4-1-8.1-1.3-12.2c-1-12.9-0.3-24.6,2.4-37.2c1.1-5,1.5-9.8,4.5-13.9c0.6-0.8,1.2-1.6,1.9-2.3
		c10.6-12.3,28.7-18.5,43-22.8c10.3-3.1,20.8-5.5,31.3-7.5c10-1.9,20.1-3.4,30.3-4.2c8.2-0.6,16.4-0.7,24.6,0.1
		c8,0.8,16,2.5,23.3,6.2c6.8,3.5,12.5,8.8,16.4,15.7c4.5,8.2,6.3,18,6.9,27.4c0.8,12.1,0,24.2-0.9,36.3c-0.9,12.5-2.1,24.9-2.4,37.4
		c-0.2,11.6,0.2,23.4,3.1,34.6c2.8,11.2,9,20.7,13.6,31C439.2,207.9,444.2,219.8,437.7,227z"/>
</g>
<g id="XMLID_18_">
	<path id="XMLID_3_" class="st1" d="M38.7,196.2v25.3H17.1v-69.6h29.7c7.4,0,13,0.9,16.9,2.5c3.9,1.7,6.9,4.3,9.2,7.8
		c2.3,3.5,3.4,7.4,3.4,11.8c0,6.6-2.3,12-6.9,16.1c-4.6,4.1-10.8,6.1-18.5,6.1H38.7z M38.4,181.3h7.1c6.3,0,9.4-2.3,9.4-6.9
		c0-4.4-2.9-6.5-8.7-6.5h-7.9V181.3z"/>
	<path id="XMLID_6_" class="st1" d="M172.2,221.5h-23.7l-10.2-26.6h-6.7v26.6h-21.4v-69.6h36.4c8,0,14.3,1.9,18.7,5.6
		c4.4,3.8,6.7,8.7,6.7,14.9c0,4-0.8,7.6-2.4,10.6c-1.6,3.1-4.9,5.8-9.9,8.1L172.2,221.5z M131.6,180h9.1c2.7,0,4.8-0.6,6.5-1.7
		c1.6-1.1,2.4-2.8,2.4-4.9c0-4.5-2.7-6.7-8.2-6.7h-9.8V180z"/>
	<path id="XMLID_9_" class="st1" d="M237.6,222.6c-9.8,0-17.8-3.2-23.9-9.7c-6.2-6.5-9.3-15.2-9.3-26.1c0-10.4,2.9-19,8.8-25.8
		c5.9-6.8,14.1-10.2,24.6-10.2c9.7,0,17.6,3.2,23.7,9.6c6.1,6.4,9.2,14.9,9.2,25.6c0,11-3.1,19.9-9.2,26.6
		C255.2,219.3,247.3,222.6,237.6,222.6z M237.5,206.8c3.6,0,6.2-1.6,7.8-4.7c1.6-3.1,2.4-8.9,2.4-17.3c0-12.1-3.2-18.2-9.7-18.2
		c-7,0-10.5,6.9-10.5,20.7C227.4,200.3,230.7,206.8,237.5,206.8z"/>
	<path id="XMLID_17_" class="st1" d="M305.7,221.5v-69.6h26.9c11.7,0,20.5,3.5,26.3,10.4s8.7,15,8.7,24.1c0,10.4-3.1,18.9-9.4,25.4
		c-6.2,6.5-14.3,9.8-24.3,9.8H305.7z M327,205.5h5.6c3.5,0,6.5-1.7,9-5.2c2.4-3.4,3.6-8.1,3.6-14c0-5.1-1.1-9.4-3.2-13.1
		c-2.2-3.7-5.3-5.5-9.4-5.5H327V205.5z"/>
	<path id="XMLID_23_" class="st1" d="M459.1,151.9V198c0,8.7-2.6,15-7.8,18.8c-5.2,3.8-11.9,5.7-20.3,5.7c-8.8,0-15.8-1.8-21.1-5.5
		c-5.3-3.7-8-9.7-8-18v-47.2h21.7v44.7c0,3.3,0.7,5.8,2.1,7.3c1.4,1.5,3.7,2.3,6.7,2.3c2.6,0,4.7-0.6,6.3-1.7c1.6-1.1,2.6-2.4,3-3.7
		c0.3-1.4,0.5-4.1,0.5-8.2v-40.7H459.1z"/>
	<path id="XMLID_25_" class="st1" d="M534.8,194.9l19.5,1.2c-0.9,8.5-4.1,15.1-9.5,19.6c-5.4,4.6-12,6.8-19.9,6.8
		c-9.5,0-17.1-3.1-22.9-9.4c-5.8-6.3-8.7-14.9-8.7-25.9c0-10.9,2.8-19.7,8.3-26.4c5.5-6.7,13.2-10,23.1-10c9.2,0,16.3,2.5,21.2,7.7
		c4.9,5.1,7.7,11.9,8.4,20.3l-19.9,1.1c0-4.7-0.9-8-2.7-10.1c-1.8-2.1-3.9-3.1-6.3-3.1c-6.7,0-10.1,6.8-10.1,20.3
		c0,7.6,0.9,12.7,2.6,15.5c1.8,2.7,4.2,4.1,7.4,4.1C530.9,206.5,534.1,202.6,534.8,194.9z"/>
	<path id="XMLID_27_" class="st1" d="M616.7,168.6v52.9h-20.2v-52.9h-14.4v-16.7h49.1v16.7H616.7z"/>
</g>
<g id="XMLID_2_">
</g>
<g id="XMLID_29_">
</g>
<g id="XMLID_31_">
</g>
<g id="XMLID_32_">
</g>
<g id="XMLID_33_">
</g>
<g id="XMLID_34_">
</g>
<g id="XMLID_35_">
</g>
<g id="XMLID_36_">
</g>
<g id="XMLID_37_">
</g>
<g id="XMLID_38_">
</g>
<g id="XMLID_39_">
</g>
<g id="XMLID_40_">
</g>
<g id="XMLID_41_">
</g>
<g id="XMLID_42_">
</g>
<g id="XMLID_43_">
</g>
</svg>
