<?xml version="1.0" encoding="utf-8"?>
<!-- Generator: Adobe Illustrator 19.0.0, SVG Export Plug-In . SVG Version: 6.00 Build 0)  -->
<svg version="1.1" xmlns="http://www.w3.org/2000/svg" xmlns:xlink="http://www.w3.org/1999/xlink" x="0px" y="0px"
	 viewBox="0 0 2267.7 708.7" style="enable-background:new 0 0 2267.7 708.7;" xml:space="preserve">
<style type="text/css">
	.st0{fill:#2EA7E0;}
	.st1{fill:#D2E6ED;}
	.st2{fill:none;}
	.st3{fill:#E2A544;stroke:#E2A544;stroke-miterlimit:10;}
	.st4{fill:#6A3906;}
	.st5{fill:#E2A544;}
	.st6{fill:#40220F;stroke:#40220F;stroke-width:2;stroke-miterlimit:10;}
	.st7{fill:#F2C77C;}
	.st8{fill:#221714;stroke:#000000;stroke-width:2;stroke-miterlimit:10;}
	.st9{fill:#211613;stroke:#000000;stroke-width:2;stroke-miterlimit:10;}
	.st10{fill:#DFCEE5;}
	.st11{fill:#7E318E;}
	.st12{fill:#CBABD0;}
	.st13{fill:none;stroke:#000000;stroke-width:3;stroke-miterlimit:10;}
	.st14{fill:#040000;stroke:#000000;stroke-width:3;stroke-miterlimit:10;}
	.st15{fill:#F7F8F8;}
	.st16{fill:#FFFFFF;}
	.st17{fill:#214461;}
	.st18{fill:#214461;stroke:#214461;stroke-miterlimit:10;}
	.st19{fill:#98D5E3;}
	.st20{fill:#99D5E4;}
	.st21{fill:#9BD5E4;}
	.st22{fill:#9CD6E4;}
	.st23{fill:#9DD6E4;}
	.st24{fill:#9ED6E4;}
	.st25{fill:#9FD7E4;}
	.st26{fill:#A0D7E5;}
	.st27{fill:#A1D7E5;}
	.st28{fill:#A2D8E5;}
	.st29{fill:#A4D8E5;}
	.st30{fill:#A5D8E5;}
	.st31{fill:#A6D9E5;}
	.st32{fill:#A7D9E6;}
	.st33{fill:#A8D9E6;}
	.st34{fill:#A9DAE6;}
	.st35{fill:#AADAE6;}
	.st36{fill:#ABDAE6;}
	.st37{fill:#ACDAE6;}
	.st38{fill:#ADDBE6;}
	.st39{fill:#AEDBE6;}
	.st40{fill:#AFDBE7;}
	.st41{fill:#B0DCE7;}
	.st42{fill:#B1DCE7;}
	.st43{fill:#B2DCE7;}
	.st44{fill:#B3DCE7;}
	.st45{fill:#B4DDE7;}
	.st46{fill:#B5DDE7;}
	.st47{fill:#B6DDE7;}
	.st48{fill:#B7DDE8;}
	.st49{fill:#B8DEE8;}
	.st50{fill:#B9DEE8;}
	.st51{fill:#BADEE8;}
	.st52{fill:#BBDEE8;}
	.st53{fill:#BCDFE8;}
	.st54{fill:#BDDFE8;}
	.st55{fill:#BEDFE8;}
	.st56{fill:#BFDFE8;}
	.st57{fill:#C0E0E9;}
	.st58{fill:#C1E0E9;}
	.st59{fill:#C2E0E9;}
	.st60{fill:#C3E0E9;}
	.st61{fill:#C4E1E9;}
	.st62{fill:#C5E1E9;}
	.st63{fill:#C6E1E9;}
	.st64{fill:#C7E1E9;}
	.st65{fill:#C8E2E9;}
	.st66{fill:#C8E2EA;}
	.st67{fill:#C9E2EA;}
	.st68{fill:#CAE2EA;}
	.st69{fill:#CBE2EA;}
	.st70{fill:#CCE3EA;}
	.st71{fill:#CDE3EA;}
	.st72{fill:#CEE3EA;}
	.st73{fill:#CFE3EA;}
	.st74{fill:#D0E4EA;}
	.st75{fill:#F39800;stroke:#F39800;stroke-miterlimit:10;}
	.st76{fill:none;stroke:#000000;stroke-width:2;stroke-miterlimit:10;}
	.st77{opacity:0.71;}
	.st78{fill:#E73115;}
	.st79{opacity:0.71;stroke:#000000;stroke-miterlimit:10;}
	.st80{fill:#F8B62D;stroke:#FFF100;stroke-miterlimit:10;}
	.st81{fill:none;stroke:#FFF100;stroke-miterlimit:10;}
</style>
<g id="background_1_">
	<polygon id="XMLID_22_" class="st0" points="2266.1,1.5 1.7,709.2 1.7,1.5 2266.1,1.5 	"/>
</g>
<g id="seperate">
	<polygon id="XMLID_191_" class="st1" points="1435.8,259.6 2266.1,-0.3 2266.1,708.6 1.7,708.6 	"/>
</g>
<g id="dog">
	<g id="XMLID_26_">
		<g id="XMLID_23_">
			<path id="XMLID_41_" class="st2" d="M1558.2,366"/>
			<path id="XMLID_25_" class="st3" d="M1884.3,490.1c-22.8-0.1-45.6,1.1-68.2,3.6l0,0.9c-0.9-5.8-4.7-12.2-11.2-11.9
				c-3.3,0.1-6.7,2-8.6,4.7c-2.7,4-0.7,9.2,1.2,13.1c-0.3,0-0.8,0-1.2,0c-1.8,0-3.8,0.4-5.5,0.9c-2.5,0.8-4.6,2.3-5.7,4.8
				c-1.8,4.2-0.7,10.3,2.9,13.2c2.3,1.8,5.1,2,7.7,1c-0.2,5.9,3.5,12.3,10,12.7c6,0.4,11.7-5.9,10.3-11.8l0.2,2
				c22.4,0.1,44.8-0.5,67.1-1.8"/>
			<path id="尾" class="st4" d="M2127.3,568.8c9.7,0.9,26.8-6.1,25.8-17.8c-0.7-8.5-10.8-14-16-5.1c-0.4-5.8,4.7-9.9,10.2-10.4
				c7.1-0.6,11.2,5,15.1,10.2c19.1,25.4-14.5,63.4-41.8,48.5"/>
		</g>
		<circle id="XMLID_168_" class="st5" cx="1985.9" cy="540" r="137.8"/>
		<path id="XMLID_222_" class="st6" d="M2025,276.8c10-11.8,21.5-22.7,33.7-32.2c4.9-3.8,11.2-6.6,17.2-5.2c3.1,0.8,5.8,2.6,8.5,4.4
			c10.3,7,22.8,14.6,29.9,25.2c5.3,8,5.9,23.9-5.6,26.9c-4.9,1.3-10.3-0.4-14.5-3.3c-4.2-2.9-7.6-6.8-10.9-10.7s-6.9-7.7-11.3-10.2
			c-8.4-4.8-23.9-6.2-32,0.3c-5.8,4.7-7.4,13.1-13.2,17.8"/>
		<path id="XMLID_223_" class="st6" d="M1926.9,298.2c-11.6-10.4-23.7-21.1-38.6-25.8c-21.1-6.6-45.1-5.2-65.5,3.1
			c-20.5,8.3-44.8,28.6-39.8,53.4c0.6,2.8,1.6,5.6,3.6,7.7c4,3.9,10.6,3.5,15.7,1.4c25-10.1,53.1-26.5,66.6-50.7
			c0,0,20.8,4.5,29.1,18.2"/>
		<path id="XMLID_216_" class="st7" d="M1857.6,369.6c-18.9,61,54,104.8,115.9,104.8s118.7-40.7,118.7-104.8s-72.4-116.4-112-116.1
			C1938.7,253.9,1878.1,303.2,1857.6,369.6z"/>
		<path id="XMLID_229_" class="st6" d="M1961.2,435.2c-9.1-5.9-21.7-11.7-28.6-20.2c-3.7-4.6-5.7-11.1-3.3-16.5
			c2.7-6.1,9.7-8.9,16.2-10.1c17.7-3.4,41.6-3.3,57.8,5.3c2.7,1.4,5.5,3.4,6.4,6.3c0.7,2.3,0.3,4.7-0.5,7
			c-2.3,6.9-7.3,12.8-13.3,17.1c-9.3,6.6-20.5,8.9-31.2,12.1c-0.5,12.8,0,25.6-0.4,38.3"/>
		
			<ellipse id="XMLID_230_" transform="matrix(-0.4328 0.9015 -0.9015 -0.4328 3090.3831 -1291.5044)" class="st8" cx="1951.5" cy="326.4" rx="11.7" ry="8.5"/>
		
			<ellipse id="XMLID_231_" transform="matrix(0.2893 0.9572 -0.9572 0.2893 1718.0398 -1661.1835)" class="st9" cx="1977.7" cy="326.4" rx="11.5" ry="7.8"/>
	</g>
</g>
<g id="cat">
	<path id="XMLID_27_" class="st10" d="M301.9,391c-0.2-0.6-0.5-1.2-0.7-1.8c-0.1-0.3-0.2-0.6,0-0.8c0.1-0.1,0.3-0.1,0.5-0.1
		c5.9-0.1,11.9-0.3,17.8-0.4c0.8,0,3.8,12.1,4.2,13.5c0.8,2.9,4.3,10.3,2.8,13.2c-1,2-6.5,1.5-8.2,1.6c-3.8,0.2-7.2,1.2-9.1-2.8
		c-1.6-3.4-2-7.2-3.1-10.8C304.7,398.6,303.4,394.8,301.9,391z"/>
	<g id="XMLID_1_">
		<path id="XMLID_32_" class="st10" d="M263.6,394.7c1.8-0.1,6.8,18.6,7.2,20.7c-7.4,2.6-20.1,0.2-26.9-3.6
			c-5.6-3.2,1.5-10.6,4.9-12.8C253.1,396.1,258.6,395.1,263.6,394.7z"/>
		<path id="XMLID_31_" class="st11" d="M333.7,389.6c2.9-0.2,5.6,0,7.5,2.6c2.5,3.4,4.8,7,6.9,10.7c2.3,4,5.9,7.2,9,10.6
			c-6.4,0.3-12.7,1-19,2c-1.9-5.4-3.8-10.7-5.7-16.1c-0.6-1.7-1.4-3.2-2-4.9c-0.5-1.5-0.6-3.3-1.5-4.6
			C330.4,389.9,332,389.7,333.7,389.6z"/>
		<g id="XMLID_2_">
			<path id="XMLID_3_" class="st10" d="M469.4,144.2c12.9-0.6,25.1,2.1,37.6,4.9c7.4-11.9,25.1-38.9,25.1-38.9s22.5,49.5,33.6,66.6
				c14.7,22.5,30.1,44.8,40,70c12.8,32.7,15.5,69.2,7.7,103.4c-14.6,63.7-76.5,112.8-142.2,109.5"/>
			<path id="XMLID_5_" class="st10" d="M469.4,144.2c-12.1,0.5-22.2,2.5-34,5.1c-7.2-12-24.6-39.2-24.6-39.2s-23.1,49.2-34.4,66.2
				c-14.9,22.3-30.6,44.5-40.8,69.5c-24.2,59.7-14.7,131.3,34,175.8c27.4,25.1,64.6,39,101.7,38"/>
		</g>
		<path id="XMLID_19_" class="st11" d="M280,416.2c-4.2-2.1-4.5-11.5-5.6-15.4c-1.1-3.7-2.7-5.9,0-8.1c3.4-2.9,14.1-3.3,18.6-4.3
			c0.4-0.1,0.8-0.2,1.2,0c0.3,0.2,0.5,0.6,0.6,1c2.6,8.5,6.3,17.1,8.2,25.8c-5.5,2.4-14.8,1.2-20.9,1.4
			C281.3,416.7,280.6,416.5,280,416.2z"/>
		<ellipse id="XMLID_4_" class="st12" cx="471.2" cy="371.6" rx="92.1" ry="82.6"/>
		<path id="XMLID_9_" class="st13" d="M445.9,172.4"/>
		<path id="XMLID_8_" class="st13" d="M397.3,172.4"/>
		<path id="XMLID_12_" class="st13" d="M425.6,166.3c2.7-9,17.3-12.6,32.7-8.1"/>
		<circle id="XMLID_7_" class="st14" cx="445.9" cy="196.1" r="11.2"/>
		<circle id="XMLID_6_" class="st14" cx="478" cy="196.1" r="11.2"/>
		<line id="XMLID_11_" class="st13" x1="359.1" y1="201.3" x2="392.4" y2="217.6"/>
		<line id="XMLID_13_" class="st13" x1="345.3" y1="224.8" x2="392.4" y2="227.1"/>
		<line id="XMLID_14_" class="st13" x1="364.7" y1="255.1" x2="393.5" y2="235.6"/>
		<line id="XMLID_15_" class="st13" x1="548.9" y1="237.2" x2="582.2" y2="253.5"/>
		<line id="XMLID_16_" class="st13" x1="551.2" y1="219.2" x2="579.9" y2="199.7"/>
		<path id="XMLID_18_" class="st13" d="M447.9,227.5c-2.5,4.7-1,11.5,3.8,13.9c4.7,2.4,11.4-1,11.6-6.4c0.6,1.1,0.7,2.3,1,3.5
			c0.7,2.2,1.4,4.5,2.8,6.4c8.2,11.5,18-8.2,13.4-16.4"/>
		<line id="XMLID_20_" class="st2" x1="328.9" y1="387.5" x2="340.1" y2="416.7"/>
		<path id="XMLID_24_" class="st10" d="M591.9,306.7c19.8,0,39.6-1.1,59.3-3.3v-0.8c0.8,5,4.1,10.6,9.8,10.3
			c2.9-0.1,5.8-1.7,7.5-4.1c2.4-3.5,0.6-8-1-11.4c0.3,0,0.7,0,1.1,0c1.6,0,3.3-0.3,4.8-0.8c2.1-0.7,4-2,4.9-4.1
			c1.6-3.7,0.6-8.9-2.5-11.5c-2-1.6-4.4-1.7-6.7-0.9c0.2-5.2-3.1-10.7-8.7-11c-5.3-0.3-10.2,5.1-8.9,10.3l-0.2-1.8
			c-19.5,0-38.9,0.6-58.4,1.7"/>
		<line id="XMLID_17_" class="st13" x1="549.7" y1="226" x2="596.9" y2="228.3"/>
	</g>
	<g id="XMLID_160_">
		<path id="XMLID_161_" class="st15" d="M32,568.6h23.8v11.9h-12v10.1h10.6v11.5H43.8V624H32V568.6z"/>
		<path id="XMLID_171_" class="st15" d="M81,585.8v6.4h0.2c2.7-5,5.5-7.5,8.5-7.5c0.4,0,1,0.1,1.8,0.2v11.8
			c-1.4-0.2-2.6-0.4-3.8-0.4c-4.1,0-6.2,2.9-6.2,8.6V624H70.2v-38.1H81z"/>
		<path id="XMLID_175_" class="st16" d="M118.9,584.5c3.5,0,7.1,0.9,9.8,3.3c3,2.6,4.6,6.6,5.3,10.4c1.4,7,1.2,16-3.5,21.9
			c-2.8,3.5-6.7,5.2-11.6,5.2c-4.7,0-8.5-1.8-11.3-5.3c-2.8-3.6-4.2-8.5-4.2-14.7c0-6.5,1.3-11.6,4-15.3
			C110.1,586.3,114,584.5,118.9,584.5z M119,614.6c1.5,0,2.6-0.7,3.3-2.2c0.7-1.5,1.1-4,1.1-7.5c0-3.5-0.4-6-1.1-7.4
			c-0.7-1.4-1.8-2.1-3.3-2.1c-1.4,0-2.5,0.7-3.3,2.1c-0.8,1.4-1.1,3.9-1.1,7.5C114.7,611.4,116.2,614.6,119,614.6z"/>
		<path id="XMLID_187_" class="st16" d="M160.1,585.8v4.7c3.2-4,6.5-6,9.8-6c4,0,6.6,2.2,7.7,6.6c1.8-2.3,3.5-4,5.1-5
			c1.6-1.1,3.4-1.6,5.5-1.6c5.3,0,7.9,3.9,7.9,11.8V624h-11.3v-22.5c0-3.7-1.1-5.5-3.3-5.5c-2.3,0-3.4,1.8-3.4,5.4V624h-11.3v-23.2
			c0-1.4-0.3-2.6-0.9-3.5c-0.6-0.9-1.4-1.4-2.3-1.4c-1,0-1.8,0.4-2.4,1.3s-0.9,2.1-0.9,3.6V624h-11.3v-38.1H160.1z"/>
		<path id="XMLID_189_" class="st16" d="M237.6,568.6h28.1v12.6h-8.1V624h-11.9v-42.7h-8v-5.3V568.6z"/>
		<path id="XMLID_192_" class="st17" d="M289,585.8v6.4h0.2c2.7-5,5.5-7.5,8.5-7.5c0.4,0,1,0.1,1.8,0.2v11.8
			c-1.4-0.2-2.6-0.4-3.8-0.4c-4.1,0-6.2,2.9-6.2,8.6V624h-11.3v-38.1H289z"/>
		<path id="XMLID_194_" class="st17" d="M331.3,624v-5h-0.2c-1.4,2.2-2.7,3.7-4,4.8c-1.3,1-2.8,1.5-4.5,1.5c-3.4,0-6.1-1.9-8.1-5.6
			c-2-3.7-3-8.7-3-15.1c0-6.1,1-11,3.1-14.6c2-3.6,4.7-5.4,8.1-5.4c1.8,0,3.3,0.5,4.5,1.4c1.2,1,2.5,2.5,3.9,4.6h0.2v-4.8h11.3V624
			H331.3z M331.3,604.7c0-6.3-1.4-9.5-4.3-9.5c-2.9,0-4.4,3.2-4.4,9.5c0,6.6,1.5,9.9,4.5,9.9C329.9,614.6,331.3,611.3,331.3,604.7z"
			/>
		<path id="XMLID_197_" class="st17" d="M360.4,611.7c3.9,2.4,6.6,3.6,8.3,3.6c0.9,0,1.7-0.3,2.3-0.8c0.6-0.5,0.9-1.1,0.9-1.8
			c0-0.8-0.3-1.3-0.8-1.7c-0.5-0.4-2.5-1.3-5.8-2.9c-2.7-1.3-4.6-2.8-5.8-4.5c-1.2-1.7-1.8-3.9-1.8-6.4c0-3.7,1.2-6.7,3.6-9.1
			c2.4-2.4,5.4-3.6,9.1-3.6c3.6,0,7.9,1.5,13.1,4.6l-4.3,8.6c-3.4-2.2-6.1-3.3-8.3-3.3c-1.9,0-2.8,0.8-2.8,2.4c0,0.8,0.3,1.4,1,2
			c0.7,0.6,1.9,1.2,3.7,1.9c3.4,1.3,5.9,2.8,7.4,4.6c1.5,1.8,2.3,4,2.3,6.7c0,3.9-1.2,7-3.6,9.5c-2.4,2.5-5.5,3.7-9.3,3.7
			c-4.1,0-8.5-1.5-13.1-4.6L360.4,611.7z"/>
		<path id="XMLID_199_" class="st17" d="M397.4,565.6h11.3v25.2h0.2c2.8-4.1,6-6.2,9.6-6.2c2.6,0,4.6,0.9,6,2.7
			c1.4,1.8,2.2,4.4,2.2,7.7v29h-11.3v-23.3c0-1.5-0.3-2.7-0.8-3.5c-0.6-0.8-1.3-1.3-2.3-1.3c-2.4,0-3.5,1.7-3.5,5.1V624h-11.3V565.6
			z"/>
		<path id="XMLID_201_" class="st17" d="M467.7,568.6h28.1v12.6h-8.1V624h-11.9v-42.7h-8V568.6z"/>
		<path id="XMLID_203_" class="st17" d="M520.3,584.5c5.1,0,9.1,1.8,11.8,5.5c2.7,3.7,4,8.8,4,15.3c0,6.4-1.4,11.3-4.2,14.8
			c-2.8,3.5-6.7,5.2-11.6,5.2c-4.7,0-8.5-1.8-11.3-5.3c-2.8-3.6-4.2-8.5-4.2-14.7c0-6.5,1.3-11.6,4-15.3
			C511.5,586.3,515.3,584.5,520.3,584.5z M520.4,614.6c1.5,0,2.6-0.7,3.3-2.2c0.7-1.5,1.1-4,1.1-7.5c0-3.5-0.4-6-1.1-7.4
			c-0.7-1.4-1.8-2.1-3.3-2.1c-1.4,0-2.5,0.7-3.3,2.1c-0.8,1.4-1.1,3.9-1.1,7.5C516,611.4,517.5,614.6,520.4,614.6z"/>
		<path id="XMLID_214_" class="st17" d="M575.4,568.6h28.1v12.6h-8.1V624h-11.9v-42.7h-8V568.6z"/>
		<path id="XMLID_217_" class="st17" d="M626.9,585.8v6.4h0.2c2.7-5,5.5-7.5,8.5-7.5c0.4,0,1,0.1,1.8,0.2v11.8
			c-1.4-0.2-2.6-0.4-3.8-0.4c-4.1,0-6.2,2.9-6.2,8.6V624h-11.3v-38.1H626.9z"/>
		<path id="XMLID_219_" class="st17" d="M668.1,612.3h9.5c-1.8,8.6-6.3,12.9-13.6,12.9c-4.5,0-8.1-1.8-10.7-5.5
			c-2.6-3.7-4-8.7-4-15.2c0-6,1.3-10.9,4-14.5c2.6-3.6,6.1-5.5,10.5-5.5c2.6,0,5.2,0.9,7.6,2.6c2.4,1.8,4.2,4.1,5.3,7
			c1.1,2.9,1.7,7.5,1.9,13.7h-18.8c0.2,5.7,1.6,8.5,4.4,8.5c1,0,1.8-0.4,2.6-1.1C667.5,614.5,668,613.5,668.1,612.3z M659.9,601.3
			h8.2c-0.1-2.7-0.4-4.7-1-6c-0.6-1.3-1.6-1.9-2.9-1.9c-1.5,0-2.6,0.6-3.2,1.9C660.3,596.5,659.9,598.5,659.9,601.3z"/>
		<path id="XMLID_224_" class="st17" d="M710.9,624v-5h-0.2c-1.4,2.2-2.7,3.7-4,4.8c-1.3,1-2.8,1.5-4.5,1.5c-3.4,0-6.1-1.9-8.1-5.6
			s-3-8.7-3-15.1c0-6.1,1-11,3.1-14.6c2-3.6,4.7-5.4,8.1-5.4c1.8,0,3.3,0.5,4.5,1.4c1.2,1,2.5,2.5,3.9,4.6h0.2v-4.8h11.3V624H710.9z
			 M710.9,604.7c0-6.3-1.4-9.5-4.3-9.5c-2.9,0-4.4,3.2-4.4,9.5c0,6.6,1.5,9.9,4.5,9.9C709.5,614.6,710.9,611.3,710.9,604.7z"/>
		<path id="XMLID_227_" class="st17" d="M740,611.7c3.9,2.4,6.6,3.6,8.3,3.6c0.9,0,1.7-0.3,2.3-0.8c0.6-0.5,0.9-1.1,0.9-1.8
			c0-0.8-0.3-1.3-0.8-1.7c-0.5-0.4-2.5-1.3-5.8-2.9c-2.7-1.3-4.6-2.8-5.8-4.5c-1.2-1.7-1.8-3.9-1.8-6.4c0-3.7,1.2-6.7,3.6-9.1
			c2.4-2.4,5.4-3.6,9.1-3.6c3.6,0,7.9,1.5,13.1,4.6l-4.3,8.6c-3.4-2.2-6.1-3.3-8.3-3.3c-1.9,0-2.8,0.8-2.8,2.4c0,0.8,0.3,1.4,1,2
			c0.7,0.6,1.9,1.2,3.7,1.9c3.4,1.3,5.9,2.8,7.4,4.6c1.5,1.8,2.3,4,2.3,6.7c0,3.9-1.2,7-3.6,9.5s-5.5,3.7-9.3,3.7
			c-4.1,0-8.5-1.5-13.1-4.6L740,611.7z"/>
		<path id="XMLID_232_" class="st17" d="M776.8,585.8h11.3v24.5c0,1.3,0.3,2.3,0.8,3.2c0.6,0.8,1.3,1.3,2.3,1.3
			c2.2,0,3.3-1.7,3.3-5.1v-23.9h11.3v22.1c0,5.6-1.2,9.9-3.7,12.9c-2.5,3-6,4.5-10.6,4.5c-5.2,0-8.9-1.5-11.2-4.6
			c-2.3-3-3.4-6.8-3.4-11.4V585.8z"/>
		<path id="XMLID_235_" class="st17" d="M832.8,585.8v6.4h0.2c2.7-5,5.5-7.5,8.5-7.5c0.4,0,1,0.1,1.8,0.2v11.8
			c-1.4-0.2-2.6-0.4-3.8-0.4c-4.1,0-6.2,2.9-6.2,8.6V624H822v-38.1H832.8z"/>
		<path id="XMLID_237_" class="st17" d="M874.1,612.3h9.5c-1.8,8.6-6.3,12.9-13.6,12.9c-4.5,0-8.1-1.8-10.7-5.5
			c-2.6-3.7-4-8.7-4-15.2c0-6,1.3-10.9,4-14.5c2.6-3.6,6.1-5.5,10.5-5.5c2.6,0,5.2,0.9,7.6,2.6c2.4,1.8,4.2,4.1,5.3,7
			c1.1,2.9,1.7,7.5,1.9,13.7h-18.8c0.2,5.7,1.6,8.5,4.4,8.5c1,0,1.8-0.4,2.6-1.1C873.5,614.5,874,613.5,874.1,612.3z M865.9,601.3
			h8.2c-0.1-2.7-0.4-4.7-1-6c-0.6-1.3-1.6-1.9-2.9-1.9c-1.5,0-2.6,0.6-3.2,1.9C866.2,596.5,865.9,598.5,865.9,601.3z"/>
	</g>
	<g id="XMLID_30_">
		<path id="XMLID_179_" class="st16" d="M740.5,35.3c0.1-0.6,0.6-1.1,1.6-1.4c1-0.4,2.3-0.7,3.8-0.9c1.6-0.2,3.2-0.3,5.1-0.4
			c1.8,0,3.5,0,5.1,0.1c1.6,0.1,3,0.3,4.1,0.6c1.2,0.2,1.9,0.6,2.2,1c0.9-0.2,1.7-0.3,2.4-0.4c0.8-0.1,1.6-0.1,2.4,0
			c6.1,0.7,11.5,2.2,16.4,4.7c4.8,2.4,9,5.6,12.5,9.6c3.5,3.9,6.1,8.6,8,13.9c1.9,5.3,2.9,11.1,3,17.4c0.1,7.7-0.5,14.7-1.8,21
			c-1.3,6.3-3.5,11.7-6.8,16.3c-3.2,4.6-7.5,8.2-12.9,10.8c-5.4,2.7-12.2,4.1-20.3,4.5c-0.6,0-1.3,0-2.2-0.1c-0.8,0-1.6-0.1-2.4-0.1
			c-0.2,0.4-0.9,0.8-1.9,1.1c-1,0.3-2.3,0.6-3.8,0.8c-1.5,0.2-3.1,0.4-4.8,0.4c-1.7,0.1-3.3,0-4.7-0.2c-1.4-0.2-2.6-0.5-3.6-1
			c-1-0.5-1.5-1.1-1.6-1.9V35.3z M762.6,111.3c3.6-0.1,6.8-0.7,9.8-1.9c2.9-1.2,5.5-2.9,7.5-5.3c2.1-2.4,3.6-5.5,4.7-9.4
			c1-3.9,1.5-8.5,1.3-13.9c-0.2-4.6-1-8.5-2.6-11.6c-1.6-3.1-3.5-5.6-5.8-7.5c-2.3-1.9-4.8-3.2-7.5-4.1c-2.7-0.9-5.2-1.4-7.5-1.6
			V111.3z"/>
		<path id="XMLID_182_" class="st16" d="M923,84.3c0,6.8-0.6,12.7-1.7,17.8c-1.1,5.1-2.7,9.4-4.7,13c-2,3.6-4.3,6.6-6.9,8.9
			c-2.6,2.3-5.5,4.2-8.4,5.5c-3,1.4-6.1,2.3-9.3,2.9c-3.2,0.5-6.3,0.8-9.3,0.9c-4.7,0.2-9.5-0.4-14.6-1.6c-5.1-1.2-9.8-3.5-14-7
			c-4.3-3.5-7.8-8.3-10.6-14.6c-2.8-6.2-4.3-14.3-4.5-24.3c-0.2-10.8,0.9-19.6,3.5-26.6c2.6-6.9,6-12.4,10.3-16.4
			c4.3-4,9.2-6.8,14.7-8.3c5.5-1.5,11.1-2.3,16.6-2.3s10.8,1,15.5,2.9c4.8,1.9,8.9,5,12.3,9.1c3.4,4.1,6.1,9.5,8.1,16.1
			S923,75.1,923,84.3z M861.8,87.6c0.2,3.6,0.8,6.8,1.9,9.8c1.1,3,2.6,5.6,4.4,7.8c1.8,2.2,3.8,3.9,6.1,5.1c2.3,1.2,4.6,1.8,7.1,1.8
			c1.9,0,4-0.4,6.2-1.2c2.2-0.8,4.2-2.2,6-4.2c1.8-2,3.4-4.7,4.6-8.1c1.2-3.4,1.9-7.7,1.9-12.8c0-5.6-0.4-10.4-1.3-14.3
			c-0.9-3.9-2.1-7.1-3.7-9.6c-1.6-2.5-3.5-4.3-5.6-5.5c-2.2-1.2-4.5-1.8-7.1-1.9c-3.3-0.1-6.2,0.7-8.8,2.4c-2.6,1.7-4.8,4-6.6,7
			c-1.8,3-3.1,6.5-4,10.6C861.9,78.6,861.6,82.9,861.8,87.6z"/>
		<path id="XMLID_244_" class="st16" d="M977.2,129.2c0,0.6-0.6,1-1.7,1.4c-1.1,0.3-2.6,0.6-4.3,0.7c-1.7,0.1-3.6,0.1-5.6,0
			c-2-0.1-3.8-0.3-5.6-0.6c-1.7-0.3-3.2-0.6-4.3-1.1c-1.1-0.4-1.7-0.9-1.7-1.5c0.1-15.7,0-31-0.2-45.9c-0.2-14.9-0.3-30-0.3-45.3
			c0-0.7,0.5-1.2,1.4-1.7c0.9-0.5,2.1-0.9,3.6-1.2c1.5-0.3,3.1-0.5,4.8-0.6c1.7-0.1,3.3-0.1,4.9,0.1c1.6,0.1,2.9,0.4,4.1,0.7
			c1.2,0.3,1.9,0.7,2.2,1.2l32,53.6c0-5.3,0-10.1-0.1-14.4c-0.1-4.3-0.2-8.4-0.3-12.5c-0.1-4.1-0.3-8.2-0.5-12.5
			c-0.2-4.3-0.4-9-0.8-14.2c0-0.5,0.6-0.9,1.7-1.2c1.1-0.3,2.6-0.6,4.3-0.7c1.7-0.2,3.6-0.2,5.6-0.2c2,0,3.9,0.1,5.6,0.2
			c1.7,0.2,3.1,0.4,4.3,0.7c1.2,0.3,1.7,0.7,1.7,1.2c0.1,7,0.1,14.6,0.2,22.5c0,8,0.1,16,0.2,24.3c0.1,8.2,0.1,16.4,0.2,24.4
			c0,8.1,0.1,15.7,0.2,22.9c0,0.5-0.5,1-1.4,1.4c-0.9,0.4-2.1,0.7-3.5,1c-1.4,0.2-3,0.4-4.7,0.5c-1.7,0.1-3.3,0.1-4.9,0
			c-1.6-0.1-2.9-0.3-4.1-0.6c-1.2-0.3-1.9-0.7-2.2-1.3c-2.6-4-4.9-7.6-7.2-10.8c-2.2-3.2-4.5-6.6-6.9-10.2
			c-2.4-3.6-4.9-7.5-7.7-11.9c-2.8-4.4-6-9.6-9.5-15.9L977.2,129.2z"/>
		<path id="XMLID_246_" class="st16" d="M1146.2,128.1c0.2,1-0.1,1.9-1.1,2.7c-1,0.8-2.3,1.4-3.8,1.9c-1.6,0.5-3.4,0.7-5.4,0.9
			c-2,0.1-3.9,0.1-5.7-0.1c-1.8-0.2-3.4-0.6-4.7-1.1c-1.4-0.5-2.2-1.3-2.5-2.3c-0.6-1.9-1.2-3.8-1.7-5.7c-0.5-1.9-1-3.9-1.3-5.8
			H1086c-0.4,1.9-0.8,3.8-1.3,5.7c-0.5,1.9-1,3.9-1.5,5.8c-0.3,0.9-1.1,1.7-2.3,2.2c-1.2,0.6-2.7,1-4.4,1.2
			c-1.7,0.2-3.5,0.3-5.4,0.2c-1.9-0.1-3.6-0.4-5.1-0.9s-2.7-1.2-3.6-2.1c-0.9-0.9-1.2-2-0.9-3.4l22.9-88.6c0.2-1.7,1.2-3,3.1-4.1
			c1.9-1.1,4.2-1.9,7-2.4c2.8-0.5,5.7-0.7,9-0.7c3.2,0,6.2,0.2,9,0.6c2.8,0.4,5.1,1,7,1.9c1.9,0.8,3,1.8,3.2,3L1146.2,128.1z
			 M1091.7,94.5h22.4L1103,54.7L1091.7,94.5z"/>
		<path id="XMLID_249_" class="st16" d="M1171.3,54.3c-0.3-1.2-0.6-2.7-0.8-4.5c-0.2-1.8-0.2-3.7-0.2-5.8c0-2.1,0.2-4,0.3-5.8
			c0.2-1.8,0.5-3.3,0.8-4.4c0.3-1.2,0.8-1.7,1.2-1.7h56.7c0.4,0,0.7,0.6,1,1.8c0.3,1.2,0.5,2.7,0.7,4.4c0.2,1.7,0.3,3.7,0.3,5.8
			c0,2.1,0,4-0.2,5.8c-0.2,1.7-0.4,3.2-0.7,4.4c-0.3,1.2-0.7,1.8-1.2,1.8l-17,0.1c0.1,7.5,0.2,14.3,0.2,20.2
			c0.1,5.9,0.2,11.6,0.2,17.2c0.1,5.6,0.2,11.3,0.2,17.2c0.1,5.9,0.2,12.6,0.2,20c-0.1,0.2-0.7,0.5-1.9,0.7
			c-1.2,0.2-2.6,0.4-4.2,0.5c-1.7,0.1-3.5,0.2-5.4,0.2c-1.9,0-3.7-0.1-5.4-0.2c-1.7-0.1-3.1-0.4-4.2-0.7c-1.1-0.3-1.7-0.7-1.8-1.2
			c-0.1-5.1-0.1-9.7-0.2-13.9c0-4.2-0.1-8.2-0.1-12c0-3.8-0.1-7.4-0.1-10.9c0-3.5-0.1-7.2-0.1-10.9c0-3.8-0.1-7.8-0.2-11.9
			c-0.1-4.2-0.1-8.9-0.1-14h-16.9C1172.1,56.2,1171.6,55.5,1171.3,54.3z"/>
		<path id="XMLID_251_" class="st16" d="M1264.1,132.6c-0.5,0-0.9-0.6-1.2-1.8c-0.3-1.2-0.6-2.7-0.8-4.5c-0.2-1.8-0.3-3.8-0.3-5.8
			c0-2.1,0-4,0.2-5.8c0.2-1.8,0.4-3.3,0.8-4.5c0.3-1.2,0.7-1.8,1.3-1.8l20.1-0.1c0-4.8,0-8.8,0-11.9c0-3.1,0-5.8,0-8
			c0-2.2,0-4.3,0.1-6.1c0-1.8,0.1-3.9,0.1-6.1c0-2.2,0-4.9,0-8c0-3.1,0-7.1,0-11.9h-20.3c-0.5,0-1-0.6-1.4-1.7
			c-0.4-1.2-0.7-2.6-0.9-4.4c-0.2-1.7-0.4-3.6-0.5-5.7c-0.1-2,0-3.9,0.2-5.7c0.2-1.7,0.5-3.2,0.9-4.4c0.4-1.2,1-1.7,1.7-1.7h61.8
			c0.5,0,1,0.6,1.3,1.7c0.3,1.2,0.6,2.6,0.8,4.3c0.2,1.7,0.3,3.6,0.2,5.6c0,2-0.2,3.9-0.3,5.7c-0.2,1.7-0.5,3.2-0.9,4.4
			c-0.4,1.2-0.9,1.7-1.5,1.7l-19.2,0.1v52c0.5,0,1.7,0,3.6,0c1.9,0,4,0,6.2-0.1c2.2,0,4.3-0.1,6.2-0.1c1.9,0,3.1,0,3.7,0
			c0.5,0,0.9,0.6,1.2,1.8c0.3,1.2,0.6,2.7,0.8,4.5c0.2,1.8,0.3,3.8,0.4,5.8c0.1,2.1,0.1,4-0.1,5.8c-0.1,1.8-0.3,3.3-0.6,4.5
			c-0.3,1.2-0.7,1.8-1.3,1.8L1264.1,132.6z"/>
		<path id="XMLID_253_" class="st16" d="M1442.7,84.3c0,6.8-0.6,12.7-1.7,17.8c-1.1,5.1-2.7,9.4-4.7,13c-2,3.6-4.3,6.6-6.9,8.9
			c-2.6,2.3-5.5,4.2-8.4,5.5c-3,1.4-6.1,2.3-9.3,2.9c-3.2,0.5-6.3,0.8-9.3,0.9c-4.7,0.2-9.5-0.4-14.6-1.6c-5.1-1.2-9.8-3.5-14-7
			c-4.3-3.5-7.8-8.3-10.6-14.6c-2.8-6.2-4.3-14.3-4.5-24.3c-0.2-10.8,0.9-19.6,3.5-26.6c2.6-6.9,6-12.4,10.3-16.4
			c4.3-4,9.2-6.8,14.7-8.3c5.5-1.5,11.1-2.3,16.6-2.3c5.6,0,10.8,1,15.5,2.9c4.8,1.9,8.9,5,12.3,9.1c3.4,4.1,6.1,9.5,8.1,16.1
			C1441.7,67.1,1442.7,75.1,1442.7,84.3z M1381.5,87.6c0.2,3.6,0.8,6.8,1.9,9.8c1.1,3,2.6,5.6,4.4,7.8c1.8,2.2,3.8,3.9,6.1,5.1
			c2.3,1.2,4.6,1.8,7.1,1.8c1.9,0,4-0.4,6.2-1.2c2.2-0.8,4.2-2.2,6-4.2c1.8-2,3.4-4.7,4.6-8.1c1.2-3.4,1.9-7.7,1.9-12.8
			c0-5.6-0.4-10.4-1.3-14.3c-0.9-3.9-2.1-7.1-3.7-9.6c-1.6-2.5-3.5-4.3-5.6-5.5c-2.2-1.2-4.5-1.8-7.1-1.9c-3.3-0.1-6.2,0.7-8.8,2.4
			c-2.6,1.7-4.8,4-6.6,7c-1.8,3-3.1,6.5-4,10.6C1381.6,78.6,1381.3,82.9,1381.5,87.6z"/>
		<path id="XMLID_256_" class="st16" d="M1496.9,129.2c0,0.6-0.6,1-1.7,1.4c-1.1,0.3-2.6,0.6-4.3,0.7c-1.7,0.1-3.6,0.1-5.6,0
			c-2-0.1-3.8-0.3-5.6-0.6c-1.7-0.3-3.2-0.6-4.3-1.1c-1.1-0.4-1.7-0.9-1.7-1.5c0.1-15.7,0-31-0.2-45.9c-0.2-14.9-0.3-30-0.3-45.3
			c0-0.7,0.5-1.2,1.4-1.7c0.9-0.5,2.1-0.9,3.6-1.2c1.5-0.3,3.1-0.5,4.8-0.6c1.7-0.1,3.3-0.1,4.9,0.1c1.6,0.1,2.9,0.4,4.1,0.7
			c1.2,0.3,1.9,0.7,2.2,1.2l32,53.6c0-5.3,0-10.1-0.1-14.4c-0.1-4.3-0.2-8.4-0.3-12.5c-0.1-4.1-0.3-8.2-0.5-12.5
			c-0.2-4.3-0.4-9-0.8-14.2c0-0.5,0.6-0.9,1.7-1.2c1.1-0.3,2.6-0.6,4.3-0.7c1.7-0.2,3.6-0.2,5.6-0.2c2,0,3.9,0.1,5.6,0.2
			c1.7,0.2,3.1,0.4,4.3,0.7c1.2,0.3,1.7,0.7,1.7,1.2c0.1,7,0.1,14.6,0.2,22.5c0,8,0.1,16,0.2,24.3c0.1,8.2,0.1,16.4,0.2,24.4
			c0,8.1,0.1,15.7,0.2,22.9c0,0.5-0.5,1-1.4,1.4c-0.9,0.4-2.1,0.7-3.5,1c-1.4,0.2-3,0.4-4.7,0.5c-1.7,0.1-3.3,0.1-4.9,0
			c-1.6-0.1-2.9-0.3-4.1-0.6c-1.2-0.3-1.9-0.7-2.2-1.3c-2.6-4-4.9-7.6-7.2-10.8c-2.2-3.2-4.5-6.6-6.9-10.2
			c-2.4-3.6-4.9-7.5-7.7-11.9c-2.8-4.4-6-9.6-9.5-15.9L1496.9,129.2z"/>
	</g>
	<path id="XMLID_240_" class="st16" d="M278.2,622.1l11.3-3.5v-14.2c0,0,0.6-6.8,3.4-7.3c2.8-0.6,2.8-0.7,4.7-0.5
		c1.9,0.3,1.9,0.3,1.9,0.3s0-11.5,0-11.8c0-1-2.5-0.1-4,0.4c-2.2,0.8-6.5,3.9-6.3,6.8c0-0.5-0.1-6.4-0.1-6.4h-10.8V622.1z"/>
	<path id="XMLID_163_" class="st16" d="M311.9,611.5c-0.8-6.4-0.4-13.4,1.7-19c2.9-7.9,10.3-11.8,15.5-4.5c3.5,4.9,2.1,3.9,2.1,3.9
		l-0.1-6.1h11.3v16.1l-11.2,2.8c0,0,0.5-7.3-1.9-8.4c-2.4-1.1-5.2-0.8-5.9,1.8c-0.7,2.6-0.9,10.1-0.9,10.1L311.9,611.5z"/>
	<path id="XMLID_241_" class="st16" d="M357.8,597.1c0.1,0,1.2-5.4,1.4-6c0.9-2.1,2.4-3.8,4.3-5c3-1.8,6.6-2.1,9.9-1.5
		c1.5,0.3,2.9,0.7,4.3,1.2c1,0.4,4.9,2.8,5.7,2.6C383.5,588.4,357.9,597.1,357.8,597.1z"/>
	<polygon id="XMLID_242_" class="st16" points="397.4,584.7 408.7,581.2 408.7,565.6 397.4,565.6 	"/>
</g>
<g id="飯盆">
	<path id="XMLID_51_" class="st18" d="M1422.6,242.4c0,18.7,0,37.5,0,56.2c0,25,13.6,37.9,34.3,46.6c34.7,14.6,72.5,19.6,109.4,15.5
		c30.1-3.3,66.2-8.2,91.2-28.2c3.7-2.9,7.2-6.4,8.9-11.1c1.5-4.1,1.5-8.7,1.4-13.2c-0.3-22-0.6-44-0.6-65.9"/>
	<g id="XMLID_42_">
		<ellipse id="XMLID_34_" class="st19" cx="1546.6" cy="231.7" rx="124.1" ry="72.7"/>
		<ellipse id="XMLID_100_" class="st20" cx="1546.6" cy="231.9" rx="123.5" ry="72"/>
		<ellipse id="XMLID_99_" class="st21" cx="1546.7" cy="232" rx="123" ry="71.3"/>
		<ellipse id="XMLID_98_" class="st22" cx="1546.7" cy="232.1" rx="122.5" ry="70.7"/>
		<ellipse id="XMLID_97_" class="st23" cx="1546.7" cy="232.3" rx="121.9" ry="70"/>
		<ellipse id="XMLID_96_" class="st24" cx="1546.7" cy="232.4" rx="121.4" ry="69.3"/>
		<ellipse id="XMLID_95_" class="st25" cx="1546.7" cy="232.5" rx="120.9" ry="68.7"/>
		<ellipse id="XMLID_94_" class="st26" cx="1546.7" cy="232.6" rx="120.3" ry="68"/>
		<ellipse id="XMLID_93_" class="st27" cx="1546.7" cy="232.8" rx="119.8" ry="67.3"/>
		<ellipse id="XMLID_92_" class="st28" cx="1546.7" cy="232.9" rx="119.2" ry="66.7"/>
		<ellipse id="XMLID_91_" class="st29" cx="1546.8" cy="233" rx="118.7" ry="66"/>
		<ellipse id="XMLID_90_" class="st30" cx="1546.8" cy="233.1" rx="118.2" ry="65.3"/>
		<ellipse id="XMLID_89_" class="st31" cx="1546.8" cy="233.3" rx="117.6" ry="64.7"/>
		<ellipse id="XMLID_88_" class="st32" cx="1546.8" cy="233.4" rx="117.1" ry="64"/>
		<ellipse id="XMLID_87_" class="st33" cx="1546.8" cy="233.5" rx="116.6" ry="63.4"/>
		<ellipse id="XMLID_86_" class="st34" cx="1546.8" cy="233.7" rx="116" ry="62.7"/>
		<ellipse id="XMLID_85_" class="st35" cx="1546.8" cy="233.8" rx="115.5" ry="62"/>
		<ellipse id="XMLID_84_" class="st36" cx="1546.9" cy="233.9" rx="115" ry="61.4"/>
		<ellipse id="XMLID_83_" class="st37" cx="1546.9" cy="234" rx="114.4" ry="60.7"/>
		<ellipse id="XMLID_82_" class="st38" cx="1546.9" cy="234.2" rx="113.9" ry="60"/>
		<ellipse id="XMLID_81_" class="st39" cx="1546.9" cy="234.3" rx="113.4" ry="59.4"/>
		<ellipse id="XMLID_80_" class="st40" cx="1546.9" cy="234.4" rx="112.8" ry="58.7"/>
		<ellipse id="XMLID_79_" class="st41" cx="1546.9" cy="234.5" rx="112.3" ry="58"/>
		<ellipse id="XMLID_78_" class="st42" cx="1546.9" cy="234.7" rx="111.8" ry="57.4"/>
		<ellipse id="XMLID_77_" class="st43" cx="1546.9" cy="234.8" rx="111.2" ry="56.7"/>
		<ellipse id="XMLID_76_" class="st44" cx="1547" cy="234.9" rx="110.7" ry="56"/>
		<ellipse id="XMLID_75_" class="st45" cx="1547" cy="235.1" rx="110.2" ry="55.4"/>
		<ellipse id="XMLID_74_" class="st46" cx="1547" cy="235.2" rx="109.6" ry="54.7"/>
		<ellipse id="XMLID_73_" class="st47" cx="1547" cy="235.3" rx="109.1" ry="54"/>
		<ellipse id="XMLID_72_" class="st48" cx="1547" cy="235.4" rx="108.6" ry="53.4"/>
		<ellipse id="XMLID_71_" class="st49" cx="1547" cy="235.6" rx="108" ry="52.7"/>
		<ellipse id="XMLID_70_" class="st50" cx="1547" cy="235.7" rx="107.5" ry="52.1"/>
		<ellipse id="XMLID_69_" class="st51" cx="1547" cy="235.8" rx="107" ry="51.4"/>
		<ellipse id="XMLID_68_" class="st52" cx="1547.1" cy="236" rx="106.4" ry="50.7"/>
		<ellipse id="XMLID_67_" class="st53" cx="1547.1" cy="236.1" rx="105.9" ry="50.1"/>
		<ellipse id="XMLID_66_" class="st54" cx="1547.1" cy="236.2" rx="105.3" ry="49.4"/>
		<ellipse id="XMLID_65_" class="st55" cx="1547.1" cy="236.3" rx="104.8" ry="48.7"/>
		<ellipse id="XMLID_64_" class="st56" cx="1547.1" cy="236.5" rx="104.3" ry="48.1"/>
		<ellipse id="XMLID_63_" class="st57" cx="1547.1" cy="236.6" rx="103.7" ry="47.4"/>
		<ellipse id="XMLID_62_" class="st58" cx="1547.1" cy="236.7" rx="103.2" ry="46.7"/>
		<ellipse id="XMLID_61_" class="st59" cx="1547.2" cy="236.8" rx="102.7" ry="46.1"/>
		<ellipse id="XMLID_60_" class="st60" cx="1547.2" cy="237" rx="102.1" ry="45.4"/>
		<ellipse id="XMLID_59_" class="st61" cx="1547.2" cy="237.1" rx="101.6" ry="44.7"/>
		<ellipse id="XMLID_58_" class="st62" cx="1547.2" cy="237.2" rx="101.1" ry="44.1"/>
		<ellipse id="XMLID_57_" class="st63" cx="1547.2" cy="237.4" rx="100.5" ry="43.4"/>
		<ellipse id="XMLID_56_" class="st64" cx="1547.2" cy="237.5" rx="100" ry="42.8"/>
		<ellipse id="XMLID_55_" class="st65" cx="1547.2" cy="237.6" rx="99.5" ry="42.1"/>
		<ellipse id="XMLID_54_" class="st66" cx="1547.2" cy="237.7" rx="98.9" ry="41.4"/>
		<ellipse id="XMLID_53_" class="st67" cx="1547.3" cy="237.9" rx="98.4" ry="40.8"/>
		<ellipse id="XMLID_52_" class="st68" cx="1547.3" cy="238" rx="97.9" ry="40.1"/>
		<ellipse id="XMLID_50_" class="st69" cx="1547.3" cy="238.1" rx="97.3" ry="39.4"/>
		<ellipse id="XMLID_49_" class="st70" cx="1547.3" cy="238.2" rx="96.8" ry="38.8"/>
		<ellipse id="XMLID_48_" class="st71" cx="1547.3" cy="238.4" rx="96.3" ry="38.1"/>
		<ellipse id="XMLID_36_" class="st72" cx="1547.3" cy="238.5" rx="95.7" ry="37.4"/>
		<ellipse id="XMLID_35_" class="st73" cx="1547.3" cy="238.6" rx="95.2" ry="36.8"/>
		<ellipse id="XMLID_29_" class="st74" cx="1547.3" cy="238.8" rx="94.7" ry="36.1"/>
	</g>
	<path id="XMLID_164_" class="st18" d="M805.4,416.7c0,19.8,0,39.6,0,59.4c0,26.4,13.4,40.1,33.6,49.3c34,15.4,71.1,20.7,107.3,16.4
		c29.5-3.5,64.9-8.6,89.4-29.8c3.6-3.1,7.1-6.8,8.8-11.7c1.5-4.4,1.5-9.2,1.4-13.9c-0.3-23.2-0.6-46.5-0.6-69.7"/>
	<g id="XMLID_102_">
		<ellipse id="XMLID_33_" class="st19" cx="925.2" cy="406" rx="122.4" ry="72.7"/>
		<ellipse id="XMLID_153_" class="st20" cx="925.2" cy="406.5" rx="121.9" ry="72"/>
		<ellipse id="XMLID_152_" class="st21" cx="925.3" cy="406.9" rx="121.4" ry="71.3"/>
		<ellipse id="XMLID_151_" class="st22" cx="925.3" cy="407.3" rx="120.8" ry="70.7"/>
		<ellipse id="XMLID_150_" class="st23" cx="925.3" cy="407.7" rx="120.3" ry="70"/>
		<ellipse id="XMLID_149_" class="st24" cx="925.3" cy="408.1" rx="119.8" ry="69.3"/>
		<ellipse id="XMLID_148_" class="st25" cx="925.3" cy="408.6" rx="119.3" ry="68.7"/>
		<ellipse id="XMLID_147_" class="st26" cx="925.3" cy="409" rx="118.7" ry="68"/>
		<ellipse id="XMLID_146_" class="st27" cx="925.3" cy="409.4" rx="118.2" ry="67.3"/>
		<ellipse id="XMLID_145_" class="st28" cx="925.3" cy="409.8" rx="117.7" ry="66.7"/>
		<ellipse id="XMLID_144_" class="st29" cx="925.4" cy="410.2" rx="117.1" ry="66"/>
		<ellipse id="XMLID_143_" class="st30" cx="925.4" cy="410.7" rx="116.6" ry="65.3"/>
		<ellipse id="XMLID_142_" class="st31" cx="925.4" cy="411.1" rx="116.1" ry="64.7"/>
		<ellipse id="XMLID_141_" class="st32" cx="925.4" cy="411.5" rx="115.6" ry="64"/>
		<ellipse id="XMLID_140_" class="st33" cx="925.4" cy="411.9" rx="115" ry="63.4"/>
		<ellipse id="XMLID_139_" class="st34" cx="925.4" cy="412.3" rx="114.5" ry="62.7"/>
		<ellipse id="XMLID_138_" class="st35" cx="925.4" cy="412.8" rx="114" ry="62"/>
		<ellipse id="XMLID_137_" class="st36" cx="925.4" cy="413.2" rx="113.5" ry="61.4"/>
		<ellipse id="XMLID_136_" class="st37" cx="925.5" cy="413.6" rx="112.9" ry="60.7"/>
		<ellipse id="XMLID_135_" class="st38" cx="925.5" cy="414" rx="112.4" ry="60"/>
		<ellipse id="XMLID_134_" class="st39" cx="925.5" cy="414.4" rx="111.9" ry="59.4"/>
		<ellipse id="XMLID_133_" class="st40" cx="925.5" cy="414.9" rx="111.3" ry="58.7"/>
		<ellipse id="XMLID_132_" class="st41" cx="925.5" cy="415.3" rx="110.8" ry="58"/>
		<ellipse id="XMLID_131_" class="st42" cx="925.5" cy="415.7" rx="110.3" ry="57.4"/>
		<ellipse id="XMLID_130_" class="st43" cx="925.5" cy="416.1" rx="109.8" ry="56.7"/>
		<ellipse id="XMLID_129_" class="st44" cx="925.5" cy="416.5" rx="109.2" ry="56"/>
		<ellipse id="XMLID_128_" class="st45" cx="925.6" cy="416.9" rx="108.7" ry="55.4"/>
		<ellipse id="XMLID_127_" class="st46" cx="925.6" cy="417.4" rx="108.2" ry="54.7"/>
		<ellipse id="XMLID_126_" class="st47" cx="925.6" cy="417.8" rx="107.6" ry="54"/>
		<ellipse id="XMLID_125_" class="st48" cx="925.6" cy="418.2" rx="107.1" ry="53.4"/>
		<ellipse id="XMLID_124_" class="st49" cx="925.6" cy="418.6" rx="106.6" ry="52.7"/>
		<ellipse id="XMLID_123_" class="st50" cx="925.6" cy="419" rx="106.1" ry="52.1"/>
		<ellipse id="XMLID_122_" class="st51" cx="925.6" cy="419.5" rx="105.5" ry="51.4"/>
		<ellipse id="XMLID_121_" class="st52" cx="925.7" cy="419.9" rx="105" ry="50.7"/>
		<ellipse id="XMLID_120_" class="st53" cx="925.7" cy="420.3" rx="104.5" ry="50.1"/>
		<ellipse id="XMLID_119_" class="st54" cx="925.7" cy="420.7" rx="104" ry="49.4"/>
		<ellipse id="XMLID_118_" class="st55" cx="925.7" cy="421.1" rx="103.4" ry="48.7"/>
		<ellipse id="XMLID_117_" class="st56" cx="925.7" cy="421.6" rx="102.9" ry="48.1"/>
		<ellipse id="XMLID_116_" class="st57" cx="925.7" cy="422" rx="102.4" ry="47.4"/>
		<ellipse id="XMLID_115_" class="st58" cx="925.7" cy="422.4" rx="101.8" ry="46.7"/>
		<ellipse id="XMLID_114_" class="st59" cx="925.7" cy="422.8" rx="101.3" ry="46.1"/>
		<ellipse id="XMLID_113_" class="st60" cx="925.8" cy="423.2" rx="100.8" ry="45.4"/>
		<ellipse id="XMLID_112_" class="st61" cx="925.8" cy="423.7" rx="100.3" ry="44.7"/>
		<ellipse id="XMLID_111_" class="st62" cx="925.8" cy="424.1" rx="99.7" ry="44.1"/>
		<ellipse id="XMLID_110_" class="st63" cx="925.8" cy="424.5" rx="99.2" ry="43.4"/>
		<ellipse id="XMLID_109_" class="st64" cx="925.8" cy="424.9" rx="98.7" ry="42.8"/>
		<ellipse id="XMLID_108_" class="st65" cx="925.8" cy="425.3" rx="98.2" ry="42.1"/>
		<ellipse id="XMLID_103_" class="st66" cx="925.8" cy="425.8" rx="97.6" ry="41.4"/>
		<ellipse id="XMLID_101_" class="st67" cx="925.8" cy="426.2" rx="97.1" ry="40.8"/>
		<ellipse id="XMLID_45_" class="st68" cx="925.9" cy="426.6" rx="96.6" ry="40.1"/>
		<ellipse id="XMLID_44_" class="st69" cx="925.9" cy="427" rx="96" ry="39.4"/>
		<ellipse id="XMLID_43_" class="st70" cx="925.9" cy="427.4" rx="95.5" ry="38.8"/>
		<ellipse id="XMLID_39_" class="st71" cx="925.9" cy="427.9" rx="95" ry="38.1"/>
		<ellipse id="XMLID_38_" class="st72" cx="925.9" cy="428.3" rx="94.5" ry="37.4"/>
		<ellipse id="XMLID_37_" class="st73" cx="925.9" cy="428.7" rx="93.9" ry="36.8"/>
		<ellipse id="XMLID_21_" class="st74" cx="925.9" cy="429.1" rx="93.4" ry="36.1"/>
	</g>
</g>
<g id="fish">
	<path id="XMLID_212_" class="st75" d="M1030.8,428.3c-182,10-180.6-111.3-180.6-111.3s156.2-15.8,113.4,151.8"/>
	<g id="XMLID_165_">
		<line id="XMLID_186_" class="st16" x1="716.7" y1="156.2" x2="1138.5" y2="156.2"/>
		<path id="XMLID_185_" class="st16" d="M716.7,156.2c0,0,26.4-0.1,65.9-0.3c39.5-0.1,92.3-0.1,145-0.2c52.7,0.1,105.4,0.2,145,0.2
			c39.5,0.2,65.9,0.3,65.9,0.3s-26.4,0.1-65.9,0.3c-39.5,0.1-92.3,0.1-145,0.2c-52.7-0.1-105.4-0.2-145-0.2
			C743.1,156.4,716.7,156.2,716.7,156.2z"/>
	</g>
	<g id="XMLID_166_">
		<path id="XMLID_206_" class="st16" d="M959.8,184.9c0,0,4.1,0,11.4-0.1c7.3,0,17.6-0.1,30.1-0.2c24.9-0.1,58.1-0.1,91.3-0.2
			c33.2,0.1,66.4,0.2,91.3,0.2c12.4,0,22.8,0.1,30.1,0.2c7.3,0.1,11.4,0.1,11.4,0.1s-4.1,0-11.4,0.1c-7.3,0-17.6,0.2-30.1,0.2
			c-24.9,0.1-58.1,0.1-91.3,0.2c-33.2-0.1-66.4-0.2-91.3-0.2c-12.4-0.1-22.8-0.1-30.1-0.2C963.9,184.9,959.8,184.9,959.8,184.9z"/>
	</g>
	<path id="XMLID_211_" class="st76" d="M865,367.3c0,0,32.6,16.1,61.6-36.5"/>
	<g id="XMLID_169_">
		<g id="XMLID_287_">
			<path id="XMLID_291_" d="M867.2,338.4c6.4,0,6.4-10,0-10C860.7,328.4,860.7,338.4,867.2,338.4L867.2,338.4z"/>
		</g>
	</g>
	<g id="XMLID_10_">
		<path id="XMLID_282_" class="st17" d="M1558.2,492.5c0,0-4.4,0-12.2,0.1c-7.8,0-18.8,0.1-32.1,0.2c-26.6,0.1-62.1,0.1-97.5,0.2
			c-35.5-0.1-70.9-0.2-97.5-0.2c-13.3-0.1-24.4-0.1-32.1-0.2c-7.8-0.1-12.2-0.1-12.2-0.1s4.4,0,12.2-0.1c7.8,0,18.8-0.1,32.1-0.2
			c26.6-0.1,62.1-0.1,97.5-0.2c35.5,0.1,70.9,0.2,97.5,0.2c13.3,0.1,24.4,0.1,32.1,0.2C1553.7,492.4,1558.2,492.5,1558.2,492.5z"/>
	</g>
	<g id="XMLID_167_">
		<path id="XMLID_209_" class="st17" d="M1345.1,456.4c0,0,22.4-0.1,55.9-0.3c33.5-0.1,78.2-0.1,122.9-0.2
			c44.7,0.1,89.4,0.2,122.9,0.2c33.5,0.2,55.9,0.3,55.9,0.3s-22.4,0.1-55.9,0.3c-33.5,0.1-78.2,0.1-122.9,0.2
			c-44.7-0.1-89.4-0.2-122.9-0.2C1367.5,456.5,1345.1,456.4,1345.1,456.4z"/>
	</g>
	<path id="XMLID_162_" class="st77" d="M802.8,457.1l236.6-74.7c0,0,7.5,8.4,7.2,46.7c-0.3,38.2-1.5,71.2-1.5,71.2s0.2,18.6-38,28.5
		c-38.1,9.8-48.4,16.8-82.8,14.5c-34.4-2.3-75.3-8-92.1-20.1c-16.8-12.1-29.5-21.8-29.5-36.9C802.8,471.2,802.8,457.1,802.8,457.1z"
		/>
</g>
<g id="bone">
	<path id="XMLID_172_" class="st15" d="M1544.9,271.4c0.1,1.7,1.8,2.8,3.1,6.8c2.4,7.3-2.6,18-10.2,20.3
		c-10.5,3.1-15.8-11.3-13.8-19.7c-1.3,5.3-14.5,2.3-17.4,0.8c-10-5.1-8.1-19.8,2.8-23.1c1.6-0.5,9.8-2.7,14.5,1.1
		c3.5,2.8,35.4-40.3,37.9-43.5c15.6-20.3,30.9-40.8,46.1-61.5c0.6-0.8,2.1-2.2,2.3-3.1c0.8-3.3-4.1-9.5-4.4-13.9
		c-0.2-3,0.1-6.1,1.5-8.7c2.3-4.6,7.5-7.3,12.6-7.2c7.6,0.1,15,5.9,17.2,13.1c2.4,7.7,0.8,1.7,0.7,1.6c-0.5-1.8,10,2.4,10.7,2.9
		c3.7,3.1,6.2,7.8,6.3,12.7c0.1,8.4-7.1,16.9-15.8,16.8c-8.2-0.1-10.3-3.4-10.3-3.4c-13.6,17.2-27.2,34.3-40.7,51.5
		c-8.8,11.1-17.6,22.3-26.4,33.4c-4.7,6-9.9,11.7-14.2,18C1545.5,268.8,1544.8,270.2,1544.9,271.4z"/>
	<g id="圖層_10">
		<path id="XMLID_234_" class="st78" d="M1600.1,146.4c9.7,1.6,19,6.2,25.6,13.4c10,10.9,16.1,35.2,2.4,46
			c-4.1,3.2-7.9,4.9-12.9,5.8c-2.5,0.4-4.7,1.9-6.9,3.4c-2.1,1.4-4.2,2.9-5.6,5.1c-1,1.7-1.5,3.8-1.8,5.7c-2.2,11.4-1.4,23.9-7.5,34
			c-1.6,2.6-3.2,5.3-5.6,7.2c-5.5,4.7-13.4,4.7-20.3,5.2c-4.3,0.3-21.7,3.2-22.5-4.3c-0.1-0.6,0.1-1.3,0.3-1.9
			c0.7-2.7,1.4-5.4,2.1-8.1c0.2-0.6,0.3-1.3-0.1-1.8c-0.2-0.3-0.5-0.4-0.8-0.6c-4-2.1-8.9-5.8-13.5-5.7c-0.6,0-1.1,0.2-1.7,0.4
			c-1.7,0.7-3.4,1.3-5.1,2c-0.7,0.3-1.5,0.6-2.3,0.6c-6.6,0.2-9.3-11.5-10-16c-0.6-3.8-1.3-7.6-1.9-11.5c-0.3-1.8-0.6-3.6-0.3-5.5
			c0.5-3.2,2.7-5.8,5-8c3.9-3.8,8.3-7.1,13-9.9c6.9-4,13.4-6.5,18.5-12.9c4.8-6,7.6-13.7,7.3-21.4c-0.1-2.5-0.4-5,0.6-7.3
			c2.4-5.4,10.4-8.5,15.4-10.5c6.9-2.8,14.3-4.3,21.7-4.1C1595.7,145.8,1597.9,146,1600.1,146.4z"/>
	</g>
	<path id="XMLID_173_" class="st79" d="M1423.6,262.8l226.7-71c0,0-14.1-12.5-14.1-13.9c0-3.1-4.1-10.1-4.1-10.1s6.4,3,18.4-4.5
		c5.9-3.7,6.6-13.5,4.4-20c-2.9-8.5-16.4-10.9-16.4-10.9s-5.9-14.5-18.4-14.4c-8.4,0-18.2,10.2-15.6,17.7
		c4.1,11.6,5.5,11.3,5.5,11.3s0.7-1.6-14.5-2.8c-15.9-1.2-28,5.1-31.8,7.5s-6.2,5.4-6.2,5.4s-24.7-1.6-48,3.1
		c-19.3,3.9-49.5,16-55.4,21.9c-5.9,5.9-7.4,4.2-14.4,12.8c-1.2,1.4-7.3,5.6-9.2,11.5c-0.6,1.8-5.4,8.7-6.8,18.4
		c-1.7,12.4,0,28.6,0,36.2V262.8z"/>
</g>
<g id="delicious">
	<g id="XMLID_154_">
		<circle id="XMLID_155_" class="st80" cx="872.9" cy="382.5" r="23.9"/>
		<line id="XMLID_156_" class="st81" x1="856.1" y1="363.7" x2="890.7" y2="398.4"/>
		<line id="XMLID_157_" class="st81" x1="890.8" y1="366.1" x2="854.3" y2="398.9"/>
		<line id="XMLID_158_" class="st81" x1="873.4" y1="359.2" x2="873.4" y2="405.7"/>
		<line id="XMLID_159_" class="st81" x1="850.4" y1="381.1" x2="895.5" y2="381.1"/>
	</g>
	<g id="XMLID_178_">
	</g>
	<g id="XMLID_258_">
	</g>
	<g id="XMLID_259_">
	</g>
	<g id="XMLID_260_">
	</g>
	<g id="XMLID_261_">
	</g>
	<g id="XMLID_262_">
	</g>
</g>
</svg>
