<?xml version="1.0" encoding="utf-8"?>
<!-- Generator: Adobe Illustrator 19.0.0, SVG Export Plug-In . SVG Version: 6.00 Build 0)  -->
<svg version="1.1" xmlns="http://www.w3.org/2000/svg" xmlns:xlink="http://www.w3.org/1999/xlink" x="0px" y="0px"
	 viewBox="0 0 2267.7 470.6" style="enable-background:new 0 0 2267.7 470.6;" xml:space="preserve">
<style type="text/css">
	.st0{fill:#D4E9F0;}
	.st1{stroke:#000000;stroke-miterlimit:10;}
	.st2{fill:#234563;}
	.st3{fill:#F7931E;}
	.st4{fill:#68BEE5;}
	.st5{fill:#154563;stroke:#154563;stroke-width:4;stroke-miterlimit:10;}
	.st6{opacity:0.14;}
	.st7{fill:#29ABE2;}
	.st8{fill:#234563;stroke:#234563;stroke-miterlimit:10;}
	.st9{fill:#0071BC;}
	.st10{fill:#3FA9F5;}
	.st11{fill:none;stroke:#000000;stroke-width:2;stroke-miterlimit:10;}
	.st12{fill:#FF0000;stroke:#FF0000;stroke-miterlimit:10;}
</style>
<g id="background">
	<rect id="background_1_" x="-0.7" y="0.1" class="st0" width="2267.7" height="470.6"/>
</g>
<g id="hand">
	<path id="HAND1" class="st1" d="M1568.2,332.2c-8.5-5.3-18-8.5-25.6-15.1c-3.2-2.8-6.5-5.6-9.7-8.5c-2.3-2-4.6-4-7.6-4.9
		c-4.1-1.2-8.8-0.8-13-1.8c-5.6-1.2-14.6-6.8-16.8-3.3c-2.5,4,8.4,10.2,13.3,13.9c-3.5-2.6-10.1,0.4-13.6,1.5
		c-6.1,1.9-12.6,2.1-18.9,1.2c-7.9-1.1-15.4-3.7-22.8-6.3c-3.1-1.1-11.9-7.8-15-4.3c-4.9,5.7,23.2,19,27.4,20.7
		c12.2,5,25.5,7.7,38.9,7.6c5.6,0,10.9-0.8,16.4,0.3c6.3,1.2,12.1,3.9,17.7,6.7c2.6,1.3,5.2,2.7,7.1,4.8"/>
	<path id="hand2" class="st1" d="M508.3,337.4c8-5.3,17-8.5,24.2-15.1c3.1-2.8,6.1-5.6,9.2-8.5c2.2-2,4.4-4,7.2-4.9
		c3.9-1.2,8.3-0.8,12.3-1.8c5.3-1.2,13.8-6.8,15.9-3.3c2.4,4-8,10.2-12.6,13.9c3.3-2.6,9.5,0.4,12.8,1.5c5.8,1.9,11.9,2.1,17.9,1.2
		c7.4-1.1,14.6-3.7,21.6-6.3c2.9-1.1,11.3-7.8,14.2-4.3c4.7,5.7-22,19-25.9,20.7c-11.6,5-24.2,7.7-36.8,7.6
		c-5.3,0-10.3-0.8-15.5,0.3c-5.9,1.2-11.5,3.9-16.8,6.7c-2.5,1.3-4.9,2.7-6.8,4.8"/>
</g>
<g id="word">
	<g id="XMLID_89_">
		<path id="XMLID_62_" class="st2" d="M1632.3,374.3V251.1h2.7l82,94.4v-94.4h12.1v123.2h-2.8L1645,281v93.3H1632.3z"/>
		<g id="XMLID_56_">
			<path id="XMLID_61_" class="st2" d="M1638.3,374.3c0-35.9,0-71.8,0-107.7c0-5.2,0-10.3,0-15.5c-2,2-4,4-6,6c0.9,0,1.8,0,2.7,0
				c-1.4-0.6-2.8-1.2-4.2-1.8c23.9,27.6,47.8,55.1,71.8,82.7c3.4,3.9,6.8,7.8,10.2,11.8c3.5,4,10.2,0.7,10.2-4.2c0-27.5,0-55,0-82.6
				c0-4,0-7.9,0-11.9c-2,2-4,4-6,6c4,0,8.1,0,12.1,0c-2-2-4-4-6-6c0,35.9,0,71.8,0,107.7c0,5.2,0,10.3,0,15.5c2-2,4-4,6-6
				c-0.9,0-1.8,0-2.8,0c1.4,0.6,2.8,1.2,4.2,1.8c-23.7-27.2-47.5-54.5-71.2-81.7c-3.4-3.9-6.7-7.7-10.1-11.6
				c-3.5-4-10.2-0.7-10.2,4.2c0,27.2,0,54.4,0,81.6c0,3.9,0,7.8,0,11.7c2-2,4-4,6-6c-4.2,0-8.5,0-12.7,0c-7.7,0-7.7,12,0,12
				c4.2,0,8.5,0,12.7,0c3.2,0,6-2.7,6-6c0-27.2,0-54.4,0-81.6c0-3.9,0-7.8,0-11.7c-3.4,1.4-6.8,2.8-10.2,4.2
				c24.6,28.2,49.2,56.4,73.8,84.6c2.1,2.4,4.1,4.8,6.2,7.2c2.4,2.6,4.7,3.3,8.3,3.3c3.2,0,6-2.7,6-6c0-35.9,0-71.8,0-107.7
				c0-5.2,0-10.3,0-15.5c0-3.2-2.7-6-6-6c-4,0-8.1,0-12.1,0c-3.2,0-6,2.7-6,6c0,27.5,0,55,0,82.6c0,4,0,7.9,0,11.9
				c3.4-1.4,6.8-2.8,10.2-4.2c-24.8-28.6-49.7-57.2-74.5-85.8c-2.1-2.4-4.1-4.8-6.2-7.1c-2.3-2.5-4.6-3.3-8.2-3.3c-3.2,0-6,2.7-6,6
				c0,35.9,0,71.8,0,107.7c0,5.2,0,10.3,0,15.5C1626.3,382,1638.3,382.1,1638.3,374.3z"/>
		</g>
	</g>
	<path id="XMLID_86_" class="st3" d="M600.9,174c33.6,0,61.8,11.2,84.4,33.7c22.7,22.4,34,50.1,34,82.9c0,32.5-11.3,60.1-33.9,82.7
		c-22.6,22.6-50.2,34-82.7,34c-32.9,0-60.7-11.3-83.4-33.8c-22.7-22.5-34-49.8-34-81.8c0-21.3,5.2-41.1,15.5-59.3
		c10.3-18.2,24.4-32.5,42.2-42.8C560.9,179.2,580.1,174,600.9,174z M601.9,195.6c-16.4,0-32,4.3-46.7,12.8
		c-14.7,8.6-26.2,20.1-34.5,34.6c-8.3,14.5-12.4,30.7-12.4,48.5c0,26.4,9.1,48.7,27.4,66.8c18.3,18.2,40.3,27.3,66.1,27.3
		c17.2,0,33.2-4.2,47.8-12.5c14.7-8.4,26.1-19.8,34.3-34.3c8.2-14.5,12.3-30.6,12.3-48.3c0-17.6-4.1-33.6-12.3-47.8
		c-8.2-14.2-19.8-25.7-34.7-34.2C634.4,199.9,618.6,195.6,601.9,195.6z"/>
	<g id="XMLID_84_">
		<path id="XMLID_71_" d="M1280.5,248.7h12.8v128h-12.8V248.7z"/>
		<g id="XMLID_64_">
			<path id="XMLID_70_" d="M1280.5,254.7c4.3,0,8.5,0,12.8,0c-2-2-4-4-6-6c0,37.4,0,74.8,0,112.1c0,5.3,0,10.6,0,15.9c2-2,4-4,6-6
				c-4.3,0-8.5,0-12.8,0c2,2,4,4,6,6c0-37.4,0-74.8,0-112.1c0-5.3,0-10.6,0-15.9c0-7.7-12-7.7-12,0c0,37.4,0,74.8,0,112.1
				c0,5.3,0,10.6,0,15.9c0,3.2,2.7,6,6,6c4.3,0,8.5,0,12.8,0c3.2,0,6-2.7,6-6c0-37.4,0-74.8,0-112.1c0-5.3,0-10.6,0-15.9
				c0-3.2-2.7-6-6-6c-4.3,0-8.5,0-12.8,0C1272.7,242.7,1272.7,254.7,1280.5,254.7z"/>
		</g>
	</g>
	<g id="XMLID_82_">
		<path id="XMLID_99_" class="st2" d="M1125.8,260.8v-12.3h68.7v12.3h-28V374h-12.8V260.8H1125.8z"/>
		<g id="XMLID_73_">
			<path id="XMLID_98_" class="st2" d="M1131.8,260.8c0-4.1,0-8.2,0-12.3c-2,2-4,4-6,6c22.9,0,45.8,0,68.7,0c-2-2-4-4-6-6
				c0,4.1,0,8.2,0,12.3c2-2,4-4,6-6c-9.3,0-18.6,0-28,0c-3.2,0-6,2.7-6,6c0,33,0,66,0,99c0,4.7,0,9.4,0,14.1c2-2,4-4,6-6
				c-4.3,0-8.5,0-12.8,0c2,2,4,4,6,6c0-33,0-66,0-99c0-4.7,0-9.4,0-14.1c0-3.2-2.7-6-6-6c-9.3,0-18.6,0-28,0c-7.7,0-7.7,12,0,12
				c9.3,0,18.6,0,28,0c-2-2-4-4-6-6c0,33,0,66,0,99c0,4.7,0,9.4,0,14.1c0,3.2,2.7,6,6,6c4.3,0,8.5,0,12.8,0c3.2,0,6-2.7,6-6
				c0-33,0-66,0-99c0-4.7,0-9.4,0-14.1c-2,2-4,4-6,6c9.3,0,18.6,0,28,0c3.2,0,6-2.7,6-6c0-4.1,0-8.2,0-12.3c0-3.2-2.7-6-6-6
				c-22.9,0-45.8,0-68.7,0c-3.2,0-6,2.7-6,6c0,4.1,0,8.2,0,12.3C1119.8,268.6,1131.8,268.6,1131.8,260.8z"/>
		</g>
	</g>
	<g id="XMLID_77_">
		<path id="XMLID_66_" class="st2" d="M760.6,364.5V241.3h2.7l82,94.4v-94.4h12.1v123.2h-2.8l-81.3-93.3v93.3H760.6z"/>
		<g id="XMLID_48_">
			<path id="XMLID_55_" class="st2" d="M766.6,364.5c0-35.9,0-71.8,0-107.7c0-5.2,0-10.3,0-15.5c-2,2-4,4-6,6c0.9,0,1.8,0,2.7,0
				c-1.4-0.6-2.8-1.2-4.2-1.8c23.9,27.6,47.8,55.1,71.8,82.7c3.4,3.9,6.8,7.8,10.2,11.8c3.5,4,10.2,0.7,10.2-4.2c0-27.5,0-55,0-82.6
				c0-4,0-7.9,0-11.9c-2,2-4,4-6,6c4,0,8.1,0,12.1,0c-2-2-4-4-6-6c0,35.9,0,71.8,0,107.7c0,5.2,0,10.3,0,15.5c2-2,4-4,6-6
				c-0.9,0-1.8,0-2.8,0c1.4,0.6,2.8,1.2,4.2,1.8c-23.7-27.2-47.5-54.5-71.2-81.7c-3.4-3.9-6.7-7.7-10.1-11.6
				c-3.5-4-10.2-0.7-10.2,4.2c0,27.2,0,54.4,0,81.6c0,3.9,0,7.8,0,11.7c2-2,4-4,6-6c-4.2,0-8.5,0-12.7,0c-7.7,0-7.7,12,0,12
				c4.2,0,8.5,0,12.7,0c3.2,0,6-2.7,6-6c0-27.2,0-54.4,0-81.6c0-3.9,0-7.8,0-11.7c-3.4,1.4-6.8,2.8-10.2,4.2
				c24.6,28.2,49.2,56.4,73.8,84.6c2.1,2.4,4.1,4.8,6.2,7.2c2.4,2.6,4.7,3.3,8.3,3.3c3.2,0,6-2.7,6-6c0-35.9,0-71.8,0-107.7
				c0-5.2,0-10.3,0-15.5c0-3.2-2.7-6-6-6c-4,0-8.1,0-12.1,0c-3.2,0-6,2.7-6,6c0,27.5,0,55,0,82.6c0,4,0,7.9,0,11.9
				c3.4-1.4,6.8-2.8,10.2-4.2c-24.8-28.6-49.7-57.2-74.5-85.8c-2.1-2.4-4.1-4.8-6.2-7.1c-2.3-2.5-4.6-3.3-8.2-3.3c-3.2,0-6,2.7-6,6
				c0,35.9,0,71.8,0,107.7c0,5.2,0,10.3,0,15.5C754.6,372.2,766.6,372.2,766.6,364.5z"/>
		</g>
	</g>
	<path id="XMLID_74_" class="st3" d="M1466.1,177c32.8,0,60.2,10.9,82.3,32.8c22.1,21.9,33.1,48.8,33.1,80.7c0,31.7-11,58.5-33,80.6
		c-22,22.1-48.9,33.1-80.6,33.1c-32.1,0-59.2-11-81.2-32.9c-22.1-22-33.1-48.5-33.1-79.7c0-20.8,5-40,15.1-57.8
		c10.1-17.7,23.8-31.6,41.1-41.7C1427.1,182,1445.9,177,1466.1,177z M1467.1,198c-16,0-31.2,4.2-45.5,12.5
		c-14.3,8.3-25.5,19.6-33.6,33.7c-8.1,14.1-12.1,29.9-12.1,47.2c0,25.7,8.9,47.4,26.7,65.1c17.8,17.7,39.3,26.6,64.4,26.6
		c16.8,0,32.3-4.1,46.6-12.2c14.3-8.1,25.4-19.3,33.4-33.4c8-14.1,12-29.8,12-47.1c0-17.2-4-32.7-12-46.6c-8-13.9-19.3-25-33.8-33.3
		C1498.8,202.2,1483.4,198,1467.1,198z"/>
</g>
<g id="d">
	<g id="D">
		<path id="XMLID_11_" class="st4" d="M168.1,105.5c0-20.4,16.5-36.9,36.9-36.9h60.6c39.8,0,69.4,5.8,88.9,17.3
			c19.5,11.5,37,29.7,52.4,54.6c15.4,24.9,23.2,56.4,23.2,94.5c0,47.9-13.5,87.9-40.5,120C362.6,387,325.4,403,278,403h-73.2
			c-20.3,0-36.8-16.5-36.8-36.8V105.5z"/>
	</g>
</g>
<g id="puzzle_1_">
	<g id="puzzle">
		<path id="XMLID_4_" class="st5" d="M208.6,185.6c-2.1,12.6-1.9,25.7-2.2,38.4c-0.3,15.9-0.3,31.9-0.2,47.8
			c0,7.5-1.3,15.3,0.3,22.8c1.1,5.1,6,8.2,10.7,9.5c3.4,0.9,7,1.1,10.5,1c4.9-0.1,9.8,0.1,14.6,0.2c4.5,0.1,9.1-0.1,13.6,0.3
			c2.1,0.2,5.7,0.2,7.5-1.2c1.8-1.3,1.6-4.1,1.9-6.2c0.8-5.2-0.7-10.5-6.1-12.5c-3.8-1.4-9.5-0.4-12.4-3.8c-3.4-4,0.1-8,4.1-9.3
			c1.7-0.6,9.9-2.1,5.5-4.6c-7-4-12.4-9.5-9.6-14c2.8-4.5,14.6,3.4,14.6,3.4s-4.5-9.3,1.2-13.3s11.5,8.9,11.7,8.5
			c3-5,10-12.8,13.8-3.5c1.5,3.7-0.1,9.2-1.2,12.9c3.9-1.4,8.6-4.4,12.8-3.1c6.1,1.9,3.1,8.5,0.8,12.3c-2.6,4.2-7.9,6-10.7,10.3
			c-3.4,5.2-4,11.6-2.6,17.6c0.2,0.9,1,2.7,1.7,4.3c0.8,1.7,2.4,2.9,4.3,2.9c15.6,0.3,28.5,0.5,30.7,0.4c4.6-0.2,9.5-1.4,11.9-5.8
			c6.1-11.4,3.2-27.6,2-39.9c-0.7-7.4,5.7-7.9,11.2-5.7c2.7,1,5.4,2.6,7.5,4.5c3.4,3.2,5.1,7.8,9.4,10c3.6,1.9,9.8,2.3,10.8-2.7
			c0.8-3.9-1-8.1-2.3-11.7c-0.1-0.1,0.1-0.2,0.2-0.1c2.6,2.4,10.2,1.5,12.7-0.1c7.2-4.7,0-10.1-4.6-12.8c-0.4-0.2,12.5-6.1,8.5-11.8
			c-4-5.7-13.3-1.1-13.3-1.1s7.8-11.9,3.3-14.6s-8.1,0-12.6,6.7c-4.5,6.7-5.4,3.4-6,2.6c-1.8-2.6-3.4-10.6-6.7-10.1
			c-4.7,0.7-4.5,5.6-5.5,9.2c-1.2,4.3-4.5,9.9-9.5,10.2c-5.2,0.3-3.5-4.7-3.2-9.1c1.3-16.4,6.1-39-5.6-52.9c-4-4.8-10.1-6.4-16.1-7
			c-8.4-0.9-17-0.3-25.5-0.1l-54.5,0C236.4,164.3,212.2,163.6,208.6,185.6"/>
	</g>
	<g id="XMLID_1_" class="st6">
		<g id="puzzle_8_">
			<path id="XMLID_5_" class="st7" d="M1304.5,52.7c-6.7,17.3-10.4,36.1-14.5,54.1c-5.2,22.6-10,45.4-14.6,68.1
				c-2.2,10.8-6.4,21.4-6.4,32.5c0,7.6,6.1,13.5,12.5,16.7c4.6,2.3,9.6,3.6,14.6,4.5c7,1.2,13.9,3.1,20.8,4.6
				c6.4,1.5,12.9,2.6,19.2,4.5c2.9,0.9,8,2,11.1,0.6c2.9-1.4,3.5-5.4,4.6-8.2c2.7-7.2,2.1-15.2-4.9-19.6c-5-3.2-13.4-3.4-16.5-9.1
				c-3.6-6.8,2.6-11.4,8.6-12.1c2.6-0.3,14.7,0,9.2-4.9c-8.8-7.8-14.8-17.3-9.5-22.8s19.8,9.2,19.8,9.2s-3.7-14.6,5.7-18.6
				c9.3-4,13.7,16.2,14.2,15.7c5.8-6.2,18.1-15.3,20.8-0.9c1.1,5.8-2.9,13-5.5,18c5.9-0.9,13.5-3.8,19.2-0.5
				c8,4.6,1.9,13.1-2.5,17.8c-4.9,5.1-13,6.2-18.2,11.5c-6.4,6.5-9.1,15.3-9,24.3c0,1.3,0.7,4.1,1.2,6.6c0.6,2.7,2.6,4.8,5.3,5.4
				c22.2,5.1,40.4,9.2,43.6,9.7c6.6,1,14,0.8,18.7-4.7c12.1-14.5,12.8-38.4,14.8-56.2c1.2-10.8,10.5-9.5,17.7-4.8
				c3.5,2.3,6.9,5.2,9.3,8.7c3.9,5.5,5,12.6,10.4,17.1c4.5,3.7,13.2,6.2,16.2-0.6c2.4-5.3,1-11.8,0.2-17.3c0-0.2,0.2-0.3,0.4-0.1
				c3,4.2,14.1,5.2,18,3.7c11.6-4.5,2.9-14.4-2.8-19.7c-0.5-0.5,19.6-5,15.6-14.3c-4-9.3-18.6-5.5-18.6-5.5s14.6-14.6,9.1-19.9
				c-5.6-5.2-11.5-2.4-19.9,5.8c-8.3,8.2-8.7,3.2-9.3,1.9c-1.8-4.3-1.7-16.2-6.5-16.4c-6.9-0.4-8.1,6.7-10.6,11.5
				c-3,5.8-9.4,12.8-16.5,11.7c-7.6-1.1-3.6-7.8-1.8-14c6.7-23.1,20.3-53.8,7.8-77.1c-4.3-8-12.5-12.2-20.9-14.8
				c-11.8-3.7-24.1-5.5-36.3-7.7l-77.7-16.3C1350.5,30.6,1316.1,22.5,1304.5,52.7"/>
		</g>
		<g id="puzzle_7_">
			<path id="XMLID_3_" class="st8" d="M1231.9,98c-5.8-11.4-13.7-21.8-21.1-32.2c-9.2-13-18.7-25.8-28.2-38.6
				c-4.5-6-8.1-13.1-13.7-18.1c-3.9-3.5-9.7-3-14.3-1.2c-3.3,1.3-6.3,3.3-9,5.4c-3.8,3-7.9,5.7-11.9,8.5c-3.7,2.6-7.3,5.4-11.1,7.8
				c-1.8,1.1-4.7,3.2-5.4,5.4c-0.6,2.1,1.1,4.3,2.1,6.1c2.4,4.7,6.8,8,12.3,6.5c3.9-1.1,7.8-5.3,12.2-4.3c5.1,1.2,4.6,6.5,2.3,9.9
				c-1,1.5-6.7,7.5-1.7,7c8-0.9,15.6,0.3,16,5.6s-13.8,6-13.8,6s9.2,4.8,6.9,11.4c-2.2,6.6-14.6-0.4-14.5,0.1
				c0.5,5.8-0.4,16.3-9.1,11c-3.4-2.1-5.3-7.5-6.7-11.1c-2.3,3.4-4.3,8.7-8.5,10.1c-6,2-7.6-5-8-9.4c-0.4-4.9,2.8-9.5,2.5-14.6
				c-0.4-6.2-3.7-11.7-8.4-15.7c-0.7-0.6-2.4-1.5-3.9-2.4c-1.6-0.9-3.7-0.9-5.2,0.2c-12.8,9.1-23.2,16.5-24.9,17.9
				c-3.6,2.9-6.8,6.8-6.1,11.7c1.9,12.8,13.8,24.1,22,33.3c5,5.6,0.1,9.7-5.6,11.3c-2.8,0.8-5.8,1.1-8.7,0.8
				c-4.6-0.5-8.7-3.2-13.5-2.5c-4,0.6-9.2,3.9-7.1,8.6c1.6,3.6,5.6,5.9,8.8,8c0.1,0.1,0,0.3-0.1,0.2c-3.5-0.4-9.1,4.8-10.1,7.6
				c-3,8,6,8.1,11.4,7.6c0.5,0-6.4,12.3,0.2,14.5c6.6,2.2,11.3-7,11.3-7s0.8,14.2,6,13.7c5.2-0.5,6.5-4.8,6.1-12.9
				c-0.4-8,2.4-5.9,3.3-5.6c3,1,9.1,6.5,11.4,4.2c3.3-3.4,0.3-7.2-1.1-10.7c-1.6-4.2-2.3-10.6,1.6-13.8c4-3.4,5.6,1.7,8,5.5
				c8.7,14,18.3,35,36,39.3c6.1,1.5,12-0.9,17.2-3.9c7.3-4.3,13.9-9.8,20.6-15l43.9-32.4C1222.2,131.6,1242,117.8,1231.9,98"/>
		</g>
		<g id="puzzle_2_">
			<path id="XMLID_6_" class="st7" d="M897.6,195.8c7.3,2.9,15.1,4.4,22.7,6.2c9.5,2.2,19,4.2,28.6,6.2c4.5,0.9,9,2.7,13.6,2.7
				c3.2,0,5.7-2.7,7.1-5.5c1-2,1.6-4.2,2-6.4c0.6-3.1,1.3-6.1,2-9.1c0.6-2.8,1.2-5.7,2-8.4c0.4-1.3,0.9-3.5,0.3-4.9
				c-0.6-1.3-2.2-1.5-3.4-2c-3-1.2-6.4-0.9-8.3,2.2c-1.4,2.2-1.5,5.9-3.9,7.2c-2.9,1.6-4.8-1.1-5-3.7c-0.1-1.1,0.1-6.4-2-4
				c-3.3,3.8-7.3,6.5-9.6,4.2c-2.3-2.3,3.9-8.7,3.9-8.7s-6.2,1.6-7.8-2.4c-1.6-4.1,6.9-6,6.7-6.2c-2.6-2.5-6.3-7.9-0.3-9.1
				c2.4-0.5,5.5,1.2,7.5,2.4c-0.3-2.6-1.5-5.9-0.1-8.4c2-3.5,5.5-0.9,7.5,1c2.1,2.1,2.5,5.7,4.7,7.9c2.7,2.8,6.4,4,10.2,3.8
				c0.6,0,1.7-0.3,2.8-0.5c1.1-0.3,2-1.2,2.3-2.3c2.2-9.7,4-17.7,4.3-19.1c0.5-2.9,0.4-6.1-1.9-8.1c-6-5.2-16.1-5.5-23.6-6.3
				c-4.5-0.5-3.9-4.6-2-7.7c1-1.6,2.2-3,3.7-4.1c2.3-1.7,5.3-2.2,7.2-4.6c1.6-2,2.7-5.8-0.2-7.1c-2.2-1-5-0.4-7.3,0
				c-0.1,0-0.1-0.1-0.1-0.2c1.8-1.3,2.3-6.2,1.6-7.9c-1.9-5.1-6-1.2-8.3,1.3c-0.2,0.2-2-8.5-5.9-6.8c-3.9,1.8-2.4,8.1-2.4,8.1
				s-6.1-6.3-8.3-3.9c-2.2,2.5-1.1,5,2.4,8.7c3.4,3.6,1.3,3.8,0.8,4c-1.8,0.8-6.8,0.8-6.9,2.9c-0.2,3,2.8,3.5,4.8,4.6
				c2.4,1.3,5.3,4,4.9,7.2c-0.5,3.3-3.3,1.6-5.9,0.8c-9.7-2.9-22.5-8.7-32.4-3.2c-3.4,1.9-5.2,5.5-6.3,9.2
				c-1.6,5.1-2.4,10.6-3.4,15.9l-7.2,34C888.5,175.7,884.9,190.7,897.6,195.8"/>
		</g>
		<g id="puzzle_3_">
			<path id="XMLID_24_" class="st9" d="M732.6,222c-2.5-0.9-5.3-1.4-7.9-1.9c-3.3-0.7-6.6-1.3-10-1.8c-1.6-0.3-3.1-0.8-4.8-0.8
				c-1.1,0-1.9,0.9-2.4,1.9c-0.3,0.7-0.5,1.4-0.6,2.1c-0.2,1-0.4,2-0.6,3c-0.2,0.9-0.3,1.9-0.6,2.8c-0.1,0.4-0.3,1.2,0,1.6
				c0.2,0.4,0.8,0.5,1.2,0.6c1.1,0.4,2.2,0.2,2.8-0.8c0.4-0.7,0.4-2,1.3-2.4c1-0.6,1.7,0.3,1.8,1.2c0.1,0.4,0.1,2.1,0.8,1.3
				c1.1-1.3,2.5-2.2,3.3-1.5c0.8,0.7-1.3,2.9-1.3,2.9s2.1-0.6,2.7,0.7s-2.3,2.1-2.2,2.1c0.9,0.8,2.3,2.6,0.2,3
				c-0.8,0.2-1.9-0.4-2.6-0.7c0.2,0.9,0.6,2,0.2,2.8c-0.6,1.2-1.9,0.3-2.6-0.3c-0.8-0.7-1-1.9-1.7-2.6c-1-0.9-2.3-1.3-3.6-1.2
				c-0.2,0-0.6,0.1-1,0.2c-0.4,0.1-0.7,0.4-0.8,0.8c-0.6,3.2-1.2,5.9-1.2,6.4c-0.1,1-0.1,2,0.8,2.7c2.2,1.7,5.6,1.7,8.2,1.9
				c1.6,0.1,1.4,1.5,0.8,2.5c-0.3,0.5-0.7,1-1.2,1.4c-0.8,0.6-1.8,0.8-2.4,1.6c-0.5,0.7-0.8,1.9,0.2,2.4c0.8,0.3,1.7,0.1,2.5,0
				c0,0,0,0,0,0.1c-0.6,0.5-0.7,2.1-0.5,2.6c0.7,1.7,2.1,0.4,2.8-0.5c0.1-0.1,0.8,2.8,2.1,2.2s0.7-2.7,0.7-2.7s2.2,2.1,2.9,1.2
				s0.3-1.7-0.9-2.9c-1.2-1.2-0.5-1.3-0.3-1.3c0.6-0.3,2.3-0.3,2.4-1c0-1-1-1.1-1.7-1.5c-0.9-0.4-1.9-1.3-1.8-2.4
				c0.1-1.1,1.1-0.6,2-0.3c3.4,0.9,7.9,2.7,11.2,0.8c1.1-0.7,1.7-1.9,2.1-3.1c0.5-1.7,0.7-3.5,1-5.3l2-11.4
				C736,228.6,737.1,223.6,732.6,222"/>
		</g>
		<g id="puzzle_4_">
			<path id="XMLID_25_" class="st2" d="M751.4,196.9c5.1,4.5,11.1,8.2,16.7,11.9c7.1,4.7,14.3,9.2,21.5,13.7
				c3.4,2.1,6.5,4.9,10.3,6.4c2.6,1,5.4-0.4,7.3-2.2c1.4-1.3,2.5-2.8,3.4-4.4c1.3-2.2,2.8-4.4,4.2-6.5c1.3-2,2.6-4.1,4-6
				c0.7-0.9,1.7-2.5,1.6-3.7c-0.1-1.2-1.4-1.9-2.2-2.6c-2.1-1.9-5-2.7-7.4-0.8c-1.7,1.3-2.9,4.2-5.2,4.5c-2.8,0.4-3.6-2.3-3.1-4.5
				c0.2-0.9,1.9-5-0.5-3.8c-3.8,2-7.8,2.9-9,0.3s5.7-5.6,5.7-5.6s-5.5-0.6-5.7-4.3c-0.2-3.7,7.3-2.6,7.2-2.9
				c-1.4-2.8-2.9-8.2,2.4-7.2c2.1,0.4,4.1,2.7,5.5,4.2c0.5-2.1,0.4-5.1,2.3-6.7c2.6-2.2,4.8,1,5.8,3.1c1.1,2.3,0.5,5.3,1.6,7.7
				c1.4,3,4.1,5.1,7.2,6.2c0.5,0.2,1.5,0.3,2.4,0.4c1,0.2,2-0.3,2.5-1.1c4.6-7,8.3-12.7,8.9-13.7c1.2-2.1,2.1-4.7,0.8-7
				c-3.4-6-11.5-9.3-17.4-12.3c-3.5-1.8-1.9-4.8,0.6-6.7c1.2-0.9,2.7-1.7,4.2-2.1c2.4-0.6,5-0.1,7.2-1.4c1.9-1.1,3.8-3.7,1.9-5.7
				c-1.5-1.5-3.9-1.9-5.9-2.3c-0.1,0-0.1-0.1,0-0.1c1.8-0.5,3.6-4.2,3.6-5.7c-0.1-4.6-4.6-2.9-7.1-1.6c-0.2,0.1,0.8-7.4-2.9-7.2
				c-3.7,0.2-4.3,5.7-4.3,5.7s-3.1-6.9-5.7-5.7c-2.5,1.2-2.3,3.6-0.6,7.6c1.7,3.9,0,3.4-0.5,3.4c-1.7,0.1-5.8-1.5-6.5,0.1
				c-1,2.3,1.3,3.6,2.6,5.1c1.6,1.8,3.2,4.8,1.9,7.2c-1.3,2.5-3.1,0.2-5-1.2c-7.1-5.3-15.9-13.8-25.5-12.5c-3.3,0.5-5.8,2.8-7.8,5.3
				c-2.8,3.6-5,7.6-7.3,11.5l-15.5,24.6C749.7,178.3,742.6,189,751.4,196.9"/>
		</g>
		<g id="puzzle_5_">
			<path id="XMLID_26_" class="st10" d="M638.9,204.9c-1.4,4-2.2,8.2-3.1,12.4c-1.1,5.2-2.1,10.3-3,15.5c-0.5,2.5-1.4,4.9-1.3,7.4
				c0,1.7,1.5,3,2.9,3.7c1,0.5,2.2,0.8,3.3,1c1.6,0.3,3.2,0.6,4.7,1c1.5,0.3,3,0.5,4.4,0.9c0.7,0.2,1.8,0.4,2.5,0.1
				c0.7-0.3,0.8-1.2,1-1.9c0.6-1.6,0.4-3.5-1.2-4.4c-1.2-0.7-3.1-0.7-3.8-2c-0.8-1.5,0.5-2.6,1.9-2.8c0.6-0.1,3.3-0.1,2.1-1.2
				c-2-1.7-3.4-3.9-2.3-5.1c1.2-1.3,4.5,2,4.5,2s-0.9-3.3,1.2-4.2s3.2,3.6,3.3,3.5c1.3-1.4,4-3.5,4.7-0.3c0.3,1.3-0.6,3-1.2,4.1
				c1.3-0.2,3.1-0.9,4.4-0.2c1.8,1,0.5,3-0.5,4c-1.1,1.2-2.9,1.5-4.1,2.7c-1.4,1.5-2,3.5-1.9,5.6c0,0.3,0.2,0.9,0.3,1.5
				c0.1,0.6,0.6,1.1,1.2,1.2c5.1,1.1,9.2,1.9,9.9,2c1.5,0.2,3.2,0.1,4.2-1.2c2.7-3.3,2.7-8.8,3.1-12.8c0.2-2.5,2.3-2.2,4-1.2
				c0.8,0.5,1.6,1.2,2.2,1.9c0.9,1.2,1.2,2.8,2.4,3.8c1,0.8,3,1.4,3.7-0.2c0.5-1.2,0.2-2.7,0-3.9c0,0,0.1-0.1,0.1,0
				c0.7,0.9,3.2,1.1,4.1,0.8c2.6-1.1,0.6-3.3-0.7-4.5c-0.1-0.1,4.4-1.2,3.5-3.3c-1-2.1-4.2-1.2-4.2-1.2s3.3-3.4,2-4.6
				s-2.6-0.5-4.5,1.4c-1.9,1.9-2,0.8-2.1,0.5c-0.4-1-0.5-3.7-1.5-3.7c-1.6-0.1-1.8,1.6-2.4,2.7c-0.6,1.3-2.1,2.9-3.7,2.7
				c-1.7-0.2-0.8-1.8-0.5-3.2c1.4-5.3,4.4-12.3,1.4-17.5c-1-1.8-2.9-2.7-4.8-3.3c-2.7-0.8-5.5-1.2-8.3-1.6l-17.7-3.4
				C649.3,199.7,641.5,198,638.9,204.9"/>
		</g>
		<g id="puzzle_6_">
			<path id="XMLID_27_" class="st7" d="M681.4,293.2c1-2.7,1.5-5.5,2.1-8.3c0.7-3.5,1.4-6.9,2.1-10.4c0.3-1.6,0.9-3.3,0.9-5
				c0-1.2-1-2-2-2.5c-0.7-0.4-1.5-0.5-2.3-0.7c-1.1-0.2-2.2-0.4-3.3-0.7c-1-0.2-2.1-0.4-3.1-0.7c-0.5-0.1-1.3-0.3-1.8-0.1
				c-0.5,0.2-0.5,0.8-0.7,1.3c-0.4,1.1-0.3,2.3,0.9,3c0.8,0.5,2.1,0.5,2.7,1.4c0.6,1-0.4,1.7-1.3,1.9c-0.4,0.1-2.3,0-1.4,0.8
				c1.4,1.2,2.4,2.6,1.6,3.5c-0.8,0.9-3.2-1.4-3.2-1.4s0.6,2.2-0.8,2.8c-1.5,0.6-2.2-2.5-2.3-2.4c-0.9,1-2.8,2.4-3.3,0.2
				c-0.2-0.9,0.4-2,0.8-2.8c-0.9,0.1-2.1,0.6-3,0.1c-1.3-0.7-0.4-2,0.3-2.7c0.8-0.8,2-1,2.9-1.8c1-1,1.4-2.3,1.3-3.7
				c0-0.2-0.1-0.6-0.2-1c-0.1-0.4-0.4-0.7-0.9-0.8c-3.5-0.7-6.4-1.4-7-1.4c-1.1-0.1-2.2-0.1-2.9,0.7c-1.9,2.2-1.9,5.9-2.1,8.6
				c-0.2,1.6-1.6,1.5-2.8,0.8c-0.6-0.3-1.1-0.8-1.5-1.3c-0.6-0.8-0.8-1.9-1.7-2.6c-0.7-0.6-2.1-0.9-2.6,0.1c-0.4,0.8-0.1,1.8,0,2.6
				c0,0,0,0-0.1,0c-0.5-0.6-2.3-0.8-2.9-0.5c-1.8,0.7-0.4,2.2,0.5,3c0.1,0.1-3.1,0.8-2.4,2.2c0.7,1.4,3,0.8,3,0.8s-2.3,2.2-1.4,3
				s1.8,0.4,3.1-0.9c1.3-1.3,1.4-0.5,1.5-0.3c0.3,0.6,0.3,2.5,1.1,2.5c1.1,0,1.3-1,1.6-1.8c0.4-0.9,1.4-2,2.6-1.8
				c1.2,0.2,0.6,1.2,0.3,2.1c-1,3.5-3,8.2-0.9,11.8c0.7,1.2,2,1.8,3.4,2.2c1.9,0.6,3.8,0.8,5.8,1.1l12.4,2.4
				C674.2,296.7,679.7,297.9,681.4,293.2"/>
		</g>
	</g>
</g>
<g id="dimond_2_">
	<g id="dimond_1_">
		<g id="dimond">
			<g id="XMLID_20_">
				<polygon id="XMLID_22_" class="st11" points="1266.4,159.3 1286.2,159.3 1308.4,159.3 1323.5,172.4 1288.3,220.7 1252.9,172.5 
									"/>
				<path id="XMLID_23_" class="st11" d="M1260.5,171.7l27.7-13.5l27.9,13.4l-0.4,10.3l-10.7-9.9c0,0-0.1,0-0.1,0l-16.4,47.8
					c-0.1,0.2-0.3,0.2-0.4,0l-14.6-47.9L1260.5,171.7z"/>
				<path id="XMLID_28_" class="st11" d="M1266.6,158.3l21.6,13.5l20.2-13.6c0,0,0-0.1,0-0.1l-41.7,0
					C1266.6,158.2,1266.6,158.3,1266.6,158.3z"/>
				<path id="XMLID_29_" class="st11" d="M1252.9,171.7h6.9h3.2h8.6h1.7l42.7,0.1l-15.6,12.8l-11.8-12.4c-0.3-0.3-0.7-0.3-1,0
					l-10.3,13l-16.9-13.3c-0.1-0.1-0.3,0-0.3,0.2l0.3,9.5l12.9-9.9"/>
			</g>
			<line id="XMLID_17_" class="st11" x1="1323.9" y1="172.3" x2="1315.9" y2="172.3"/>
		</g>
		<line id="XMLID_21_" class="st11" x1="1250.8" y1="133" x2="1261.1" y2="143.3"/>
		<line id="XMLID_30_" class="st11" x1="1286.9" y1="122.3" x2="1286.9" y2="140.3"/>
		<path id="XMLID_52_" class="st11" d="M1308.4,141.3"/>
		<line id="XMLID_50_" class="st11" x1="1322.6" y1="132.3" x2="1314.8" y2="142.9"/>
	</g>
</g>
<g id="trash_1_">
	<g id="trash">
		<g id="XMLID_79_">
			<path id="XMLID_106_" d="M965.9,283.2c-6.3-0.7-11.8-5.8-13-12.1c-1.5-7.6,3.1-13,7.4-18.6c-3.2-3.7-6.5-7.8-2.7-12.7
				c3.3-4.3,8.3-1.8,12.6-3.3c-0.7-5-5.7-13.9,2.1-16c4.7-1.3,9.7,0.9,14.5,0.4c-5.7-4.8-0.4-14.9,5.9-15.8
				c3.9-0.5,7.4,1.5,11.2,1.7c1.8,0.1,5-1.6,6.4-0.7c1.2,0.8,2.3,4.7,2.9,6c5.8,12.2,11.5,24.3,17.3,36.5
				c8.4,17.7,16.7,35.3,25.1,53c7.7,16.2,15.4,32.5,23,48.7c2.6,5.5,5.2,11,7.8,16.5c0.6,1.2,4.2,6.7,3.8,8c0,0.1,0.1,0.3,0.2,0.4
				c-6.2,0-12.3,0-18.5,0c-3-6.3-6.1-12.5-9.1-18.8c-4.8-9.9-9.7-19.9-14.5-29.8c-1.1-2.3-2.2-4.6-3.4-6.9c-8.3,0-16.6,0-24.9,0
				c-13.3,0-26.5,0-39.8,0c-3,0-6.1,0-9.1,0c-3,6.3-6,12.5-9,18.8c-4.8,10-9.6,20-14.4,29.9c-1.1,2.3-2.2,4.6-3.3,6.9
				c-6.4,0-12.7,0-19.1,0c9.3-19.5,18.7-39,28-58.5c15.7-32.8,31.4-65.6,47.2-98.4c1.7-3.6,3.4-7.1,5.1-10.7"/>
			<g id="XMLID_47_">
				<path id="XMLID_105_" d="M967.5,277.4c-4.5-0.8-8.6-3.7-8.9-8.6c-0.3-5,4-9.5,6.8-13.3c1.7-2.2,0.6-5.4-0.9-7.3
					c-1.4-1.7-4.1-4.1-1-5.2c2.4-0.8,5.7-0.1,8.3-0.8c3.3-0.9,4.8-4.2,4.2-7.4c-0.3-1.6-2.9-7.6-2.1-8.8c-0.4,0.6,3,0.1,4,0.2
					c3,0.3,5.8,0.8,8.9,0.7c5.1-0.3,8.1-6.4,4.2-10.2c-1.5-1.5,0-4.3,1.7-5.2c2.9-1.6,8,1.4,11.2,1.4c0.6,0,4.7-0.2,4.9-0.9
					c-2.4-2.1-3.2-2.4-2.4-0.9c0.2,0.6,0.5,1.3,0.7,2c1.4,3.7,3.3,7.2,5,10.8c8.7,18.4,17.4,36.8,26.1,55.2
					c8.7,18.5,17.5,36.9,26.2,55.4c4.3,9.1,8.6,18.1,12.9,27.2c1.6,3.5,3.2,7,5.1,10.3c1.7,2.9,1.5,3.5,2.8,6.3c1.7-3,3.5-6,5.2-9
					c-6.2,0-12.3,0-18.5,0c1.7,1,3.5,2,5.2,3c-9-18.5-18-37-27-55.6c-0.9-1.9-3.2-3-5.2-3c-24.6,0-49.2,0-73.8,0c-2,0-4.3,1.1-5.2,3
					c-8.9,18.5-17.8,37-26.7,55.6c1.7-1,3.5-2,5.2-3c-6.4,0-12.7,0-19.1,0c1.7,3,3.5,6,5.2,9c26.8-55.8,53.6-111.7,80.3-167.5
					c3.3-6.9-7-13-10.4-6.1c-26.8,55.8-53.5,111.7-80.3,167.5c-1.9,4,0.4,9,5.2,9c6.4,0,12.7,0,19.1,0c2,0,4.3-1.1,5.2-3
					c8.9-18.5,17.8-37,26.7-55.6c-1.7,1-3.5,2-5.2,3c24.6,0,49.2,0,73.8,0c-1.7-1-3.5-2-5.2-3c9,18.5,18,37,27,55.6
					c0.9,1.9,3.2,3,5.2,3c6.2,0,12.3,0,18.5,0c4.8,0,7.1-5,5.2-9c0.2,0.5,1.5,4.4,0.4,0.6c-0.1-0.4-0.2-0.8-0.4-1.1
					c-0.4-1.3-1.1-2.6-1.8-3.8c-1.6-3-3.2-5.9-4.6-8.9c-4-8.4-7.9-16.7-11.9-25.1c-8.3-17.6-16.7-35.2-25-52.8
					c-8-17-16.1-34-24.1-50.9c-3.6-7.7-7.5-15.3-10.7-23.1c-1.2-2.8-2.6-5.4-5.6-6.5c-3.1-1.1-5.8,0.6-8.8,0.4
					c-4.5-0.3-8.4-2.4-13.1-1.1c-3.3,0.9-6.1,3.2-8.1,5.9c-4.5,6-4.9,14.2,0.6,19.6c1.4-3.4,2.8-6.8,4.2-10.2
					c-7.7,0.4-18.1-3.5-23.1,4.8c-3.5,5.8-0.3,12.3,0.8,18.3c1.4-2.5,2.8-4.9,4.2-7.4c-3,0.8-6.2,0.1-9.2,1
					c-3.4,0.9-6.2,3.5-7.9,6.5c-3.7,6.9,0.1,13.2,4.6,18.5c-0.3-2.4-0.6-4.8-0.9-7.3c-5.4,7.1-10.2,14.6-7.9,23.9
					c2,8,9,14.2,17,15.6C971.8,290.2,975.1,278.7,967.5,277.4L967.5,277.4z"/>
			</g>
		</g>
		<path id="XMLID_13_" d="M1001.8,201.5c-11.7-5.8-26.4-27.9-26.4-27.9l14.9,3.6c0,0,1.8-8.5,1.9-13.2c0.1-1.9,0.1-1.9,0.1-1.9
			l10.4,9.8c0,0,2.9-6,3.4-6.6c1.2-1.5,3.7-4.4,3.7-4.4l3,9.4l9.2-8.7l4,9.6l9-4l-3,10l10.3,2.5c0,0-17.8,13.5-26.7,21.1"/>
		<path id="XMLID_16_" class="st1" d="M1020.5,202.3c5.2-1.6,11.6,0.4,15.8,3.6c5.2,4,5.2,9.4,2.5,15c0.5-1,9.5,4.3,10.3,5.1
			c4.4,4.3,3.4,10.7,1.8,16.1c0.1-0.3,6.8,3.4,7.5,4c5.4,4.6,2,11.8,0.3,17.3c-0.1,0.4,6.2,3.6,6.9,4.1c2.2,1.5,4.1,3.5,4.5,6.1
			c1,5.9-4.4,12.2-9.6,14.2"/>
	</g>
</g>
<g id="love_1_">
	<g id="love">
		<path id="XMLID_18_" class="st12" d="M631.4,295.8c9.2-6.9,18.4-15.5,23.9-25.8c2.4-4.4,4.1-9.8,2.2-14.7
			c-2.2-5.6-7.5-7.9-13.2-6.2c-5.8,1.7-11.3,6.7-12.8,12.6"/>
		<path id="XMLID_10_" class="st12" d="M631.3,295.8c-7-5.4-13.6-11.6-18.9-18.6c-5.2-6.8-13-21.6-2.4-27.6
			c5.2-2.9,11.8-0.1,15.8,3.5c2.6,2.3,4.7,5.2,5.6,8.6"/>
	</g>
</g>
<g id="from_trash_to_treasure">
	<g id="XMLID_15_">
		<path id="XMLID_14_" class="st1" d="M1554.8,107.2c0.3-3.1,0.4-5.5,0.5-7.4c0.2-3.1,0.3-7.6,0.5-13.3c0.1-4.3,0.2-7.3,0.2-9.1
			l0-2.2c4.2,0,7.9,0,11,0l6.1,0l3.7,0c-0.2,2.3-0.2,4-0.3,5.1l-3.1-0.1l-1.3,0l-1.7,0l-3.3,0l-4.5,0l-0.2,8.4l3.7,0.1
			c2.8,0,4.7,0,5.5,0l3-0.1c-0.1,1.8-0.2,3.5-0.2,5c-2.5-0.1-4.6-0.1-6.1-0.1c-1.9,0-4,0-6.2,0.1l-0.2,10.3l0,2.1l0,1.2l-3.4,0
			C1558.3,107.2,1557,107.2,1554.8,107.2z"/>
		<path id="XMLID_31_" class="st1" d="M1589,107.1l0.6-11.1l0.2-6.5c0-1.3,0-2.7,0-4c0-0.2,0-1,0-2.2c1.4,0,2.4,0,3,0
			c0.7,0,1.7,0,3-0.1l-0.1,3.3c0.6-0.8,1-1.5,1.4-1.9c0.4-0.4,0.8-0.8,1.3-1.1c0.5-0.3,1-0.5,1.6-0.7c0.6-0.2,1.2-0.2,1.8-0.2
			c0.6,0,1.2,0.1,1.8,0.2c0,1.5,0.1,3.3,0.2,5.5c-0.9-0.2-1.6-0.4-2.3-0.4c-0.8,0-1.6,0.1-2.2,0.4c-0.6,0.3-1.2,0.7-1.8,1.2
			c-0.5,0.6-0.9,1.2-1.3,2.1c-0.3,0.7-0.5,1.5-0.6,2.6c-0.1,0.8-0.2,2.2-0.3,4.2c-0.1,2-0.1,3.9-0.1,5.8c0,0.7,0,1.7,0.1,2.8
			c-1.1,0-2.1,0-3.1,0C1591.3,107.1,1590.3,107.1,1589,107.1z"/>
		<path id="XMLID_33_" class="st1" d="M1627.4,82.7c1.7,0,3.3,0.3,4.8,0.8c1.5,0.5,2.9,1.3,3.9,2.4s1.9,2.3,2.4,3.9
			c0.5,1.5,0.8,3.1,0.8,4.8c0,1.8-0.3,3.5-0.8,5.2c-0.6,1.7-1.4,3.1-2.5,4.3c-1.1,1.2-2.4,2.1-4,2.7s-3.3,0.9-5.2,0.9
			c-1.7,0-3.3-0.3-4.8-0.8c-1.5-0.5-2.8-1.3-3.9-2.4c-1.1-1.1-1.9-2.4-2.5-3.9c-0.6-1.5-0.9-3.2-0.9-4.8c0-1.7,0.2-3.4,0.8-4.9
			c0.5-1.6,1.3-3,2.4-4.2c1.1-1.2,2.5-2.2,4.2-2.8C1623.8,83,1625.6,82.7,1627.4,82.7z M1627.4,87.5c-1.3,0-2.4,0.3-3.4,1
			c-1,0.7-1.7,1.7-2.2,3c-0.5,1.3-0.7,2.7-0.7,4.3c0,1.4,0.2,2.6,0.6,3.6c0.4,1.1,1.1,1.9,2,2.6c0.9,0.7,2,1,3.2,1
			c1.3,0,2.4-0.3,3.4-1c1-0.7,1.7-1.7,2.2-3c0.5-1.3,0.7-2.8,0.7-4.4c0-1.3-0.2-2.5-0.6-3.5c-0.4-1.1-1-1.9-1.9-2.5
			C1629.8,87.8,1628.7,87.5,1627.4,87.5z"/>
		<path id="XMLID_36_" class="st1" d="M1652.2,107c0.2-2.7,0.4-6.6,0.6-11.9c0.2-5.3,0.3-9.2,0.3-11.9c1.2,0,2.3,0,3,0
			c0.9,0,1.9,0,2.9-0.1l-0.2,3.8c0.5-0.7,0.9-1.3,1.3-1.8c0.4-0.5,0.9-0.9,1.5-1.3c0.6-0.4,1.3-0.7,2.2-0.9c0.8-0.2,1.7-0.3,2.6-0.3
			c0.7,0,1.3,0.1,1.9,0.2c0.6,0.1,1.2,0.3,1.7,0.6c0.5,0.2,0.9,0.5,1.3,0.8c0.4,0.3,0.7,0.7,0.9,1c0.3,0.4,0.5,0.9,0.8,1.7
			c0.3-0.5,0.6-1,0.9-1.4c0.3-0.4,0.6-0.7,1.1-1.1s1-0.7,1.5-1c0.6-0.3,1.2-0.5,1.9-0.6s1.4-0.2,2.2-0.2c1.3,0,2.5,0.2,3.6,0.7
			c1.1,0.4,2,1.1,2.7,2.1c0.6,1,1,2.1,1,3.6c0,0.7,0,1.8-0.1,3.3c-0.1,1.5-0.2,3.8-0.4,7.1c-0.1,3.3-0.2,5.8-0.2,7.6
			c-1.1,0-2,0-2.8,0c-1,0-2.1,0-3.4,0.1c0.1-2,0.2-4.1,0.4-6.3l0.3-5.4c0.1-1.4,0.1-2.5,0.1-3.4c0-1.1-0.2-2-0.5-2.5
			c-0.3-0.6-0.7-1-1.3-1.2c-0.5-0.2-1.1-0.4-1.7-0.4c-0.7,0-1.3,0.1-1.8,0.4c-0.5,0.3-1,0.7-1.5,1.3c-0.5,0.6-0.8,1.3-1.1,2.1
			c-0.2,0.8-0.4,1.9-0.5,3.3c-0.1,1.4-0.2,3.3-0.3,5.6l-0.1,6.5c-1.2,0-2.2,0-3,0c-0.8,0-1.9,0-3.2,0.1c0.1-1.2,0.2-3.7,0.4-7.4
			c0.2-3.7,0.3-6.2,0.3-7.5c0-0.7-0.1-1.3-0.2-1.7c-0.1-0.5-0.3-0.9-0.6-1.4c-0.3-0.4-0.7-0.7-1.1-0.9c-0.4-0.2-0.9-0.3-1.5-0.3
			c-1,0-1.9,0.4-2.7,1.1s-1.3,1.7-1.7,2.9c-0.4,1.2-0.6,3.5-0.8,7s-0.2,6.2-0.2,8.3c-1.3,0-2.4,0-3,0
			C1654.7,106.9,1653.6,107,1652.2,107z"/>
		<path id="XMLID_43_" class="st1" d="M1728.3,106.8l0.5-6.8l0.5-10.2l0.3-10l-1.5,0l-1.4,0l-1.4,0l-5.1,0.2c0.1-2.2,0.2-4,0.2-5.1
			c4.2,0,8.6,0,13.2,0l7.9,0l4.2,0c-0.1,2.2-0.2,3.9-0.2,5.1c-2.6-0.1-5.2-0.2-7.6-0.2l-1.7,0l-0.3,4.3l-0.6,16.5l0,2.8
			c0,1.1,0,2.3,0,3.6l-3.3,0C1731.5,106.8,1730.3,106.8,1728.3,106.8z"/>
		<path id="XMLID_45_" class="st1" d="M1756.3,106.8l0.6-11.1l0.2-6.5c0-1.3,0-2.7,0-4c0-0.2,0-1,0-2.2c1.4,0,2.4,0,3,0
			c0.7,0,1.7,0,3-0.1l-0.1,3.3c0.6-0.8,1-1.5,1.4-1.9c0.4-0.4,0.8-0.8,1.3-1.1c0.5-0.3,1-0.5,1.6-0.7c0.6-0.2,1.2-0.2,1.8-0.2
			c0.6,0,1.2,0.1,1.8,0.2c0,1.5,0.1,3.3,0.2,5.5c-0.9-0.2-1.6-0.4-2.3-0.4c-0.8,0-1.6,0.1-2.2,0.4c-0.6,0.3-1.2,0.7-1.8,1.2
			c-0.5,0.6-0.9,1.2-1.3,2.1c-0.3,0.7-0.5,1.5-0.6,2.6c-0.1,0.8-0.2,2.2-0.3,4.2c-0.1,2-0.1,3.9-0.1,5.8c0,0.7,0,1.7,0.1,2.8
			c-1.1,0-2.1,0-3.1,0C1758.7,106.7,1757.6,106.7,1756.3,106.8z"/>
		<path id="XMLID_108_" class="st1" d="M1784.4,88.1c0.2-1.1,0.3-1.9,0.4-2.4c0.1-0.5,0.1-1.1,0.3-2.1c2-0.5,3.7-0.9,5.3-1.1
			c1.5-0.2,3-0.3,4.4-0.3c1.6,0,3.1,0.2,4.4,0.6c1.3,0.4,2.4,1,3.2,1.9c0.8,0.9,1.1,2.1,1.1,3.8c0,0.9-0.1,3.2-0.3,6.8
			c-0.2,3.6-0.4,7.4-0.4,11.3c-1.1,0-2.1,0-3.1,0c-0.9,0-1.9,0-3.1,0.1c0.2-1.9,0.3-4.1,0.5-6.6l0.3-5.8c-0.6,0.4-1,0.7-1.3,0.8
			c-0.3,0.2-0.6,0.3-1,0.4s-1,0.3-1.9,0.6c-0.9,0.3-1.7,0.5-2.2,0.7c-0.6,0.2-1.1,0.4-1.5,0.7c-0.4,0.3-0.8,0.5-1.1,0.9
			c-0.3,0.3-0.5,0.7-0.7,1c-0.1,0.4-0.2,0.7-0.2,1.1c0,0.7,0.2,1.2,0.5,1.7c0.4,0.5,0.8,0.8,1.4,1c0.5,0.2,1.2,0.3,1.9,0.3
			c0.5,0,1,0,1.5-0.1c0.5-0.1,1.2-0.3,2.1-0.6c-0.3,0.9-0.7,2.2-1.1,4c-1,0.2-1.9,0.3-2.5,0.4c-0.6,0-1.2,0.1-1.7,0.1
			c-1.8,0-3.4-0.3-4.5-0.8c-1.2-0.5-2.1-1.4-2.6-2.5c-0.6-1.2-0.8-2.3-0.9-3.5c0-0.7,0.1-1.3,0.3-2c0.2-0.7,0.5-1.3,1-1.8
			c0.4-0.5,1-1.1,1.6-1.6c0.7-0.5,1.6-1,2.9-1.5c1.3-0.5,3-1,5-1.5c0.6-0.1,1.1-0.3,1.7-0.5c0.6-0.2,1.1-0.4,1.4-0.5
			c0.4-0.2,0.7-0.4,0.9-0.7c0.3-0.3,0.5-0.6,0.6-0.9c0.1-0.3,0.2-0.6,0.2-0.9c0-0.6-0.2-1.1-0.6-1.5c-0.4-0.4-0.9-0.7-1.5-0.9
			c-0.6-0.2-1.2-0.2-2-0.2C1790.6,86.1,1787.7,86.8,1784.4,88.1z"/>
		<path id="XMLID_110_" class="st1" d="M1816.6,106.2l-0.5-5.1c1.4,0.6,2.6,1.1,3.6,1.3c1,0.2,1.9,0.4,2.7,0.4
			c0.8,0,1.5-0.1,2.1-0.3c0.6-0.2,1-0.5,1.3-0.9c0.3-0.4,0.4-0.8,0.4-1.3c0-0.2,0-0.4-0.1-0.6c0-0.2-0.1-0.4-0.2-0.5
			c-0.1-0.2-0.2-0.4-0.3-0.5c-0.1-0.2-0.3-0.4-0.5-0.6c-0.2-0.2-0.5-0.5-0.9-0.8l-1.2-1c-1.1-0.9-2-1.7-2.6-2.2
			c-0.6-0.5-1.1-1.1-1.5-1.7c-0.4-0.6-0.7-1.2-0.9-1.8c-0.2-0.6-0.3-1.3-0.3-1.9c0-1.1,0.3-2.2,1-3.3c0.6-1,1.6-1.8,2.8-2.3
			c1.2-0.5,2.7-0.7,4.4-0.7c1.9,0,4.1,0.2,6.6,0.7l0.3,4.9c-1.7-0.7-3.3-1.1-4.9-1.1c-0.8,0-1.6,0.1-2.2,0.3
			c-0.6,0.2-1.1,0.5-1.4,0.8c-0.3,0.4-0.4,0.8-0.4,1.2c0,0.3,0,0.5,0.1,0.8c0.1,0.3,0.2,0.5,0.5,0.8c0.2,0.3,0.5,0.5,0.8,0.8
			c0.3,0.2,0.9,0.7,1.8,1.5s1.7,1.4,2.4,2c0.7,0.6,1.2,1.2,1.7,1.8c0.4,0.6,0.8,1.2,1,1.9c0.2,0.7,0.4,1.4,0.4,2.1
			c0,1.2-0.3,2.3-1,3.3c-0.7,1-1.7,1.8-3,2.3c-1.4,0.6-2.9,0.8-4.6,0.9c-0.9,0-1.9-0.1-3.2-0.2
			C1819.4,106.8,1818.1,106.6,1816.6,106.2z"/>
		<path id="XMLID_112_" class="st1" d="M1845.9,106.6l0.5-7.6l0.5-10.9l0.3-13.5c1.3,0,2.4,0,3.2,0c1.1,0,2.2,0,3.2-0.1l-0.4,5.6
			c-0.1,1.4-0.2,3.6-0.3,6.6c0.5-0.8,0.9-1.3,1.2-1.7c0.3-0.4,0.7-0.7,1.1-1c0.4-0.3,0.8-0.6,1.2-0.8c0.4-0.2,0.9-0.4,1.4-0.6
			c0.5-0.2,1.2-0.3,1.8-0.4c0.7-0.1,1.4-0.1,2.1-0.1c1.2,0,2.4,0.1,3.5,0.4c1.1,0.3,2.1,0.8,2.9,1.5c0.8,0.7,1.4,1.5,1.7,2.5
			c0.3,0.9,0.5,1.9,0.5,3c0,0.7,0,1.7-0.1,3.1l-0.5,10.2c0,1.1-0.1,2.3-0.1,3.7c-1.2,0-2.2,0-3.1,0c-1,0-2.1,0-3.4,0.1
			c0.2-1.8,0.4-4.4,0.6-7.5s0.3-5.4,0.3-6.8c0-1.2-0.2-2.2-0.6-2.9c-0.4-0.7-0.9-1.2-1.6-1.5c-0.7-0.3-1.5-0.5-2.4-0.5
			c-1.1,0-2.1,0.2-2.9,0.6c-0.8,0.4-1.5,1-2.1,1.8c-0.5,0.7-0.8,1.6-1.1,2.9c-0.3,1.3-0.5,3.3-0.7,6.1c-0.1,1.3-0.1,3.9-0.2,7.8
			c-1.2,0-2.2,0-3,0C1848.4,106.5,1847.3,106.5,1845.9,106.6z"/>
		<path id="XMLID_114_" class="st1" d="M1910.8,106.4l0.5-6.8l0.5-10.2l0.3-10l-1.5,0l-1.4,0l-1.4,0l-5.1,0.2c0.1-2.2,0.2-4,0.2-5.1
			c4.2,0,8.6,0,13.2,0l7.9,0l4.2,0c-0.1,2.2-0.2,3.9-0.2,5.1c-2.6-0.1-5.2-0.2-7.6-0.2l-1.7,0l-0.3,4.3l-0.6,16.5l0,2.8
			c0,1.1,0,2.3,0,3.6l-3.3,0C1914,106.4,1912.8,106.4,1910.8,106.4z"/>
		<path id="XMLID_116_" class="st1" d="M1950.8,82c1.7,0,3.3,0.3,4.8,0.8c1.5,0.5,2.9,1.3,3.9,2.4c1.1,1.1,1.9,2.3,2.4,3.9
			c0.5,1.5,0.8,3.1,0.8,4.8c0,1.8-0.3,3.5-0.8,5.2c-0.6,1.7-1.4,3.1-2.5,4.3c-1.1,1.2-2.4,2.1-4,2.7s-3.3,0.9-5.2,0.9
			c-1.7,0-3.3-0.3-4.8-0.8c-1.5-0.5-2.8-1.3-3.9-2.4c-1.1-1.1-1.9-2.4-2.5-3.9c-0.6-1.5-0.9-3.2-0.9-4.8c0-1.7,0.2-3.4,0.8-4.9
			c0.5-1.6,1.3-3,2.4-4.2c1.1-1.2,2.5-2.2,4.2-2.8C1947.2,82.3,1949,82,1950.8,82z M1950.8,86.8c-1.3,0-2.4,0.3-3.4,1
			c-1,0.7-1.7,1.7-2.2,3c-0.5,1.3-0.7,2.7-0.7,4.3c0,1.4,0.2,2.6,0.6,3.6c0.4,1.1,1.1,1.9,2,2.6c0.9,0.7,2,1,3.2,1
			c1.3,0,2.4-0.3,3.4-1c1-0.7,1.7-1.7,2.2-3c0.5-1.3,0.7-2.8,0.7-4.4c0-1.3-0.2-2.5-0.6-3.5c-0.4-1.1-1-1.9-1.9-2.5
			C1953.2,87.1,1952.1,86.8,1950.8,86.8z"/>
		<path id="XMLID_119_" class="st1" d="M2002.6,106.2l0.5-6.8l0.5-10.2l0.3-10l-1.5,0l-1.4,0l-1.4,0l-5.1,0.2c0.1-2.2,0.2-4,0.2-5.1
			c4.2,0,8.6,0,13.2,0l7.9,0l4.2,0c-0.1,2.2-0.2,3.9-0.2,5.1c-2.6-0.1-5.2-0.2-7.6-0.2l-1.7,0l-0.3,4.3l-0.6,16.5l0,2.8
			c0,1.1,0,2.3,0,3.6l-3.3,0C2005.8,106.2,2004.6,106.2,2002.6,106.2z"/>
		<path id="XMLID_121_" class="st1" d="M2030.6,106.2l0.6-11.1l0.2-6.5c0-1.3,0-2.7,0-4c0-0.2,0-1,0-2.2c1.4,0,2.4,0,3,0
			c0.7,0,1.7,0,3-0.1l-0.1,3.3c0.6-0.8,1-1.5,1.4-1.9c0.4-0.4,0.8-0.8,1.3-1.1c0.5-0.3,1-0.5,1.6-0.7c0.6-0.2,1.2-0.2,1.8-0.2
			c0.6,0,1.2,0.1,1.8,0.2c0,1.5,0.1,3.3,0.2,5.5c-0.9-0.2-1.6-0.4-2.3-0.4c-0.8,0-1.6,0.1-2.2,0.4c-0.6,0.3-1.2,0.7-1.8,1.2
			s-0.9,1.2-1.3,2.1c-0.3,0.7-0.5,1.5-0.6,2.6c-0.1,0.8-0.2,2.2-0.3,4.2c-0.1,2-0.1,3.9-0.1,5.8c0,0.7,0,1.7,0.1,2.8
			c-1.1,0-2.1,0-3.1,0C2033,106.1,2031.9,106.1,2030.6,106.2z"/>
		<path id="XMLID_123_" class="st1" d="M2077,100.8c-0.2,0.9-0.5,2.6-0.8,5c-1.6,0.4-2.9,0.6-4,0.7c-1.1,0.1-2.2,0.2-3.3,0.2
			c-1.9,0-3.6-0.2-5.1-0.6c-1.5-0.4-2.8-1.1-4-2.2c-1.1-1.1-2-2.4-2.5-4c-0.5-1.6-0.8-3.2-0.8-5c0-1.9,0.3-3.8,0.9-5.6
			c0.6-1.8,1.5-3.3,2.6-4.4c1.1-1.1,2.4-2,3.9-2.4c1.4-0.5,3-0.7,4.5-0.7c1.5,0,2.9,0.2,4.3,0.6c1.3,0.4,2.5,1,3.4,1.9
			c0.9,0.9,1.6,2,2.1,3.3c0.5,1.3,0.7,2.7,0.7,4.2c0,0.7-0.1,1.5-0.2,2.3l-16.1,0.1c0,0.6,0,1,0,1.4c0,1,0.2,2,0.5,2.9
			c0.3,0.9,0.8,1.6,1.5,2.2c0.6,0.6,1.4,1.1,2.3,1.3c0.9,0.3,1.8,0.4,2.6,0.4c1,0,2.1-0.1,3.3-0.4
			C2074,101.7,2075.4,101.3,2077,100.8z M2062.8,91.3l10.3,0c0-0.7,0-1.3-0.1-1.7c0-0.4-0.1-0.8-0.3-1.2c-0.2-0.5-0.4-0.9-0.6-1.2
			c-0.3-0.3-0.6-0.6-0.9-0.9c-0.4-0.2-0.8-0.4-1.2-0.5c-0.5-0.1-1-0.2-1.5-0.2c-0.6,0-1.2,0.1-1.8,0.3c-0.6,0.2-1.1,0.5-1.6,0.9
			c-0.5,0.4-0.9,0.8-1.2,1.3c-0.3,0.5-0.5,0.9-0.7,1.4S2062.9,90.6,2062.8,91.3z"/>
		<path id="XMLID_126_" class="st1" d="M2092.9,87.5c0.2-1.1,0.3-1.9,0.4-2.4c0.1-0.5,0.1-1.1,0.3-2.1c2-0.5,3.7-0.9,5.3-1.1
			c1.5-0.2,3-0.3,4.4-0.3c1.6,0,3.1,0.2,4.4,0.6c1.3,0.4,2.4,1,3.2,1.9c0.8,0.9,1.1,2.1,1.1,3.8c0,0.9-0.1,3.2-0.3,6.8
			c-0.2,3.6-0.4,7.4-0.4,11.3c-1.1,0-2.1,0-3.1,0c-0.9,0-1.9,0-3.1,0.1c0.2-1.9,0.3-4.1,0.5-6.6l0.3-5.8c-0.6,0.4-1,0.7-1.3,0.8
			c-0.3,0.2-0.6,0.3-1,0.4c-0.4,0.1-1,0.3-1.9,0.6c-0.9,0.3-1.7,0.5-2.2,0.7c-0.6,0.2-1.1,0.4-1.5,0.7c-0.4,0.3-0.8,0.5-1.1,0.9
			c-0.3,0.3-0.5,0.7-0.7,1s-0.2,0.7-0.2,1.1c0,0.7,0.2,1.2,0.5,1.7c0.4,0.5,0.8,0.8,1.4,1c0.5,0.2,1.2,0.3,1.9,0.3
			c0.5,0,1,0,1.5-0.1c0.5-0.1,1.2-0.3,2.1-0.6c-0.3,0.9-0.7,2.2-1.1,4c-1,0.2-1.9,0.3-2.5,0.4c-0.6,0-1.2,0.1-1.7,0.1
			c-1.8,0-3.4-0.3-4.5-0.8c-1.2-0.5-2.1-1.4-2.6-2.5c-0.6-1.2-0.8-2.3-0.9-3.5c0-0.7,0.1-1.3,0.3-2c0.2-0.7,0.5-1.3,1-1.8
			c0.4-0.5,1-1.1,1.6-1.6c0.7-0.5,1.6-1,2.9-1.5c1.3-0.5,3-1,5-1.5c0.6-0.1,1.1-0.3,1.7-0.5c0.6-0.2,1.1-0.4,1.4-0.5
			c0.4-0.2,0.7-0.4,0.9-0.7c0.3-0.3,0.5-0.6,0.6-0.9c0.1-0.3,0.2-0.6,0.2-0.9c0-0.6-0.2-1.1-0.6-1.5c-0.4-0.4-0.9-0.7-1.5-0.9
			c-0.6-0.2-1.2-0.2-2-0.2C2099.1,85.4,2096.1,86.1,2092.9,87.5z"/>
		<path id="XMLID_128_" class="st1" d="M2125.1,105.5l-0.5-5.1c1.4,0.6,2.6,1.1,3.6,1.3c1,0.2,1.9,0.4,2.7,0.4
			c0.8,0,1.5-0.1,2.1-0.3c0.6-0.2,1-0.5,1.3-0.9c0.3-0.4,0.4-0.8,0.4-1.3c0-0.2,0-0.4-0.1-0.6c0-0.2-0.1-0.4-0.2-0.5
			c-0.1-0.2-0.2-0.4-0.3-0.5c-0.1-0.2-0.3-0.4-0.5-0.6c-0.2-0.2-0.5-0.5-0.9-0.8l-1.2-1c-1.1-0.9-2-1.7-2.6-2.2
			c-0.6-0.5-1.1-1.1-1.5-1.7c-0.4-0.6-0.7-1.2-0.9-1.8c-0.2-0.6-0.3-1.3-0.3-1.9c0-1.1,0.3-2.2,1-3.3c0.6-1,1.6-1.8,2.8-2.3
			c1.2-0.5,2.7-0.7,4.4-0.7c1.9,0,4.1,0.2,6.6,0.7l0.3,4.9c-1.7-0.7-3.3-1.1-4.9-1.1c-0.8,0-1.6,0.1-2.2,0.3
			c-0.6,0.2-1.1,0.5-1.4,0.8c-0.3,0.4-0.4,0.8-0.4,1.2c0,0.3,0,0.5,0.1,0.8c0.1,0.3,0.2,0.5,0.5,0.8c0.2,0.3,0.5,0.5,0.8,0.8
			c0.3,0.2,0.9,0.7,1.8,1.5s1.7,1.4,2.4,2c0.7,0.6,1.2,1.2,1.7,1.8c0.4,0.6,0.8,1.2,1,1.9c0.2,0.7,0.4,1.4,0.4,2.1
			c0,1.2-0.3,2.3-1,3.3c-0.7,1-1.7,1.8-3,2.3c-1.4,0.6-2.9,0.8-4.6,0.9c-0.9,0-1.9-0.1-3.2-0.2
			C2127.9,106.2,2126.5,105.9,2125.1,105.5z"/>
		<path id="XMLID_130_" class="st1" d="M2177,105.9c-1.3,0-2.3,0-3,0c-0.9,0-1.8,0-2.9,0.1l0-3.9c-0.4,0.7-0.8,1.2-1.1,1.6
			c-0.3,0.4-0.7,0.8-1.2,1.2s-1,0.7-1.6,0.9s-1.3,0.4-2,0.6c-0.8,0.1-1.6,0.2-2.4,0.2c-1.6,0-3.1-0.2-4.3-0.8
			c-1.2-0.5-2.2-1.3-2.9-2.3c-0.7-1-1.1-2.5-1.1-4.4l0-0.5l0.3-6l0.3-8c0-0.6,0-1.4,0-2.4c1.4,0,2.5,0,3.3,0c0.8,0,1.8,0,3-0.1
			l-0.7,10.7c0,0.8-0.1,1.5-0.1,2.1c0,0.6,0,1,0,1.2c0,1.1,0.2,2.1,0.5,2.8c0.3,0.7,0.9,1.3,1.6,1.7c0.8,0.4,1.6,0.6,2.5,0.6
			c0.8,0,1.7-0.2,2.4-0.5c0.7-0.3,1.3-0.8,1.8-1.3s0.9-1.3,1.2-2.3c0.2-0.7,0.4-1.6,0.6-2.9c0.1-0.9,0.2-2.3,0.3-4.4
			c0.1-2.5,0.2-5.1,0.2-7.7c1.4,0,2.6,0,3.3,0c0.9,0,1.8,0,2.9-0.1c-0.2,2.2-0.3,5-0.5,8.4c-0.2,3.3-0.3,6.1-0.4,8.3
			S2177,103.3,2177,105.9z"/>
		<path id="XMLID_132_" class="st1" d="M2191.4,105.8l0.6-11.1l0.2-6.5c0-1.3,0-2.7,0-4c0-0.2,0-1,0-2.2c1.4,0,2.4,0,3,0
			c0.7,0,1.7,0,3-0.1l-0.1,3.3c0.6-0.8,1-1.5,1.4-1.9c0.4-0.4,0.8-0.8,1.3-1.1s1-0.5,1.6-0.7c0.6-0.2,1.2-0.2,1.8-0.2
			c0.6,0,1.2,0.1,1.8,0.2c0,1.5,0.1,3.3,0.2,5.5c-0.9-0.2-1.6-0.4-2.3-0.4c-0.8,0-1.6,0.1-2.2,0.4c-0.6,0.3-1.2,0.7-1.8,1.2
			c-0.5,0.6-0.9,1.2-1.3,2.1c-0.3,0.7-0.5,1.5-0.6,2.6c-0.1,0.8-0.2,2.2-0.3,4.2c-0.1,2-0.1,3.9-0.1,5.8c0,0.7,0,1.7,0.1,2.8
			c-1.1,0-2.1,0-3.1,0C2193.7,105.8,2192.7,105.8,2191.4,105.8z"/>
		<path id="XMLID_134_" class="st1" d="M2237.8,100.4c-0.2,0.9-0.5,2.6-0.8,5c-1.6,0.4-2.9,0.6-4,0.7c-1.1,0.1-2.2,0.2-3.3,0.2
			c-1.9,0-3.6-0.2-5.1-0.6c-1.5-0.4-2.8-1.1-4-2.2c-1.1-1.1-2-2.4-2.5-4c-0.5-1.6-0.8-3.2-0.8-5c0-1.9,0.3-3.8,0.9-5.6
			c0.6-1.8,1.5-3.3,2.6-4.4c1.1-1.1,2.4-2,3.9-2.4s3-0.7,4.5-0.7c1.5,0,2.9,0.2,4.3,0.6c1.3,0.4,2.5,1,3.4,1.9
			c0.9,0.9,1.6,2,2.1,3.3c0.5,1.3,0.7,2.7,0.7,4.2c0,0.7-0.1,1.5-0.2,2.3l-16.1,0.1c0,0.6,0,1,0,1.4c0,1,0.2,2,0.5,2.9
			c0.3,0.9,0.8,1.6,1.5,2.2c0.6,0.6,1.4,1.1,2.3,1.3c0.9,0.3,1.8,0.4,2.6,0.4c1,0,2.1-0.1,3.3-0.4
			C2234.7,101.4,2236.1,101,2237.8,100.4z M2223.6,91l10.3,0c0-0.7,0-1.3-0.1-1.7c0-0.4-0.1-0.8-0.3-1.2s-0.4-0.9-0.6-1.2
			c-0.3-0.3-0.6-0.6-0.9-0.9c-0.4-0.2-0.8-0.4-1.2-0.5c-0.5-0.1-1-0.2-1.5-0.2c-0.6,0-1.2,0.1-1.8,0.3c-0.6,0.2-1.1,0.5-1.6,0.9
			c-0.5,0.4-0.9,0.8-1.2,1.3c-0.3,0.5-0.5,0.9-0.7,1.4S2223.7,90.2,2223.6,91z"/>
	</g>
	<g id="XMLID_2_">
	</g>
	<g id="XMLID_137_">
	</g>
	<g id="XMLID_138_">
	</g>
	<g id="XMLID_139_">
	</g>
	<g id="XMLID_140_">
	</g>
	<g id="XMLID_141_">
	</g>
	<g id="XMLID_142_">
	</g>
	<g id="XMLID_143_">
	</g>
	<g id="XMLID_144_">
	</g>
	<g id="XMLID_145_">
	</g>
	<g id="XMLID_146_">
	</g>
	<g id="XMLID_147_">
	</g>
	<g id="XMLID_148_">
	</g>
	<g id="XMLID_149_">
	</g>
	<g id="XMLID_150_">
	</g>
</g>
</svg>
