<?xml version="1.0" encoding="utf-8"?>
<!-- Generator: Adobe Illustrator 19.0.0, SVG Export Plug-In . SVG Version: 6.00 Build 0)  -->
<svg version="1.1" xmlns="http://www.w3.org/2000/svg" xmlns:xlink="http://www.w3.org/1999/xlink" x="0px" y="0px"
	 viewBox="0 0 400 300" style="enable-background:new 0 0 400 300;" xml:space="preserve">
<style type="text/css">
	.st0{fill:#050101;stroke:#FFFFFF;stroke-miterlimit:10;}
	.st1{fill:#FFFFFF;stroke:#FFFFFF;stroke-width:2;stroke-miterlimit:10;}
</style>
<g id="圖層_2">
	<circle id="XMLID_5_" class="st0" cx="200" cy="150" r="150"/>
	<path id="XMLID_4_" class="st1" d="M59.7,207.1c-0.2-2,0-3.8,0.7-5.5c1-2.3,3.1-3.8,5.1-5.1c13.8-9.2,29.4-14.7,41.7-26
		c5.3-4.9,10.6-9.7,15.9-14.6c3.7-3.4,7.6-6.9,12.4-8.4c6.7-2.1,14.3-1.5,21.2-3c9.1-2.1,23.8-11.8,27.5-5.7
		c4.2,7-13.8,17.7-21.7,23.9c5.6-4.4,16.5,0.7,22.1,2.6c9.9,3.3,20.5,3.6,30.8,2.1c12.8-1.9,25.1-6.4,37.3-10.9
		c5.1-1.9,19.5-13.4,24.4-7.4c8.1,9.8-37.9,32.7-44.7,35.7c-20,8.7-41.7,13.3-63.5,13.2c-9.1-0.1-17.8-1.4-26.8,0.5
		c-10.2,2.1-19.8,6.7-28.9,11.6c-4.2,2.3-8.5,4.7-11.7,8.3c-3.5,4.1-5.3,9.3-7.8,14.1c-2.3,4.4-5.2,10.4-6.8,16.2
		c-1,3.4-12.6-13.7-14.4-16.4C68.8,226.7,60.6,215.7,59.7,207.1z"/>
	<path id="XMLID_3_" class="st1" d="M322.5,95.9c0.1,0.5,0.3,0.9,0.5,1.4c0.3,1,0.6,2.3-0.2,3.1c-0.5,0.5-1.2,0.5-1.9,0.6
		c-6.6,0.4-13.3,0.3-19.9-0.3c-2-0.2-4.2-0.5-5.6-1.9c-2.2-2.1-2.7-19.7-2.1-22.7c1.4-6.6,12.3-8.5,12-13c-0.2-3-11.4,0.1-12.7,0.1
		c-0.5-1.3,1.9-6.6,2.9-7.6c0,0,0,0,0.1,0c0.3-0.3,0.5-0.7,0.7-1c0.6-1.1,1.2-2.2,1.4-3.4c0.4-2.1-0.1-4-1.4-5.6
		c-1.3-1.6-3.4-2.7-5.4-1.9c-2,0.8-3.2,7.4-4.2,9.3c-0.9-2.6-2.4-10.1-5.2-10.1c-3.1,0-1.2,10-2,12.8c-1.4-1.4-6.8-9.1-8.8-9.5
		c-2-0.4-4,1.2-4.5,3.4c-0.6,3.1,1.9,4.3,3,6.6c0.8,1.8,3.7,7.4,2.6,7.5c-2.3,0.1-9.2-5.6-10.1-2.5c-0.8,2.7,0.2,5.7,1.5,7.9
		c0.2,0.3,5.6,6.8,7.8,10.3c0.6,0.9,1.1,2,1.5,3.1c0.4,1.5,0.4,3,0.6,4.6c0.3,1.8,0.4,3.5,0.4,5.3c0,1.9,0.1,4.6-1,6.3
		c-0.4,0.7-1,1-1.7,1.2c-1.2,0.2-2.5,0.1-3.6,0.1c-5.2,0.1-10.5,0.1-15.7-0.1c-2.7-0.1-5.4-0.3-8.1-0.6c-1.3-0.1-2.7-0.4-3.6-1.4
		c-1.2-1.2-1.4-3.1-1.4-4.7c-0.1-1.3,0-2.6,0.1-3.8c0.2-3.1,0.3-6.2,0.5-9.2c0.2-2.3,0.4-4.7,0.2-7.1c-0.1-1.7-0.6-3.3-1.6-4.5
		c-0.8-0.9-1.8-1.5-2.9-1.9c-1.6-0.6-3.3-0.9-4.9-1.1c-1.2-0.1-2.3-0.3-3.5-0.4c-2.9-0.2-5.9-0.5-8.8-0.3c-2.2,0.1-4.4,0.5-6.4,1.7
		c-1.7,1.1-2.9,2.8-3.9,4.7c-0.9,1.9-1.7,4.3-3.3,5.7c-1.4,1.1-3.9,2.3-5.5,1c-1.3-1-1.8-3.1-2-4.7c-0.3-2.2-0.3-4.5,0-6.7
		c0.1-0.7,0.3-1.5,0.4-2.2c0-0.4,0-0.7-0.1-1.1c-0.2-0.3-0.4-0.5-0.6-0.7c-0.3-0.1-0.7-0.2-1-0.2c-3.6,0.6-7.9,1.8-10,0.6
		c-3.9-5.2,2.9-5.6,6.6-7.4c0.3-0.2,0.6-0.3,0.9-0.5c-4.3-1.1-9.6-3.4-6.4-7.9c1.1-1.1,5.3,1.1,8.3,1.6c0.3,0.2,0.7,0.3,1,0.5
		c0,0,0.1,0,0.1,0c0.6,0,0.8-0.3,1.1-0.7c0-0.1,0-0.3,0.1-0.4c-0.1-0.2-0.2-0.5-0.3-0.8c-0.1-0.2-0.2-0.5-0.3-0.7
		c-0.2-0.5-0.5-1-0.8-1.5c-0.3-0.5-0.7-1-1.2-1.5c-1.3-1.5-3.4-3.8-4.5-4.9c-2.1-3.4,1.7-4.3,4.6-2.6c0.4,0,2,1.6,2.3,1.9
		c2.3,2.4,6.8,3.8,7.6,3.9c0.3,0,0.6,0,0.8-0.2c0.3-0.2,0.6-0.4,0.8-0.7c0.3-0.3,0.5-0.7,0.8-1.1c1.2-2.3,2.2-4.6,3.3-4.6
		c4.4-0.8,4.3,3.3,4,7.3c-0.1,1.8-0.2,3.6,0,4.9c0.1,0.4,0.2,0.8,0.3,1.2c0.1,0.4,0.3,0.8,0.5,1.1c0.2,0.3,0.4,0.6,0.6,0.9
		c3.6,4.4,11.6,2.6,17.5,2c7.8-0.8,4-28.3,3.8-32.9c0-1.1-0.1-2.2,0.6-3.1c0.7-0.8,1.8-1.1,2.9-1.3c18-3.1,43.6-9.1,61.2-1.5
		c14.7,6.3,16.1,20.9,16.4,35.1C318.2,66.5,317.4,79.5,322.5,95.9z"/>
</g>
<g id="圖層_1">
</g>
</svg>
