<?xml version="1.0" encoding="utf-8"?>
<!-- Generator: Adobe Illustrator 19.0.0, SVG Export Plug-In . SVG Version: 6.00 Build 0)  -->
<svg version="1.1" xmlns="http://www.w3.org/2000/svg" xmlns:xlink="http://www.w3.org/1999/xlink" x="0px" y="0px"
	 viewBox="0 0 2267.7 708.7" style="enable-background:new 0 0 2267.7 708.7;" xml:space="preserve">
<style type="text/css">
	.st0{fill:#D2E6ED;stroke:#000000;stroke-miterlimit:10;}
	.st1{fill:#D2E6ED;stroke:#000000;stroke-width:4;stroke-miterlimit:10;}
	.st2{fill:#CF1226;}
	.st3{fill:#FFFFFF;stroke:#000000;stroke-width:4;stroke-miterlimit:10;}
	.st4{fill:#D0E4EA;stroke:#000000;stroke-width:4;stroke-miterlimit:10;}
	.st5{fill:#FFFFFF;stroke:#000000;stroke-width:5;stroke-miterlimit:10;}
	.st6{fill:#30A9CA;stroke:#000000;stroke-width:4;stroke-miterlimit:10;}
	.st7{fill:#8DC554;stroke:#000000;stroke-width:5;stroke-miterlimit:10;}
	.st8{fill:#B8D886;stroke:#040000;stroke-width:5;stroke-miterlimit:10;}
	.st9{fill:#674F9E;stroke:#000000;stroke-width:5;stroke-miterlimit:10;}
	.st10{fill:#B6A0CB;}
	.st11{fill:none;stroke:#000000;stroke-width:5;stroke-miterlimit:10;}
	.st12{fill:#F08218;stroke:#040000;stroke-width:5;stroke-miterlimit:10;}
	.st13{fill:#E5D126;stroke:#040000;stroke-width:5;stroke-miterlimit:10;}
	.st14{fill:#E61A14;stroke:#040000;stroke-width:5;stroke-miterlimit:10;}
	.st15{fill:none;stroke:#040000;stroke-width:4;stroke-miterlimit:10;}
	.st16{fill:#4E2A13;}
	.st17{fill:#B8D886;}
	.st18{fill:none;stroke:#040000;stroke-width:5;stroke-miterlimit:10;}
	.st19{fill:#EFCB58;}
	.st20{fill:#FABF13;}
	.st21{fill:#008FCC;}
	.st22{fill:#64665E;}
	.st23{fill:#18210C;}
	.st24{fill:#6F4B21;}
	.st25{fill:#121F3F;stroke:#050101;stroke-width:4;stroke-miterlimit:10;}
	.st26{fill:none;stroke:#050101;stroke-width:4;stroke-miterlimit:10;}
	.st27{fill:#FAEE00;stroke:#040000;stroke-width:4;stroke-miterlimit:10;}
	.st28{fill:#00A0E9;stroke:#040000;stroke-width:4;stroke-miterlimit:10;}
	.st29{fill:#1CAAD5;stroke:#050101;stroke-width:5;stroke-miterlimit:10;}
	.st30{fill:#080102;}
	.st31{fill:#060001;}
	.st32{fill:none;stroke:#050101;stroke-width:5;stroke-miterlimit:10;}
	.st33{fill:#17288B;stroke:#040000;stroke-width:4;stroke-miterlimit:10;}
	.st34{fill:#6356A3;stroke:#040000;stroke-width:4;stroke-miterlimit:10;}
	.st35{fill:#003E56;}
</style>
<g id="background">
	<rect id="XMLID_1_" class="st0" width="2267.7" height="708.7"/>
</g>
<g id="放大鏡">
	<rect id="XMLID_7_" x="143.9" y="418.6" class="st1" width="32.2" height="21.3"/>
	<path id="XMLID_18_" class="st2" d="M304.5,374.6c18.3-13.9,36.8-31.1,47.8-51.6c4.8-8.9,8.2-19.6,4.4-29.5
		c-4.3-11.2-15.1-15.7-26.3-12.5c-11.7,3.4-22.6,13.4-25.7,25.2"/>
	<circle id="XMLID_6_" class="st1" cx="160" cy="601.8" r="23"/>
	<path id="XMLID_78_" class="st2" d="M304.4,374.6c-14-10.7-27.2-23.3-37.9-37.3c-10.4-13.7-26-43.4-4.7-55.2
		c10.4-5.8,23.6-0.1,31.7,7c5.2,4.5,9.4,10.5,11.1,17.2"/>
	<circle id="外" class="st3" cx="160" cy="317.8" r="106"/>
	<circle id="內" class="st4" cx="160" cy="317.8" r="79.9"/>
	<rect id="XMLID_10_" x="681.9" y="368.6" class="st5" width="225" height="261"/>
	<rect id="XMLID_5_" x="136" y="439.8" class="st6" width="48" height="162"/>
	<rect id="XMLID_8_" x="136" y="439.8" class="st1" width="48" height="22.9"/>
	<path id="XMLID_4_" class="st2" d="M1119.2,611c19.1-12.9,38.5-29.1,50.6-48.9c5.2-8.6,9.2-19.1,6-29.2
		c-3.7-11.4-14.2-16.5-25.6-13.9c-6.9,1.6-28.5,16.3-26.4,23.6c0.9,3,7.7,7.7,10,10c2.3,2.3,4.6,4.6,7,7l-17,17
		c0,0,2.8,14.2,3.6,13.4c-1.6,1.4-7.5,6.6-9.1,8v12.5l0.3,0.2"/>
	<path id="XMLID_3_" class="st2" d="M1118.9,611c-15.5-8.5-30.4-18.9-43.1-31.2c-12.4-11.9-32.2-38.9-13-53.9
		c9.4-7.3,23.3-3.7,32.4,2.1c6.2,3.9,12.6,10.4,16.9,16.3c2.6,3.6,8.2,8,4.3,12.1l-15.3,15.3l17.5,17.5l-10.7,10.7
		c-1-1.3-2.1-2.7-3.1-4c1.4,1.3,2.8,2.6,4.5,3.5l11.1,11.1"/>
</g>
<g id="購物袋">
	<rect id="XMLID_59_" x="681.9" y="311.6" class="st7" width="225" height="318"/>
	<rect id="XMLID_58_" x="681.9" y="540.8" class="st8" width="225" height="88.7"/>
	<rect id="XMLID_57_" x="746.6" y="482.5" class="st9" width="230.9" height="145.7"/>
	<rect id="XMLID_45_" x="750.3" y="585.2" class="st10" width="230.9" height="43.1"/>
	<path id="XMLID_44_" class="st11" d="M827.5,513.2c-31.2,52,96.7,74.1,79.9-1.1"/>
	<rect id="XMLID_43_" x="862.1" y="523" class="st12" width="134" height="106.1"/>
	<rect id="XMLID_16_" x="850" y="496.9" class="st13" width="155" height="34"/>
	<path id="XMLID_15_" class="st14" d="M916.7,493.6c-7.4-5.8-29.8-28.3-19.4-36.3c16.9-12.9,26.6,23.4,29.7,36.3
		c-3.7-15.2,54.1-44.6,54.2-17.5c0,16-29.6,22.2-41.2,24.4"/>
	<path id="XMLID_11_" class="st11" d="M750.9,317.9c0.1-21.7,11-51.5,34.5-57.7c32.2-8.6,53.4,25.6,52.5,53.2"/>
	<line id="XMLID_126_" class="st15" x1="296.4" y1="400.1" x2="376.4" y2="400.1"/>
	<line id="XMLID_127_" class="st15" x1="374.4" y1="400.1" x2="374.4" y2="533.3"/>
	<line id="XMLID_128_" class="st15" x1="373.4" y1="533.3" x2="573.2" y2="533.3"/>
	<line id="XMLID_129_" class="st15" x1="374.4" y1="420.1" x2="560.2" y2="420.1"/>
	<line id="XMLID_130_" class="st15" x1="559.2" y1="419.6" x2="559.2" y2="488.9"/>
	<line id="XMLID_131_" class="st15" x1="560.2" y1="487.9" x2="374.4" y2="519"/>
	<circle id="XMLID_132_" class="st16" cx="416.8" cy="566.8" r="26.6"/>
	<line id="XMLID_133_" class="st15" x1="414.3" y1="420.1" x2="414.3" y2="513.3"/>
	<line id="XMLID_134_" class="st15" x1="474.3" y1="420.1" x2="474.3" y2="502.9"/>
	<line id="XMLID_135_" class="st15" x1="525.3" y1="420.1" x2="525.3" y2="495.2"/>
	<circle id="XMLID_136_" class="st16" cx="538.5" cy="566.8" r="27.2"/>
	<circle id="XMLID_14_" class="st17" cx="794.4" cy="418.8" r="54.4"/>
	<line id="XMLID_36_" class="st18" x1="768.2" y1="20.7" x2="670.5" y2="118.4"/>
	<line id="XMLID_37_" class="st15" x1="768.2" y1="20.7" x2="862.1" y2="114.6"/>
	<line id="XMLID_38_" class="st15" x1="715.4" y1="73" x2="715.4" y2="189.4"/>
	<line id="XMLID_39_" class="st15" x1="821" y1="73.6" x2="821" y2="188.8"/>
	<line id="XMLID_40_" class="st15" x1="715.4" y1="189.4" x2="821" y2="189.4"/>
	<g id="XMLID_42_">
		<g id="XMLID_210_">
			<g id="XMLID_214_">
				<g id="XMLID_215_">
					<g id="XMLID_216_">
						<path id="XMLID_303_" d="M390,569.1c0.3,0,0.2-0.4,0.2-0.5C389.8,568.8,390,569.3,390,569.1z"/>
						<polygon id="XMLID_302_" points="385.9,570.1 385.9,569.9 385.3,570.3 						"/>
						<path id="XMLID_301_" d="M382,570.1c0.4,0.7,1.4-0.1,2.1,0.1l0.1,0.2l0.3-0.6C383.6,569.9,382.5,570.3,382,570.1z"/>
						<path id="XMLID_300_" d="M379.9,568.5c0.1,0.3-0.4,0.2,0.5,0.1c0,0-0.1,0-0.1-0.1C380.2,568.6,380.1,568.6,379.9,568.5z"/>
						<path id="XMLID_299_" d="M380.3,568.6C380.7,568.5,380,568.3,380.3,568.6L380.3,568.6z"/>
						<path id="XMLID_298_" d="M378.4,568.7l0.5-0.2c-0.1-0.2-0.6-0.2-0.4-0.3C377.9,568.3,378.1,568.5,378.4,568.7z"/>
						<path id="XMLID_297_" d="M377.9,569.2l0.3-0.1C378.1,569.1,378,569,377.9,569.2z"/>
						<path id="XMLID_296_" d="M378.7,568.9l-0.6,0.2c0.1,0.1,0.1,0.3,0.3-0.1C378.4,569.3,378.5,569.1,378.7,568.9z"/>
						<path id="XMLID_295_" d="M379.1,569c0.3,0.2,0.7,0.3,0.2,0.5C380.3,569.4,380.1,568.9,379.1,569z"/>
						<path id="XMLID_294_" d="M381.8,570.8l0.4,0.2l0.4-0.2C382.3,570.9,381.7,570.6,381.8,570.8z"/>
						<path id="XMLID_293_" d="M375,568.4c0,0.2,0.2,0.4,0.2,0.6l0.4-0.2C375.4,568.7,375,568.6,375,568.4z"/>
						<path id="XMLID_292_" d="M375.2,568.9l-0.6,0.3C375.2,569.2,375.3,569.1,375.2,568.9z"/>
						<polygon id="XMLID_291_" points="377.8,570 378.7,569.5 377.6,570 						"/>
						<polygon id="XMLID_290_" points="372.7,568.3 373.1,568 372.5,568.5 						"/>
						<path id="XMLID_289_" d="M371.2,568.4c0.3-0.3-0.3-0.5-0.1-0.7c-0.4,0.1-0.8,0.3-1.1,0.5C370.4,568.1,370.7,568.2,371.2,568.4
							z"/>
						<path id="XMLID_288_" d="M369.5,568.6c0.2-0.1,0.3-0.2,0.5-0.3C369.9,568.3,369.7,568.4,369.5,568.6z"/>
						<path id="XMLID_287_" d="M373.6,569.1c0-0.1-0.1-0.3-0.5-0.4l0.2,0.4C373.5,569.1,373.5,569.1,373.6,569.1z"/>
						<path id="XMLID_286_" d="M373.4,569.1L373.4,569.1c-0.3,0-0.4,0-0.5,0C372.9,569.1,373.1,569.1,373.4,569.1z"/>
						<path id="XMLID_285_" d="M373.7,569.1C373.7,569.1,373.6,569.1,373.7,569.1C373.6,569.2,373.7,569.2,373.7,569.1z"/>
						<path id="XMLID_284_" d="M376.2,569.6c-0.4,0.2-1.1,0.5-0.4,0.9C376.1,570.2,375.7,570,376.2,569.6z"/>
						<path id="XMLID_283_" d="M374,569.7l0.6,0.1c0-0.1-0.1-0.3,0-0.4L374,569.7z"/>
						<polygon id="XMLID_282_" points="373.7,569.8 374,569.7 373.7,569.6 						"/>
						<path id="XMLID_281_" d="M370.6,569c-0.3,0.2-0.6,0.2-0.9,0.2c0.4,0.1,0.7,0.1,1.1,0.1C370.8,569.2,371,569,370.6,569z"/>
						<path id="XMLID_280_" d="M372,569.1C371.9,569.1,371.9,569.1,372,569.1C371.9,569.2,372,569.2,372,569.1z"/>
						<path id="XMLID_279_" d="M366.4,569.2C366.4,569.2,366.4,569.3,366.4,569.2C366.4,569.3,366.4,569.2,366.4,569.2L366.4,569.2z
							"/>
						<path id="XMLID_278_" d="M370.9,569.4c0.3,0.1,0.4,0,0.6-0.2C371.2,569.3,371,569.3,370.9,569.4
							C370.8,569.4,370.8,569.4,370.9,569.4z"/>
						<path id="XMLID_277_" d="M368.6,568.8c0.1,0.1,0.3,0.2,0.5,0.2C368.9,568.9,368.6,568.7,368.6,568.8z"/>
						<path id="XMLID_276_" d="M371.8,569C371.8,569,371.8,569,371.8,569C371.8,568.9,371.8,568.9,371.8,569z"/>
						<path id="XMLID_275_" d="M371.8,569c-0.1,0.1-0.3,0.2-0.4,0.3c0.2,0,0.3-0.1,0.5-0.1C371.9,569.1,371.8,569,371.8,569z"/>
						<path id="XMLID_274_" d="M365.3,571.9c0-0.4,0.8-0.8,1.4-0.3c0.6-0.3,0.2-1.6-0.3-2.3c0,0.2,0,0.3-0.6,0.6
							c0.2,0.2,1.4,0.5,0.9,0.9c-0.8,0.2-0.7-0.1-1.1-0.3c0.3,0.5-1.1,0.7-0.9,1.4l0.7-0.3C365.4,571.7,365.1,571.8,365.3,571.9z"/>
						<path id="XMLID_273_" d="M367.6,569.3l0.3,0c-0.3-0.1-0.5-0.2-0.9-0.5c-0.4,0.2-0.5,0.3-0.5,0.5L367.6,569.3L367.6,569.3z"/>
						<path id="XMLID_272_" d="M369,569.3c-0.2,0.4-0.8,0.6-0.4,1.1c0.8,0,0.5-0.4,1-0.5C368.3,569.9,369.9,569.6,369,569.3
							c0.2,0,0.5,0,0.7-0.1c-0.2-0.1-0.4-0.1-0.6-0.2c0,0,0,0,0,0l0,0c0,0,0,0,0,0c0.1,0.1,0.1,0.1,0,0.1c0,0,0,0,0,0
							C369.1,569.2,369.1,569.2,369,569.3c-0.4-0.1-0.1-0.1,0.1-0.2c0,0,0,0,0-0.1c0,0,0,0,0,0l-1.2,0.2
							C368.1,569.3,368.5,569.3,369,569.3z"/>
						<path id="XMLID_271_" d="M375.2,571.4c0,0,0-0.1,0-0.1C375.1,571.4,375,571.4,375.2,571.4z"/>
						<path id="XMLID_270_" d="M374.7,571.2c0.1-0.1,0.2-0.2,0.5-0.2c0.3,0.1,0,0.2,0,0.3c0.2-0.1,0.6-0.3,0.1-0.5l-0.1,0.1
							c-0.5-0.1-1.1-0.7-1-0.7C374.2,570.5,374.3,570.8,374.7,571.2z"/>
						<path id="XMLID_269_" d="M371.8,570.3l-1,0.2l0.5,0.4l0-0.2C371.9,570.8,371.7,570.5,371.8,570.3z"/>
						<polygon id="XMLID_268_" points="366.2,569 366.4,568.5 365.8,569.2 						"/>
						<polygon id="XMLID_267_" points="364.9,569 365,568.6 364.6,568.9 						"/>
						<path id="XMLID_266_" d="M290.1,574l-0.3,0.1C290,574,290.1,574,290.1,574z"/>
						<path id="XMLID_265_" d="M292.3,574l0.1-0.2C292.2,573.9,292.2,574,292.3,574z"/>
						<path id="XMLID_264_" d="M332.4,569.1c-0.4-0.4-0.9-0.9-0.9-0.5l0.1,0.4C331.9,568.9,332.2,569,332.4,569.1z"/>
						<path id="XMLID_263_" d="M310.1,571.7c0,0,0.1,0.1,0.1,0.1c0.1-0.1,0.2-0.3,0.3-0.4C310.4,571.5,310.2,571.6,310.1,571.7z"/>
						<path id="XMLID_262_" d="M309.8,573.5l-0.6-0.3C309.3,573.3,309.5,573.4,309.8,573.5z"/>
						<path id="XMLID_261_" d="M278.3,574.4l-0.3,0.4C278.5,574.9,278.2,574.6,278.3,574.4z"/>
						<path id="XMLID_260_" d="M351.3,569.2c-0.4-0.2-0.7-0.2-0.9-0.3C350.9,569.2,351.2,569.6,351.3,569.2z"/>
						<path id="XMLID_259_" d="M291,569.4c-0.2,0.1-0.3,0.2-0.3,0.3C290.9,569.5,291,569.5,291,569.4z"/>
						<path id="XMLID_258_" d="M349.3,568.9c0.1,0,0.1,0.1,0.2,0.1c0.3-0.1,0.6-0.1,0.9-0.1C350.1,568.8,349.7,568.6,349.3,568.9z"
							/>
						<path id="XMLID_257_" d="M235.3,574.1C235.3,574,235.2,574,235.3,574.1C235.2,574.1,235.2,574.1,235.3,574.1z"/>
						<path id="XMLID_256_" d="M222.8,569.7c0.1,0,0.3,0,0.5,0C223.2,569.6,223,569.6,222.8,569.7z"/>
						<path id="XMLID_255_" d="M359.6,568.9C359.9,568.8,359.6,568.8,359.6,568.9L359.6,568.9z"/>
						<path id="XMLID_254_" d="M361,570.6c-0.1,0-0.1,0.1-0.1,0.2C360.9,570.7,360.9,570.6,361,570.6z"/>
						<path id="XMLID_253_" d="M346.5,571.6C346.5,571.6,346.5,571.6,346.5,571.6C346.6,571.7,346.6,571.7,346.5,571.6z"/>
						<path id="XMLID_252_" d="M360,569.1c-0.1-0.1-0.2-0.1-0.4-0.1C359.7,569,359.8,569,360,569.1z"/>
						<path id="XMLID_251_" d="M360,568.8c0.1,0,0.2,0,0.2,0C360.2,568.8,360.2,568.8,360,568.8z"/>
						<path id="XMLID_250_" d="M359.2,568.9c0.2,0,0.3,0,0.5,0c-0.1,0-0.1-0.1-0.1-0.1C359.5,568.9,359.4,568.9,359.2,568.9z"/>
						<path id="XMLID_249_" d="M258.3,572.9C258.3,572.9,258.3,572.9,258.3,572.9C258,573,258.1,573,258.3,572.9z"/>
						<path id="XMLID_248_" d="M325,573.6C325.1,573.6,325.1,573.6,325,573.6C325.1,573.6,325.1,573.6,325,573.6L325,573.6z"/>
						<path id="XMLID_247_" d="M324,573.9c0.4-0.5,0.7-0.5,1-0.4l-0.3-1.3L324,573.9z"/>
						<path id="XMLID_240_" d="M284.9,574.1l0.7,0.4c-0.9,0.6-1.5,0.4-0.8,1c0.1-1.4,2.8-0.1,2.9-1.5l0.5,0.3
							c-0.1,0-0.2,0.1-0.3,0.1c0.9,0.7,0.7-1,1.8-0.8c0.4,0.1,0.7,0.3,0.4,0.5l0.9-0.3c0.3,0,0.2,0.3-0.1,0.2l1.4-0.1l0,0
							c0.2-0.2,0.6-0.5,0.9-0.7c0.4,0.2-0.2,0.1-0.1,0.3l0.8-0.3c0.3,0.4-0.3,0.7-0.9,0.6c0.7,1.4,0.6-0.3,2.2,0.5l-0.7,0.2
							c0.5,0.8,1,0.5,1.9,1c-0.2-0.3-1.6-1.2-0.8-1.5c0.2,0.1,0.5,0.2,1-0.1c0,0.5,0.4,0.4,1,0.3l0,0.6c0.6-0.2,0.5-0.5,0.9-0.8
							c0.7,0.1,0.8,0.6,1,1c1.1,0.1-0.7-0.8,0.5-0.9c0.9,0.2,1.5,0,2.6-0.4c0.6,0.2-0.1,0.4,0.1,0.6l0.5-0.5c0.1,0,0.1,0.2,0.1,0.2
							c0.5-0.2,0-0.6,0.8-0.8c0.2-0.7,1.5,1,2.4,0.2c0.2,0.2-0.1,0.4,0,0.6c1.2-0.5,1.1-0.4,2.1-1.1l0.9,0.4c-0.6-0.5,0.2-1,0.9-1.5
							c-0.2-0.2-0.4-0.4-0.5-0.5l1.1-0.3c0.1,0.1,0,0.3-0.2,0.6c0.1-0.1,0.2-0.1,0.2-0.2c0.4,0.2,0.2,0.6-0.1,1
							c-0.1-0.1-0.3-0.3-0.4-0.4c-0.3,0.4-0.5,0.8-0.5,1.2c0.1-0.1,0.2-0.1,0.4-0.2c-0.1,0.1-0.1,0.2-0.1,0.3c0,0.1,0.2-0.1,0.3-0.2
							l0.3,0.7l0.1-0.3l1.5,0.4c1.1-0.7,2-1.8,3.7-2.1c-0.4,0.5-0.1,0.9-0.1,1.5c-0.5-0.7-1.3,0.3-2.2,0.1c0.5,0.1,0.4,0.4,0.2,0.5
							l1.6-0.6c0,0.5,0.3,0.4,0.7,0.6c-0.3-1,1.2-0.7,1.8-1c0,0.3-0.1,0.7-0.9,0.6c0.8,0.8,1.1-1.2,1.9-0.5c-0.2,0-0.3,0-0.4,0.1
							c0.4-0.3,1.5-0.1,1.3,0.2l-0.2,0c1.2,0.1,3.8,0,4-0.8c0,0.1-0.2,1-0.2,1.2l2.2-2.9c-0.2,0.7,0.6,2.5-0.5,2.9
							c0.3,0.1,0.7,0.2,1.3,0c-0.2-0.1-0.5-1.1-0.2-1.1c0.8,0.8,0.5,0.4,1.5,1.1c-0.3-0.2,0-1.3,0.5-1.3c-0.1,0.2,0,1.1-0.1,1.3
							l1.2-1.1c-0.3,0.2-0.1,1,0.2,1.3c-0.1-0.2,1,0,1.4-0.1l-0.5-0.3c1.3,0.2,1.3-1.6,2.7-1.5c-0.2,0.2-0.4,1.4,0.3,1.6
							c0.3-0.6,1.4-2.8,2.6-3.2l0.2,0.3l0.9-0.4c-0.6,0.9-2.2,2.7-3,3.4c0.5,0.3,0.1,0.4,0.9,0.4c0.3,0.3-0.4,0.5-0.6,0.5l1.8,0.2
							c-0.1-0.7,1.3-0.7,1.3-1.2l-1.9,0.7c-0.1-0.7,1.1-1.9,2.4-1.8c0.3,0.3-0.2,1.2-0.2,1.4c0.2-0.2,1.2-0.4,1.3-0.3l-0.5,0.4
							c0.7,0.3,1.1-0.9,2-0.2c0.3,0,0.9,0.9,0.9,0.5c-0.5-0.8-0.6-3.1-0.2-3.7c0.1,0.1,1.5,0.7,1.8,1.1c0.5,0.6-0.7,1.4-0.3,2
							c0-0.2,0.3-0.4,0.4-0.5c0.3,0.2-0.1,0.6,0.5,0.5c0.1-0.7,1.3,0.1,0.3-0.6c0.6-0.2,0.7,0.1,1.4,0.1c-0.2-0.4,0.7-1.5,1.3-1.7
							c0,0.2,0.1,0.4,0.2,0.5c1.3,0.1,2,0.4,3.3,0.4c0.1,0.2,0.7,0.4,0.5,0.7c0.2-0.1,0.3-0.4,0.7-0.4c0.7,0.6-0.8,0.1-0.3,0.8
							c0-0.4,1-0.5,1.5-0.8c-0.2-0.6-1.2-0.1-1.8,0.1c0-0.8,0.9-1.7,2.2-2.1c1-0.2,0.4,0.5,0.6,0.4c1.9,0.1,1.6-1.5,3.2-0.9
							c0.6,0.5,0,1.1,0.2,1.5c-0.8,0.2-1.3-0.3-1.8-0.3l0.7,0.3c-0.3,0.2-0.8,0.3-1.1,0.2c0.5,0.5,3.2,0.1,4.7,0.5
							c0.3-0.2,0.7-0.4,0.5-0.6l-0.5,0.1c-0.4-0.4,0.9-0.6,0.3-0.8c0.6-0.3,1.3-0.8,2.2-0.5l0.2,0.6c0-0.2-0.6-0.4-0.8-0.2
							c0.4-0.3,1.4,0.8,1.8,0l-0.6-0.4c0.6-0.3,1.4-1,2.2-0.8c-0.4-0.6-0.2,0.1-0.7-0.6c0.5,0.9-2,0-1.2,0.9c-0.6-0.8-1-0.3-1.7-1
							c0,0.2,0.3,0.4-0.4,0.3c0,0.1-0.1,0.1-0.1,0.2c0,0,0,0,0,0c0,0,0,0,0,0c0,0,0,0,0,0c0.2,0.1,0.3,0.2,0.3,0.3
							c-0.3,0.5-1.4,0.4-1.7,0.7c-0.4-0.1,0.2-0.2,0-0.4l-0.5,0.4c-0.1-0.4-1-0.7-0.1-1l-0.8,0c-0.5-0.3-1.2-0.4-1.6-0.2
							c-0.4-0.1-1,0.5-0.6,0.1l-1.3,0.3l0-0.1c-1.3-0.1-2.6,0.7-4.1-0.1c-0.4,0.1-0.9,0.3-1.6,0.1l-0.1-0.4c-0.6,0.1-1.7-0.4-1.9,0
							c-0.6-1-2.7-0.2-3.7-0.4l0,0.5c-0.7,0-1.3,0.1-2.1,0.3l0.1,0.4c-0.7,0.4-1.8-0.3-3-0.3c0.1-0.2,0.4-0.1,0.6,0
							c-1.4-1-2.9,0.7-4.1,0c-0.3,0.2-0.5,0.1-0.7,0c0,0,0.1,0,0.1,0c0,0-0.1,0-0.1,0c-0.1-0.1-0.3-0.2-0.4-0.2
							c0.1,0.1,0.3,0.2,0.4,0.2c-0.2,0-0.6,0.1-0.9,0.2l-0.1-0.5c0,0-0.1,0-0.1,0c-0.3-0.2-0.3,0.2-0.1,0.6
							c-0.2,0.1-0.3,0.2-0.5,0.3c-0.3-0.8-0.9,0.3-1.3-0.6c-0.2,0.4-1.8,0.3-2,1.2c0-0.1-0.1-0.2,0.1-0.2c-0.4-0.1-0.8-0.2-1.1,0
							l-0.2-0.6l-0.9,0.8c-0.5-0.4-0.7-0.6-0.2-1.1c-1.2,0.7-1,0.3-2.1,1l0.1-0.4c-0.4,0-1,0.5-1.2,0.2c-0.8-0.8-4.2-0.1-6.4-0.8
							c0.4,1.2-1-0.5-1.1,0.4c-0.1-0.3-0.4-0.4-0.1-0.7c-1.1,0.3-1.7-0.4-2.4,0.3c-0.1-0.3,0.2-0.4,0.1-0.6
							c-0.1,0.1-0.4,0.2-0.5,0.1c-0.1-0.2,0.2-0.2,0.3-0.4c-1.1,0-1.2,0.9-1.3,1.7c-0.6-0.4-0.9-0.3-1.3,0.2
							c-0.2-0.3-0.5-0.5,0.2-0.6c-0.4,0-2.4-0.4-2.5,0.3c-0.1-0.2-0.6,0-0.7,0c-0.9,0-1-0.1-1.8,0l0.2,0.1c-0.3,0.8-0.7,0.2-1.4,0.3
							l0-0.1c-1.6-0.6-0.7,0.3-2.3-0.4l0.1,0.5c-0.1,1-1.4-0.6-2.3-0.2l0.3,0.3c-0.5,0.4-1.4-1.4-1.9-1.5c-0.1-0.1,0.2-0.1,0.3-0.2
							c-1.3-0.6-0.2,0.6-1.2,0.8c-0.2-0.3,0.2-0.9-0.4-0.9c-0.3-0.3-1.9,1.1-2.8,0.5c0.2,0.3,0.4,0.5-0.1,0.7
							c-0.7,0.1-1.9-1-2.5-0.2c-0.1-0.1-0.1-0.1-0.1-0.2c-0.5,0.2-1.7,0.4-2.1,0.8c-0.5-1.7-3.3,0.8-3.3-0.7l-1.7,0.1l0-0.2
							c-1.1-0.1-1.4,0.3-1.8,0.6c-0.2-0.1-0.1-0.2,0-0.3c-1.5-0.3-1.7-0.2-3,0.5l-0.1-0.5c-0.4,0.3-2.2-0.8-3.8-0.2
							c0-0.1,0-0.2,0.2-0.2c-1.7,0.6-4.1-1.4-4.7,0.4l-1.1,0.4c1.5,0.1-0.2,0.8,0.4,1.1c-0.6,0.1-1.5-0.5-0.8-0.6l0.1,0.1
							c0.3-0.9-1.8-0.3-1.8-1c-2.9,0-5.7-0.5-8.3-0.5l0.3,0.7l-0.9,0c-0.2-0.2-0.3-0.6,0.3-0.5c-0.4-0.4-1.1,0.3-1.1,0.5
							c-1.3-0.3,0.5-0.9,0.1-0.9l-0.5,0.1l0.1,0.1c-0.4,0.3-0.5,0.6-1.3,0.6c-0.5-0.1-0.3-0.5-0.5-0.5c0-0.1-0.1-0.1-0.3,0l-1.2-0.1
							l0.5,0.6c-0.5,0.3-1.1,0-0.6,0.6c-0.8-1-4.4-0.4-4.9-0.7c-0.7,0.4-1.5,0.4-2.4,0.4c0.2,0.1,0.4,0.8-0.4,0.7
							c0.3-1.3-1.4-0.6-2-1.5c0.6,0.6-2.2,0.2-1.3,1.1c-0.6-0.1,0-0.5-0.5-0.8c-1.5,0.5-3.4-0.3-5.3-0.2c0,0.2,0.3,0.4-0.1,0.7
							l-1-0.9c-0.4,0.1-0.3,1-1,0.4c0.1,0.1,0.2,0.4,0,0.4c-3.7-0.9-7.6,0.7-11.4-0.9c0.5,0.3,0.2,0.4-0.2,0.4c0.3,0.1,0,0.4,0,0.7
							l-1.6-0.7c-0.3,0.7-1.7,0-1.9,0.7l0.5-0.1c-0.7,0.7,0.9,1.7,0.8,2.6c0.7-0.8,2,1.3,3.2,0c0.3,0.2-0.2,0.3-0.1,0.5
							c0.3-0.4,0.7-0.5,1.4-0.3l-0.1,0.1c1.9-0.1,2.8,0.3,5,0.6l-0.2-0.5c0.5,0.1,0.6,0.2,0.8,0.3c0.5-0.7-1.3,0-0.8-0.8
							c0.6,1,3.3,0,3.7,1.1c0.7,0-0.2-0.5,0.5-0.5l0.2,0.3l0.2-0.4c0.5,0.1,0.7,0.4,0.7,0.7c-0.1,0-0.3,0.1-0.5,0.1
							c0.6,0.3,1.7-0.1,1.9,0l-0.7-0.2c2-0.3,4.4,0.1,6.3-0.5l-0.1-0.2c1.5-0.4,1.2,0.2,2.8,0.1l-0.1,0.1c0.3-0.2,0.7-0.3,1.2-0.3
							c-0.4,0.3,0.8,0.5,0.2,0.8c1.6-0.4,0.8-0.3,1.8-1.2l0.2,0.4c0.4-0.3,0.4-0.5,1.2-0.6c-0.7,0.3,0.5,0.6-0.2,1
							c1.7,0.8,2.5-0.8,3.3,0.4c0.8-1-1.4-0.6-1-0.8c-0.4-0.3,0.6-0.8,1.2-0.7c0.5,0,0.9,1.3,2.3,1.3c-0.1,0-0.1,0.1-0.3,0.1
							c0.5,0.3,1-0.4,1.6,0.1c0.3-0.6,0.8,0,0.9-0.8l-1.2,0.2c0.7-0.2,1.4-1.1,2.5-0.7c-0.1,0.2-0.4,0.4-0.7,0.5
							c0.3,0.2,0.6-0.2,1,0.1c-0.1,0.8-1.5,0.2-2.3,0.8c0.4,0.3,1.4-0.6,1,0.3c0.5-1.1,1.3,0.1,2.2-0.7l-0.1,0.5
							c0.1-0.1,0.4-0.3,0.7-0.3l-0.5,0.6c0.7-0.5,1.4,0.5,2.1,0.2c-1.5,0-0.3-0.6-1-0.9c1.8-0.6,1.1,1.2,3.1,1
							c-0.3,0.1-1-0.3-0.6-0.5c0.4,0.1,0.9,0.3,1.1,0.5c1.4-0.1-0.2-0.5,0.4-0.8c0.5,0.6,0.7-0.2,1.3-0.4l0,0.5
							c1.5,0.3,0.4-1,1.8-0.6l-0.6,0.7l0.7-0.2l-0.1,0.5c0.8-0.4,1-0.3,1.8-0.1c-0.2-0.3,0.1-0.9,0.8-0.9c0.5,0.3-0.3,0.5,0.7,0.4
							c-0.2,0.3-0.5,0.7-0.9,0.2c0,0.2-0.2,0.3-0.3,0.5c0.5,0.3,1.3,0.1,1.6,0.1c-0.1,0-0.3,0-0.4-0.1l1.4-0.7
							c0.2,0.2,0,0.3-0.1,0.5c0.3-0.1,0.5-0.3,0.9-0.3c-0.1,0.4-0.1,0.8-0.7,1l1.3-0.4c0.1,0.2,0.7,0.5,0.5,0.6
							c0.7,0.2,1.8-0.8,2.8-0.5c0.1-0.1,0.2-0.1,0.4-0.2c0.9,0.1,1.7,0.6,2.8,0l0.6,0.7c0.9-0.2-0.8-0.9,0.6-1.2
							c1-0.2,0.4,0.6,0.7,0.8c0.5-0.4,1.4-1.1,2.3-0.5C285.5,574.1,285.2,574,284.9,574.1z M295.5,573.8c-0.2,0.1-0.6,0.4-0.8,0.1
							C295,573.3,295.2,573.6,295.5,573.8z M311.6,572.6c-0.2,0.2-0.4,0.1-0.7-0.1C311.2,572.5,311.4,572.5,311.6,572.6z
							 M356.5,569.2C356.5,569.3,356.5,569.3,356.5,569.2C356,569.1,356.2,569.2,356.5,569.2z M357.5,569.5c0.1-0.1,0.1-0.1,0-0.2
							c-0.1,0.1-0.3,0.1-0.5,0.1C357,569.5,357.2,569.6,357.5,569.5z M255.3,569.6l0.2,0.1C255.1,569.9,255.2,569.8,255.3,569.6z"/>
						<path id="XMLID_239_" d="M309.8,573.3c-0.1-0.1-0.1-0.2-0.1-0.3C309.6,573.1,309.6,573.2,309.8,573.3z"/>
						<path id="XMLID_238_" d="M278.3,574.3C278.3,574.3,278.3,574.3,278.3,574.3C278.3,574.4,278.3,574.4,278.3,574.3L278.3,574.3z
							"/>
						<path id="XMLID_237_" d="M342.7,573.5c-0.2-0.1-0.3-0.2-0.4-0.2C342.3,573.4,342.4,573.5,342.7,573.5z"/>
						<path id="XMLID_236_" d="M362.5,568.6l-0.6,0.1c0.3,0,0.4,0.1,0.5,0.2C362.4,568.8,362.3,568.6,362.5,568.6z"/>
						<path id="XMLID_235_" d="M367.8,571.6c0.1-0.1,0.2,0,0.3-0.1l0-0.2C367.7,571.3,367.4,571.5,367.8,571.6z"/>
						<path id="XMLID_234_" d="M363.1,570.2c0,0.4,0.4,0.3,0.9,0.2c0,0,0,0-0.1,0C364,569.9,363.5,570.1,363.1,570.2z"/>
						<path id="XMLID_233_" d="M364,570.4c0.1,0,0.3,0,0.4,0C364.5,570.2,364.2,570.4,364,570.4z"/>
						<path id="XMLID_232_" d="M358.7,569.2c0.2,0.1,0.1-0.5,0.2-0.4C359.1,568.3,357.6,569.5,358.7,569.2z"/>
						<polygon id="XMLID_231_" points="363.4,571.6 363.3,571.1 363,571.5 						"/>
						<path id="XMLID_230_" d="M360,571.2l0.7,0.1c0-0.1,0.1-0.1,0.2-0.2C360.5,571.2,360,571.1,360,571.2z"/>
						<path id="XMLID_229_" d="M360.9,571.2c0.2,0,0.4,0,0.5-0.1C361.3,571.1,361.1,571.1,360.9,571.2z"/>
						<polygon id="XMLID_228_" points="362.5,571.7 362.3,571.6 361.8,571.6 						"/>
						<path id="XMLID_227_" d="M352.7,571.1l-0.7,0.1c-0.1,0.2,0.1,0.3,0.4,0.2C352.5,571.3,352.8,571.3,352.7,571.1z"/>
						<path id="XMLID_226_" d="M355,572.5c-0.2-0.1-0.2-0.2-0.3-0.4l0,0.6L355,572.5z"/>
						<path id="XMLID_225_" d="M352.8,572.6c-0.1,0.2-1.1,0.5-0.1,0.5C352.7,572.9,353.5,572.8,352.8,572.6z"/>
						<polygon id="XMLID_224_" points="341.6,571.8 341.8,571.8 341.7,570.8 						"/>
						<path id="XMLID_223_" d="M331.7,574.3c0.9,0.2,0.2-0.6,1-0.3c0.2-0.2-0.7-0.2-0.4-0.5C331.7,573.8,331.4,573.6,331.7,574.3z"
							/>
						<path id="XMLID_222_" d="M332.3,573.5c0.1,0,0.2-0.1,0.3-0.2C332.4,573.4,332.3,573.5,332.3,573.5z"/>
						<polygon id="XMLID_221_" points="220.7,569.1 220.1,568.9 220.5,569.3 						"/>
						<path id="XMLID_220_" d="M219.6,569.9l-0.1-0.6l-0.3,0.6C219.3,569.8,219.5,569.7,219.6,569.9z"/>
						<path id="XMLID_219_" d="M297.1,575.1l0-0.2c-0.1-0.2-0.2-0.2-0.5-0.2L297.1,575.1z"/>
						<polygon id="XMLID_218_" points="289.4,574.6 289.5,574.6 289.3,574 						"/>
						<path id="XMLID_217_" d="M283,575.3c0.3,0,0.6-0.1,0.8-0.1C283.2,575.4,282.9,574.6,283,575.3z"/>
					</g>
				</g>
			</g>
		</g>
	</g>
</g>
<g id="購物車">
</g>
<g id="MONEY">
	<g id="XMLID_13_">
		<circle id="XMLID_400_" class="st19" cx="2087" cy="343" r="118.5"/>
		<g id="XMLID_308_">
			<g id="XMLID_312_">
				<g id="XMLID_397_">
					<path id="XMLID_399_" class="st20" d="M1981.4,343.2l-25.8,0.1c0,0,0-1.8,0.1-4.4c0-0.7,0-1.4,0.1-2.2c0.1-0.8,0.1-1.6,0.2-2.4
						c0.1-1.7,0.2-3.4,0.4-5.2c0.2-1.8,0.4-3.5,0.6-5.2c0.2-1.7,0.5-3.2,0.8-4.5c0.4-2.6,0.9-4.4,0.9-4.4l25.2,5.5
						c0,0-0.4,1.4-0.7,3.5c-0.2,1.1-0.4,2.3-0.6,3.6c-0.2,1.3-0.3,2.7-0.5,4.2c-0.2,1.4-0.2,2.9-0.3,4.2c0,0.7-0.1,1.3-0.1,1.9
						c0,0.6,0,1.2,0,1.7C1981.4,341.8,1981.4,343.2,1981.4,343.2z"/>
					<path id="XMLID_398_" class="st21" d="M1981.4,343.2c0,0,0-1.4,0.1-3.6c0-0.5,0-1.1,0-1.7c0-0.6,0.1-1.3,0.1-1.9
						c0.1-1.3,0.2-2.8,0.3-4.2c0.2-1.4,0.4-2.8,0.5-4.2c0.2-1.3,0.4-2.6,0.6-3.6c0.3-2.1,0.7-3.5,0.7-3.5l-2.5-0.5
						c0,0-0.4,1.4-0.7,3.6c-0.2,1.1-0.4,2.3-0.6,3.7c-0.2,1.4-0.4,2.8-0.5,4.3c-0.2,1.5-0.2,2.9-0.3,4.3c0,0.7-0.1,1.3-0.1,2
						c0,0.6,0,1.2,0,1.8c-0.1,2.2-0.1,3.7-0.1,3.7L1981.4,343.2z"/>
				</g>
				<g id="XMLID_394_">
					<path id="XMLID_396_" class="st20" d="M1983.8,320.5l-25.2-5.5c0,0,0.4-1.7,1-4.3c0.3-1.3,0.8-2.8,1.2-4.4
						c0.2-0.8,0.4-1.6,0.7-2.5c0.3-0.8,0.6-1.7,0.8-2.5c1.1-3.4,2.5-6.7,3.4-9.2c1.1-2.4,1.8-4.1,1.8-4.1l23.5,10.8
						c0,0-0.6,1.3-1.5,3.3c-0.8,2-1.9,4.6-2.7,7.4c-0.2,0.7-0.5,1.4-0.7,2c-0.2,0.7-0.4,1.3-0.6,2c-0.4,1.3-0.7,2.5-1,3.5
						C1984.1,319.1,1983.8,320.5,1983.8,320.5z"/>
					<path id="XMLID_395_" class="st21" d="M1983.8,320.5c0,0,0.3-1.4,0.8-3.5c0.3-1,0.6-2.2,1-3.5c0.2-0.6,0.3-1.3,0.6-2
						c0.2-0.7,0.5-1.3,0.7-2c0.8-2.7,2-5.4,2.7-7.4c0.9-2,1.5-3.3,1.5-3.3l-2.3-1.1c0,0-0.6,1.3-1.5,3.3c-0.8,2.1-1.9,4.7-2.8,7.5
						c-0.2,0.7-0.5,1.4-0.7,2.1c-0.2,0.7-0.4,1.4-0.6,2c-0.4,1.3-0.7,2.6-1,3.6c-0.5,2.1-0.8,3.6-0.8,3.6L1983.8,320.5z"/>
				</g>
				<g id="XMLID_391_">
					<path id="XMLID_393_" class="st20" d="M1991,298.9l-23.5-10.8c0,0,0.7-1.6,1.9-4c0.6-1.2,1.3-2.6,2.1-4c0.8-1.4,1.7-3,2.6-4.5
						c1.9-3,3.8-6,5.4-8.2c0.8-1.1,1.4-2,1.9-2.6c0.5-0.6,0.7-1,0.7-1l20.6,15.6c0,0-0.2,0.3-0.6,0.8c-0.4,0.5-0.9,1.2-1.5,2.1
						c-1.3,1.7-2.8,4.2-4.3,6.6c-0.7,1.2-1.4,2.5-2.1,3.6c-0.7,1.2-1.2,2.3-1.7,3.3C1991.6,297.5,1991,298.9,1991,298.9z"/>
					<path id="XMLID_392_" class="st21" d="M1991,298.9c0,0,0.5-1.3,1.6-3.2c0.5-0.9,1-2.1,1.7-3.3c0.7-1.2,1.4-2.4,2.1-3.6
						c1.5-2.4,3-4.9,4.3-6.6c0.6-0.9,1.1-1.6,1.5-2.1c0.4-0.5,0.6-0.8,0.6-0.8l-2.1-1.6c0,0-0.2,0.3-0.6,0.8
						c-0.4,0.5-0.9,1.3-1.5,2.2c-1.3,1.8-2.9,4.3-4.4,6.7c-0.7,1.3-1.5,2.5-2.1,3.7c-0.7,1.2-1.2,2.4-1.7,3.3
						c-1,1.9-1.6,3.3-1.6,3.3L1991,298.9z"/>
				</g>
				<g id="XMLID_388_">
					<path id="XMLID_390_" class="st20" d="M2002.8,279.3l-20.6-15.6c0,0,1.1-1.4,2.7-3.5c0.8-1.1,1.9-2.2,2.9-3.5
						c0.5-0.6,1.1-1.3,1.7-1.9c0.6-0.6,1.2-1.3,1.8-1.9c2.4-2.6,5-5,6.9-6.9c2-1.8,3.3-2.9,3.3-2.9l16.8,19.6c0,0-1.1,0.9-2.7,2.3
						c-1.5,1.5-3.7,3.4-5.6,5.5c-0.5,0.5-1,1-1.5,1.5c-0.5,0.5-0.9,1.1-1.4,1.6c-0.9,1-1.7,1.9-2.4,2.8
						C2003.7,278.2,2002.8,279.3,2002.8,279.3z"/>
					<path id="XMLID_389_" class="st21" d="M2002.8,279.3c0,0,0.9-1.1,2.2-2.8c0.7-0.9,1.5-1.8,2.4-2.8c0.4-0.5,0.9-1,1.4-1.6
						c0.5-0.5,1-1,1.5-1.5c1.9-2.1,4-4,5.6-5.5c1.6-1.4,2.7-2.3,2.7-2.3l-1.7-2c0,0-1.1,1-2.8,2.4c-1.6,1.5-3.7,3.5-5.7,5.7
						c-0.5,0.5-1,1.1-1.5,1.6c-0.5,0.5-0.9,1.1-1.4,1.6c-0.9,1.1-1.8,2-2.4,2.9c-1.4,1.7-2.3,2.9-2.3,2.9L2002.8,279.3z"/>
				</g>
				<g id="XMLID_385_">
					<path id="XMLID_387_" class="st20" d="M2018.5,262.7l-16.8-19.6c0,0,1.3-1.2,3.4-2.8c1.1-0.8,2.2-1.8,3.6-2.8
						c1.4-1,2.8-2,4.3-3c3-2,6-3.9,8.3-5.2c1.2-0.7,2.1-1.2,2.8-1.6c0.7-0.4,1.1-0.6,1.1-0.6l12.2,22.8c0,0-0.3,0.2-0.9,0.4
						c-0.5,0.3-1.3,0.8-2.2,1.3c-1.9,1-4.3,2.6-6.7,4.2c-1.2,0.8-2.3,1.7-3.4,2.4c-1.1,0.8-2,1.6-2.9,2.3
						C2019.5,261.7,2018.5,262.7,2018.5,262.7z"/>
					<path id="XMLID_386_" class="st21" d="M2018.5,262.7c0,0,1.1-1,2.8-2.3c0.9-0.7,1.8-1.5,2.9-2.3c1.1-0.8,2.3-1.6,3.4-2.4
						c2.4-1.6,4.8-3.1,6.7-4.2c0.9-0.5,1.7-1,2.2-1.3c0.6-0.3,0.9-0.4,0.9-0.4l-1.2-2.3c0,0-0.3,0.2-0.9,0.5
						c-0.6,0.3-1.3,0.8-2.3,1.3c-1.9,1.1-4.4,2.7-6.8,4.3c-1.2,0.9-2.4,1.7-3.5,2.5c-1.1,0.8-2.1,1.6-3,2.3
						c-1.7,1.3-2.8,2.3-2.8,2.3L2018.5,262.7z"/>
				</g>
				<g id="XMLID_382_">
					<path id="XMLID_384_" class="st20" d="M2037.3,249.8l-12.2-22.8c0,0,1.6-0.8,4-2c1.2-0.6,2.6-1.2,4.1-1.9
						c0.8-0.3,1.5-0.7,2.3-1.1c0.8-0.3,1.6-0.7,2.5-1c3.3-1.4,6.7-2.5,9.2-3.3c2.6-0.8,4.3-1.2,4.3-1.2l7,24.9c0,0-1.4,0.4-3.4,1
						c-2,0.7-4.8,1.6-7.4,2.7c-0.7,0.3-1.3,0.5-2,0.8c-0.6,0.3-1.3,0.6-1.9,0.9c-1.2,0.6-2.4,1-3.3,1.5
						C2038.6,249.1,2037.3,249.8,2037.3,249.8z"/>
					<path id="XMLID_383_" class="st21" d="M2037.3,249.8c0,0,1.3-0.7,3.2-1.6c1-0.5,2.1-1,3.3-1.5c0.6-0.3,1.2-0.6,1.9-0.9
						c0.7-0.3,1.3-0.5,2-0.8c2.6-1.1,5.4-2,7.4-2.7c2.1-0.6,3.4-1,3.4-1l-0.7-2.5c0,0-1.4,0.4-3.5,1c-2.1,0.7-4.9,1.6-7.6,2.7
						c-0.7,0.3-1.4,0.5-2,0.8c-0.7,0.3-1.3,0.6-1.9,0.9c-1.2,0.6-2.4,1.1-3.4,1.6c-2,1-3.3,1.7-3.3,1.7L2037.3,249.8z"/>
				</g>
				<g id="XMLID_379_">
					<path id="XMLID_381_" class="st20" d="M2058.5,241.3l-7-24.9c0,0,0.4-0.1,1.2-0.3c0.7-0.2,1.8-0.5,3.1-0.8
						c1.3-0.3,2.8-0.7,4.4-1c1.6-0.3,3.4-0.6,5.1-0.9c1.7-0.3,3.5-0.5,5.2-0.7c0.8-0.1,1.6-0.2,2.4-0.3c0.8-0.1,1.5-0.1,2.1-0.2
						c2.7-0.2,4.4-0.3,4.4-0.3l1.4,25.8c0,0-1.4,0.1-3.6,0.3c-0.5,0-1.1,0.1-1.7,0.1c-0.6,0.1-1.3,0.2-1.9,0.3
						c-1.3,0.2-2.8,0.3-4.2,0.6c-1.4,0.3-2.8,0.5-4.1,0.7c-1.3,0.3-2.5,0.6-3.6,0.8c-1,0.2-1.9,0.4-2.5,0.6
						C2058.8,241.2,2058.5,241.3,2058.5,241.3z"/>
					<path id="XMLID_380_" class="st21" d="M2058.5,241.3c0,0,0.3-0.1,0.9-0.3c0.6-0.2,1.5-0.4,2.5-0.6c1-0.2,2.3-0.5,3.6-0.8
						c1.3-0.2,2.7-0.5,4.1-0.7c1.4-0.3,2.8-0.4,4.2-0.6c0.7-0.1,1.3-0.2,1.9-0.3c0.6-0.1,1.2-0.1,1.7-0.1c2.1-0.2,3.6-0.3,3.6-0.3
						l-0.1-2.6c0,0-1.5,0.1-3.7,0.3c-0.5,0-1.1,0.1-1.8,0.1c-0.6,0.1-1.3,0.2-2,0.3c-1.4,0.2-2.8,0.3-4.3,0.6
						c-1.4,0.3-2.9,0.5-4.2,0.8c-1.3,0.3-2.6,0.6-3.7,0.9c-1.1,0.2-2,0.5-2.6,0.6c-0.6,0.2-1,0.3-1,0.3L2058.5,241.3z"/>
				</g>
				<g id="XMLID_376_">
					<path id="XMLID_378_" class="st20" d="M2081,237.5l-1.4-25.8c0,0,7.1-0.4,14.2,0c1.8,0.1,3.5,0.3,5.2,0.4
						c1.7,0.1,3.2,0.4,4.5,0.5c1.3,0.2,2.4,0.3,3.2,0.4c0.8,0.1,1.2,0.2,1.2,0.2l-4.1,25.5c0,0-0.4-0.1-1-0.2
						c-0.6-0.1-1.5-0.2-2.6-0.3c-1.1-0.1-2.3-0.3-3.6-0.4c-1.3-0.1-2.8-0.2-4.2-0.3C2086.7,237.2,2081,237.5,2081,237.5z"/>
					<path id="XMLID_377_" class="st21" d="M2081,237.5c0,0,5.7-0.3,11.5,0c1.4,0.1,2.9,0.2,4.2,0.3c1.3,0.1,2.6,0.3,3.6,0.4
						c1.1,0.1,2,0.2,2.6,0.3c0.6,0.1,1,0.2,1,0.2l0.4-2.5c0,0-0.4-0.1-1-0.2c-0.6-0.1-1.5-0.2-2.6-0.3c-1.1-0.1-2.4-0.3-3.7-0.4
						c-1.4-0.1-2.8-0.2-4.3-0.3c-5.9-0.3-11.7,0-11.7,0L2081,237.5z"/>
				</g>
				<g id="XMLID_373_">
					<path id="XMLID_375_" class="st20" d="M2103.8,238.7l4.1-25.5c0,0,1.8,0.3,4.4,0.8c1.3,0.2,2.8,0.6,4.5,1
						c0.8,0.2,1.7,0.4,2.5,0.6c0.8,0.2,1.7,0.5,2.6,0.7c1.7,0.5,3.4,0.9,5,1.5c1.6,0.5,3.1,1,4.3,1.5c1.3,0.4,2.3,0.9,3,1.1
						c0.7,0.3,1.1,0.4,1.1,0.4l-9.5,24c0,0-0.3-0.1-0.9-0.4c-0.6-0.2-1.4-0.6-2.4-0.9c-1-0.3-2.2-0.7-3.5-1.2
						c-1.3-0.5-2.7-0.8-4-1.2c-0.7-0.2-1.4-0.4-2.1-0.6c-0.7-0.2-1.4-0.3-2-0.5c-1.3-0.3-2.5-0.6-3.6-0.8
						C2105.2,239,2103.8,238.7,2103.8,238.7z"/>
					<path id="XMLID_374_" class="st21" d="M2103.8,238.7c0,0,1.4,0.2,3.5,0.6c1.1,0.2,2.3,0.5,3.6,0.8c0.7,0.1,1.3,0.3,2,0.5
						c0.7,0.2,1.4,0.4,2.1,0.6c1.4,0.4,2.8,0.7,4,1.2c1.3,0.4,2.5,0.8,3.5,1.2c1,0.3,1.8,0.7,2.4,0.9c0.6,0.2,0.9,0.4,0.9,0.4l1-2.4
						c0,0-0.3-0.1-0.9-0.4c-0.6-0.2-1.4-0.6-2.5-0.9c-1-0.3-2.3-0.8-3.6-1.2c-1.3-0.5-2.7-0.8-4.1-1.2c-0.7-0.2-1.4-0.4-2.1-0.6
						c-0.7-0.2-1.4-0.3-2.1-0.5c-1.3-0.3-2.6-0.6-3.7-0.8c-2.2-0.4-3.6-0.6-3.6-0.6L2103.8,238.7z"/>
				</g>
				<g id="XMLID_370_">
					<path id="XMLID_372_" class="st20" d="M2125.8,244.8l9.5-24c0,0,0.4,0.2,1.1,0.4c0.4,0.1,0.8,0.3,1.3,0.5
						c0.5,0.2,1.1,0.5,1.7,0.7c1.2,0.5,2.6,1.2,4.2,1.9c1.5,0.8,3.1,1.6,4.7,2.4c6.3,3.3,12.2,7.3,12.2,7.3l-14.5,21.4
						c0,0-4.8-3.2-9.8-5.9c-1.3-0.6-2.5-1.3-3.7-1.9c-1.2-0.5-2.4-1.1-3.3-1.5c-0.5-0.2-0.9-0.4-1.3-0.6c-0.4-0.2-0.8-0.3-1.1-0.4
						C2126.2,244.9,2125.8,244.8,2125.8,244.8z"/>
					<path id="XMLID_371_" class="st21" d="M2125.8,244.8c0,0,0.3,0.1,0.9,0.4c0.3,0.1,0.6,0.3,1.1,0.4c0.4,0.2,0.8,0.4,1.3,0.6
						c1,0.4,2.1,0.9,3.3,1.5c1.2,0.6,2.5,1.3,3.7,1.9c5.1,2.7,9.8,5.9,9.8,5.9l1.4-2.1c0,0-4.9-3.3-10.1-6c-1.3-0.7-2.6-1.3-3.8-1.9
						c-1.3-0.6-2.4-1.1-3.4-1.5c-0.5-0.2-1-0.4-1.4-0.6c-0.4-0.2-0.8-0.3-1.1-0.4c-0.6-0.2-0.9-0.4-0.9-0.4L2125.8,244.8z"/>
				</g>
				<g id="XMLID_367_">
					<path id="XMLID_369_" class="st20" d="M2146,255.4l14.5-21.4c0,0,1.5,1,3.6,2.6c1.1,0.7,2.3,1.7,3.6,2.7c1.3,1,2.7,2.1,4.1,3.3
						c1.3,1.2,2.7,2.3,3.9,3.4c1.2,1.1,2.3,2.2,3.3,3.1c1,0.9,1.7,1.7,2.3,2.3c0.5,0.6,0.8,0.9,0.8,0.9l-18.7,17.8
						c0,0-0.2-0.3-0.7-0.7c-0.4-0.4-1-1.1-1.8-1.8c-0.8-0.7-1.7-1.6-2.7-2.5c-1-0.9-2.1-1.8-3.2-2.8c-1.1-1-2.2-1.8-3.3-2.6
						c-1.1-0.8-2-1.6-2.9-2.2C2147.2,256.2,2146,255.4,2146,255.4z"/>
					<path id="XMLID_368_" class="st21" d="M2146,255.4c0,0,1.2,0.8,2.9,2.1c0.9,0.6,1.9,1.4,2.9,2.2c1.1,0.8,2.2,1.7,3.3,2.6
						c1.1,0.9,2.2,1.8,3.2,2.8c1,0.9,1.9,1.8,2.7,2.5c0.8,0.7,1.4,1.4,1.8,1.8c0.4,0.5,0.7,0.7,0.7,0.7l1.9-1.8c0,0-0.3-0.3-0.7-0.7
						c-0.5-0.5-1-1.2-1.9-1.9c-0.8-0.8-1.7-1.6-2.7-2.6c-1-0.9-2.1-1.9-3.2-2.8c-1.1-1-2.3-1.9-3.3-2.7c-1.1-0.8-2.1-1.7-3-2.3
						c-1.8-1.3-3-2.1-3-2.1L2146,255.4z"/>
				</g>
				<g id="XMLID_364_">
					<path id="XMLID_366_" class="st20" d="M2163.5,270.2l18.7-17.8c0,0,0.3,0.3,0.8,0.9c0.5,0.6,1.3,1.4,2.2,2.4
						c0.9,1,1.9,2.2,3,3.4c1,1.3,2.1,2.7,3.2,4.1c4.3,5.6,8,11.7,8,11.7l-22.1,13.4c0,0-3-4.9-6.5-9.4c-0.9-1.1-1.8-2.2-2.6-3.3
						c-0.9-1-1.7-2-2.4-2.8c-0.7-0.8-1.3-1.5-1.7-1.9C2163.7,270.4,2163.5,270.2,2163.5,270.2z"/>
					<path id="XMLID_365_" class="st21" d="M2163.5,270.2c0,0,0.2,0.3,0.7,0.7c0.4,0.4,1.1,1.1,1.7,1.9c0.7,0.8,1.5,1.8,2.4,2.8
						c0.8,1.1,1.7,2.2,2.6,3.3c3.5,4.5,6.5,9.4,6.5,9.4l2.2-1.3c0,0-3.1-5-6.6-9.7c-0.9-1.1-1.8-2.3-2.7-3.4c-0.9-1-1.7-2-2.5-2.8
						c-0.7-0.8-1.3-1.5-1.8-2c-0.4-0.5-0.7-0.7-0.7-0.7L2163.5,270.2z"/>
				</g>
				<g id="XMLID_361_">
					<path id="XMLID_363_" class="st20" d="M2177.4,288.3l22.1-13.4c0,0,0.9,1.5,2.2,3.9c0.7,1.1,1.4,2.5,2.2,4
						c0.8,1.5,1.6,3.1,2.3,4.7c0.7,1.6,1.5,3.2,2.1,4.8c0.6,1.6,1.2,3,1.7,4.2c0.5,1.2,0.8,2.3,1.1,3c0.3,0.7,0.4,1.2,0.4,1.2
						L2187,309c0,0-1.8-5.4-4.3-10.6c-0.6-1.3-1.2-2.6-1.9-3.8c-0.6-1.2-1.2-2.3-1.7-3.2C2178.1,289.5,2177.4,288.3,2177.4,288.3z"
						/>
					<path id="XMLID_362_" class="st21" d="M2177.4,288.3c0,0,0.7,1.2,1.8,3.1c0.6,0.9,1.1,2,1.7,3.2c0.6,1.2,1.3,2.4,1.9,3.8
						c2.5,5.2,4.3,10.6,4.3,10.6l2.4-0.8c0,0-1.8-5.6-4.4-10.9c-0.6-1.3-1.3-2.6-1.9-3.9c-0.6-1.2-1.2-2.4-1.8-3.3
						c-1.1-1.9-1.8-3.2-1.8-3.2L2177.4,288.3z"/>
				</g>
				<g id="XMLID_358_">
					<path id="XMLID_360_" class="st20" d="M2187,309l24.5-8.3c0,0,2.4,6.7,3.8,13.7c0.4,1.7,0.7,3.5,1,5.1c0.3,1.6,0.6,3.2,0.7,4.5
						c0.3,2.6,0.6,4.4,0.6,4.4l-25.7,2.8c0,0-0.2-1.4-0.5-3.5c-0.1-1.1-0.4-2.3-0.6-3.6c-0.2-1.3-0.5-2.7-0.8-4.1
						C2188.9,314.4,2187,309,2187,309z"/>
					<path id="XMLID_359_" class="st21" d="M2187,309c0,0,1.9,5.4,3.1,11c0.4,1.4,0.6,2.8,0.8,4.1c0.2,1.3,0.5,2.5,0.6,3.6
						c0.3,2.1,0.5,3.5,0.5,3.5l2.6-0.3c0,0-0.2-1.5-0.5-3.6c-0.1-1.1-0.4-2.3-0.6-3.7c-0.3-1.3-0.5-2.8-0.8-4.2
						c-1.2-5.7-3.2-11.3-3.2-11.3L2187,309z"/>
				</g>
				<g id="XMLID_355_">
					<path id="XMLID_357_" class="st20" d="M2191.9,331.3l25.7-2.8c0,0,0,0.1,0,0.3c0,0.2,0.1,0.5,0.1,0.9c0.1,0.8,0.1,1.9,0.3,3.2
						c0.3,2.7,0.3,6.2,0.4,9.8c-0.1,3.6-0.1,7.1-0.4,9.8c-0.1,1.3-0.2,2.4-0.2,3.2c0,0.4-0.1,0.7-0.1,0.9c0,0.2,0,0.3,0,0.3
						l-25.7-2.7c0,0,0-0.1,0-0.3c0-0.2,0.1-0.4,0.1-0.7c0-0.6,0.1-1.5,0.2-2.6c0.2-2.1,0.2-5,0.3-7.9c-0.1-2.9-0.1-5.7-0.3-7.9
						c-0.1-1.1-0.2-2-0.2-2.6c0-0.3-0.1-0.6-0.1-0.7C2192,331.3,2191.9,331.3,2191.9,331.3z"/>
					<path id="XMLID_356_" class="st21" d="M2191.9,331.3c0,0,0,0.1,0,0.3c0,0.2,0.1,0.4,0.1,0.7c0,0.6,0.1,1.5,0.2,2.6
						c0.2,2.1,0.2,5,0.3,7.9c-0.1,2.9-0.1,5.7-0.3,7.9c-0.1,1.1-0.1,2-0.2,2.6c0,0.3,0,0.6-0.1,0.7c0,0.2,0,0.3,0,0.3l2.6,0.3
						c0,0,0-0.1,0-0.3c0-0.2,0.1-0.4,0.1-0.7c0-0.6,0.1-1.6,0.2-2.7c0.2-2.2,0.2-5.1,0.3-8.1c-0.1-2.9-0.1-5.9-0.4-8.1
						c-0.1-1.1-0.2-2-0.2-2.6c0-0.3-0.1-0.6-0.1-0.7c0-0.2,0-0.3,0-0.3L2191.9,331.3z"/>
				</g>
				<g id="XMLID_352_">
					<path id="XMLID_354_" class="st20" d="M2192,354.1l25.7,2.7c0,0-0.2,1.8-0.5,4.4c-0.1,1.3-0.4,2.9-0.7,4.5
						c-0.3,1.6-0.6,3.4-1,5.1c-1.4,7-3.8,13.7-3.8,13.7l-24.5-8.2c0,0,1.9-5.4,3-11c0.4-1.4,0.6-2.8,0.8-4.1
						c0.2-1.3,0.5-2.5,0.6-3.6C2191.8,355.5,2192,354.1,2192,354.1z"/>
					<path id="XMLID_353_" class="st21" d="M2192,354.1c0,0-0.2,1.4-0.4,3.5c-0.1,1.1-0.4,2.3-0.6,3.6c-0.2,1.3-0.4,2.7-0.8,4.1
						c-1.1,5.6-3,11-3,11l2.4,0.8c0,0,1.9-5.5,3.1-11.3c0.4-1.4,0.6-2.9,0.8-4.2c0.2-1.4,0.5-2.6,0.6-3.7c0.3-2.2,0.5-3.6,0.5-3.6
						L2192,354.1z"/>
				</g>
				<g id="XMLID_349_">
					<path id="XMLID_351_" class="st20" d="M2187.2,376.4l24.5,8.2c0,0-0.1,0.4-0.4,1.2c-0.3,0.7-0.6,1.8-1.1,3
						c-0.5,1.2-1.1,2.7-1.7,4.2c-0.6,1.6-1.4,3.2-2.1,4.8c-0.7,1.6-1.5,3.2-2.3,4.7c-0.8,1.5-1.4,2.9-2.1,4
						c-1.3,2.3-2.2,3.9-2.2,3.9l-22.2-13.3c0,0,0.7-1.2,1.8-3.1c0.6-0.9,1.1-2,1.7-3.2c0.6-1.2,1.3-2.5,1.8-3.8
						C2185.4,381.9,2187.2,376.4,2187.2,376.4z"/>
					<path id="XMLID_350_" class="st21" d="M2187.2,376.4c0,0-1.7,5.5-4.2,10.6c-0.6,1.3-1.2,2.6-1.8,3.8c-0.6,1.2-1.2,2.3-1.7,3.2
						c-1.1,1.9-1.8,3.1-1.8,3.1l2.2,1.3c0,0,0.7-1.3,1.8-3.2c0.6-0.9,1.1-2.1,1.8-3.3c0.6-1.2,1.3-2.5,1.9-3.9
						c2.5-5.3,4.3-10.9,4.3-10.9L2187.2,376.4z"/>
				</g>
				<g id="XMLID_346_">
					<path id="XMLID_348_" class="st20" d="M2177.6,397.2l22.2,13.3c0,0-3.7,6.1-8,11.8c-1.1,1.4-2.2,2.8-3.2,4.1
						c-1.1,1.3-2.1,2.4-3,3.5c-0.9,1-1.6,1.8-2.2,2.4c-0.5,0.6-0.8,0.9-0.8,0.9l-18.8-17.7c0,0,0.2-0.3,0.7-0.7
						c0.4-0.4,1.1-1.1,1.7-1.9c0.7-0.8,1.5-1.8,2.4-2.8c0.8-1.1,1.7-2.2,2.6-3.3C2174.7,402.1,2177.6,397.2,2177.6,397.2z"/>
					<path id="XMLID_347_" class="st21" d="M2177.6,397.2c0,0-3,4.9-6.4,9.5c-0.9,1.1-1.8,2.3-2.6,3.3c-0.9,1-1.7,2-2.4,2.8
						c-0.7,0.8-1.3,1.5-1.7,1.9c-0.4,0.5-0.7,0.7-0.7,0.7l1.9,1.8c0,0,0.3-0.3,0.7-0.7c0.4-0.5,1.1-1.1,1.8-2
						c0.7-0.8,1.6-1.8,2.5-2.8c0.8-1.1,1.7-2.2,2.7-3.4c3.5-4.7,6.6-9.7,6.6-9.7L2177.6,397.2z"/>
				</g>
				<g id="XMLID_343_">
					<path id="XMLID_345_" class="st20" d="M2163.8,415.4l18.8,17.7c0,0-0.3,0.3-0.8,0.9c-0.5,0.6-1.3,1.4-2.3,2.3
						c-1,0.9-2.1,2-3.3,3.2c-1.2,1.2-2.6,2.3-3.9,3.5c-1.3,1.2-2.7,2.3-4,3.3c-1.3,1-2.5,2-3.6,2.8c-2.2,1.6-3.6,2.6-3.6,2.6
						l-14.6-21.3c0,0,1.2-0.8,2.9-2.1c0.9-0.6,1.9-1.4,2.9-2.2c1.1-0.8,2.2-1.7,3.3-2.7c1.1-1,2.2-1.9,3.1-2.8
						c1-0.9,1.9-1.8,2.6-2.5c0.8-0.7,1.4-1.4,1.8-1.9C2163.6,415.6,2163.8,415.4,2163.8,415.4z"/>
					<path id="XMLID_344_" class="st21" d="M2163.8,415.4c0,0-0.2,0.3-0.7,0.7c-0.4,0.4-1,1.1-1.8,1.9c-0.8,0.7-1.7,1.6-2.6,2.5
						c-1,0.9-2.1,1.8-3.1,2.8c-1.1,1-2.2,1.8-3.3,2.7c-1.1,0.8-2,1.6-2.9,2.2c-1.7,1.2-2.9,2.1-2.9,2.1l1.5,2.1c0,0,1.2-0.9,3-2.1
						c0.9-0.6,1.9-1.4,3-2.3c1.1-0.9,2.2-1.7,3.3-2.7c1.1-1,2.2-1.9,3.2-2.9c1-1,1.9-1.8,2.7-2.6c0.8-0.7,1.4-1.5,1.9-1.9
						c0.4-0.5,0.7-0.7,0.7-0.7L2163.8,415.4z"/>
				</g>
				<g id="XMLID_340_">
					<path id="XMLID_342_" class="st20" d="M2146.5,430.2l14.6,21.3c0,0-5.9,4-12.2,7.4c-1.6,0.8-3.2,1.6-4.7,2.4
						c-1.5,0.7-2.9,1.3-4.2,1.9c-0.6,0.3-1.2,0.5-1.7,0.7c-0.5,0.2-0.9,0.4-1.3,0.5c-0.7,0.3-1.1,0.5-1.1,0.5l-9.6-24
						c0,0,0.3-0.1,0.9-0.4c0.3-0.1,0.6-0.3,1-0.4c0.4-0.2,0.8-0.4,1.3-0.6c1-0.4,2.1-1,3.3-1.5c1.2-0.6,2.5-1.3,3.7-1.9
						C2141.7,433.4,2146.5,430.2,2146.5,430.2z"/>
					<path id="XMLID_341_" class="st21" d="M2146.5,430.2c0,0-4.7,3.2-9.8,5.9c-1.3,0.7-2.5,1.3-3.7,1.9c-1.2,0.6-2.4,1.1-3.3,1.5
						c-0.5,0.2-0.9,0.4-1.3,0.6c-0.4,0.2-0.8,0.3-1,0.4c-0.6,0.2-0.9,0.4-0.9,0.4l1,2.4c0,0,0.3-0.1,0.9-0.4
						c0.3-0.1,0.7-0.3,1.1-0.4c0.4-0.2,0.9-0.4,1.4-0.6c1-0.5,2.2-1,3.4-1.6c1.2-0.6,2.5-1.3,3.8-2c5.2-2.8,10-6.1,10-6.1
						L2146.5,430.2z"/>
				</g>
				<g id="XMLID_337_">
					<path id="XMLID_339_" class="st20" d="M2126.3,441l9.6,24c0,0-0.4,0.2-1.1,0.5c-0.7,0.3-1.7,0.7-3,1.2
						c-1.3,0.4-2.7,0.9-4.3,1.5c-1.6,0.6-3.3,1-5,1.5c-0.9,0.2-1.7,0.5-2.6,0.7c-0.9,0.2-1.7,0.4-2.5,0.6c-1.6,0.4-3.1,0.8-4.5,1
						c-2.6,0.5-4.4,0.8-4.4,0.8l-4.2-25.5c0,0,1.4-0.3,3.5-0.6c1.1-0.2,2.3-0.5,3.6-0.8c0.7-0.2,1.3-0.3,2-0.5
						c0.7-0.2,1.4-0.4,2.1-0.6c1.4-0.4,2.8-0.7,4-1.2c1.3-0.4,2.5-0.8,3.5-1.2c1-0.3,1.8-0.7,2.4-0.9
						C2126,441.1,2126.3,441,2126.3,441z"/>
					<path id="XMLID_338_" class="st21" d="M2126.3,441c0,0-0.3,0.1-0.9,0.4c-0.6,0.2-1.4,0.6-2.4,0.9c-1,0.3-2.2,0.7-3.5,1.2
						c-1.3,0.5-2.7,0.8-4,1.2c-0.7,0.2-1.4,0.4-2.1,0.6c-0.7,0.2-1.4,0.3-2,0.5c-1.3,0.3-2.5,0.6-3.6,0.8c-2.1,0.4-3.5,0.6-3.5,0.6
						l0.4,2.5c0,0,1.4-0.3,3.6-0.7c1.1-0.2,2.3-0.5,3.7-0.8c0.7-0.2,1.4-0.3,2.1-0.5c0.7-0.2,1.4-0.4,2.1-0.6
						c1.4-0.4,2.8-0.8,4.1-1.2c1.3-0.4,2.5-0.9,3.6-1.2c1-0.3,1.9-0.7,2.5-1c0.6-0.2,0.9-0.4,0.9-0.4L2126.3,441z"/>
				</g>
				<g id="XMLID_334_">
					<path id="XMLID_336_" class="st20" d="M2104.4,447.1l4.2,25.5c0,0-0.4,0.1-1.2,0.2c-0.8,0.1-1.9,0.2-3.2,0.4
						c-1.3,0.1-2.9,0.4-4.5,0.5c-1.7,0.1-3.4,0.3-5.2,0.4c-7.1,0.4-14.2,0-14.2,0l1.3-25.8c0,0,5.7,0.3,11.5,0
						c1.4-0.1,2.9-0.2,4.2-0.3c1.3-0.1,2.6-0.3,3.6-0.4c1.1-0.1,2-0.3,2.6-0.3C2104,447.2,2104.4,447.1,2104.4,447.1z"/>
					<path id="XMLID_335_" class="st21" d="M2104.4,447.1c0,0-0.4,0.1-1,0.2c-0.6,0.1-1.5,0.2-2.6,0.3c-1.1,0.1-2.3,0.4-3.6,0.4
						c-1.3,0.1-2.8,0.2-4.2,0.3c-5.7,0.3-11.5,0-11.5,0l-0.1,2.6c0,0,5.9,0.3,11.7,0c1.5-0.1,2.9-0.2,4.3-0.3
						c1.4-0.1,2.6-0.3,3.7-0.4c1.1-0.1,2-0.3,2.6-0.3c0.6-0.1,1-0.2,1-0.2L2104.4,447.1z"/>
				</g>
				<g id="XMLID_331_">
					<path id="XMLID_333_" class="st20" d="M2081.5,448.4l-1.3,25.8c0,0-1.8-0.1-4.4-0.3c-0.7-0.1-1.4-0.1-2.1-0.2
						c-0.8-0.1-1.6-0.2-2.4-0.3c-1.7-0.2-3.4-0.4-5.2-0.7c-1.8-0.3-3.5-0.6-5.2-0.9c-1.6-0.4-3.1-0.7-4.5-1
						c-1.3-0.3-2.4-0.5-3.1-0.8c-0.8-0.2-1.2-0.3-1.2-0.3l6.8-24.9c0,0,0.3,0.1,0.9,0.3c0.6,0.2,1.5,0.4,2.5,0.6
						c1,0.2,2.3,0.5,3.6,0.8c1.3,0.2,2.7,0.5,4.1,0.7c1.4,0.3,2.8,0.4,4.2,0.6c0.7,0.1,1.3,0.2,1.9,0.2c0.6,0.1,1.2,0.1,1.7,0.1
						C2080.1,448.3,2081.5,448.4,2081.5,448.4z"/>
					<path id="XMLID_332_" class="st21" d="M2081.5,448.4c0,0-1.4-0.1-3.6-0.3c-0.5,0-1.1-0.1-1.7-0.1c-0.6-0.1-1.3-0.2-1.9-0.2
						c-1.3-0.2-2.8-0.3-4.2-0.6c-1.4-0.2-2.8-0.5-4.1-0.7c-1.3-0.3-2.5-0.6-3.6-0.8c-1-0.2-1.9-0.4-2.5-0.6
						c-0.6-0.2-0.9-0.3-0.9-0.3l-0.7,2.5c0,0,0.4,0.1,1,0.3c0.6,0.2,1.5,0.4,2.6,0.6c1.1,0.2,2.3,0.5,3.7,0.8
						c1.4,0.2,2.8,0.5,4.2,0.7c1.4,0.3,2.9,0.4,4.3,0.6c0.7,0.1,1.3,0.2,2,0.2c0.6,0.1,1.2,0.1,1.8,0.1c2.2,0.2,3.7,0.3,3.7,0.3
						L2081.5,448.4z"/>
				</g>
				<g id="XMLID_328_">
					<path id="XMLID_330_" class="st20" d="M2059,444.8l-6.8,24.9c0,0-1.7-0.5-4.3-1.2c-2.5-0.9-5.9-1.9-9.2-3.3
						c-0.8-0.3-1.7-0.7-2.5-1c-0.8-0.4-1.6-0.7-2.4-1c-1.5-0.7-3-1.3-4.1-1.9c-2.4-1.2-4-2-4-2l12.1-22.8c0,0,1.3,0.6,3.2,1.6
						c1,0.5,2.1,1,3.3,1.5c0.6,0.3,1.2,0.6,1.9,0.8c0.7,0.3,1.3,0.5,2,0.8c2.6,1.1,5.4,1.9,7.4,2.6
						C2057.6,444.4,2059,444.8,2059,444.8z"/>
					<path id="XMLID_329_" class="st21" d="M2059,444.8c0,0-1.4-0.4-3.4-1c-2-0.7-4.8-1.5-7.4-2.6c-0.7-0.3-1.3-0.5-2-0.8
						c-0.6-0.3-1.3-0.6-1.9-0.8c-1.2-0.6-2.4-1-3.3-1.5c-1.9-1-3.2-1.6-3.2-1.6l-1.2,2.3c0,0,1.3,0.7,3.3,1.7c1,0.5,2.2,1,3.4,1.6
						c0.6,0.3,1.3,0.6,1.9,0.9c0.7,0.3,1.4,0.5,2,0.8c2.7,1.1,5.5,2,7.6,2.7c2.1,0.6,3.5,1,3.5,1L2059,444.8z"/>
				</g>
				<g id="XMLID_325_">
					<path id="XMLID_327_" class="st20" d="M2037.8,436.4l-12.1,22.8c0,0-0.4-0.2-1.1-0.6c-0.7-0.4-1.6-0.9-2.8-1.6
						c-2.3-1.3-5.3-3.2-8.3-5.1c-1.5-1-2.9-2.1-4.3-3c-1.4-1-2.6-2-3.6-2.8c-2.1-1.6-3.4-2.8-3.4-2.8l16.7-19.7c0,0,1.1,1,2.8,2.3
						c0.9,0.6,1.8,1.5,2.9,2.2c1.1,0.8,2.3,1.6,3.4,2.4c2.4,1.5,4.8,3.1,6.7,4.1c0.9,0.5,1.7,1,2.2,1.3
						C2037.5,436.2,2037.8,436.4,2037.8,436.4z"/>
					<path id="XMLID_326_" class="st21" d="M2037.8,436.4c0,0-0.3-0.2-0.9-0.4c-0.5-0.3-1.3-0.8-2.2-1.3c-1.9-1-4.3-2.6-6.7-4.1
						c-1.2-0.8-2.3-1.7-3.4-2.4c-1.1-0.8-2.1-1.6-2.9-2.2c-1.7-1.3-2.8-2.3-2.8-2.3l-1.7,2c0,0,1.1,1,2.8,2.3c0.9,0.7,1.9,1.5,3,2.3
						c1.1,0.8,2.3,1.6,3.5,2.5c2.5,1.6,4.9,3.2,6.9,4.2c1,0.5,1.7,1,2.3,1.3c0.6,0.3,0.9,0.5,0.9,0.5L2037.8,436.4z"/>
				</g>
				<g id="XMLID_322_">
					<path id="XMLID_324_" class="st20" d="M2018.9,423.6l-16.7,19.7c0,0-1.3-1.2-3.4-2.9c-1.9-1.8-4.6-4.2-7-6.9
						c-0.6-0.6-1.2-1.3-1.8-1.9c-0.6-0.7-1.1-1.3-1.7-1.9c-1.1-1.3-2.1-2.4-3-3.5c-1.7-2.1-2.8-3.5-2.8-3.5l20.5-15.7
						c0,0,0.9,1.1,2.2,2.8c0.7,0.8,1.5,1.8,2.4,2.8c0.4,0.5,0.9,1,1.4,1.6c0.5,0.5,1,1,1.5,1.5c1.9,2.1,4.1,4,5.6,5.5
						C2017.8,422.7,2018.9,423.6,2018.9,423.6z"/>
					<path id="XMLID_323_" class="st21" d="M2018.9,423.6c0,0-1.1-0.9-2.7-2.3c-1.5-1.5-3.7-3.4-5.6-5.5c-0.5-0.5-1-1-1.5-1.5
						c-0.5-0.5-0.9-1.1-1.4-1.6c-0.9-1-1.7-1.9-2.4-2.8c-1.3-1.7-2.2-2.8-2.2-2.8l-2.1,1.6c0,0,0.9,1.2,2.3,2.9
						c0.7,0.9,1.6,1.8,2.4,2.9c0.5,0.5,0.9,1.1,1.4,1.6c0.5,0.5,1,1,1.5,1.6c2,2.2,4.2,4.1,5.7,5.6c1.7,1.4,2.8,2.4,2.8,2.4
						L2018.9,423.6z"/>
				</g>
				<g id="XMLID_319_">
					<path id="XMLID_321_" class="st20" d="M2003.1,407.1l-20.5,15.7c0,0-0.3-0.4-0.8-1c-0.5-0.6-1.1-1.5-1.9-2.6
						c-1.6-2.1-3.5-5.1-5.4-8.2c-0.9-1.5-1.8-3.1-2.6-4.5c-0.8-1.5-1.5-2.9-2.1-4c-1.3-2.4-2-4-2-4l23.4-10.9c0,0,0.6,1.3,1.6,3.2
						c0.5,0.9,1,2.1,1.7,3.2c0.7,1.2,1.4,2.4,2.1,3.6c1.5,2.4,3.1,4.8,4.3,6.6c0.6,0.9,1.1,1.6,1.5,2.1
						C2002.9,406.8,2003.1,407.1,2003.1,407.1z"/>
					<path id="XMLID_320_" class="st21" d="M2003.1,407.1c0,0-0.2-0.3-0.6-0.8c-0.4-0.5-0.9-1.2-1.5-2.1c-1.3-1.7-2.8-4.1-4.3-6.6
						c-0.7-1.2-1.4-2.5-2.1-3.6c-0.7-1.2-1.2-2.3-1.7-3.2c-1-1.9-1.6-3.2-1.6-3.2l-2.3,1.1c0,0,0.6,1.4,1.6,3.3
						c0.5,1,1.1,2.1,1.7,3.3c0.7,1.2,1.4,2.5,2.2,3.7c1.6,2.5,3.1,5,4.5,6.7c0.6,0.9,1.2,1.6,1.5,2.2c0.4,0.5,0.6,0.8,0.6,0.8
						L2003.1,407.1z"/>
				</g>
				<g id="XMLID_316_">
					<path id="XMLID_318_" class="st20" d="M1991.3,387.5l-23.4,10.9c0,0-0.7-1.6-1.8-4.1c-1-2.5-2.4-5.8-3.5-9.2
						c-0.3-0.8-0.6-1.7-0.9-2.5c-0.3-0.8-0.5-1.7-0.7-2.5c-0.5-1.6-0.9-3.1-1.2-4.4c-0.6-2.6-1-4.3-1-4.3l25.2-5.6
						c0,0,0.3,1.4,0.8,3.5c0.3,1,0.6,2.2,1,3.5c0.2,0.6,0.4,1.3,0.6,2c0.2,0.7,0.5,1.3,0.7,2c0.9,2.7,2,5.3,2.8,7.4
						C1990.7,386.2,1991.3,387.5,1991.3,387.5z"/>
					<path id="XMLID_317_" class="st21" d="M1991.3,387.5c0,0-0.6-1.3-1.5-3.3c-0.8-2-1.9-4.6-2.8-7.4c-0.2-0.7-0.5-1.4-0.7-2
						c-0.2-0.7-0.4-1.3-0.6-2c-0.4-1.3-0.7-2.5-1-3.5c-0.5-2.1-0.8-3.5-0.8-3.5l-2.5,0.6c0,0,0.3,1.4,0.8,3.6c0.3,1.1,0.7,2.3,1,3.6
						c0.2,0.7,0.4,1.3,0.6,2c0.2,0.7,0.5,1.4,0.7,2.1c0.9,2.8,2.1,5.5,2.8,7.5c0.9,2,1.5,3.3,1.5,3.3L1991.3,387.5z"/>
				</g>
				<g id="XMLID_313_">
					<path id="XMLID_315_" class="st20" d="M1983.9,365.9l-25.2,5.6c0,0-0.4-1.7-0.9-4.4c-0.2-1.3-0.5-2.8-0.8-4.5
						c-0.2-1.7-0.4-3.4-0.7-5.2c-0.2-1.8-0.3-3.5-0.5-5.2c-0.1-0.8-0.1-1.6-0.2-2.4c0-0.8,0-1.5-0.1-2.2c-0.1-2.7-0.1-4.4-0.1-4.4
						l25.8-0.1c0,0,0,1.4,0.1,3.6c0,0.5,0,1.1,0,1.7c0,0.6,0.1,1.3,0.1,1.9c0.1,1.3,0.2,2.8,0.4,4.2c0.2,1.4,0.4,2.8,0.5,4.2
						c0.2,1.3,0.5,2.6,0.6,3.6C1983.6,364.5,1983.9,365.9,1983.9,365.9z"/>
					<path id="XMLID_314_" class="st21" d="M1983.9,365.9c0,0-0.4-1.4-0.7-3.5c-0.2-1.1-0.4-2.3-0.6-3.6c-0.2-1.3-0.4-2.7-0.5-4.2
						c-0.2-1.4-0.2-2.9-0.4-4.2c-0.1-0.7-0.1-1.3-0.1-1.9c0-0.6,0-1.2,0-1.7c-0.1-2.1-0.1-3.6-0.1-3.6l-2.6,0c0,0,0,1.5,0.1,3.7
						c0,0.6,0,1.1,0,1.8c0,0.6,0.1,1.3,0.2,2c0.1,1.4,0.2,2.8,0.4,4.3c0.2,1.5,0.4,2.9,0.6,4.3c0.2,1.4,0.5,2.6,0.6,3.7
						c0.4,2.2,0.7,3.6,0.7,3.6L1983.9,365.9z"/>
				</g>
			</g>
		</g>
	</g>
	<g id="XMLID_12_">
		<path id="XMLID_60_" d="M2093,249.3v10.5c7,0.7,12.9,2.1,17.9,4.3s9.3,5.4,13,9.8c2.9,3.3,5.2,6.7,6.8,10.3
			c1.6,3.5,2.4,6.7,2.4,9.7c0,3.3-1.2,6.1-3.6,8.4c-2.4,2.4-5.3,3.6-8.6,3.6c-6.4,0-10.5-3.5-12.4-10.4c-2.1-8.1-7.3-13.5-15.5-16.2
			v40.6c8.1,2.2,14.5,4.2,19.3,6.1c4.8,1.8,9.1,4.5,12.8,7.9c4,3.6,7.1,7.9,9.3,12.8c2.2,5,3.3,10.4,3.3,16.4
			c0,7.4-1.7,14.4-5.2,20.8c-3.5,6.5-8.6,11.8-15.4,15.9c-6.8,4.1-14.8,6.5-24.1,7.3v24.3c0,3.8-0.4,6.6-1.1,8.4
			c-0.7,1.8-2.4,2.6-4.9,2.6c-2.3,0-4-0.7-4.9-2.1c-0.9-1.4-1.4-3.6-1.4-6.6v-26.4c-7.6-0.8-14.3-2.6-20-5.4
			c-5.7-2.7-10.4-6.1-14.3-10.2c-3.8-4.1-6.6-8.3-8.4-12.7c-1.8-4.4-2.7-8.7-2.7-12.9c0-3.1,1.2-5.9,3.7-8.4
			c2.4-2.5,5.5-3.8,9.1-3.8c2.9,0,5.4,0.7,7.4,2.1c2,1.4,3.4,3.3,4.2,5.8c1.8,5.3,3.3,9.4,4.6,12.3c1.3,2.8,3.3,5.4,5.9,7.8
			s6.1,4.1,10.5,5.4v-45.4c-8.7-2.4-16-5.1-21.9-8.1c-5.9-3-10.6-7.2-14.3-12.6c-3.6-5.5-5.5-12.5-5.5-21.1
			c0-11.2,3.6-20.4,10.7-27.5c7.1-7.2,17.4-11.3,30.9-12.5v-10.4c0-5.5,2.1-8.2,6.2-8.2C2091,241.3,2093,243.9,2093,249.3z
			 M2080.6,316.3v-37.4c-5.5,1.6-9.7,3.8-12.8,6.4c-3.1,2.7-4.6,6.7-4.6,12.1c0,5.1,1.4,9,4.3,11.7
			C2070.4,311.7,2074.8,314.1,2080.6,316.3z M2093,345.3V388c6.6-1.3,11.7-3.9,15.2-7.9c3.6-4,5.4-8.6,5.4-13.9
			c0-5.7-1.7-10-5.2-13.1C2104.9,350,2099.8,347.4,2093,345.3z"/>
	</g>
	<path id="XMLID_19_" class="st22" d="M1278.9,402.4c3.3,4.1,7,7.9,9.1,12.7c5.7,13.3-2.9,30,4.4,42.5c2.6,4.4,7.3,8.5,6.4,13.6
		c-1.1,6.3-9.4,7.9-15.8,8c-16.6,0.2-34.4,7.1-47.3,17.4c-6.8,5.5-13.9,12.6-22.6,11.4c-7.8-1-12.8-8.4-19.3-12.9
		c-15.2-10.6-35.7-4.4-54.2-4.9c-10.9-0.3-23.5-4.8-26.5-15.3c-3.8-13.5,10.4-25.5,11.7-39.4c0.4-4.4-0.6-8.8-1.3-13.1
		c-5-30.9-5.7-70.3,20.9-90.4c17.3-13.1,38.6-20,60.3-20c19.4,0,50.6,5.8,64.3,21c16.7,18.5-10,42.7,8.3,67.6
		C1277.9,401.1,1278.4,401.8,1278.9,402.4z"/>
	<path id="XMLID_21_" class="st23" d="M1190.2,300.2c-21.5-22.6-22.9-39-34.5-64.1c13.4-1,24.4,9.7,33.5,19.5
		c8.4-7.7,17.7-14.5,27.6-20.1c1.4,5.4,1.9,11.1,1.3,16.7c4.8-0.9,9.5-1.8,14.3-2.7c0,4.2,0,8.4-0.1,12.7c0,1.2,0,2.5,0.8,3.4
		c0.9,1,2.5,1.1,3.8,1.1c5.3,0,10.7-0.1,16-0.1c3.2,11.3-1.9,23.5-9.9,32c-8,8.5-18.7,13.9-29.2,19.2c-4,2-8.3,4.1-12.7,3.5
		c-4.4-0.6-8.6-5.1-7-9.3"/>
	<path id="XMLID_26_" class="st24" d="M1221.5,326.2h-22.3c-6.6,0-12-5.4-12-12v-5.2c0-6.6,5.4-12,12-12h22.3c6.6,0,12,5.4,12,12
		v5.2C1233.5,320.8,1228.1,326.2,1221.5,326.2z"/>
	<ellipse id="XMLID_50_" class="st25" cx="1363.5" cy="492.1" rx="95" ry="8.3"/>
	<line id="XMLID_53_" class="st26" x1="1268.5" y1="492.1" x2="1302.7" y2="629.4"/>
	<line id="XMLID_54_" class="st25" x1="1458.5" y1="492.1" x2="1426.5" y2="638.4"/>
	<path id="XMLID_55_" class="st25" d="M1302.7,629.4c31.6,16.6,68.7,17.5,104.4,18.2c7.6,0.1,17.1-1.1,19.4-8.3"/>
	<rect id="XMLID_56_" x="1348" y="463.2" class="st25" width="45" height="20.3"/>
	<path id="XMLID_119_" class="st15" d="M1516.8,264.1l33.2-182c28.5,5.2,57.8,13.7,77.6,34c19.8,20.3,31.7,48.4,32.2,76.7
		c-14.2-1-28.2-4.1-41.5-9.2c10.4,16.2,14.6,36.3,11.5,55.3c-1.2,7.1-3.4,14.3-8,19.8c-5.9,7-14.9,10.5-23.7,12.8
		c-26.3,6.7-55,4.4-79.8-6.5"/>
	<path id="XMLID_118_" class="st18" d="M1780.7,171.5"/>
	<path id="XMLID_117_" class="st27" d="M1516.8,431.1c0,0,0.2-165.1,0.2-165.1c0-2.3,30,5.4,32.5,6.4c9.4,3.6,18.3,8.7,26.9,14
		c22,13.8,52.8,40.2,65.7,61c17.1,27.6,12.8,63.4-20.6,76.5c-7.1,2.8-14.8,3.7-22.4,4.5C1571.8,431.3,1544.1,432.1,1516.8,431.1"/>
	<line id="XMLID_116_" class="st15" x1="1517" y1="431" x2="1517" y2="480"/>
	<line id="XMLID_115_" class="st15" x1="1517" y1="478" x2="1567" y2="478"/>
	<line id="XMLID_114_" class="st15" x1="1566.5" y1="481" x2="1599" y2="428.5"/>
	<path id="XMLID_112_" class="st15" d="M1560.8,130.5c1.2-3.6,3.5-6.8,6.5-9c2.1-1.5,4.5-2.5,7-3c7.8-1.5,16.2,3.4,18.9,10.9"/>
	<path id="XMLID_111_" class="st15" d="M1582.5,192.6c7.5,20.8,25,37.8,46.1,44.5"/>
	<path id="XMLID_110_" class="st15" d="M1715.5,348.5c1.7,0.1,3.4-0.9,4.3-2.4c-0.6-1.4-2.5-1.6-4-1.6c-5.7,0-11.4-0.1-17.1-0.1
		c-4.2,0-8.6,0-12.6,1.4c-4.1,1.4-7.6,4.3-9.8,8"/>
	<line id="XMLID_109_" class="st15" x1="1560.8" y1="306.5" x2="1677" y2="353.8"/>
	<line id="XMLID_108_" class="st15" x1="1551.8" y1="323.7" x2="1670.4" y2="364.3"/>
	<line id="XMLID_107_" class="st15" x1="1677" y1="353.8" x2="1670.4" y2="366.2"/>
	<line id="XMLID_106_" class="st28" x1="1664.2" y1="348.6" x2="1659.9" y2="360.7"/>
	
		<ellipse id="XMLID_105_" transform="matrix(-0.8432 -0.5375 0.5375 -0.8432 2911.6318 1592.7384)" class="st15" cx="1688.1" cy="371.8" rx="4.9" ry="7.1"/>
	
		<ellipse id="XMLID_104_" transform="matrix(-0.8432 -0.5375 0.5375 -0.8432 2928.8518 1603.2927)" class="st15" cx="1698.2" cy="374.6" rx="4.9" ry="6.8"/>
	
		<ellipse id="XMLID_103_" transform="matrix(-0.8432 -0.5375 0.5375 -0.8432 2940.3728 1618.6525)" class="st15" cx="1706.2" cy="380.6" rx="4.9" ry="6.8"/>
	
		<ellipse id="XMLID_102_" transform="matrix(-0.1841 -0.9829 0.9829 -0.1841 1680.7677 2100.4805)" class="st15" cx="1712.2" cy="352.6" rx="3.4" ry="12.3"/>
	<path id="XMLID_101_" class="st15" d="M1672.8,363.4c4.5,0,8.9,2.1,11.7,5.6"/>
	<path id="XMLID_97_" class="st15" d="M1710.8,358.6c4.9,1,9.4,3.2,13.2,6.4c1.9,1.6,3.8,3.7,3.8,6.2s-2.8,5-5,3.8
		c-5.3-2.9-10.4-7.5-15.3-11.3"/>
	<path id="XMLID_96_" class="st15" d="M1715.5,370.8c1.8,0,3.4,1.3,4.4,2.7c1.6,2.3,2,5.7,0.2,7.8c-1.8,2.1-6,1.8-6.8-0.9"/>
	<path id="XMLID_95_" class="st15" d="M1717.7,353.8c5.2,1.4,10.2,3.3,14.9,5.9c2.5,1.3,5.3,4.1,3.8,6.5c-2.9,0-5.8,0.1-8.7,0.1"/>
	<line id="XMLID_94_" class="st15" x1="1738.1" y1="358.7" x2="1734.1" y2="346.4"/>
	<path id="XMLID_93_" class="st15" d="M1886.7,259.2l-36.8-181.3c-28.4,5.8-58.7,15.1-78.9,36s-31.6,49.2-31.7,77.6
		c14.6-1.4,29.2-4.9,42.8-10.4c-10.5,16.5-14.5,36.7-11,55.6c1.3,7.1,3.7,14.2,8.6,19.6c6.2,6.8,15.5,10.1,24.7,12.2
		c27.2,6.1,56.1,3.1,81.6-8.5"/>
	<path id="XMLID_92_" class="st15" d="M1887.9,427.1c0,0-0.9-165.1-0.9-165.1c0-2.3-30.3,5.4-32.8,6.4c-9.7,3.6-18.6,8.7-27.4,14
		c-25.5,15.5-51.6,35.8-67.7,61c-17.7,27.6-13.2,63.4,21.4,76.5c7.4,2.8,15.4,3.7,23.2,4.5C1831.8,427.3,1859.7,428.1,1887.9,427.1"
		/>
	<line id="XMLID_91_" class="st15" x1="1888" y1="474" x2="1837" y2="474"/>
	<line id="XMLID_84_" class="st15" x1="1837" y1="473" x2="1803.7" y2="424.5"/>
	<path id="XMLID_83_" class="st15" d="M1837.6,476.4c-15.8,3.3-23.2,15.5-14.9,14.6c8.3-0.9,16.4-3.1,24.5-5.2
		c9.6-2.6,19.5-4.6,29-7.5c1,4.2,1.9,8.4,2.9,12.7c3.4,0.3,6.8,0.6,10.1,0.8c-0.3-6.7-0.6-13.3-0.9-20"/>
	<path id="XMLID_82_" class="st15" d="M1843.2,126.5c-1.2-3.6-3.6-6.8-6.8-9c-2.1-1.5-4.6-2.5-7.2-3c-8-1.5-16.8,3.4-19.5,10.9"/>
	<path id="XMLID_80_" class="st15" d="M1818.1,192.6c-7.7,20.8-25.9,37.8-47.6,44.5"/>
	<line id="XMLID_77_" class="st15" x1="1843.2" y1="302.5" x2="1723" y2="349.8"/>
	<line id="XMLID_74_" class="st15" x1="1852.5" y1="319.7" x2="1729.9" y2="360.3"/>
	<line id="XMLID_25_" class="st15" x1="1886" y1="425" x2="1886" y2="474"/>
	<path id="XMLID_24_" class="st15" d="M1816.9,192.8c1.3,8.4,2.5,17.3-0.7,25.2c-3,7.4-9.5,12.9-16.4,17.1
		c-7.8,4.8-16.3,8.4-25.2,10.6"/>
	<path id="XMLID_51_" class="st15" d="M1566.5,481c16,3.3,24.3,18.8,16,17.9c-8.4-0.9-16.5-3.1-24.7-5.2c-9.7-2.6-19.6-4.6-29.2-7.5
		c-1,4.2-1.9,8.4-2.9,12.7c-3.4,0.3-6.8,0.6-10.2,0.8c0.3-6.7,0.6-13.3,0.9-20"/>
	<line id="XMLID_72_" class="st15" x1="1580.9" y1="430" x2="1564.3" y2="477.1"/>
	<line id="XMLID_113_" class="st15" x1="1818.4" y1="425.8" x2="1846.3" y2="473"/>
	<rect id="XMLID_71_" x="918.7" y="494.1" class="st29" width="20" height="36.8"/>
	<rect id="XMLID_62_" x="918.8" y="530.8" class="st29" width="20.1" height="98.3"/>
	<path id="XMLID_17_" class="st30" d="M1197.4,303.2c8.1,3,16.9,3.9,25.5,2.7"/>
	<path id="XMLID_79_" class="st31" d="M1196.2,309.5c0,2.4,2.7,3.8,5,4.5c9.1,2.9,18.8,4,28.4,3.3"/>
	<line id="XMLID_120_" class="st25" x1="1315.4" y1="523.6" x2="1337.4" y2="610.5"/>
	<line id="XMLID_121_" class="st25" x1="1373.4" y1="519.7" x2="1364.6" y2="616.5"/>
	<line id="XMLID_137_" class="st25" x1="1417.4" y1="526.6" x2="1398" y2="606.5"/>
	<path id="XMLID_41_" class="st32" d="M1403.8,163.5c-20.8,7.1-44.7,4.7-63.7-6.4c-19-11.1-32.7-30.8-36.6-52.5
		c-1.3-7.1-1.5-14.8,2.1-21.1c3.3-5.8,9.2-9.4,14.9-12.8c26.2-15.7,54.3-31.9,84.8-30.9c31.3,1,61.1,22.1,72.3,51.3
		c1.9,4.9,3.3,10.1,2.7,15.3c-1.9,15.4-19.4,22.9-34.3,27.3c4.7,18.9,11.2,37.3,19.3,55C1444.8,186,1420.9,175.4,1403.8,163.5"/>
	<polygon id="XMLID_46_" class="st33" points="1565.3,477.1 1516.4,477.1 1516.4,430 1581.4,431.5 	"/>
	<polygon id="XMLID_47_" class="st33" points="1597.5,431 1581.4,431.5 1565.3,477.1 1567,478 	"/>
	<rect id="XMLID_48_" x="1516.4" y="460.5" class="st34" width="48.9" height="16.6"/>
</g>
<g id="RESALE">
	<g id="XMLID_2_">
		<path id="XMLID_124_" class="st35" d="M124.3,131.4H99.8l-10.5-29h-7v29H60.3V55.6h37.6c8.3,0,14.7,2,19.3,6.1
			c4.6,4.1,6.9,9.5,6.9,16.2c0,4.4-0.8,8.2-2.5,11.6c-1.7,3.3-5.1,6.3-10.2,8.9L124.3,131.4z M82.4,86.2h9.4c2.8,0,5-0.6,6.7-1.8
			c1.7-1.2,2.5-3,2.5-5.4c0-4.8-2.8-7.3-8.5-7.3H82.4V86.2z"/>
		<path id="XMLID_139_" class="st35" d="M221.3,113.3v18.1h-54.1V55.6h54.1v17.5h-32.5v11h26.3v16.8h-26.3v12.4H221.3z"/>
		<path id="XMLID_141_" class="st35" d="M255,109.5l20.5-3.9c1.7,6.1,6.2,9.2,13.3,9.2c5.6,0,8.3-1.6,8.3-4.7c0-1.6-0.6-2.9-1.9-3.8
			c-1.3-0.9-3.6-1.7-6.9-2.4c-12.6-2.5-20.7-5.9-24.3-10c-3.6-4.1-5.4-8.9-5.4-14.5c0-7.1,2.6-13.1,7.7-17.8
			c5.1-4.7,12.6-7.1,22.2-7.1c14.7,0,24.3,6.2,29.1,18.6l-18.3,5.8c-1.9-5.1-5.7-7.6-11.5-7.6c-4.8,0-7.2,1.6-7.2,4.7
			c0,1.4,0.5,2.5,1.6,3.3c1.1,0.8,3.2,1.5,6.3,2.2c8.6,1.9,14.7,3.6,18.4,5.1c3.6,1.5,6.6,4,9.1,7.6c2.4,3.6,3.6,7.8,3.6,12.6
			c0,7.7-3,13.9-8.9,18.6c-5.9,4.8-13.7,7.1-23.3,7.1C270,132.5,259.1,124.8,255,109.5z"/>
		<path id="XMLID_143_" class="st35" d="M399.4,131.4l-4.1-14.9H376l-4.3,14.9h-17.9L376,55.6h23.4l22.6,75.8H399.4z M379.8,99.9
			h11.6l-5.8-22L379.8,99.9z"/>
		<path id="XMLID_146_" class="st35" d="M511.4,112.8v18.6h-50.5V55.6H483v57.2H511.4z"/>
		<path id="XMLID_148_" class="st35" d="M605.6,113.3v18.1h-54.1V55.6h54.1v17.5h-32.5v11h26.3v16.8h-26.3v12.4H605.6z"/>
	</g>
	<g id="XMLID_9_">
		<path id="XMLID_67_" d="M1350.1,77.3c0-0.4-0.1,0.2-0.2,2c-0.2,2.2-0.4,5.1-0.5,8.6c-0.2,4-0.2,8.5-0.2,13.5
			c0,8.4,0.2,14.3,0.7,17.8c0,0.4,0.1,0.6,0.1,0.7c0,0.2-0.2,0.4-0.5,0.4c-0.7,0.1-3.4,0.2-8,0.2c-1.1,0-1.7-0.2-1.9-0.6
			c0-0.8-0.1-1.5-0.1-2.3c0-0.2-0.1-0.3-0.2-0.5c-0.1,0.1-0.3,0.2-0.5,0.4c-2.2,2.1-4.9,3.2-8.2,3.2c-4.3,0-7.7-1.5-10.3-4.5
			c-2.4-2.9-3.7-6.5-3.7-10.8c0-4.4,1.2-8,3.6-10.9c2.5-3,6-4.6,10.3-4.6c3.1,0,5.4,1,7.1,2.9c0.3,0.3,0.5,0.5,0.6,0.5
			c0.2,0,0.3-0.3,0.3-0.8c0-1.6,0-3.9-0.1-7c-0.1-3.1-0.1-5.4-0.1-6.9c0-0.6,0.2-0.9,0.5-1c1.3-0.1,3.1-0.2,5.3-0.4
			c4-0.5,5.8-0.8,5.4-0.8C1349.9,76.6,1350.1,76.8,1350.1,77.3z M1338.7,105.2c0-1.6-0.6-3-1.7-4.2c-1.1-1.2-2.5-1.8-4-1.8
			c-1.7,0-3,0.6-4,1.8c-1,1.2-1.5,2.6-1.5,4.3c0,1.6,0.5,3,1.5,4.2c1,1.2,2.3,1.8,3.9,1.8c1.6,0,3-0.6,4.1-1.8
			C1338.1,108.3,1338.7,106.9,1338.7,105.2z"/>
		<path id="XMLID_75_" d="M1382.4,103.9c0,2-0.7,3.2-2,3.5c-0.2,0-2.3,0.3-6.3,0.7c-2.4,0.3-5.9,0.6-10.7,0.9c0.3,1.3,1.1,2.3,2.6,3
			c1.2,0.6,2.5,0.8,4,0.8c1.8,0,3.6-0.5,5.4-1.5c0.8-0.5,1.5-1,2.3-1.5c0.4,0.2,1.1,1.2,2.1,3.1c1,1.9,1.5,3,1.5,3.5
			c0,0.1-0.2,0.4-0.5,0.7c-2.5,2.6-6.3,4-11.5,4c-4.8,0-8.7-1.4-11.7-4.2c-3-2.9-4.6-6.7-4.6-11.4c0-4.7,1.4-8.5,4.1-11.4
			c2.8-3.1,6.5-4.6,11.1-4.6c3.9,0,7.2,1.4,9.9,4.2S1382.4,100,1382.4,103.9z M1371.8,102.1c0-1.3-0.4-2.4-1.3-3.3
			c-0.9-1-2-1.4-3.2-1.4c-1.3,0-2.3,0.5-3.2,1.6c-0.8,1-1.2,2.2-1.2,3.5c0,0.5,0.3,0.8,0.8,0.8c1.5,0,3.8-0.2,7-0.7
			C1371.4,102.4,1371.8,102.3,1371.8,102.1z"/>
		<path id="XMLID_88_" d="M1416.2,105.2c0,1.6,0.1,3.9,0.3,6.9c0.2,3.1,0.3,5.4,0.3,6.9c0,0.8-0.4,1.2-1.1,1.3
			c-2.5,0.2-5.4,0.3-8.6,0.3c-0.4,0-0.6-0.6-0.8-1.7c-0.1-1.2-0.3-1.8-0.5-1.8c-0.2,0.1-0.4,0.3-0.6,0.5c-2.3,2.3-4.7,3.4-7.3,3.4
			c-3.9,0-7.2-1.6-9.8-4.7c-2.4-2.9-3.7-6.4-3.7-10.4c0-4.7,1.3-8.4,3.8-11.3c2.6-3,6.2-4.4,10.8-4.4c3.2,0,5.7,1.1,7.5,3.3
			c0.1,0.1,0.2,0.2,0.2,0.2c0.2,0,0.4-0.5,0.6-1.5c0.2-1,0.5-1.5,0.8-1.5c0.7,0,2.2,0.2,4.3,0.6c2,0.4,3.4,0.7,4.3,1
			c0.3,0.1,0.5,0.3,0.5,0.5c0,0.1,0,0.3-0.1,0.6C1416.5,97.3,1416.2,101.1,1416.2,105.2z M1406.4,105.4c0-1.7-0.5-3.1-1.6-4.3
			c-1.1-1.1-2.5-1.7-4.2-1.7c-1.7,0-3.1,0.6-4.2,1.7c-1.1,1.1-1.6,2.5-1.6,4.3c0,1.6,0.6,3,1.7,4.2c1.1,1.2,2.5,1.8,4.1,1.8
			c1.7,0,3.1-0.6,4.2-1.7C1405.9,108.6,1406.4,107.1,1406.4,105.4z"/>
		<path id="XMLID_98_" d="M1433.3,102.1c0,5.5,0,9.8,0.1,12.7c0,0.5,0,1.3,0.1,2.4c0.1,1,0.1,1.8,0.1,2.4c0,0.4-0.3,0.7-0.8,0.8
			c-0.9,0.2-2.5,0.2-4.9,0.2c-2.4,0-4-0.1-4.6-0.2c-0.4-0.1-0.7-0.4-0.8-0.8c0-0.1,0-0.5,0-1.3c0-1.8,0-4.5,0.1-8.1
			c0-3.6,0.1-6.3,0.1-8.1c0-8.5,0-12.4,0-11.6c-0.1-4.5-0.3-8.3-0.8-11.6c0-0.2-0.1-0.4-0.1-0.5c0-0.4,0.3-0.7,0.8-0.7h10.8
			c0.5,0,0.7,0.2,0.7,0.6l0,0.5C1433.6,87.7,1433.3,95.4,1433.3,102.1z"/>
		<path id="XMLID_100_" d="M1451,85.2c0,3.7-0.3,7.1-1,10.4c-0.8,3.3-1.6,6.6-2.4,9.9c-0.2,0.7-1,1.1-2.4,1.1c-1.6,0-2.5-0.3-2.7-1
			c-1.9-6.5-2.9-10.2-2.9-11.1c0-0.8,0-2.1,0.1-3.7c0.1-1.6,0.1-2.9,0.1-3.7c0-0.9,0-2.3-0.1-4.1c-0.1-1.8-0.1-3.2-0.1-4.1
			c0-0.7,0.2-1.1,0.5-1.1c0.6,0,1.4,0,2.5,0.1c1.1,0.1,2,0.1,2.5,0.1s1.4,0,2.5-0.1c1.1-0.1,2-0.1,2.5-0.1
			C1450.8,77.8,1451,80.3,1451,85.2z M1451,115.2c0,1.7-0.5,3.1-1.6,4.2c-1.1,1.1-2.4,1.7-4.1,1.7c-1.7,0-3.1-0.6-4.1-1.7
			c-1-1.1-1.6-2.5-1.6-4.2c0-1.7,0.5-3.1,1.6-4.2s2.4-1.6,4.1-1.6c1.7,0,3,0.5,4.1,1.6C1450.5,112.1,1451,113.5,1451,115.2z"/>
	</g>
	<g id="XMLID_52_">
	</g>
	<g id="XMLID_150_">
	</g>
	<g id="XMLID_151_">
	</g>
	<g id="XMLID_152_">
	</g>
	<g id="XMLID_153_">
	</g>
	<g id="XMLID_154_">
	</g>
	<g id="XMLID_155_">
	</g>
	<g id="XMLID_156_">
	</g>
	<g id="XMLID_157_">
	</g>
	<g id="XMLID_158_">
	</g>
	<g id="XMLID_159_">
	</g>
	<g id="XMLID_160_">
	</g>
	<g id="XMLID_161_">
	</g>
	<g id="XMLID_162_">
	</g>
</g>
</svg>
