<?xml version="1.0" encoding="utf-8"?>
<!-- Generator: Adobe Illustrator 19.0.0, SVG Export Plug-In . SVG Version: 6.00 Build 0)  -->
<svg version="1.1" id="圖層_1" xmlns="http://www.w3.org/2000/svg" xmlns:xlink="http://www.w3.org/1999/xlink" x="0px" y="0px"
	 viewBox="0 0 2267.7 470.5" style="enable-background:new 0 0 2267.7 470.5;" xml:space="preserve">
<style type="text/css">
	.st0{fill:#D4E9F0;stroke:#000000;stroke-miterlimit:10;}
	.st1{stroke:#000000;stroke-miterlimit:10;}
	.st2{fill:#234563;stroke:#234563;stroke-width:3;stroke-miterlimit:10;}
	.st3{fill:#234563;stroke:#234563;stroke-miterlimit:10;}
	.st4{fill:#FFFFFF;stroke:#FFFFFF;stroke-width:3;stroke-miterlimit:10;}
	.st5{fill:#29ABE2;}
	.st6{fill:#F15A24;}
	.st7{fill:none;stroke:#234563;stroke-width:8;stroke-miterlimit:10;}
	.st8{fill:none;}
	.st9{fill:#FCEE21;stroke:#231815;stroke-width:4;stroke-miterlimit:10;}
	.st10{fill:#FCEE21;}
</style>
<rect id="XMLID_1_" class="st0" width="2267.7" height="470.5"/>
<g id="XMLID_2_">
	<path id="XMLID_60_" class="st1" d="M837,361h-14.6l-17.6-29.4c-1.6-2.7-3.2-5.1-4.7-7c-1.5-1.9-3.1-3.5-4.7-4.7
		c-1.6-1.2-3.3-2.1-5.1-2.7c-1.8-0.6-3.9-0.8-6.2-0.8H774V361h-12.3v-105H793c4.6,0,8.8,0.6,12.7,1.7c3.9,1.1,7.3,2.9,10.1,5.2
		s5.1,5.3,6.7,8.8c1.6,3.5,2.4,7.6,2.4,12.3c0,3.7-0.5,7-1.6,10.1c-1.1,3.1-2.7,5.8-4.7,8.2c-2,2.4-4.5,4.4-7.3,6.1s-6.1,3-9.6,3.9
		v0.3c1.8,0.8,3.3,1.7,4.6,2.7c1.3,1,2.5,2.2,3.7,3.6c1.2,1.4,2.3,2.9,3.5,4.7c1.1,1.7,2.4,3.7,3.8,6L837,361z M774,267.1v38.1h16.7
		c3.1,0,5.9-0.5,8.5-1.4c2.6-0.9,4.9-2.3,6.8-4c1.9-1.7,3.4-3.9,4.5-6.4c1.1-2.5,1.6-5.3,1.6-8.5c0-5.6-1.8-10-5.5-13.1
		c-3.6-3.1-8.9-4.7-15.8-4.7H774z"/>
	<path id="XMLID_63_" class="st1" d="M944.6,361h-55.7v-105h53.3v11.1h-41V302h37.9v11.1h-37.9v36.8h43.4V361z"/>
	<path id="XMLID_65_" class="st1" d="M1397.9,361h-13.6l-11.1-29.4h-44.5l-10.5,29.4h-13.7l40.3-105h12.7L1397.9,361z M1369.1,320.5
		l-16.5-44.8c-0.5-1.5-1.1-3.8-1.6-7h-0.3c-0.5,3-1.1,5.3-1.7,7l-16.3,44.8H1369.1z"/>
	<path id="XMLID_68_" class="st1" d="M1505.4,361h-54.5v-105h12.3v93.9h42.2V361z"/>
	<path id="XMLID_70_" class="st1" d="M1614.7,361H1559v-105h53.3v11.1h-41V302h37.9v11.1h-37.9v36.8h43.4V361z"/>
</g>
<g id="XMLID_4_">
	<path id="XMLID_50_" class="st2" d="M1730.7,50.2l0.5,0.1c1.4-1.4,2.5-2.4,3.4-3.1c0.9-0.7,1.7-1.3,2.5-1.7s1.6-0.7,2.3-0.9
		c0.7-0.2,1.5-0.3,2.2-0.3c2.3,0,4.1,0.5,5.6,1.6c1.4,1,2.4,2.7,3,4.8c1.7-1.7,3.1-3,4.2-3.8c1.1-0.8,2.1-1.5,3.2-1.9
		c1.1-0.4,2.3-0.7,3.6-0.7c1.5,0,2.8,0.2,3.9,0.7c1.1,0.4,2,1.1,2.8,2.1c0.8,0.9,1.3,2.1,1.7,3.5c0.4,1.4,0.5,3.3,0.5,5.6v12.9
		c0,1.7,0.1,2.9,0.2,3.6c0.1,0.7,0.3,1.2,0.5,1.5c0.2,0.4,0.5,0.7,1,0.9c0.4,0.3,1.2,0.5,2.2,0.8v1.7h-13.4V76
		c0.9-0.3,1.5-0.5,1.9-0.7s0.7-0.5,1-0.9c0.3-0.4,0.5-0.9,0.6-1.7c0.1-0.8,0.2-1.9,0.2-3.5v-9c0-1.9-0.1-3.5-0.2-4.8
		c-0.1-1.3-0.3-2.3-0.5-3s-0.5-1.3-0.8-1.8c-0.3-0.4-0.7-0.8-1-1.1c-0.4-0.3-0.8-0.6-1.4-0.8c-0.5-0.2-1.2-0.3-2.1-0.3
		c-0.9,0-1.8,0.2-2.5,0.5c-0.8,0.4-1.6,1-2.6,1.8c-0.9,0.9-1.6,1.7-2,2.6s-0.6,1.9-0.6,3.1v12.5c0,1.7,0.1,2.9,0.2,3.6
		c0.1,0.7,0.3,1.2,0.5,1.5c0.2,0.4,0.5,0.7,1,0.9c0.4,0.3,1.2,0.5,2.2,0.8v1.7H1741V76c0.9-0.3,1.5-0.5,1.9-0.7
		c0.4-0.2,0.7-0.5,1-0.9c0.3-0.4,0.5-0.9,0.6-1.7c0.1-0.8,0.2-1.9,0.2-3.5v-9c0-2-0.1-3.7-0.2-5c-0.1-1.3-0.3-2.3-0.5-3.1
		c-0.2-0.8-0.5-1.4-0.9-1.9c-0.4-0.5-0.8-0.8-1.1-1.1c-0.4-0.3-0.8-0.4-1.4-0.6c-0.5-0.1-1.1-0.2-1.8-0.2c-0.9,0-1.8,0.2-2.6,0.6
		s-1.7,1-2.5,1.8c-0.9,0.8-1.5,1.6-1.9,2.5c-0.4,0.9-0.6,1.8-0.6,2.8v12.8c0,1.3,0,2.3,0.1,3s0.2,1.2,0.3,1.6
		c0.1,0.4,0.3,0.7,0.6,0.9c0.2,0.2,0.6,0.5,1,0.7c0.4,0.2,1.1,0.4,1.9,0.7v1.7h-13.4V76c0.9-0.3,1.5-0.5,1.9-0.7
		c0.4-0.2,0.7-0.5,1-0.9c0.3-0.4,0.5-0.9,0.6-1.7s0.2-1.9,0.2-3.5V54.3c0-1.5,0-2.6-0.1-3.5c0-0.9-0.2-1.6-0.5-2.1
		c-0.3-0.5-0.7-0.9-1.2-1.2s-1.3-0.5-2.4-0.7V45l8-0.3h2.1L1730.7,50.2z"/>
	<path id="XMLID_52_" class="st2" d="M1813.5,72.7l-0.5-0.1c-2,2-3.8,3.5-5.6,4.3c-1.7,0.8-3.6,1.3-5.6,1.3c-1.7,0-3.3-0.3-4.6-1
		c-1.3-0.7-2.3-1.6-3-2.8c-0.7-1.2-1.1-2.6-1.1-4.2c0-3.3,1.6-5.9,4.9-7.7c3.3-1.8,8.2-2.9,14.8-3.2V57c0-2.4-0.2-4.2-0.7-5.6
		s-1.2-2.4-2.2-3c-1-0.6-2.3-1-3.9-1c-1.8,0-3.2,0.5-4.3,1.4c-1.1,0.9-1.9,2.3-2.4,4.2h-4.5v-4.4c2.2-1.1,4-2,5.5-2.5
		c1.5-0.5,2.9-1,4.4-1.3c1.5-0.3,2.9-0.5,4.4-0.5c2.3,0,4.1,0.4,5.4,1.1c1.4,0.7,2.4,1.8,3.1,3.3c0.7,1.5,1,3.7,1,6.7v11.9
		c0,1.7,0,2.9,0,3.6c0,0.7,0.1,1.3,0.2,1.9c0.1,0.6,0.3,1.1,0.5,1.4c0.2,0.4,0.6,0.7,1,0.9c0.4,0.3,1.2,0.5,2.2,0.8v1.7h-9.4
		L1813.5,72.7z M1812.9,62c-4.6,0-8.1,0.7-10.4,1.8c-2.3,1.2-3.5,3-3.5,5.4c0,1.3,0.3,2.3,0.8,3.1s1.2,1.3,2,1.6s1.7,0.4,2.8,0.4
		c1.5,0,3-0.4,4.2-1.1c1.3-0.8,2.3-1.7,3-2.9c0.7-1.2,1.1-2.3,1.1-3.5V62z"/>
	<path id="XMLID_55_" class="st2" d="M1851,58.6h1.1c0.8,0,1.4-0.1,1.8-0.2c0.6-0.2,1.2-0.6,1.9-1c0.7-0.5,1.7-1.3,2.9-2.5
		c1-1,1.8-1.8,2.4-2.5c0.5-0.7,0.9-1.3,1.1-1.9c0.2-0.5,0.3-1,0.3-1.4c0-0.7-0.2-1.2-0.6-1.6c-0.4-0.4-1.1-0.6-2.1-0.8V45h14.7v1.7
		c-1,0.2-2.2,0.7-3.3,1.4c-1.2,0.7-2.4,1.7-3.7,2.9l-7.9,7.5l9.8,12.9c1.1,1.5,2.2,2.6,3.1,3.3c0.9,0.7,1.9,1.2,3,1.4v1.7h-13.1V76
		c0.6-0.1,1-0.2,1.3-0.4c0.3-0.2,0.4-0.5,0.4-1c0-0.3-0.1-0.7-0.2-1c-0.1-0.3-0.4-0.8-0.8-1.3c-0.4-0.6-1.1-1.6-2.1-3l-4.1-5.5
		c-0.8-1-1.3-1.7-1.7-2c-0.3-0.3-0.7-0.5-1-0.7c-0.4-0.1-0.9-0.2-1.5-0.2h-1.9v8.2c0,2,0.1,3.3,0.3,4.1c0.2,0.8,0.5,1.3,1,1.7
		c0.5,0.4,1.4,0.7,2.5,1v1.7h-13.6V76c1.1-0.3,1.9-0.6,2.4-0.9c0.4-0.3,0.8-0.7,1-1.1c0.2-0.4,0.3-1,0.4-1.8c0.1-0.8,0.1-1.8,0.1-3
		V40.5c0-2.2,0-3.7-0.1-4.6c0-0.9-0.1-1.6-0.3-2.2s-0.4-1.1-0.6-1.4s-0.6-0.6-1.1-0.8c-0.4-0.2-1.2-0.4-2.4-0.6v-1.8l8.2-0.3h2.1
		V58.6z"/>
	<path id="XMLID_57_" class="st2" d="M1918.7,71.8c-1.5,1.5-2.8,2.7-4,3.6c-1.2,0.9-2.6,1.5-4,2c-1.5,0.5-3.1,0.7-4.8,0.7
		c-4.7,0-8.2-1.4-10.6-4.2s-3.6-7-3.6-12.5c0-3.4,0.6-6.4,1.8-9s3-4.6,5.2-6c2.3-1.4,4.9-2.1,7.8-2.1c2.3,0,4.3,0.4,5.9,1.1
		c1.6,0.7,2.9,1.7,3.9,3c1,1.3,1.7,2.9,2.3,4.8s0.8,4.4,0.9,7.5h-21.5v0.6c0,2.7,0.3,5,0.9,6.8c0.6,1.8,1.6,3.3,3,4.3
		c1.4,1,3.2,1.6,5.4,1.6c1.9,0,3.5-0.3,5-1c1.5-0.7,3-1.8,4.5-3.4L1918.7,71.8z M1913,57.9c-0.1-2.5-0.4-4.5-0.9-6
		c-0.5-1.6-1.2-2.8-2.2-3.6s-2.2-1.2-3.8-1.2c-2.3,0-4.2,0.9-5.6,2.8c-1.4,1.9-2.2,4.6-2.5,8H1913z"/>
</g>
<rect id="XMLID_30_" x="1970.1" y="61.2" class="st3" width="88.5" height="390.9"/>
<g id="XMLID_22_">
	<path id="XMLID_38_" class="st4" d="M2004.9,98.9l0.5,0.1c1.4-1.2,2.5-2.1,3.4-2.6c0.9-0.6,1.7-1.1,2.5-1.4
		c0.8-0.4,1.6-0.6,2.3-0.8s1.5-0.2,2.2-0.2c2.3,0,4.1,0.4,5.6,1.3c1.4,0.9,2.4,2.3,3,4.1c1.7-1.5,3.1-2.6,4.2-3.3s2.1-1.2,3.2-1.6
		s2.3-0.6,3.6-0.6c1.5,0,2.8,0.2,3.9,0.6s2,1,2.8,1.8s1.3,1.8,1.7,3c0.4,1.2,0.5,2.8,0.5,4.8v11c0,1.5,0.1,2.5,0.2,3.1
		c0.1,0.6,0.3,1,0.5,1.3c0.2,0.3,0.5,0.6,1,0.8c0.4,0.2,1.2,0.5,2.2,0.7v1.4h-13.4V121c0.9-0.2,1.5-0.4,1.9-0.6
		c0.4-0.2,0.7-0.4,1-0.7s0.5-0.8,0.6-1.4c0.1-0.7,0.2-1.6,0.2-3v-7.7c0-1.7-0.1-3-0.2-4.1s-0.3-1.9-0.5-2.6s-0.5-1.2-0.8-1.5
		c-0.3-0.4-0.7-0.7-1-1c-0.4-0.3-0.8-0.5-1.4-0.6c-0.5-0.2-1.2-0.2-2.1-0.2c-0.9,0-1.8,0.2-2.5,0.5c-0.8,0.3-1.6,0.8-2.6,1.6
		s-1.6,1.5-2,2.2s-0.6,1.6-0.6,2.6v10.7c0,1.5,0.1,2.5,0.2,3.1c0.1,0.6,0.3,1,0.5,1.3c0.2,0.3,0.5,0.6,1,0.8
		c0.4,0.2,1.2,0.5,2.2,0.7v1.4h-13.4V121c0.9-0.2,1.5-0.4,1.9-0.6c0.4-0.2,0.7-0.4,1-0.7s0.5-0.8,0.6-1.4c0.1-0.7,0.2-1.6,0.2-3
		v-7.7c0-1.7-0.1-3.1-0.2-4.2c-0.1-1.1-0.3-2-0.5-2.6s-0.5-1.2-0.9-1.6s-0.8-0.7-1.1-0.9c-0.4-0.2-0.8-0.4-1.4-0.5
		c-0.5-0.1-1.1-0.2-1.8-0.2c-0.9,0-1.8,0.2-2.6,0.5c-0.8,0.4-1.7,0.9-2.5,1.6s-1.5,1.4-1.9,2.1c-0.4,0.7-0.6,1.5-0.6,2.4v11
		c0,1.1,0,2,0.1,2.5c0.1,0.6,0.2,1,0.3,1.4c0.1,0.3,0.3,0.6,0.6,0.8c0.2,0.2,0.6,0.4,1,0.6s1.1,0.4,1.9,0.6v1.4h-13.4V121
		c0.9-0.2,1.5-0.4,1.9-0.6c0.4-0.2,0.7-0.4,1-0.7s0.5-0.8,0.6-1.4s0.2-1.6,0.2-3v-12.8c0-1.2,0-2.3-0.1-3c0-0.8-0.2-1.4-0.5-1.8
		c-0.3-0.5-0.7-0.8-1.2-1c-0.6-0.2-1.3-0.4-2.4-0.6v-1.6l8-0.3h2.1L2004.9,98.9z"/>
	<path id="XMLID_40_" class="st4" d="M2010.6,194.8c-4.7,0-8.4-1.2-10.9-3.6s-3.7-5.9-3.7-10.6c0-3.2,0.7-5.9,2-8.2s3.1-3.9,5.4-5
		c2.3-1.1,4.9-1.6,7.8-1.6c4.9,0,8.6,1.2,11.1,3.6c2.5,2.4,3.8,5.9,3.8,10.5c0,3.2-0.6,6-1.9,8.2c-1.3,2.2-3,3.9-5.3,5
		C2016.4,194.2,2013.7,194.8,2010.6,194.8z M2002.4,180c0,4,0.7,7.1,2.2,9.3c1.5,2.2,3.6,3.2,6.4,3.2c1.5,0,2.8-0.3,3.9-1
		c1.1-0.6,1.9-1.5,2.6-2.6c0.7-1.1,1.2-2.3,1.5-3.7c0.3-1.4,0.4-2.9,0.4-4.4c0-2.9-0.4-5.2-1.1-7.1s-1.7-3.3-3-4.2
		c-1.3-0.9-2.7-1.3-4.4-1.3c-2.8,0-4.9,1-6.3,3.1C2003.2,173.3,2002.4,176.2,2002.4,180z"/>
	<path id="XMLID_43_" class="st4" d="M2029,266.2h-13.5v-1.4c0.9-0.2,1.5-0.4,1.9-0.6c0.4-0.2,0.7-0.4,1-0.7
		c0.3-0.3,0.5-0.8,0.6-1.4s0.2-1.6,0.2-3v-7.7c0-1.4,0-2.6-0.1-3.7c-0.1-1.1-0.2-2-0.5-2.7s-0.5-1.3-0.8-1.7c-0.3-0.4-0.7-0.7-1.1-1
		c-0.4-0.3-0.9-0.5-1.5-0.7c-0.5-0.2-1.3-0.2-2.2-0.2s-1.7,0.2-2.5,0.5c-0.8,0.3-1.7,0.8-2.6,1.6s-1.7,1.5-2.1,2.2
		c-0.4,0.7-0.6,1.6-0.6,2.5v10.9c0,1.7,0.1,2.8,0.3,3.5c0.2,0.7,0.5,1.2,1,1.5c0.5,0.3,1.4,0.6,2.5,0.9v1.4h-13.4v-1.4
		c0.9-0.2,1.5-0.4,1.9-0.6s0.7-0.4,1-0.7c0.3-0.3,0.5-0.8,0.6-1.4s0.2-1.6,0.2-3v-12.8c0-1.2,0-2.3-0.1-3c0-0.8-0.2-1.4-0.5-1.8
		s-0.7-0.8-1.2-1c-0.6-0.2-1.3-0.4-2.4-0.6v-1.6l8-0.3h2.1l-0.4,4.8l0.5,0.1c1.7-1.5,3-2.5,4.1-3.1s2.1-1.1,3.1-1.4
		c1.1-0.3,2.2-0.5,3.4-0.5c1.2,0,2.3,0.1,3.3,0.4c1,0.2,1.8,0.6,2.6,1.1c0.7,0.5,1.4,1.1,1.8,1.9s0.8,1.7,1.1,2.7
		c0.2,1.1,0.4,2.4,0.4,4v11c0,1.3,0,2.3,0.1,2.9c0.1,0.6,0.3,1.1,0.5,1.4c0.2,0.3,0.6,0.6,1,0.8c0.4,0.2,1.2,0.5,2.3,0.7V266.2z"/>
	<path id="XMLID_45_" class="st4" d="M2023,333.1c-1.5,1.3-2.8,2.3-4,3.1s-2.6,1.3-4,1.7c-1.5,0.4-3.1,0.6-4.8,0.6
		c-4.7,0-8.2-1.2-10.6-3.6c-2.4-2.4-3.6-6-3.6-10.7c0-2.9,0.6-5.5,1.8-7.7s3-3.9,5.2-5.1c2.3-1.2,4.9-1.8,7.8-1.8
		c2.3,0,4.3,0.3,5.9,0.9c1.6,0.6,2.9,1.5,3.9,2.6c1,1.1,1.7,2.4,2.3,4.1c0.5,1.6,0.8,3.8,0.9,6.5h-21.5v0.5c0,2.3,0.3,4.2,0.9,5.8
		c0.6,1.6,1.6,2.8,3,3.7c1.4,0.9,3.2,1.3,5.4,1.3c1.9,0,3.5-0.3,5-0.9s3-1.6,4.5-2.9L2023,333.1z M2017.3,321.3
		c-0.1-2.1-0.4-3.8-0.9-5.2s-1.2-2.4-2.2-3.1s-2.2-1.1-3.8-1.1c-2.3,0-4.2,0.8-5.6,2.4s-2.2,3.9-2.5,6.9H2017.3z"/>
	<path id="XMLID_48_" class="st4" d="M2010.2,412.4c-1.3,2.4-2.5,4.4-3.7,5.9c-1.2,1.5-2.5,2.6-3.9,3.4s-3.1,1.1-5.1,1.1
		c-1.3,0-2.7-0.1-4.2-0.4v-5.8h3c0.3,0.8,0.6,1.4,1,1.7c0.4,0.3,1,0.5,1.8,0.5c0.7,0,1.3-0.1,1.8-0.3s1.1-0.6,1.7-1.2
		c0.6-0.5,1.3-1.4,2.1-2.5s1.7-2.6,2.6-4.3l-9.6-22c-0.6-1.4-1.1-2.4-1.5-3c-0.4-0.6-0.8-1-1.2-1.3c-0.4-0.3-1.1-0.5-2-0.7V382h13.9
		v1.4c-1.1,0.2-1.8,0.4-2.3,0.6c-0.4,0.2-0.8,0.5-1,0.8s-0.3,0.7-0.3,1.2c0,0.5,0.1,1.1,0.2,1.6c0.1,0.6,0.4,1.2,0.7,2l6.1,14.7
		l6.8-14c0.4-0.8,0.7-1.5,0.9-2.2c0.2-0.7,0.3-1.3,0.3-1.8c0-0.8-0.3-1.5-0.8-1.9c-0.5-0.4-1.5-0.8-2.8-1V382h12.8v1.4
		c-0.9,0.2-1.6,0.4-2.1,0.7s-1,0.8-1.4,1.5s-1,1.7-1.7,2.9L2010.2,412.4z"/>
</g>
<g id="puzzle_5_">
	<path id="XMLID_33_" class="st5" d="M657.5,94.8c-11.2,3.1-22.1,8.3-32.7,13c-13.4,5.9-26.6,12-39.8,18.2c-6.2,2.9-13.2,4.8-18.8,9
		c-3.9,2.8-4.5,8.1-3.8,12.6c0.5,3.2,1.8,6.2,3.2,9.1c2,4,3.7,8.1,5.5,12.2c1.7,3.8,3.5,7.5,4.9,11.4c0.7,1.8,2,4.8,3.9,5.8
		c1.8,1,4-0.2,5.9-0.8c4.7-1.3,8.4-4.6,8.1-9.8c-0.3-3.7-3.3-8-1.6-11.7c2.1-4.4,6.7-3,9.3-0.2c1.1,1.2,5.5,7.4,5.9,2.8
		c0.7-7.3,3.2-13.9,7.9-13.3c4.8,0.6,2.8,13.4,2.8,13.4s6-7.3,11.5-4.1c5.5,3.2-3,13-2.6,13c5.3,0.6,14.5,3.4,8.2,10.1
		c-2.5,2.7-7.7,3.4-11.1,4c2.7,2.7,7,5.4,7.5,9.5c0.7,5.8-5.9,5.9-9.9,5.4c-4.4-0.6-8-4.2-12.6-4.9c-5.7-0.8-11.1,1.1-15.6,4.6
		c-0.7,0.5-1.8,1.9-2.9,3.1c-1.1,1.3-1.4,3.1-0.7,4.7c5.8,13.1,10.5,23.8,11.5,25.6c2,3.7,4.9,7.4,9.4,7.6
		c11.8,0.7,24.1-7.9,33.9-13.6c5.9-3.4,8.7,1.7,9.1,7.1c0.2,2.7-0.1,5.4-0.9,8c-1.3,4-4.5,7.2-4.7,11.6c-0.2,3.7,1.8,9,6.4,8
		c3.6-0.8,6.3-3.9,8.8-6.4c0.1-0.1,0.2,0,0.2,0.1c-1,3.1,2.7,9.1,4.9,10.5c6.6,4.1,8.4-3.9,8.9-8.8c0-0.4,9.8,8,13,2.5
		c3.2-5.5-4.2-11.5-4.2-11.5s12.9,1.9,13.4-2.9c0.6-4.8-3.1-6.7-10.4-7.9c-7.2-1.1-4.9-3.2-4.4-4c1.5-2.5,7.5-6.9,5.9-9.4
		c-2.4-3.6-6.4-1.6-9.8-1c-4,0.7-10,0.1-12.1-4c-2.3-4.2,2.6-4.7,6.4-6.1c14.1-5.3,34.7-9.9,41.8-25c2.4-5.2,1.4-10.9-0.4-16.1
		c-2.5-7.3-6.3-14.2-9.7-21.2l-20.9-45.3C685.9,109.7,677.1,89.3,657.5,94.8"/>
</g>
<g id="puzzle_8_">
	<path id="XMLID_34_" class="st6" d="M512.3,445.9c2-1.6,3.7-3.6,5.5-5.4c2.2-2.3,4.3-4.7,6.4-7.1c1-1.1,2.2-2.1,3-3.4
		c0.5-0.9,0.2-2-0.3-2.8c-0.4-0.6-0.9-1.1-1.4-1.5c-0.7-0.6-1.4-1.3-2.1-2c-0.7-0.6-1.4-1.2-2-1.9c-0.3-0.3-0.8-0.8-1.3-0.8
		c-0.4,0-0.8,0.4-1.1,0.7c-0.8,0.7-1.3,1.7-0.8,2.7c0.4,0.7,1.4,1.3,1.3,2.2c0,1.1-1.1,1.2-1.9,0.8c-0.3-0.1-1.7-1-1.4,0
		c0.5,1.5,0.6,3.1-0.4,3.4s-1.7-2.5-1.7-2.5s-0.6,2-1.9,1.8c-1.4-0.2-0.5-2.9-0.6-2.8c-1.1,0.3-3.2,0.6-2.5-1.3
		c0.3-0.8,1.2-1.3,1.9-1.8c-0.8-0.3-1.9-0.5-2.3-1.3c-0.6-1.1,0.7-1.7,1.5-1.9c0.9-0.3,2,0.2,3-0.1c1.2-0.3,2.1-1.2,2.7-2.3
		c0.1-0.2,0.2-0.5,0.3-0.9c0.1-0.4,0-0.8-0.3-1c-2.3-2.1-4.2-3.9-4.5-4.1c-0.7-0.6-1.6-1.1-2.5-0.7c-2.4,0.9-4.2,3.7-5.6,5.6
		c-0.9,1.2-1.9,0.4-2.4-0.6c-0.3-0.5-0.5-1.1-0.5-1.7c-0.1-0.9,0.3-1.8-0.1-2.7c-0.3-0.8-1.1-1.6-2-1c-0.6,0.5-0.9,1.3-1.2,2
		c0,0,0,0-0.1,0c-0.1-0.7-1.3-1.6-1.9-1.7c-1.7-0.3-1.3,1.5-1,2.5c0,0.1-2.7-0.8-2.8,0.6c-0.2,1.4,1.8,1.9,1.8,1.9s-2.7,0.7-2.4,1.7
		c0.3,1,1.2,1.1,2.8,0.7c1.6-0.4,1.3,0.2,1.2,0.4c-0.1,0.6-0.9,2-0.4,2.4c0.8,0.5,1.4-0.2,2-0.6c0.7-0.5,2-0.9,2.8-0.3
		c0.8,0.7-0.1,1.2-0.8,1.8c-2.4,2.3-6.1,5-6.2,8.6c0,1.2,0.7,2.3,1.5,3.2c1.1,1.3,2.5,2.3,3.8,3.4l8.1,7.3
		C505.3,445.4,508.8,448.7,512.3,445.9"/>
</g>
<g id="puzzle_6_">
	<path id="XMLID_25_" class="st5" d="M446.8,438.6c-0.4-3.7-1.5-7.3-2.4-10.9c-1.2-4.5-2.4-8.9-3.7-13.3c-0.6-2.1-0.9-4.4-1.9-6.3
		c-0.7-1.3-2.3-1.8-3.7-1.8c-1,0-2,0.2-3,0.6c-1.3,0.4-2.7,0.7-4.1,1.1c-1.3,0.3-2.5,0.7-3.8,1c-0.6,0.1-1.6,0.4-2,0.9
		c-0.4,0.5-0.1,1.3-0.1,1.9c0.2,1.5,1,2.9,2.7,3c1.2,0.1,2.7-0.6,3.8,0.1c1.3,0.9,0.6,2.2-0.4,2.9c-0.4,0.3-2.6,1.4-1.2,1.7
		c2.3,0.6,4.2,1.7,3.8,3.1c-0.4,1.5-4.3,0.2-4.3,0.2s2,2.2,0.7,3.8c-1.3,1.6-3.9-1.6-3.9-1.5c-0.4,1.6-1.8,4.4-3.6,2.1
		c-0.7-0.9-0.7-2.6-0.7-3.7c-1,0.7-2,1.9-3.3,1.9c-1.8-0.1-1.6-2.1-1.2-3.4c0.4-1.4,1.7-2.3,2.2-3.7c0.5-1.7,0.2-3.5-0.7-5.1
		c-0.1-0.2-0.5-0.7-0.8-1.1c-0.3-0.4-0.9-0.6-1.4-0.5c-4.4,1.2-8,2.1-8.6,2.3c-1.3,0.4-2.5,1.2-2.8,2.6c-0.8,3.7,1.3,7.9,2.6,11.3
		c0.8,2-1,2.6-2.7,2.5c-0.8-0.1-1.7-0.3-2.4-0.7c-1.2-0.6-2-1.8-3.4-2c-1.1-0.2-2.9,0.1-2.8,1.6c0.1,1.2,0.9,2.2,1.6,3.1
		c0,0,0,0.1-0.1,0.1c-0.9-0.5-3,0.4-3.5,1c-1.6,1.9,0.8,2.8,2.3,3.2c0.1,0-3,2.7-1.4,4s3.8-0.7,3.8-0.7s-1.2,3.9,0.2,4.3
		s2.3-0.6,3-2.9c0.7-2.2,1.2-1.4,1.5-1.2c0.7,0.6,1.8,2.7,2.7,2.3c1.2-0.6,0.8-1.9,0.8-3c0-1.3,0.5-3.1,1.8-3.6
		c1.4-0.5,1.3,1,1.6,2.3c0.9,4.7,1.4,11.3,5.8,14.3c1.5,1,3.3,1,5.1,0.7c2.4-0.4,4.8-1.3,7.1-2l15.2-4.3
		C440.7,446.8,447.5,445,446.8,438.6"/>
</g>
<rect id="XMLID_31_" x="374.7" y="89.6" class="st7" width="1639.7" height="331.3"/>
<g id="puzzle_3_">
	<path id="XMLID_26_" class="st6" d="M341.8,417.9c3.2-2.6,6.1-5.8,8.9-8.9c3.6-3.8,7-7.7,10.5-11.6c1.6-1.8,3.6-3.4,4.9-5.6
		c0.9-1.5,0.3-3.3-0.5-4.6c-0.6-1-1.5-1.8-2.3-2.5c-1.2-1-2.4-2.2-3.5-3.2c-1.1-1-2.2-2-3.2-3c-0.5-0.5-1.3-1.3-2.1-1.4
		c-0.7-0.1-1.3,0.6-1.8,1.1c-1.3,1.1-2.1,2.7-1.3,4.4c0.6,1.2,2.2,2.2,2.2,3.6c-0.1,1.7-1.8,1.9-3,1.4c-0.5-0.2-2.9-1.7-2.3-0.1
		c0.8,2.5,0.9,5-0.7,5.5c-1.6,0.5-2.8-4-2.8-4s-0.9,3.2-3.2,3s-0.8-4.7-1-4.6c-1.8,0.6-5.2,0.9-4.1-2.2c0.4-1.2,2-2.2,3.1-2.9
		c-1.2-0.5-3-0.8-3.8-2.1c-1-1.8,1.1-2.8,2.5-3.2c1.5-0.4,3.2,0.3,4.8-0.2c2-0.5,3.5-1.9,4.5-3.7c0.1-0.3,0.3-0.9,0.5-1.4
		c0.2-0.6,0-1.2-0.4-1.7c-3.7-3.5-6.8-6.3-7.4-6.8c-1.2-0.9-2.6-1.7-4.2-1.2c-4,1.4-6.8,6-9.2,9.2c-1.5,2-3.1,0.7-4-1.1
		c-0.4-0.8-0.7-1.8-0.8-2.7c-0.1-1.5,0.5-3-0.1-4.5c-0.5-1.2-1.9-2.7-3.2-1.7c-1.1,0.8-1.5,2.2-2,3.3c0,0-0.1,0-0.1,0
		c-0.1-1.1-2.2-2.6-3.1-2.7c-2.8-0.4-2.2,2.5-1.7,4.1c0,0.1-4.4-1.2-4.6,1c-0.3,2.3,3,3.2,3,3.2s-4.5,1.2-4,2.8
		c0.5,1.6,2,1.8,4.5,1.1c2.5-0.6,2.1,0.4,2,0.7c-0.1,1-1.5,3.3-0.6,3.9c1.3,0.8,2.3-0.4,3.3-1c1.2-0.8,3.3-1.4,4.5-0.4
		c1.3,1.1-0.2,1.9-1.2,2.9c-3.9,3.7-10,8.2-10.2,14.1c-0.1,2,1.1,3.8,2.4,5.2c1.9,2.1,4.1,3.8,6.2,5.6l13.3,11.9
		C330.4,417,336.1,422.4,341.8,417.9"/>
</g>
<g id="puzzle_7_">
	<path id="XMLID_28_" class="st6" d="M239.3,150.9c-2.6,7.9-3.7,16.4-5.1,24.6c-1.7,10.3-3.3,20.6-4.8,30.9c-0.7,4.9-2.3,9.8-2,14.7
		c0.2,3.4,3.1,5.9,6,7.2c2.1,0.9,4.4,1.4,6.7,1.7c3.2,0.4,6.3,1,9.4,1.5c2.9,0.5,5.9,0.8,8.7,1.5c1.3,0.3,3.7,0.7,5,0
		c1.3-0.7,1.4-2.5,1.9-3.8c1-3.3,0.5-6.9-2.7-8.7c-2.3-1.3-6.1-1.2-7.6-3.7c-1.8-2.9,0.9-5.2,3.5-5.6c1.2-0.2,6.6-0.4,4-2.4
		c-4.1-3.3-7.1-7.4-4.8-10c2.2-2.6,9.1,3.6,9.1,3.6s-2-6.4,2.1-8.5s6.5,6.9,6.7,6.7c2.5-2.9,7.7-7.3,9.3-0.9c0.6,2.6-1,5.9-2,8.2
		c2.6-0.5,6-2,8.6-0.7c3.7,1.8,1.2,5.8-0.7,8c-2.1,2.4-5.7,3.1-7.9,5.6c-2.7,3.1-3.7,7.1-3.4,11.1c0,0.6,0.4,1.8,0.7,2.9
		c0.3,1.2,1.3,2.1,2.5,2.3c10.1,1.7,18.4,3.1,19.8,3.2c3,0.3,6.3,0,8.2-2.6c5.1-6.8,4.7-17.5,5.2-25.6c0.3-4.9,4.5-4.5,7.8-2.6
		c1.6,0.9,3.2,2.2,4.4,3.7c1.9,2.4,2.6,5.5,5.1,7.4c2.1,1.6,6.1,2.4,7.3-0.7c0.9-2.4,0.2-5.3-0.4-7.8c0-0.1,0.1-0.1,0.2-0.1
		c1.4,1.8,6.5,2,8.2,1.2c5.1-2.3,1-6.5-1.8-8.7c-0.2-0.2,8.7-2.7,6.6-6.8c-2-4.1-8.5-2-8.5-2s6.2-6.9,3.5-9.1
		c-2.6-2.2-5.2-0.8-8.8,3.1c-3.5,3.9-3.8,1.6-4.1,1.1c-0.9-1.9-1.2-7.2-3.3-7.2c-3.1,0-3.5,3.2-4.4,5.4c-1.2,2.7-3.9,6-7.1,5.7
		c-3.4-0.3-1.8-3.4-1.1-6.2c2.4-10.5,7.7-24.6,1.5-34.8c-2.1-3.5-5.9-5.1-9.7-6.1c-5.4-1.4-11-1.9-16.5-2.5l-35.2-5.3
		C259.4,139.8,243.8,137.1,239.3,150.9"/>
</g>
<g id="puzzle_1_">
	<path id="XMLID_27_" class="st5" d="M257.7,339.6c5.1,0.5,10.3,0,15.4-0.2c6.4-0.3,12.8-0.8,19.1-1.3c3-0.2,6.2,0.1,9.1-0.8
		c2-0.6,3.1-2.6,3.5-4.6c0.3-1.4,0.2-2.8,0.1-4.2c-0.2-1.9-0.2-3.9-0.3-5.9c-0.1-1.8-0.3-3.6-0.3-5.4c0-0.8-0.1-2.3-0.7-3
		c-0.6-0.7-1.7-0.5-2.5-0.6c-2.1-0.2-4.2,0.6-4.8,2.8c-0.5,1.6,0.1,3.8-1.2,5.1c-1.5,1.5-3.2,0.2-3.9-1.4c-0.3-0.7-1.1-3.9-2-2.1
		c-1.4,2.9-3.5,5.2-5.3,4.2s0.9-5.9,0.9-5.9s-3.6,2.1-5.3-0.1c-1.8-2.2,3.3-4.8,3.1-4.9c-2.1-1.1-5.4-3.6-1.8-5.4
		c1.5-0.7,3.7-0.2,5.2,0.1c-0.7-1.5-2-3.3-1.6-5c0.6-2.5,3.3-1.5,4.9-0.7c1.7,0.9,2.6,3,4.4,4c2.2,1.2,4.7,1.3,7.1,0.5
		c0.3-0.1,1-0.5,1.7-0.8c0.7-0.4,1.1-1.1,1-1.8c-0.3-6.3-0.6-11.4-0.7-12.3c-0.2-1.8-0.8-3.8-2.7-4.6c-4.7-2.1-11.1-0.5-16,0.3
		c-2.9,0.5-3.3-2.1-2.6-4.3c0.3-1.1,0.9-2.2,1.6-3.1c1.2-1.5,3-2.3,3.7-4c0.6-1.5,0.6-4-1.4-4.3c-1.6-0.2-3.2,0.6-4.6,1.3
		c-0.1,0-0.1,0-0.1-0.1c0.9-1.1,0.3-4.1-0.4-5.1c-2.1-2.7-4,0.3-5,2.2c-0.1,0.2-2.8-4.8-5-3.1s-0.1,5.3-0.1,5.3s-5-2.8-5.9-0.9
		c-1,1.9,0.2,3.2,3,4.8c2.8,1.6,1.5,2.1,1.2,2.3c-1,0.8-4.2,1.7-3.9,3c0.4,1.8,2.4,1.6,3.8,1.9c1.8,0.3,4.1,1.5,4.4,3.5
		c0.3,2.1-1.8,1.5-3.6,1.5c-6.6,0-15.8-1.3-21,3.8c-1.8,1.7-2.3,4.2-2.3,6.7c-0.1,3.4,0.4,6.8,0.7,10.2l1.6,21.8
		C248.4,329,248.8,338.7,257.7,339.6"/>
</g>
<g id="puzzle_2_">
	<path id="XMLID_29_" class="st5" d="M353.6,25c-7.8,3.9-15.1,9.3-22.2,14.2c-9,6.2-17.8,12.6-26.7,19.1c-4.2,3.1-9,5.4-12.5,9.3
		c-2.4,2.6-2.1,6.6-1,9.8c0.8,2.3,2.2,4.3,3.6,6.2c2,2.6,3.9,5.5,5.8,8.2c1.8,2.5,3.7,5,5.3,7.7c0.7,1.2,2.2,3.2,3.7,3.7
		c1.5,0.5,2.9-0.7,4.2-1.4c3.2-1.6,5.5-4.6,4.5-8.4c-0.7-2.7-3.6-5.4-2.8-8.4c0.9-3.5,4.5-3.1,6.8-1.5c1,0.7,5.1,4.7,4.8,1.2
		c-0.6-5.5,0.3-10.7,3.9-10.9c3.6-0.3,4,9.5,4,9.5s3.4-6.2,7.9-4.7c4.5,1.6-0.4,10,0,9.9c4-0.3,11.1,0.4,7.5,6.3
		c-1.5,2.3-5.2,3.6-7.6,4.5c2.3,1.6,5.9,3,6.9,5.9c1.3,4.1-3.5,5.2-6.5,5.4c-3.3,0.2-6.5-2-10-1.8c-4.3,0.2-8,2.4-10.8,5.6
		c-0.4,0.5-1.1,1.6-1.7,2.7c-0.7,1.1-0.6,2.5,0.1,3.6c6.1,8.8,11.2,16,12.1,17.2c2,2.5,4.6,4.7,8,4.3c8.8-1.2,16.6-9.3,23-14.8
		c3.8-3.4,6.7,0,7.7,3.9c0.5,1.9,0.7,4,0.5,6c-0.4,3.2-2.3,6-1.8,9.2c0.4,2.7,2.6,6.3,5.8,4.9c2.5-1.1,4.1-3.8,5.6-6
		c0.1-0.1,0.2,0,0.2,0.1c-0.3,2.4,3.3,6.3,5.1,7c5.5,2.1,5.6-4.1,5.3-7.7c0-0.3,8.4,4.5,9.9,0c1.6-4.5-4.7-7.8-4.7-7.8
		s9.7-0.4,9.5-4c-0.3-3.6-3.2-4.5-8.8-4.3c-5.5,0.2-4-1.7-3.8-2.3c0.7-2,4.5-6.2,3-7.8c-2.3-2.3-4.9-0.2-7.3,0.7
		c-2.9,1.1-7.3,1.5-9.5-1.2c-2.3-2.8,1.2-3.8,3.8-5.4c9.6-5.9,24.1-12.3,27.2-24.4c1-4.2-0.5-8.2-2.6-11.8c-2.9-5-6.6-9.6-10.2-14.2
		l-21.9-30.3C376.6,31.9,367.2,18.2,353.6,25"/>
</g>
<g id="puzzle_4_">
	<path id="XMLID_32_" class="st6" d="M534.9,28.5c-9.1-2.7-18.7-3.8-28-5.1c-11.7-1.7-23.4-3.2-35.1-4.5c-5.5-0.7-11.1-2.3-16.7-1.9
		c-3.9,0.3-6.6,3.7-8,7c-1,2.4-1.4,5-1.7,7.6c-0.3,3.6-1,7.2-1.5,10.7c-0.5,3.3-0.8,6.7-1.5,9.9c-0.3,1.5-0.7,4.2,0.2,5.7
		c0.8,1.4,2.9,1.6,4.3,2c3.8,1.1,7.8,0.4,9.7-3.3c1.4-2.7,1.1-6.9,3.9-8.7c3.3-2.1,5.9,0.8,6.5,3.8c0.3,1.3,0.6,7.5,2.9,4.5
		c3.6-4.8,8.1-8.2,11.2-5.8c3,2.4-3.8,10.4-3.8,10.4s7.2-2.5,9.6,2.1s-7.6,7.6-7.3,7.8c3.4,2.7,8.5,8.5,1.3,10.5
		c-2.9,0.8-6.7-0.9-9.4-2c0.7,3,2.5,6.7,1.1,9.7c-2,4.3-6.6,1.5-9.1-0.5c-2.8-2.3-3.7-6.3-6.6-8.8c-3.5-3-8.1-4-12.7-3.5
		c-0.7,0.1-2.1,0.5-3.3,0.9c-1.3,0.4-2.3,1.5-2.5,2.9c-1.6,11.5-3,20.9-3.1,22.5c-0.2,3.4,0.2,7.1,3.2,9.3c7.8,5.5,20,4.9,29.1,5.2
		c5.5,0.2,5.2,4.9,3.2,8.8c-1,1.9-2.4,3.7-4,5.1c-2.6,2.2-6.2,3-8.2,6c-1.7,2.4-2.6,7,1,8.2c2.8,1,6,0,8.8-0.6
		c0.1,0,0.2,0.1,0.1,0.2c-2,1.7-2.1,7.4-1.1,9.3c2.8,5.7,7.4,0.9,9.8-2.2c0.2-0.3,3.3,9.7,7.9,7.3c4.5-2.4,2-9.7,2-9.7
		s8,6.8,10.4,3.8c2.4-3,0.7-5.9-3.8-9.8c-4.5-3.9-2-4.3-1.4-4.6c2.1-1.1,8.1-1.5,8.1-4c-0.1-3.5-3.7-3.8-6.3-4.9
		c-3-1.3-6.9-4.2-6.6-7.9c0.3-3.9,3.8-2.1,7-1.5c12,2.4,28.1,8,39.4,0.7c3.9-2.5,5.6-6.9,6.6-11.2c1.4-6.1,1.8-12.5,2.4-18.7l5-40.1
		C548.1,50.9,550.7,33.1,534.9,28.5"/>
</g>
<g id="XMLID_24_">
	<circle id="XMLID_17_" class="st8" cx="1140.3" cy="201" r="131"/>
	<line id="XMLID_5_" class="st9" x1="1203.8" y1="65.5" x2="1084.2" y2="341.7"/>
	<line id="XMLID_16_" class="st9" x1="1235.7" y1="111.6" x2="1044.7" y2="290.8"/>
	<line id="XMLID_18_" class="st9" x1="1281.4" y1="262.9" x2="1006.4" y2="142.7"/>
	<line id="XMLID_19_" class="st9" x1="1135.5" y1="70.3" x2="1144.9" y2="332.1"/>
	<line id="XMLID_6_" class="st9" x1="1280.6" y1="144.8" x2="1003.8" y2="256"/>
	<line id="XMLID_10_" class="st9" x1="1081.1" y1="66.4" x2="1202.4" y2="342.9"/>
	<line id="XMLID_12_" class="st9" x1="1270.7" y1="212.7" x2="1009.8" y2="189.7"/>
	<line id="XMLID_20_" class="st9" x1="1230.7" y1="295.9" x2="1049.7" y2="106.5"/>
	<circle id="XMLID_15_" class="st10" cx="1139.9" cy="201.9" r="110.7"/>
	<g id="XMLID_21_">
		<path id="XMLID_23_" d="M1153.2,136.1l8.4,0.8l-2.8,12.3c9.9,2.2,19.2,5.4,27.9,9.7l0.6,0.8l-10.8,26.5l-4.1-0.2l-1.5-22.8
			c-4.3-2.7-8.9-4.7-13.8-5.9l-8.9,38.6c6.4,4.1,11.5,7.5,15.4,10.1s7.2,5.6,10.1,8.7c2.8,3.1,5,6.6,6.3,10.3
			c1.4,3.7,1.6,7.9,0.7,12.4c-2,9.6-7.1,16.7-15.6,21.4c-8.4,4.7-19.2,6.3-32.2,4.6l-3.1,13.4l-8.4-0.8l3.2-14
			c-10.9-2.6-21.3-6.6-31.1-12.2l-0.5-1l10.5-29.4l4.7,0.2l0.9,26.3c5.2,3.4,11,5.9,17.4,7.6l9.6-42.3c-4.5-3.1-8.4-6-11.9-8.6
			c-3.4-2.6-6.4-5.5-8.9-8.7c-2.5-3.2-4.4-6.8-5.5-10.7c-1.1-3.9-1.2-8.4-0.2-13.4c1.7-8.3,6.2-14.4,13.6-18.3
			c7.4-3.9,16.4-5.2,27.3-3.8L1153.2,136.1z M1148.7,156c-8.9-0.3-14.2,4-16,13c-1.6,8,1,15.3,8.1,21.9L1148.7,156z M1134.7,255
			c12.8,0.7,20.4-4.6,22.7-15.8c1.6-7.9-3-15.6-13.9-23L1134.7,255z"/>
	</g>
</g>
<g id="XMLID_3_">
</g>
<g id="XMLID_72_">
</g>
<g id="XMLID_73_">
</g>
<g id="XMLID_74_">
</g>
<g id="XMLID_75_">
</g>
<g id="XMLID_76_">
</g>
<g id="XMLID_77_">
</g>
<g id="XMLID_78_">
</g>
<g id="XMLID_79_">
</g>
<g id="XMLID_80_">
</g>
<g id="XMLID_81_">
</g>
<g id="XMLID_82_">
</g>
<g id="XMLID_83_">
</g>
<g id="XMLID_84_">
</g>
<g id="XMLID_85_">
</g>
</svg>
