<?xml version="1.0" encoding="utf-8"?>
<!-- Generator: Adobe Illustrator 16.0.0, SVG Export Plug-In . SVG Version: 6.00 Build 0)  -->
<!DOCTYPE svg PUBLIC "-//W3C//DTD SVG 1.1//EN" "http://www.w3.org/Graphics/SVG/1.1/DTD/svg11.dtd">
<svg version="1.1" id="圖層_1" xmlns="http://www.w3.org/2000/svg" xmlns:xlink="http://www.w3.org/1999/xlink" x="0px" y="0px"
	 width="600px" height="600px" viewBox="192.011 -18.133 600 600" enable-background="new 192.011 -18.133 600 600"
	 xml:space="preserve">
<g id="XMLID_9_">
	<ellipse id="XMLID_2_" fill="#040000" cx="493.3" cy="281.867" rx="298.711" ry="300"/>
	<ellipse id="XMLID_10_" fill="#040000" cx="260.667" cy="292.693" rx="36.773" ry="40.693"/>
	<ellipse id="XMLID_3_" fill="#FFFFFF" cx="480" cy="281.867" rx="100.8" ry="95.013"/>
	<path id="XMLID_4_" fill="#050101" d="M468.986,214.293c0,0-21.279,3.733-32.666,20.533s0,35.28,0,35.28
		s13.066,15.681,29.68,19.787s28.747,14.933,28.747,14.933s3.359,15.681-9.147,17.36c-12.506,1.68-11.199,4.854-27.253,0
		s-14.187-3.173-20.72-7.093c-6.533-3.733-6.16,22.213-6.16,22.213v2.8c0,0,18.106,8.587,37.146,9.707
		c8.773,0.56,3.733,5.974,3.733,10.826c0,5.974,0,9.147,0,9.147h17.173l1.12-22.773c0,0,19.601-3.174,27.813-12.507
		c8.4-9.146,8.4-9.146,8.4-9.146s5.413-16.801,0-29.308c-5.413-12.506-16.613-24.453-35.653-29.306
		c-19.04-4.853-30.801-16.24-23.146-24.453c7.653-8.213,26.133-6.534,32.666-4.293s16.054,5.413,16.054,5.413l6.533-23.893
		c0,0-25.014-6.347-32.106-5.414c-6.721,0.934-2.427-20.533-2.427-20.533h-19.04L468.986,214.293z"/>
	<ellipse id="XMLID_11_" fill="#040000" cx="717.813" cy="301.84" rx="33.6" ry="40.693"/>
	<path id="XMLID_5_" fill="#FFFFFF" d="M249.84,221.387c-13.626-0.374-27.44,0-41.066-0.187c-2.987,0-6.16,0-8.213,2.613
		s-2.053,6.72-2.053,10.453c0.373,10.827,0.747,21.653,1.12,32.293c0.187,2.613,0.187,5.6,1.494,7.653
		c1.493,2.613,4.293,3.733,6.72,4.106c6.16,0.934,12.507-1.867,17.547-6.16c5.04-4.293,9.333-10.08,13.253-15.867
		c1.12-1.68,2.426-3.36,4.106-4.293s3.92-0.374,4.854,1.493c2.053,4.293-4.667,9.333-2.8,13.813c1.494,3.36,5.6,1.493,8.4-0.187
		c4.106-2.427,10.64-2.613,11.76,2.8c1.12,4.854-3.36,8.773-7.093,11.014c2.24,0.373,4.667,0.746,6.72,2.24
		c2.053,1.492,3.36,4.479,2.8,7.093c-1.12,4.667-6.533,4.854-10.454,3.92c0.934,2.8,3.547,4.106,5.414,5.974
		c1.867,1.866,3.36,5.786,1.493,7.84c-1.12,1.12-2.613,1.12-4.106,0.934c-5.227-0.747-10.267-2.987-14.747-6.347
		c-1.494,1.68,0.933,4.106,1.307,6.533c0.56,2.986-2.613,5.413-5.04,4.667c-2.427-0.747-4.293-3.174-6.16-5.228
		c-7.467-8.399-17.733-12.88-27.626-11.946c-3.733,0.373-7.653,1.493-9.707,5.04c-1.68,2.986-1.866,6.906-2.053,10.453
		c-0.373,13.813-0.747,27.627-1.12,41.627c0,1.307,0,2.986,0.933,3.733c0.56,0.56,1.307,0.56,2.053,0.56
		c21.28,1.12,42.747,2.24,64.027,2.24c10.827,0,21.84-0.187,32.667-0.934c7.28-0.373,21.093,1.307,26.88-5.227
		c2.613-2.986,3.547-7.653,3.547-11.946c0.187-22.773-2.24-43.867,1.493-66.64c1.68-9.707,3.92-19.6,2.8-29.493
		c-1.307-13.067-8.4-21.28-19.04-22.96c-9.894-1.493-20.16-0.56-30.053-0.747C270,222.32,259.92,221.387,249.84,221.387"/>
	<g id="XMLID_6_">
		<path id="XMLID_36_" fill="#FFFFFF" d="M787.627,343.467c-1.867,2.053-4.48,2.986-6.907,3.92c-1.12,0.373-2.24,0.747-3.359,0.934
			c-6.533,1.68-13.254,2.239-19.974,1.493c-4.667-0.561-10.08-1.307-13.253-5.601c-3.547-4.666-3.547-11.573-2.614-17.173
			c0.561-2.986,1.308-6.16,2.614-8.96c0.56-1.493,1.307-2.613,2.239-3.733c0.934-1.12,2.054-1.866,3.174-2.8
			c3.733-2.8,7.093-5.601,8.587-10.641c0.746-2.239,0.933-5.039-0.374-7.093c-1.68-2.613-4.854-2.427-7.467-2.987
			c-0.56-0.186-0.933-0.186-1.307-0.373c-0.746-0.373-1.493-0.934-1.68-1.866l0,0c0-0.187-0.187-0.374,0-0.56v-0.188
			c0-0.561,0.187-0.934,0.373-1.493c0-0.187,0.187-0.187,0.187-0.187c0.374-0.561,0.747-1.12,1.307-1.68l0,0
			c0.374-0.374,0.561-0.934,0.934-1.307c0.747-1.494,1.493-2.8,1.867-4.294c0.56-2.613-0.187-5.227-1.681-7.093
			c-1.68-2.053-4.293-3.36-6.72-2.427c-2.427,0.934-3.92,4.107-5.227,6.72c-1.12-3.36-3.174-7.653-6.72-7.653
			c-3.92,0-6.347,4.853-7.28,8.586c-1.866-1.867-3.92-3.733-6.347-4.293c-2.613-0.56-5.04,1.68-5.6,4.48
			c-0.747,3.92,2.427,5.6,3.733,8.587c0.933,2.24-1.12,2.613-2.613,2.799c-2.987,0.188-5.787-0.186-6.907,3.734
			c-0.934,3.359,0.373,7.279,1.867,10.08c0.187,0.373,7.093,8.772,9.893,13.253c0.747,1.12,1.493,2.613,1.867,3.92
			c0.56,1.867,0.56,3.733,0.746,5.601c0.374,2.239,0.561,4.479,0.561,6.72c0,2.427,0.187,6.16-1.307,8.587
			c-0.561,0.933-1.307,1.307-2.24,1.493c-1.493,0.373-3.174,0.187-4.667,0.187c-6.533,0.187-13.253,0.187-19.786-0.187
			c-3.36-0.187-6.721-0.374-10.267-0.747c-1.681-0.187-3.36-0.56-4.48-1.866c-1.493-1.493-1.68-3.92-1.866-5.787
			c0-1.68,0-3.547,0-5.227c0.187-3.92,0.373-7.84,0.746-11.76c0.187-2.987,0.561-6.16,0.187-9.146
			c-0.187-2.054-0.746-4.107-2.053-5.787c-0.934-1.12-2.24-2.054-3.547-2.427c-2.054-0.746-4.106-1.12-6.16-1.307
			c-1.493-0.187-2.986-0.373-4.479-0.373c-3.733-0.373-7.467-0.747-11.2-0.373c-2.8,0.186-5.6,0.746-8.026,2.239
			c-2.24,1.307-3.733,3.547-4.854,6.16c-1.12,2.427-2.054,5.601-4.106,7.28c-1.681,1.493-4.854,2.986-6.907,1.307
			c-1.68-1.307-2.24-3.92-2.613-5.974c-0.373-2.8-0.373-5.786,0-8.587c0.187-0.933,0.373-1.866,0.56-2.8
			c0-0.373,0-0.933-0.187-1.307c-0.187-0.373-0.56-0.747-0.933-0.933c-0.374,0-0.747-0.188-1.12-0.188
			c-4.48,0.747-9.894,2.24-12.507,0.747c-4.854-6.72,3.733-7.28,8.213-9.521c0.374-0.187,0.747-0.373,1.12-0.746
			c-5.413-1.494-12.133-4.293-8.026-10.267c1.307-1.493,6.72,1.494,10.453,2.054c0.373,0.187,0.934,0.373,1.307,0.56h0.187
			c0.747,0,1.12-0.56,1.493-1.12c0-0.187,0-0.374,0-0.747c0-0.187-0.187-0.56-0.373-0.747c-0.187-0.374-0.187-0.56-0.373-0.934
			c-0.187-0.56-0.561-1.307-0.934-1.867s-0.934-1.307-1.493-1.867c-1.68-1.867-4.293-4.853-5.6-6.347
			c-2.614-4.293,2.053-5.413,5.786-3.36c0.561,0,2.613,2.053,2.986,2.427c2.987,2.987,8.587,4.853,9.521,5.04
			c0.373,0,0.747,0,1.12-0.187c0.373-0.187,0.746-0.56,1.12-0.933c0.373-0.374,0.746-0.934,0.933-1.493
			c1.494-2.987,2.801-5.974,4.107-5.974c8.026-1.493,4.106,10.267,5.04,15.68c0.187,0.56,0.187,1.12,0.373,1.493
			c0.187,0.56,0.373,0.934,0.747,1.493c0.187,0.374,0.56,0.747,0.746,1.12c4.667,5.601,14.561,3.36,22.026,2.613
			c3.547-0.373,5.414-2.8,5.04-6.906c-0.373-2.427-0.56-4.854-0.746-7.28c-1.493-19.973,0.56-34.16,18.854-43.307
			c21.093-10.453,50.213-17.733,72.053-5.787c3.733,2.053,7.094,5.227,9.146,9.52c2.613,5.04,3.547,10.827,3.921,16.427
			c0.56,7.28,0,14.56-0.561,21.84c-0.56,7.467-1.12,14.934-1.307,22.587c-0.187,6.906,0.187,14,1.68,20.906
			c1.681,6.72,5.04,12.507,7.653,18.667C788.56,331.894,791.36,339.174,787.627,343.467z"/>
	</g>
</g>
<g id="XMLID_1_">
	<g id="XMLID_22_">
		<g id="XMLID_23_">
			<path id="XMLID_24_" fill="#FFFFFF" d="M270,169.12c0,0,1.493-1.307,4.293-3.733c2.8-2.427,6.907-6.16,12.506-10.453
				c10.827-8.773,27.253-20.534,48.534-31.733c2.613-1.307,5.413-2.8,8.213-4.107c2.8-1.307,5.787-2.613,8.773-3.92
				c1.494-0.747,2.987-1.307,4.48-2.053c1.494-0.56,2.987-1.307,4.667-1.867c3.173-1.307,6.347-2.427,9.52-3.733
				c13.066-4.48,26.88-8.586,41.626-11.76c29.493-5.787,61.787-7.84,93.707-3.92c15.866,1.867,31.733,4.854,46.853,9.147
				c15.12,4.293,29.681,9.893,43.307,16.053c3.36,1.68,6.721,3.173,10.08,4.854c3.36,1.68,6.534,3.546,9.707,5.227
				c3.174,1.68,6.16,3.546,9.333,5.413c1.494,0.934,2.987,1.867,4.48,2.8c1.493,0.933,2.986,1.867,4.293,2.8
				c2.8,1.867,5.601,3.92,8.4,5.787c1.493,0.934,2.8,1.867,4.106,2.987c1.307,0.933,2.613,2.053,3.92,2.987
				c1.307,0.933,2.613,1.866,3.92,2.986c1.307,0.934,2.613,1.867,3.733,2.987c2.427,2.053,4.667,3.92,7.094,5.973
				c2.427,1.867,4.479,3.92,6.533,5.787c1.866,1.68,3.547,3.36,5.227,4.854c0.187,0.187,0.373,0.374,0.56,0.56
				c0.374,0.373,0.747,0.747,0.934,0.933c0.561,0.56,0.747,0.747,0.747,0.747l-6.347,6.533c6.72-0.187,13.813-0.187,20.906,0
				c0.187-6.907,0.187-14.187,0-21.467l-6.347,6.533c0,0-0.373-0.373-0.933-0.933c-0.374-0.187-0.561-0.56-0.934-0.934
				c-0.187-0.187-0.374-0.373-0.561-0.56c-1.866-1.68-3.546-3.36-5.413-5.04c-2.24-2.054-4.479-4.107-6.906-6.16
				s-4.854-4.106-7.28-6.16c-1.307-1.12-2.427-2.053-3.92-2.986c-1.307-0.934-2.613-2.054-3.92-2.987
				c-1.307-0.934-2.613-2.053-4.107-2.987c-1.307-1.12-2.8-2.053-4.293-2.986c-2.8-1.867-5.786-3.92-8.773-5.974
				c-1.493-1.12-2.986-2.053-4.479-2.987c-1.493-0.933-3.174-1.867-4.667-2.8c-3.173-1.867-6.347-3.92-9.707-5.6
				c-3.359-1.867-6.72-3.546-10.08-5.413c-3.546-1.68-6.906-3.36-10.453-5.04c-14.187-6.533-29.307-12.133-45.173-16.8
				c-15.867-4.48-32.106-7.653-48.72-9.52C474.399,76.347,440.613,78.4,410,84.56c-15.307,3.173-29.867,7.467-43.307,12.133
				c-3.36,1.307-6.533,2.613-9.894,3.92c-1.68,0.56-3.173,1.307-4.853,1.867c-1.494,0.747-3.173,1.307-4.667,2.053
				c-2.987,1.307-6.16,2.8-8.96,4.107c-2.987,1.493-5.787,2.986-8.586,4.293c-22.213,11.386-39.2,23.707-50.587,32.853
				c-5.787,4.48-9.893,8.4-12.88,10.827c-2.987,2.613-4.48,3.92-4.48,3.92L270,169.12z"/>
		</g>
	</g>
</g>
<g id="XMLID_7_">
	<g id="XMLID_27_">
		<g id="XMLID_30_">
			<path id="XMLID_31_" fill="#FFFFFF" d="M694.667,380.8c0,0-1.494,1.307-4.107,4.106c-2.8,2.613-6.533,6.534-11.946,11.2
				c-10.453,9.334-26.134,22.027-46.854,33.974c-2.613,1.493-5.227,2.986-8.026,4.667c-2.8,1.493-5.6,2.8-8.587,4.293
				c-1.493,0.747-2.986,1.493-4.293,2.24c-1.493,0.746-2.987,1.307-4.48,2.053c-2.986,1.307-6.159,2.801-9.333,4.107
				c-12.693,5.227-26.507,9.893-41.066,13.813c-29.12,7.28-61.414,11.014-93.334,8.587c-16.053-1.12-31.92-3.359-47.226-6.906
				c-15.307-3.547-30.24-8.4-44.054-13.813c-3.546-1.493-6.907-2.986-10.267-4.294c-3.36-1.493-6.533-3.173-9.893-4.666
				c-3.36-1.493-6.347-3.174-9.52-4.854c-1.494-0.934-3.173-1.68-4.667-2.427c-1.493-0.746-2.986-1.68-4.48-2.613
				c-2.986-1.866-5.787-3.547-8.773-5.227c-1.493-0.934-2.8-1.68-4.106-2.613s-2.8-1.867-4.106-2.8
				c-1.307-0.934-2.613-1.867-3.92-2.613c-1.307-0.934-2.613-1.867-3.92-2.801c-2.427-1.866-4.853-3.732-7.28-5.6
				c-2.427-1.68-4.667-3.733-6.907-5.6c-1.867-1.494-3.733-3.174-5.414-4.667c-0.187-0.187-0.373-0.373-0.56-0.56
				c-0.374-0.374-0.747-0.561-1.12-0.934c-0.56-0.561-0.934-0.747-0.934-0.747l5.974-6.72c-6.72,0.56-13.813,0.934-20.907,1.12
				c0.187,6.906,0.56,14,1.12,21.28l5.973-6.721c0,0,0.374,0.374,0.934,0.747c0.373,0.187,0.747,0.56,1.12,0.934
				c0.187,0.187,0.374,0.373,0.747,0.56c1.867,1.493,3.733,3.174,5.787,4.854c2.24,1.866,4.667,3.92,7.093,5.786
				c2.426,1.867,5.04,3.733,7.653,5.787c1.307,0.934,2.613,1.866,3.92,2.8s2.8,1.867,4.106,2.8c1.307,0.934,2.8,1.867,4.293,2.801
				c1.493,0.933,2.8,1.866,4.293,2.8c2.987,1.866,5.973,3.733,8.96,5.413c1.493,0.934,3.173,1.866,4.667,2.613
				c1.68,0.934,3.173,1.68,4.854,2.613c3.173,1.68,6.533,3.547,9.894,5.04c3.36,1.68,6.72,3.36,10.267,4.854
				c3.546,1.493,7.093,2.986,10.64,4.479c14.56,5.787,29.867,10.641,45.92,14.374c16.054,3.546,32.48,5.973,49.094,7.093
				c33.227,2.427,66.826-1.307,97.066-8.96c15.12-3.92,29.493-8.96,42.747-14.373c3.173-1.493,6.533-2.986,9.706-4.293
				c1.494-0.747,3.174-1.307,4.667-2.24c1.493-0.747,2.986-1.493,4.48-2.24c2.986-1.493,5.973-2.986,8.772-4.48
				c2.801-1.68,5.601-3.173,8.214-4.853c21.653-12.507,37.894-25.761,48.72-35.467c5.601-4.667,9.521-8.773,12.32-11.573
				s4.293-4.107,4.293-4.107L694.667,380.8z"/>
		</g>
	</g>
</g>
</svg>
