<?xml version="1.0" encoding="utf-8"?>
<!-- Generator: Adobe Illustrator 19.0.0, SVG Export Plug-In . SVG Version: 6.00 Build 0)  -->
<svg version="1.1" id="圖層_1" xmlns="http://www.w3.org/2000/svg" xmlns:xlink="http://www.w3.org/1999/xlink" x="0px" y="0px"
	 viewBox="0 0 450 300" style="enable-background:new 0 0 450 300;" xml:space="preserve">
<style type="text/css">
	.st0{fill:#040000;}
	.st1{fill:#FFFFFF;}
	.st2{fill:#050101;}
</style>
<g id="XMLID_9_">
	<circle id="XMLID_2_" class="st0" cx="225" cy="151" r="149.4"/>
	<ellipse id="XMLID_10_" class="st0" cx="107.5" cy="156.8" rx="19.7" ry="21.8"/>
	<ellipse id="XMLID_3_" class="st1" cx="225" cy="151" rx="54" ry="50.9"/>
	<path id="XMLID_4_" class="st2" d="M219.1,114.8c0,0-11.4,2-17.5,11s0,18.9,0,18.9s7,8.4,15.9,10.6c8.9,2.2,15.4,8,15.4,8
		s1.8,8.4-4.9,9.3c-6.7,0.9-6,2.6-14.6,0c-8.6-2.6-7.6-1.7-11.1-3.8c-3.5-2-3.3,11.9-3.3,11.9l0,1.5c0,0,9.7,4.6,19.9,5.2
		c4.7,0.3,2,3.2,2,5.8c0,3.2,0,4.9,0,4.9h9.2l0.6-12.2c0,0,10.5-1.7,14.9-6.7c4.5-4.9,4.5-4.9,4.5-4.9s2.9-9,0-15.7
		s-8.9-13.1-19.1-15.7s-16.5-8.7-12.4-13.1c4.1-4.4,14-3.5,17.5-2.3c3.5,1.2,8.6,2.9,8.6,2.9l3.5-12.8c0,0-13.4-3.4-17.2-2.9
		c-3.6,0.5-1.3-11-1.3-11h-10.2L219.1,114.8z"/>
	<ellipse id="XMLID_11_" class="st0" cx="352.4" cy="161.7" rx="18" ry="21.8"/>
	<path id="XMLID_5_" class="st1" d="M101.7,118.6c-7.3-0.2-14.7,0-22-0.1c-1.6,0-3.3,0-4.4,1.4c-1.1,1.4-1.1,3.6-1.1,5.6
		c0.2,5.8,0.4,11.6,0.6,17.3c0.1,1.4,0.1,3,0.8,4.1c0.8,1.4,2.3,2,3.6,2.2c3.3,0.5,6.7-1,9.4-3.3c2.7-2.3,5-5.4,7.1-8.5
		c0.6-0.9,1.3-1.8,2.2-2.3c0.9-0.5,2.1-0.2,2.6,0.8c1.1,2.3-2.5,5-1.5,7.4c0.8,1.8,3,0.8,4.5-0.1c2.2-1.3,5.7-1.4,6.3,1.5
		c0.6,2.6-1.8,4.7-3.8,5.9c1.2,0.2,2.5,0.4,3.6,1.2s1.8,2.4,1.5,3.8c-0.6,2.5-3.5,2.6-5.6,2.1c0.5,1.5,1.9,2.2,2.9,3.2
		c1,1,1.8,3.1,0.8,4.2c-0.6,0.6-1.4,0.6-2.2,0.5c-2.8-0.4-5.5-1.6-7.9-3.4c-0.8,0.9,0.5,2.2,0.7,3.5c0.3,1.6-1.4,2.9-2.7,2.5
		c-1.3-0.4-2.3-1.7-3.3-2.8c-4-4.5-9.5-6.9-14.8-6.4c-2,0.2-4.1,0.8-5.2,2.7c-0.9,1.6-1,3.7-1.1,5.6c-0.2,7.4-0.4,14.8-0.6,22.3
		c0,0.7,0,1.6,0.5,2c0.3,0.3,0.7,0.3,1.1,0.3c11.4,0.6,22.9,1.2,34.3,1.2c5.8,0,11.7-0.1,17.5-0.5c3.9-0.2,11.3,0.7,14.4-2.8
		c1.4-1.6,1.9-4.1,1.9-6.4c0.1-12.2-1.2-23.5,0.8-35.7c0.9-5.2,2.1-10.5,1.5-15.8c-0.7-7-4.5-11.4-10.2-12.3
		c-5.3-0.8-10.8-0.3-16.1-0.4C112.5,119.1,107.1,118.6,101.7,118.6"/>
	<g id="XMLID_6_">
		<path id="XMLID_36_" class="st1" d="M389.8,184c-1,1.1-2.4,1.6-3.7,2.1c-0.6,0.2-1.2,0.4-1.8,0.5c-3.5,0.9-7.1,1.2-10.7,0.8
			c-2.5-0.3-5.4-0.7-7.1-3c-1.9-2.5-1.9-6.2-1.4-9.2c0.3-1.6,0.7-3.3,1.4-4.8c0.3-0.8,0.7-1.4,1.2-2c0.5-0.6,1.1-1,1.7-1.5
			c2-1.5,3.8-3,4.6-5.7c0.4-1.2,0.5-2.7-0.2-3.8c-0.9-1.4-2.6-1.3-4-1.6c-0.3-0.1-0.5-0.1-0.7-0.2c-0.4-0.2-0.8-0.5-0.9-1
			c0,0,0,0,0,0c0-0.1-0.1-0.2,0-0.3c0,0,0-0.1,0-0.1c0-0.3,0.1-0.5,0.2-0.8c0-0.1,0.1-0.1,0.1-0.1c0.2-0.3,0.4-0.6,0.7-0.9
			c0,0,0,0,0,0c0.2-0.2,0.3-0.5,0.5-0.7c0.4-0.8,0.8-1.5,1-2.3c0.3-1.4-0.1-2.8-0.9-3.8c-0.9-1.1-2.3-1.8-3.6-1.3
			c-1.3,0.5-2.1,2.2-2.8,3.6c-0.6-1.8-1.7-4.1-3.6-4.1c-2.1,0-3.4,2.6-3.9,4.6c-1-1-2.1-2-3.4-2.3c-1.4-0.3-2.7,0.9-3,2.4
			c-0.4,2.1,1.3,3,2,4.6c0.5,1.2-0.6,1.4-1.4,1.5c-1.6,0.1-3.1-0.1-3.7,2c-0.5,1.8,0.2,3.9,1,5.4c0.1,0.2,3.8,4.7,5.3,7.1
			c0.4,0.6,0.8,1.4,1,2.1c0.3,1,0.3,2,0.4,3c0.2,1.2,0.3,2.4,0.3,3.6c0,1.3,0.1,3.3-0.7,4.6c-0.3,0.5-0.7,0.7-1.2,0.8
			c-0.8,0.2-1.7,0.1-2.5,0.1c-3.5,0.1-7.1,0.1-10.6-0.1c-1.8-0.1-3.6-0.2-5.5-0.4c-0.9-0.1-1.8-0.3-2.4-1c-0.8-0.8-0.9-2.1-1-3.1
			c0-0.9,0-1.9,0-2.8c0.1-2.1,0.2-4.2,0.4-6.3c0.1-1.6,0.3-3.3,0.1-4.9c-0.1-1.1-0.4-2.2-1.1-3.1c-0.5-0.6-1.2-1.1-1.9-1.3
			c-1.1-0.4-2.2-0.6-3.3-0.7c-0.8-0.1-1.6-0.2-2.4-0.2c-2-0.2-4-0.4-6-0.2c-1.5,0.1-3,0.4-4.3,1.2c-1.2,0.7-2,1.9-2.6,3.3
			c-0.6,1.3-1.1,3-2.2,3.9c-0.9,0.8-2.6,1.6-3.7,0.7c-0.9-0.7-1.2-2.1-1.4-3.2c-0.2-1.5-0.2-3.1,0-4.6c0.1-0.5,0.2-1,0.3-1.5
			c0-0.2,0-0.5-0.1-0.7c-0.1-0.2-0.3-0.4-0.5-0.5c-0.2,0-0.4-0.1-0.6-0.1c-2.4,0.4-5.3,1.2-6.7,0.4c-2.6-3.6,2-3.9,4.4-5.1
			c0.2-0.1,0.4-0.2,0.6-0.4c-2.9-0.8-6.5-2.3-4.3-5.5c0.7-0.8,3.6,0.8,5.6,1.1c0.2,0.1,0.5,0.2,0.7,0.3c0,0,0.1,0,0.1,0
			c0.4,0,0.6-0.3,0.8-0.6c0-0.1,0-0.2,0-0.4c0-0.1-0.1-0.3-0.2-0.4c-0.1-0.2-0.1-0.3-0.2-0.5c-0.1-0.3-0.3-0.7-0.5-1
			c-0.2-0.3-0.5-0.7-0.8-1c-0.9-1-2.3-2.6-3-3.4c-1.4-2.3,1.1-2.9,3.1-1.8c0.3,0,1.4,1.1,1.6,1.3c1.6,1.6,4.6,2.6,5.1,2.7
			c0.2,0,0.4,0,0.6-0.1c0.2-0.1,0.4-0.3,0.6-0.5s0.4-0.5,0.5-0.8c0.8-1.6,1.5-3.2,2.2-3.2c4.3-0.8,2.2,5.5,2.7,8.4
			c0.1,0.3,0.1,0.6,0.2,0.8c0.1,0.3,0.2,0.5,0.4,0.8c0.1,0.2,0.3,0.4,0.4,0.6c2.5,3,7.8,1.8,11.8,1.4c1.9-0.2,2.9-1.5,2.7-3.7
			c-0.2-1.3-0.3-2.6-0.4-3.9c-0.8-10.7,0.3-18.3,10.1-23.2c11.3-5.6,26.9-9.5,38.6-3.1c2,1.1,3.8,2.8,4.9,5.1
			c1.4,2.7,1.9,5.8,2.1,8.8c0.3,3.9,0,7.8-0.3,11.7c-0.3,4-0.6,8-0.7,12.1c-0.1,3.7,0.1,7.5,0.9,11.2c0.9,3.6,2.7,6.7,4.1,10
			C390.3,177.8,391.8,181.7,389.8,184z"/>
	</g>
</g>
<g id="XMLID_1_">
	<g id="XMLID_22_">
		<g id="XMLID_23_">
			<path id="XMLID_24_" class="st1" d="M112.5,90.6c0,0,0.8-0.7,2.3-2c1.5-1.3,3.7-3.3,6.7-5.6c5.8-4.7,14.6-11,26-17
				c1.4-0.7,2.9-1.5,4.4-2.2c1.5-0.7,3.1-1.4,4.7-2.1c0.8-0.4,1.6-0.7,2.4-1.1c0.8-0.3,1.6-0.7,2.5-1c1.7-0.7,3.4-1.3,5.1-2
				c7-2.4,14.4-4.6,22.3-6.3c15.8-3.1,33.1-4.2,50.2-2.1c8.5,1,17,2.6,25.1,4.9c8.1,2.3,15.9,5.3,23.2,8.6c1.8,0.9,3.6,1.7,5.4,2.6
				c1.8,0.9,3.5,1.9,5.2,2.8c1.7,0.9,3.3,1.9,5,2.9c0.8,0.5,1.6,1,2.4,1.5c0.8,0.5,1.6,1,2.3,1.5c1.5,1,3,2.1,4.5,3.1
				c0.8,0.5,1.5,1,2.2,1.6c0.7,0.5,1.4,1.1,2.1,1.6c0.7,0.5,1.4,1,2.1,1.6c0.7,0.5,1.4,1,2,1.6c1.3,1.1,2.5,2.1,3.8,3.2
				c1.3,1,2.4,2.1,3.5,3.1c1,0.9,1.9,1.8,2.8,2.6c0.1,0.1,0.2,0.2,0.3,0.3c0.2,0.2,0.4,0.4,0.5,0.5c0.3,0.3,0.4,0.4,0.4,0.4
				l-3.4,3.5c3.6-0.1,7.4-0.1,11.2,0c0.1-3.7,0.1-7.6,0-11.5l-3.4,3.5c0,0-0.2-0.2-0.5-0.5c-0.2-0.1-0.3-0.3-0.5-0.5
				c-0.1-0.1-0.2-0.2-0.3-0.3c-1-0.9-1.9-1.8-2.9-2.7c-1.2-1.1-2.4-2.2-3.7-3.3c-1.3-1.1-2.6-2.2-3.9-3.3c-0.7-0.6-1.3-1.1-2.1-1.6
				c-0.7-0.5-1.4-1.1-2.1-1.6c-0.7-0.5-1.4-1.1-2.2-1.6c-0.7-0.6-1.5-1.1-2.3-1.6c-1.5-1-3.1-2.1-4.7-3.2c-0.8-0.6-1.6-1.1-2.4-1.6
				c-0.8-0.5-1.7-1-2.5-1.5c-1.7-1-3.4-2.1-5.2-3c-1.8-1-3.6-1.9-5.4-2.9c-1.9-0.9-3.7-1.8-5.6-2.7c-7.6-3.5-15.7-6.5-24.2-9
				c-8.5-2.4-17.2-4.1-26.1-5.1c-17.7-2.2-35.8-1.1-52.2,2.2c-8.2,1.7-16,4-23.2,6.5c-1.8,0.7-3.5,1.4-5.3,2.1
				c-0.9,0.3-1.7,0.7-2.6,1c-0.8,0.4-1.7,0.7-2.5,1.1c-1.6,0.7-3.3,1.5-4.8,2.2c-1.6,0.8-3.1,1.6-4.6,2.3
				c-11.9,6.1-21,12.7-27.1,17.6c-3.1,2.4-5.3,4.5-6.9,5.8c-1.6,1.4-2.4,2.1-2.4,2.1L112.5,90.6z"/>
		</g>
	</g>
</g>
<g id="XMLID_7_">
	<g id="XMLID_27_">
		<g id="XMLID_30_">
			<path id="XMLID_31_" class="st1" d="M340,204c0,0-0.8,0.7-2.2,2.2c-1.5,1.4-3.5,3.5-6.4,6c-5.6,5-14,11.8-25.1,18.2
				c-1.4,0.8-2.8,1.6-4.3,2.5c-1.5,0.8-3,1.5-4.6,2.3c-0.8,0.4-1.6,0.8-2.3,1.2c-0.8,0.4-1.6,0.7-2.4,1.1c-1.6,0.7-3.3,1.5-5,2.2
				c-6.8,2.8-14.2,5.3-22,7.4c-15.6,3.9-32.9,5.9-50,4.6c-8.6-0.6-17.1-1.8-25.3-3.7c-8.2-1.9-16.2-4.5-23.6-7.4
				c-1.9-0.8-3.7-1.6-5.5-2.3c-1.8-0.8-3.5-1.7-5.3-2.5c-1.8-0.8-3.4-1.7-5.1-2.6c-0.8-0.5-1.7-0.9-2.5-1.3
				c-0.8-0.4-1.6-0.9-2.4-1.4c-1.6-1-3.1-1.9-4.7-2.8c-0.8-0.5-1.5-0.9-2.2-1.4c-0.7-0.5-1.5-1-2.2-1.5c-0.7-0.5-1.4-1-2.1-1.4
				c-0.7-0.5-1.4-1-2.1-1.5c-1.3-1-2.6-2-3.9-3c-1.3-0.9-2.5-2-3.7-3c-1-0.8-2-1.7-2.9-2.5c-0.1-0.1-0.2-0.2-0.3-0.3
				c-0.2-0.2-0.4-0.3-0.6-0.5c-0.3-0.3-0.5-0.4-0.5-0.4l3.2-3.6c-3.6,0.3-7.4,0.5-11.2,0.6c0.1,3.7,0.3,7.5,0.6,11.4l3.2-3.6
				c0,0,0.2,0.2,0.5,0.4c0.2,0.1,0.4,0.3,0.6,0.5c0.1,0.1,0.2,0.2,0.4,0.3c1,0.8,2,1.7,3.1,2.6c1.2,1,2.5,2.1,3.8,3.1
				c1.3,1,2.7,2,4.1,3.1c0.7,0.5,1.4,1,2.1,1.5c0.7,0.5,1.5,1,2.2,1.5c0.7,0.5,1.5,1,2.3,1.5c0.8,0.5,1.5,1,2.3,1.5
				c1.6,1,3.2,2,4.8,2.9c0.8,0.5,1.7,1,2.5,1.4c0.9,0.5,1.7,0.9,2.6,1.4c1.7,0.9,3.5,1.9,5.3,2.7c1.8,0.9,3.6,1.8,5.5,2.6
				c1.9,0.8,3.8,1.6,5.7,2.4c7.8,3.1,16,5.7,24.6,7.7c8.6,1.9,17.4,3.2,26.3,3.8c17.8,1.3,35.8-0.7,52-4.8
				c8.1-2.1,15.8-4.8,22.9-7.7c1.7-0.8,3.5-1.6,5.2-2.3c0.8-0.4,1.7-0.7,2.5-1.2c0.8-0.4,1.6-0.8,2.4-1.2c1.6-0.8,3.2-1.6,4.7-2.4
				c1.5-0.9,3-1.7,4.4-2.6c11.6-6.7,20.3-13.8,26.1-19c3-2.5,5.1-4.7,6.6-6.2c1.5-1.5,2.3-2.2,2.3-2.2L340,204z"/>
		</g>
	</g>
</g>
</svg>
