<?xml version="1.0" encoding="utf-8"?>
<!-- Generator: Adobe Illustrator 19.0.0, SVG Export Plug-In . SVG Version: 6.00 Build 0)  -->
<svg version="1.1" xmlns="http://www.w3.org/2000/svg" xmlns:xlink="http://www.w3.org/1999/xlink" x="0px" y="0px"
	 viewBox="0 0 2267.7 708.7" style="enable-background:new 0 0 2267.7 708.7;" xml:space="preserve">
<style type="text/css">
	.st0{fill:#D4E9F0;}
	.st1{fill:#234563;}
	.st2{fill:#FFFFFF;stroke:#FFFFFF;stroke-miterlimit:10;}
	.st3{clip-path:url(#XMLID_141_);}
	.st4{fill:#EE9E2C;}
	.st5{fill:none;}
	.st6{fill:none;stroke:#FADBB2;stroke-miterlimit:10;}
	.st7{fill:#68BEE5;}
	.st8{opacity:0.97;fill:#68BEE5;}
</style>
<g id="background_1_">
	<g id="background">
		<rect id="XMLID_1_" class="st0" width="2267.7" height="708.7"/>
		<rect id="XMLID_13_" x="526" y="232" class="st0" width="1053.8" height="175.9"/>
	</g>
</g>
<g id="s_with_hand">
	<g id="XMLID_5_">
		<path id="XMLID_9_" class="st1" d="M452.7,232.8l-12.5,24.4c-6.3-1.6-11.7-2.5-16.1-2.9c-4.4-0.4-9,0.4-14,2.4
			c-11.7,4.6-15.8,11.2-12.4,19.8c2.4,6.2,12.2,9.2,29.3,9.2c17.1,0,30.3,2.1,39.5,6.5c9.2,4.4,15.8,11.5,19.6,21.3
			c4.5,11.4,3.8,23.3-2.2,35.5c-6,12.2-15.3,20.8-28,25.8c-19.3,7.6-38.6,4.9-58-8.1l18.3-19.8c11,4.6,20.8,5.2,29.4,1.8
			c6-2.3,10.5-6,13.7-11c3.2-5,3.9-9.7,2.2-14c-3-7.6-13.5-11.4-31.6-11.3c-18,0.1-31.3-1.8-39.7-5.6c-8.5-3.9-14.5-10.4-18.1-19.5
			c-4.5-11.3-3.9-22.5,1.6-33.4c5.6-10.9,14.8-18.9,27.7-24C414.4,224.8,431.5,225.8,452.7,232.8z"/>
	</g>
	<path id="XMLID_3_" class="st2" d="M245,0c-2.6,0.5,1.8,84.3,2,90.4c0.4,18.1,0.9,36.2,1.3,54.3c0.3,12.5-0.6,25.9,1,38.2
		c3.7,28.2,15.4,55.1,15.9,83.7c0.4,23.5-18.7,38.6-26.4,60c-1.5,4.3-2.8,9.2-0.8,13.3c2.3,4.7,20.9-15.7,23.3-18.3
		c5.4-5.7,10.7-11.4,16.1-17.1c-3.4,12-8.8,23.2-12.6,35.1c-3,9.1-4.4,19-1.3,28.1c2.1,0.3,4.3,0.5,6.4,0.8c0.7,0.1,1.5,0.2,2.2-0.1
		c0.8-0.3,1.4-0.9,2-1.6c12.9-14.5,18.3-31,25.2-48.8c-0.6,1.5,3.1,8.6,3.7,10.3c2.1,6.1,4.1,12.2,6.6,18.1
		c4.8,11.9,10.6,23.4,17.3,34.4c5.5-0.3,8.9-6.2,9.8-11.6c2.3-13.5-4.5-26.3-6.5-39.5c0,0-6.7-43.6-6.8-43.8
		c0.3,1.9,35.8,5,39.3,5.5c1.8,0.2,3.6,0.5,5.4,0.3c2-0.2,3.9-1,5.8-1.8c6.8-2.8,16.8-5,22.6-9.6c3-2.4,5.4-6,7.3-9.3
		c-1.9-2-5.7-3.2-8.6-2.8c-1,0.2-2,0.5-3,0.9c-9.7,3.6-19.7,9.9-29.7,6.3c-10.1-3.7-20.1-8-29.6-13c-0.4-0.2-0.9-0.5-1.2-0.9
		c-0.3-0.4-0.3-0.9-0.3-1.3c0.1-4.5,4.6-7.4,8.5-9.5c3.9-2,7.7-4.1,11.6-6.1c1.1-0.6,2.2-1.1,3.4-1.3c0.9-0.1,1.8,0.1,2.7,0.2
		c6.8,1.2,13.5,2.4,20.3,3.6l18.2-14.3c-12.4-4.5-24.8-9-37.2-13.5c-7.3-2.6-14.8-4.7-21-9.2c-13.1-9.6-26.2-19.2-39.2-28.9
		c-0.9-0.7-1.9-1.4-2.5-2.4c-0.9-1.4-1.1-3.1-1.3-4.8c-5.9-57.7-7.2-116.1-8.6-174.3C285.8,0,245,0,245,0z"/>
</g>
<g id="bigS">
	<g id="XMLID_14_">
		<defs>
			<rect id="XMLID_46_" x="0" y="-0.1" width="2267.7" height="708.7"/>
		</defs>
		<clipPath id="XMLID_141_">
			<use xlink:href="#XMLID_46_"  style="overflow:visible;"/>
		</clipPath>
		<g id="XMLID_119_" class="st3">
			<g id="XMLID_6_">
				<g id="XMLID_98_">
					<g id="XMLID_102_">
						<g id="XMLID_103_">
							<g id="XMLID_104_">
								<path id="XMLID_131_" class="st4" d="M1985.6,54.1C1986.3,54,1986.5,53.5,1985.6,54.1L1985.6,54.1z"/>
								<path id="XMLID_130_" class="st4" d="M1941.7,640.3c-0.2,0.3-0.2,0.4-0.4,0.7c0.5,1,0.9,2,1.2,2.7L1941.7,640.3z"/>
								<path id="XMLID_129_" class="st4" d="M1840.4,717.6c-0.3,0-0.5,0-0.8,0C1839.9,718.2,1840,718.8,1840.4,717.6z"/>
								<path id="XMLID_128_" class="st4" d="M1944.5,372.1c-0.3-0.9-0.6-1.3-1.1-1.6C1943.8,371,1944.1,371.4,1944.5,372.1z"/>
								<path id="XMLID_127_" class="st4" d="M2147.4,39.2c0,0-0.2,0-0.4,0c0.2,0.3,0.5,0.5,0.7,0.9L2147.4,39.2z"/>
								<path id="XMLID_126_" class="st4" d="M2145.2,40.3c-1.7-1.3,1-1.2,1.8-1.1c-1.7-2-3.9-2.7-6.2-2.8
									C2140.4,37.9,2144.6,38.9,2145.2,40.3z"/>
								<path id="XMLID_125_" class="st4" d="M2223,272.5l0-1.1C2223,271.8,2223,272.1,2223,272.5z"/>
								<path id="XMLID_124_" class="st4" d="M1876.3,406.7c-0.3-0.4-0.5-0.9-0.8-1.3C1875.6,406.1,1875.9,406.5,1876.3,406.7z"/>
								<path id="XMLID_123_" class="st4" d="M2248.3,231.8l-2.1-1.4C2247,231.2,2247.7,231.6,2248.3,231.8z"/>
								<path id="XMLID_121_" class="st4" d="M1942.5,643.7l0.3,1.3C1942.8,644.6,1942.7,644.2,1942.5,643.7z"/>
								<path id="XMLID_113_" class="st4" d="M1726.3,732.4c0-0.8-0.1-1.4-0.4-1.9c-0.1,0-0.2,0-0.3-0.1L1726.3,732.4z"/>
								<path id="XMLID_112_" class="st4" d="M1596.1,339.6c-0.2-0.2-0.5-0.4-0.8-0.6l-0.5,2.5
									C1595.6,340.8,1596,340.1,1596.1,339.6z"/>
								<path id="XMLID_111_" class="st4" d="M1594.3,664.1c-0.3,0.1-0.7,0.1-0.9,0.4c0.7,1.1,2.3,2.8,4.7,4.7
									c2.3,1.9,5.3,4.2,8.8,6.6l2.1-2.2c0,0-0.9-0.6-2.3-1.4c-1.4-0.8-3.3-2-5.1-3.2c-1.8-1.2-3.7-2.4-5.1-3.3
									C1595.2,664.7,1594.3,664.1,1594.3,664.1z"/>
								<path id="XMLID_110_" class="st4" d="M1574.6,514.1c0,0-0.8,3.1-1.5,6.2c-0.6,3.2-1.1,6.4-1.1,6.4
									c-3.7-8.6-5.4-16.5-6.7-23.7c-0.2-1.8-0.4-3.6-0.6-5.3c-0.2-1.7-0.4-3.4-0.5-5.1c-0.1-1.7-0.1-3.3-0.2-4.9
									c0-0.8-0.1-1.6-0.1-2.4c0-0.8,0-1.6,0-2.4c0.1-3.2,0-6.3,0.2-9.4c0.1-1.6,0.2-3.1,0.2-4.7l0-1.2l0.1-1.2
									c0.1-0.8,0.1-1.6,0.2-2.4c0.1-1.6,0.2-3.2,0.2-4.9c0.1-1.7,0.3-3.3,0.4-5.1c0-0.9,0.1-1.7,0.1-2.6c0-0.4,0-0.9,0-1.3
									c0-0.4,0.1-0.9,0.1-1.3c0.2-1.8,0.3-3.7,0.4-5.6l0.9,1.9c0.6-1,0.2-2.1-0.2-3.9c-0.3-1.7-0.8-4.2-0.2-7.9
									c0.6-3.7,2.2-8.6,6.2-14.8c2-3.1,4.7-6.5,8.1-10c3.4-3.5,7.7-7.2,12.9-10.7l0.5,0.4c0.9-1.4,0-2.1,3.2-3.7c0,0-2,1-4,2.1
									c-2,1.1-3.9,2.2-3.9,2.2c0.4-1.2,0.8-2.5,1.1-3.8c0.3-1.3,0.7-2.6,1.1-3.9c0.9-2.6,2.1-5.4,4.3-8.1c1.5-0.7,2.7-0.1,3.5,0.4
									c0,0,0.7-0.8,1.7-2c1-1.2,2.4-2.7,3.8-4.2c1.4-1.5,2.9-3,4-4c1.1-1.1,1.9-1.8,1.9-1.8s1.6,0,3.2,0c0.8,0,1.6,0,2.2,0
									c0.6,0,1,0,1,0c1.3-2.3,0.3-4.8,0.7-7.2c0.2-1.2,0.8-2.4,2.2-3.6c0.7-0.5,1.6-1.1,2.8-1.6c1.2-0.5,2.6-0.9,4.4-1.3
									c-3.6-1.2-2.7-2.8-1-4.3c1.6-1.5,3.9-2.9,2.5-3.7c1,0.3,2.9,0.5,4.4,0.9c3.5-2.1,8.7-4.9,13.5-7.4c1.2-0.6,2.4-1.3,3.5-1.8
									c1.1-0.6,2.2-1.1,3.1-1.7c1.9-1.1,3.4-2.1,4.2-3c0,0-0.5-0.1-1.5-0.2c-1-0.1-2.4-0.3-4.1-0.5c-3.5-0.3-8.3-0.7-13.6-0.7
									c-5.3,0-11.1,0.3-16.3,0.8c-2.7,0.3-5.1,0.5-7.3,0.7c-2.2,0.2-4.1,0.3-5.6,0.4c6.3-2.9,7-3.4,5.7-3.4
									c-1.3,0-4.6,0.8-6.3,0.7l0,1.7c-1.9,0.8-3.5,1.3-4.9,1.5c-1.3,0.3-2.4,0.3-3.4,0.2c-1,0-1.9-0.1-2.8-0.1
									c-0.9,0-1.8,0.2-2.8,0.6c0.2,0.2,0.5,0.4,0.8,0.7l0.2-0.7c0.7,0.3,0.8,0.8,0.6,1.3c0.5,0.6,0.6,1.3-1.4,2.5l0.1-0.6
									c-1.3,1.3-3.1,2.8-5,4.1c-1.8,1.4-3.6,2.7-4.7,3.5l-2-2.2c-0.5,4.3-9.8,9.8-19.2,16.6c-2.4,1.7-4.7,3.4-7,5.2
									c-2.2,1.8-4.5,3.5-6.4,5.2c-1,0.8-1.9,1.7-2.7,2.4c-0.8,0.8-1.6,1.5-2.3,2.2c-1.4,1.4-2.5,2.6-3,3.6c-2,1.5-3.6,3.4-4.9,5.5
									c-1.4,2.2-2.4,4.6-3.4,7.1c-2,5.1-3.7,10.5-6.6,15.6c-3.7,8.4-5.2,10.4-6.9,11.1c-1.6,0.7-3.1,0.3-5.6,4.6
									c-0.6,1.4-1,2.4-1.2,3.1c-0.2,0.7-0.2,1.2-0.2,1.4c0.1,0.5,0.8,0.1,1.5-0.5c1.4-1.2,3.3-3.1,2.9-0.8c0,0-1.8,3.2-3.6,6.4
									c-0.9,1.6-1.8,3.2-2.4,4.5c-0.6,1.2-1,2.1-1,2.1c0.1-1,0.2-1.9,0.2-2.5c0.1-0.7,0.1-1.2,0-1.6c-0.1-0.8-0.3-1-0.7-0.9
									c-0.7,0.1-1.8,1.5-2.5,2.1c-0.6,3.1-1.6,6.5-2.7,10.1c-0.6,1.8-1,3.6-1.4,5.4c-0.4,1.8-0.8,3.6-1.1,5.4
									c-0.7,3.5-0.9,6.7-0.7,9.4c0.2,2.6,1,4.6,2.4,5.6c-0.7,4.2-1.2,7.4-1.8,9.9c-0.3,1.3-0.5,2.4-0.8,3.3
									c-0.3,1-0.4,1.8-0.6,2.6c-0.7,3.1-1.3,5-1.1,8.7c0.9-2.6,1.4-7.5,2.7-7.6c-2.1,7,0.9,3.2,1.3,0.4c0.4,1.3,0.7,3,0.7,5.2
									c0,1.1,0,2.3,0,3.5c0,1.3,0.1,2.6,0.1,4c0,2.8-0.1,5.8-0.2,9c0.1,3.1,0.1,6.4,0.2,9.5c0,3.2,0.4,6.3,0.6,9.1
									c0.3,2.9,0.6,5.5,1.2,7.8c1.1,4.5,2.4,7.4,4.2,7.4l-1.1,0.4c2.7,0.4,4.9-0.8,7-1.2c1.1-0.2,2.1-0.3,3.2,0
									c1,0.4,2.2,1.1,3.4,2.5l-0.4,5.1c0,0,1.1,1.4,2.2,2.9c0.6,0.7,1.1,1.4,1.6,2c0.4,0.5,0.7,0.9,0.7,0.9
									c0.4,4.9-1.7,3.3-2.3,3.6c0.8,1.2,1.6,2.5,2.4,3.9c0.8,1.4,1.4,2.8,2.2,4.3c1.5,2.9,3,6.1,4.4,9.5c1.5,3.3,3.1,6.6,4.6,9.9
									c0.7,1.7,1.6,3.3,2.5,4.9c0.9,1.6,1.7,3.1,2.6,4.7c0,0,0.8-5,1.7-9.8c0.4-2.4,1-4.8,1.4-6.6c0.4-1.8,0.7-3,0.7-3
									c0.4,1.4,0.7,3,1.2,4.6c0.4,1.7,1,3.3,1.5,5.1c0.6,1.7,1.1,3.5,1.7,5.3c0.3,0.9,0.6,1.8,0.9,2.6c0.4,0.8,0.7,1.6,1.1,2.4
									c1.4,3.2,2.9,6,4.3,8c1.5,1.9,2.9,3,4.1,2.8c0,0,0.2,2.1,0.4,4.1c0.3,2,0.5,4.1,0.5,4.1c0.5,1.5,1,2.8,1.6,4
									c0.5,1.2,1.1,2.2,1.6,3.1c1,1.9,2,3.3,2.9,4.3c1.8,2.1,3.4,2.8,4.9,3c2.8,0.5,4.9-0.8,7.3,3.3c0,0,0.3,0.7,0.8,1.8
									c0.5,1.1,1.1,2.5,1.8,4c1.3,2.9,2.7,5.7,2.7,5.7s-2.1-2-4.3-4c-1.1-1-2.1-2-2.9-2.8c-0.8-0.8-1.3-1.3-1.3-1.3
									c0.8,1.2,1.6,2.4,2.3,3.5c0.7,1.1,1.4,2.1,2.1,3c1.3,1.9,2.4,3.7,3.5,5.3c2.2,3.3,4.1,6.6,6.8,10.8c0,0,0.1,0,0.2,0
									c-0.4-0.6-0.6-1-0.5-1.3l1.4,0.9c2.7-1,8.5,1.5,15.1,6.4c2.3,1.8,4.6,3.4,7.1,4.7c2.4,1.4,4.9,2.8,7.6,4.3
									c1.3,0.8,2.7,1.6,4,2.5c1.4,0.9,2.8,1.8,4.3,2.9c3,2.2,6.2,4.8,9.8,8.2c0,0,1.6-0.6,3.2-1.2c1.6-0.6,3.2-1.2,3.2-1.2
									s0.7,0.6,1.8,1.4c0.5,0.4,1.1,0.9,1.8,1.4c0.7,0.5,1.4,1,2.1,1.6c1.4,1.1,2.9,2.1,4,2.9c1.1,0.8,1.8,1.3,1.8,1.3l-1.6,3.7
									c-6.4-2.9-15.7-6.9-25.2-11.7c-9.5-4.8-19.1-10.4-26.5-15.6l-1.3,1.3c8.8,6.3,20.2,11.1,26.2,14.9c1.3,1.2,3.4,3.7,4.4,5.9
									c1,2.2,0.7,4-2.8,3.6c0,0,2-0.1,3.9-0.1c1,0,1.9-0.1,2.7-0.1c0.7,0,1.2-0.1,1.2-0.1c2.1,1,4,1.9,5.8,2.8
									c1.8,0.8,3.6,1.6,5.2,2.3c3.2,1.5,6.2,2.6,8.8,3.7c2.6,1.1,5.1,2.1,7.4,3c2.3,0.9,4.5,1.8,6.7,2.7c4.4,1.8,8.9,3.6,14.4,5.9
									c2.8,1.1,6,2.3,9.6,3.6c3.6,1.3,7.7,2.8,12.4,4.2l-3-2.6c7.9,0.4,15.6,0.3,17.4,3.8c11.8,1.8,23.9,3.2,35.4,4.1
									c11.4,1,22.1,1.5,30.7,2.6c0,0,0.7-1.3,1.4-2.7c0.7-1.3,1.3-2.7,1.3-2.7c2.6-0.4,6.3,0.8,9.3,1c3,0.3,5.6-0.2,5.9-3.7
									c0,0,0.6-0.3,1.6-0.7c0.9-0.5,2.2-1.1,3.4-1.8c2.4-1.3,4.9-2.6,4.9-2.6c1.7-0.4,3.1-1,4.5-1.7c1.4-0.7,2.7-1.3,4-2
									c1.3-0.6,2.7-1.2,4.3-1.6c1.6-0.5,3.3-0.8,5.4-1l0,0c0,0,0,0,0,0c0.5,0,1.1-0.1,1.6-0.1c-0.1-0.1-0.1-0.2-0.2-0.3
									c3.9-1,5.7-1.9,6.5-2.6c0.8-0.7,0.6-1.1,0.6-1.6c-0.1-0.5-0.1-1,1-1.7c1.1-0.7,3.3-1.5,7.6-3.1c3.4,0.1,4.1-2,5-4.5
									c0.9-2.5,1.8-5.5,5.8-7.3c0,0,2.8,0.3,5.5,0.5c2.8,0.2,5.6,0.3,5.6,0.3c4-1.4,6.7-3.2,9-5c1.1-0.9,2.2-1.8,3.2-2.9
									c0.9-1,1.8-2.1,2.7-3.3c1.8-2.3,3.7-4.7,6.2-7.8c1.2-1.5,2.6-3.1,4.2-4.8c1.5-1.8,3.3-3.7,5.4-5.7c2.4-1.5,4.6-2.8,6.7-3.7
									c2-0.8,3.9-1.2,5.4-1.1c3,0.2,4.8,2.3,4.1,6.9c0.3-1.5,0.6-2.8,0.8-3.8c0.2-1,0.3-1.9,0.4-2.5c0.2-1.4,0.3-2.2,0.6-3
									c0.3-0.8,0.7-1.7,1.5-3.1c0.4-0.7,0.9-1.6,1.4-2.7c0.5-1.1,1.2-2.4,1.9-4c3.3-0.2,2.9,1.3,2.8,5.2c5-4.2,5.7-6.1,5.8-7.9
									c0.1-1.8-0.3-3.5,2.4-7.4c-1.2-2.4-3.1-5.3-4.5-7.9c-1.4-2.6-2.3-4.9-1.7-6.2l-3.1,2.1c2.8-9.2,6.3-18.5,12.8-27.2l2,1.3
									c0,0,0.9-2.7,1.7-5.5c0.8-2.8,1.5-5.5,1.5-5.5l3.1,0.4c0,0,0.3-1,0.8-2.5c0.5-1.5,1-3.5,1.5-5.4c0.5-2,1.1-4,1.5-5.4
									c0.3-1.5,0.6-2.5,0.6-2.5l-1.4,1.9c0.3-1.9,1.2-5.9,2.2-10.3c0.9-4.4,2.3-9.1,3.8-12.4l1.6,0.6c4.8-9.4,5.6-18.8,5.4-28.5
									c-0.1-2.4-0.2-4.9-0.4-7.4c-0.1-2.5-0.5-5-0.7-7.6c-0.1-1.3-0.2-2.6-0.3-3.9c-0.1-1.3-0.2-2.7-0.4-4
									c-0.3-2.7-0.3-5.5-0.5-8.4c0,0,0.9,0.7,1.8,1.5c0.9,0.8,1.8,1.5,1.8,1.5c3.3-8.1-5.4-2.1-4-11.5l4.3-0.7
									c-3.1-4-3-6.7-1.9-9.1c1.1-2.5,3.1-4.7,3.8-7.7l-5.3,3.3c0,0,0-2.7,0-5.4c0-1.4-0.1-2.7-0.1-3.7c0-1,0-1.7,0-1.7
									c0.1-6,1.5-8,3.4-8.5c1.9-0.4,4.2,0.8,5.8,1.5c0,0-1.4-1.8-2.9-3.7c-1.4-1.8-2.9-3.6-2.9-3.6l4.6-2.5
									c-3.4-2.4-3.5-3.8-3.3-6c0.1-1.1,0.2-2.3,0-3.8c-0.2-1.5-0.8-3.4-2.1-5.7c1.6-1.3,3.3,1.1,3.3-2.6c0,0-0.2-0.2-0.5-0.6
									c-0.3-0.4-0.7-1-1.2-1.7c-1-1.4-2.4-3.2-3.7-5c-1.3-1.8-2.7-3.6-3.8-4.9c-1-1.3-1.7-2.2-1.7-2.2s1.4,2.2,2.8,4.4
									c1.4,2.2,2.7,4.5,2.7,4.5l-7.3,0.6c-2-2.2-3.1-4.1-3.9-5.8c-0.7-1.8-0.9-3.4-1-5c-0.2-3.1,0-6-2-9.2l3.5,4.2
									c-2.5-5.5-3.1-8.5-3.2-11.1c0-2.6,0.6-4.7,0.3-8.1c-0.6,2.4-1.6,5.9-4,1.8c-1.5-3.2,1.8-2.6,1.6-6
									c-4.9,0.8-9.9-6.2-10.3-13.9c0.7-0.1,1.4-0.2,1.9,0.1c-1.4-1.5-2.9-2-2.9-5.5l5.7,0l-7-4.2c-0.1-4.4-5.8-8.8-2.2-9.5
									l1.8,1.9l-9.6-29.6l3.9-1.9c-6.6-0.8-3.5-16.2-10.1-12.8c0.5-1.7,0.1-3.7-0.6-5.9c-0.7-2.2-1.7-4.4-2.5-6.5
									c-1.6-4.1-2.2-7.3,2.3-7c-2.7-9.2-6.5-15.5-9.8-22.5c-3.3-7-6.3-14.7-6.3-25.7c1.4-2.2,2.1-5.1,2.4-8.4
									c0.4-3.3,0.2-7,0.1-10.7c-0.1-1.9-0.3-3.8-0.3-5.8c-0.1-1.9-0.3-3.9-0.3-5.8c-0.1-1.9-0.1-3.8-0.2-5.6
									c-0.1-1.8,0.1-3.6,0.2-5.2c-1.4-12.9-1.7-23.6-1.1-34.3c0.6-10.7,2.1-21.5,5.8-34c3.7-2.8,6.4-6.2,8.5-10.2
									c1.1-1.9,2.1-4,3-6.2c1-2.1,1.9-4.3,2.8-6.5c1-2.2,2-4.3,3-6.5c1.1-2.1,2.3-4.1,3.5-6.1c2.6-3.8,5.6-7.1,9.4-9
									c0,0,0-1.5,0.1-3c0.1-1.5,0.2-3,0.2-3c6.1-1.6,10.8-6.4,16.6-11.2c5.8-4.8,12.6-9.6,20.9-10.6c1.3-1.7,2.3-2.8,3.1-3.7
									c0.8-0.8,1.4-1.3,1.8-1.6c-0.7,0.2-2,0-3.5-2.1c2.4-0.3,5.6-1.8,8.2-2.8c2.7-0.8,5-1.1,5.6,1.4l-0.9,0.9
									c0.3,1.2,1.2,1.3,2.5,0.9c1.3-0.4,2.9-1.4,4.7-2.5c1.8-1,3.8-2.1,5.8-2.8c2-0.6,3.9-0.9,5.4-0.3c0,0-1.1-1.1-2.1-2.1
									c-1.1-1-2.2-2.1-2.2-2.1s0.5-0.1,1.4-0.3c0.8-0.2,1.9-0.4,3-0.6c1.1-0.2,2.2-0.4,3-0.6c0.8-0.2,1.4-0.2,1.4-0.2
									s-0.5,0.4-1,0.8c-0.5,0.4-1,0.8-1,0.8c8.4-5.5,16.5-8.4,24.2-9.9c7.7-1.5,14.8-1.6,21.9-1.4c7,0.2,13.9,0.8,21.4,0.9
									c7.5,0.1,15.4-0.4,25-1.9c-2.8,2.6-0.9,2,1.7,1.7c2.6-0.4,5.8-0.5,5.5,2.7c3.9,4.7,8,5.1,12.3,4.3c2.2-0.4,4.3-1,6.5-1.6
									c2.2-0.5,4.3-1,6.3-1c0.1-0.3,0.3-0.6,0.8-1c0,0,0.8,0.3,2,0.7c1.2,0.4,2.8,1,4.3,1.6c3.2,1.2,6.2,2.5,6.2,2.5
									c-5.1,2.5-2.3,1.7,0.7,0.8c3-0.9,6.1-1.7,1.4,0.1c7.6,4.5,15.7,8.8,23.9,13.6c4.1,2.4,8.1,4.9,12.2,7.5
									c4,2.7,8,5.4,11.9,8.4c7.7,5.9,14.9,12.6,21,20c6.1,7.4,11,15.5,14.3,24l1.1-2.3c0.2,0.5,0.5,1.1,0.8,1.6
									c0.3,0.5,0.5,1.1,0.8,1.7c0.5,1.1,1.1,2.2,1.7,3.4c0.6,1.1,1.1,2.3,1.6,3.5c0.5,1.2,1.1,2.3,1.5,3.5c0.8,2.4,1.7,4.7,2.1,7
									c0.4,2.3,0.5,4.4,0.2,6.4c-0.4,2-0.1,3.8,0.7,5.5c0.7,1.8,1.7,3.4,2.9,5c1.2,1.6,2.4,3,3.3,4.2c1,1.2,1.7,2.3,1.9,3
									c1.1,2,1.5,4,1.5,5.8c0,0.9-0.1,1.8-0.3,2.6c-0.2,0.8-0.5,1.5-0.8,2.2c-1.2,2.5-2.8,3.5-2.7,1.8c0.6,4.3,2.6,8.6,3.9,13.4
									c0.2,0.6,0.3,1.2,0.5,1.8c0.1,0.6,0.2,1.3,0.3,1.9c0.2,1.3,0.3,2.6,0.3,4c0,1.4-0.2,2.7-0.5,4.2c-0.3,1.4-0.7,2.9-1.4,4.3
									c-1.9,0.8-2.8,3.2-3.3,6.6c-0.3,1.7-0.5,3.5-0.6,5.5c-0.2,2-0.4,4-0.6,6.1c-0.8,8.2-2.4,16-6,14.7l0.5,0.4
									c-5.5,6.4-8.1,13.7-11.3,21.1c-3.1,7.4-6.9,15.1-14.3,20.5c0,0-0.2-0.6-0.3-1.4c0,0,0,0.7-0.2,1.8c-0.1,1.2-0.3,2.8-0.5,4.8
									c-0.2,2-0.5,4.3-0.9,6.9c-0.2,1.3-0.4,2.6-0.6,3.9c-0.3,1.3-0.5,2.7-0.8,4c-0.3,1.4-0.6,2.7-0.8,4.1
									c-0.3,1.3-0.6,2.6-0.9,3.9c-0.7,2.5-1.2,5-1.9,7c-1.3,4.1-2.1,6.9-2.1,6.9s6.3,2.9,12.9,5.5c1.7,0.6,3.3,1.3,4.9,1.9
									c1.6,0.6,3,1.1,4.3,1.6c2.5,0.9,4.2,1.5,4.2,1.5s0.7-0.2,1.8-0.5c1.1-0.4,2.8-0.8,4.8-1.5c2-0.7,4.3-1.5,6.8-2.3
									c2.5-0.9,5.1-1.9,7.7-3c1.3-0.5,2.7-1.1,4-1.6c1.3-0.6,2.6-1.1,3.8-1.7c2.4-1.1,4.8-2.1,6.7-3.1c3.9-2,6.5-3.3,6.5-3.3
									s0.3-0.4,0.7-1.1c0.5-0.7,1.1-1.7,2-3.1c0.8-1.3,1.9-2.9,3-4.8c1.1-1.9,2.4-4,3.7-6.3c5.3-9.3,11.7-22.3,16.7-35.8
									c0.7-1.7,1.2-3.4,1.8-5.1c0.6-1.7,1.1-3.4,1.7-5.1c1.1-3.4,2-6.8,2.9-10c0.8-3.3,1.6-6.5,2.3-9.5c0.6-3.1,1.2-5.9,1.7-8.6
									c0.5-2.7,0.8-5.2,1.2-7.4c0.2-1.1,0.3-2.1,0.5-3.1c0.1-1,0.2-1.8,0.3-2.6c0.3-3.2,0.5-5,0.5-5s0.1-0.4,0.2-1
									c0.2-0.7,0.4-1.6,0.6-2.9c0.2-1.3,0.5-2.8,0.9-4.5c0.3-1.7,0.7-3.7,1-5.9c1.4-8.7,2.4-20.4,2.5-32.2c0-11.9-1-23.8-2.4-32.8
									c-0.3-2.3-0.7-4.3-1-6.1c-0.3-1.8-0.7-3.4-0.9-4.7c-0.2-1.3-0.5-2.3-0.6-3c-0.2-0.7-0.3-1.1-0.3-1.1s-0.3-0.9-0.9-2.5
									c-0.3-0.8-0.6-1.8-1-3c-0.4-1.2-0.9-2.6-1.5-4.1c-1.2-3-2.6-6.7-4.6-10.9c-1-2.1-1.9-4.3-3.1-6.6c-1.2-2.3-2.4-4.7-3.7-7.2
									c-5.5-9.9-12.6-21.1-21.6-31.7c-4.4-5.4-9.4-10.6-14.5-15.7c-5.2-5.1-10.7-9.9-16.3-14.4c-11.3-9-23.3-16.8-35-23.1
									c-5.8-3.2-11.5-5.9-16.9-8.4c-5.5-2.4-10.7-4.6-15.5-6.4c-9.7-3.6-17.9-6.2-23.6-7.7c-2.9-0.8-5.1-1.4-6.7-1.8
									c-1.5-0.4-2.4-0.6-2.4-0.6s-1,0.1-2.6,0.3c-1.5,0.2-3.6,0.4-5.6,0.7c-4.1,0.6-8.1,1.2-8.1,1.2c-9.7-4.6-20.8-7.4-32.4-8.9
									c-11.7-1.5-23.8-1.6-36-0.9c-12.2,0.7-24.4,2.2-36.4,3.9c-12,1.7-23.8,3.5-35.4,4.9l0.4,5c-6.1,1.9-9.2,2.1-11.1,1.9
									c-2-0.2-2.8-1-4.5-0.9c-14.3,5-28.4,11.3-41.9,19c-6.7,3.9-13.4,8-19.7,12.6c-6.4,4.6-12.6,9.4-18.5,14.7l-2.2,2l-2.2,2
									c-1.4,1.4-2.9,2.7-4.3,4.1c-2.8,2.8-5.6,5.7-8.2,8.6c-2.7,2.9-5.2,6-7.8,9.1c-2.4,3.2-4.9,6.3-7.2,9.5
									c-9.2,12.9-16.8,26.6-22.9,40.7c-6.1,14-10.7,28.4-14.2,42.7c-3.4,14.3-5.6,28.6-6.9,42.8c-1.3,14.2-1.6,28.1-1.1,41.9
									c0.5,13.9,1.8,27.3,3.5,40.3c-0.2,1.3-0.2,2.9-0.1,4.8c0.1,1.8,0.4,3.9,0.7,6c0.2,1.1,0.3,2.2,0.5,3.4
									c0.2,1.1,0.4,2.3,0.7,3.5c0.5,2.3,1,4.8,1.5,7.1c0.5,2.4,1.1,4.7,1.6,7c0.5,2.3,1,4.4,1.4,6.3c0.8,4,1.2,7.2,1,9.3
									c7.7,14.7,14.6,29.3,20.7,43.9c6.1,14.5,11.4,28.9,16,42.7l-0.9-0.8c0,0,1.4,3.1,2.7,6.2c1.3,3.1,2.7,6.2,2.7,6.2
									c-0.2,0.7-0.7,0.9-1.2,0.6c4.5,6.4,7.6,15.7,9.5,25.3c2,9.7,2.8,19.7,3.5,28.2l-0.7-0.9c1.2,6.1,2.1,12,2.9,18
									c0.7,5.9,1.3,11.7,1.6,17.5c0.6,11.6,0.4,23-0.8,34.2c-1.2,11.2-3.5,22.1-6.7,32.6c-3.2,10.5-7.5,20.5-12.8,29.8
									c-2.6,4.7-5.6,9.1-8.7,13.5c-0.8,1.1-1.6,2.1-2.5,3.1c-0.8,1-1.6,2.1-2.5,3.1c-1.8,2-3.4,4.1-5.3,5.9l-2.8,2.9l-2.9,2.7
									c-1.9,1.9-4,3.5-6,5.2c-1,0.9-2.1,1.6-3.2,2.4l-3.2,2.4l-3.4,2.2c-1.1,0.7-2.2,1.5-3.4,2.2c-9.2,5.6-19.2,10-29.9,13.2
									c-1.3,0.5-2.7,0.8-4,1.1l-4.1,1c-2.7,0.6-5.5,1.1-8.3,1.7l-3.9,0.5c-0.7,0.1-1.3,0.2-2,0.3l-2,0.2c-1.3,0.1-2.6,0.2-4,0.3
									l-4,0.1c-0.6-0.1-1.3-0.1-1.9-0.2l-1.9-0.2c-1.3-0.1-2.5-0.3-3.8-0.4c-1.3-0.2-2.6-0.3-3.9-0.4l-1.9-0.2l-1.9-0.2
									c-1.3-0.2-2.6-0.3-3.9-0.4c-1.3-0.2-2.6-0.3-4-0.5c-2.6-0.2-5.3-0.8-8-1.1c-1.4-0.2-2.7-0.4-4.1-0.7l-2.1-0.3
									c-0.7-0.1-1.4-0.3-2.1-0.4c-1.4-0.2-2.8-0.5-4.2-0.7c-1.4-0.3-2.8-0.6-4.2-0.9l-2.1-0.4l-2.1-0.5c-1.4-0.3-2.8-0.7-4.3-1
									c-1.4-0.4-2.9-0.8-4.3-1.1c-0.7-0.2-1.4-0.4-2.2-0.6l-2.1-0.6c-5.8-1.6-11.5-3.7-17.2-6c-5.7-2.3-11.4-5-16.9-8
									c-11-6.1-21.3-13.7-30-22.8c-0.3-0.6-0.8-1.4-1.6-2.4c-0.8-1-1.8-2.2-3.1-3.5c-2.5-2.6-5.7-5.9-9.5-9.8
									c-7.4-7.7-16.1-17.6-23.4-28.1c-7.4-10.6-13.6-22.1-17.8-31.4C1578.1,523.2,1575.7,516,1574.6,514.1z"/>
								<path id="XMLID_109_" class="st4" d="M1599.5,383.4l-0.2,0.3C1600.8,385.1,1600.6,384.2,1599.5,383.4z"/>
								<path id="XMLID_108_" class="st4" d="M1544.6,601.8c-0.1-0.3-0.3-0.5-0.4-0.8l-0.7,4.4L1544.6,601.8z"/>
								<path id="XMLID_107_" class="st4" d="M1509,431.9c-1.2,3.9-1.7,6-1.8,7c0,1,0.4,0.9,0.9,0.4
									C1508.8,436.4,1509.2,433.9,1509,431.9z"/>
								<path id="XMLID_106_" class="st4" d="M1634.1,352.8c1.4-0.6,1.7-1,1.4-1.4c-0.3-0.4-1.3-0.7-2.4-0.9
									c-1.3,0.8-2.5,1.5-3.3,1.9c-0.8,0.5-1.2,0.8-1.2,0.8C1630.3,352.8,1632.4,353.1,1634.1,352.8z"/>
								<path id="XMLID_105_" class="st4" d="M1608.5,334.4l0.1-2C1606.9,333.8,1607.4,334.3,1608.5,334.4z"/>
							</g>
						</g>
					</g>
				</g>
			</g>
		</g>
		<g id="XMLID_47_" class="st3">
			<rect id="XMLID_50_" x="484.4" y="-350.3" class="st5" width="1120" height="1164"/>
		</g>
		<g id="XMLID_4_" class="st3">
			<g id="XMLID_26_">
				<path id="XMLID_35_" class="st6" d="M101,3"/>
			</g>
		</g>
	</g>
</g>
<g id="pizzle">
	<g id="XMLID_8_">
		<path id="XMLID_28_" class="st7" d="M1229.5,397.3c-0.2,2.8-0.7,5.5-1.6,8.5c4.5,0.2,8.9,0.2,13.4,0.2c8.3,0,16.6,0,24.8,0
			c10.4,0,20.8,0,31.2,0c10.3,0,20.7,0,31,0c8.1,0,16.2,0,24.2,0c16.9,0,33.9,0,50.8,0.1c0.4,0,8.2,0.1,8.2,0
			c0.5-4.5,0.3-9.3,0.3-13.9c0-6.9,0-13.9,0-20.8c0-13.9,0-27.7,0-41.6c0-6.9,0-13.9,0-20.8c0-12.4-0.1-24.9,0-37.3
			c0-6.4,0.1-12.7,0.1-19.1c0-3.3,0.2-6.7,0.2-10c0-2.4-1.2-5-0.9-7.4c0.2-1.7,1.7-3.1,1.7-4.9V230h-76.7c-0.7-5,5-11,6.1-16.3
			c2.3-11.1,1.3-29.8-11.3-34.8c-3.5-1.4-7.3-1.3-11.1-0.6c-1.3,0.2-2.5,0.5-3.7,0.8c-5.5,1.4-11.9,3.3-15.2,8.2
			c-2.7,4-2.8,9.1-2.8,13.9c0,4.4-0.1,8.9,0.6,13.2c0.7,4.8,3.4,5.6,5.7,9.6c1.2,2.1,2,4,1.2,7c-8.5,0-17,0-25.5,0
			c-12.8,0-25.5-0.2-38.3-0.1c-3.5,0-6.9,0.1-10.4,0.1c0.3,0-1.4,3.1-1.6,3.3c-0.8,0.9-1.4,1.6-1.8,2.8c-1,2.6-1.3,5.3-1.5,8
			c-0.3,5.5,0.3,11-0.5,16.5c-1.2,9-2.6,17.9-2.6,26.9c0,0,2.8,23.3,22,19.5c8.6-1.7,27.5-13.1,32.9-1.5c1.3,2.9,3.3,3.8,3.3,7
			c0,4.4-0.3,8.8-0.8,13.2c-0.5,4.8-3.9,5.4-7.4,8.8c-2.8,2.7-4.3,8.2-8.1,9.2c-3.2,0.9-6.6,1.7-9.9,0.9c-3-0.7-5.5-2.7-8.2-4.1
			c-4.9-2.6-10.8-3.2-16.2-1.6c-0.7,0.2-1.4,0.4-1.9,1c-0.8,0.9-0.9,2.2-0.9,3.4c0,7.2-1.9,15.6,0,22.5c1.8,6.7,1.9,13.8,1.7,20.7
			c-0.2,5.4-1.2,11.4-0.2,16.7c0.1,0.6,0.2,0.8-0.3,1.8h182.4c-0.3-1-0.5-2.3-0.7-3.4"/>
		<path id="XMLID_29_" class="st1" d="M1228.8,406c0.3,0,0.4,0,0.4,0c1.6-0.8,1-13.1,1.2-14.9c0.6-8.6-0.7-16.4-1.9-24.9
			c-1-7.3-1.8-19.6,5.2-24.4c7.4-5.1,16.3,3,23.8,3.9c3.9,0.5,8.6,0.1,12.3-1.5c5.6-2.4,9.1-8.4,10.1-14.4c0.7-4.1,2.4-8.7,2.2-12.8
			c-0.1-1.7-0.4-3.3-0.8-4.9c-0.7-3.2,0.8-5.3-1-8c-1.8-2.7-7-5.9-10.2-5.5c-1.3,0.1-2.4,0.6-3.7,1c-2.2,0.6-4.5,0.7-6.7,1.4
			c-7,2.2-13.7,5.8-21.4,3.5c-5.8-1.7-9.3-7.8-10.2-13.7c-1.3-8.5,0.2-17.8,0.4-26.4c0.2-6.6,0.4-13.2,0.4-19.9
			c0.1-4.6,0.6-9.4,2.9-13.4c-13.2-0.4-26.4-0.1-39.6-0.1c-10.8,0-21.6,0-32.4,0.1c-10.1,0-20.2,0-30.3,0c-9.5,0-19,0-28.5,0
			c-10.1,0-20.2,0-30.3,0c-4.7,0-9.4,0-14.1,0c-1.1,2-1.5,3.5-1.6,6.1c-0.1,2.6-0.2,5.1-0.2,7.7c-0.1,5.3-0.2,10.5,0,15.8
			c0.4,9.2-1.7,20.7,0.8,29.5c0.9,3,2.7,8.1,5.5,9.5c4.9,2.4,8.6,1,12.5,0c7-1.9,17.2-8.2,22.7-0.2c2.2,3.2,2.7,7.2,2.6,11.1
			c-0.2,10.3-8.6,19-19.4,16.2c-9.4-2.4-21.5-14-26,1.6c-6.3,21.8-5.5,42.8-3,65.1c0.5,4.3,1.2,8.3,2.3,12.5
			C1052.8,405.9,1219.4,406,1228.8,406z"/>
		<path id="XMLID_32_" class="st7" d="M875.1,392.1c-0.7,4-2.7,7.2-0.8,11.1c0.4,0.8,0.7,1.8,0.7,2.8h178c0.6-3,0.8-6.4,0.9-9.7
			c0-11.3-0.7-22.7-1.4-34c-0.7-11.1-4.1-24.4,1.8-34.8c2.2-3.8,6.6-6.8,10.9-5.8c3.8,0.9,6.3,4.4,9.8,6.2c4.2,2.2,9.2,1.7,13.8,0.7
			c2.8-0.6,5.6-1.5,7.7-3.4c4.3-4.1,3.7-10.9,2.7-16.8c-0.8-4.7-1.9-9.8-5.7-12.5c-3.4-2.4-8-2-12-0.7c-4,1.2-7.7,3.3-11.8,4.1
			c-4.1,0.8-8.9,0-11.3-3.3c-2.9-3.9-2.3-12.3-2.6-16.8c-0.6-8.8-0.8-17.5-0.4-26.4c0-7.3,1.4-14.7,1.4-21.7H996
			c-15.9-3-6.6-21.9-6.7-32.2c-0.1-7-2.7-14.5-8.6-18.3c-8.2-5.3-19.1-1.8-27.9,2.5c-2.4,1.2-5,2.5-6.4,4.9
			c-1.5,2.6-1.4,5.7-1.2,8.7c0.3,4.6,1.6,9.3,2.3,13.8c0.8,5.3,3.4,12.7,2.4,17.8c-0.2,0.9-0.6,1.7-1.6,1.7c-1.4,0-2.9,0-4.3,0
			c-13.2,0-26.5,0-39.7,0c-6.6,0-13.2,0-19.8,0c-2.3,0-8.7-1-10.2,1.2c-0.6,0.9-0.8,2-0.9,3c-2.5,19.4-0.8,39.9,2.1,59.1
			c1.3,8.8,6.8,14.1,16.1,12.3c11.5-2.3,29.2-12.2,38,0.1c3.2,4.4,4.2,10.1,4.5,15.6c0.2,5.2-0.2,10.5-2.2,15.2
			c-2,4.8-5.8,9-10.6,10.7c-4.9,1.7-10.3,0.8-15.3-0.7c-5-1.5-9.8-3.6-15-4.1c-5.2-0.5-10.9,0.8-14.1,4.9c-5,6.5-2.4,16.5-1.6,23.9
			C876,378.1,876.4,385.2,875.1,392.1z"/>
		<path id="XMLID_33_" class="st1" d="M875.3,404.5c-1-8.8,2.3-17.3,1.3-26.3c-0.8-7.7-3.6-16.4-1.6-24c1-3.8,3.4-7.4,7-9
			c6.8-3,15.6,1,22.4,2.5c7.5,1.7,14.5,1.5,21.2-2.6c12.7-7.8,13.5-38.9-1.7-44.2c-6-2.1-12.7-0.9-18.9,0.8
			c-6.2,1.7-12.4,3.8-18.8,3.5c-3.1-0.1-6.4-1-8.3-3.5c-1.3-1.7-1.7-3.9-2-6c0-0.4-0.1-0.7-0.1-1.1c-2.7-20.7-0.6-42.7-0.6-63.6
			c0-1.4-21.4-0.2-23.4-0.2c-13,0-26,0.1-39,0.1c-27.2,0.1-54.5,0.1-81.7,0.2c-6.7,0-13.4,0-20.2,0c-1.5-0.6-3.2,0.6-4.2,1.9
			c-3.2,4-1.3,8.3-0.7,12.8c0.7,4.6-0.6,9.3-0.8,13.9c-0.2,10.1,10,29.3-0.6,36.6c-5.7,3.9-9.9,4.9-16.7,2.2
			c-4.1-1.6-7.9-3.9-12-5.4c-4.4-1.6-9.1-2.3-13.7-2.1c-1.1,0.1-2.2,0.2-3.1,0.7c-0.9,0.6-1.5,1.5-2.1,2.4
			c-4.4,6.7-8.8,13.9-9.3,21.8c-0.4,6.5,2,12.8,4.6,18.8c1.3,3,2.8,6.1,5.5,7.8c7.5,4.7,19.6-1.2,27-3.2c7.6-2.1,19.4-3.8,23.1,5.1
			c1.5,3.5,1,9.6,0.4,13.3c-0.7,5.2-0.8,10.7-1,16c-0.3,10.7-0.1,21.3,0.3,32c0,0,69.2,0.2,69.3,0.3c2.8,0-0.4-12.8-0.8-14.2
			c-1.3-4.3-3.4-8.3-4.5-12.6c-0.4-1.4-0.6-2.4-0.7-3c-1.7-9.7,3.5-13.8,12.4-16.5c8.7-2.7,19.3-2.7,27.1,2.4c3.5,2.3,6,5.7,7.3,9.7
			c1.6,5.1,0.3,10.8-0.9,15.8c-1.6,6-2.1,12.3-4.1,18.3h62.5C875.4,405,875.4,404.9,875.3,404.5z"/>
		<path id="XMLID_34_" class="st8" d="M709.7,233c0.3-0.6,0.5-1.3,0.8-2c-1.5,0-2.9,0-4.4,0c-19.7,0-39.3,0-59,0
			c-39.2,0-78.3,0-117.5,0c-4.6,0-2.9,6.2-3,9.9c-0.2,4.7-0.3,9.3-0.4,14c-0.2,9.1-0.3,18.1-0.3,27.2c0,17.1,0,34.3,0,51.5
			c0,20.3,0,40.7,0,61c0,3.3,0,11.5,0,11.5l73.3,0.7c1.3,1.7,1.4,4.4,1.1,6.4c-0.8,5.2-4.1,10.2-5.1,15.6
			c-1.3,7.5-0.8,15.3,1.6,22.5c1.2,3.7,3,7.3,6,9.7c3.1,2.5,7.3,3.3,11.3,3.1s7.8-1.4,11.6-2.6c3.6-1.2,7.3-2.5,9.8-5.3
			c2.1-2.4,3.1-5.6,3.5-8.8c1.3-8.9-0.9-16.5-2.7-25c-0.4-1.8-3.9-16.2-0.1-16.2c0,0,71.5,0,71.5,0c1.9-8.8,1.1-18.5,1.2-27.5
			c0.2-13.8,6.2-45.4-16.7-41.6c-19.2,3.8-34.5,14-40.9-6.4c-3.8-12.1-5-31.6,10.9-35.6c5.3-1.3,10.9-0.1,16.1,1.5
			c5.2,1.6,10.4,3.6,15.9,3.7c16.8,0.5,16.9-15.2,14.7-27.6C707,260.3,705,244.7,709.7,233z"/>
		<path id="XMLID_7_" class="st1" d="M1579.9,400.9c0.6-3.2,1.3-6.4,2-9.7c1.1-5.2,0.8-10.9-0.8-15.9c-3.2-10-5-16.1-0.7-26.3
			c3.3-7.7,10.1-10.5,18.2-8.8c11.4,2.4,19.7,9.9,31.2,2.8c12.7-7.8,13.5-38.8-1.7-44.2c-6-2.1-12.7-0.9-18.9,0.8
			c-6.2,1.7-12.4,3.8-18.8,3.5c-3.1-0.1-6.4-1-8.3-3.5c-1.3-1.7-1.7-3.9-2-6c0-0.4-0.1-0.7-0.1-1.1c-1.9-14.5-1.2-29.1-0.4-43.7
			c0.3-5.7,1-11.3,1.2-16.9c0-0.6,0-1.3-0.5-1.6c-0.4-0.3-0.9-0.3-1.3-0.3c-8.3,0.1-16.7,0-25.1,0c-0.2,0-0.5,0-0.7,0
			c-42.9,0-85.8,0-128.7,0c-4.5,0-9,0-13.4,0c-2.5,0-1,17-1.1,19c-1.3,15,4.1,30.3-0.9,45c-0.5,1.5-1.2,3.1-2.4,4.2
			c-2.9,2.8-7.5,0.4-10.8-0.5c-7.3-1.9-14.8-3.4-22.3-4.3c-2.7-0.3-5.6-0.6-8.1,0.5c-2,0.8-3.7,2.4-5.2,4c-3.5,3.7-6.7,8-7.9,12.9
			c-1.7,7.3,1.2,14.9,4.2,21.8c1.2,2.9,2.6,6,5.2,7.7c2.2,1.4,4.9,1.7,7.5,1.6c6.8-0.3,13.3-2.9,19.8-4.7c7.6-2.1,24.1-4.5,23.1,5.1
			c-1.2,12-0.1,16.1-0.4,23.6c-0.3,6.3-0.5,12.7-0.5,19c0,7,0.6,14,0.4,20.9c0.2,0,0.5,0,0.7,0c7.3,0,14.5-0.1,21.8-0.1
			c10.5,0,21-0.1,31.5-0.1c3.5,0,7,0,10.5,0c1.4,0,2.6,0.3,3.2-1c1.6-3.7,0.9-9.4,0.2-13.2c-3.7-18.9-12.2-27.7,8.1-33.8
			c20.2-6.2,42.9,4.1,32.6,29.2c-0.8,2-0.9,5.3-1.4,7.5c-0.7,3.1-0.9,6.4-1.6,9.5c-0.2,0.8-0.7,1.6,0,1.9c0.1,0.1,0.5,0,0.6,0
			c1.7,0,3.3,0,5,0c6,0,12,0.1,18,0.1c7,0,14,0.1,21,0.1c5.3,0,15.9,0.1,15.9,0.1l1.4-0.9C1579.2,405.3,1579.7,401.8,1579.9,400.9z"
			/>
		<line id="XMLID_12_" class="st5" x1="1192" y1="408" x2="1271" y2="408"/>
	</g>
</g>
<g id="let_us_together">
	<g id="XMLID_48_">
		<rect id="XMLID_135_" x="1085.4" y="448" class="st5" width="898" height="94"/>
		<path id="XMLID_16_" class="st1" d="M1089,489.2v-34.1h6.9v28.3h17.3v5.8H1089z"/>
		<path id="XMLID_19_" class="st1" d="M1142.1,481.3l6.6,1.1c-0.8,2.4-2.2,4.2-4,5.5s-4.1,1.9-6.8,1.9c-4.3,0-7.5-1.4-9.6-4.2
			c-1.6-2.3-2.5-5.1-2.5-8.6c0-4.1,1.1-7.4,3.2-9.7s4.9-3.5,8.2-3.5c3.7,0,6.6,1.2,8.8,3.7s3.2,6.2,3.1,11.2h-16.5
			c0,2,0.6,3.5,1.6,4.6c1,1.1,2.3,1.6,3.8,1.6c1,0,1.9-0.3,2.6-0.8S1141.8,482.5,1142.1,481.3z M1142.5,474.6c0-1.9-0.5-3.4-1.5-4.3
			s-2.1-1.5-3.4-1.5c-1.4,0-2.6,0.5-3.6,1.6s-1.4,2.5-1.4,4.3H1142.5z"/>
		<path id="XMLID_25_" class="st1" d="M1175.4,464.3v5.3h-4.5v10c0,2,0,3.2,0.1,3.6s0.3,0.6,0.6,0.8s0.7,0.3,1.1,0.3
			c0.6,0,1.5-0.2,2.6-0.6l0.6,5.1c-1.5,0.7-3.3,1-5.2,1c-1.2,0-2.3-0.2-3.2-0.6s-1.7-0.9-2.1-1.5s-0.8-1.5-0.9-2.6
			c-0.1-0.8-0.2-2.3-0.2-4.6v-10.9h-3v-5.3h3v-4.9l6.6-3.8v8.8H1175.4z"/>
		<path id="XMLID_37_" class="st1" d="M1228.9,489.2v-3.7c-0.9,1.3-2.1,2.4-3.6,3.1s-3,1.1-4.7,1.1c-1.7,0-3.2-0.4-4.5-1.1
			s-2.3-1.8-2.9-3.1s-0.9-3.2-0.9-5.5v-15.8h6.6v11.4c0,3.5,0.1,5.6,0.4,6.4s0.7,1.4,1.3,1.9s1.5,0.7,2.4,0.7c1.1,0,2.1-0.3,3-0.9
			s1.5-1.4,1.8-2.3s0.5-3.2,0.5-6.7v-10.5h6.6v24.9H1228.9z"/>
		<path id="XMLID_39_" class="st1" d="M1249.1,482.1l6.6-1c0.3,1.3,0.9,2.3,1.7,2.9s2.1,1,3.6,1c1.7,0,3-0.3,3.8-0.9
			c0.6-0.4,0.9-1,0.9-1.8c0-0.5-0.2-0.9-0.5-1.2c-0.3-0.3-1.1-0.6-2.2-0.9c-5.3-1.2-8.7-2.2-10.1-3.2c-2-1.3-3-3.2-3-5.6
			c0-2.2,0.9-4,2.6-5.4s4.3-2.2,7.9-2.2c3.4,0,5.9,0.6,7.6,1.7s2.8,2.8,3.4,4.9l-6.2,1.1c-0.3-1-0.8-1.7-1.5-2.2s-1.8-0.8-3.2-0.8
			c-1.7,0-3,0.2-3.7,0.7c-0.5,0.3-0.8,0.8-0.8,1.3c0,0.5,0.2,0.9,0.7,1.2c0.6,0.4,2.6,1.1,6.2,1.9s6,1.8,7.3,2.9
			c1.4,1.2,2.1,2.8,2.1,4.9c0,2.3-1,4.2-2.9,5.9s-4.7,2.5-8.5,2.5c-3.4,0-6.1-0.7-8.1-2.1S1249.7,484.4,1249.1,482.1z"/>
		<path id="XMLID_41_" class="st1" d="M1322.1,464.3v5.3h-4.5v10c0,2,0,3.2,0.1,3.6s0.3,0.6,0.6,0.8s0.7,0.3,1.1,0.3
			c0.6,0,1.5-0.2,2.6-0.6l0.6,5.1c-1.5,0.7-3.3,1-5.2,1c-1.2,0-2.3-0.2-3.2-0.6s-1.7-0.9-2.1-1.5s-0.8-1.5-0.9-2.6
			c-0.1-0.8-0.2-2.3-0.2-4.6v-10.9h-3v-5.3h3v-4.9l6.6-3.8v8.8H1322.1z"/>
		<path id="XMLID_43_" class="st1" d="M1334.7,476.4c0-2.2,0.5-4.3,1.6-6.4s2.6-3.6,4.6-4.7s4.2-1.6,6.6-1.6c3.8,0,6.9,1.2,9.3,3.7
			s3.6,5.5,3.6,9.3c0,3.8-1.2,6.9-3.6,9.4s-5.5,3.7-9.2,3.7c-2.3,0-4.5-0.5-6.5-1.5s-3.6-2.5-4.7-4.5S1334.7,479.2,1334.7,476.4z
			 M1341.5,476.7c0,2.5,0.6,4.4,1.8,5.7s2.6,2,4.3,2s3.2-0.7,4.3-2s1.7-3.2,1.7-5.7c0-2.4-0.6-4.3-1.7-5.6s-2.6-2-4.3-2
			s-3.2,0.7-4.3,2S1341.5,474.3,1341.5,476.7z"/>
		<path id="XMLID_51_" class="st1" d="M1374.6,490.8l7.5,0.9c0.1,0.9,0.4,1.5,0.9,1.8c0.6,0.5,1.6,0.7,3,0.7c1.7,0,3-0.3,3.9-0.8
			c0.6-0.3,1-0.9,1.3-1.7c0.2-0.5,0.3-1.6,0.3-3v-3.6c-2,2.7-4.5,4-7.5,4c-3.3,0-6-1.4-7.9-4.2c-1.5-2.2-2.3-5-2.3-8.3
			c0-4.2,1-7.4,3-9.6s4.5-3.3,7.5-3.3c3.1,0,5.6,1.4,7.6,4.1v-3.5h6.2v22.3c0,2.9-0.2,5.1-0.7,6.6s-1.2,2.6-2,3.4s-2,1.5-3.5,1.9
			s-3.3,0.7-5.5,0.7c-4.2,0-7.2-0.7-9-2.2s-2.6-3.3-2.6-5.5C1374.6,491.4,1374.6,491.1,1374.6,490.8z M1380.5,476.2
			c0,2.6,0.5,4.6,1.5,5.8s2.3,1.8,3.8,1.8c1.6,0,3-0.6,4.1-1.9s1.7-3.1,1.7-5.6c0-2.6-0.5-4.5-1.6-5.7s-2.4-1.9-4-1.9
			c-1.6,0-2.9,0.6-3.9,1.8S1380.5,473.7,1380.5,476.2z"/>
		<path id="XMLID_62_" class="st1" d="M1428.5,481.3l6.6,1.1c-0.8,2.4-2.2,4.2-4,5.5s-4.1,1.9-6.8,1.9c-4.3,0-7.5-1.4-9.6-4.2
			c-1.6-2.3-2.5-5.1-2.5-8.6c0-4.1,1.1-7.4,3.2-9.7s4.9-3.5,8.2-3.5c3.7,0,6.6,1.2,8.8,3.7s3.2,6.2,3.1,11.2h-16.5
			c0,2,0.6,3.5,1.6,4.6s2.3,1.6,3.8,1.6c1,0,1.9-0.3,2.6-0.8S1428.2,482.5,1428.5,481.3z M1428.9,474.6c0-1.9-0.5-3.4-1.5-4.3
			s-2.1-1.5-3.4-1.5c-1.4,0-2.6,0.5-3.6,1.6s-1.4,2.5-1.4,4.3H1428.9z"/>
		<path id="XMLID_65_" class="st1" d="M1461.8,464.3v5.3h-4.5v10c0,2,0,3.2,0.1,3.6s0.3,0.6,0.6,0.8s0.7,0.3,1.1,0.3
			c0.6,0,1.5-0.2,2.6-0.6l0.6,5.1c-1.5,0.7-3.3,1-5.2,1c-1.2,0-2.3-0.2-3.2-0.6s-1.7-0.9-2.1-1.5s-0.8-1.5-0.9-2.6
			c-0.1-0.8-0.2-2.3-0.2-4.6v-10.9h-3v-5.3h3v-4.9l6.6-3.8v8.8H1461.8z"/>
		<path id="XMLID_67_" class="st1" d="M1482.6,454.8v12.6c2.1-2.5,4.7-3.7,7.6-3.7c1.5,0,2.9,0.3,4.1,0.8s2.1,1.3,2.8,2.2
			s1,1.8,1.3,2.9s0.3,2.7,0.3,4.9v14.6h-6.6V476c0-2.6-0.1-4.3-0.4-5s-0.7-1.3-1.3-1.7s-1.4-0.6-2.4-0.6c-1.1,0-2.1,0.3-2.9,0.8
			s-1.5,1.3-1.9,2.4s-0.6,2.7-0.6,4.7v12.5h-6.6v-34.4H1482.6z"/>
		<path id="XMLID_69_" class="st1" d="M1529.3,481.3l6.6,1.1c-0.8,2.4-2.2,4.2-4,5.5s-4.1,1.9-6.8,1.9c-4.3,0-7.5-1.4-9.6-4.2
			c-1.6-2.3-2.5-5.1-2.5-8.6c0-4.1,1.1-7.4,3.2-9.7s4.9-3.5,8.2-3.5c3.7,0,6.6,1.2,8.8,3.7s3.2,6.2,3.1,11.2h-16.5
			c0,2,0.6,3.5,1.6,4.6s2.3,1.6,3.8,1.6c1,0,1.9-0.3,2.6-0.8S1529,482.5,1529.3,481.3z M1529.7,474.6c0-1.9-0.5-3.4-1.5-4.3
			s-2.1-1.5-3.4-1.5c-1.4,0-2.6,0.5-3.6,1.6s-1.4,2.5-1.4,4.3H1529.7z"/>
		<path id="XMLID_133_" class="st1" d="M1557.5,489.2h-6.6v-24.9h6.1v3.5c1-1.7,2-2.8,2.8-3.3s1.8-0.8,2.8-0.8
			c1.5,0,2.9,0.4,4.3,1.2l-2,5.7c-1.1-0.7-2.1-1.1-3.1-1.1c-0.9,0-1.7,0.3-2.3,0.8s-1.1,1.4-1.5,2.8s-0.6,4.1-0.6,8.3V489.2z"/>
	</g>
</g>
<g id="words">
	<path id="XMLID_52_" class="st0" d="M1545.1,344c0.1,1.3-0.6,2-2.1,2c-0.9,0-3.6-0.5-8-1.6c-4.4-1.1-7.1-1.8-8.2-2.2
		c-10.2,4-20,6-29.4,6c-15.1,0-27.5-5-37.1-15.1c-9.6-9.9-14.4-22.4-14.4-37.6c0-15.5,4.6-28.3,13.9-38.5
		c9.6-10.5,22-15.8,37.3-15.8c7.4,0,14.4,1.4,20.9,4.2c7.1,3.1,12.6,7.5,16.7,13.2c0.8,1.2,1.2,2,1.2,2.5c0,1.6-2.2,5.1-6.6,10.5
		c-4.4,5.4-7.2,8.2-8.5,8.2c-0.3,0-1.4-1-3.4-3c-2.4-2.4-4.8-4.2-7.3-5.6c-3.7-2-7.8-3-12.3-3c-7.3,0-13.1,2.7-17.4,8.2
		c-4,5-6,11.3-6,18.8c0,8,2.1,14.3,6.2,18.9c4.3,4.8,10.4,7.2,18.2,7.2c5,0,10.5-1.2,16.7-3.7c-0.1-1.6-0.6-5.7-1.3-12.3
		c-0.6-5.1-1-9.2-1-12.3c0-0.9,0.3-1.5,1-1.7c0.2-0.1,0.6-0.1,1.2-0.1c1.4,0,3.6,0.1,6.4,0.4c2.9,0.3,5,0.4,6.5,0.4
		c1.6,0,3.9-0.1,7-0.3c3.1-0.2,5.5-0.3,7-0.3c1.2,0,1.8,0.8,1.8,2.4c0,2.3-0.1,5.9-0.4,10.6c-0.3,4.7-0.4,8.3-0.4,10.6
		c0,6.3,0.5,15.7,1.4,28.3L1545.1,344z"/>
	<path id="XMLID_117_" class="st0" d="M647.8,351.7c0,1-0.2,1.7-0.7,1.9c-0.2,0.1-0.9,0.3-2.1,0.4c-3,0.3-7.2,0.4-12.6,0.4
		c-7.7,0-12.2-0.1-13.5-0.4c-1.3-0.3-2-1-2-2c0-3.9,0.2-9.7,0.5-17.4c0.4-7.7,0.5-13.5,0.5-17.4c0-1.9-0.5-3-1.6-3.3
		c-1.7-0.4-7.6-0.6-17.7-0.6c-10.2,0-16.2,0.2-17.9,0.6c-1.1,0.2-1.6,1.3-1.6,3.3c0,3.8,0.1,9.5,0.4,17.1c0.2,7.6,0.4,13.3,0.4,17.1
		c0,1.5-0.7,2.3-2,2.6c-1.6,0.3-6.2,0.4-13.8,0.4c-6.6,0-10.8-0.1-12.6-0.4c-1.4-0.2-2.1-1-2.1-2.3c0-5.3,0.3-13.2,0.8-23.9
		c0.5-10.6,0.8-18.6,0.8-24c0-5.7-0.2-14.2-0.7-25.5c-0.5-11.4-0.7-19.9-0.7-25.5c0-1.1,0.5-1.6,1.5-1.6c1.5,0,3.8,0.1,6.8,0.2
		c3.1,0.1,5.3,0.2,6.8,0.2c1.6,0,3.9-0.1,7.1-0.2s5.5-0.2,7.1-0.2c0.8,0,1.2,0.4,1.2,1.3c0,3.7-0.3,9.1-0.8,16.4
		c-0.5,7.3-0.8,12.8-0.8,16.4c0,1.7,0.5,2.7,1.4,3c1.3,0.4,7.5,0.6,18.8,0.6c10.4,0,16.5-0.2,18.2-0.6c1.2-0.3,1.8-1.3,1.8-3
		c0-3.5-0.2-8.8-0.5-15.9c-0.3-7.1-0.5-12.4-0.5-16c0-1.5,0.6-2.3,1.8-2.3c1.4,0,3.6,0.1,6.5,0.2c2.9,0.1,5.1,0.2,6.6,0.2
		c1.4,0,3.6-0.1,6.5-0.2c2.9-0.1,5.1-0.2,6.6-0.2c1.4,0,2.1,0.6,2.1,1.8c0,5.6-0.2,14.1-0.7,25.4c-0.5,11.3-0.7,19.8-0.7,25.5
		c0,5.3,0.3,13.3,0.8,24C647.5,338.5,647.8,346.5,647.8,351.7z"/>
	<path id="XMLID_114_" class="st0" d="M843,353c0,0.9-0.6,1.5-1.8,1.8c-1.5,0.4-6,0.6-13.6,0.6c-7,0-11.5-0.2-13.5-0.6
		c-1.7-0.3-2.7-1.4-3.1-3.3c-1.7-7-3-10.8-3.9-11.3c-0.8-0.3-7.3-0.5-19.6-0.5c-8.3,0-12.7,0.2-13.3,0.7c-0.8,0.8-1.8,3.4-2.8,7.8
		c-0.9,4.1-2.1,6.3-3.4,6.6c-1.7,0.4-7.2,0.6-16.7,0.6c-7.5,0-11.2-0.7-11.2-2.1c0-1.3,5.5-16.9,16.6-46.8
		c12-32.4,18.5-50.2,19.5-53.4c0.6-1.9,1.3-2.8,2.1-2.8c1.3,0,3.4,0.1,6.1,0.4c2.8,0.2,4.8,0.4,6.2,0.4c1.3,0,3.3-0.1,5.8-0.3
		c2.6-0.2,4.5-0.3,5.7-0.3c0.9,0,1.8,0.8,2.6,2.4c2.4,5.1,9.4,22.7,20.9,52.7C837.2,335.9,843,351.7,843,353z M791.1,286.3
		c-1,2.1-2.8,6.8-5.2,14c-2.6,7.6-4,12.1-4,13.4c0,0.9,1.5,1.4,4.4,1.5c1.5,0.1,4,0.1,7.5,0.1c3.2,0,5-0.4,5.3-1.2
		c0.1-0.2,0.1-0.6,0.1-1c0-1.6-1.1-6.1-3.4-13.3C793.7,292.7,792.1,288.2,791.1,286.3z"/>
	<path id="XMLID_58_" class="st0" d="M1029.6,353.5c0,0.3-0.5,0.6-1.5,0.7c-1.9,0.3-6.5,0.4-14,0.4c-6.4,0-10.7-0.1-13-0.4
		c-1.1-0.1-1.7-0.3-1.8-0.4c-0.3-0.1-0.6-0.6-1-1.5c-0.7-1.9-1.8-4.7-3.2-8.5c-1.9-4.9-4.9-12.1-8.9-21.6c-0.9-1.9-2.9-3-6.1-3.1
		c1.5,0.1-1.1,0.1-7.5,0.1c-0.7,0-1.1,1.2-1.1,3.7c0,3.3,0.3,8.3,0.9,14.9c0.6,6.6,0.9,11.5,0.9,14.9c0,0.8-0.2,1.3-0.7,1.5
		c-0.7,0-1.4,0.1-2.1,0.1c-2.9,0.2-7.4,0.3-13.5,0.3c-7,0-11.2-0.1-12.6-0.4c-1.4-0.3-2.1-1-2.1-2.3c0-5.4,0.3-13.5,0.8-24.3
		s0.8-19,0.8-24.4c0-20.7-0.5-36.8-1.4-48.3l-0.1-1c0-0.8,0.7-1.4,2.3-1.7c1.6-0.3,9-0.6,22.4-0.9c9-0.2,16.2-0.3,21.6-0.3
		c11.1,0,20.2,2.5,27.2,7.5c8,5.7,11.9,13.8,11.9,24.5c0,7.1-1,12.8-3.1,17.1c-2.1,4.2-5.8,8.4-11.4,12.4c-1.1,0.8-1.7,1.5-1.7,2.2
		c0,0,3,6.1,8.9,18.4C1026.6,345.4,1029.6,352.2,1029.6,353.5z M998.8,287.8c0-6-2-10.1-5.9-12.4c-3-1.8-7.8-2.6-14.2-2.6
		c-4.6,0-7.1,0.7-7.4,2.1c-0.3,1.7-0.4,6.4-0.4,14.4c0,1.1,0,2.8,0.1,5c0,2.2,0.1,3.8,0.1,4.9c0,0.2,0.8,0.5,2.3,0.7
		c3,0.4,6.1,0.7,9.4,0.7C993.5,300.5,998.8,296.3,998.8,287.8z"/>
	<path id="XMLID_56_" class="st0" d="M1162.3,300.7c0,5.8,0.1,14.4,0.4,26s0.4,20.2,0.4,26c0,1-0.2,1.6-0.7,1.8
		c-0.1,0-0.7,0.1-1.9,0.3c-3.2,0.4-7.4,0.6-12.7,0.6c-7.1,0-11.7-0.2-13.6-0.6c-1.4-0.3-2.1-1-2.1-2.3c0,0.8,0.2-3.5,0.7-12.9
		c0.9-19.8,1.3-32.8,1.3-39c0-5.2-0.2-13.1-0.5-23.5c-0.3-10.4-0.5-18.3-0.5-23.5c0-1.1,0.6-1.6,1.7-1.6c1.5,0,3.8,0.1,6.8,0.2
		c3.1,0.1,5.3,0.2,6.8,0.2c1.5,0,3.7-0.1,6.7-0.2c3-0.1,5.2-0.2,6.7-0.2c1.4,0,2.1,0.5,2.1,1.6c0,5.2-0.3,13.1-0.8,23.5
		C1162.6,287.6,1162.3,295.5,1162.3,300.7z"/>
	<path id="XMLID_54_" class="st0" d="M1367.2,255.2c0,5.6-0.2,13.9-0.7,25.1c-0.5,11.2-0.7,19.5-0.7,25.2v48.3c0,1.3-0.7,2-2.1,2
		c-1.2,0-2.9,0-5.3,0.1c-2.4,0.1-4.1,0.1-5.3,0.1c-1.3,0-3.2-0.1-5.7-0.3c-2.5-0.2-4.4-0.3-5.7-0.3c-0.9,0-1.9-0.8-3.1-2.4
		c-3.5-4.7-11.4-15.2-23.7-31.5c-3.4-4.5-8.5-11.2-15.4-20.1c-0.2-0.3-0.6-0.6-1.1-0.9c-0.4,0.3-0.6,0.9-0.6,1.6
		c0,5.7,0.2,14.2,0.5,25.5c0.3,11.3,0.5,19.8,0.5,25.5c0,1.7-0.7,2.6-2,2.6h-25.3c-1.4,0-2.1-0.8-2.1-2.3c0-5.3,0.3-13.2,0.8-23.9
		c0.5-10.6,0.8-18.6,0.8-24c0-5.6-0.2-14-0.7-25.2c-0.5-11.2-0.7-19.6-0.7-25.1c0-1.1,1-1.6,2.9-1.6c2.8,0,6.3-0.2,10.5-0.6
		c1-0.1,2.9-0.4,5.8-1c2.4-0.4,4.4-0.7,5.8-0.7c0.6,0,1.5,0.8,2.7,2.5l27.3,37.4c2.4,3.4,6.1,8.3,11.1,14.8c1.2,1.5,2.3,2.3,3.1,2.3
		c0.6,0,1-1.9,1-5.7c0-5.1-0.3-12.8-0.8-23.1c-0.6-10.3-0.8-18-0.8-23.2c0-1.8,0.5-2.7,1.5-2.7c2.9,0,7.3-0.1,13.3-0.4
		c5.9-0.2,10.3-0.4,13.3-0.4C1366.8,252.9,1367.2,253.7,1367.2,255.2z"/>
	<g id="XMLID_2_">
	</g>
	<g id="XMLID_49_">
	</g>
	<g id="XMLID_136_">
	</g>
	<g id="XMLID_137_">
	</g>
	<g id="XMLID_138_">
	</g>
	<g id="XMLID_139_">
	</g>
</g>
</svg>
