<?xml version="1.0" encoding="utf-8"?>
<!-- Generator: Adobe Illustrator 19.0.0, SVG Export Plug-In . SVG Version: 6.00 Build 0)  -->
<svg version="1.1" xmlns="http://www.w3.org/2000/svg" xmlns:xlink="http://www.w3.org/1999/xlink" x="0px" y="0px"
	 viewBox="0 0 2267.7 470.6" style="enable-background:new 0 0 2267.7 470.6;" xml:space="preserve">
<style type="text/css">
	.st0{fill:#D4E9F0;}
	.st1{clip-path:url(#XMLID_143_);}
	.st2{fill:#EE9E2C;}
	.st3{fill:none;}
	.st4{fill:none;stroke:#FADBB2;stroke-miterlimit:10;}
	.st5{clip-path:url(#XMLID_144_);}
	.st6{fill:#234563;}
	.st7{clip-path:url(#XMLID_144_);fill:#FFFFFF;stroke:#FFFFFF;stroke-miterlimit:10;}
	.st8{fill:#68BEE5;}
	.st9{opacity:0.97;fill:#68BEE5;}
	.st10{clip-path:url(#XMLID_144_);fill:#D4E9F0;}
</style>
<g id="background_1_">
	<g id="background">
		<rect id="XMLID_1_" y="1" class="st0" width="2267.7" height="470.7"/>
		<rect id="XMLID_13_" x="730.3" y="155" class="st0" width="699.9" height="116.8"/>
	</g>
</g>
<g id="s_with_hand">
</g>
<g id="bigS">
	<g id="XMLID_14_">
		<defs>
			<rect id="XMLID_46_" x="761.5" y="-0.1" width="1506.2" height="470.7"/>
		</defs>
		<clipPath id="XMLID_143_">
			<use xlink:href="#XMLID_46_"  style="overflow:visible;"/>
		</clipPath>
		<g id="XMLID_119_" class="st1">
			<g id="XMLID_4_">
				<g id="XMLID_103_">
					<g id="XMLID_107_">
						<g id="XMLID_108_">
							<g id="XMLID_109_">
								<path id="XMLID_131_" class="st2" d="M2085.8,47.1C2086.2,47.1,2086.3,46.7,2085.8,47.1L2085.8,47.1z"/>
								<path id="XMLID_130_" class="st2" d="M2063.6,433.3c-0.1,0.2-0.2,0.3-0.3,0.5c0.6,0.9,1.1,1.7,1.4,2.4L2063.6,433.3z"/>
								<path id="XMLID_129_" class="st2" d="M1988.9,488.3c-0.2,0-0.4,0-0.6,0C1988.5,488.8,1988.7,489.4,1988.9,488.3z"/>
								<path id="XMLID_128_" class="st2" d="M2064,243.3c-0.2-0.6-0.5-0.9-0.9-1C2063.4,242.6,2063.7,242.9,2064,243.3z"/>
								<path id="XMLID_127_" class="st2" d="M2184.6,36.1c0,0-0.1,0-0.3,0c0.1,0.3,0.3,0.5,0.4,0.8L2184.6,36.1z"/>
								<path id="XMLID_126_" class="st2" d="M2183,37.4c-1-1.1,0.7-1.3,1.3-1.3c-0.4-0.9-1-1.4-1.6-1.7c-0.6-0.3-1.3-0.4-2.1-0.3
									C2180.2,35.6,2182.8,36.1,2183,37.4z"/>
								<path id="XMLID_125_" class="st2" d="M2230.8,175.4l-0.2-0.8C2230.7,174.9,2230.8,175.2,2230.8,175.4z"/>
								<path id="XMLID_124_" class="st2" d="M1994.6,274.6c-0.2-0.3-0.4-0.6-0.7-0.8C1994.1,274.3,1994.3,274.5,1994.6,274.6z"/>
								<path id="XMLID_123_" class="st2" d="M2246.9,150.8l-2.1-1.2C2245.6,150.2,2246.2,150.6,2246.9,150.8z"/>
								<path id="XMLID_121_" class="st2" d="M2064.7,436.2l0.4,1.1C2065.1,437,2064.9,436.6,2064.7,436.2z"/>
								<path id="XMLID_118_" class="st2" d="M1906.6,498.5c0.1-0.7-0.1-1.4-0.2-1.9c-0.1,0-0.2,0-0.2,0L1906.6,498.5z"/>
								<path id="XMLID_117_" class="st2" d="M1822.2,226.3c-0.2-0.2-0.4-0.5-0.7-0.7l0,2.1C1822,227.3,1822.2,226.8,1822.2,226.3z"
									/>
								<path id="XMLID_116_" class="st2" d="M1815.1,447.8c-0.2,0.2-0.6,0.2-0.8,0.5c0.8,1.7,4.4,4.8,9.2,8.1l2-2.3
									c0,0-0.7-0.4-1.7-0.9c-1-0.5-2.3-1.3-3.6-2.1c-1.3-0.8-2.6-1.6-3.6-2.2C1815.8,448.2,1815.1,447.8,1815.1,447.8z"/>
								<path id="XMLID_115_" class="st2" d="M1821.9,337.8c0,0-1.1,1.9-2.1,3.9c-0.9,2-1.9,4.1-1.9,4.1c-2.5-5-3.5-9.7-4.2-13.9
									c-0.1-1.1-0.2-2.1-0.3-3.1c-0.1-1-0.2-2-0.2-3c0-1,0-1.9,0-2.9c0-0.5,0-0.9,0-1.4c0-0.5,0.1-0.9,0.1-1.4
									c0.1-1.8,0.1-3.7,0.3-5.4c0.1-0.9,0.1-1.8,0.1-2.7l0-0.7l0.1-0.7c0-0.5,0.1-0.9,0.1-1.4c0-0.9,0.1-1.9,0-2.8
									c0-0.9,0.1-1.9,0.1-2.9c0-0.5,0-1,0-1.5c0-0.5,0-1,0-1.6c0-1,0-2.1-0.1-3.3l1.1,1.2c0.5-0.5,0-1.2-0.6-2.3
									c-0.5-1.1-1.2-2.6-1.1-4.8c0-0.6,0.1-1.1,0.2-1.8c0.2-0.6,0.4-1.3,0.7-2c0.3-0.7,0.6-1.5,1.1-2.3c0.5-0.8,1.1-1.6,1.8-2.4
									c0.3-0.4,0.7-0.9,1.1-1.3c0.4-0.4,0.9-0.9,1.3-1.3c1-0.9,2-1.8,3.2-2.6c1.3-0.8,2.6-1.7,4.1-2.6c1.5-0.8,3.2-1.5,5-2.3
									l0.5,0.4c0.4-0.8-0.5-1.5,1.9-1.9c0,0-1.5,0.3-2.9,0.6c-1.4,0.4-2.8,0.8-2.8,0.8c0.1-0.8,0.1-1.6,0.1-2.5
									c0-0.9,0.1-1.7,0.2-2.6c0.2-1.7,0.5-3.6,1.8-5.2c1.1-0.2,2.2,0.5,2.9,1.1c0,0,0.4-0.5,0.9-1.2c0.5-0.7,1.3-1.6,2.1-2.5
									c0.8-0.9,1.5-1.9,2.2-2.4c0.6-0.6,1-1,1-1s1.2,0.3,2.3,0.6c0.6,0.2,1.1,0.3,1.6,0.4c0.4,0.1,0.7,0.2,0.7,0.2
									c0.5-1.6-0.8-3.9-1-5.9c-0.1-1,0-2,0.8-2.7c0.8-0.7,2.2-1.1,4.4-1.1c-2.7-1.7-2.3-3-1.5-4c0.9-1,2.2-1.9,1-2.9
									c0.7,0.4,2,0.9,3.1,1.5c2-1.2,4.9-3.2,7.5-4.9c0.7-0.4,1.3-1,1.9-1.4c0.6-0.4,1.2-0.8,1.7-1.3c1.1-0.9,1.9-1.8,2.3-2.6
									c0,0-1.4-0.4-3.5-1.1c-0.6-0.2-1.2-0.4-1.8-0.6c-0.7-0.2-1.4-0.4-2.1-0.6c-1.5-0.4-3.2-0.7-4.9-1.1
									c-1.8-0.4-3.6-0.6-5.5-0.9c-0.9-0.1-1.9-0.3-2.8-0.4c-0.9-0.1-1.9-0.2-2.8-0.3c-1.8-0.2-3.6-0.4-5.1-0.5
									c-1.5-0.1-2.9-0.3-4-0.5c2.1-0.8,3.2-1.4,3.7-1.7c0.5-0.3,0.4-0.5-0.1-0.5c-1-0.2-3.2,0.1-4.5-0.3l0.2,1.5
									c-1.3,0.4-2.5,0.5-3.5,0.5c-1,0-1.8-0.1-2.6-0.3c-1.5-0.4-2.8-0.9-4.3-0.5c0.2,0.2,0.5,0.5,0.7,0.7l0-0.6
									c0.6,0.4,0.7,0.8,0.7,1.3c0.5,0.6,0.7,1.2-0.7,1.9l0-0.5c-0.8,0.9-2,1.9-3.2,2.8c-1.2,0.9-2.5,1.6-3.2,2.1l-2-2.2
									c0.2,1.8-1.4,3.5-3.9,5.1c-0.6,0.4-1.3,0.8-2,1.3c-0.7,0.4-1.5,0.9-2.3,1.3c-1.6,0.9-3.4,1.8-5.1,2.8c-1.8,1-3.6,2-5.3,3
									c-1.7,1-3.3,2.1-4.8,3.1c-0.8,0.5-1.5,1-2.1,1.5c-0.6,0.5-1.2,1-1.7,1.4c-1,0.9-1.8,1.7-2.2,2.3c-3.3,1.6-4.7,5-6,8.4
									c-0.6,1.8-1.1,3.6-1.8,5.4c-0.3,0.9-0.7,1.8-1.2,2.7c-0.4,0.9-0.9,1.7-1.4,2.6c-1.3,2.9-2.4,4.5-3.2,5.6
									c-0.8,1.1-1.6,1.5-2.3,1.7c-1.5,0.4-2.9,0-5.1,2.8c-0.5,0.9-0.8,1.6-1,2.1c-0.1,0.5-0.2,0.8-0.1,1c0.2,0.3,0.7,0.1,1.4-0.3
									c1.3-0.7,3.1-1.9,2.8-0.4c0,0-1.5,2.1-3.1,4.3c-0.8,1.1-1.6,2.2-2.1,3c-0.5,0.8-0.9,1.4-0.9,1.4c0.1-0.7,0.1-1.3,0.1-1.8
									c0-0.5,0-0.8-0.1-1.1c-0.1-0.5-0.4-0.7-0.7-0.7c-0.7,0.1-1.6,1-2.3,1.4c-0.5,2.1-1.3,4.5-2.2,7c-0.5,1.2-0.8,2.5-1.2,3.8
									c-0.4,1.3-0.7,2.5-1,3.7c-0.6,2.4-0.8,4.7-0.5,6.6c0.3,1.8,1,3.2,2.5,3.9c-0.7,2.9-1.3,5.2-1.9,6.9
									c-0.6,1.8-1.1,3.1-1.5,4.2c-0.8,2.2-1.4,3.6-1.3,6.2c0.9-1.9,1.6-5.3,2.8-5.4c-2.2,5,0.8,2.2,1.3,0.2
									c0.4,0.9,0.6,2.1,0.6,3.6c0,0.8,0,1.6-0.1,2.5c0,0.9-0.1,1.8-0.1,2.8c-0.1,2-0.3,4.1-0.5,6.3c-0.1,2.2-0.3,4.5-0.4,6.8
									c-0.2,2.3-0.1,4.5,0,6.5c0.1,2,0.2,4,0.6,5.5c0.7,3.2,1.7,5.2,3.4,5l-1.1,0.4c2.6,0,4.8-1,6.9-1.5c2.1-0.5,4-0.6,6.1,1.2
									l-0.9,3.7c0,0,0.9,0.9,1.8,1.9c0.5,0.5,0.9,0.9,1.3,1.3c0.4,0.3,0.6,0.6,0.6,0.6c-0.2,3.6-2,2.6-2.6,2.9
									c1.3,1.6,2.4,3.5,3.4,5.5c1.1,2,2,4.2,2.9,6.6c1,2.3,2,4.6,3,7c1,2.3,2.2,4.6,3.3,6.7c0,0,1.4-4,2.9-7.8
									c0.7-1.9,1.6-3.8,2.2-5.2c0.6-1.4,1.1-2.3,1.1-2.3c0.1,1,0.3,2.1,0.4,3.3c0.1,1.2,0.4,2.4,0.6,3.7c0.5,2.5,1,5.2,1.8,7.5
									c0.8,2.3,1.7,4.3,2.6,5.7c1,1.3,2.1,2,3.1,1.6c0,0-0.1,1.6-0.3,3.2c-0.1,1.6-0.2,3.2-0.2,3.2c0.9,4.5,2.2,7,3.4,8.5
									c1.3,1.4,2.5,1.8,3.7,1.8c2.3,0,4.3-1.5,5.6,1.6c0,0,0.1,0.6,0.4,1.4c0.2,0.8,0.5,2,0.8,3.1c0.7,2.3,1.3,4.5,1.3,4.5
									s-1.5-1.4-2.9-2.7c-0.7-0.7-1.5-1.4-2-1.9c-0.5-0.5-0.9-0.9-0.9-0.9c4.1,7.4,5.6,10.7,8.7,17.3c0,0,0.1,0,0.1-0.1
									c-0.2-0.4-0.3-0.8-0.2-1.1l1,0.6c2.3-1.3,6.6,0,11.2,3.4c1.6,1.3,3.2,2.3,4.9,3.2c1.7,0.9,3.4,1.8,5.3,2.8
									c0.9,0.5,1.8,1.1,2.8,1.7c1,0.6,1.9,1.3,2.9,2.1c2,1.6,4.1,3.6,6.4,6.3c0,0,1.3-0.8,2.6-1.5c1.3-0.8,2.6-1.5,2.6-1.5
									s0.5,0.4,1.1,1.1c0.7,0.7,1.6,1.5,2.6,2.3c1,0.8,1.9,1.7,2.6,2.3c0.7,0.6,1.2,1,1.2,1l-1.6,3.7c-4.4-2.1-10.9-4.7-17.6-8
									c-6.6-3.2-13.4-7-18.6-10.6l-1.2,1.4c6.2,4.4,14.4,7.3,18.5,10c0.8,1,2.2,3,2.6,5c0.5,1.9,0.1,3.7-2.6,3.8
									c0,0,1.5-0.3,3-0.6c1.5-0.3,3-0.7,3-0.7c1.4,0.7,2.8,1.3,4.1,1.9c1.3,0.6,2.5,1.1,3.7,1.6c2.3,1,4.3,1.8,6.2,2.6
									c1.9,0.8,3.6,1.4,5.2,2.1c1.6,0.7,3.1,1.3,4.7,1.9c1.5,0.6,3.1,1.3,4.7,2.1c1.7,0.7,3.4,1.5,5.4,2.4c4,1.7,8.7,3.9,15.4,6.3
									l-2-2.4c5.6-0.1,11.2-0.5,12.3,3c8.4,1.4,17.1,2.6,25.4,3.7c8.3,1.1,16.1,2,22.5,3.4c0,0,0.4-1.3,0.9-2.6
									c0.4-1.3,0.8-2.6,0.8-2.6c1.9-0.3,4.7,1.1,6.9,1.5c2.2,0.5,4.1,0.1,4.1-3.3c0,0,0.4-0.2,1.1-0.6c0.7-0.4,1.5-0.9,2.4-1.5
									c1.7-1.1,3.4-2.1,3.4-2.1c2.4-0.5,4.1-1.8,6-2.8c0.9-0.5,1.9-0.9,3.1-1.2c1.1-0.3,2.4-0.5,4-0.4l0,0c0,0,0,0,0,0
									c0.4,0,0.8,0,1.2,0.1c-0.1-0.1-0.1-0.2-0.2-0.3c2.9-0.6,4.1-1.3,4.7-1.8c0.6-0.5,0.4-1,0.3-1.5c-0.1-0.5-0.2-1,0.6-1.5
									c0.8-0.6,2.4-1.1,5.6-2.1c2.6,0.5,3-1.4,3.4-3.6c0.4-2.3,0.7-4.9,3.7-6c0,0,2.2,0.7,4.5,1.2c2.2,0.5,4.6,1,4.6,1
									c3-0.8,5.1-2,6.7-3.4c0.8-0.7,1.6-1.4,2.2-2.2c0.6-0.8,1.2-1.6,1.9-2.5c1.2-1.8,2.5-3.7,4.1-6c0.8-1.1,1.8-2.3,2.9-3.6
									c1.1-1.3,2.3-2.7,3.8-4.2c1.9-1,3.6-1.8,5.3-2.2c1.7-0.4,3.2-0.5,4.6-0.2c2.7,0.6,4.6,2.6,4.5,6.4c0.2-2.5,0.2-4.1,0.2-5.2
									c0-1.1,0-1.8,0.2-2.4c0.1-0.7,0.4-1.3,0.9-2.4c0.5-1.1,1.2-2.6,2.1-5.1c3,0.3,2.8,1.4,3.2,4.7c4-2.8,4.4-4.3,4.2-5.8
									c-0.1-1.5-0.7-2.9,1.3-5.7c-2.9-4.3-8.3-10.2-7.5-12l-2.5,1.3c1.4-7,3.5-13.6,8.7-19.5l2.1,1.2c0,0,0.5-2,1.1-4
									c0.5-2,0.9-4,0.9-4l3.1,0.6c0,0,0.9-2.8,1.5-5.7c0.3-1.4,0.7-2.8,1-3.9c0.2-1.1,0.4-1.8,0.4-1.8l-1.2,1.3
									c0.2-1.4,0.7-4.2,1.4-7.3c0.6-3.1,1.6-6.4,2.9-8.7l1.6,0.5c4.1-6.5,4.6-13.2,4.2-20.1c-0.5-6.9-2.1-14-2.5-22.1
									c0,0,0.9,0.5,1.8,1c0.9,0.5,1.8,1.1,1.8,1.1c3.4-5.7-5.4-1.4-3.9-8.1l4.3-0.6c-3-2.8-2.9-4.6-1.7-6.4c1.1-1.8,3.2-3.4,4-5.5
									l-5.4,2.5l0.3-7.6c0.4-4.3,1.9-5.8,3.8-6.1c1.9-0.4,4.1,0.4,5.7,0.8c0,0-1.4-1.2-2.7-2.5c-1.4-1.2-2.7-2.4-2.7-2.4l4.7-2
									c-3.2-1.5-3.2-2.6-2.9-4.1c0.1-0.8,0.4-1.7,0.2-2.7c-0.1-1.1-0.6-2.3-1.8-3.9c1.7-1,3.2,0.5,3.4-2c0,0-2.4-2.5-4.8-4.9
									c-1.2-1.2-2.4-2.4-3.3-3.2c-0.9-0.9-1.5-1.4-1.5-1.4s1.2,1.4,2.4,2.9c1.2,1.5,2.3,3,2.3,3l-7.2,1c-1.7-1.4-2.8-2.7-3.3-3.8
									c-0.6-1.2-0.7-2.3-0.7-3.4c0-2.2,0.5-4.3-1.1-6.4l3,2.7c-2-3.7-2.3-5.8-2.1-7.6c0.2-1.8,0.9-3.4,1-5.8
									c-0.8,1.8-2.1,4.4-4,1.6c-1.1-2.1,2-2,2.1-4.4c-4.8,1-9-3.4-8.5-8.9c0.7-0.2,1.3-0.3,1.9-0.1c-1.2-1-2.6-1.2-2.2-3.6
									l5.5-0.6l-6.3-2.2c0.4-3.1-4.7-5.6-1.1-6.6l1.6,1.1l-6-19.8l3.9-1.8c-6.3,0.1-1.5-10.8-8.3-7.8c0.6-1.2,0.5-2.6,0-4
									c-0.4-1.4-1.1-2.8-1.7-4.1c-1.1-2.6-1.4-4.7,2.9-5c-0.9-3-1.9-5.3-3.2-7.6c-1.3-2.2-2.8-4.3-4-6.4c-1.3-2.1-2.5-4.4-3.3-7
									c-0.7-2.6-1.1-5.5-0.8-9c1.6-1.5,2.5-3.3,3-5.3c0.5-2,0.5-4.3,0.6-6.5c0-2.3-0.2-4.6-0.4-6.9c0-1.1-0.1-2.3-0.1-3.3
									c0-1.1,0.1-2.1,0.2-3.1c-1.4-7.6-2.2-14.1-2.4-20.5c-0.2-6.5,0.2-13,2-20.5c6.3-2.5,7.6-7.4,9.3-12.7c0.4-1.3,0.9-2.6,1.3-4
									c0.5-1.3,1.1-2.5,1.7-3.7c0.7-1.1,1.6-2.1,2.5-2.9c0.5-0.4,1-0.8,1.5-1.1c0.5-0.3,1.2-0.5,1.8-0.7c0,0-0.3-1.1-0.5-2.3
									c-0.2-1.2-0.5-2.3-0.5-2.3c0.6,0,1.1-0.1,1.6-0.2c0.5-0.1,0.9-0.2,1.4-0.4c0.9-0.3,1.8-0.7,2.6-1.2c0.8-0.5,1.5-1.2,2.3-1.9
									c0.8-0.6,1.6-1.4,2.4-2.1c0.4-0.4,0.8-0.7,1.2-1.1c0.4-0.4,0.8-0.7,1.3-1.1c0.9-0.6,1.9-1.3,2.9-1.8c0.5-0.3,1-0.5,1.6-0.7
									c0.5-0.2,1.2-0.3,1.8-0.5c1.2-0.2,2.5-0.3,3.8-0.2c0.3-0.6,0.5-1.2,0.8-1.7c0.3-0.4,0.5-0.8,0.7-1.1c0.4-0.6,0.7-1,1-1.1
									c-0.5,0-1.4-0.4-2.7-2.5c1.6,0.2,3.5-0.8,5.1-1.3c1.7-0.4,3.2-0.2,4,2.2l-0.4,0.7c0.8,2.4,2.4,1.1,4.4-0.5
									c2.1-1.4,4.7-3.1,6.8-1.5c0,0-0.8-1.1-1.6-2.3c-0.8-1.1-1.6-2.3-1.6-2.3s0.3-0.1,0.8-0.1c0.5-0.1,1.2-0.2,1.9-0.2
									c1.4-0.1,2.7-0.3,2.7-0.3l-1.1,1.4c1.2-1.1,2.4-2.1,3.6-3c1.2-0.8,2.4-1.5,3.6-2.2c1.2-0.6,2.4-1.2,3.6-1.6
									c1.2-0.4,2.4-0.7,3.6-1c1.2-0.2,2.3-0.5,3.5-0.6c1.2-0.1,2.3-0.1,3.4-0.2c1.1,0,2.2,0,3.3,0c1.1,0.1,2.2,0.2,3.3,0.3
									l3.2,0.3c1.1,0.1,2.2,0.3,3.3,0.4c2.2,0.2,4.4,0.3,6.7,0.3c2.3,0.1,4.7-0.3,7.2-0.6c1.3-0.2,2.6-0.5,4-0.8
									c1.4-0.4,2.8-0.7,4.3-1.2c-1.9,2.7-0.7,2.1,1,1.6c0.8-0.2,1.7-0.5,2.4-0.2c0.7,0.3,1.1,1,0.9,2.6c1.1,2.2,2.2,3.3,3.5,3.7
									c1.2,0.4,2.5,0.2,3.9-0.4c1.4-0.6,2.8-1.4,4.3-2.2c1.4-0.7,2.8-1.4,4.1-1.6c0.1-0.3,0.2-0.6,0.6-1c0,0,0.5,0.2,1.2,0.5
									c0.7,0.3,1.7,0.6,2.7,1.1c1.9,0.8,3.8,1.7,3.8,1.7c-3.6,3-1.7,1.9,0.3,0.7c2.1-1.2,4.2-2.4,0.9-0.1
									c4.4,3.4,9.3,6.1,14.1,9.2c0.6,0.4,1.2,0.7,1.8,1.1c0.6,0.3,1.2,0.8,1.8,1.2c1.2,0.8,2.4,1.5,3.7,2.3
									c1.2,0.8,2.3,1.6,3.5,2.4c0.6,0.4,1.2,0.8,1.8,1.2l1.7,1.3l1.7,1.3c0.6,0.4,1.2,0.8,1.7,1.3c1.1,0.9,2.2,1.9,3.2,2.8
									c0.6,0.4,1,1,1.5,1.5l1.5,1.5l1.5,1.5l1.3,1.6l1.3,1.6c0.4,0.5,0.9,1,1.2,1.6c0.7,1.1,1.5,2.3,2.2,3.4
									c0.2,0.3,0.4,0.6,0.5,0.9l0.4,0.9c0.3,0.6,0.6,1.2,0.9,1.8c0.6,1.2,1,2.5,1.4,3.7l1.4-1.7c0.6,1.2,1.2,2.6,1.9,3.8
									c0.7,1.3,1.4,2.7,2,4c0.5,1.4,1,2.8,1.2,4.1c0.1,1.4,0,2.7-0.5,3.9c-0.6,1.2-0.4,2.3,0.2,3.3c0.5,1,1.5,1.9,2.5,2.8
									c2.1,1.7,4.5,3.2,4.8,4.1c2,2.3,1.3,4.9,0.1,6.4c-1.2,1.5-2.9,2.1-2.7,1.1c0.6,2.6,2.6,5.1,4,8.1c0.8,1.5,1.2,3.1,1.3,4.7
									c0.1,0.8-0.1,1.7-0.3,2.5c-0.2,0.9-0.6,1.7-1.1,2.6c-1.8,0.4-2.5,1.8-2.7,3.8c-0.2,1-0.2,2.2-0.1,3.4c0,1.2,0,2.5,0.1,3.8
									c0.1,5.2-0.4,10.2-4,8.9l0.6,0.3c-4.4,3.5-5.6,8.1-7.2,12.9c-1.6,4.8-3.6,9.8-8.9,12.6c0,0-0.3-0.5-0.5-1.1
									c0,0,0.1,0.5,0.2,1.4c0.1,0.9,0.3,2.1,0.5,3.6c0.2,1.5,0.3,3.3,0.5,5.2c0.1,1,0.1,2,0.2,3c0,1,0.1,2.1,0.1,3.1
									c0,2.1,0,4.2-0.1,6.2c-0.1,2-0.1,3.9-0.3,5.5c-0.3,3.2-0.5,5.4-0.5,5.4s5.6,3.5,11.5,6.8c2.9,1.7,5.9,3.2,8.2,4.4
									c2.3,1.1,3.8,1.9,3.8,1.9s0.5-0.1,1.5-0.2c0.9-0.1,2.3-0.3,3.9-0.5c3.2-0.5,7.5-1.3,11.8-2.3c2.2-0.5,4.3-1.1,6.3-1.6
									c2-0.6,4-1.1,5.6-1.7c3.2-1.1,5.4-1.8,5.4-1.8s0.7-1.1,1.9-3c0.6-1,1.3-2.1,2.1-3.5c0.8-1.4,1.7-2.9,2.6-4.6
									c3.8-6.8,8.2-16.2,11.7-26c3.5-9.8,5.9-20.1,7.2-27.9c0.3-1.9,0.5-3.8,0.8-5.4c0.2-1.6,0.4-3,0.5-4.1
									c0.2-2.3,0.3-3.6,0.3-3.6s0.1-0.3,0.2-0.7c0.1-0.5,0.3-1.2,0.5-2.1c0.4-1.8,1-4.4,1.6-7.5c1.2-6.3,2.3-14.8,2.6-23.4
									c0.3-8.7-0.2-17.5-1-24.1c-0.2-1.7-0.4-3.2-0.6-4.5c-0.2-1.4-0.4-2.5-0.6-3.5c-0.1-1-0.3-1.7-0.4-2.3
									c-0.1-0.5-0.2-0.8-0.2-0.8s-0.2-0.6-0.6-1.9c-0.4-1.2-1-3-1.9-5.2c-0.9-2.2-1.9-5-3.4-8c-0.7-1.5-1.4-3.2-2.3-4.9
									c-0.9-1.7-1.8-3.5-2.8-5.3c-2.1-3.6-4.4-7.6-7.1-11.5c-1.4-2-2.7-4-4.2-6c-1.5-1.9-3.1-3.9-4.8-5.9c-0.8-1-1.6-2-2.5-3
									c-0.9-0.9-1.8-1.9-2.7-2.9c-1.8-1.9-3.6-3.9-5.5-5.7c-3.9-3.6-7.8-7.3-12-10.5l-3.1-2.5l-1.6-1.2l-1.6-1.1
									c-2.1-1.5-4.3-2.9-6.4-4.4c-1.1-0.7-2.1-1.4-3.2-2c-1.1-0.6-2.1-1.3-3.2-1.9c-2.1-1.3-4.2-2.5-6.4-3.6
									c-2.1-1.1-4.2-2.2-6.2-3.2c-2-1-4.1-1.9-6-2.8c-2-0.9-3.9-1.8-5.7-2.5c-1.9-0.7-3.7-1.4-5.4-2.1c-3.5-1.4-6.7-2.4-9.5-3.3
									c-1.4-0.5-2.8-0.9-4-1.3c-1.2-0.4-2.4-0.6-3.4-0.9c-4.1-1.1-6.5-1.7-6.5-1.7s-0.8,0.2-1.9,0.5c-1.1,0.3-2.6,0.7-4.1,1.1
									c-2.9,0.8-5.9,1.6-5.9,1.6c-3.4-1.9-7-3.5-10.8-4.8c-1.9-0.6-3.9-1.1-5.9-1.6c-1-0.2-2-0.5-3-0.7c-1-0.2-2-0.3-3.1-0.5
									c-2.1-0.3-4.2-0.5-6.3-0.7c-2.1-0.2-4.2-0.2-6.4-0.3c-2.1,0-4.3-0.1-6.4,0c-2.2,0.1-4.3,0.2-6.5,0.4l-3.2,0.2l-3.2,0.3
									l-6.5,0.7c-4.3,0.6-8.6,1.1-12.9,1.7c-8.5,1.3-16.9,2.3-25.4,2.8l0.7,5c-4.3,1.4-6.6,1.3-8,0.9c-1.5-0.4-2.2-1.2-3.4-1.2
									l-3.8,1.4c-1.3,0.5-2.6,0.9-3.8,1.5c-2.5,1.1-5,2.2-7.6,3.3c-1.3,0.5-2.5,1.2-3.7,1.8l-3.7,1.9l-3.7,1.9
									c-1.2,0.7-2.4,1.4-3.6,2.1c-9.7,5.5-18.9,12.4-27.5,20c-8.6,7.6-16.2,16.5-23,25.9c-6.6,9.4-12.1,19.4-16.4,29.6
									c-8.7,20.3-13.1,41.1-14.9,61.1c-0.9,10-1.3,19.9-1,29.7c0.2,9.8,1,19.4,2,28.5c-0.5,1.9-0.4,4.6-0.1,7.7
									c0.1,0.8,0.2,1.6,0.3,2.4c0.1,0.8,0.3,1.6,0.4,2.4c0.3,1.6,0.7,3.3,1,5c0.3,1.7,0.7,3.3,1,4.9c0.3,1.6,0.6,3,0.8,4.4
									c0.4,2.7,0.6,5.1,0.1,6.6c1.5,2.5,3.1,4.9,4.5,7.3c1.4,2.4,2.8,5,4.1,7.4c2.6,4.8,5,9.8,7.1,14.6
									c4.3,9.7,7.7,19.1,10.6,28.2l-0.7-0.5l3.8,8c-0.3,0.5-0.8,0.7-1.3,0.6c0.5,0.5,0.9,1,1.3,1.6c0.4,0.5,0.8,1.1,1.1,1.7
									c0.7,1.2,1.3,2.5,1.8,3.9c0.5,1.4,1,2.8,1.4,4.3c0.3,1.5,0.6,3,0.9,4.5c0.2,1.5,0.4,3.1,0.6,4.7c0.1,1.5,0.2,3.1,0.2,4.6
									c0.1,1.5,0.1,3,0.2,4.4c0,0.7,0,1.4,0,2.1c0,0.7,0,1.3,0,2l-0.6-0.5c0.3,1.8,0.6,3.7,1,5.5c0.2,0.9,0.3,1.8,0.4,2.7l0.3,2.7
									l0.4,2.7c0.1,0.9,0.3,1.8,0.3,2.6c0.1,1.7,0.4,3.5,0.4,5.2c0.4,6.9,0.4,13.6-0.2,20.2c-1.2,13.1-4.5,25.6-10.3,36.3
									c-1.4,2.7-3.1,5.2-4.8,7.8c-0.9,1.2-1.8,2.4-2.7,3.6c-1,1.1-1.9,2.3-3,3.4c-4.1,4.4-8.7,8.3-14,11.4
									c-5.2,3.1-11,5.6-17.2,7.3c-1.5,0.4-3.2,0.7-4.7,1.1c-1.6,0.3-3.3,0.5-4.9,0.8c-1.5,0.1-2.9,0.3-4.4,0.3c-0.7,0-1.5,0-2.2,0
									l-2.2-0.1c-0.7-0.2-1.4-0.4-2.1-0.5c-0.7-0.2-1.4-0.3-2.1-0.5c-0.7-0.2-1.4-0.3-2.2-0.5c-0.7-0.1-1.4-0.3-2.2-0.4
									c-0.7-0.1-1.5-0.3-2.2-0.4c-0.7-0.1-1.5-0.3-2.2-0.4c-1.5-0.2-3-0.5-4.5-0.7c-3.1-0.6-6.2-1-9.5-1.6
									c-0.8-0.1-1.6-0.3-2.5-0.5c-0.8-0.2-1.7-0.3-2.5-0.5c-1.7-0.4-3.4-0.7-5.1-1.2c-3.4-0.9-6.8-2-10.3-3.3
									c-3.4-1.3-6.8-2.9-10.1-4.7c-6.5-3.7-12.7-8.4-17.4-14.4c-0.1-0.5-0.3-1-0.7-1.7c-0.4-0.7-1-1.4-1.6-2.2
									c-1.4-1.7-3.2-3.7-5.3-6c-4.2-4.6-9.3-10.3-13.4-16.1c-4.3-5.9-8-12.3-10.7-17.6C1824.4,342.9,1822.7,338.9,1821.9,337.8z"
									/>
								<path id="XMLID_114_" class="st2" d="M1833.2,263.4l-0.1,0.2C1834.6,265,1834.2,264.2,1833.2,263.4z"/>
								<path id="XMLID_113_" class="st2" d="M1782,403.4c-0.1-0.2-0.2-0.4-0.3-0.5l-1.2,3.6L1782,403.4z"/>
								<path id="XMLID_112_" class="st2" d="M1756.8,285.4c-0.9,2.7-1.3,4.2-1.3,4.9c0,0.7,0.4,0.6,0.9,0.3
									C1756.9,288.6,1757.2,286.8,1756.8,285.4z"/>
								<path id="XMLID_111_" class="st2" d="M1851.8,244.6c0.8-0.3,0.9-0.6,0.7-1c-0.3-0.4-0.9-0.9-1.7-1.2
									c-1.5,1.1-2.5,1.7-2.5,1.7C1849.4,244.1,1850.8,244.6,1851.8,244.6z"/>
								<path id="XMLID_110_" class="st2" d="M1830.9,223.7l-0.2-1.8C1829.6,223,1830,223.5,1830.9,223.7z"/>
							</g>
						</g>
					</g>
				</g>
			</g>
		</g>
		<g id="XMLID_47_" class="st1">
			<rect id="XMLID_50_" x="1083.2" y="-232.6" class="st3" width="743.9" height="773.1"/>
		</g>
		<g id="XMLID_3_" class="st1">
			<g id="XMLID_35_">
				<path id="XMLID_55_" class="st4" d="M828.6,2"/>
			</g>
		</g>
	</g>
</g>
<g id="pizzle">
</g>
<g id="let_us_together">
</g>
<g id="words">
</g>
<g id="圖層_8">
	<g id="XMLID_21_">
		<defs>
			<rect id="XMLID_5_" y="1" width="2267.7" height="470.7"/>
		</defs>
		<clipPath id="XMLID_144_">
			<use xlink:href="#XMLID_5_"  style="overflow:visible;"/>
		</clipPath>
		<g id="XMLID_222_" class="st5">
			<path id="XMLID_78_" class="st6" d="M429.5,133.9l-12,23.3c-6.1-1.5-11.2-2.4-15.3-2.8c-4.2-0.4-8.6,0.4-13.3,2.2
				c-11.2,4.4-15.1,10.7-11.9,18.9c2.3,5.9,11.7,8.8,28,8.8c16.3,0,28.9,2.1,37.8,6.2c8.8,4.2,15.1,10.9,18.8,20.3
				c4.3,10.9,3.6,22.2-2.1,33.9c-5.7,11.7-14.7,19.9-26.8,24.7c-18.4,7.3-36.9,4.7-55.4-7.7l17.5-19c10.5,4.4,19.8,5,28,1.7
				c5.7-2.2,10-5.8,13.1-10.5c3-4.8,3.8-9.2,2.1-13.3c-2.9-7.3-12.9-10.9-30.2-10.8c-17.2,0.1-29.9-1.7-38-5.4
				c-8.1-3.7-13.8-9.9-17.3-18.6c-4.3-10.8-3.7-21.5,1.6-31.9c5.3-10.4,14.1-18.1,26.5-22.9C392.9,126.2,409.2,127.1,429.5,133.9z"
				/>
		</g>
		<path id="XMLID_221_" class="st7" d="M265.9-28.8c-1.9,0.4,1.3,59.5,1.4,63.8c0.3,12.8,0.6,25.5,0.9,38.3c0.2,8.8-0.4,18.3,0.7,27
			c2.6,19.9,10.8,38.8,11.2,59.1c0.3,16.6-13.2,27.2-18.6,42.3c-1.1,3-2,6.5-0.6,9.4c1.6,3.3,14.7-11.1,16.4-12.9
			c3.8-4,7.6-8,11.4-12.1c-2.4,8.5-6.2,16.4-8.9,24.8c-2.1,6.4-3.1,13.4-0.9,19.8c1.5,0.2,3,0.4,4.5,0.5c0.5,0.1,1,0.1,1.5,0
			c0.6-0.2,1-0.7,1.4-1.1c9.1-10.2,12.9-21.9,17.8-34.4c-0.4,1,2.2,6.1,2.6,7.3c1.5,4.3,2.9,8.6,4.6,12.8
			c3.4,8.4,7.5,16.5,12.2,24.3c3.8-0.2,6.3-4.4,6.9-8.2c1.6-9.5-3.2-18.6-4.6-27.8c0,0-4.8-30.8-4.8-30.9c0.2,1.3,25.3,3.6,27.7,3.9
			c1.3,0.2,2.5,0.4,3.8,0.2c1.4-0.2,2.8-0.7,4.1-1.3c4.8-2,11.8-3.5,15.9-6.7c2.1-1.7,3.8-4.2,5.1-6.6c-1.4-1.4-4-2.2-6.1-1.9
			c-0.7,0.1-1.4,0.4-2.1,0.6c-6.9,2.5-13.9,7-20.9,4.4c-7.2-2.6-14.2-5.6-20.9-9.2c-0.3-0.2-0.6-0.3-0.8-0.6c-0.2-0.3-0.2-0.6-0.2-1
			c0.1-3.1,3.2-5.2,6-6.7c2.7-1.4,5.4-2.9,8.2-4.3c0.8-0.4,1.5-0.8,2.4-0.9c0.6-0.1,1.3,0,1.9,0.2c4.8,0.9,9.5,1.7,14.3,2.5
			l12.8-10.1c-8.8-3.2-17.5-6.4-26.3-9.6c-5.1-1.9-10.4-3.3-14.8-6.5c-9.3-6.7-18.4-13.6-27.7-20.4c-0.7-0.5-1.3-1-1.8-1.7
			c-0.7-1-0.8-2.2-0.9-3.4c-4.2-40.7-5.1-81.9-6.1-122.9C294.7-28.8,265.9-28.8,265.9-28.8z"/>
		<g id="XMLID_85_" class="st5">
			<path id="XMLID_92_" class="st8" d="M1179,287.3c-0.2,2.6-0.6,5.9-1.5,8.8c4.3,0.2,8.5,0.9,12.8,0.9c7.9,0,15.8,0,23.7,0
				c9.9,0,19.9,0,29.8,0c9.9,0,19.8,0,29.7,0c7.7,0,15.4,0,23.2,0c16.2,0,32.4-0.6,48.6-0.6c0.4,0,7.6-0.2,7.6-0.3
				c0.5-4.3,0-9.3,0-13.6c0-6.6,0-13.3,0-19.9c0-13.3,0-26.5,0-39.8c0-6.6,0-13.3,0-19.9c0-11.9,0.1-23.8,0.2-35.7
				c0-6.1,0.2-12.2,0.2-18.2c0-3.2,0.3-6.4,0.2-9.5c0-2.3-1.3-4.8-1.1-7c0.1-1.7,1.4-3,1.4-4.6v-0.8h-72.9c-0.7-6,4.7-10.3,5.8-15.3
				c2.2-10.6,1.2-28.3-10.8-33.2c-3.3-1.3-7-1.1-10.6-0.5c-1.2,0.2-2.4,0.5-3.6,0.8c-5.2,1.3-11.3,3.2-14.5,7.9
				c-2.6,3.8-2.7,8.7-2.7,13.3c0,4.2-0.1,8.5,0.5,12.6c0.7,4.6,3.2,5.7,5.5,9.4c1.2,2,1.9,4.9,1.1,6.9c-8.1,0-16.2,0-24.3,0
				c-12.2,0-24.4-0.4-36.6-0.3c-3.3,0-6.6-0.1-9.9,0c0.3,0-1.3,2.9-1.5,3.1c-0.8,0.9-1.3,1.5-1.7,2.6c-0.9,2.4-1.3,5.1-1.4,7.6
				c-0.3,5.2,0.3,10.5-0.5,15.8c-1.2,8.6-2.5,17.1-2.5,25.7c0,0,2.7,22.3,21,18.6c8.2-1.6,26.3-12.6,31.4-1.5
				c1.3,2.8,3.2,3.6,3.1,6.6c0,4.2-0.3,8.4-0.7,12.6c-0.5,4.6-3.7,5.2-7,8.4c-2.7,2.6-4.1,7.9-7.7,8.8c-3.1,0.8-6.4,1.6-9.5,0.9
				c-2.9-0.7-5.3-2.6-7.9-4c-4.7-2.4-10.4-3-15.5-1.6c-0.7,0.2-1.4,0.4-1.9,0.9c-0.8,0.8-0.9,2.1-0.9,3.3c0,6.9-1.8,14.9,0,21.5
				c1.7,6.4,1.8,13.2,1.6,19.8c-0.2,5.2-1.1,11.5-0.2,16.6c0.1,0.6,0.2-0.6-0.2,2.4h174.3c-0.3-3-0.5-2.8-0.6-3.9"/>
			<path id="XMLID_91_" class="st6" d="M1178.4,296.9c0.3,0,0.4,0,0.4,0c1.5-3,1-13.2,1.1-14.9c0.6-8.2-0.7-16-1.8-24.1
				c-1-7-1.7-18.9,4.9-23.4c7.1-4.9,15.6,2.7,22.7,3.6c3.7,0.5,8.3,0,11.7-1.5c5.4-2.3,8.7-8,9.7-13.8c0.7-3.9,2.3-8.3,2.1-12.2
				c-0.1-1.6-0.4-3.2-0.8-4.7c-0.7-3,0.7-5.1-1-7.6c-1.7-2.6-6.7-5.6-9.8-5.3c-1.2,0.1-2.3,0.6-3.5,0.9c-2.1,0.6-4.3,0.7-6.4,1.3
				c-6.7,2.1-13.1,5.5-20.4,3.3c-5.5-1.6-8.8-7.4-9.7-13.1c-1.2-8.1,0.2-17,0.4-25.2c0.2-6.3,0.3-12.7,0.4-19
				c0.1-4.4,0.6-9,2.7-12.8c-12.6-0.3-25.2-0.1-37.9-0.1c-10.3,0-20.6,0.3-31,0.3c-9.7,0-19.3,0.2-29,0.2c-9.1,0-18.2,0-27.2,0
				c-9.7,0-19.3,0-29,0c-4.5,0-9,0-13.5,0c-1,2-1.4,3-1.5,5.5c-0.1,2.5-0.2,4.8-0.2,7.3c-0.1,5-0.2,10,0,15.1
				c0.4,8.8-1.6,19.7,0.8,28.1c0.8,2.9,2.6,7.7,5.3,9c4.7,2.3,8.3,1,11.9,0c6.7-1.8,16.4-7.9,21.7-0.2c2.1,3,2.5,6.9,2.5,10.6
				c-0.2,9.8-8.2,18.2-18.6,15.5c-9-2.3-20.5-13.4-24.8,1.6c-6,20.9-5.2,40.9-2.8,62.2c0.5,4.1,1.2,8.6,2.2,12.6
				C1010.1,296.2,1169.4,296.9,1178.4,296.9z"/>
			<path id="XMLID_90_" class="st8" d="M840.4,282.4c-0.7,3.8-2.6,7.5-0.8,11.2c0.4,0.8,0.7,0.3,0.7,3.3h170.1c0.6-4,0.8-6.8,0.8-10
				c0-10.8-0.6-22-1.3-32.8c-0.7-10.6-3.9-23.5,1.7-33.4c2.1-3.7,6.3-6.6,10.4-5.6c3.6,0.8,6,4.1,9.3,5.9c4,2.1,8.8,1.6,13.2,0.7
				c2.6-0.6,5.4-1.4,7.3-3.3c4.1-3.9,3.5-10.5,2.6-16c-0.7-4.5-1.8-9.4-5.5-12c-3.3-2.2-7.7-1.9-11.5-0.7c-3.8,1.2-7.3,3.1-11.2,3.9
				c-3.9,0.8-8.5,0-10.8-3.2c-2.7-3.7-2.2-11.8-2.5-16.1c-0.6-8.4-0.7-16.5-0.4-25c0-7,1.4-14.4,1.4-20.4h-58
				c-15.2-2-6.3-21.2-6.4-31c-0.1-6.7-2.6-14-8.2-17.6c-7.8-5.1-18.2-1.8-26.6,2.3c-2.3,1.1-4.7,2.4-6.1,4.6
				c-1.5,2.4-1.4,5.5-1.2,8.3c0.3,4.4,1.5,8.9,2.2,13.2c0.8,5,3.2,11.8,2.3,16.8c-0.2,0.9-0.6,1.4-1.5,1.4c-1.4,0-2.7,0-4.1,0
				c-12.6,0-25.3,0-37.9,0c-6.3,0-12.6,0-19,0c-2.2,0-8.3-0.7-9.7,1.4c-0.6,0.8-0.7,2-0.9,3c-2.4,18.5-0.7,38.1,2,56.5
				c1.2,8.4,6.5,13.5,15.3,11.7c11-2.2,27.9-11.7,36.3,0.1c3.1,4.2,4,9.7,4.3,14.9c0.2,4.9-0.2,10-2.1,14.6
				c-1.9,4.6-5.5,8.6-10.2,10.2c-4.7,1.6-9.9,0.7-14.6-0.7c-4.7-1.4-9.4-3.4-14.3-3.9c-4.9-0.5-10.4,0.8-13.4,4.7
				c-4.8,6.2-2.3,15.7-1.5,22.8C841.3,268.9,841.6,275.8,840.4,282.4z"/>
			<path id="XMLID_89_" class="st6" d="M840.6,294.8c-1-8.4,2.2-16.9,1.3-25.5c-0.8-7.4-3.4-15.8-1.5-23.1c0.9-3.6,3.3-7.2,6.7-8.7
				c6.5-2.9,14.9,0.9,21.4,2.4c7.2,1.6,13.9,1.4,20.3-2.5c12.1-7.4,12.9-37.1-1.6-42.3c-5.8-2-12.1-0.9-18,0.7
				c-5.9,1.6-11.8,3.7-17.9,3.4c-3-0.1-6.2-1-7.9-3.4c-1.2-1.6-1.6-3.7-1.9-5.7c0-0.4-0.1-0.7-0.1-1.1c-2.6-19.7-0.6-40.8-0.6-60.7
				c0-1.4-20.5-0.2-22.4-0.2c-12.4,0-24.8,0.1-37.2,0.1c-26,0.1-52.1,0.1-78.1,0.2c-6.4,0-12.8,0-19.3,0c-1.4-0.6-3,0.6-4,1.8
				c-3,3.9-1.2,7.9-0.6,12.2c0.6,4.4-0.6,8.9-0.7,13.3c-0.2,9.6,9.6,28-0.6,35c-5.4,3.8-9.4,4.7-16,2.1c-3.9-1.5-7.5-3.7-11.5-5.2
				c-4.2-1.5-8.7-2.2-13.1-2c-1,0.1-2.1,0.2-3,0.7c-0.9,0.5-1.4,1.4-2,2.2c-4.2,6.4-8.4,13.2-8.9,20.9c-0.4,6.2,1.9,12.3,4.4,18
				c1.2,2.8,2.7,5.8,5.3,7.5c7.2,4.5,18.7-1.1,25.8-3.1c7.2-2,18.5-3.6,22.1,4.9c1.4,3.4,0.9,9.2,0.4,12.8c-0.7,5-0.7,10.2-0.9,15.3
				c-0.3,10.2-0.1,20.4,0.3,30.6c0,0,66.1,0.2,66.2,0.2c2.7,0-0.4-12.2-0.8-13.5c-1.2-4.1-3.2-8-4.3-12.1c-0.4-1.3-0.6-2.3-0.7-2.8
				c-1.6-9.2,3.4-13.2,11.9-15.8c8.3-2.5,18.4-2.6,25.9,2.3c3.4,2.2,5.8,5.4,7,9.3c1.5,4.8,0.3,11-0.9,15.8
				c-1.5,5.8-2,11.1-3.9,18.1h59.7C840.7,293.9,840.6,295.2,840.6,294.8z"/>
			<path id="XMLID_88_" class="st9" d="M682.4,130.3c0.2-0.6,0.5-1,0.8-1.6c-1.4,0-2.8,0.3-4.2,0.3c-18.8,0-37.6,0-56.3,0
				c-37.4,0-74.8,0-112.3,0c-4.4,0-2.8,5.7-2.9,9.2c-0.1,4.5-0.3,8.8-0.4,13.2c-0.2,8.7,0.3,17.3,0.3,25.9c0,16.4,0.6,32.7,0.6,49.1
				c0,19.4,0,38.9,0,58.3c0,3.2,0,10.9,0,10.9l69.5,0.6c1.2,1.6,1,4.2,0.7,6.1c-0.7,5-4.1,9.7-5,14.9c-1.3,7.1-0.9,14.6,1.4,21.5
				c1.2,3.5,2.8,7,5.7,9.3c3,2.3,7,3.1,10.8,2.9c3.8-0.2,7.5-1.4,11.1-2.5c3.4-1.1,7-2.3,9.4-5c2-2.3,2.9-5.4,3.4-8.4
				c1.3-8.5-0.8-16.6-2.6-24.7c-0.4-1.7-3.8-16.3-0.1-16.3c0,0,68.3,0,68.3,0c1.8-6,1.1-16.9,1.2-25.4c0.2-13.1,6-43-15.9-39.3
				c-18.3,3.7-33,13.6-39.1-5.9c-3.6-11.5-4.7-30.1,10.4-33.9c5.1-1.3,10.4,0,15.4,1.5c5,1.5,10,3.4,15.2,3.6
				c16.1,0.4,16.1-14.5,14.1-26.4C679.8,156.4,677.9,141.6,682.4,130.3z"/>
			<path id="XMLID_87_" class="st6" d="M1513.8,290.7c0.6-3.1,1.2-6.2,1.9-9.2c1-5,0.8-10.4-0.8-15.2c-3-9.6-4.8-15.4-0.6-25.1
				c3.2-7.4,9.6-10.1,17.4-8.4c10.9,2.3,18.8,9.4,29.8,2.7c12.1-7.4,12.9-37.1-1.6-42.3c-5.8-2-12.1-0.9-18,0.7
				c-5.9,1.6-11.8,3.7-17.9,3.4c-3-0.1-6.2-1-7.9-3.4c-1.2-1.6-1.6-3.7-1.9-5.7c0-0.4-0.1-0.7-0.1-1.1c-1.8-13.9-1.1-27.8-0.4-41.7
				c0.3-5.4,0.9-10.8,1.2-16.2c0-0.6,0-1.2-0.5-1.5c-0.3-0.3-0.8-0.5-1.3-0.5c-8,0.1-16-0.2-23.9-0.2c-0.2,0-0.5,0-0.7,0
				c-41,0-82,0-123,0c-4.3,0-8.6,0-12.8,0c-2.4,0-0.9,16.5-1.1,18.4c-1.2,14.3,3.9,29.1-0.9,43.1c-0.5,1.5-1.1,3-2.3,4.1
				c-2.8,2.7-7.2,0.4-10.3-0.4c-7-1.9-14.1-3.2-21.3-4.1c-2.6-0.3-5.3-0.5-7.8,0.5c-1.9,0.8-3.5,2.3-4.9,3.9
				c-3.3,3.6-6.4,7.6-7.5,12.4c-1.7,7,1.2,14.2,4,20.8c1.2,2.8,2.5,5.7,5,7.4c2.1,1.4,4.7,1.7,7.2,1.6c6.5-0.3,12.7-2.8,19-4.5
				c7.2-2,23-4.3,22.1,4.9c-1.1,11.5-0.1,15.4-0.4,22.6c-0.3,6-0.5,12.1-0.5,18.2c0,6.7,0.5,13.3,0.4,20c0.2,0,0.5,0,0.7,0
				c6.9,0,13.9-0.1,20.8-0.1c10,0,20.1-0.1,30.1-0.1c3.4,0,6.7,0,10.1,0c1.3,0,2.5,0.3,3.1-1c1.6-3.5,0.9-8.9,0.2-12.6
				c-3.5-18.1-11.6-26.4,7.7-32.3s41,3.9,31.2,27.9c-0.8,1.9-0.9,5-1.3,7.1c-0.6,3-0.8,6.1-1.5,9.1c-0.2,0.7-0.7,1.5,0,1.8
				c0.1,0.1,0.4,0,0.6,0c1.6,0,3.2,0,4.7,0c5.7,0,11.5,0.1,17.2,0.1c6.7,0,13.4,0.1,20.1,0.1c5.1,0,15.2,0.1,15.2,0.1l1.4-0.8
				C1513.1,295,1513.6,291.6,1513.8,290.7z"/>
			<line id="XMLID_86_" class="st3" x1="1143.2" y1="297.5" x2="1218.7" y2="297.5"/>
		</g>
		<g id="XMLID_77_" class="st5">
			<rect id="XMLID_135_" x="1067.7" y="326.5" class="st3" width="674.9" height="100.4"/>
			<path id="XMLID_15_" d="M1090.9,366.6h-19.7v-32h6.1v26.8h13.6V366.6z"/>
			<path id="XMLID_18_" d="M1119.5,359l4.8,0.7c-0.6,2.1-1.8,3.9-3.7,5.3s-4.1,2.1-6.8,2.1c-3.3,0-5.9-1.1-7.9-3.3s-3-5.2-3-9
				c0-3.6,1-6.5,3-8.9s4.8-3.5,8.2-3.5c3.4,0,6,1.2,7.8,3.5s2.8,5.3,2.8,8.9l0,0.6h-16.2c0,1.6,0.2,2.9,0.5,3.9s0.9,1.8,1.8,2.5
				s2,1.1,3.4,1.1C1116.8,362.9,1118.6,361.6,1119.5,359z M1119.2,351.9c0-1.7-0.5-3.1-1.5-4.2s-2.3-1.6-3.7-1.6
				c-1.5,0-2.7,0.5-3.7,1.5s-1.6,2.4-1.7,4.3H1119.2z"/>
			<path id="XMLID_25_" d="M1149.9,362.4v4.2c-1.6,0.3-2.8,0.5-3.7,0.5c-1.4,0-2.7-0.3-3.7-0.9s-1.8-1.4-2.3-2.3s-0.7-2.5-0.7-4.6
				V347h-3v-4.1h3.3l0.5-6.2l4.4-0.4v6.6h4.8v4.1h-4.8v11.6c0,1.5,0.3,2.5,0.8,3s1.6,0.8,3.1,0.8
				C1149,362.4,1149.4,362.4,1149.9,362.4z"/>
			<path id="XMLID_27_" d="M1205.1,366.6h-5v-5.1c-1.3,3.7-3.8,5.6-7.5,5.6c-2.2,0-3.9-0.7-5.1-2s-1.9-3.2-1.9-5.6v-16.6h5.5v15.4
				c0,1.7,0.4,2.8,1.1,3.4s1.5,0.8,2.2,0.8c1.2,0,2.3-0.5,3.5-1.6s1.8-3.3,1.8-6.6v-11.4h5.3V366.6z"/>
			<path id="XMLID_30_" d="M1218.2,361.1l5-1c0.8,1.9,2.5,2.9,5.1,2.9c3.3,0,5-1,5-2.9c0-0.6-0.3-1.1-0.8-1.5s-1.1-0.7-1.8-0.8
				l-4.3-0.8c-4.8-0.9-7.2-3.3-7.2-7c0-2.1,0.8-3.9,2.3-5.3s3.8-2.2,6.8-2.2c5,0,8.1,1.8,9.2,5.5l-4.8,1c-0.5-1.8-1.9-2.7-4.3-2.7
				c-2.8,0-4.3,0.9-4.3,2.7c0,1.2,1.1,2.1,3.4,2.6l5.1,1.1c4,0.8,5.9,3.1,5.9,6.8c0,2.6-1,4.6-3,5.8s-4.4,1.9-7.2,1.9
				c-2.4,0-4.6-0.5-6.4-1.5S1218.8,363.1,1218.2,361.1z"/>
			<path id="XMLID_36_" d="M1285.1,362.4v4.2c-1.6,0.3-2.8,0.5-3.7,0.5c-1.4,0-2.7-0.3-3.7-0.9s-1.8-1.4-2.3-2.3s-0.7-2.5-0.7-4.6
				V347h-3v-4.1h3.3l0.5-6.2l4.4-0.4v6.6h4.8v4.1h-4.8v11.6c0,1.5,0.3,2.5,0.8,3s1.6,0.8,3.1,0.8
				C1284.1,362.4,1284.6,362.4,1285.1,362.4z"/>
			<path id="XMLID_38_" d="M1307.5,367c-3.5,0-6.2-1.3-8-3.8s-2.8-5.4-2.8-8.6c0-3.5,1-6.4,3.1-8.7s4.7-3.5,8.1-3.5
				c3.2,0,5.8,1.1,7.8,3.4s3.1,5.2,3.1,8.8c0,3.7-1.1,6.7-3.2,9S1310.8,367,1307.5,367z M1307.7,362.6c3.6,0,5.4-2.7,5.4-8
				c0-2.4-0.4-4.3-1.3-5.7s-2.2-2.1-4-2.1c-1.8,0-3.2,0.7-4.1,2.2s-1.3,3.4-1.3,5.8c0,2.6,0.5,4.5,1.4,5.9
				S1306.1,362.6,1307.7,362.6z"/>
			<path id="XMLID_41_" d="M1354.9,338.4v4.1h-1.6c-0.7,0-1.3,0.1-1.9,0.3s-1.1,0.7-1.6,1.7c1.9,1.5,2.8,3.2,2.8,5.1
				c0,2.1-0.9,3.8-2.6,5.2s-4.1,2.1-7,2.1c-1.3,0-2.7-0.2-4.4-0.6c-1.1,0.5-1.6,1.3-1.6,2.3c0,0.6,0.3,1.1,0.8,1.6s1.3,0.7,2.4,0.7
				h7c2.4,0,4.3,0.6,5.7,1.9s2.1,2.8,2.1,4.6c0,2.2-1,4.1-3.1,5.6s-5.1,2.2-9.2,2.2c-7.6,0-11.5-2.1-11.5-6.4c0-2.1,1.1-3.7,3.4-4.8
				c-1.5-1.3-2.2-2.6-2.2-3.9c0-2.1,1.3-3.7,3.8-4.9c-2.2-1.3-3.3-3.2-3.3-5.5c0-2,0.8-3.6,2.4-5s4.1-2.1,7.3-2.1
				c1.5,0,3,0.2,4.6,0.5c0.7-3,2.6-4.5,5.7-4.5H1354.9z M1336.9,365.3c-0.8,0.7-1.1,1.4-1.1,2c0,1.1,0.6,2,1.9,2.8s3.3,1.2,6.1,1.2
				c4.1,0,6.2-1.1,6.2-3.2c0-0.8-0.4-1.4-1.1-1.8s-1.5-0.6-2.5-0.6h-5.7C1339.6,365.9,1338.3,365.7,1336.9,365.3z M1342.7,353.6
				c2.9,0,4.4-1.4,4.4-4.1c0-1-0.4-1.9-1.1-2.6s-1.8-1.1-3.2-1.1c-1.4,0-2.5,0.4-3.3,1.1s-1.2,1.7-1.2,2.8c0,1.2,0.4,2.1,1.1,2.8
				S1341.4,353.6,1342.7,353.6z"/>
			<path id="XMLID_45_" d="M1382.8,359l4.8,0.7c-0.6,2.1-1.8,3.9-3.7,5.3s-4.1,2.1-6.8,2.1c-3.3,0-5.9-1.1-7.9-3.3s-3-5.2-3-9
				c0-3.6,1-6.5,3-8.9s4.8-3.5,8.2-3.5c3.4,0,6,1.2,7.8,3.5s2.8,5.3,2.8,8.9l0,0.6h-16.2c0,1.6,0.2,2.9,0.5,3.9s0.9,1.8,1.8,2.5
				s2,1.1,3.4,1.1C1380.1,362.9,1381.9,361.6,1382.8,359z M1382.5,351.9c0-1.7-0.5-3.1-1.5-4.2s-2.3-1.6-3.7-1.6
				c-1.5,0-2.7,0.5-3.7,1.5s-1.6,2.4-1.7,4.3H1382.5z"/>
			<path id="XMLID_51_" d="M1413.2,362.4v4.2c-1.6,0.3-2.8,0.5-3.7,0.5c-1.4,0-2.7-0.3-3.7-0.9s-1.8-1.4-2.3-2.3s-0.7-2.5-0.7-4.6
				V347h-3v-4.1h3.3l0.5-6.2l4.4-0.4v6.6h4.8v4.1h-4.8v11.6c0,1.5,0.3,2.5,0.8,3s1.6,0.8,3.1,0.8
				C1412.3,362.4,1412.7,362.4,1413.2,362.4z"/>
			<path id="XMLID_61_" d="M1446.9,366.6h-5.3v-15.5c0-1.7-0.4-2.8-1.1-3.5s-1.5-1-2.5-1c-1.5,0-2.8,0.6-3.8,1.8s-1.5,3.2-1.5,6
				v12.3h-5.3v-32h5.3V347c1.3-3.4,3.7-5.1,7-5.1c4.9,0,7.3,2.8,7.3,8.4V366.6z"/>
			<path id="XMLID_63_" d="M1478,359l4.8,0.7c-0.6,2.1-1.8,3.9-3.7,5.3s-4.1,2.1-6.8,2.1c-3.3,0-5.9-1.1-7.9-3.3s-3-5.2-3-9
				c0-3.6,1-6.5,3-8.9s4.8-3.5,8.2-3.5c3.4,0,6,1.2,7.8,3.5s2.8,5.3,2.8,8.9l0,0.6h-16.2c0,1.6,0.2,2.9,0.5,3.9s0.9,1.8,1.8,2.5
				s2,1.1,3.4,1.1C1475.3,362.9,1477,361.6,1478,359z M1477.6,351.9c0-1.7-0.5-3.1-1.5-4.2s-2.3-1.6-3.7-1.6c-1.5,0-2.7,0.5-3.7,1.5
				s-1.6,2.4-1.7,4.3H1477.6z"/>
			<path id="XMLID_133_" d="M1503,366.6h-5.3v-23.7h4.8v5.6c0.7-2.2,1.6-3.8,2.8-4.8s2.4-1.5,3.7-1.5c0.2,0,0.4,0,0.7,0v5.7
				c-2.7,0-4.5,0.9-5.4,2.6s-1.3,3.4-1.3,5V366.6z"/>
		</g>
		<path id="XMLID_66_" class="st10" d="M1480.6,236.4c0.1,1.3-0.6,1.9-2,1.9c-0.9,0-3.4-0.5-7.7-1.5c-4.2-1-6.8-1.7-7.8-2.1
			c-9.8,3.8-19.1,5.7-28.1,5.7c-14.4,0-26.2-4.8-35.5-14.4c-9.1-9.5-13.7-21.4-13.7-35.9c0-14.8,4.4-27.1,13.3-36.8
			c9.1-10.1,21-15.1,35.6-15.1c7.1,0,13.8,1.4,20,4.1c6.8,3,12.1,7.2,16,12.6c0.8,1.1,1.2,1.9,1.2,2.4c0,1.5-2.1,4.8-6.3,10
			c-4.2,5.2-6.9,7.8-8.1,7.8c-0.3,0-1.4-1-3.2-2.9c-2.3-2.3-4.6-4.1-7-5.3c-3.5-1.9-7.5-2.9-11.8-2.9c-7,0-12.6,2.6-16.7,7.8
			c-3.8,4.8-5.7,10.8-5.7,18c0,7.6,2,13.6,5.9,18.1c4.1,4.6,9.9,6.9,17.4,6.9c4.8,0,10.1-1.2,16-3.6c-0.1-1.5-0.6-5.5-1.3-11.8
			c-0.6-4.9-0.9-8.8-0.9-11.8c0-0.9,0.3-1.4,0.9-1.6c0.2-0.1,0.6-0.1,1.1-0.1c1.4,0,3.4,0.1,6.1,0.4c2.7,0.3,4.8,0.4,6.2,0.4
			c1.5,0,3.7-0.1,6.7-0.3c3-0.2,5.2-0.3,6.7-0.3c1.2,0,1.7,0.8,1.7,2.3c0,2.2-0.1,5.6-0.4,10.1c-0.3,4.5-0.4,7.9-0.4,10.1
			c0,6,0.4,15,1.3,27L1480.6,236.4z"/>
		<path id="XMLID_58_" class="st10" d="M623.2,243.8c0,1-0.2,1.6-0.6,1.8c-0.2,0.1-0.8,0.3-2,0.3c-2.8,0.3-6.9,0.4-12,0.4
			c-7.3,0-11.6-0.1-12.9-0.4c-1.3-0.3-1.9-0.9-1.9-1.9c0-3.7,0.2-9.2,0.5-16.6c0.3-7.4,0.5-12.9,0.5-16.6c0-1.8-0.5-2.9-1.5-3.1
			c-1.6-0.4-7.2-0.6-16.9-0.6c-9.8,0-15.4,0.2-17.1,0.6c-1,0.2-1.5,1.3-1.5,3.1c0,3.6,0.1,9.1,0.3,16.3c0.2,7.3,0.3,12.7,0.3,16.3
			c0,1.4-0.6,2.2-1.9,2.4c-1.5,0.3-5.9,0.4-13.2,0.4c-6.3,0-10.3-0.1-12-0.4c-1.4-0.2-2-1-2-2.2c0-5,0.2-12.6,0.7-22.8
			c0.5-10.2,0.7-17.8,0.7-22.9c0-5.4-0.2-13.5-0.7-24.4c-0.5-10.8-0.7-19-0.7-24.4c0-1,0.5-1.5,1.5-1.5c1.4,0,3.6,0.1,6.5,0.2
			c2.9,0.1,5.1,0.2,6.5,0.2c1.5,0,3.7-0.1,6.8-0.2s5.3-0.2,6.8-0.2c0.8,0,1.2,0.4,1.2,1.3c0,3.5-0.3,8.7-0.8,15.7
			c-0.5,7-0.8,12.2-0.8,15.7c0,1.6,0.4,2.6,1.3,2.9c1.2,0.4,7.2,0.6,17.9,0.6c10,0,15.8-0.2,17.4-0.6c1.1-0.3,1.7-1.2,1.7-2.9
			c0-3.4-0.2-8.4-0.5-15.2c-0.3-6.8-0.5-11.9-0.5-15.3c0-1.4,0.6-2.2,1.7-2.2c1.4,0,3.4,0.1,6.2,0.2c2.8,0.1,4.9,0.2,6.3,0.2
			c1.4,0,3.4-0.1,6.2-0.2c2.8-0.1,4.9-0.2,6.3-0.2c1.4,0,2,0.6,2,1.7c0,5.4-0.2,13.5-0.7,24.3c-0.4,10.8-0.7,18.9-0.7,24.4
			c0,5.1,0.2,12.7,0.7,22.9C622.9,231.1,623.2,238.8,623.2,243.8z"/>
		<path id="XMLID_34_" class="st10" d="M809.7,245c0,0.8-0.6,1.4-1.7,1.7c-1.4,0.4-5.7,0.6-13,0.6c-6.7,0-11-0.2-12.9-0.6
			c-1.6-0.3-2.6-1.4-3-3.1c-1.6-6.7-2.8-10.3-3.7-10.8c-0.7-0.3-7-0.5-18.8-0.5c-7.9,0-12.2,0.2-12.7,0.6c-0.8,0.7-1.7,3.2-2.7,7.5
			c-0.9,3.9-2,6-3.2,6.3c-1.6,0.4-6.9,0.6-16,0.6c-7.1,0-10.7-0.7-10.7-2c0-1.2,5.3-16.1,15.8-44.7c11.4-30.9,17.6-47.9,18.6-51
			c0.6-1.8,1.2-2.7,2-2.7c1.3,0,3.2,0.1,5.8,0.3c2.6,0.2,4.6,0.3,5.9,0.3c1.3,0,3.1-0.1,5.6-0.2c2.4-0.2,4.3-0.2,5.5-0.2
			c0.9,0,1.7,0.8,2.4,2.3c2.3,4.9,9,21.7,20,50.4C804.2,228.7,809.7,243.7,809.7,245z M760.1,181.2c-1,2.1-2.6,6.5-5,13.4
			c-2.5,7.3-3.8,11.5-3.8,12.8c0,0.8,1.4,1.3,4.2,1.4c1.4,0.1,3.8,0.1,7.1,0.1c3.1,0,4.8-0.4,5.1-1.1c0.1-0.2,0.1-0.6,0.1-1
			c0-1.5-1.1-5.8-3.2-12.7C762.6,187.4,761.1,183.1,760.1,181.2z"/>
		<path id="XMLID_20_" class="st10" d="M988,245.5c0,0.3-0.5,0.6-1.4,0.7c-1.8,0.3-6.2,0.4-13.4,0.4c-6.1,0-10.3-0.1-12.5-0.4
			c-1-0.1-1.6-0.3-1.7-0.3c-0.3-0.1-0.6-0.6-1-1.4c-0.7-1.8-1.7-4.5-3.1-8.1c-1.8-4.7-4.7-11.5-8.5-20.6c-0.8-1.8-2.8-2.8-5.8-3
			c1.4,0.1-1,0.1-7.2,0.1c-0.7,0-1,1.2-1,3.6c0,3.2,0.3,7.9,0.9,14.2c0.6,6.3,0.9,11,0.9,14.2c0,0.8-0.2,1.3-0.6,1.4
			c-0.7,0-1.3,0.1-2,0.1c-2.8,0.2-7,0.3-12.9,0.3c-6.7,0-10.7-0.1-12-0.4c-1.4-0.3-2-1-2-2.2c0-5.1,0.2-12.9,0.7-23.2
			s0.7-18.1,0.7-23.3c0-19.7-0.4-35.1-1.3-46.2l-0.1-1c0-0.8,0.7-1.3,2.2-1.6c1.5-0.3,8.6-0.6,21.4-0.8c8.6-0.2,15.5-0.3,20.6-0.3
			c10.6,0,19.3,2.4,26,7.2c7.6,5.4,11.4,13.2,11.4,23.4c0,6.8-1,12.2-2.9,16.3c-2,4.1-5.6,8-10.8,11.8c-1.1,0.7-1.6,1.4-1.6,2.1
			c0,0,2.8,5.8,8.5,17.6C985.2,237.8,988,244.3,988,245.5z M958.6,182.7c0-5.7-1.9-9.6-5.6-11.8c-2.9-1.7-7.4-2.5-13.6-2.5
			c-4.4,0-6.8,0.7-7.1,2c-0.3,1.6-0.4,6.2-0.4,13.7c0,1.1,0,2.7,0.1,4.8c0,2.1,0.1,3.7,0.1,4.7c0,0.2,0.7,0.5,2.2,0.7
			c2.8,0.4,5.8,0.6,9,0.6C953.5,194.9,958.6,190.8,958.6,182.7z"/>
		<path id="XMLID_8_" class="st10" d="M1114.8,195c0,5.5,0.1,13.8,0.4,24.8c0.3,11.1,0.4,19.3,0.4,24.8c0,0.9-0.2,1.5-0.6,1.7
			c-0.1,0-0.7,0.1-1.8,0.3c-3,0.4-7.1,0.6-12.2,0.6c-6.8,0-11.2-0.2-13-0.6c-1.4-0.3-2-1-2-2.2c0,0.7,0.2-3.4,0.6-12.3
			c0.8-18.9,1.3-31.3,1.3-37.2c0-5-0.2-12.5-0.5-22.5c-0.3-10-0.5-17.5-0.5-22.5c0-1,0.5-1.5,1.6-1.5c1.4,0,3.6,0.1,6.5,0.2
			c2.9,0.1,5.1,0.2,6.5,0.2c1.4,0,3.6-0.1,6.4-0.2c2.8-0.1,5-0.2,6.4-0.2c1.4,0,2,0.5,2,1.5c0,5-0.3,12.5-0.8,22.5
			C1115,182.5,1114.8,190,1114.8,195z"/>
		<path id="XMLID_6_" class="st10" d="M1310.6,151.6c0,5.3-0.2,13.3-0.7,24c-0.4,10.7-0.7,18.7-0.7,24v46.1c0,1.3-0.7,1.9-2,1.9
			c-1.1,0-2.8,0-5.1,0.1c-2.3,0.1-4,0.1-5.1,0.1c-1.2,0-3-0.1-5.5-0.3c-2.4-0.2-4.2-0.3-5.5-0.3c-0.8,0-1.8-0.8-3-2.3
			c-3.4-4.5-10.9-14.6-22.7-30.1c-3.2-4.3-8.1-10.7-14.7-19.2c-0.2-0.3-0.5-0.6-1-0.8c-0.4,0.3-0.6,0.8-0.6,1.5
			c0,5.4,0.2,13.5,0.5,24.4c0.3,10.8,0.5,18.9,0.5,24.4c0,1.6-0.6,2.4-1.9,2.4H1219c-1.4,0-2-0.7-2-2.2c0-5,0.2-12.6,0.7-22.8
			c0.5-10.2,0.7-17.8,0.7-22.9c0-5.4-0.2-13.4-0.7-24.1c-0.4-10.7-0.7-18.7-0.7-24c0-1,0.9-1.5,2.7-1.5c2.7,0,6-0.2,10-0.6
			c0.9-0.1,2.8-0.4,5.5-0.9c2.3-0.4,4.2-0.6,5.5-0.6c0.6,0,1.4,0.8,2.6,2.4l26.1,35.8c2.3,3.2,5.9,7.9,10.6,14.1
			c1.2,1.4,2.2,2.2,3,2.2c0.6,0,0.9-1.8,0.9-5.5c0-4.9-0.3-12.3-0.8-22.1c-0.5-9.8-0.8-17.2-0.8-22.2c0-1.7,0.5-2.6,1.5-2.6
			c2.8,0,7-0.1,12.7-0.3c5.6-0.2,9.9-0.3,12.7-0.3C1310.2,149.4,1310.6,150.1,1310.6,151.6z"/>
	</g>
	<g id="XMLID_2_">
	</g>
	<g id="XMLID_9_">
	</g>
	<g id="XMLID_137_">
	</g>
	<g id="XMLID_138_">
	</g>
	<g id="XMLID_139_">
	</g>
	<g id="XMLID_140_">
	</g>
	<g id="XMLID_141_">
	</g>
</g>
</svg>
