<?xml version="1.0" encoding="utf-8"?>
<!-- Generator: Adobe Illustrator 19.0.0, SVG Export Plug-In . SVG Version: 6.00 Build 0)  -->
<svg version="1.1" id="圖層_1" xmlns="http://www.w3.org/2000/svg" xmlns:xlink="http://www.w3.org/1999/xlink" x="0px" y="0px"
	 viewBox="0 0 400 300" style="enable-background:new 0 0 400 300;" xml:space="preserve">
<style type="text/css">
	.st0{clip-path:url(#XMLID_6_);fill:#040000;}
</style>
<g id="XMLID_1_">
	<defs>
		<circle id="XMLID_4_" cx="211.1" cy="150" r="150"/>
	</defs>
	<clipPath id="XMLID_6_">
		<use xlink:href="#XMLID_4_"  style="overflow:visible;"/>
	</clipPath>
	<path id="XMLID_3_" class="st0" d="M219.7,0.3c0.8,1,0,11.9,0,14.7c0,8.9,0,8.9,0.3,18.7c0.1,2.3-0.6,4.2-0.4,6.5
		c0.3,3.5,0.8,4.2-1.2,7.1c-6.8,9.9-24.8,2-29-5.9c-1.8-3.3-2.8-7.5-6.1-9.3c-0.6-0.3-1.4-0.5-2-0.2c-0.9,0.5-0.7,1.8-0.5,2.8
		c1.2,4.5,3.2,9,3.8,13.5c-2.5-0.7-4.8-2.2-7.2-3.4l-12-8.4c0,0-13.2-1.2-3.6,6c9.5,7.1,10.2,9.2,10.2,9.3
		c0.5,1.7-14.6-2.8-14.9-2.8c-2.2-0.3-4.6,0.8-5.8,2.7c-0.6,1-0.9,2.4-0.4,3.5c0.6,1.2,1.9,1.8,3.1,2.3c3.9,1.3,7.6,1.2,11.2,2.9
		c1.8,0.8,4.8,4.5,6.7,4.5c-5.8,0-11.2,0.7-16.9,1.6c-3,0.5-6.5,1.2-8,3.9c-0.3,0.6-0.6,1.3-0.4,2c0.4,1.5,2.2,2,3.8,2.1
		c7.5,0.7,15,0.5,22.5,0.1c-2.2,4.3-4.6,8.7-5.9,13.5c-0.2,0.8-0.4,1.8,0.3,2.4c0.7,0.6,1.7,0.2,2.5-0.3c11-6.5,18.1-24.1,33.4-17.5
		c3.2,1.4,8.6,0.9,11.2,3c3.9,3.1,2.7,9.8,2.7,14.1c0,9.5,0.1,18.9,0.1,28.4c0,6.9,2,21.8-0.3,29.5c0,0-5.8,2.3-13.5,2.4
		c-11.1,0.1-37.9-0.6-49-0.6c-5.4,0-10.9,0.1-16.3-0.1c0.5,7-2,15,3.3,21c2.1,2.3,4.9,3.7,7.4,5.7c2.4,1.9,4.6,4.8,4,7.9
		c-0.2,1.2-1,2.4-2.2,2.5c-0.5,0-1-0.2-1.5-0.3c-2.7-1.1-8.1-3.6-10.5-0.7c-0.7,0.9-0.9,2.2-0.9,3.4c0,4.7,1.8,9.5,0.1,13.8
		c-0.2,0.5-0.6,1.1-1.1,1.2c-1,0.2-1.7-0.9-2.1-1.8c-2.1-5.4-3.4-11.7-6.2-16.8c-1.9,4.8-2.6,10.6-3.7,15.7c0,0-3,3.6-3-4.2
		c0-7.8,0-12,0-12l-9.6,12.6c0,0-10.2,5.4-4.8-4.8c1.6-3,3.7-6.3,4.6-9.5c-3.2,1-6.6,2.8-10.2,2.3c-0.6-0.1-1.3-0.3-1.7-0.8
		c-0.9-1.1,0-2.7,0.9-3.7c2.9-3.3,6.6-5.8,10.1-8.5c3.4-2.7,6.8-5.9,8.5-9.9c4.3-10.1-3.7-13.4-12.2-14.3
		c-9.8-1.1-19.7-1.7-29.5-2.4c-6.4-0.5-23.4,0.7-25.3-5.4c-1.8-6.2-1-17.4,0.1-23.5c4.9-27.5,26.1-60.8,47-79.5
		c20.5-18.4,48.8-30.6,75.9-37.8c9.7-2.6,21.3-7.8,31.3-7.4C211.8-7.6,218.3-1.5,219.7,0.3z"/>
	<path id="XMLID_2_" class="st0" d="M212.7,298.5c-1.1-1.2-1.8-3.1-1.8-5.9c0.2-13.7,0.5-27.4,0.5-41c-0.3-3.5-0.8-4.2,1.2-7.1
		c6.8-9.9,24.8-2,29,5.9c1.8,3.3,2.8,7.5,6.1,9.3c0.6,0.3,1.4,0.5,2,0.2c0.9-0.5,0.7-1.8,0.5-2.8c-1.2-4.5-3.2-9-3.8-13.5
		c2.5,0.7,4.8,2.2,7.2,3.4l12,8.4c0,0,13.2,1.2,3.6-6c-9.5-7.1-10.2-9.2-10.2-9.3c-0.5-1.7,14.6,2.8,14.9,2.8
		c2.2,0.3,4.6-0.8,5.8-2.7c0.6-1,0.9-2.4,0.4-3.5c-0.6-1.2-1.9-1.8-3.1-2.3c-3.9-1.3-7.6-1.2-11.2-2.9c-1.8-0.8-4.8-4.5-6.7-4.5
		c5.8,0,11.2-0.7,16.9-1.6c3-0.5,6.5-1.2,8-3.9c0.3-0.6,0.6-1.3,0.4-2c-0.4-1.5-2.2-2-3.8-2.1c-7.5-0.7-15-0.5-22.5-0.1
		c2.2-4.3,4.6-8.7,5.9-13.5c0.2-0.8,0.4-1.8-0.3-2.4c-0.7-0.6-1.7-0.2-2.5,0.3c-11,6.5-18.1,24.1-33.4,17.5c-3.2-1.4-8.6-0.9-11.2-3
		c-3.9-3.1-2.7-9.8-2.7-14.1c-0.1-15.9,2.1-53,2.1-53s0,0,1.2-1.5c4-5,23-3.5,28.6-3.9c3.5-0.2,47-2.7,47.1-1.3c-0.5-7,2-15-3.3-21
		c-2.1-2.3-4.9-3.7-7.4-5.7c-2.4-1.9-4.6-4.8-4-7.9c0.2-1.2,1-2.4,2.2-2.5c0.5,0,1,0.2,1.5,0.3c2.7,1.1,8.1,3.6,10.5,0.7
		c0.7-0.9,0.9-2.2,0.9-3.4c0-4.7-1.8-9.5-0.1-13.8c0.2-0.5,0.6-1.1,1.1-1.2c1-0.2,1.7,0.9,2.1,1.8c2.1,5.4,3.4,11.7,6.2,16.8
		c1.9-4.8,2.6-10.6,3.7-15.7c0,0,3-3.6,3,4.2s0,12,0,12l9.6-12.6c0,0,10.2-5.4,4.8,4.8c-1.6,3-3.7,6.3-4.6,9.5
		c3.2-1,6.6-2.8,10.2-2.3c0.6,0.1,1.3,0.3,1.7,0.8c0.9,1.1,0,2.7-0.9,3.7c-2.9,3.3-6.6,5.8-10.1,8.5c-3.4,2.7-6.8,5.9-8.5,9.9
		c-4.3,10.1,3.7,13.4,12.2,14.3c10.7,1.2,21.5,2,32.3,2.5c5,0.2,20.6-1.4,22.5,5.3c1.8,6.2,1,17.4-0.1,23.5
		c-12.4,69.1-79.9,113.1-145.5,122.8C226.7,298.7,216.7,302.8,212.7,298.5z"/>
</g>
</svg>
