<?xml version="1.0" encoding="utf-8"?>
<!-- Generator: Adobe Illustrator 19.0.0, SVG Export Plug-In . SVG Version: 6.00 Build 0)  -->
<svg version="1.1" id="圖層_1" xmlns="http://www.w3.org/2000/svg" xmlns:xlink="http://www.w3.org/1999/xlink" x="0px" y="0px"
	 viewBox="0 0 621.6 476.1" style="enable-background:new 0 0 621.6 476.1;" xml:space="preserve">
<style type="text/css">
	.st0{opacity:0.47;}
	.st1{fill:#3FA9F5;}
</style>
<g id="puzzle_9_" class="st0">
	<path id="XMLID_92_" class="st1" d="M8.7,73.2c-6.8,42-6.2,85.8-6.9,128.2C0.9,254.5,1,307.7,1.5,360.9c0.2,25.2-4.1,51,1.1,75.9
		c3.5,17.1,20.2,27.3,35.9,31.5c11.4,3.1,23.2,3.6,34.9,3.2c16.2-0.5,32.6,0.2,48.8,0.5c15,0.2,30.2-0.3,45.2,0.9
		c7,0.6,19,0.6,25.2-4c5.9-4.4,5.3-13.7,6.4-20.6c2.7-17.4-2.5-35-20.3-41.7c-12.8-4.8-31.6-1.1-41.3-12.6
		c-11.3-13.4,0.4-26.8,13.5-31.2c5.7-1.9,33-6.9,18.3-15.4c-23.3-13.4-41.3-31.7-32.1-46.6s48.8,11.2,48.8,11.2s-15.1-31,3.9-44.3
		c19-13.3,38.4,29.8,39.2,28.4c10.1-16.8,33.3-42.9,46.1-11.8c5.1,12.4-0.4,30.6-3.8,43c12.9-4.8,28.5-14.9,42.8-10.3
		c20.2,6.4,10.6,28.5,2.8,41c-8.6,13.9-26.2,20-35.5,34.3c-11.3,17.5-13.2,38.7-8.5,58.7c0.7,2.9,3.5,8.9,5.8,14.2
		c2.5,5.8,8.2,9.5,14.5,9.6c52.2,0.8,95,1.4,102.3,1c15.3-0.8,31.8-4.9,39.6-19.5c20.3-38.2,10.4-92,6.5-132.9
		c-2.4-24.7,19-26.2,37.3-19.2c9,3.5,17.9,8.5,25,15.1c11.4,10.5,17.1,25.9,31.4,33.3c11.9,6.2,32.5,7.6,36.1-9.1
		c2.8-13-3.3-26.9-7.8-38.9c-0.2-0.5,0.4-0.8,0.7-0.5c8.7,8,34.1,5,42.2-0.3c23.8-15.7-0.2-33.6-15.6-42.7
		c-1.4-0.8,41.6-20.4,28.2-39.4s-44.3-3.6-44.3-3.6s25.8-39.7,10.9-48.8c-15-9.1-26.9,0.1-41.9,22.5c-14.8,22.3-18.1,11.2-19.9,8.7
		c-6-8.7-11.5-35.4-22.3-33.7c-15.6,2.4-15,18.8-18.2,30.8c-3.9,14.3-14.9,33.1-31.5,34.1c-17.5,1.1-11.7-15.8-10.6-30.5
		c4.1-54.9,19.9-130.2-19.2-176.5c-13.5-16-33.9-21.3-53.9-23.3c-28.1-2.8-56.7-0.9-84.9-0.1L101.3,1.8C101.3,1.8,20.5-0.1,8.7,73.2
		"/>
</g>
<g id="XMLID_14_">
</g>
<g id="XMLID_15_">
</g>
<g id="XMLID_16_">
</g>
<g id="XMLID_17_">
</g>
<g id="XMLID_18_">
</g>
<g id="XMLID_19_">
</g>
<g id="XMLID_20_">
</g>
<g id="XMLID_21_">
</g>
<g id="XMLID_22_">
</g>
<g id="XMLID_23_">
</g>
<g id="XMLID_24_">
</g>
<g id="XMLID_25_">
</g>
<g id="XMLID_26_">
</g>
<g id="XMLID_27_">
</g>
<g id="XMLID_28_">
</g>
</svg>
