<?xml version="1.0" encoding="utf-8"?>
<!-- Generator: Adobe Illustrator 19.0.0, SVG Export Plug-In . SVG Version: 6.00 Build 0)  -->
<svg version="1.1" id="圖層_1" xmlns="http://www.w3.org/2000/svg" xmlns:xlink="http://www.w3.org/1999/xlink" x="0px" y="0px"
	 viewBox="0 0 719.6 378.7" style="enable-background:new 0 0 719.6 378.7;" xml:space="preserve">
<style type="text/css">
	.st0{fill:#FFFFFF;}
	.st1{fill:none;stroke:#000000;stroke-width:12;stroke-miterlimit:10;}
</style>
<g id="XMLID_18_">
	<rect id="XMLID_60_" x="0" y="0" class="st0" width="688.9" height="343.9"/>
	<rect id="XMLID_561_" x="24.7" y="28.9" class="st1" width="688.9" height="343.9"/>
	<g id="XMLID_62_">
		<path id="XMLID_15_" d="M239.6,264.1h-10.2v-7.6h-69.8v7.6h-10.3v-94.9h90.2V264.1z M229.4,246.8V179h-69.8v67.8H229.4z
			 M217.7,233.7h-46.2v-42.4h46.2V233.7z M208,224.3v-23.7h-26.8v23.7H208z"/>
		<path id="XMLID_21_" d="M319.3,208.5l-8.2,5.2c-2.5-4.9-4.1-7.8-4.7-8.7c-3.9,0.7-8,1.3-12.3,1.9v14.7h20.1v9.7h-20.1v17
			c6.2-0.7,13.6-2.3,22.3-4.9v9.6c-12.4,3.5-31.3,6.9-56.6,10.3l-2.8-9.5c8.2-0.7,17.1-1.9,26.9-3.5v-19h-22.3v-9.7h22.3v-13.1
			c-9.2,1.2-16.5,2-21.7,2.5l-2.8-9.3c7.9-5.2,14.3-12.7,19.2-22.5h-20v-9.7H317v9.7h-26.3c-4.4,7.9-9.9,14.8-16.4,20.9
			c8.3-0.7,17.3-1.9,26.8-3.5c-1.5-2.6-4-5.9-7.5-10l8.6-4.8C310.2,191.3,316,200.2,319.3,208.5z M332,244.2h-9.8v-69.6h9.8V244.2z
			 M352.8,255.6c0,2.4-0.8,4.4-2.3,6.1c-1.5,1.7-3.3,2.6-5.3,2.7c-2,0.1-4.8,0.2-8.2,0.2c-2.1,0-5-0.1-8.6-0.2l-2.9-10
			c3.9,0.3,7.3,0.4,10.3,0.4c3.4,0,5.5-0.1,6.1-0.4c0.7-0.3,1-0.8,1-1.5v-86.1h10V255.6z"/>
		<path id="XMLID_25_" d="M467,189.7h-43.7c-1.1,3.5-2.3,6.6-3.8,9.3h36.4v65.5h-10.2v-5.5h-54v5.5h-10.3V199h26.6
			c1.5-2.5,2.9-5.6,4-9.3h-42.3v-8.9H467V189.7z M413.2,175.1l-11.1,4c-4.3-3.5-9.3-6.4-14.8-9l11.1-4
			C402.7,168.2,407.6,171.2,413.2,175.1z M445.8,215.8v-8.4h-54v8.4H445.8z M445.8,233.1v-9h-54v9H445.8z M445.8,250.3v-8.7h-54v8.7
			H445.8z M451,170.2c-3.9,3-9.2,6-15.7,9l-11.8-4c5.8-2.4,11.2-5.4,16.1-9L451,170.2z"/>
		<path id="XMLID_32_" d="M578.8,178h-43.5c-1,2.9-2.2,6.1-3.7,9.5h36.9v56h-53.2l5.9,6c-9.3,6.7-20.6,12-34,15.9l-5.8-8.1
			c11.9-3,22.6-7.6,32.1-13.8h-21.3v-56h29.2c1.4-2.7,2.7-5.9,3.8-9.5h-43.5v-9.2h97.2V178z M558.6,203.6V196h-56.3v7.6H558.6z
			 M558.6,219.5v-7.6h-56.3v7.6H558.6z M558.6,235v-7.3h-56.3v7.3H558.6z M578.9,257.3l-5.1,7.9c-8.7-4.2-20.1-8-34.1-11.4l5.1-8
			C558.5,248.8,569.9,252.7,578.9,257.3z"/>
	</g>
</g>
<g id="XMLID_14_">
</g>
<g id="XMLID_38_">
</g>
<g id="XMLID_39_">
</g>
<g id="XMLID_40_">
</g>
<g id="XMLID_41_">
</g>
<g id="XMLID_42_">
</g>
<g id="XMLID_43_">
</g>
<g id="XMLID_44_">
</g>
<g id="XMLID_45_">
</g>
<g id="XMLID_46_">
</g>
<g id="XMLID_47_">
</g>
<g id="XMLID_48_">
</g>
<g id="XMLID_49_">
</g>
<g id="XMLID_50_">
</g>
<g id="XMLID_51_">
</g>
</svg>
