<?xml version="1.0" encoding="utf-8"?>
<!-- Generator: Adobe Illustrator 19.0.0, SVG Export Plug-In . SVG Version: 6.00 Build 0)  -->
<svg version="1.1" id="圖層_1" xmlns="http://www.w3.org/2000/svg" xmlns:xlink="http://www.w3.org/1999/xlink" x="0px" y="0px"
	 viewBox="0 0 122.9 152.3" style="enable-background:new 0 0 122.9 152.3;" xml:space="preserve">
<style type="text/css">
	.st0{opacity:0.72;}
	.st1{fill:#0071BC;}
</style>
<g id="puzzle_3_" class="st0">
	<path id="XMLID_65_" class="st1" d="M109.9,16.8c-9.5-3.3-19.6-5.1-29.4-7C68.2,7.3,55.9,5.1,43.5,3c-5.8-1-11.7-3.1-17.6-3
		c-4.1,0.1-7.2,3.5-8.8,7c-1.2,2.5-1.8,5.2-2.2,8c-0.6,3.8-1.4,7.5-2.2,11.3c-0.7,3.5-1.2,7-2.1,10.4c-0.4,1.6-1,4.4-0.1,6
		c0.8,1.6,2.9,1.8,4.5,2.4c3.9,1.4,8.2,0.9,10.5-2.9c1.7-2.8,1.6-7.3,4.7-9c3.6-2.1,6.2,1.2,6.7,4.4c0.2,1.4,0.2,7.9,2.8,4.9
		c4.1-4.8,9.1-8.2,12.2-5.5S47,47.8,47,47.8s7.8-2.2,10.1,2.8c2.3,5-8.5,7.6-8.2,7.9c3.5,3,8.5,9.5,0.8,11.2
		c-3.1,0.7-7.1-1.4-9.8-2.7c0.6,3.2,2.2,7.2,0.6,10.4c-2.3,4.4-7,1.2-9.6-1.1c-2.8-2.6-3.5-6.9-6.5-9.7c-3.6-3.4-8.4-4.7-13.2-4.5
		c-0.7,0-2.2,0.4-3.5,0.7c-1.4,0.3-2.6,1.5-2.8,2.9c-2.4,12.1-4.3,22-4.6,23.7C-0.3,93,0,97,3,99.4c8,6.3,20.9,6.3,30.5,7.1
		c5.8,0.5,5.3,5.5,2.9,9.5c-1.2,1.9-2.7,3.8-4.6,5.2c-2.9,2.2-6.7,2.9-9.1,5.9c-1.9,2.5-3.1,7.2,0.6,8.7c2.9,1.2,6.4,0.4,9.4-0.2
		c0.1,0,0.2,0.1,0.1,0.2c-2.2,1.7-2.6,7.7-1.7,9.8c2.6,6.2,7.8,1.4,10.6-1.8c0.2-0.3,3,10.5,7.9,8.2c5-2.3,2.7-10.1,2.7-10.1
		s8.1,7.7,10.9,4.6c2.7-3.1,1.1-6.2-3.4-10.7c-4.5-4.4-1.8-4.7-1.2-5c2.3-1,8.7-1.2,8.8-3.7c0.1-3.7-3.7-4.3-6.4-5.5
		c-3.2-1.5-7-4.9-6.6-8.8c0.5-4.1,4.1-2,7.5-1.2c12.5,3.3,29.3,10.1,41.7,3c4.3-2.4,6.4-7,7.7-11.5c1.8-6.4,2.6-13.1,3.6-19.7
		l7.6-42.2C122.5,41.3,126.4,22.6,109.9,16.8"/>
</g>
<g id="XMLID_14_">
</g>
<g id="XMLID_15_">
</g>
<g id="XMLID_16_">
</g>
<g id="XMLID_17_">
</g>
<g id="XMLID_18_">
</g>
<g id="XMLID_19_">
</g>
<g id="XMLID_20_">
</g>
<g id="XMLID_21_">
</g>
<g id="XMLID_22_">
</g>
<g id="XMLID_23_">
</g>
<g id="XMLID_24_">
</g>
<g id="XMLID_25_">
</g>
<g id="XMLID_26_">
</g>
<g id="XMLID_27_">
</g>
<g id="XMLID_28_">
</g>
</svg>
