<?xml version="1.0" encoding="utf-8"?>
<!-- Generator: Adobe Illustrator 19.0.0, SVG Export Plug-In . SVG Version: 6.00 Build 0)  -->
<svg version="1.1" id="圖層_1" xmlns="http://www.w3.org/2000/svg" xmlns:xlink="http://www.w3.org/1999/xlink" x="0px" y="0px"
	 viewBox="0 0 611.2 678.4" style="enable-background:new 0 0 611.2 678.4;" xml:space="preserve">
<style type="text/css">
	.st0{opacity:0.85;fill:#3FA9F5;}
</style>
<path id="XMLID_69_" class="st0" d="M351.3,5.7c-42.2,15.3-82.3,38.2-121.7,59.3c-49.5,26.4-98.5,53.7-147.3,81.4
	c-23.1,13.1-49.1,22.3-69.4,39.8c-13.9,12-14.8,32.6-10.7,49.3c3,12,8.6,23.3,14.9,33.9c8.8,14.7,16.4,30.2,24.5,45.2
	c7.5,14,15.7,27.7,22.3,42.2c3.1,6.8,9.1,17.8,16.5,21.2c7.1,3.2,15.4-2.1,22.3-4.6c17.5-6.4,31-20.3,28.1-40.1
	c-2.1-14.3-15.1-29.8-9.5-44.6c6.6-17.3,24.9-13.3,35.7-3.5c4.7,4.3,23.3,26.8,23.5,9c0.4-28.4,8.1-54.3,26.6-53.5
	s14.7,50.7,14.7,50.7s20.8-29.8,42.8-19.1c22,10.7-7.8,50.6-6.1,50.7c20.6,0.7,56.6,8.8,34.5,36.5c-8.8,11.1-28.4,15.3-41.6,18.5
	c11,9.4,28.3,18.7,31.4,34.1c4.4,21.9-20.8,24.3-36.4,23.6c-17.2-0.8-31.9-13.9-49.8-15.1c-22-1.5-42.4,7.6-58.5,22.2
	c-2.3,2.1-6.4,7.8-10.1,12.7c-4,5.3-4.6,12.4-1.5,18.3c25.9,48.5,47.3,88.3,51.4,94.9c8.6,13.7,20.8,26.8,38.2,26.5
	c45.6-0.8,90.2-37.5,125.9-62c21.6-14.8,33.9,4.1,36.8,24.6c1.4,10.1,1.3,20.8-1.1,30.8c-3.9,15.9-15.1,29-14.7,46
	c0.4,14.2,9.6,33.9,26.8,28.6c13.4-4.1,23.2-16.8,31.9-27.1c0.3-0.4,0.9-0.1,0.8,0.5c-2.9,12.1,12.8,34,21.9,38.8
	c26.7,14,30.9-17.4,31.4-36.2c0-1.7,40.1,27.9,50.7,5.8c10.6-22.1-19.3-42.7-19.3-42.7s49.8,3.5,50.6-15
	c0.7-18.5-13.8-24.8-42.1-27.1c-28.1-2.3-19.6-10.9-18.2-13.9c5-9.9,26.8-28.7,19.7-37.8c-10.2-13.1-25-4.2-37.7-1
	c-15.2,3.8-38.1,3.2-47.6-11.6c-9.9-15.5,8.5-18.8,22.7-25.4c52.7-24.3,130.2-48.2,152.9-108c7.8-20.6,2.3-42.1-6.1-61.6
	c-11.8-27.4-28.2-52.8-43.3-78.4L464.5,54.5C464.5,54.5,424.9-20.9,351.3,5.7"/>
<g id="XMLID_14_">
</g>
<g id="XMLID_15_">
</g>
<g id="XMLID_16_">
</g>
<g id="XMLID_17_">
</g>
<g id="XMLID_18_">
</g>
<g id="XMLID_19_">
</g>
<g id="XMLID_20_">
</g>
<g id="XMLID_21_">
</g>
<g id="XMLID_22_">
</g>
<g id="XMLID_23_">
</g>
<g id="XMLID_24_">
</g>
<g id="XMLID_25_">
</g>
<g id="XMLID_26_">
</g>
<g id="XMLID_27_">
</g>
<g id="XMLID_28_">
</g>
</svg>
