<?xml version="1.0" encoding="utf-8"?>
<!-- Generator: Adobe Illustrator 19.0.0, SVG Export Plug-In . SVG Version: 6.00 Build 0)  -->
<svg version="1.1" id="圖層_1" xmlns="http://www.w3.org/2000/svg" xmlns:xlink="http://www.w3.org/1999/xlink" x="0px" y="0px"
	 viewBox="0 0 214 234" style="enable-background:new 0 0 214 234;" xml:space="preserve">
<style type="text/css">
	.st0{fill:#234563;}
</style>
<g id="puzzle_4_">
	<path id="XMLID_64_" class="st0" d="M10.2,160c11.7,10.3,25.3,18.7,38.3,27.3c16.3,10.7,32.8,21.1,49.3,31.4
		c7.8,4.9,15,11.3,23.7,14.6c6,2.3,12.4-0.9,16.8-4.9c3.2-2.9,5.7-6.5,7.9-10.2c3-5.1,6.5-10,9.7-15c3-4.6,5.8-9.4,9.2-13.8
		c1.6-2.1,3.9-5.7,3.7-8.6c-0.2-2.7-3.2-4.3-5.1-6c-4.9-4.3-11.3-6.1-16.9-1.9c-4,3-6.6,9.6-12,10.3c-6.4,0.9-8.2-5.4-7-10.3
		c0.5-2.1,4.3-11.6-1.2-8.7c-8.7,4.6-17.9,6.6-20.7,0.8s13-12.9,13-12.9s-12.6-1.4-12.9-9.9c-0.4-8.5,16.7-6,16.5-6.6
		c-3.2-6.4-6.7-18.7,5.4-16.6c4.9,0.9,9.4,6.1,12.5,9.6c1-4.9,1-11.7,5.2-15.3c6-5,10.9,2.3,13.2,7.2c2.6,5.4,1.1,12,3.7,17.7
		c3.2,6.9,9.4,11.7,16.5,14.2c1,0.4,3.4,0.7,5.5,1c2.3,0.3,4.6-0.7,5.8-2.6c10.5-16,19.1-29.1,20.4-31.5c2.7-4.9,4.7-10.8,1.7-16.1
		C204.6,89.5,186,82,172.6,75.2c-8.1-4.1-4.4-11,1.4-15.3c2.9-2.1,6.1-3.9,9.6-4.8c5.5-1.5,11.4-0.2,16.5-3.2
		c4.3-2.5,8.7-8.6,4.3-12.9c-3.5-3.4-9-4.3-13.6-5.2c-0.2,0-0.2-0.3,0-0.3c4.2-1.1,8.3-9.6,8.2-13.1c-0.2-10.5-10.5-6.5-16.3-3.6
		c-0.5,0.3,1.8-16.9-6.7-16.4s-9.8,13-9.8,13s-7.2-15.8-13-12.9c-5.8,2.8-5.3,8.3-1.3,17.4c4,9-0.1,7.8-1.2,7.8
		c-3.9,0.1-13.2-3.4-14.8,0.3c-2.3,5.3,2.9,8.3,6,11.7c3.7,4,7.3,11.1,4.4,16.5c-3.1,5.6-7.2,0.5-11.5-2.7
		c-16.2-12-36.4-31.7-58.4-28.7c-7.6,1-13.2,6.3-17.8,12.1C52.2,42.8,47.1,52,41.8,60.9L6.3,117.3C6.3,117.3-10.2,141.9,10.2,160"/>
</g>
<g id="XMLID_14_">
</g>
<g id="XMLID_15_">
</g>
<g id="XMLID_16_">
</g>
<g id="XMLID_17_">
</g>
<g id="XMLID_18_">
</g>
<g id="XMLID_19_">
</g>
<g id="XMLID_20_">
</g>
<g id="XMLID_21_">
</g>
<g id="XMLID_22_">
</g>
<g id="XMLID_23_">
</g>
<g id="XMLID_24_">
</g>
<g id="XMLID_25_">
</g>
<g id="XMLID_26_">
</g>
<g id="XMLID_27_">
</g>
<g id="XMLID_28_">
</g>
</svg>
