<?xml version="1.0" encoding="utf-8"?>
<!-- Generator: Adobe Illustrator 19.0.0, SVG Export Plug-In . SVG Version: 6.00 Build 0)  -->
<svg version="1.1" id="圖層_1" xmlns="http://www.w3.org/2000/svg" xmlns:xlink="http://www.w3.org/1999/xlink" x="0px" y="0px"
	 viewBox="0 0 648.8 528.2" style="enable-background:new 0 0 648.8 528.2;" xml:space="preserve">
<style type="text/css">
	.st0{opacity:0.47;}
	.st1{fill:#3FA9F5;}
</style>
<g id="puzzle_8_" class="st0">
	<path id="XMLID_68_" class="st1" d="M81.3,52.9C66,92.6,57.5,135.5,48,176.9c-11.9,51.8-22.8,103.9-33.4,156
		C9.7,357.6,0.1,382,0,407.4c-0.1,17.4,14.1,30.9,28.6,38.3c10.5,5.4,22,8.3,33.5,10.4c16,2.8,31.8,7,47.6,10.6
		c14.6,3.3,29.6,6,44,10.3c6.7,2,18.4,4.6,25.4,1.3c6.7-3.1,8.1-12.3,10.5-18.8c6.3-16.5,4.8-34.8-11.2-45
		c-11.5-7.3-30.7-7.7-37.8-20.9c-8.3-15.5,6-26.1,19.7-27.7c6-0.7,33.7,0,21.1-11.3c-20-18-33.8-39.6-21.7-52.3
		c12.1-12.7,45.4,21,45.4,21s-8.4-33.4,13-42.5c21.4-9.1,31.4,37.1,32.4,35.9c13.3-14.3,41.5-35,47.6-2c2.4,13.2-6.8,29.8-12.6,41.2
		c13.6-2,31-8.6,44-1.2c18.4,10.5,4.4,30-5.8,40.7c-11.3,11.8-29.8,14.2-41.8,26.3c-14.7,14.8-21,35.1-20.5,55.7
		c0.1,3,1.6,9.4,2.8,15.1c1.3,6.2,6,11,12.2,12.4c50.9,11.6,92.6,21,99.9,22.2c15.1,2.4,32.2,1.8,42.8-10.9
		c27.7-33.2,29.3-87.9,33.9-128.7c2.8-24.7,24.1-21.7,40.5-11.1c8.1,5.3,15.7,12,21.4,19.9c9,12.6,11.4,28.9,23.8,39.1
		c10.4,8.5,30.3,14.2,37.2-1.4c5.4-12.2,2.4-27,0.4-39.7c-0.1-0.5,0.5-0.7,0.8-0.3c6.9,9.6,32.3,12,41.3,8.5
		c26.6-10.4,6.7-33-6.4-45.1c-1.2-1.1,44.9-11.4,35.7-32.7c-9.2-21.3-42.6-12.7-42.6-12.7s33.5-33.5,20.7-45.5
		c-12.8-12-26.4-5.5-45.6,13.3c-19.1,18.7-20,7.2-21.2,4.4c-4-9.7-3.9-37-14.8-37.6c-15.7-0.9-18.5,15.3-24.2,26.4
		c-6.8,13.2-21.4,29.3-37.9,26.9c-17.3-2.6-8.2-17.8-4-32c15.4-52.8,46.5-123.2,17.8-176.7c-9.9-18.4-28.7-27.9-47.9-34
		c-26.9-8.6-55.3-12.7-83.1-17.7l-178-37.3C186.7,2.3,108.1-16.3,81.3,52.9"/>
</g>
<g id="XMLID_14_">
</g>
<g id="XMLID_15_">
</g>
<g id="XMLID_16_">
</g>
<g id="XMLID_17_">
</g>
<g id="XMLID_18_">
</g>
<g id="XMLID_19_">
</g>
<g id="XMLID_20_">
</g>
<g id="XMLID_21_">
</g>
<g id="XMLID_22_">
</g>
<g id="XMLID_23_">
</g>
<g id="XMLID_24_">
</g>
<g id="XMLID_25_">
</g>
<g id="XMLID_26_">
</g>
<g id="XMLID_27_">
</g>
<g id="XMLID_28_">
</g>
</svg>
