<?xml version="1.0" encoding="utf-8"?>
<!-- Generator: Adobe Illustrator 19.0.0, SVG Export Plug-In . SVG Version: 6.00 Build 0)  -->
<svg version="1.1" id="圖層_1" xmlns="http://www.w3.org/2000/svg" xmlns:xlink="http://www.w3.org/1999/xlink" x="0px" y="0px"
	 viewBox="0 0 147 119" style="enable-background:new 0 0 147 119;" xml:space="preserve">
<style type="text/css">
	.st0{opacity:0.47;}
	.st1{fill:#3FA9F5;}
</style>
<g id="puzzle_5_" class="st0">
	<path id="XMLID_63_" class="st1" d="M17,12.4c-3.3,9.1-5.1,18.9-7,28.3C7.5,52.5,5.2,64.4,3,76.2c-1,5.6-3.1,11.2-3,17
		c0.1,4,3.3,7,6.7,8.6c2.4,1.2,5,1.8,7.7,2.2c3.6,0.6,7.3,1.5,10.9,2.2c3.3,0.7,6.8,1.2,10,2.2c1.5,0.4,4.2,1,5.8,0.2
		c1.5-0.7,1.8-2.8,2.3-4.3c1.4-3.8,0.9-7.9-2.7-10.2c-2.7-1.6-7-1.6-8.7-4.6c-1.9-3.5,1.2-6,4.4-6.4c1.4-0.2,7.7-0.1,4.7-2.6
		c-4.6-4-7.9-8.8-5.2-11.8s10.4,4.6,10.4,4.6s-2-7.6,2.8-9.7s7.3,8.3,7.5,8c3-3.3,9.3-8.1,10.8-0.6c0.6,3-1.4,6.8-2.7,9.4
		c3.1-0.5,7-2.1,10-0.5c4.2,2.3,1.1,6.8-1.1,9.3c-2.5,2.7-6.7,3.3-9.4,6.1c-3.3,3.4-4.6,8.1-4.4,12.7c0,0.7,0.4,2.1,0.7,3.4
		c0.3,1.4,1.4,2.5,2.8,2.8c11.6,2.4,21.1,4.4,22.8,4.6c3.4,0.5,7.3,0.3,9.7-2.6c6.2-7.6,6.3-20.1,7.2-29.4c0.5-5.6,5.4-5,9.1-2.7
		c1.9,1.2,3.6,2.7,4.9,4.4c2.1,2.8,2.7,6.5,5.6,8.8c2.4,1.9,6.9,3.1,8.4-0.5c1.2-2.8,0.4-6.2-0.1-9c0-0.1,0.1-0.2,0.2-0.1
		c1.6,2.1,7.4,2.6,9.4,1.7c6-2.5,1.4-7.5-1.6-10.2c-0.3-0.2,10.2-2.8,8-7.6c-2.2-4.8-9.7-2.7-9.7-2.7s7.5-7.7,4.5-10.4
		c-3-2.7-6-1.1-10.3,3.2c-4.3,4.3-4.5,1.7-4.8,1.1c-1-2.2-1-8.4-3.5-8.5c-3.6-0.1-4.1,3.6-5.4,6.1c-1.5,3-4.7,6.7-8.5,6.3
		c-3.9-0.5-1.9-4-1.1-7.3c3.3-12.1,10-28.2,3.3-40.2c-2.3-4.1-6.6-6.2-11-7.5C94.1,10,87.6,9.2,81.3,8.1L40.7,0.4
		C40.7,0.4,22.8-3.5,17,12.4"/>
</g>
<g id="XMLID_14_">
</g>
<g id="XMLID_15_">
</g>
<g id="XMLID_16_">
</g>
<g id="XMLID_17_">
</g>
<g id="XMLID_18_">
</g>
<g id="XMLID_19_">
</g>
<g id="XMLID_20_">
</g>
<g id="XMLID_21_">
</g>
<g id="XMLID_22_">
</g>
<g id="XMLID_23_">
</g>
<g id="XMLID_24_">
</g>
<g id="XMLID_25_">
</g>
<g id="XMLID_26_">
</g>
<g id="XMLID_27_">
</g>
<g id="XMLID_28_">
</g>
</svg>
