<?xml version="1.0" encoding="utf-8"?>
<!-- Generator: Adobe Illustrator 19.0.0, SVG Export Plug-In . SVG Version: 6.00 Build 0)  -->
<svg version="1.1" id="圖層_1" xmlns="http://www.w3.org/2000/svg" xmlns:xlink="http://www.w3.org/1999/xlink" x="0px" y="0px"
	 viewBox="0 0 433.7 406.6" style="enable-background:new 0 0 433.7 406.6;" xml:space="preserve">
<style type="text/css">
	.st0{opacity:0.63;}
	.st1{fill:#234563;stroke:#234563;stroke-miterlimit:10;}
</style>
<g id="puzzle_7_" class="st0">
	<path id="XMLID_67_" class="st1" d="M426.6,210.3c-13.3-26-31.5-50-48.3-73.8c-21.1-29.8-42.8-59.2-64.7-88.5
		c-10.4-13.8-18.5-29.9-31.5-41.6c-8.9-8-22.3-6.9-32.7-2.9c-7.5,2.9-14.3,7.4-20.7,12.4c-8.8,6.9-18.1,13.1-27.2,19.6
		c-8.4,6-16.6,12.5-25.4,17.9c-4.1,2.5-10.8,7.4-12.3,12.4c-1.5,4.9,2.6,9.8,4.8,14c5.6,10.8,15.7,18.4,28.2,14.8
		c9-2.6,18-12.2,28-9.8c11.7,2.8,10.6,15,5.2,22.8c-2.4,3.4-15.4,17.2-3.9,15.9c18.4-2.1,35.8,0.8,36.7,12.8S231.4,150,231.4,150
		s21,11,15.9,26.1c-5.1,15.1-33.3-0.9-33.2,0.2c1.2,13.4-1,37.3-20.7,25.3c-7.9-4.8-12.2-17.1-15.3-25.3
		c-5.2,7.9-9.8,19.8-19.5,23.1c-13.8,4.7-17.4-11.5-18.2-21.6c-0.9-11.2,6.4-21.7,5.7-33.4c-0.8-14.3-8.4-26.8-19.1-36
		c-1.6-1.3-5.5-3.5-9-5.5c-3.7-2.2-8.4-2-11.9,0.5c-29.2,20.7-53.1,37.8-57.1,41c-8.1,6.7-15.6,15.6-14,26.9
		c4.3,29.4,31.6,55.2,50.4,76.2c11.4,12.7,0.1,22.3-12.8,25.8c-6.4,1.7-13.3,2.6-20,1.8c-10.6-1.2-20-7.4-30.9-5.7
		c-9.1,1.4-21.1,9-16.3,19.7c3.8,8.3,12.8,13.6,20.1,18.4c0.3,0.2,0.1,0.6-0.2,0.6c-8-0.9-20.9,11.1-23.2,17.3
		c-6.8,18.4,13.8,18.5,26,17.3c1.1-0.1-14.7,28.2,0.4,33.2s26-16,26-16s1.8,32.5,13.8,31.5c12-1,14.9-11,14-29.5
		c-0.8-18.4,5.4-13.6,7.5-12.9c6.8,2.4,20.8,14.9,26.1,9.6c7.6-7.7,0.6-16.5-2.4-24.4c-3.7-9.5-5.2-24.4,3.6-31.7
		c9.2-7.7,12.9,4,18.2,12.6c20,32,41.9,80.2,82.4,89.9c13.9,3.4,27.4-2,39.3-9c16.7-9.9,31.8-22.5,47.1-34.5l100.5-74.2
		C404.4,287.5,449.9,255.7,426.6,210.3"/>
</g>
<g id="XMLID_14_">
</g>
<g id="XMLID_15_">
</g>
<g id="XMLID_16_">
</g>
<g id="XMLID_17_">
</g>
<g id="XMLID_18_">
</g>
<g id="XMLID_19_">
</g>
<g id="XMLID_20_">
</g>
<g id="XMLID_21_">
</g>
<g id="XMLID_22_">
</g>
<g id="XMLID_23_">
</g>
<g id="XMLID_24_">
</g>
<g id="XMLID_25_">
</g>
<g id="XMLID_26_">
</g>
<g id="XMLID_27_">
</g>
<g id="XMLID_28_">
</g>
</svg>
