<?xml version="1.0" encoding="utf-8"?>
<!-- Generator: Adobe Illustrator 19.0.0, SVG Export Plug-In . SVG Version: 6.00 Build 0)  -->
<svg version="1.1" id="圖層_1" xmlns="http://www.w3.org/2000/svg" xmlns:xlink="http://www.w3.org/1999/xlink" x="0px" y="0px"
	 viewBox="0 0 169.1 132.4" style="enable-background:new 0 0 169.1 132.4;" xml:space="preserve">
<style type="text/css">
	.st0{opacity:0.74;}
	.st1{fill:#29ABE2;}
</style>
<g id="puzzle_6_" class="st0">
	<path id="XMLID_61_" class="st1" d="M150,118.9c3.8-10,5.7-20.8,7.9-31.3c2.8-13.1,5.3-26.2,7.7-39.3c1.2-6.2,3.5-12.4,3.4-18.8
		c-0.1-4.4-3.9-7.7-7.7-9.6c-2.8-1.3-5.8-2.1-8.8-2.5c-4.2-0.7-8.4-1.7-12.5-2.6c-3.8-0.8-7.8-1.4-11.6-2.5
		c-1.8-0.5-4.8-1.1-6.7-0.3c-1.7,0.8-2,3.1-2.6,4.7c-1.5,4.2-1,8.8,3.2,11.3c3.1,1.8,8.1,1.9,10,5.2c2.3,3.9-1.4,6.6-5,7
		c-1.6,0.2-8.8,0.1-5.4,2.9c5.4,4.5,9.1,9.9,6,13.1c-3.1,3.2-12-5.2-12-5.2s2.4,8.4-3.1,10.7c-5.5,2.3-8.4-9.3-8.7-9
		c-3.4,3.6-10.6,8.9-12.4,0.6c-0.7-3.3,1.6-7.5,3-10.4c-3.5,0.5-8,2.2-11.5,0.4c-4.9-2.6-1.3-7.5,1.2-10.2c2.9-3,7.7-3.6,10.8-6.7
		c3.8-3.7,5.3-8.9,5-14c0-0.8-0.5-2.4-0.8-3.8c-0.4-1.5-1.6-2.8-3.3-3.1C82.9,2.8,71.9,0.5,70,0.3c-4-0.6-8.4-0.4-11.1,2.8
		c-7,8.4-7.1,22.2-8.1,32.4c-0.6,6.2-6.2,5.5-10.5,2.9c-2.2-1.3-4.2-3-5.7-5c-2.4-3.2-3.2-7.2-6.5-9.8c-2.8-2.1-8-3.5-9.7,0.4
		c-1.3,3.1-0.5,6.8,0.1,10c0,0.1-0.1,0.2-0.2,0.1c-1.9-2.4-8.5-2.9-10.9-2c-6.9,2.7-1.6,8.3,2,11.3c0.3,0.3-11.7,2.9-9.1,8.3
		s11.2,3.1,11.2,3.1S3,63.3,6.4,66.3c3.4,3,6.9,1.3,11.8-3.4c4.9-4.7,5.2-1.9,5.5-1.1c1.1,2.4,1.2,9.3,4.1,9.4
		c4.1,0.2,4.7-3.9,6.2-6.7c1.7-3.3,5.4-7.4,9.7-6.8c4.5,0.6,2.2,4.5,1.3,8c-3.7,13.3-11.4,31.1-3.5,44.5c2.7,4.6,7.7,6.9,12.7,8.4
		c7.1,2.1,14.5,3.1,21.8,4.3l46.8,9C122.8,131.9,143.5,136.4,150,118.9"/>
</g>
<g id="XMLID_14_">
</g>
<g id="XMLID_15_">
</g>
<g id="XMLID_16_">
</g>
<g id="XMLID_17_">
</g>
<g id="XMLID_18_">
</g>
<g id="XMLID_19_">
</g>
<g id="XMLID_20_">
</g>
<g id="XMLID_21_">
</g>
<g id="XMLID_22_">
</g>
<g id="XMLID_23_">
</g>
<g id="XMLID_24_">
</g>
<g id="XMLID_25_">
</g>
<g id="XMLID_26_">
</g>
<g id="XMLID_27_">
</g>
<g id="XMLID_28_">
</g>
</svg>
