<?xml version="1.0" encoding="utf-8"?>
<!-- Generator: Adobe Illustrator 19.0.0, SVG Export Plug-In . SVG Version: 6.00 Build 0)  -->
<svg version="1.1" id="圖層_1" xmlns="http://www.w3.org/2000/svg" xmlns:xlink="http://www.w3.org/1999/xlink" x="0px" y="0px"
	 viewBox="0 0 1527 1188.7" style="enable-background:new 0 0 1527 1188.7;" xml:space="preserve">
<style type="text/css">
	.st0{stroke:#000000;stroke-width:9;stroke-miterlimit:10;}
	.st1{fill:#FFFFFF;stroke:#000000;stroke-width:9;stroke-miterlimit:10;}
</style>
<g id="XMLID_24_">
	<path id="XMLID_2_" class="st0" d="M1351.4,1022.5c-1.4,1.3-2.8,2.5-4.2,3.8c-67,59.6-156.6,98.3-243.8,116.2
		c-156,32-312,62-570,24c-103-15.2-207-43.9-296.6-98.3c-73.8-44.8-144.1-126.9-181-205.4C22.6,792.2,1.2,713.5,4.9,635
		c4.2-90.9,39.5-177.3,90.7-251.6c25.4-36.9,57.3-65.5,86.4-99.1c29.5-34.1,53.4-70.7,87.4-100.8C430,41.5,654.2-18.6,865.1,12.5
		c63.2,9.3,124.7,25.5,184.1,48.8c23.8,9.3,47.3,19.7,70.4,30.6c8.2,3.8,22.4,14.5,31.7,14.5c6,0,112,78,134,104
		c61.2,72.4,133.1,137.4,180.4,220.6C1578.5,629.5,1514.5,874.3,1351.4,1022.5z"/>
	<g id="XMLID_3_">
		<path id="XMLID_4_" class="st1" d="M632.4,482.9h116l3,253.5c0,0-115.3-5.3-119-9.3S632.4,482.9,632.4,482.9z"/>
		<path id="XMLID_5_" class="st1" d="M793.4,482.9h118.5v241.5c0,0,15.5-0.7-35.8,7.3c-51.3,8-70.7,4-76,4.7
			C794.7,737.1,793.4,482.9,793.4,482.9z"/>
		<path id="XMLID_6_" class="st1" d="M955.9,482.9l115.4-9.8l2.7,198c0,0,9.4-4-33.3,14.7c-42.7,18.7-43.4,19.3-64.1,25.3
			c-20.7,6-20.7,6-20.7,6V482.9z"/>
		<path id="XMLID_7_" class="st1" d="M1116.9,466.4c0,29.6,0,59.2,0,88.8c0,14.9,0.6,29.8,0.3,44.7c-0.1,7-0.6,14-1.1,21
			c-0.2,2.3,1.7,18.1,1.2,18.6c4.7-5.5,11.2-7.7,17.2-11.5c36.2-22.7,56.6-66.5,72.3-104.7c5.8-14.1,10.7-28.6,14.7-43.3
			c1.3-4.7,6.4-30.2,6.4-30.2s-19-0.2-25.2,1.2c-12.3,2.9-24.7,7.6-37.2,9.4C1161.7,461.1,1116.9,464.8,1116.9,466.4z"/>
		<path id="XMLID_8_" class="st1" d="M468.9,471.4v198c0,0,11.2,6.3,21.8,11.7c10.7,5.3,19.3,8.7,30.7,13.3
			c11.3,4.7,24.7,6.7,34,11.3s33.3,8.7,33.3,8.7l-2-231.5L468.9,471.4z"/>
		<path id="XMLID_9_" class="st1" d="M325.3,447.9c0,0,50.6,10.6,63.3,12.6c12.7,2,37.3,3.9,37.3,3.9v175
			c-7.5-6.1-14-13.9-20.6-20.9c-39.9-42.4-72.9-86.8-80-146.1C323.4,456.4,325.3,447.9,325.3,447.9z"/>
		<path id="XMLID_10_" class="st1" d="M582.7,300.4c-5.3,41.3-39.8,72.1-66.3,74.7c-47.6,4.7-68.3-40.4-66.3-68.7
			c3.9-54,54.7-77.1,78.6-75.3C572.7,234.4,586.3,272.3,582.7,300.4z"/>
		<path id="XMLID_11_" class="st1" d="M1054.8,244.4c34.1,23.9,45.3,68.7,35.4,93.4c-17.9,44.3-67.5,41.8-91.6,26.8
			c-46-28.5-42.9-84.3-30.2-104.6C991.7,222.6,1031.6,228.2,1054.8,244.4z"/>
	</g>
</g>
<g id="XMLID_1_">
</g>
<g id="XMLID_12_">
</g>
<g id="XMLID_13_">
</g>
<g id="XMLID_14_">
</g>
<g id="XMLID_15_">
</g>
<g id="XMLID_16_">
</g>
<g id="XMLID_17_">
</g>
<g id="XMLID_18_">
</g>
<g id="XMLID_19_">
</g>
<g id="XMLID_20_">
</g>
<g id="XMLID_21_">
</g>
<g id="XMLID_22_">
</g>
<g id="XMLID_23_">
</g>
<g id="XMLID_25_">
</g>
<g id="XMLID_26_">
</g>
</svg>
