<?xml version="1.0" encoding="utf-8"?>
<!-- Generator: Adobe Illustrator 19.0.0, SVG Export Plug-In . SVG Version: 6.00 Build 0)  -->
<svg version="1.1" id="圖層_1" xmlns="http://www.w3.org/2000/svg" xmlns:xlink="http://www.w3.org/1999/xlink" x="0px" y="0px"
	 viewBox="0 0 3401.6 5000" style="enable-background:new 0 0 3401.6 5000;" xml:space="preserve">
<style type="text/css">
	.st0{fill:#C0E7FF;}
	.st1{opacity:0.85;fill:#3FA9F5;}
	.st2{stroke:#000000;stroke-width:12;stroke-miterlimit:10;}
	.st3{fill:#FFFFFF;stroke:#000000;stroke-width:12;stroke-miterlimit:10;}
	.st4{opacity:0.47;}
	.st5{fill:#3FA9F5;}
	.st6{opacity:0.63;}
	.st7{fill:#234563;stroke:#234563;stroke-miterlimit:10;}
	.st8{opacity:0.86;}
	.st9{fill:#29ABE2;}
	.st10{opacity:0.72;}
	.st11{fill:#0071BC;}
	.st12{fill:#234563;}
	.st13{opacity:0.74;}
	.st14{stroke:#000000;stroke-width:2;stroke-miterlimit:10;}
</style>
<rect id="XMLID_54_" x="-0.6" class="st0" width="3401.6" height="5000"/>
<path id="XMLID_69_" class="st1" d="M2855.8,1067.5c-42.2,15.3-82.3,38.2-121.7,59.3c-49.5,26.4-98.5,53.7-147.3,81.4
	c-23.1,13.1-49.1,22.3-69.4,39.8c-13.9,12-14.8,32.6-10.7,49.3c3,12,8.6,23.3,14.9,33.9c8.8,14.7,16.4,30.2,24.5,45.2
	c7.5,14,15.7,27.7,22.3,42.2c3.1,6.8,9.1,17.8,16.5,21.2c7.1,3.2,15.4-2.1,22.3-4.6c17.5-6.4,31-20.3,28.1-40.1
	c-2.1-14.3-15.1-29.8-9.5-44.6c6.6-17.3,24.9-13.3,35.7-3.5c4.7,4.3,23.3,26.8,23.5,9c0.4-28.4,8.1-54.3,26.6-53.5
	c18.5,0.8,14.7,50.7,14.7,50.7s20.8-29.8,42.8-19.1s-7.8,50.6-6.1,50.7c20.6,0.7,56.6,8.8,34.5,36.5c-8.8,11.1-28.4,15.3-41.6,18.5
	c11,9.4,28.3,18.7,31.4,34.1c4.4,21.9-20.8,24.3-36.4,23.6c-17.2-0.8-31.9-13.9-49.8-15.1c-22-1.5-42.4,7.6-58.5,22.2
	c-2.3,2.1-6.4,7.8-10.1,12.7c-4,5.3-4.6,12.4-1.5,18.3c25.9,48.5,47.3,88.3,51.4,94.9c8.6,13.7,20.8,26.8,38.2,26.5
	c45.6-0.8,90.2-37.5,125.9-62c21.6-14.8,33.9,4.1,36.8,24.6c1.4,10.1,1.3,20.8-1.1,30.8c-3.9,15.9-15.1,29-14.7,46
	c0.4,14.2,9.6,33.9,26.8,28.6c13.4-4.1,23.2-16.8,31.9-27.1c0.3-0.4,0.9-0.1,0.8,0.5c-2.9,12.1,12.8,34,21.9,38.8
	c26.7,14,30.9-17.4,31.4-36.2c0-1.7,40.1,27.9,50.7,5.8c10.6-22.1-19.3-42.7-19.3-42.7s49.8,3.5,50.6-15
	c0.7-18.5-13.8-24.8-42.1-27.1c-28.1-2.3-19.6-10.9-18.2-13.9c5-9.9,26.8-28.7,19.7-37.8c-10.2-13.1-25-4.2-37.7-1
	c-15.2,3.8-38.1,3.2-47.6-11.6c-9.9-15.5,8.5-18.8,22.7-25.4c52.7-24.3,130.2-48.2,152.9-108c7.8-20.6,2.3-42.1-6.1-61.6
	c-11.8-27.4-28.2-52.8-43.3-78.4l-93.5-167.5C2969,1116.4,2929.3,1040.9,2855.8,1067.5"/>
<g id="XMLID_57_">
	<path id="XMLID_59_" class="st2" d="M1164.7,2288.8c-6.1,62.7-8.7,131.7,38.7,178.4c63.4,62.5,162.1,87.6,246.1,107.7
		c97.1,23.2,197.1,34,296.9,32.7c91.4-1.2,181.7-13.7,271.1-31.9c87-17.7,191.5-43.7,249-117.6c29-37.2,34.4-83.5,33.4-129.2
		c-4.4-183.8-48.5-388.6-173.5-529.7c-6.1-6.9-12.3-13.5-18.8-20.1c-128.7-129.8-326.6-170.4-501.6-130.3
		c-106.6,24.4-205.1,80.6-276,164.5c-100.4,118.8-143.5,275.3-160.3,427.1c-0.6,5.4-1.2,10.8-1.7,16.3
		C1166.9,2267.1,1165.8,2277.8,1164.7,2288.8z"/>
	<path id="XMLID_58_" class="st3" d="M1509.2,1820c-12-7.7-25-13.6-39.1-9c-17.7,5.7-13.8,29.5,0.3,36.3c12.5,6,37.5,19.9,37.5,19.9
		s-44.9-0.5-44.9-0.5c-14,1.2-38,3.6-46.9,16.2c-10.2,14.4,8.7,25.9,20.7,28.4c13.8,2.9,37.8,2.2,51.7,3.4
		c31.1,2.7,54.6,4.5,80.5-5.8c17-6.8,15.3-25.7,1-39.5c-13.5-13.2-27.7-26.9-43-37C1521.4,1828.5,1515.5,1824,1509.2,1820z"/>
	<path id="XMLID_56_" class="st3" d="M1774.3,1890.6c25.1-13.3,56.8-15.4,84.6-15.9c16.3-0.3,64-4.6,70.1,17.2
		c2.6,9.6-4.4,18.4-12.5,22.3c-8.4,4-18.3,4.3-27.3,5.1c-9.7,0.8-32.2,2.9-32.2,2.9s12.6,8.8,16.7,11.7c4.8,3.4,9.6,7.3,14.8,10.1
		c11.6,6.3,38.1,23,25,38.6c-11,13.1-34.2,6.8-47.4,0.9c-15.6-7-30.3-15.7-46.2-22c-16.1-6.3-33.2-9.5-48.3-18.1
		c-22.7-13-20.9-39.8,1.6-52.2C1773.5,1891,1773.9,1890.8,1774.3,1890.6z"/>
	<path id="XMLID_55_" class="st3" d="M1466.5,1997.1c2.1-12.8,8-23.9,23.3-21.3c20.7,3.5,14,38.8,18.1,54.1
		c13.5,51,54.7,93.4,106.7,104.6c46.9,10.1,117.1-8,148.5-45.9c13.2-15.9,22.8-59.4,48.1-56.1c32.9,4.3,11.2,45.5,1.2,61.6
		c-36,57.7-103.6,84.4-169.8,83c-60.2-1.3-108.8-28.9-146.4-74.9c-18.8-23.1-28.7-53.1-30.5-82.6
		C1465.4,2013.4,1465.3,2004.9,1466.5,1997.1z"/>
</g>
<g id="puzzle_8_" class="st4">
	<path id="XMLID_68_" class="st5" d="M2261.4,530.6c-15.3,39.7-23.8,82.6-33.3,124c-11.9,51.8-22.8,103.9-33.4,156
		c-5,24.7-14.6,49.1-14.7,74.5c-0.1,17.4,14.1,30.9,28.6,38.3c10.5,5.4,22,8.3,33.5,10.4c16,2.8,31.8,7,47.6,10.6
		c14.6,3.3,29.6,6,44,10.3c6.7,2,18.4,4.6,25.4,1.3c6.7-3.1,8.1-12.3,10.5-18.8c6.3-16.5,4.8-34.8-11.2-45
		c-11.5-7.3-30.7-7.7-37.8-20.9c-8.3-15.5,6-26.1,19.7-27.7c6-0.7,33.7,0,21.1-11.3c-20-18-33.8-39.6-21.7-52.3
		c12.1-12.7,45.4,21,45.4,21s-8.4-33.4,13-42.5c21.4-9.1,31.4,37.1,32.4,35.9c13.3-14.3,41.5-35,47.6-2c2.4,13.2-6.8,29.8-12.6,41.2
		c13.6-2,31-8.6,44-1.2c18.4,10.5,4.4,30-5.8,40.7c-11.3,11.8-29.8,14.2-41.8,26.3c-14.7,14.8-21,35.1-20.5,55.7
		c0.1,3,1.6,9.4,2.8,15.1c1.3,6.2,6,11,12.2,12.4c50.9,11.6,92.6,21,99.9,22.2c15.1,2.4,32.2,1.8,42.8-10.9
		c27.7-33.2,29.3-87.9,33.9-128.7c2.8-24.7,24.1-21.7,40.5-11.1c8.1,5.3,15.7,12,21.4,19.9c9,12.6,11.4,28.9,23.8,39.1
		c10.4,8.5,30.3,14.2,37.2-1.4c5.4-12.2,2.4-27,0.4-39.7c-0.1-0.5,0.5-0.7,0.8-0.3c6.9,9.6,32.3,12,41.3,8.5
		c26.6-10.4,6.7-33-6.4-45.1c-1.2-1.1,44.9-11.4,35.7-32.7s-42.6-12.7-42.6-12.7s33.5-33.5,20.7-45.5c-12.8-12-26.4-5.5-45.6,13.3
		c-19.1,18.7-20,7.2-21.2,4.4c-4-9.7-3.9-37-14.8-37.6c-15.7-0.9-18.5,15.3-24.2,26.4c-6.8,13.2-21.4,29.3-37.9,26.9
		c-17.3-2.6-8.2-17.8-4-32c15.4-52.8,46.5-123.2,17.8-176.7c-9.9-18.4-28.7-27.9-47.9-34c-26.9-8.6-55.3-12.7-83.1-17.7l-178-37.3
		C2366.8,479.9,2288.1,461.4,2261.4,530.6"/>
</g>
<g id="puzzle_7_" class="st6">
	<path id="XMLID_67_" class="st7" d="M2066.3,484.7c-13.3-26-31.5-50-48.3-73.8c-21.1-29.8-42.8-59.2-64.7-88.5
		c-10.4-13.8-18.5-29.9-31.5-41.6c-8.9-8-22.3-6.9-32.7-2.9c-7.5,2.9-14.3,7.4-20.7,12.4c-8.8,6.9-18.1,13.1-27.2,19.6
		c-8.4,6-16.6,12.5-25.4,17.9c-4.1,2.5-10.8,7.4-12.3,12.4c-1.5,4.9,2.6,9.8,4.8,14c5.6,10.8,15.7,18.4,28.2,14.8
		c9-2.6,18-12.2,28-9.8c11.7,2.8,10.6,15,5.2,22.8c-2.4,3.4-15.4,17.2-3.9,15.9c18.4-2.1,35.8,0.8,36.7,12.8
		c1,12-31.5,13.6-31.5,13.6s21,11,15.9,26.1s-33.3-0.9-33.2,0.2c1.2,13.4-1,37.3-20.7,25.3c-7.9-4.8-12.2-17.1-15.3-25.3
		c-5.2,7.9-9.8,19.8-19.5,23.1c-13.8,4.7-17.4-11.5-18.2-21.6c-0.9-11.2,6.4-21.7,5.7-33.4c-0.8-14.3-8.4-26.8-19.1-36
		c-1.6-1.3-5.5-3.5-9-5.5c-3.7-2.2-8.4-2-11.9,0.5c-29.2,20.7-53.1,37.8-57.1,41c-8.1,6.7-15.6,15.6-14,26.9
		c4.3,29.4,31.6,55.2,50.4,76.2c11.4,12.7,0.1,22.3-12.8,25.8c-6.4,1.7-13.3,2.6-20,1.8c-10.6-1.2-20-7.4-30.9-5.7
		c-9.1,1.4-21.1,9-16.3,19.7c3.8,8.3,12.8,13.6,20.1,18.4c0.3,0.2,0.1,0.6-0.2,0.6c-8-0.9-20.9,11.1-23.2,17.3
		c-6.8,18.4,13.8,18.5,26,17.3c1.1-0.1-14.7,28.2,0.4,33.2c15.1,5,26-16,26-16s1.8,32.5,13.8,31.5s14.9-11,14-29.5
		c-0.8-18.4,5.4-13.6,7.5-12.9c6.8,2.4,20.8,14.9,26.1,9.6c7.6-7.7,0.6-16.5-2.4-24.4c-3.7-9.5-5.2-24.4,3.6-31.7
		c9.2-7.7,12.9,4,18.2,12.6c20,32,41.9,80.2,82.4,89.9c13.9,3.4,27.4-2,39.3-9c16.7-9.9,31.8-22.5,47.1-34.5l100.5-74.2
		C2044,561.8,2089.5,530,2066.3,484.7"/>
</g>
<g id="puzzle_2_" class="st8">
	<path id="XMLID_66_" class="st9" d="M1302.9,611.9c16.6,6.6,34.6,10.2,52,14.2c21.7,5,43.6,9.7,65.5,14.1
		c10.3,2.1,20.6,6.2,31.2,6.2c7.3,0,13-6.2,16.2-12.6c2.3-4.6,3.6-9.6,4.5-14.7c1.3-7,3.1-13.9,4.7-20.8c1.5-6.4,2.6-13,4.5-19.3
		c0.9-2.9,2-8.1,0.7-11.1c-1.3-2.9-5.1-3.5-7.9-4.5c-6.9-2.7-14.6-2-19,5c-3.1,5.1-3.4,13.4-9,16.6c-6.5,3.7-10.9-2.5-11.6-8.5
		c-0.3-2.6,0.2-14.7-4.6-9.2c-7.6,8.8-16.8,14.9-22.1,9.6c-5.3-5.2,9-19.9,9-19.9s-14.1,3.8-17.8-5.5c-3.7-9.3,15.7-13.8,15.2-14.3
		c-6-5.8-14.5-18-0.6-20.8c5.6-1.1,12.5,2.9,17.3,5.4c-0.8-5.9-3.5-13.5-0.3-19.2c4.5-8.1,12.6-2,17.1,2.4c4.9,4.9,5.8,13,10.9,18.2
		c6.2,6.4,14.7,9,23.3,8.8c1.3,0,4-0.7,6.4-1.2c2.6-0.6,4.7-2.7,5.3-5.3c5.1-22.2,9.3-40.5,9.8-43.7c1.1-6.6,0.9-14-4.4-18.6
		c-13.8-12-36.8-12.5-54-14.4c-10.4-1.2-9-10.4-4.5-17.6c2.3-3.6,5.1-6.9,8.5-9.4c5.4-4,12.2-5.1,16.6-10.5
		c3.6-4.6,6.1-13.3-0.4-16.2c-5.1-2.3-11.4-1-16.7-0.1c-0.2,0-0.3-0.2-0.1-0.4c4.1-3,5.2-14.2,3.7-18.1c-4.3-11.6-13.8-2.8-19,2.9
		c-0.5,0.5-4.6-19.6-13.6-15.5c-9,4.1-5.5,18.6-5.5,18.6s-13.9-14.5-19-8.9s-2.4,11.5,5.4,19.9c7.8,8.3,3,8.7,1.7,9.3
		c-4.1,1.8-15.6,1.8-15.9,6.6c-0.4,6.9,6.4,8.1,11,10.5c5.5,2.9,12.2,9.3,11.1,16.5c-1.2,7.6-7.5,3.6-13.5,1.9
		c-22.1-6.6-51.6-19.9-74.2-7.3c-7.8,4.4-11.8,12.6-14.5,21c-3.7,11.8-5.6,24.2-7.8,36.3l-16.5,77.9
		C1282.1,566,1273.9,600.4,1302.9,611.9"/>
</g>
<g id="puzzle_3_" class="st10">
	<path id="XMLID_65_" class="st11" d="M998.6,870.4c-9.5-3.3-19.6-5.1-29.4-7c-12.3-2.5-24.6-4.7-37-6.8c-5.8-1-11.7-3.1-17.6-3
		c-4.1,0.1-7.2,3.5-8.8,7c-1.2,2.5-1.8,5.2-2.2,8c-0.6,3.8-1.4,7.5-2.2,11.3c-0.7,3.5-1.2,7-2.1,10.4c-0.4,1.6-1,4.4-0.1,6
		c0.8,1.6,2.9,1.8,4.5,2.4c3.9,1.4,8.2,0.9,10.5-2.9c1.7-2.8,1.6-7.3,4.7-9c3.6-2.1,6.2,1.2,6.7,4.4c0.2,1.4,0.2,7.9,2.8,4.9
		c4.1-4.8,9.1-8.2,12.2-5.5c3.1,2.8-4.7,10.8-4.7,10.8s7.8-2.2,10.1,2.8s-8.5,7.6-8.2,7.9c3.5,3,8.5,9.5,0.8,11.2
		c-3.1,0.7-7.1-1.4-9.8-2.7c0.6,3.2,2.2,7.2,0.6,10.4c-2.3,4.4-7,1.2-9.6-1.1c-2.8-2.6-3.5-6.9-6.5-9.7c-3.6-3.4-8.4-4.7-13.2-4.5
		c-0.7,0-2.2,0.4-3.5,0.7c-1.4,0.3-2.6,1.5-2.8,2.9c-2.4,12.1-4.3,22-4.6,23.7c-0.5,3.6-0.2,7.6,2.8,10c8,6.3,20.9,6.3,30.5,7.1
		c5.8,0.5,5.3,5.5,2.9,9.5c-1.2,1.9-2.7,3.8-4.6,5.2c-2.9,2.2-6.7,2.9-9.1,5.9c-1.9,2.5-3.1,7.2,0.6,8.7c2.9,1.2,6.4,0.4,9.4-0.2
		c0.1,0,0.2,0.1,0.1,0.2c-2.2,1.7-2.6,7.7-1.7,9.8c2.6,6.2,7.8,1.4,10.6-1.8c0.2-0.3,3,10.5,7.9,8.2s2.7-10.1,2.7-10.1
		s8.1,7.7,10.9,4.6c2.7-3.1,1.1-6.2-3.4-10.7c-4.5-4.4-1.8-4.7-1.2-5c2.3-1,8.7-1.2,8.8-3.7c0.1-3.7-3.7-4.3-6.4-5.5
		c-3.2-1.5-7-4.9-6.6-8.8c0.5-4.1,4.1-2,7.5-1.2c12.5,3.3,29.3,10.1,41.7,3c4.3-2.4,6.4-7,7.7-11.5c1.8-6.4,2.6-13.1,3.6-19.7
		l7.6-42.2C1011.2,894.9,1015,876.2,998.6,870.4"/>
</g>
<g id="puzzle_4_">
	<path id="XMLID_64_" class="st12" d="M933.6,723.5c11.7,10.3,25.3,18.7,38.3,27.3c16.3,10.7,32.8,21.1,49.3,31.4
		c7.8,4.9,15,11.3,23.7,14.6c6,2.3,12.4-0.9,16.8-4.9c3.2-2.9,5.7-6.5,7.9-10.2c3-5.1,6.5-10,9.7-15c3-4.6,5.8-9.4,9.2-13.8
		c1.6-2.1,3.9-5.7,3.7-8.6c-0.2-2.7-3.2-4.3-5.1-6c-4.9-4.3-11.3-6.1-16.9-1.9c-4,3-6.6,9.6-12,10.3c-6.4,0.9-8.2-5.4-7-10.3
		c0.5-2.1,4.3-11.6-1.2-8.7c-8.7,4.6-17.9,6.6-20.7,0.8c-2.8-5.8,13-12.9,13-12.9s-12.6-1.4-12.9-9.9c-0.4-8.5,16.7-6,16.5-6.6
		c-3.2-6.4-6.7-18.7,5.4-16.6c4.9,0.9,9.4,6.1,12.5,9.6c1-4.9,1-11.7,5.2-15.3c6-5,10.9,2.3,13.2,7.2c2.6,5.4,1.1,12,3.7,17.7
		c3.2,6.9,9.4,11.7,16.5,14.2c1,0.4,3.4,0.7,5.5,1c2.3,0.3,4.6-0.7,5.8-2.6c10.5-16,19.1-29.1,20.4-31.5c2.7-4.9,4.7-10.8,1.7-16.1
		c-7.8-13.8-26.4-21.3-39.9-28.1c-8.1-4.1-4.4-11,1.4-15.3c2.9-2.1,6.1-3.9,9.6-4.8c5.5-1.5,11.4-0.2,16.5-3.2
		c4.3-2.5,8.7-8.6,4.3-12.9c-3.5-3.4-9-4.3-13.6-5.2c-0.2,0-0.2-0.3,0-0.3c4.2-1.1,8.3-9.6,8.2-13.1c-0.2-10.5-10.5-6.5-16.3-3.6
		c-0.5,0.3,1.8-16.9-6.7-16.4c-8.5,0.4-9.8,13-9.8,13s-7.2-15.8-13-12.9c-5.8,2.8-5.3,8.3-1.3,17.4c4,9-0.1,7.8-1.2,7.8
		c-3.9,0.1-13.2-3.4-14.8,0.3c-2.3,5.3,2.9,8.3,6,11.7c3.7,4,7.3,11.1,4.4,16.5c-3.1,5.6-7.2,0.5-11.5-2.7
		c-16.2-12-36.4-31.7-58.4-28.7c-7.6,1-13.2,6.3-17.8,12.1c-6.4,8.2-11.4,17.4-16.7,26.3l-35.6,56.4
		C929.7,680.8,913.3,705.4,933.6,723.5"/>
</g>
<g id="puzzle_5_" class="st4">
	<path id="XMLID_63_" class="st5" d="M701.1,995.9c-3.3,9.1-5.1,18.9-7,28.3c-2.5,11.8-4.7,23.7-6.9,35.6c-1,5.6-3.1,11.2-3,17
		c0.1,4,3.3,7,6.7,8.6c2.4,1.2,5,1.8,7.7,2.2c3.6,0.6,7.3,1.5,10.9,2.2c3.3,0.7,6.8,1.2,10,2.2c1.5,0.4,4.2,1,5.8,0.2
		c1.5-0.7,1.8-2.8,2.3-4.3c1.4-3.8,0.9-7.9-2.7-10.2c-2.7-1.6-7-1.6-8.7-4.6c-1.9-3.5,1.2-6,4.4-6.4c1.4-0.2,7.7-0.1,4.7-2.6
		c-4.6-4-7.9-8.8-5.2-11.8c2.7-2.9,10.4,4.6,10.4,4.6s-2-7.6,2.8-9.7c4.8-2.2,7.3,8.3,7.5,8c3-3.3,9.3-8.1,10.8-0.6
		c0.6,3-1.4,6.8-2.7,9.4c3.1-0.5,7-2.1,10-0.5c4.2,2.3,1.1,6.8-1.1,9.3c-2.5,2.7-6.7,3.3-9.4,6.1c-3.3,3.4-4.6,8.1-4.4,12.7
		c0,0.7,0.4,2.1,0.7,3.4c0.3,1.4,1.4,2.5,2.8,2.8c11.6,2.4,21.1,4.4,22.8,4.6c3.4,0.5,7.3,0.3,9.7-2.6c6.2-7.6,6.3-20.1,7.2-29.4
		c0.5-5.6,5.4-5,9.1-2.7c1.9,1.2,3.6,2.7,4.9,4.4c2.1,2.8,2.7,6.5,5.6,8.8c2.4,1.9,6.9,3.1,8.4-0.5c1.2-2.8,0.4-6.2-0.1-9
		c0-0.1,0.1-0.2,0.2-0.1c1.6,2.1,7.4,2.6,9.4,1.7c6-2.5,1.4-7.5-1.6-10.2c-0.3-0.2,10.2-2.8,8-7.6c-2.2-4.8-9.7-2.7-9.7-2.7
		s7.5-7.7,4.5-10.4c-3-2.7-6-1.1-10.3,3.2c-4.3,4.3-4.5,1.7-4.8,1.1c-1-2.2-1-8.4-3.5-8.5c-3.6-0.1-4.1,3.6-5.4,6.1
		c-1.5,3-4.7,6.7-8.5,6.3c-3.9-0.5-1.9-4-1.1-7.3c3.3-12.1,10-28.2,3.3-40.2c-2.3-4.1-6.6-6.2-11-7.5c-6.2-1.8-12.6-2.6-18.9-3.7
		l-40.6-7.7C724.8,983.9,706.9,980,701.1,995.9"/>
</g>
<g id="puzzle_6_" class="st13">
	<path id="XMLID_61_" class="st9" d="M823.1,1286.6c3.8-10,5.7-20.8,7.9-31.3c2.8-13.1,5.3-26.2,7.7-39.3c1.2-6.2,3.5-12.4,3.4-18.8
		c-0.1-4.4-3.9-7.7-7.7-9.6c-2.8-1.3-5.8-2.1-8.8-2.5c-4.2-0.7-8.4-1.7-12.5-2.6c-3.8-0.8-7.8-1.4-11.6-2.5
		c-1.8-0.5-4.8-1.1-6.7-0.3c-1.7,0.8-2,3.1-2.6,4.7c-1.5,4.2-1,8.8,3.2,11.3c3.1,1.8,8.1,1.9,10,5.2c2.3,3.9-1.4,6.6-5,7
		c-1.6,0.2-8.8,0.1-5.4,2.9c5.4,4.5,9.1,9.9,6,13.1s-12-5.2-12-5.2s2.4,8.4-3.1,10.7c-5.5,2.3-8.4-9.3-8.7-9
		c-3.4,3.6-10.6,8.9-12.4,0.6c-0.7-3.3,1.6-7.5,3-10.4c-3.5,0.5-8,2.2-11.5,0.4c-4.9-2.6-1.3-7.5,1.2-10.2c2.9-3,7.7-3.6,10.8-6.7
		c3.8-3.7,5.3-8.9,5-14c0-0.8-0.5-2.4-0.8-3.8c-0.4-1.5-1.6-2.8-3.3-3.1c-13.4-2.8-24.3-5.1-26.2-5.4c-4-0.6-8.4-0.4-11.1,2.8
		c-7,8.4-7.1,22.2-8.1,32.4c-0.6,6.2-6.2,5.5-10.5,2.9c-2.2-1.3-4.2-3-5.7-5c-2.4-3.2-3.2-7.2-6.5-9.8c-2.8-2.1-8-3.5-9.7,0.4
		c-1.3,3.1-0.5,6.8,0.1,10c0,0.1-0.1,0.2-0.2,0.1c-1.9-2.4-8.5-2.9-10.9-2c-6.9,2.7-1.6,8.3,2,11.3c0.3,0.3-11.7,2.9-9.1,8.3
		c2.5,5.3,11.2,3.1,11.2,3.1s-8.5,8.5-5.1,11.5c3.4,3,6.9,1.3,11.8-3.4c4.9-4.7,5.2-1.9,5.5-1.1c1.1,2.4,1.2,9.3,4.1,9.4
		c4.1,0.2,4.7-3.9,6.2-6.7c1.7-3.3,5.4-7.4,9.7-6.8c4.5,0.6,2.2,4.5,1.3,8c-3.7,13.3-11.4,31.1-3.5,44.5c2.7,4.6,7.7,6.9,12.7,8.4
		c7.1,2.1,14.5,3.1,21.8,4.3l46.8,9C795.9,1299.6,816.6,1304.1,823.1,1286.6"/>
</g>
<g id="XMLID_1_">
	<path id="XMLID_2_" class="st14" d="M1416.4,1179.5l7.2-2.6c0.4,0.9,1,2.3,1.8,4c3,6.4,5.1,11.3,6.4,14.5l-7,2.4h26v7.1h-54.5v-7.1
		h27.6c-0.7-2-2.1-5.5-4.3-10.6C1418.1,1183.6,1417,1181,1416.4,1179.5z M1445.1,1227.7h-43.2v-7h43.2V1227.7z M1445.1,1250.5h-43.2
		v-7h43.2V1250.5z M1403.2,1316.3v-50.1h41.9v49.8h-7.5v-9.3h-26.8v9.6H1403.2z M1410.7,1273.2v26.6h26.8v-26.6H1410.7z
		 M1460.2,1249.3h31.9v-38.6h-34.5v-7.5h39.4c-2.4-6.3-5.8-14.2-10.2-23.6l7.2-3c3.2,6.6,6.8,14.4,10.8,23.4l-7.3,3.1h37.5v7.5h-35
		v38.6h32.6v7.5h-32.6v45.6h38.5v7.5h-85.8v-7.5h39.5v-45.6h-31.9V1249.3z"/>
	<path id="XMLID_9_" class="st14" d="M1583,1316.4h-7.8v-68.1H1562v-7.5h13.3v-55.1h114.1v55.1h13.8v7.5h-13.8v51.6
		c0.5,10.3-4.6,15.5-15.3,15.5c-1.7,0-3.5,0.1-5.3,0.1c-0.9,0-1.9,0-2.9,0c-0.9,0-2.2,0-4,0c-0.1-1.3-0.5-3.4-1-6.4
		c-0.1-0.8-0.2-1.3-0.3-1.7c4.2,0.3,8,0.5,11.3,0.5c3.7,0,6.3-0.7,7.7-2c1.4-1.3,2.1-3.6,2.1-7v-50.6h-27.8v62.8h-7.8v-62.8h-27.4
		v63.2h-7.8v-63.2H1583V1316.4z M1583,1193.3v47.5h27.8v-47.5H1583z M1618.6,1193.3v47.5h27.4v-47.5H1618.6z M1681.6,1193.3h-27.8
		v47.5h27.8V1193.3z"/>
	<path id="XMLID_14_" class="st14" d="M1807.4,1176.8h8c0.3,10.9,0.6,20.8,1,29.5h50.7v7.3h-50.4c1.5,24.9,4.3,44.9,8.6,59.9
		c8.6-11.3,16.7-25.8,24.5-43.5l7.6,3c-9.4,20.4-19.1,36.9-29.2,49.6c6,17.6,12.6,26.4,19.9,26.4c4.1,0.3,7.1-2.8,9-9.4
		c1.7-6.2,2.9-12.5,3.7-19c2.5,1.2,5,2.2,7.5,2.9c-1.2,8.3-2.5,14.8-4.1,19.5c-2.9,9.6-8.4,14.3-16.3,14.1
		c-10.4,0.5-19-8.5-25.9-27.2c-7.6,8.5-16.9,17-28.1,25.3c-1.6-1.9-3.5-4-5.9-6.3c12.1-8.6,22.5-17.8,31.1-27.8
		c-5.4-16.5-8.9-38.9-10.3-67.4h-59v25h42c-0.1,11.2-0.7,24.6-1.6,40.1c-0.3,14.2-6.8,21.2-19.4,21c-3.1,0.1-7.5,0.1-13.2,0.1
		c-0.4-3-1-5.8-1.8-8.4c1.8,0.1,3.7,0.3,5.9,0.4c1,0,2.2,0,3.4,0.1c1.1,0,2.6,0,4.5,0c8.3,0.5,12.5-3.7,12.6-12.6
		c0.9-12.1,1.4-23.1,1.5-33.3h-33.9c0,18.5-1.2,32.3-3.6,41.5c-2.1,9.1-6.6,19.4-13.7,30.7c-1.7-1.6-3.9-3.4-6.6-5.6
		c7-11,11.3-21,13-29.9c2-8.5,3-23.5,2.9-44.8v-31.6h66.4C1807.9,1197.3,1807.6,1187.5,1807.4,1176.8z M1827.9,1186.7l4.6-5.4
		c7.8,4.7,15.2,9.5,22.2,14.6l-4.8,5.9C1843.1,1196.7,1835.8,1191.7,1827.9,1186.7z"/>
	<path id="XMLID_17_" class="st14" d="M1894,1291.5l-2.6-8.7c6.8-1.5,15.6-3.6,26.1-6.3v-73.2h-24.5v-7.5h55v7.5h-22.5v71.3
		c8-2.1,15.5-4.1,22.5-6c0.1,2.6,0.4,5.3,0.8,8.1C1936,1279.9,1917.7,1284.9,1894,1291.5z M1950.5,1208.3h20.7
		c0.5-11.2,0.7-21.3,0.7-30.3h8.1c0,11.7-0.2,21.8-0.7,30.3h46.9c-0.8,34.2-1.8,61.9-3,83.2c0,15.9-7.9,23.6-23.7,23.3
		c-4.2,0.1-11.4,0.1-21.5,0.1c-0.4-3.5-1.1-6.4-1.8-8.7c2.5,0.1,5.6,0.3,9.1,0.4c1.7,0,3.6,0,5.6,0.1c1.9,0,4.4,0,7.5,0
		c11.1,0.6,16.7-4.4,16.6-15c1.4-26.6,2.3-51.8,2.7-75.7h-39c0,1.9-0.2,4.7-0.5,8.5c-0.1,2.4-0.3,4.2-0.4,5.5
		c-1.5,40-16.3,69.4-44.4,88.2c-2.9-2.8-5.1-5-6.7-6.4c27.7-16.9,42.1-44.3,43-82.3c0-0.7,0.1-1.8,0.2-3.3c0.2-1.8,0.4-5.2,0.7-10.2
		h-20.4V1208.3z"/>
	<path id="XMLID_20_" class="st14" d="M2075.5,1301.5c-1.8,0-3.2-0.6-4.5-1.8c-1.2-1.2-1.8-2.7-1.8-4.5c0-1.9,0.6-3.4,1.8-4.5
		c1.2-1.2,2.7-1.8,4.5-1.8c1.8,0,3.3,0.6,4.6,1.8c1.3,1.2,1.9,2.7,1.9,4.5c0,1.8-0.6,3.3-1.9,4.5
		C2078.9,1300.9,2077.4,1301.5,2075.5,1301.5z M2078.8,1268.2h-6.8l-0.8-81.6h8.3L2078.8,1268.2z"/>
</g>
<g id="XMLID_23_">
</g>
<g id="XMLID_24_">
</g>
<g id="XMLID_25_">
</g>
<g id="XMLID_26_">
</g>
<g id="XMLID_27_">
</g>
<g id="XMLID_28_">
</g>
<g id="XMLID_29_">
</g>
<g id="XMLID_30_">
</g>
<g id="XMLID_31_">
</g>
<g id="XMLID_32_">
</g>
<g id="XMLID_33_">
</g>
<g id="XMLID_34_">
</g>
<g id="XMLID_35_">
</g>
<g id="XMLID_36_">
</g>
<g id="XMLID_37_">
</g>
</svg>
