<?xml version="1.0" encoding="utf-8"?>
<!-- Generator: Adobe Illustrator 19.0.0, SVG Export Plug-In . SVG Version: 6.00 Build 0)  -->
<svg version="1.1" id="圖層_1" xmlns="http://www.w3.org/2000/svg" xmlns:xlink="http://www.w3.org/1999/xlink" x="0px" y="0px"
	 viewBox="0 0 418.9 325.8" style="enable-background:new 0 0 418.9 325.8;" xml:space="preserve">
<style type="text/css">
	.st0{fill:none;stroke:#ED1C24;stroke-width:5;stroke-miterlimit:10;}
	.st1{fill:#ED1C24;}
</style>
<g id="XMLID_1102_">
	
		<rect id="XMLID_1104_" x="23.5" y="74" transform="matrix(0.9051 -0.4253 0.4253 0.9051 -49.389 104.5381)" class="st0" width="371.9" height="177.9"/>
	<g id="XMLID_1103_">
		<path id="XMLID_15_" class="st1" d="M215.4,194.7c4.9,15.2,3.8,24.5-3.3,27.8c-7.1,3.4-16.5-0.3-28.1-11.1
			c-4.3,11.5-9.7,22.4-16.2,32.6l-10.5-3.8c9-13.4,15.1-25.7,18.4-37c-9.3-10.8-17.7-22.9-25.2-36.3l-39.3,18.5l5.5,11.8l30.5-14.3
			c3.8,9.1,6.6,16.2,8.5,21.5c1.9,5.3,3.2,9.3,4,12.1c0.8,2.8,0.9,5.5,0.3,8.2c-0.6,2.7-2,4.8-4,6.3c-2,1.5-4.8,3.1-8.4,4.8
			c-1.8,0.8-3.7,1.7-5.7,2.4l-7.1-7.6c2.4-1,4.4-1.9,6.1-2.7c5.5-2.6,8.3-4.6,8.4-6.1c0.2-1.5-0.7-5-2.7-10.6
			c-1.9-5.6-3.7-10.3-5.4-14l-20.4,9.6c9.2,21,12.6,39,10.3,54l-11.3-3.3c1.8-14.1-2.3-31.9-12.5-53.5l-10.8-23.1l48.9-23
			c-3-5.7-5.8-11.4-8.3-17.2l10.4-4.9c0.7,1.9,1.6,3.8,2.5,5.7c1.6,3.4,3.6,7.2,6,11.4l30.2-14.2l4.3,9.2L161,162.2
			c5.1,9.7,11.2,18.9,18.2,27.7c1.5-8.5,1.8-18.5,0.9-29.9l10.7-1.2c1,15.3-0.1,28.9-3.1,40.6c3.3,3.7,6.8,6.7,10.3,9.1
			c3.6,2.4,5.7,3.7,6.4,3.8c0.7,0.1,1.3,0,1.9-0.3c0.7-0.3,1.1-0.8,1.3-1.4c0.2-0.6-0.1-2.6-0.8-6.1s-1.8-6.8-3-9.9L215.4,194.7z
			 M179.3,132.4l-2.5,9.7c-5.6-0.9-12.3-1-20.3-0.3l2.3-10C166.1,131.1,172.9,131.3,179.3,132.4z"/>
		<path id="XMLID_18_" class="st1" d="M271.1,163c-11.3,14-22.7,26-34.2,36.1l-6.6-8c5.3-4.8,10.1-9.4,14.4-13.8l-24-51l-14.3,6.7
			l-4.4-9.3l38.9-18.3l4.4,9.3l-14.2,6.7L253,168c3.8-3.9,7.9-8.5,12.3-13.8L271.1,163z M302.9,88.1c7.9,17.6,14.5,33.1,19.6,46.4
			c5.1,13.4,7.6,21.5,7.6,24.3c0,2.9-1,5.3-2.8,7.3c-1.9,2-5.8,4.4-11.7,7.2c-3.5,1.6-6,2.7-7.5,3.1l-8.2-8c4-1.4,7.6-2.9,10.9-4.4
			c3.7-1.8,5.9-3,6.7-3.6c0.7-0.7,1.1-1.4,1.2-2.1c0.1-0.7-1-4.4-3.3-10.9c-2.3-6.5-5-13.7-8.3-21.7c-3.3-8-6.5-15.7-9.8-23.2
			L279,111c8.2,20.1,11.5,36,9.8,47.6c-1.7,11.6-4.7,22.4-9,32.4l-11-3.4c5-10.1,7.9-20.7,8.8-31.7c0.9-11.1-2-24.4-8.8-40
			l-15.7,7.4l-4.5-9.6l16-7.5l-9-20.2l10.1-4.7c1.8,3.5,4.8,10.2,9,20.2L302.9,88.1z"/>
	</g>
</g>
<g id="XMLID_14_">
</g>
<g id="XMLID_21_">
</g>
<g id="XMLID_22_">
</g>
<g id="XMLID_23_">
</g>
<g id="XMLID_24_">
</g>
<g id="XMLID_25_">
</g>
<g id="XMLID_26_">
</g>
<g id="XMLID_27_">
</g>
<g id="XMLID_28_">
</g>
<g id="XMLID_29_">
</g>
<g id="XMLID_30_">
</g>
<g id="XMLID_31_">
</g>
<g id="XMLID_32_">
</g>
<g id="XMLID_33_">
</g>
<g id="XMLID_34_">
</g>
</svg>
