<?xml version="1.0" encoding="utf-8"?>
<!-- Generator: Adobe Illustrator 19.0.0, SVG Export Plug-In . SVG Version: 6.00 Build 0)  -->
<svg version="1.1" id="圖層_1" xmlns="http://www.w3.org/2000/svg" xmlns:xlink="http://www.w3.org/1999/xlink" x="0px" y="0px"
	 viewBox="0 0 291.2 321.4" style="enable-background:new 0 0 291.2 321.4;" xml:space="preserve">
<style type="text/css">
	.st0{fill:#1B4154;stroke:#92C4E9;stroke-width:6;stroke-miterlimit:10;}
	.st1{fill:#FFFFFF;stroke:#92C4E9;stroke-width:6;stroke-miterlimit:10;}
</style>
<g id="XMLID_207_">
	<line id="XMLID_267_" class="st0" x1="289" y1="305.1" x2="249" y2="305.1"/>
	<path id="XMLID_266_" class="st0" d="M42.1,306.3c12.2,2.5,20,12.8,13.6,12.1c-6.4-0.7-14.1-0.7-20.3-2.4c-7.4-2-15-3.5-22.4-5.8
		c-0.7,3.2-1,4.5-1.8,7.7c-2.6,0.2-5.6-0.2-8.2,0c0.2-5.1,0.4-7.6,0.6-12.7"/>
	<g id="XMLID_213_">
		<path id="XMLID_265_" class="st0" d="M4.1,144.7L29.5,5.5c21.8,4,44.2,10.5,59.4,26s24.2,37,24.6,58.7
			c-10.9-0.8-21.6-3.2-31.7-7.1c8,12.4,11.2,27.7,8.8,42.3c-0.9,5.4-2.6,10.9-6.1,15.2c-4.5,5.4-11.4,8.1-18.1,9.8
			c-20.1,5.2-42.1,3.4-61.1-5"/>
		<path id="XMLID_264_" class="st0" d="M4.1,272.6c0,0,0.2-126.3,0.2-126.3c0-1.8,23,4.2,24.9,4.9c7.2,2.8,14,6.7,20.6,10.7
			c16.8,10.5,40.4,30.7,50.3,46.7c13.1,21.1,9.8,48.5-15.8,58.5c-5.5,2.1-11.3,2.9-17.2,3.4C46.2,272.6,25,273.3,4.1,272.6"/>
		<path id="XMLID_263_" class="st1" d="M156.1,209.3c1.3,0,2.6-0.7,3.3-1.9c-0.5-1.1-1.9-1.2-3.1-1.2c-4.4,0-8.7,0-13.1-0.1
			c-3.2,0-6.6,0-9.6,1c-3.1,1.1-5.8,3.3-7.5,6.1"/>
		<line id="XMLID_262_" class="st0" x1="37.8" y1="177.2" x2="126.7" y2="213.4"/>
		<line id="XMLID_261_" class="st0" x1="30.9" y1="190.3" x2="121.6" y2="221.4"/>
		<line id="XMLID_260_" class="st0" x1="126.7" y1="213.4" x2="121.6" y2="222.9"/>
		<line id="XMLID_259_" class="st0" x1="116.9" y1="209.4" x2="113.5" y2="218.7"/>
		
			<ellipse id="XMLID_258_" transform="matrix(-0.8432 -0.5375 0.5375 -0.8432 126.9228 491.3568)" class="st0" cx="135.1" cy="227.2" rx="3.7" ry="5.4"/>
		
			<ellipse id="XMLID_257_" transform="matrix(-0.8432 -0.5375 0.5375 -0.8432 140.0976 499.4318)" class="st0" cx="142.9" cy="229.3" rx="3.7" ry="5.2"/>
		
			<ellipse id="XMLID_256_" transform="matrix(-0.8432 -0.5375 0.5375 -0.8432 148.912 511.1833)" class="st0" cx="149" cy="233.9" rx="3.7" ry="5.2"/>
		<path id="XMLID_255_" class="st0" d="M153.1,209.9c-5.1,1-9.1,2.9-8.8,4.3c0.3,1.4,4.8,2.4,9.8,0.8c5.8-1.8,9.1-2.9,8.8-4.3
			C162.6,209.3,158.2,208.9,153.1,209.9z"/>
		<path id="XMLID_254_" class="st0" d="M123.4,220.7c3.4,0,6.8,1.6,8.9,4.3"/>
		<path id="XMLID_228_" class="st1" d="M152.5,217.1c3.7,0.7,7.2,2.4,10.1,4.9c1.5,1.2,2.9,2.9,2.9,4.8c0,1.9-2.1,3.8-3.8,2.9
			c-4.1-2.3-8-5.7-11.7-8.7"/>
		<path id="XMLID_227_" class="st1" d="M156.1,226.4c1.4,0,2.6,1,3.3,2.1c1.2,1.8,1.5,4.3,0.1,6c-1.4,1.6-4.6,1.4-5.2-0.7"/>
		<path id="XMLID_226_" class="st1" d="M157.8,213.4c4,1,7.8,2.6,11.4,4.5c1.9,1,4,3.1,2.9,5c-2.2,0-6.6,0.1-6.6,0.1"/>
		<line id="XMLID_225_" class="st0" x1="173.4" y1="217.1" x2="170.3" y2="207.7"/>
		<path id="XMLID_224_" class="st0" d="M287.5,142.2L259.4,3.5C237.6,8,214.5,15.1,199,31.1s-24.2,37.6-24.3,59.4
			c11.2-1.1,22.3-3.8,32.8-7.9c-8,12.6-11.1,28.1-8.4,42.5c1,5.4,2.9,10.9,6.6,15c4.7,5.2,11.9,7.8,18.9,9.3
			c20.8,4.6,42.9,2.3,62.4-6.5"/>
		<path id="XMLID_223_" class="st0" d="M288,269.5c0,0-0.7-126.3-0.7-126.3c0-1.8-23.2,4.2-25.1,4.9c-7.5,2.8-14.2,6.7-21,10.7
			c-19.5,11.8-39.5,27.4-51.8,46.7c-13.6,21.1-10.1,48.5,16.4,58.5c5.6,2.1,11.7,2.9,17.8,3.4C245.1,269.6,266.4,270.3,288,269.5"/>
		<path id="XMLID_222_" class="st0" d="M250.6,304c-12.1,2.5-20.5,14.7-14.2,14c6.4-0.7,13.7-3.8,19.9-5.5c7.4-2,14.9-3.5,22.2-5.8
			c0.7,3.2,0.9,8.1,1.7,11.3c2.6,0.2,5.3-0.2,7.9,0c-0.2-5.1,0-11.2-0.2-16.3"/>
		<path id="XMLID_221_" class="st0" d="M234.6,90c-5.9,15.9-19.8,28.9-36.5,34.1"/>
		<line id="XMLID_220_" class="st0" x1="253.8" y1="174.2" x2="161.9" y2="210.3"/>
		<line id="XMLID_219_" class="st0" x1="260.9" y1="187.3" x2="169.2" y2="217.8"/>
		<polygon id="XMLID_218_" class="st0" points="41.5,306.4 3.7,306.9 3.9,272.3 53.6,273.4 		"/>
		<polygon id="XMLID_217_" class="st0" points="251.5,304 288,304 288,268 239.5,269.2 		"/>
		<polygon id="XMLID_216_" class="st0" points="227.2,268 239.5,268.5 251.8,301.8 249.5,302.4 		"/>
		<line id="XMLID_215_" class="st0" x1="288" y1="145.1" x2="288" y2="304.1"/>
		<polygon id="XMLID_214_" class="st0" points="63,272.7 51.9,273.1 41.7,305.3 43.2,305.7 		"/>
	</g>
	<path id="XMLID_212_" class="st0" d="M53.5,98.1c5.8,15.9,19.4,28.9,35.8,34.1"/>
</g>
<g id="XMLID_1_">
</g>
<g id="XMLID_2_">
</g>
<g id="XMLID_3_">
</g>
<g id="XMLID_4_">
</g>
<g id="XMLID_5_">
</g>
<g id="XMLID_6_">
</g>
<g id="XMLID_7_">
</g>
<g id="XMLID_8_">
</g>
<g id="XMLID_9_">
</g>
<g id="XMLID_10_">
</g>
<g id="XMLID_11_">
</g>
<g id="XMLID_12_">
</g>
<g id="XMLID_13_">
</g>
<g id="XMLID_14_">
</g>
<g id="XMLID_15_">
</g>
</svg>
