<?xml version="1.0" encoding="utf-8"?>
<!-- Generator: Adobe Illustrator 19.0.0, SVG Export Plug-In . SVG Version: 6.00 Build 0)  -->
<svg version="1.1" id="圖層_1" xmlns="http://www.w3.org/2000/svg" xmlns:xlink="http://www.w3.org/1999/xlink" x="0px" y="0px"
	 viewBox="0 0 409.9 409.9" style="enable-background:new 0 0 409.9 409.9;" xml:space="preserve">
<style type="text/css">
	.st0{fill:#070001;stroke:#FFFFFF;stroke-miterlimit:10;}
	.st1{fill:#FFFFFF;}
	.st2{fill:#FFFFFF;stroke:#FFFFFF;stroke-width:2;stroke-miterlimit:10;}
</style>
<g id="XMLID_220_">
	<circle id="XMLID_225_" class="st0" cx="204.9" cy="204.9" r="204.4"/>
	<path id="XMLID_224_" class="st1" d="M399,38.7c1.7,10.6,1.4,21.6,1.6,32.3c0.1,13.4,0,26.8-0.2,40.1c-0.1,6.3,1,12.8-0.4,19.1
		c-0.9,4.3-5.2,6.8-9.2,7.9c-2.9,0.8-5.9,0.9-8.9,0.8c-4.1-0.2-8.3,0-12.4,0.1c-3.8,0-7.7-0.1-11.5,0.2c-1.8,0.1-4.8,0.1-6.4-1
		c-1.5-1.1-1.3-3.5-1.6-5.2c-0.7-4.4,0.7-8.8,5.2-10.5c3.3-1.2,8-0.2,10.5-3.1c2.9-3.4-0.1-6.7-3.4-7.9c-1.4-0.5-8.3-1.8-4.6-3.9
		c5.9-3.3,10.5-7.9,8.2-11.7c-2.3-3.8-12.4,2.7-12.4,2.7s3.9-7.8-0.9-11.1c-4.8-3.4-9.8,7.4-10,7.1c-2.5-4.2-8.4-10.8-11.7-3
		c-1.3,3.1,0.1,7.7,0.9,10.8c-3.2-1.2-7.2-3.8-10.8-2.7c-5.1,1.6-2.7,7.1-0.8,10.3c2.2,3.5,6.6,5.1,8.9,8.7
		c2.8,4.4,3.3,9.7,2.1,14.8c-0.2,0.7-0.9,2.2-1.5,3.6c-0.6,1.4-2.1,2.4-3.7,2.4c-13.2,0.1-24.1,0.2-25.9,0.1c-3.9-0.2-8.1-1.3-10-5
		c-5.1-9.6-2.5-23.2-1.5-33.5c0.6-6.2-4.8-6.6-9.4-4.9c-2.3,0.9-4.5,2.1-6.4,3.8c-2.9,2.6-4.4,6.5-8,8.3c-3,1.5-8.3,1.9-9.1-2.3
		c-0.7-3.3,0.9-6.8,2-9.8c0-0.1-0.1-0.2-0.2-0.1c-2.2,2-8.7,1.2-10.7-0.1c-6-4,0.1-8.5,4-10.7c0.3-0.2-10.5-5.2-7.1-9.9
		c3.4-4.7,11.2-0.8,11.2-0.8s-6.5-10-2.7-12.3s6.8,0.1,10.6,5.7c3.7,5.6,4.6,2.9,5,2.2c1.5-2.2,3-8.9,5.7-8.5
		c3.9,0.6,3.8,4.8,4.6,7.8c1,3.6,3.7,8.3,7.9,8.6c4.4,0.3,3-3.9,2.7-7.6c-1-13.8-4.9-32.8,5.1-44.4c3.4-4,8.6-5.3,13.7-5.8
		c7.1-0.7,14.4-0.2,21.5,0.1l46.1,0.4C375.7,20.6,396.2,20.2,399,38.7"/>
	<path id="XMLID_221_" class="st2" d="M13.7,282.8c-0.3-2.7,0-5.2,0.9-7.4c1.3-3.1,4.2-5.2,7-7c18.8-12.5,40.1-20,56.9-35.5
		c7.2-6.6,14.4-13.3,21.7-19.9c5.1-4.6,10.3-9.4,16.8-11.5c9.1-2.9,19.5-2,28.9-4.1c12.4-2.9,32.5-16,37.4-7.7
		c5.7,9.5-18.8,24.1-29.6,32.6c7.7-6.1,22.4,1,30.2,3.5c13.5,4.4,28,4.9,42,2.8c17.5-2.6,34.2-8.7,50.8-14.9
		c6.9-2.6,26.5-18.3,33.3-10.1c11,13.3-51.6,44.6-60.9,48.6c-27.2,11.9-56.8,18.1-86.5,18c-12.4-0.1-24.2-1.9-36.5,0.7
		c-13.9,2.9-27,9.2-39.4,15.8c-5.8,3.1-11.6,6.4-15.9,11.3c-4.8,5.6-7.2,12.7-10.6,19.3c-3.2,6.1-7,14.1-9.3,22
		c-1.3,4.6-17.2-18.7-19.7-22.3C26.1,309.5,15,294.5,13.7,282.8z"/>
</g>
<g id="XMLID_14_">
</g>
<g id="XMLID_15_">
</g>
<g id="XMLID_16_">
</g>
<g id="XMLID_17_">
</g>
<g id="XMLID_18_">
</g>
<g id="XMLID_19_">
</g>
</svg>
