<?xml version="1.0" encoding="utf-8"?>
<!-- Generator: Adobe Illustrator 19.0.0, SVG Export Plug-In . SVG Version: 6.00 Build 0)  -->
<svg version="1.1" id="圖層_1" xmlns="http://www.w3.org/2000/svg" xmlns:xlink="http://www.w3.org/1999/xlink" x="0px" y="0px"
	 viewBox="0 0 3401.5 3084.2" style="enable-background:new 0 0 3401.5 3084.2;" xml:space="preserve">
<style type="text/css">
	.st0{clip-path:url(#XMLID_23_);fill:#FFFFFF;}
	.st1{opacity:0.92;clip-path:url(#XMLID_23_);}
	.st2{fill:#AFDEEB;}
	.st3{clip-path:url(#XMLID_23_);}
	.st4{opacity:0.92;}
</style>
<g id="XMLID_15_">
	<defs>
		<rect id="XMLID_14_" x="0" y="0" width="3401.5" height="3084.2"/>
	</defs>
	<clipPath id="XMLID_23_">
		<use xlink:href="#XMLID_14_"  style="overflow:visible;"/>
	</clipPath>
	<rect id="XMLID_55_" x="0" y="0" class="st0" width="3401.5" height="3084.2"/>
	<g id="puzzle_18_" class="st1">
		<path id="XMLID_145_" class="st2" d="M2646.4,1961c25.7,13.7,54.1,23,81.4,32.8c34.2,12.3,68.7,24,103.2,35.5
			c16.3,5.4,32.1,13.9,49.4,16.1c11.8,1.5,22.1-7,28.4-16.3c4.5-6.7,7.5-14.2,9.8-21.9c3.2-10.6,7.4-21,11.1-31.5
			c3.5-9.7,6.5-19.6,10.6-29.1c1.9-4.4,4.6-12.1,3-17.2c-1.6-4.8-7.7-6.5-11.9-8.7c-10.7-5.6-23.2-6.1-31.5,3.9
			c-5.9,7.2-7.7,20.2-17.3,23.9c-11.2,4.3-17.2-6.2-17.2-15.6c0-4.1,2.8-22.9-5.9-15.2c-13.8,12.1-29.6,19.7-37.3,10.5
			c-7.6-9.3,18-29.1,18-29.1s-23.4,2.9-27.8-12.3c-4.4-15.2,27.7-18.2,27-19.1c-8.6-10.2-20.4-31,2.6-32.4c9.2-0.6,19.7,7,27,12
			c-0.3-9.4-3.3-21.7,2.8-30c8.6-11.7,20.8-0.5,27.1,7.3c7.1,8.6,7.2,21.4,14.4,30.5c8.8,11.2,22.1,17.1,36.1,18.5
			c2,0.2,6.5-0.3,10.5-0.6c4.3-0.4,8-3.2,9.4-7.2c12.1-33.6,21.9-61.1,23.3-66c2.8-10.1,3.9-21.7-3.9-29.9
			c-20.2-21.6-57.2-27.1-84.6-33.6c-16.5-3.9-12.8-18.1-4.2-28.4c4.3-5.1,9.4-9.7,15.3-12.9c9.3-5.1,20.5-5.4,28.5-13
			c6.6-6.3,12.1-19.4,2.1-25.4c-7.8-4.7-18.2-3.8-26.9-3.5c-0.3,0-0.4-0.4-0.1-0.6c7.1-3.9,10.8-21,9.1-27.4
			c-4.9-18.9-21.8-7.3-31.1,0.6c-0.8,0.7-4-31.4-19.2-26.9c-15.2,4.5-12.1,27.9-12.1,27.9s-20-25.5-29.2-17.8
			c-9.2,7.7-5.9,17.4,5.3,32c11.1,14.5,3.3,14.2,1.2,14.8c-6.9,1.9-25.5-0.4-26.8,7c-1.9,10.6,8.9,13.8,15.9,18.6
			c8.4,5.7,18.1,17,15.1,27.9c-3.2,11.5-12.8,4.1-22.1,0.1c-34.6-14.8-79.8-41.7-118.5-26.6c-13.3,5.2-21.3,17.2-27,29.7
			c-8,17.6-13.1,36.5-18.9,54.9l-39.9,117.8C2620.6,1885.2,2601.6,1937.1,2646.4,1961"/>
	</g>
	<g id="puzzle_13_" class="st3">
		<path id="XMLID_135_" class="st2" d="M2989.2,633c19.3,21.8,42.7,40.4,64.9,59.1c27.8,23.5,56,46.5,84.3,69.2
			c13.4,10.8,25.2,24.2,40.6,32.3c10.6,5.5,23.2,1.1,32.2-5.4c6.5-4.7,12-10.7,16.8-17.1c6.7-8.8,14.2-17.1,21.4-25.6
			c6.6-7.8,12.9-16.1,20.1-23.5c3.3-3.5,8.6-9.8,8.8-15c0.2-5.1-4.9-8.8-8.1-12.3c-8.1-9-19.7-13.8-30.9-7.3
			c-8.1,4.7-14.3,16.3-24.6,16.4c-12,0.2-14-11.8-10.7-20.6c1.4-3.8,10.6-20.5-0.2-16.3c-17.2,6.5-34.7,8.1-38.6-3.2
			c-3.9-11.3,27-21,27-21s-23-5.4-21.8-21.2c1.2-15.8,32.4-7.4,32-8.5c-4.5-12.6-8.3-36.2,13.7-29.5c8.8,2.7,16,13.5,21.1,20.6
			c3-8.9,4.5-21.5,13-27.1c12.2-7.9,19.6,6.7,22.9,16.3c3.6,10.5-0.7,22.5,2.8,33.6c4.4,13.6,14.7,23.7,27.4,29.9
			c1.8,0.9,6.2,2,10.1,3.1c4.1,1.2,8.6-0.2,11.4-3.5c23-27.3,41.8-49.7,44.8-53.7c6.2-8.5,11.2-19,6.8-29.4
			c-11.4-27.3-44.2-45.3-67.5-61c-14.1-9.5-5.7-21.4,6-28.1c5.8-3.3,12.2-5.8,18.8-6.7c10.5-1.5,21.1,2.1,31.2-2.2
			c8.4-3.6,18.1-13.9,10.8-23c-5.7-7.1-15.7-9.9-24-12.7c-0.3-0.1-0.3-0.6,0.1-0.6c8-1.2,17.4-15.9,18.1-22.5
			c2-19.4-17.9-14.4-29.4-10.3c-1,0.4,7.2-30.8-8.6-31.9c-15.8-1.1-21.1,21.9-21.1,21.9s-9.8-30.9-21.1-26.9s-11.6,14.3-6.2,31.9
			c5.4,17.5-1.9,14.4-4,14.3c-7.2-0.6-23.7-9.3-27.5-2.8c-5.5,9.3,3.5,16.1,8.4,23c5.9,8.3,11.1,22.2,4.4,31.5
			c-7,9.7-13.4-0.6-20.7-7.6c-27.3-25.9-60.3-66.9-101.7-66.2c-14.3,0.2-25.9,8.7-35.7,18.4c-13.7,13.7-25.1,29.6-36.8,44.9
			l-78.5,96.5C2991.5,553.1,2955.6,595,2989.2,633"/>
	</g>
	<g id="puzzle_12_" class="st1">
		<path id="XMLID_134_" class="st2" d="M9.3,1479.3c15.7,24.5,36,46.5,55,68.4c23.8,27.5,48.1,54.5,72.6,81.4
			c11.6,12.7,21.2,27.8,35.2,38.2c9.6,7.1,22.7,4.7,32.7-0.3c7.2-3.6,13.5-8.8,19.3-14.3c8-7.7,16.7-14.7,25.1-22
			c7.8-6.7,15.3-13.9,23.5-20.1c3.8-2.9,10-8.3,11-13.5c1-5-3.5-9.4-6.1-13.4c-6.6-10.1-17.3-16.7-29.4-12
			c-8.7,3.4-16.6,13.9-26.8,12.4c-11.9-1.7-12-13.8-7.4-22c2-3.6,13.6-18.6,2.3-16.2c-18,3.8-35.5,2.7-37.6-9.1
			c-2.1-11.8,29.9-16.6,29.9-16.6s-21.8-8.9-18.2-24.3c3.6-15.5,33.1-2.3,32.9-3.4c-2.5-13.1-2.6-37,18.1-27
			c8.3,4,13.7,15.8,17.7,23.6c4.4-8.3,7.8-20.6,17.1-24.8c13.2-5.9,18.4,9.7,20.1,19.6c1.9,11-4.2,22.1-2.4,33.7
			c2.2,14.1,10.9,25.7,22.4,33.8c1.7,1.2,5.8,2.9,9.5,4.6c3.9,1.8,8.5,1.1,11.8-1.7c27-23.4,49-42.6,52.6-46.2
			c7.4-7.4,14-17,11.3-28c-7.1-28.7-36.7-51.6-57.3-70.7c-12.5-11.5-2.3-22,10.2-26.8c6.2-2.4,13-3.8,19.6-3.7
			c10.6,0.1,20.5,5.4,31.2,2.7c8.9-2.3,20-11,14.2-21.1c-4.5-7.9-14-12.2-21.7-16.3c-0.3-0.2-0.2-0.6,0.2-0.6
			c8.1,0.1,19.7-13,21.4-19.4c5-18.9-15.5-17-27.4-14.7c-1.1,0.2,11.9-29.4-3.6-32.9c-15.5-3.5-24.2,18.4-24.2,18.4s-5-32-16.7-29.8
			c-11.8,2.2-13.7,12.3-11.1,30.5c2.6,18.1-4.1,14-6.2,13.5c-7-1.7-22-12.8-26.7-7c-6.8,8.3,1,16.4,4.8,24
			c4.6,9.1,7.5,23.7-0.5,31.8c-8.4,8.5-13.1-2.7-19.3-10.7c-22.9-29.8-49.2-75.4-90.3-81.2c-14.1-2-27,4.6-38.1,12.7
			c-15.6,11.4-29.3,25.4-43.3,38.7l-92.5,83.2C23.9,1400.6-18.1,1436.6,9.3,1479.3"/>
		<g id="puzzle_16_" class="st4">
			<path id="XMLID_142_" class="st2" d="M262.9,2349.3c-12.8,26.1-21.1,54.9-30.1,82.5c-11.2,34.6-21.7,69.4-32,104.3
				c-4.9,16.5-12.8,32.6-14.4,49.9c-1.1,11.9,7.8,21.9,17.2,27.8c6.8,4.3,14.5,7,22.2,9.1c10.7,2.9,21.3,6.7,31.8,10.1
				c9.8,3.1,19.8,5.8,29.4,9.6c4.5,1.8,12.3,4.2,17.3,2.4c4.8-1.7,6.2-7.9,8.3-12.2c5.3-10.9,5.3-23.4-5-31.3
				c-7.4-5.7-20.5-7.1-24.5-16.5c-4.7-11,5.6-17.4,15-17.7c4.1-0.1,22.9,2,15-6.4c-12.6-13.4-20.7-29-11.7-36.9
				c9-7.9,29.7,17,29.7,17s-3.7-23.3,11.4-28.2c15.1-4.9,19.2,27.1,20,26.4c9.9-9,30.3-21.4,32.5,1.5c0.9,9.2-6.4,19.9-11.1,27.3
				c9.4-0.6,21.6-4,30,1.8c11.9,8.2,1.2,20.7-6.3,27.4c-8.4,7.4-21.1,7.9-30,15.4c-10.9,9.2-16.4,22.6-17.3,36.7
				c-0.1,2.1,0.5,6.5,1,10.5c0.5,4.3,3.4,7.9,7.5,9.2c34,10.9,61.8,19.9,66.7,21.1c10.2,2.5,21.8,3.1,29.8-4.9
				c20.9-20.9,25.2-58.1,30.8-85.6c3.4-16.6,17.7-13.4,28.2-5.1c5.2,4.1,10,9.1,13.4,14.8c5.4,9.1,6,20.4,13.9,28.1
				c6.6,6.4,19.8,11.5,25.4,1.3c4.4-8,3.2-18.3,2.7-27c0-0.3,0.4-0.4,0.6-0.2c4.1,6.9,21.3,10.1,27.7,8.2
				c18.7-5.5,6.6-22.1-1.7-31.1c-0.7-0.8,31.3-5.1,26.3-20.1c-5-15.1-28.3-11.2-28.3-11.2s24.8-20.8,16.8-29.8
				c-8-9-17.6-5.3-31.9,6.3c-14.1,11.6-14.1,3.7-14.7,1.7c-2.2-6.9-0.4-25.5-7.9-26.5c-10.7-1.5-13.5,9.3-18,16.5
				c-5.4,8.6-16.3,18.7-27.4,16c-11.6-2.8-4.5-12.6-0.8-22c13.6-35.1,39-81.2,22.6-119.3c-5.6-13.1-17.9-20.7-30.6-26
				c-17.8-7.5-36.9-11.9-55.5-17l-119.1-36C337.7,2321.1,285.2,2303.7,262.9,2349.3"/>
		</g>
	</g>
	<g id="puzzle_17_" class="st1">
		<path id="XMLID_144_" class="st2" d="M2154.8,429.3c7.1,28.2,19.4,55.5,30.5,82.3c13.9,33.6,28.4,67,43.1,100.2
			c7,15.7,11.3,33.1,21.3,47.3c6.9,9.8,20.1,11.7,31.1,10.1c8-1.2,15.6-4,22.8-7.5c10-4.7,20.5-8.7,30.8-12.9
			c9.5-3.9,18.9-8.4,28.6-11.7c4.6-1.5,12.1-4.7,14.7-9.3c2.5-4.4-0.4-10-1.6-14.7c-3-11.7-11.1-21.3-24.1-20.7
			c-9.3,0.5-20.2,7.9-29.4,3.3c-10.7-5.4-7-16.9,0-23.2c3-2.8,18.8-13.3,7.3-14.6c-18.3-2.1-34.5-8.7-32.8-20.6
			c1.7-11.9,33.6-6.2,33.6-6.2s-17.9-15.3-9.6-28.9c8.3-13.5,32.2,8.3,32.3,7.2c1.8-13.3,9.3-35.9,25.8-19.9c6.6,6.4,8,19.3,9.3,28
			c6.8-6.5,13.9-17.1,24-18.1c14.4-1.4,14.4,15,12.9,25c-1.6,11-11,19.7-12.9,31.2c-2.4,14.1,2.2,27.9,10.6,39.2
			c1.2,1.7,4.6,4.6,7.5,7.3c3.2,2.9,7.7,3.8,11.7,2.1c33-13.6,60-24.9,64.5-27.1c9.4-4.7,18.6-11.7,19.6-23
			c2.4-29.5-18.4-60.6-32-85.2c-8.2-14.9,4.8-21.6,18.2-22.2c6.6-0.3,13.5,0.5,19.8,2.7c10,3.5,17.8,11.6,28.8,12.4
			c9.2,0.7,22.5-4.1,20.2-15.5c-1.8-8.9-9.4-16-15.5-22.3c-0.2-0.2,0-0.6,0.3-0.5c7.6,2.6,22.8-6.1,26.4-11.6
			c10.7-16.3-9.3-21.1-21.4-22.6c-1.1-0.1,20.6-24.1,7-32.3c-13.6-8.2-28.8,9.8-28.8,9.8s5.4-31.9-6.4-33.6s-16.9,7.3-20.2,25.5
			c-3.3,18-8.3,12-10.1,10.8c-6.1-3.8-16.8-19.1-23.1-15.1c-9.1,5.8-4.3,15.9-3.1,24.3c1.5,10.1-0.4,24.8-10.5,30
			c-10.7,5.4-11.6-6.7-14.9-16.3c-12.3-35.5-22.8-87.1-59.9-105.6c-12.8-6.4-27-4.2-40.1,0c-18.4,5.9-35.9,14.8-53.4,23l-114.1,49.6
			C2193.5,359.3,2142.3,380.1,2154.8,429.3"/>
		<g id="puzzle_11_" class="st4">
			<path id="XMLID_133_" class="st2" d="M1373.8,31.5c-12.8,26.1-21.1,54.9-30.1,82.5c-11.2,34.6-21.7,69.4-32,104.3
				c-4.9,16.5-12.8,32.6-14.4,49.9c-1.1,11.9,7.8,21.9,17.2,27.8c6.8,4.3,14.5,7,22.2,9.1c10.7,2.9,21.3,6.7,31.8,10.1
				c9.8,3.1,19.8,5.8,29.4,9.6c4.5,1.8,12.3,4.2,17.3,2.4c4.8-1.7,6.2-7.9,8.3-12.2c5.3-10.9,5.3-23.4-5-31.3
				c-7.4-5.7-20.5-7.1-24.5-16.5c-4.7-11,5.6-17.4,15-17.7c4.1-0.1,22.9,2,15-6.4c-12.6-13.4-20.7-29-11.7-36.9
				c9-7.9,29.7,17,29.7,17s-3.7-23.3,11.4-28.2s19.2,27.1,20,26.4c9.9-9,30.3-21.4,32.5,1.5c0.9,9.2-6.4,19.9-11.1,27.3
				c9.4-0.6,21.6-4,30,1.8c11.9,8.2,1.2,20.7-6.3,27.4c-8.4,7.4-21.1,7.9-30,15.4c-10.9,9.2-16.4,22.6-17.3,36.7
				c-0.1,2.1,0.5,6.5,1,10.5c0.5,4.3,3.4,7.9,7.5,9.2c34,10.9,61.8,19.9,66.7,21.1c10.2,2.5,21.8,3.1,29.8-4.9
				c20.9-20.9,25.2-58.1,30.8-85.6c3.4-16.6,17.7-13.4,28.2-5.1c5.2,4.1,10,9.1,13.4,14.8c5.4,9.1,6,20.4,13.9,28.1
				c6.6,6.4,19.8,11.5,25.4,1.3c4.4-8,3.2-18.3,2.7-27c0-0.3,0.4-0.4,0.6-0.2c4.1,6.9,21.3,10.1,27.7,8.2
				c18.7-5.5,6.6-22.1-1.7-31.1c-0.7-0.8,31.3-5.1,26.3-20.1c-5-15.1-28.3-11.2-28.3-11.2s24.8-20.8,16.8-29.8
				c-8-9-17.6-5.3-31.9,6.3c-14.1,11.6-14.1,3.7-14.7,1.7c-2.2-6.9-0.4-25.5-7.9-26.5c-10.7-1.5-13.5,9.3-18,16.5
				c-5.4,8.6-16.3,18.7-27.4,16c-11.6-2.8-4.5-12.6-0.8-22c13.6-35.1,39-81.2,22.6-119.3c-5.6-13.1-17.9-20.7-30.6-26
				c-17.8-7.5-36.9-11.9-55.5-17l-119.1-36C1448.6,3.2,1396.1-14.1,1373.8,31.5"/>
		</g>
	</g>
	<g id="puzzle_14_" class="st1">
		<path id="XMLID_136_" class="st2" d="M1322.9,1691.4c-13.7,28-22.6,58.7-32.2,88.3c-12,37-23.3,74.3-34.3,111.6
			c-5.2,17.7-13.7,34.8-15.4,53.3c-1.2,12.7,8.3,23.4,18.4,29.7c7.3,4.6,15.5,7.5,23.8,9.7c11.5,3.1,22.7,7.1,34,10.8
			c10.5,3.4,21.2,6.3,31.4,10.3c4.8,1.9,13.1,4.5,18.5,2.6c5.1-1.8,6.7-8.4,8.9-13c5.6-11.6,5.7-25.1-5.3-33.5
			c-7.9-6.1-21.9-7.6-26.2-17.7c-5-11.8,6-18.6,16.1-19c4.4-0.1,24.6,2.2,16.1-6.9c-13.5-14.4-22.1-31-12.5-39.5
			c9.6-8.5,31.7,18.2,31.7,18.2s-4-24.9,12.2-30.2c16.1-5.3,20.5,29,21.4,28.2c10.6-9.6,32.5-22.9,34.8,1.6
			c0.9,9.8-6.8,21.3-11.8,29.2c10-0.6,23.1-4.3,32.1,1.9c12.8,8.8,1.3,22.2-6.8,29.3c-9,7.9-22.6,8.4-32.1,16.5
			c-11.7,9.8-17.5,24.2-18.5,39.3c-0.1,2.2,0.5,7,1,11.2c0.5,4.6,3.7,8.4,8.1,9.8c36.3,11.7,66.2,21.2,71.4,22.5
			c10.9,2.7,23.3,3.4,31.9-5.2c22.3-22.4,26.9-62.2,32.9-91.6c3.6-17.8,18.9-14.3,30.2-5.5c5.6,4.4,10.7,9.7,14.3,15.9
			c5.7,9.8,6.5,21.8,14.9,30c7,6.9,21.2,12.3,27.2,1.4c4.7-8.5,3.5-19.6,2.8-28.9c0-0.4,0.4-0.5,0.6-0.2c4.4,7.4,22.8,10.8,29.6,8.8
			c20-5.9,7-23.6-1.8-33.2c-0.8-0.9,33.5-5.4,28.1-21.5c-5.4-16.1-30.2-12-30.2-12s26.6-22.3,18-31.9c-8.5-9.6-18.9-5.7-34.1,6.8
			c-15.1,12.4-15.1,4-15.7,1.8c-2.3-7.4-0.5-27.2-8.4-28.4c-11.4-1.6-14.5,10-19.3,17.7c-5.8,9.2-17.5,20-29.3,17.2
			c-12.5-3-4.8-13.5-0.9-23.6c14.6-37.5,41.7-86.8,24.2-127.6c-6-14-19.2-22.1-32.7-27.8c-19.1-8-39.5-12.8-59.4-18.2l-127.4-38.5
			C1403,1661.2,1346.8,1642.7,1322.9,1691.4"/>
	</g>
	<g id="puzzle_15_" class="st1">
		<path id="XMLID_137_" class="st2" d="M2227.5,2842.7c-12.8,26.1-21.1,54.9-30.1,82.5c-11.2,34.6-21.7,69.4-32,104.3
			c-4.9,16.5-12.8,32.6-14.4,49.9c-1.1,11.9,7.8,21.9,17.2,27.8c6.8,4.3,14.5,7,22.2,9.1c10.7,2.9,21.3,6.7,31.8,10.1
			c9.8,3.1,19.8,5.8,29.4,9.6c4.5,1.8,12.3,4.2,17.3,2.4c4.8-1.7,6.2-7.9,8.3-12.2c5.3-10.9,5.3-23.4-5-31.3
			c-7.4-5.7-20.5-7.1-24.5-16.5c-4.7-11,5.6-17.4,15-17.7c4.1-0.1,22.9,2,15-6.4c-12.6-13.4-20.7-29-11.7-36.9s29.7,17,29.7,17
			s-3.7-23.3,11.4-28.2c15.1-4.9,19.2,27.1,20,26.4c9.9-9,30.3-21.4,32.5,1.5c0.9,9.2-6.4,19.9-11.1,27.3c9.4-0.6,21.6-4,30,1.8
			c11.9,8.2,1.2,20.7-6.3,27.4c-8.4,7.4-21.1,7.9-30,15.4c-10.9,9.2-16.4,22.6-17.3,36.7c-0.1,2.1,0.5,6.5,1,10.5
			c0.5,4.3,3.4,7.9,7.5,9.2c34,10.9,61.8,19.9,66.7,21.1c10.2,2.5,21.8,3.1,29.8-4.9c20.9-20.9,25.2-58.1,30.8-85.6
			c3.4-16.6,17.7-13.4,28.2-5.1c5.2,4.1,10,9.1,13.4,14.8c5.4,9.1,6,20.4,13.9,28.1c6.6,6.4,19.8,11.5,25.4,1.3
			c4.4-8,3.2-18.3,2.7-27c0-0.3,0.4-0.4,0.6-0.2c4.1,6.9,21.3,10.1,27.7,8.2c18.7-5.5,6.6-22.1-1.7-31.1
			c-0.7-0.8,31.3-5.1,26.3-20.1s-28.3-11.2-28.3-11.2s24.8-20.8,16.8-29.8s-17.6-5.3-31.9,6.3c-14.1,11.6-14.1,3.7-14.7,1.7
			c-2.2-6.9-0.4-25.5-7.9-26.5c-10.7-1.5-13.5,9.3-18,16.5c-5.4,8.6-16.3,18.7-27.4,16c-11.6-2.8-4.5-12.6-0.8-22
			c13.6-35.1,39-81.2,22.6-119.3c-5.6-13.1-17.9-20.7-30.6-26c-17.8-7.5-36.9-11.9-55.5-17l-119.1-36
			C2302.3,2814.5,2249.8,2797.2,2227.5,2842.7"/>
	</g>
</g>
<g id="XMLID_16_">
</g>
<g id="XMLID_17_">
</g>
<g id="XMLID_18_">
</g>
<g id="XMLID_19_">
</g>
<g id="XMLID_20_">
</g>
<g id="XMLID_21_">
</g>
</svg>
