<?xml version="1.0" encoding="utf-8"?>
<!-- Generator: Adobe Illustrator 19.0.0, SVG Export Plug-In . SVG Version: 6.00 Build 0)  -->
<svg version="1.1" id="圖層_1" xmlns="http://www.w3.org/2000/svg" xmlns:xlink="http://www.w3.org/1999/xlink" x="0px" y="0px"
	 viewBox="0 0 357 357" style="enable-background:new 0 0 357 357;" xml:space="preserve">
<style type="text/css">
	.st0{fill:#040000;stroke:#040000;stroke-miterlimit:10;}
	.st1{fill:#FFFFFF;stroke:#FFFFFF;stroke-miterlimit:10;}
	.st2{fill:#FFFFFF;}
</style>
<g id="XMLID_7_">
	<g id="XMLID_314_">
		<circle id="XMLID_331_" class="st0" cx="178.5" cy="178.5" r="178"/>
		<g id="XMLID_315_">
			<g id="XMLID_322_">
				<g id="XMLID_438_">
					<g id="XMLID_439_">
						<path id="XMLID_480_" class="st1" d="M256.2,83.1c-3.2-2.7-7.6-2.5-11.4-1c-5.8-27.4-28.8-49.7-60.4-50
							c-27.5-0.2-52.8,22.3-61.3,48.6c-1.2-0.9-2.9-1.3-4.3-1.2c-4.1,0.3-7.4,3.7-9.1,7.3c-1.8,3.9-2.5,8.6-0.2,12.4
							c2.3,3.7,6.6,4.9,10.8,4.8c0.5,5.5,1.8,10.9,4.2,16.1c0.9,2,4.4,1,4.2-1.1c-1.5-15.9,1.3-32.5,8.3-46.3
							c17.2-1.7,33.8-0.9,51-0.5c18.3,0.4,29.3,1.4,45.8,4.7c4.2,13.1,4.2,27.8-0.9,40.9c-2.1,5.5,6.6,7.8,8.8,2.4
							c1.7-4.4,2.9-8.8,3.7-13.2c2.5,3,6.9,0.2,8.8-2c2.6-3,4.2-7.1,4.8-11C259.5,90.4,259.3,85.8,256.2,83.1z"/>
						<path id="XMLID_446_" class="st1" d="M283.4,167.3c-0.3-9.5-1.6-18.9-0.1-28.4c0.3-1.9-0.1-4.2-2.1-5.2
							c-33.5-15.6-72.6,4.1-103.8,17.9c-22.6-24.2-63.9-34.1-95.7-25.8c-1.2-0.4-2.6-0.2-3.6,0.7c-4.6,4-3,12.7-2.5,18
							c0.7,7.7,2,15.8,3.7,23.3c0.1,0.3,0.2,0.6,0.4,0.8c-0.4,1.4,0.2,2.9,1.4,3.8c10.5,8,18.1,14.4,23.4,27.3
							c10.3,24.7-0.7,47.8-26.4,54.3c-1.9,0.5-3.3,2.3-3.3,4.3c0,5.2-1.5,14.2,3.7,17.4c1.2,0.7,2.7,0.6,3.8-0.1
							c21.2,0.8,42.4-0.8,62.6,6.7c7.7,2.9,15.1,6.2,22.4,9.8c2.5,1.3,4.9,2.7,7.3,4.2c0.8,0.5,1.5,1.1,2.1,1.9
							c0,0.1,0.1,0.1,0.1,0.1c0.3,1.8,2.3,3.3,4.2,2.7c2.9-1,4.2-2.3,4.3-3.8c4.7-0.7,8.4-3.1,12.8-5.1c7.7-3.6,15.9-6,24.1-8
							c17.3-4.3,35.5-5.4,53.2-2.7c2.9,0.4,5.8-1.2,5.8-4.4c0-4.6,1.6-12.2-1.3-16.2c-1.5-2.1-4-2.4-5.8-0.9c-1.5-0.1-3,0.1-4.8,0.2
							c-6,0.4-10.4-4.8-13.5-9.1c-5.6-7.8-8.5-18.3-8.9-27.8c-0.5-13.7,6.2-28.3,16.2-37.3c5.2-4.6,12.9-5.1,18-9.7c0,0,0,0-0.1,0
							c0.2-0.2,0.4-0.4,0.6-0.7c1.1-1.5,0.6-3.2-0.5-4.3C282.6,170.4,283.4,169.1,283.4,167.3z M251.6,184.9
							c-9.9,10.8-15.2,29.5-13,44c1.9,12.8,7.1,26.4,17.4,34.7c4,3.2,10.6,5.3,15.7,4c0,1.4,0,2.8,0.1,4.1c-16.1-1.7-32-0.6-48,2.9
							c-11.6,2.5-32.7,7.9-39.9,18.9c-0.5-0.7-1.2-1.3-2-2c3.9-42.8,1.2-86.7,0.8-129.6c0-3.2-4.9-3.2-4.9,0
							c-0.4,42.2-1.2,84.8,0.8,127c-6.9-4.8-16.7-9.2-18.3-9.9c-25.4-10.9-48.8-11.1-75.9-9.5c0-2.5-0.2-5.2-0.4-7.8
							c20.5-6.2,33.7-22.1,33.2-44.5c-0.3-12.8-5.7-26.9-14.1-36.6c-3.9-4.5-7.1-7.6-12.4-10.2c-2.2-1.1-4.4-2-6.6-3
							c-0.1,0-0.2-0.1-0.2-0.1c1.1-6.7,0.2-13.7-0.2-20.4c-0.2-3.7-0.4-7.3-0.2-11c0.1-1.7,0.4-3.1,0.5-4.6
							c31-2.8,65.2,4.5,87.7,27.1c2.1,2.1,4.7,1.5,6.2-0.1c29.6-8.1,65-30.2,96.2-17.7c-0.8,9,0.1,17.7,0.4,26.8
							c0,1,0.4,1.9,0.9,2.6C266.4,171.2,256.8,179.2,251.6,184.9z"/>
					</g>
				</g>
				<g id="XMLID_437_">
				</g>
				<g id="XMLID_436_">
				</g>
				<g id="XMLID_435_">
				</g>
				<g id="XMLID_432_">
				</g>
				<g id="XMLID_431_">
				</g>
				<g id="XMLID_430_">
				</g>
				<g id="XMLID_429_">
				</g>
				<g id="XMLID_330_">
				</g>
				<g id="XMLID_329_">
				</g>
				<g id="XMLID_328_">
				</g>
				<g id="XMLID_327_">
				</g>
				<g id="XMLID_326_">
				</g>
				<g id="XMLID_325_">
				</g>
				<g id="XMLID_324_">
				</g>
				<g id="XMLID_323_">
				</g>
			</g>
			<g id="XMLID_319_">
				<path id="XMLID_321_" class="st1" d="M35.1,228c7.5,0,0.5,0,7.5,0c2.8,0,5.2,2.5,7.2,4.4c3.3,3.1,4.9,7.5,9.1,9.7
					c3.4,1.8,9.4,2.2,10.5-2.6c0.8-3.8-0.9-7.8-2.2-11.3c-0.1-0.1,0.1-0.2,0.2-0.1c2.5,2.3,9.9,1.5,12.2-0.1c6.9-4.5,0-9.7-4.5-12.4
					c-0.4-0.2,12-5.9,8.2-11.4c-3.9-5.5-12.8-1.1-12.8-1.1s7.5-11.5,3.2-14.1c-4.3-2.6-7.8,0-12.1,6.5c-4.3,6.4-5.2,3.2-5.8,2.5
					c-1.7-2.5-3.3-10.3-6.4-9.8c-4.5,0.7-4.3,5.4-5.3,8.9c-1.1,4.1-5.7,6.9-9.5,9.8"/>
				<g id="XMLID_320_">
					<path id="XMLID_25_" class="st2" d="M35.1,208.5c-7.5,6.7-6.3,10.7,0,17.7"/>
					<g id="XMLID_20_">
						<path id="XMLID_24_" class="st2" d="M34.1,207.4c-2.8,2.6-5.8,5.8-5.6,9.8c0.1,3.9,3.2,7.2,5.6,10c1.3,1.4,3.4-0.7,2.1-2.1
							c-1.9-2.1-4.6-4.8-4.7-7.9c-0.2-3.2,2.6-5.7,4.7-7.7C37.6,208.2,35.5,206.1,34.1,207.4L34.1,207.4z"/>
					</g>
				</g>
			</g>
			<g id="XMLID_316_">
				<path id="XMLID_318_" class="st1" d="M324.2,203.2c-7.5,0-0.5,0-7.5,0c-2.8,0-5.2-2.5-7.2-4.4c-3.3-3.1-4.9-7.5-9.1-9.7
					c-3.4-1.8-9.4-2.2-10.5,2.6c-0.8,3.8,0.9,7.8,2.2,11.3c0.1,0.1-0.1,0.2-0.2,0.1c-2.5-2.3-9.9-1.5-12.2,0.1
					c-6.9,4.5,0,9.7,4.5,12.4c0.4,0.2-12,5.9-8.2,11.4c3.9,5.5,12.8,1.1,12.8,1.1s-7.5,11.5-3.2,14.1c4.3,2.6,7.8,0,12.1-6.5
					c4.3-6.4,5.2-3.2,5.8-2.5c1.7,2.5,3.3,10.3,6.4,9.8c4.5-0.7,4.3-5.4,5.3-8.9c1.1-4.1,5.7-6.9,9.5-9.8"/>
				<g id="XMLID_317_">
					<path id="XMLID_19_" class="st2" d="M324.2,222.8c7.5-6.7,6.3-10.7,0-17.7"/>
					<g id="XMLID_14_">
						<path id="XMLID_18_" class="st2" d="M325.2,223.8c2.8-2.6,5.8-5.8,5.6-9.8c-0.1-3.9-3.2-7.2-5.6-10c-1.3-1.4-3.4,0.7-2.1,2.1
							c1.9,2.1,4.6,4.8,4.7,7.9c0.2,3.2-2.6,5.7-4.7,7.7C321.7,223,323.8,225.1,325.2,223.8L325.2,223.8z"/>
					</g>
				</g>
			</g>
		</g>
	</g>
</g>
<g id="XMLID_29_">
</g>
<g id="XMLID_30_">
</g>
<g id="XMLID_31_">
</g>
<g id="XMLID_32_">
</g>
<g id="XMLID_33_">
</g>
<g id="XMLID_34_">
</g>
</svg>
