<?xml version="1.0" encoding="utf-8"?>
<!-- Generator: Adobe Illustrator 19.0.0, SVG Export Plug-In . SVG Version: 6.00 Build 0)  -->
<svg version="1.1" id="圖層_1" xmlns="http://www.w3.org/2000/svg" xmlns:xlink="http://www.w3.org/1999/xlink" x="0px" y="0px"
	 viewBox="0 0 406.5 406.5" style="enable-background:new 0 0 406.5 406.5;" xml:space="preserve">
<style type="text/css">
	.st0{clip-path:url(#XMLID_22_);fill:#040000;}
</style>
<g id="XMLID_3_">
	<defs>
		<circle id="XMLID_153_" cx="203.2" cy="203.2" r="203.2"/>
	</defs>
	<clipPath id="XMLID_22_">
		<use xlink:href="#XMLID_153_"  style="overflow:visible;"/>
	</clipPath>
	<path id="XMLID_223_" class="st0" d="M214.8,0.6c1.1,1.4,0,16.1,0,19.9c0,12,0,12,0.5,25.3c0.1,3.1-0.8,5.7-0.5,8.8
		c0.4,4.7,1,5.7-1.7,9.6c-9.3,13.3-33.6,2.6-39.3-7.9c-2.4-4.5-3.8-10.2-8.3-12.6c-0.9-0.4-1.9-0.7-2.7-0.2c-1.2,0.7-1,2.5-0.6,3.9
		c1.6,6,4.3,12.2,5.2,18.3c-3.3-0.9-6.5-3-9.7-4.6l-16.3-11.4c0,0-17.9-1.6-4.9,8.2c12.8,9.6,13.8,12.5,13.9,12.6
		c0.7,2.2-19.8-3.8-20.1-3.9c-3-0.4-6.2,1.1-7.8,3.7c-0.9,1.4-1.2,3.2-0.5,4.7c0.8,1.6,2.6,2.5,4.2,3.1c5.2,1.8,10.2,1.6,15.1,3.9
		c2.4,1.1,6.5,6.1,9.1,6.1c-7.9,0-15.1,1-22.9,2.2c-4.1,0.7-8.8,1.7-10.8,5.3c-0.5,0.8-0.7,1.8-0.5,2.7c0.5,2,3,2.7,5.1,2.9
		c10.2,1,20.3,0.7,30.5,0.1c-3,5.8-6.2,11.8-7.9,18.3c-0.3,1.1-0.5,2.5,0.4,3.2c0.9,0.8,2.3,0.2,3.4-0.4
		c14.9-8.9,24.5-32.6,45.2-23.7c4.3,1.8,11.6,1.2,15.2,4.1c5.2,4.3,3.7,13.3,3.7,19.1c0.1,12.8,0.1,25.6,0.2,38.4
		c0,9.4,2.7,29.5-0.4,40c0,0-7.9,3.1-18.2,3.2c-15.1,0.2-51.3-0.8-66.4-0.8c-7.3,0-14.7,0.2-22-0.1c0.6,9.5-2.7,20.4,4.4,28.4
		c2.8,3.2,6.7,5.1,10,7.7c3.3,2.6,6.2,6.6,5.5,10.7c-0.3,1.6-1.3,3.2-2.9,3.3c-0.7,0-1.4-0.2-2-0.5c-3.7-1.4-11-4.9-14.2-1
		c-1,1.3-1.2,3-1.2,4.6c0,6.3,2.5,12.9,0.1,18.7c-0.3,0.7-0.8,1.5-1.5,1.7c-1.3,0.3-2.3-1.2-2.8-2.5c-2.8-7.4-4.6-15.9-8.4-22.7
		c-2.6,6.5-3.5,14.3-5,21.3c0,0-4.1,4.9-4.1-5.7c0-10.6,0-16.3,0-16.3l-13,17.1c0,0-13.9,7.3-6.5-6.5c2.2-4.1,5-8.5,6.2-12.8
		c-4.4,1.3-8.9,3.8-13.8,3.1c-0.9-0.1-1.8-0.4-2.3-1c-1.2-1.4-0.1-3.6,1.2-5c4-4.4,9-7.8,13.7-11.5c4.7-3.7,9.1-8,11.5-13.5
		c5.8-13.7-5-18.1-16.5-19.4c-13.3-1.5-26.7-2.2-40-3.2c-8.7-0.6-31.8,0.9-34.2-7.3c-2.5-8.4-1.4-23.5,0.1-31.8
		c6.7-37.2,35.4-82.4,63.6-107.6C80.2,25.8,118.6,9.2,155.2-0.5c13.1-3.5,28.8-10.6,42.4-10C204.1-10.2,212.9-1.9,214.8,0.6z"/>
	<path id="XMLID_222_" class="st0" d="M205.4,404.4c-1.5-1.6-2.4-4.2-2.4-7.9c0.2-18.5,0.7-37.1,0.7-55.5c-0.4-4.7-1-5.7,1.7-9.6
		c9.3-13.3,33.6-2.6,39.3,7.9c2.4,4.5,3.8,10.2,8.3,12.6c0.9,0.4,1.9,0.7,2.7,0.2c1.2-0.7,1-2.5,0.6-3.9c-1.6-6-4.3-12.2-5.2-18.3
		c3.3,0.9,6.5,3,9.7,4.6l16.3,11.4c0,0,17.9,1.6,4.9-8.2c-12.8-9.6-13.8-12.5-13.9-12.6c-0.7-2.2,19.8,3.8,20.1,3.9
		c3,0.4,6.2-1.1,7.8-3.7c0.9-1.4,1.2-3.2,0.5-4.7c-0.8-1.6-2.6-2.5-4.2-3.1c-5.2-1.8-10.2-1.6-15.1-3.9c-2.4-1.1-6.5-6.1-9.1-6.1
		c7.9,0,15.1-1,22.9-2.2c4.1-0.7,8.8-1.7,10.8-5.3c0.5-0.8,0.7-1.8,0.5-2.7c-0.5-2-3-2.7-5.1-2.9c-10.2-1-20.3-0.7-30.5-0.1
		c3-5.8,6.2-11.8,7.9-18.3c0.3-1.1,0.5-2.5-0.4-3.2c-0.9-0.8-2.3-0.2-3.4,0.4c-14.9,8.9-24.5,32.6-45.2,23.7
		c-4.3-1.8-11.6-1.2-15.2-4.1c-5.2-4.3-3.7-13.3-3.7-19.1c-0.1-21.5,2.9-71.7,2.9-71.7s0,0,1.6-2c5.4-6.7,31.1-4.7,38.7-5.2
		c4.7-0.3,63.6-3.6,63.7-1.8c-0.6-9.5,2.7-20.4-4.4-28.4c-2.8-3.2-6.7-5.1-10-7.7c-3.3-2.6-6.2-6.6-5.5-10.7
		c0.3-1.6,1.3-3.2,2.9-3.3c0.7,0,1.4,0.2,2,0.5c3.7,1.4,11,4.9,14.2,1c1-1.3,1.2-3,1.2-4.6c0-6.3-2.5-12.9-0.1-18.7
		c0.3-0.7,0.8-1.5,1.5-1.7c1.3-0.3,2.3,1.2,2.8,2.5c2.8,7.4,4.6,15.9,8.4,22.7c2.6-6.5,3.5-14.3,5-21.3c0,0,4.1-4.9,4.1,5.7
		s0,16.3,0,16.3l13-17.1c0,0,13.9-7.3,6.5,6.5c-2.2,4.1-5,8.5-6.2,12.8c4.4-1.3,8.9-3.8,13.8-3.1c0.9,0.1,1.8,0.4,2.3,1
		c1.2,1.4,0.1,3.6-1.2,5c-4,4.4-9,7.8-13.7,11.5c-4.7,3.7-9.1,8-11.5,13.5c-5.8,13.7,5,18.1,16.5,19.4c14.5,1.7,29.1,2.7,43.7,3.4
		c6.8,0.3,27.8-1.9,30.5,7.1c2.5,8.4,1.4,23.5-0.1,31.8c-16.8,93.6-108.2,153.2-197,166.3C224.3,404.7,210.8,410.2,205.4,404.4z"/>
	<path id="XMLID_76_" class="st0" d="M784.5,4720.8c1.1,1.4,0,16.1,0,19.9c0,12,0,12,0.5,25.3c0.1,3.1-0.8,5.7-0.5,8.8
		c0.4,4.7,1,5.7-1.7,9.6c-9.3,13.3-33.6,2.6-39.3-7.9c-2.4-4.5-3.8-10.2-8.3-12.6c-0.9-0.4-1.9-0.7-2.7-0.2c-1.2,0.7-1,2.5-0.6,3.9
		c1.6,6,4.3,12.2,5.2,18.3c-3.3-0.9-6.5-3-9.7-4.6l-16.3-11.4c0,0-17.9-1.6-4.9,8.2c12.8,9.6,13.8,12.5,13.9,12.6
		c0.7,2.2-19.8-3.8-20.1-3.9c-3-0.4-6.2,1.1-7.8,3.7c-0.9,1.4-1.2,3.2-0.5,4.7c0.8,1.6,2.6,2.5,4.2,3.1c5.2,1.8,10.2,1.6,15.1,3.9
		c2.4,1.1,6.5,6.1,9.1,6.1c-7.9,0-15.1,1-22.9,2.2c-4.1,0.7-8.8,1.7-10.8,5.3c-0.5,0.8-0.7,1.8-0.5,2.7c0.5,2,3,2.7,5.1,2.9
		c10.2,1,20.3,0.7,30.5,0.1c-3,5.8-6.2,11.8-7.9,18.3c-0.3,1.1-0.5,2.5,0.4,3.2c0.9,0.8,2.3,0.2,3.4-0.4
		c14.9-8.9,24.5-32.6,45.2-23.7c4.3,1.8,11.6,1.2,15.2,4.1c5.2,4.3,3.7,13.3,3.7,19.1c0.1,12.8,0.1,25.6,0.2,38.4
		c0,9.4,2.7,29.5-0.4,40c0,0-7.9,3.1-18.2,3.2c-15.1,0.2-51.3-0.8-66.4-0.8c-7.3,0-14.7,0.2-22-0.1c0.6,9.5-2.7,20.4,4.4,28.4
		c2.8,3.2,6.7,5.1,10,7.7s6.2,6.6,5.5,10.7c-0.3,1.6-1.3,3.2-2.9,3.3c-0.7,0-1.4-0.2-2-0.5c-3.7-1.4-11-4.9-14.2-1
		c-1,1.3-1.2,3-1.2,4.6c0,6.3,2.5,12.9,0.1,18.7c-0.3,0.7-0.8,1.5-1.5,1.7c-1.3,0.3-2.3-1.2-2.8-2.5c-2.8-7.4-4.6-15.9-8.4-22.7
		c-2.6,6.5-3.5,14.3-5,21.3c0,0-4.1,4.9-4.1-5.7c0-10.6,0-16.3,0-16.3l-13,17.1c0,0-13.9,7.3-6.5-6.5c2.2-4.1,5-8.5,6.2-12.8
		c-4.4,1.3-8.9,3.8-13.8,3.1c-0.9-0.1-1.8-0.4-2.3-1c-1.2-1.4-0.1-3.6,1.2-5c4-4.4,9-7.8,13.7-11.5c4.7-3.7,9.1-8,11.5-13.5
		c5.8-13.7-5-18.1-16.5-19.4c-13.3-1.5-26.7-2.2-40-3.2c-8.7-0.6-31.8,0.9-34.2-7.3c-2.5-8.4-1.4-23.5,0.1-31.8
		c6.7-37.2,35.4-82.4,63.6-107.6c27.8-24.9,66.1-41.4,102.7-51.2c13.1-3.5,28.8-10.6,42.4-10
		C773.8,4709.9,782.6,4718.2,784.5,4720.8z"/>
</g>
<g id="XMLID_15_">
</g>
<g id="XMLID_16_">
</g>
<g id="XMLID_17_">
</g>
<g id="XMLID_18_">
</g>
<g id="XMLID_19_">
</g>
<g id="XMLID_20_">
</g>
</svg>
