<?xml version="1.0" encoding="utf-8"?>
<!-- Generator: Adobe Illustrator 19.0.0, SVG Export Plug-In . SVG Version: 6.00 Build 0)  -->
<svg version="1.1" id="圖層_1" xmlns="http://www.w3.org/2000/svg" xmlns:xlink="http://www.w3.org/1999/xlink" x="0px" y="0px"
	 viewBox="0 0 3428.4 2208.3" style="enable-background:new 0 0 3428.4 2208.3;" xml:space="preserve">
<style type="text/css">
	.st0{fill:#FFFFFF;}
	.st1{opacity:0.92;}
	.st2{fill:#AFDEEB;}
</style>
<rect id="XMLID_55_" x="23.6" class="st0" width="3404.8" height="2208.3"/>
<g id="puzzle_1_" class="st1">
	<path id="XMLID_124_" class="st2" d="M1857.5,31.5c-12.8,26.1-21.1,54.9-30.1,82.5c-11.2,34.6-21.7,69.4-32,104.3
		c-4.9,16.5-12.8,32.6-14.4,49.9c-1.1,11.9,7.8,21.9,17.2,27.8c6.8,4.3,14.5,7,22.2,9.1c10.7,2.9,21.3,6.7,31.8,10.1
		c9.8,3.1,19.8,5.8,29.4,9.6c4.5,1.8,12.3,4.2,17.3,2.4c4.8-1.7,6.2-7.9,8.3-12.2c5.3-10.9,5.3-23.4-5-31.3
		c-7.4-5.7-20.5-7.1-24.5-16.5c-4.7-11,5.6-17.4,15-17.7c4.1-0.1,22.9,2,15-6.4c-12.6-13.4-20.7-29-11.7-36.9c9-7.9,29.7,17,29.7,17
		s-3.7-23.3,11.4-28.2s19.2,27.1,20,26.4c9.9-9,30.3-21.4,32.5,1.5c0.9,9.2-6.4,19.9-11.1,27.3c9.4-0.6,21.6-4,30,1.8
		c11.9,8.2,1.2,20.7-6.3,27.4c-8.4,7.4-21.1,7.9-30,15.4c-10.9,9.2-16.4,22.6-17.3,36.7c-0.1,2.1,0.5,6.5,1,10.5
		c0.5,4.3,3.4,7.9,7.5,9.2c34,10.9,61.8,19.9,66.7,21.1c10.2,2.5,21.8,3.1,29.8-4.9c20.9-20.9,25.2-58.1,30.8-85.6
		c3.4-16.6,17.7-13.4,28.2-5.1c5.2,4.1,10,9.1,13.4,14.8c5.4,9.1,6,20.4,13.9,28.1c6.6,6.4,19.8,11.5,25.4,1.3
		c4.4-8,3.2-18.3,2.7-27c0-0.3,0.4-0.4,0.6-0.2c4.1,6.9,21.3,10.1,27.7,8.2c18.7-5.5,6.6-22.1-1.7-31.1c-0.7-0.8,31.3-5.1,26.3-20.1
		s-28.3-11.2-28.3-11.2s24.8-20.8,16.8-29.8c-8-9-17.6-5.3-31.9,6.3c-14.1,11.6-14.1,3.7-14.7,1.7c-2.2-6.9-0.4-25.5-7.9-26.5
		c-10.7-1.5-13.5,9.3-18,16.5c-5.4,8.6-16.3,18.7-27.4,16c-11.6-2.8-4.5-12.6-0.8-22c13.6-35.1,39-81.2,22.6-119.3
		c-5.6-13.1-17.9-20.7-30.6-26c-17.8-7.5-36.9-11.9-55.5-17l-119.1-36C1932.3,3.2,1879.8-14.1,1857.5,31.5"/>
</g>
<g id="puzzle_4_" class="st1">
	<path id="XMLID_126_" class="st2" d="M2100.1,669.5c5.6,28.6,16.4,56.5,26,83.8c12.1,34.3,24.8,68.4,37.7,102.4
		c6.1,16.1,9.5,33.7,18.7,48.4c6.3,10.1,19.4,12.7,30.5,11.7c8-0.7,15.8-3.2,23.2-6.2c10.3-4.2,20.9-7.6,31.4-11.3
		c9.7-3.4,19.3-7.4,29.2-10.1c4.6-1.3,12.3-4.1,15.2-8.5c2.8-4.3,0.2-10-0.8-14.7c-2.4-11.8-10-21.9-22.9-21.9
		c-9.4,0-20.6,6.8-29.5,1.7c-10.4-5.9-6.1-17.3,1.2-23.2c3.2-2.6,19.5-12.3,8.1-14.2c-18.1-3.1-34-10.5-31.7-22.3
		c2.4-11.8,33.9-4.4,33.9-4.4s-17.1-16.3-8-29.3c9-13,31.7,10,31.9,8.9c2.5-13.1,11.2-35.4,26.8-18.5c6.2,6.8,7,19.7,7.8,28.5
		c7.1-6.1,14.8-16.3,25-16.8c14.5-0.7,13.5,15.7,11.5,25.6c-2.2,10.9-12,19.1-14.6,30.4c-3.1,13.9,0.7,27.9,8.5,39.7
		c1.1,1.7,4.4,4.9,7.1,7.7c3,3.1,7.5,4.2,11.6,2.7c33.6-11.9,61.2-21.7,65.8-23.7c9.6-4.2,19.2-10.7,20.8-21.9
		c3.9-29.3-15.2-61.5-27.4-86.8c-7.4-15.3,6-21.3,19.4-21.2c6.6,0.1,13.5,1.2,19.6,3.7c9.8,4,17.1,12.5,28,13.9
		c9.1,1.2,22.7-2.8,21-14.4c-1.3-9-8.5-16.5-14.2-23.1c-0.2-0.3,0.1-0.6,0.4-0.5c7.5,3,23.1-4.9,27-10.2
		c11.6-15.7-8.1-21.5-20.1-23.7c-1.1-0.2,21.8-23,8.7-31.9c-13.1-9-29.3,8.2-29.3,8.2s7.1-31.6-4.6-33.9
		c-11.8-2.3-17.3,6.4-21.5,24.3c-4.2,17.8-8.9,11.5-10.7,10.3c-5.9-4.2-15.8-20-22.3-16.3c-9.4,5.3-5.1,15.6-4.4,24.1
		c0.9,10.1-1.7,24.8-12.1,29.4c-10.9,4.8-11.2-7.3-14-17c-10.4-36.2-18.1-88.2-54.2-108.6c-12.4-7-26.8-5.6-40.1-2.1
		c-18.7,4.9-36.6,12.9-54.5,20.1l-116.5,43.5C2142.5,601.7,2090.3,619.7,2100.1,669.5"/>
</g>
<path id="XMLID_129_" class="st2" d="M1159.2,2038.7c25.1-14.8,47.9-34.2,70.5-52.3c28.4-22.7,56.4-46,84.2-69.5
	c13.2-11.1,28.6-20.1,39.5-33.7c7.4-9.3,5.6-22.5,0.9-32.7c-3.3-7.3-8.2-13.8-13.5-19.8c-7.4-8.3-14.1-17.3-21-25.9
	c-6.4-8-13.3-15.8-19.2-24.2c-2.8-3.9-7.9-10.3-13.1-11.5c-4.9-1.2-9.5,3.2-13.6,5.6c-10.4,6.2-17.3,16.6-13.1,28.9
	c3.1,8.8,13.2,17.2,11.4,27.3c-2.1,11.8-14.3,11.5-22.3,6.5c-3.5-2.2-18-14.3-16.1-2.9c3.1,18.1,1.3,35.6-10.5,37.2
	c-11.9,1.7-15.4-30.5-15.4-30.5s-9.7,21.5-25,17.3c-15.3-4.2-1.1-33.2-2.1-33c-13.2,2-37.1,1.2-26.3-19.1
	c4.3-8.1,16.3-13.1,24.3-16.7c-8.1-4.7-20.3-8.5-24.1-18c-5.4-13.4,10.4-18,20.4-19.4c11-1.5,22,5,33.6,3.7
	c14.2-1.7,26.1-9.9,34.6-21.1c1.2-1.6,3.2-5.7,4.9-9.3c1.9-3.8,1.5-8.5-1.2-11.8c-22.3-27.8-40.7-50.6-44.1-54.3
	c-7.1-7.7-16.5-14.6-27.5-12.3c-29,6-53,34.7-72.8,54.6c-12,12-22.1,1.4-26.4-11.3c-2.1-6.3-3.3-13.1-3-19.7
	c0.6-10.6,6.2-20.3,3.8-31.1c-1.9-9-10.2-20.5-20.5-15c-8.1,4.2-12.8,13.5-17.1,21.1c-0.2,0.3-0.6,0.1-0.6-0.2
	c0.4-8-12.2-20.2-18.6-22.1c-18.7-5.7-17.6,14.8-15.7,26.9c0.2,1.1-28.9-13-33,2.3c-4.1,15.3,17.4,24.9,17.4,24.9
	s-32.2,3.7-30.4,15.6c1.7,11.9,11.8,14.2,30.1,12.2c18.2-1.9,13.8,4.6,13.2,6.7c-2,6.9-13.6,21.5-8,26.5c8.1,7.1,16.4-0.3,24.2-3.9
	c9.2-4.2,23.9-6.6,31.7,1.7c8.2,8.7-3.2,13-11.4,18.9c-30.7,21.8-77.2,46.3-84.6,87.1c-2.5,14.1,3.6,27.1,11.2,38.5
	c10.8,16,24.3,30.3,37,44.8l79.6,95.6C1081.2,2021.1,1115.5,2064.4,1159.2,2038.7"/>
<g id="puzzle_7_" class="st1">
	<path id="XMLID_128_" class="st2" d="M1447.9,463.1c-16.1-24.2-36.8-45.9-56.1-67.5c-24.3-27.1-49-53.7-74-80.2
		c-11.8-12.5-21.7-27.5-35.8-37.6c-9.7-6.9-22.8-4.3-32.7,0.9c-7.1,3.7-13.3,9-19,14.6c-7.9,7.8-16.5,15-24.7,22.4
		c-7.6,6.9-15,14.2-23.1,20.5c-3.8,3-9.8,8.5-10.8,13.7c-0.9,5,3.7,9.4,6.3,13.3c6.7,10,17.6,16.4,29.6,11.5
		c8.7-3.5,16.4-14.1,26.6-12.9c11.9,1.5,12.2,13.6,7.7,21.9c-2,3.6-13.3,18.8-2,16.2c17.9-4.1,35.5-3.3,37.8,8.5
		s-29.7,17.1-29.7,17.1s22,8.5,18.6,24c-3.4,15.5-33.1,2.9-32.8,4c2.7,13.1,3.2,37-17.7,27.3c-8.4-3.9-14-15.5-18-23.3
		c-4.2,8.4-7.4,20.7-16.7,25.1c-13.1,6.2-18.5-9.4-20.5-19.3c-2.1-10.9,3.8-22.2,1.8-33.7c-2.4-14.1-11.3-25.5-23-33.4
		c-1.7-1.2-5.9-2.8-9.5-4.4c-3.9-1.7-8.5-1-11.7,1.9c-26.6,23.8-48.3,43.4-51.8,47c-7.3,7.5-13.7,17.2-10.8,28.2
		c7.6,28.6,37.5,51,58.5,69.7c12.7,11.3,2.6,22-9.8,27c-6.2,2.5-12.9,4-19.6,4.1c-10.6,0-20.6-5-31.2-2.1
		c-8.9,2.4-19.9,11.3-13.9,21.3c4.7,7.8,14.2,12,22,15.9c0.3,0.2,0.2,0.6-0.2,0.6c-8.1,0-19.5,13.3-21,19.8
		c-4.7,18.9,15.7,16.8,27.7,14.2c1.1-0.2-11.4,29.6,4.2,32.8c15.5,3.3,23.9-18.8,23.9-18.8s5.5,31.9,17.2,29.5
		c11.8-2.4,13.5-12.5,10.6-30.7c-2.9-18.1,3.9-14,5.9-13.6c7,1.6,22.2,12.4,26.9,6.6c6.7-8.5-1.2-16.4-5.2-23.9
		c-4.7-9-7.9-23.5,0-31.8c8.3-8.7,13.2,2.5,19.5,10.4c23.4,29.4,50.5,74.6,91.6,79.6c14.2,1.8,26.9-5.1,37.9-13.3
		c15.4-11.7,28.9-25.9,42.7-39.4l91.1-84.7C1434.6,542,1476,505.3,1447.9,463.1"/>
</g>
<g id="puzzle_6_" class="st1">
	<path id="XMLID_127_" class="st2" d="M2886.1,177.2c-7.5,28.1-10.2,57.9-13.6,86.7c-4.3,36.1-7.9,72.3-11.3,108.5
		c-1.6,17.1-6.3,34.4-4.5,51.7c1.2,11.9,11.8,20,22.2,24c7.5,2.9,15.6,4.1,23.5,4.6c11.1,0.8,22.1,2.4,33.2,3.7
		c10.2,1.2,20.6,1.9,30.7,3.8c4.7,0.9,12.9,1.8,17.4-1c4.4-2.6,4.6-8.9,5.8-13.5c3.1-11.7,0.7-24-10.9-29.8
		c-8.4-4.2-21.4-3-27.2-11.5c-6.8-9.9,2.2-18.2,11.4-20.3c4-0.9,22.9-2.4,13.5-9.2c-14.9-10.8-25.9-24.4-18.6-34
		c7.3-9.5,32.4,11,32.4,11s-8.1-22.1,5.7-29.9s24,22.9,24.7,22c8-10.7,25.6-26.8,32.2-4.8c2.6,8.8-2.4,20.8-5.6,29
		c9.1-2.4,20.4-8.1,29.8-4c13.3,5.8,5.2,20.1-1,28.1c-6.8,8.8-19.2,11.8-26.5,20.9c-8.9,11.1-11.7,25.4-9.9,39.3
		c0.3,2,1.8,6.3,3,10.1c1.3,4.1,4.9,7.1,9.2,7.6c35.4,4.2,64.5,7.6,69.5,7.8c10.5,0.5,22-1.1,28.3-10.5c16.5-24.6,13.5-61.9,13.7-90
		c0.1-17,14.8-16.5,26.7-10.5c5.9,3,11.6,7,16,12c7,7.9,9.8,18.8,19,24.9c7.7,5.1,21.6,7.4,25.2-3.6c2.8-8.7-0.4-18.6-2.6-27
		c-0.1-0.3,0.3-0.5,0.5-0.3c5.4,6,22.9,5.8,28.7,2.7c17.3-9,2.2-22.9-7.6-30.2c-0.9-0.6,29.7-11,21.9-24.8
		c-7.8-13.8-29.9-5.5-29.9-5.5s20.4-25.2,10.8-32.5s-18.3-1.8-30,12.4c-11.6,14.1-13.1,6.4-14.1,4.5c-3.4-6.3-5.3-24.9-12.8-24.5
		c-10.8,0.6-11.5,11.8-14.5,19.7c-3.6,9.5-12.4,21.5-23.8,21c-12-0.5-6.9-11.5-5.1-21.5c6.6-37,22.6-87.2-0.8-121.4
		c-8-11.8-21.6-16.8-35-19.6c-18.9-3.9-38.5-4.6-57.8-6l-123.8-12.4C2954.1,135.1,2899.2,128.2,2886.1,177.2"/>
</g>
<g id="puzzle_10_" class="st1">
	<path id="XMLID_132_" class="st2" d="M3007.1,1866c-12.8,26.1-21.1,54.9-30.1,82.5c-11.2,34.6-21.7,69.4-32,104.3
		c-4.9,16.5-12.8,32.6-14.4,49.9c-1.1,11.9,7.8,21.9,17.2,27.8c6.8,4.3,14.5,7,22.2,9.1c10.7,2.9,21.3,6.7,31.8,10.1
		c9.8,3.1,19.8,5.8,29.4,9.6c4.5,1.8,12.3,4.2,17.3,2.4c4.8-1.7,6.2-7.9,8.3-12.2c5.3-10.9,5.3-23.4-5-31.3
		c-7.4-5.7-20.5-7.1-24.5-16.5c-4.7-11,5.6-17.4,15-17.7c4.1-0.1,22.9,2,15-6.4c-12.6-13.4-20.7-29-11.7-36.9c9-7.9,29.7,17,29.7,17
		s-3.7-23.3,11.4-28.2c15.1-4.9,19.2,27.1,20,26.4c9.9-9,30.3-21.4,32.5,1.5c0.9,9.2-6.4,19.9-11.1,27.3c9.4-0.6,21.6-4,30,1.8
		c11.9,8.2,1.2,20.7-6.3,27.4c-8.4,7.4-21.1,7.9-30,15.4c-10.9,9.2-16.4,22.6-17.3,36.7c-0.1,2.1,0.5,6.5,1,10.5
		c0.5,4.3,3.4,7.9,7.5,9.2c34,10.9,61.8,19.9,66.7,21.1c10.2,2.5,21.8,3.1,29.8-4.9c20.9-20.9,25.2-58.1,30.8-85.6
		c3.4-16.6,17.7-13.4,28.2-5.1c5.2,4.1,10,9.1,13.4,14.8c5.4,9.1,6,20.4,13.9,28.1c6.6,6.4,19.8,11.5,25.4,1.3
		c4.4-8,3.2-18.3,2.7-27c0-0.3,0.4-0.4,0.6-0.2c4.1,6.9,21.3,10.1,27.7,8.2c18.7-5.5,6.6-22.1-1.7-31.1c-0.7-0.8,31.3-5.1,26.3-20.1
		s-28.3-11.2-28.3-11.2s24.8-20.8,16.8-29.8c-8-9-17.6-5.3-31.9,6.3c-14.1,11.6-14.1,3.7-14.7,1.7c-2.2-6.9-0.4-25.5-7.9-26.5
		c-10.7-1.5-13.5,9.3-18,16.5c-5.4,8.6-16.3,18.7-27.4,16c-11.6-2.8-4.5-12.6-0.8-22c13.6-35.1,39-81.2,22.6-119.3
		c-5.6-13.1-17.9-20.7-30.6-26c-17.8-7.5-36.9-11.9-55.5-17l-119.1-36C3081.9,1837.8,3029.4,1820.5,3007.1,1866"/>
</g>
<g id="puzzle_8_" class="st1">
	<path id="XMLID_130_" class="st2" d="M2011.8,1753.3c24.3,16,51.8,27.9,78.1,40.2c32.9,15.4,66.1,30.3,99.5,44.9
		c15.8,6.9,30.7,16.8,47.7,20.6c11.6,2.6,22.7-4.9,29.7-13.6c5.1-6.2,8.8-13.5,11.8-20.9c4.2-10.3,9.3-20.2,14-30.3
		c4.4-9.3,8.3-18.9,13.2-27.9c2.3-4.2,5.7-11.7,4.6-16.8c-1.1-5-7-7.2-11-9.8c-10.1-6.6-22.6-8.2-31.7,1
		c-6.6,6.6-9.6,19.4-19.5,22.2c-11.5,3.3-16.6-7.8-15.7-17.2c0.4-4.1,4.9-22.5-4.5-15.7c-14.9,10.8-31.3,16.9-38.1,7
		c-6.7-9.9,20.6-27.3,20.6-27.3s-23.6,0.8-26.5-14.8s29.3-15.6,28.7-16.5c-7.6-11-17.4-32.8,5.6-32.1c9.2,0.3,19,8.8,25.7,14.4
		c0.6-9.4-1.3-22,5.5-29.6c9.7-10.8,20.7,1.4,26.4,9.7c6.2,9.2,5.2,21.9,11.5,31.7c7.7,12,20.4,19.1,34.2,21.8
		c2,0.4,6.5,0.3,10.5,0.3c4.3,0,8.2-2.4,10.1-6.3c15.1-32.3,27.5-58.9,29.3-63.5c3.8-9.8,5.9-21.2-1.1-30.1
		c-18.1-23.3-54.5-32.3-81.1-41.3c-16.1-5.5-11-19.2-1.5-28.6c4.7-4.7,10.3-8.8,16.4-11.4c9.8-4.2,20.9-3.4,29.6-10.3
		c7.2-5.7,13.9-18.2,4.5-25c-7.3-5.4-17.7-5.5-26.5-6c-0.3,0-0.4-0.5-0.1-0.6c7.4-3.2,12.7-19.9,11.6-26.4
		c-3.1-19.3-21.1-9.3-31-2.2c-0.9,0.6-1.1-31.7-16.7-28.6s-14.7,26.6-14.7,26.6s-17.5-27.2-27.4-20.5c-9.9,6.8-7.5,16.8,2.3,32.4
		c9.7,15.5,1.9,14.4-0.2,14.8c-7.1,1.3-25.3-2.8-27.3,4.5c-2.8,10.4,7.5,14.6,14.1,20c7.9,6.4,16.5,18.6,12.5,29.2
		c-4.2,11.2-13.1,2.9-22-1.9c-33.1-17.9-75.6-48.9-115.5-37.5c-13.7,3.9-22.8,15.2-29.6,27.1c-9.6,16.8-16.5,35.1-23.9,53
		l-50.7,113.6C1993.2,1675.6,1969.4,1725.5,2011.8,1753.3"/>
</g>
<g id="puzzle_2_" class="st1">
	<path id="XMLID_125_" class="st2" d="M9.9,796.2c16.2,24.2,36.9,45.8,56.4,67.3c24.4,27,49.2,53.6,74.3,79.9
		c11.8,12.5,21.8,27.4,35.9,37.4c9.7,6.9,22.8,4.2,32.7-1c7.1-3.8,13.3-9,19-14.7c7.9-7.8,16.4-15.1,24.6-22.5
		c7.6-6.9,15-14.3,23-20.6c3.8-3,9.8-8.5,10.7-13.7c0.9-5-3.7-9.3-6.4-13.3c-6.8-10-17.6-16.3-29.6-11.4c-8.6,3.6-16.4,14.2-26.6,13
		c-11.9-1.4-12.3-13.6-7.8-21.9c1.9-3.6,13.2-18.8,2-16.2c-17.9,4.2-35.4,3.4-37.8-8.3c-2.4-11.8,29.6-17.2,29.6-17.2
		s-22-8.4-18.7-24s33.1-3,32.8-4.1c-2.8-13.1-3.3-37,17.6-27.4c8.4,3.8,14.1,15.5,18.1,23.3c4.2-8.4,7.3-20.7,16.6-25.1
		c13.1-6.2,18.6,9.3,20.5,19.2c2.2,10.9-3.8,22.2-1.7,33.7c2.5,14,11.4,25.5,23.1,33.3c1.7,1.1,5.9,2.8,9.6,4.4
		c4,1.7,8.5,1,11.7-1.9c26.5-23.9,48.1-43.6,51.6-47.2c7.3-7.5,13.6-17.3,10.7-28.2c-7.7-28.5-37.7-50.9-58.7-69.5
		c-12.7-11.3-2.7-22,9.7-27c6.1-2.5,12.9-4.1,19.5-4.1c10.6-0.1,20.6,5,31.2,2c8.8-2.5,19.8-11.4,13.8-21.4
		c-4.7-7.8-14.2-11.9-22.1-15.8c-0.3-0.2-0.2-0.6,0.2-0.6c8.1-0.1,19.4-13.4,21-19.8c4.6-19-15.8-16.7-27.7-14.1
		c-1.1,0.2,11.3-29.6-4.3-32.8c-15.5-3.2-23.8,18.9-23.8,18.9s-5.6-31.9-17.3-29.5c-11.7,2.4-13.4,12.6-10.4,30.8
		c3,18.1-3.8,14.1-5.9,13.6c-7-1.6-22.3-12.4-26.9-6.5c-6.7,8.5,1.3,16.4,5.3,23.9c4.7,9,8,23.5,0.2,31.8
		c-8.2,8.7-13.2-2.4-19.5-10.3c-23.5-29.3-50.8-74.4-91.9-79.3c-14.2-1.7-26.9,5.2-37.8,13.5c-15.4,11.7-28.8,26-42.5,39.5
		l-90.8,85.1C22.9,717.3-18.4,754.1,9.9,796.2"/>
	<g id="puzzle_9_" class="st1">
		<path id="XMLID_131_" class="st2" d="M100.2,1599.6c-12.8,26.1-21.1,54.9-30.1,82.5c-11.2,34.6-21.7,69.4-32,104.3
			c-4.9,16.5-12.8,32.6-14.4,49.9c-1.1,11.9,7.8,21.9,17.2,27.8c6.8,4.3,14.5,7,22.2,9.1c10.7,2.9,21.3,6.7,31.8,10.1
			c9.8,3.1,19.8,5.8,29.4,9.6c4.5,1.8,12.3,4.2,17.3,2.4c4.8-1.7,6.2-7.9,8.3-12.2c5.3-10.9,5.3-23.4-5-31.3
			c-7.4-5.7-20.5-7.1-24.5-16.5c-4.7-11,5.6-17.4,15-17.7c4.1-0.1,22.9,2,15-6.4c-12.6-13.4-20.7-29-11.7-36.9
			c9-7.9,29.7,17,29.7,17s-3.7-23.3,11.4-28.2c15.1-4.9,19.2,27.1,20,26.4c9.9-9,30.3-21.4,32.5,1.5c0.9,9.2-6.4,19.9-11.1,27.3
			c9.4-0.6,21.6-4,30,1.8c11.9,8.2,1.2,20.7-6.3,27.4c-8.4,7.4-21.1,7.9-30,15.4c-10.9,9.2-16.4,22.6-17.3,36.7
			c-0.1,2.1,0.5,6.5,1,10.5c0.5,4.3,3.4,7.9,7.5,9.2c34,10.9,61.8,19.9,66.7,21.1c10.2,2.5,21.8,3.1,29.8-4.9
			c20.9-20.9,25.2-58.1,30.8-85.6c3.4-16.6,17.7-13.4,28.2-5.1c5.2,4.1,10,9.1,13.4,14.8c5.4,9.1,6,20.4,13.9,28.1
			c6.6,6.4,19.8,11.5,25.4,1.3c4.4-8,3.2-18.3,2.7-27c0-0.3,0.4-0.4,0.6-0.2c4.1,6.9,21.3,10.1,27.7,8.2c18.7-5.5,6.6-22.1-1.7-31.1
			c-0.7-0.8,31.3-5.1,26.3-20.1c-5-15.1-28.3-11.2-28.3-11.2s24.8-20.8,16.8-29.8c-8-9-17.6-5.3-31.9,6.3
			c-14.1,11.6-14.1,3.7-14.7,1.7c-2.2-6.9-0.4-25.5-7.9-26.5c-10.7-1.5-13.5,9.3-18,16.5c-5.4,8.6-16.3,18.7-27.4,16
			c-11.6-2.8-4.5-12.6-0.8-22c13.6-35.1,39-81.2,22.6-119.3c-5.6-13.1-17.9-20.7-30.6-26c-17.8-7.5-36.9-11.9-55.5-17l-119.1-36
			C175,1571.3,122.5,1554,100.2,1599.6"/>
	</g>
</g>
<g id="XMLID_27_">
</g>
<g id="XMLID_28_">
</g>
<g id="XMLID_29_">
</g>
<g id="XMLID_30_">
</g>
<g id="XMLID_31_">
</g>
<g id="XMLID_32_">
</g>
</svg>
