<?xml version="1.0" encoding="utf-8"?>
<!-- Generator: Adobe Illustrator 19.0.0, SVG Export Plug-In . SVG Version: 6.00 Build 0)  -->
<svg version="1.1" id="圖層_1" xmlns="http://www.w3.org/2000/svg" xmlns:xlink="http://www.w3.org/1999/xlink" x="0px" y="0px"
	 viewBox="0 0 392.4 392.4" style="enable-background:new 0 0 392.4 392.4;" xml:space="preserve">
<style type="text/css">
	.st0{fill:#FFFFFF;}
</style>
<g id="XMLID_1688_">
	<circle id="XMLID_1694_" cx="196.2" cy="196.2" r="196.2"/>
	<path id="XMLID_1693_" class="st0" d="M120.3,194.8l1.3-0.7l2.2-4.5l10.3-15.3c0,0,13.1-15.5,20.6-20.6
		c21.5-14.5,46.1-21.8,71.8-14.8c15.1,4.1,32.1,10.5,41.6,23.6c9.9,13.7,13.7,24.7,14.6,32.4c1.1,8.7,2.1,17.3,1.2,26.2
		c-1.2,11.5-5.2,22.4-7,33.7c0,0-1.1,6.7,5.1,14.8c6.2,8,3.6,12.9,3.6,12.9c-2.2,4-3.2,7.8-6.6,11.2c-4.3,4.4-9.8,7.7-15.4,10.3
		c-11.5,5.4-24.1,8.1-36.6,9.7c-20.7,2.7-41.8,2.5-62.5-0.3c-16-2.2-34-5.7-47.2-15.6c-2.7-2-5.2-4.3-7.1-7
		c-5.5-7.5-7.9-18.8-10.8-27.6c-2.7-8.3-5.5-16.8-6.9-25.4c-3.9-24.7-5.6-49.8-3.9-74.7c0.5-7.8,1.4-15.4,2.5-23.1
		c1-7,2.2-14.5,0.6-21.5c-1.9-8.4-3.2-23.2,3.2-32c6.4-8.8,14.2-16.7,24.1-15.7s13.5,3.4,16.3,5.8c2.8,2.4,8.8,8.8,4.1,17.4
		c-1.7,3-4.9,7-4.8,10.6c0.1,5,5.1,5.7,8.6,3.4c3.6-2.3,8.4,2.6,8.7,6c0.5,6.9-9.5,11.7-14.5,14.5c-6.4,3.7-14.2,7.3-15.7,15.3
		c-1.9,10.3-1.5,17.2-1.9,25.3S120.3,194.8,120.3,194.8z"/>
	<g id="XMLID_1689_">
		<path id="XMLID_1692_" d="M182.6,175c0-4.8-5-7.7-8-7.7c-3,0-10.3,3.2-11,12.4c-0.4,4.8,4.2,8.6,7.3,8.6
			C179.8,188.3,182.6,179.8,182.6,175z"/>
		<path id="XMLID_1691_" d="M234.2,187.3c0-4.8-5-7.7-8-7.7c-3,0-10.3,3.2-11,12.4c-0.4,4.8,4.2,8.6,7.3,8.6
			C231.4,200.6,234.2,192.1,234.2,187.3z"/>
		<path id="XMLID_1690_" d="M162.2,213.7c-0.3,18.4,21.6,25.5,36.7,21.5c8.5-2.2,19.4-10.4,15-20.7c-5.2-12.2-16.9-4.7-26-7.7
			c-4.7-1.6-7.8-6.6-13-6.8C167.1,199.8,162.3,206.2,162.2,213.7z"/>
	</g>
</g>
<g id="XMLID_14_">
</g>
<g id="XMLID_15_">
</g>
<g id="XMLID_16_">
</g>
<g id="XMLID_17_">
</g>
<g id="XMLID_18_">
</g>
<g id="XMLID_19_">
</g>
</svg>
