<?xml version="1.0" encoding="utf-8"?>
<!-- Generator: Adobe Illustrator 19.0.0, SVG Export Plug-In . SVG Version: 6.00 Build 0)  -->
<svg version="1.1" id="圖層_1" xmlns="http://www.w3.org/2000/svg" xmlns:xlink="http://www.w3.org/1999/xlink" x="0px" y="0px"
	 viewBox="0 0 562.6 621.4" style="enable-background:new 0 0 562.6 621.4;" xml:space="preserve">
<style type="text/css">
	.st0{fill:#1C4154;stroke:#FFFFFF;stroke-width:6;stroke-miterlimit:10;}
	.st1{fill:#FFFFFF;stroke:#FFFFFF;stroke-width:6;stroke-miterlimit:10;}
</style>
<g id="XMLID_2_">
	<line id="XMLID_478_" class="st0" x1="560.9" y1="592" x2="483.9" y2="592"/>
	<path id="XMLID_477_" class="st0" d="M79.3,594.7c23.8,5,39.1,24.9,26.6,23.6c-12.5-1.4-27.5-1.4-39.7-4.6
		c-14.5-3.8-29.3-6.8-43.7-11.2c-1.4,6.3-2,8.8-3.5,15.1c-5.1,0.4-10.9-0.4-16,0c0.4-10,0.7-14.9,1.1-24.8"/>
	<g id="XMLID_449_">
		<path id="XMLID_476_" class="st0" d="M5,279.3L54.5,7.4c42.6,7.8,86.3,20.5,115.9,50.8s47.3,72.3,48,114.7
			c-21.2-1.5-42.1-6.2-61.9-13.8c15.5,24.2,21.8,54.2,17.2,82.6c-1.7,10.6-5,21.3-12,29.6c-8.8,10.4-22.2,15.7-35.4,19.1
			c-39.2,10.1-82.1,6.5-119.2-9.7"/>
		<path id="XMLID_475_" class="st0" d="M5,528.8c0,0,0.3-246.7,0.3-246.7c0-3.5,44.8,8.1,48.6,9.6c14.1,5.5,27.4,13,40.2,21
			c32.9,20.6,78.8,60,98.2,91.2c25.6,41.3,19.2,94.7-30.8,114.3c-10.6,4.2-22.1,5.6-33.5,6.7C87.1,529,45.8,530.3,5,528.8"/>
		<path id="XMLID_474_" class="st1" d="M301.9,405.4c2.6,0.1,5.1-1.4,6.4-3.6c-0.9-2.1-3.7-2.4-6-2.4c-8.5,0-17-0.1-25.6-0.1
			c-6.3,0-12.8,0-18.8,2c-6.1,2.1-11.4,6.4-14.7,11.9"/>
		<line id="XMLID_473_" class="st0" x1="70.7" y1="342.7" x2="244.4" y2="413.2"/>
		<line id="XMLID_472_" class="st0" x1="57.3" y1="368.3" x2="234.4" y2="429"/>
		<line id="XMLID_471_" class="st0" x1="244.4" y1="413.2" x2="234.4" y2="431.9"/>
		<line id="XMLID_470_" class="st0" x1="225.2" y1="405.4" x2="218.7" y2="423.6"/>
		
			<ellipse id="XMLID_469_" transform="matrix(-0.8432 -0.5375 0.5375 -0.8432 244.1211 951.6218)" class="st0" cx="260.8" cy="440.2" rx="7.3" ry="10.5"/>
		
			<ellipse id="XMLID_468_" transform="matrix(-0.8432 -0.5375 0.5375 -0.8432 269.8467 967.3893)" class="st0" cx="276" cy="444.3" rx="7.3" ry="10.1"/>
		
			<ellipse id="XMLID_467_" transform="matrix(-0.8432 -0.5375 0.5375 -0.8432 287.058 990.3357)" class="st0" cx="287.9" cy="453.3" rx="7.3" ry="10.1"/>
		<path id="XMLID_466_" class="st0" d="M295.9,406.5c-10,1.9-17.7,5.7-17.2,8.4s9.3,4.7,19.1,1.7c11.3-3.5,17.7-5.7,17.2-8.4
			C314.5,405.4,305.9,404.6,295.9,406.5z"/>
		<path id="XMLID_465_" class="st0" d="M238,427.6c6.7-0.1,13.3,3.1,17.4,8.3"/>
		<path id="XMLID_464_" class="st1" d="M294.8,420.5c7.2,1.5,14.1,4.8,19.8,9.5c2.9,2.4,5.6,5.6,5.7,9.3c0,3.8-4.1,7.4-7.4,5.6
			c-8-4.4-15.6-11.2-22.8-16.9"/>
		<path id="XMLID_463_" class="st1" d="M301.8,438.7c2.7,0,5,1.9,6.5,4.1c2.4,3.5,3,8.5,0.3,11.7c-2.7,3.2-9,2.7-10.2-1.3"/>
		<path id="XMLID_462_" class="st1" d="M305.1,413.2c7.7,2,15.2,5,22.2,8.8c3.7,2,7.9,6.1,5.7,9.7c-4.3,0.1-12.9,0.2-12.9,0.2"/>
		<line id="XMLID_461_" class="st0" x1="335.6" y1="420.5" x2="329.6" y2="402.2"/>
		<path id="XMLID_460_" class="st0" d="M558.4,274.4l-55-270.9c-42.5,8.6-87.7,22.6-117.8,53.8c-30.1,31.2-47.2,73.5-47.4,115.9
			c21.9-2.1,43.6-7.4,64-15.5c-15.7,24.6-21.6,54.8-16.5,83.1c1.9,10.6,5.6,21.2,12.9,29.3c9.2,10.2,23.2,15.2,36.9,18.2
			c40.6,9,83.8,4.6,121.9-12.7"/>
		<path id="XMLID_459_" class="st0" d="M559.4,522.9c0,0-1.4-246.7-1.4-246.7c0-3.5-45.2,8.1-49.1,9.6c-14.6,5.5-27.8,13-40.9,21
			c-38.1,23.1-77,53.5-101.2,91.2c-26.5,41.3-19.7,94.7,32,114.3c11,4.2,22.9,5.6,34.7,6.7C475.6,523,517.2,524.3,559.4,522.9"/>
		<path id="XMLID_458_" class="st0" d="M486.3,590.2c-23.7,5-40.1,28.7-27.7,27.3c12.4-1.4,26.8-7.5,38.9-10.7
			c14.4-3.8,29.1-6.8,43.3-11.2c1.4,6.3,1.8,15.7,3.3,22c5,0.4,10.3-0.4,15.4,0c-0.4-10,0-21.8-0.5-31.8"/>
		<path id="XMLID_457_" class="st0" d="M455.1,172.4c-11.6,31.1-38.6,56.4-71.2,66.5"/>
		<line id="XMLID_456_" class="st0" x1="492.6" y1="336.7" x2="313.1" y2="407.3"/>
		<line id="XMLID_455_" class="st0" x1="506.5" y1="362.3" x2="327.3" y2="422"/>
		<polygon id="XMLID_454_" class="st0" points="78.1,595 4.2,595.9 4.6,528.3 101.7,530.5 		"/>
		<polygon id="XMLID_453_" class="st0" points="488.1,590.3 559.4,590.3 559.4,520 464.7,522.2 		"/>
		<polygon id="XMLID_452_" class="st0" points="440.6,520 464.7,520.8 488.8,585.9 484.2,587.2 		"/>
		<line id="XMLID_451_" class="st0" x1="558.9" y1="279" x2="558.9" y2="591"/>
		<polygon id="XMLID_450_" class="st0" points="120,529 98.3,529.8 78.4,592.7 81.3,593.5 		"/>
	</g>
	<path id="XMLID_448_" class="st0" d="M101.5,188.2c11.3,31.1,37.9,56.4,69.8,66.5"/>
</g>
<g id="XMLID_15_">
</g>
<g id="XMLID_16_">
</g>
<g id="XMLID_17_">
</g>
<g id="XMLID_18_">
</g>
<g id="XMLID_19_">
</g>
<g id="XMLID_20_">
</g>
</svg>
