<?xml version="1.0" encoding="utf-8"?>
<!-- Generator: Adobe Illustrator 19.0.0, SVG Export Plug-In . SVG Version: 6.00 Build 0)  -->
<svg version="1.1" id="圖層_1" xmlns="http://www.w3.org/2000/svg" xmlns:xlink="http://www.w3.org/1999/xlink" x="0px" y="0px"
	 viewBox="0 0 366.3 456" style="enable-background:new 0 0 366.3 456;" xml:space="preserve">
<style type="text/css">
	.st0{fill:#B7E7F7;}
</style>
<path id="XMLID_765_" class="st0" d="M3.6,435.8c-0.4,5.5-1.3,12.4-3.1,18.3c8.8,0.4,17.7,1.9,26.6,1.9c16.4,0,32.8,0,49.2,0
	c20.6,0,41.3,0,61.9,0c20.5,0,41,0,61.5,0c16,0,32,0,48,0c33.6,0,67.2-1.4,100.8-1.3c0.8,0,15.8-0.5,15.8-0.8c1-8.9,0-19.3,0-28.2
	c0-13.7,2.1-23.2,2.1-36.9c0-27.5,0-52.2,0-79.7c0-13.7,0-39,0-52.7c0-24.7-0.2-33.4-0.1-58.1c0-12.6-1.3-36.7-1.1-49.3
	c0.1-6.6,0.6-13.2,0.5-19.8c-0.1-4.8,0.2-10.1,0.6-14.7c0.3-3.4,0-6.1,0-9.5l0-1.9c-50.1,0-101.4-2.5-151.4,0
	c-1.6-12,10.1-20.5,12.4-31.6c4.6-21.8,2.6-53.5-18.7-66.3c-23.4-14-65.1,1.9-68.4,30.4c-2.6,22.3,0.7,38.2,12,57.3
	c2.4,4.1,2.4,6.2,0.8,10.2c-16.8,0-30.5,0-47.3,0c-20.4,0-42.5,2.8-63,2.5c-0.1,0-0.3,0-0.4,0c-21.8-0.2-39.9,16.9-40.9,38.7
	C0.6,160.3,0,177.7,0,188c0.1,21.3,0.2,42.7,0.3,64C0.5,278.3,1,304.6,1,330.8c0,14.2,3.7,71.9,3.3,85.5c-0.3,10.8-2.4,24-0.5,34.6
	c0.2,1.3,0.4-0.9-0.5,5.1h361.5c-0.7-6-1.1-6-1.3-8.3"/>
<g id="XMLID_14_">
</g>
<g id="XMLID_15_">
</g>
<g id="XMLID_16_">
</g>
<g id="XMLID_17_">
</g>
<g id="XMLID_18_">
</g>
<g id="XMLID_19_">
</g>
<g id="XMLID_20_">
</g>
<g id="XMLID_21_">
</g>
<g id="XMLID_22_">
</g>
<g id="XMLID_23_">
</g>
<g id="XMLID_24_">
</g>
<g id="XMLID_25_">
</g>
<g id="XMLID_26_">
</g>
<g id="XMLID_27_">
</g>
<g id="XMLID_28_">
</g>
</svg>
