<?xml version="1.0" encoding="utf-8"?>
<!-- Generator: Adobe Illustrator 19.0.0, SVG Export Plug-In . SVG Version: 6.00 Build 0)  -->
<svg version="1.1" id="圖層_1" xmlns="http://www.w3.org/2000/svg" xmlns:xlink="http://www.w3.org/1999/xlink" x="0px" y="0px"
	 viewBox="0 0 112.1 141.7" style="enable-background:new 0 0 112.1 141.7;" xml:space="preserve">
<style type="text/css">
	.st0{opacity:0.97;fill:#C1E3E3;}
</style>
<path id="XMLID_35_" class="st0" d="M111.7,1.1c0.2-0.4,0.3-0.6,0.5-1c-0.9,0-1.8,0.2-2.7,0.2c-11.9,0-23.9,0-35.8,0
	c-23.8,0-47.6,0-71.4,0c-2.8,0-1.8,3.6-1.8,5.9C0.3,9,0.2,11.7,0.2,14.5C0.1,20.1,0,25.5,0,31.1c0,10.4,0,20.8,0,31.3
	c0,12.4,0,24.8,0,37.1c0,2,0,7,0,7l44.5,0.4c0.8,1,0.8,2.7,0.6,3.9c-0.5,3.2-2.5,6.2-3.1,9.5c-0.8,4.5-0.5,9.3,0.9,13.7
	c0.7,2.2,1.8,4.5,3.7,5.9c1.9,1.5,4.5,2,6.9,1.9c2.4-0.1,4.8-0.9,7.1-1.6c2.2-0.7,4.4-1.5,6-3.2c1.3-1.5,1.9-3.4,2.2-5.4
	c0.8-5.4-0.5-10.6-1.6-15.8c-0.2-1.1-2.4-10.5,0-10.5c0,0,43.4,0,43.4,0c1.2-5,0.7-10.7,0.7-16.1c0.1-8.4,3.8-27.4-10.1-25
	c-11.6,2.3-21,8.7-24.8-3.8c-2.3-7.4-3-19.2,6.6-21.6c3.2-0.8,6.6,0,9.8,1c3.2,1,6.3,2.2,9.6,2.3c10.2,0.3,10.3-9.2,8.9-16.8
	C110,17.7,108.8,8.3,111.7,1.1z"/>
</svg>
