<?xml version="1.0" encoding="utf-8"?>
<!-- Generator: Adobe Illustrator 19.0.0, SVG Export Plug-In . SVG Version: 6.00 Build 0)  -->
<svg version="1.1" id="圖層_1" xmlns="http://www.w3.org/2000/svg" xmlns:xlink="http://www.w3.org/1999/xlink" x="0px" y="0px"
	 viewBox="0 0 412.3 318.8" style="enable-background:new 0 0 412.3 318.8;" xml:space="preserve">
<style type="text/css">
	.st0{fill:#999999;stroke:#999999;stroke-width:7;stroke-miterlimit:10;}
	.st1{fill:#FCEE21;}
</style>
<g id="XMLID_1_">
	<path id="XMLID_767_" class="st0" d="M10.4,52.6C5.9,80,6.2,108.4,5.7,136C5.1,170.6,5,205.2,5.3,239.8c0.1,16.4-2.7,33.2,0.6,49.4
		C8.2,300.3,19,307,29.2,309.7c7.4,2,15.1,2.4,22.7,2.1c10.6-0.3,21.2,0.2,31.7,0.4c9.8,0.2,19.7-0.1,29.4,0.7
		c4.6,0.4,12.3,0.5,16.4-2.6c3.9-2.9,3.5-8.9,4.2-13.4c1.8-11.3-1.6-22.8-13.1-27.1c-8.3-3.1-20.6-0.8-26.9-8.3
		c-7.3-8.8,0.3-17.4,8.8-20.3c3.7-1.2,21.5-4.5,11.9-10c-15.2-8.8-26.8-20.7-20.8-30.4s31.7,7.3,31.7,7.3s-9.8-20.2,2.6-28.8
		c12.4-8.6,24.9,19.4,25.4,18.5c6.6-10.9,21.7-27.8,30-7.6c3.3,8.1-0.3,19.9-2.6,27.9c8.4-3.1,18.6-9.6,27.8-6.7
		c13.1,4.2,6.8,18.5,1.8,26.7c-5.6,9-17.1,13-23.1,22.3c-7.4,11.4-8.7,25.1-5.6,38.2c0.4,1.9,2.3,5.8,3.8,9.3
		c1.6,3.8,5.3,6.2,9.4,6.3c33.9,0.6,61.8,1,66.5,0.8c9.9-0.5,20.7-3.1,25.8-12.6c13.2-24.8,6.9-59.8,4.4-86.5
		c-1.5-16.1,12.4-17,24.3-12.4c5.9,2.3,11.6,5.5,16.3,9.8c7.4,6.9,11.1,16.9,20.4,21.7c7.7,4.1,21.2,5,23.5-5.8
		c1.8-8.5-2.1-17.5-5-25.3c-0.1-0.3,0.3-0.5,0.5-0.3c5.6,5.2,22.2,3.3,27.4-0.1c15.5-10.2-0.1-21.9-10.1-27.8
		c-0.9-0.5,27.1-13.2,18.4-25.6c-8.7-12.3-28.8-2.4-28.8-2.4s16.9-25.8,7.1-31.7c-9.7-6-17.5,0-27.3,14.6
		c-9.7,14.5-11.8,7.3-12.9,5.6c-3.9-5.7-7.4-23.1-14.5-22c-10.1,1.6-9.8,12.2-11.9,20c-2.5,9.3-9.7,21.5-20.6,22.2
		c-11.4,0.7-7.6-10.3-6.8-19.8c2.8-35.7,13.1-84.6-12.2-114.8c-8.7-10.4-22-13.9-35-15.2C226,4.7,207.4,5.9,189,6.3l-118.3,0
		C70.7,6.3,18.2,5,10.4,52.6"/>
	<g id="puzzle_2_">
		<path id="XMLID_766_" class="st1" d="M6.1,47.1C1.7,74.4,2,102.9,1.5,130.5C0.8,165.1,0.8,199.7,1,234.3
			c0.1,16.4-2.7,33.2,0.6,49.4c2.3,11.1,13.1,17.8,23.3,20.6c7.4,2,15.1,2.4,22.7,2.1c10.6-0.3,21.2,0.2,31.7,0.4
			c9.8,0.2,19.7-0.1,29.4,0.7c4.6,0.4,12.3,0.5,16.4-2.6c3.9-2.9,3.5-8.9,4.2-13.4c1.8-11.3-1.6-22.8-13.1-27.1
			c-8.3-3.1-20.6-0.8-26.9-8.3c-7.3-8.8,0.3-17.4,8.8-20.3c3.7-1.2,21.5-4.5,11.9-10c-15.2-8.8-26.8-20.7-20.8-30.4
			c6-9.7,31.7,7.3,31.7,7.3s-9.8-20.2,2.6-28.8c12.4-8.6,24.9,19.4,25.4,18.5c6.6-10.9,21.7-27.8,30-7.6c3.3,8.1-0.3,19.9-2.6,27.9
			c8.4-3.1,18.6-9.6,27.8-6.7c13.1,4.2,6.8,18.5,1.8,26.7c-5.6,9-17.1,13-23.1,22.3c-7.4,11.4-8.7,25.1-5.6,38.2
			c0.4,1.9,2.3,5.8,3.8,9.3c1.6,3.8,5.3,6.2,9.4,6.3c33.9,0.6,61.8,1,66.5,0.8c9.9-0.5,20.7-3.1,25.8-12.6
			c13.2-24.8,6.9-59.8,4.4-86.5c-1.5-16.1,12.4-17,24.3-12.4c5.9,2.3,11.6,5.5,16.3,9.8c7.4,6.9,11.1,16.9,20.4,21.7
			c7.7,4.1,21.2,5,23.5-5.8c1.8-8.5-2.1-17.5-5-25.3c-0.1-0.3,0.3-0.5,0.5-0.3c5.6,5.2,22.2,3.3,27.4-0.1
			c15.5-10.2-0.1-21.9-10.1-27.8c-0.9-0.5,27.1-13.2,18.4-25.6c-8.7-12.3-28.8-2.4-28.8-2.4s16.9-25.8,7.1-31.7
			c-9.7-6-17.5,0-27.3,14.6c-9.7,14.5-11.8,7.3-12.9,5.6c-3.9-5.7-7.4-23.1-14.5-22c-10.1,1.6-9.8,12.2-11.9,20
			c-2.5,9.3-9.7,21.5-20.6,22.2c-11.4,0.7-7.6-10.3-6.8-19.8c2.8-35.7,13.1-84.6-12.2-114.8c-8.7-10.4-22-13.9-35-15.2
			c-18.3-1.9-36.9-0.7-55.3-0.2l-118.3,0C66.5,0.8,13.9-0.5,6.1,47.1"/>
	</g>
</g>
<g id="XMLID_15_">
</g>
<g id="XMLID_16_">
</g>
<g id="XMLID_17_">
</g>
<g id="XMLID_18_">
</g>
<g id="XMLID_19_">
</g>
<g id="XMLID_20_">
</g>
<g id="XMLID_21_">
</g>
<g id="XMLID_22_">
</g>
<g id="XMLID_23_">
</g>
<g id="XMLID_24_">
</g>
<g id="XMLID_25_">
</g>
<g id="XMLID_26_">
</g>
<g id="XMLID_27_">
</g>
<g id="XMLID_28_">
</g>
<g id="XMLID_29_">
</g>
</svg>
