<?xml version="1.0" encoding="utf-8"?>
<!-- Generator: Adobe Illustrator 19.0.0, SVG Export Plug-In . SVG Version: 6.00 Build 0)  -->
<svg version="1.1" id="圖層_1" xmlns="http://www.w3.org/2000/svg" xmlns:xlink="http://www.w3.org/1999/xlink" x="0px" y="0px"
	 viewBox="0 0 120 98.8" style="enable-background:new 0 0 120 98.8;" xml:space="preserve">
<style type="text/css">
	.st0{fill:#FFFFFF;stroke:#FFFFFF;stroke-miterlimit:10;}
	.st1{fill:#FFFFFF;}
	.st2{fill:none;stroke:#FFFFFF;stroke-miterlimit:10;}
</style>
<g id="XMLID_151_">
	<g id="XMLID_163_">
		<path id="XMLID_164_" class="st0" d="M70.1,97.8c-1.4-0.2-2.7-0.7-3.6-1.8c-1.9-2.1-1.1-5.2-1.1-7.8c-0.1-3.6-0.1-7.2-0.1-10.9
			c0-7.6,0.1-15.2,0.1-22.8c0-0.6,0-1.1,0.3-1.6c0.9-1.6,6-2.7,7.7-3.4c3.5-1.4,7-2.8,10.4-4.1c6.8-2.7,13.6-5.4,20.5-7.9
			c3.3-1.2,8.1-4.1,11.5-1.9c3.1,2,3.6,7.7,3.8,11.1c0.3,8.9-1,17.9-3.5,26.4c-1.7,5.8-6.1,10.5-11,13.9c-5.3,3.6-11.3,5.9-17.4,7.9
			C82.1,96.6,76,98.6,70.1,97.8z M82,57.5c-0.4,0.9,0.2,20.6,0.6,24.8c4.8,0.2,24.5-6.9,29.2-13.4c3.5-4.8,3.8-20.8,0.2-23.8
			c-5.7-4.9-22.1,6.9-28.8,11.2C82.5,56.7,82.2,57.1,82,57.5z"/>
	</g>
	<g id="XMLID_155_">
		<g id="XMLID_161_">
			<path id="XMLID_1_" class="st1" d="M109.5,20.5c3.9,1.5,5.7,3.4,4.9,5c-1,2-8.3,3-8.3,3s-6.1-2.9-7-3.3
				c-9.9-3.7-17.7-8.1-27.7-12.3c-3.5-1.5-7.1-3-10.9-3.3c-2.5-0.2-8.7,2.7-8.4,5.2c0.4,3.1,40.6,5,43.8,16.3
				c1,3.5-3.7,4.2-12.2,7.8c-4.8,2-15.2,7.2-20.6,6.8C60.1,45.6,30,32.7,18.8,28.5c-3.6-1.3-9.9-1.8-10.5-4.6
				c-0.5-2.5,5-5.9,8.2-5.9c2.6,0,5.2,1,7.6,2c11.2,4.7,22.4,9.4,33.6,14.1c1.4,0.6,3.3,1.2,4.4,1.2c2.5,0,9.7-1,9.4-3.5
				c-1.7-11.5-41.5-7.1-42.6-18.7c-0.6-7,20.3-12.2,25.3-12.6c6.9-0.5,13.6,2.2,20,4.9C85.6,10.2,108.5,20.2,109.5,20.5z"/>
		</g>
		<g id="XMLID_159_">
			<path id="XMLID_2_" class="st2" d="M16.5,18c2.6,0,5.2,1,7.6,2c11.2,4.7,22.4,9.4,33.6,14.1c1.4,0.6,3.3,1.2,4.4,1.2
				c2.5,0,9.7-1,9.4-3.5c-1.7-11.5-41.5-7.1-42.6-18.7c-0.6-7,20.3-12.2,25.3-12.6c6.9-0.5,13.6,2.2,20,4.9
				c11.5,4.8,34.4,14.8,35.4,15.1c3.9,1.5,5.7,3.4,4.9,5c-1,2-8.3,3-8.3,3s-6.1-2.9-7-3.3c-9.9-3.7-17.7-8.1-27.7-12.3
				c-3.5-1.5-7.1-3-10.9-3.3c-2.5-0.2-8.7,2.7-8.4,5.2c0.4,3.1,40.6,5,43.8,16.3c1,3.5-3.7,4.2-12.2,7.8c-4.8,2-15.2,7.2-20.6,6.8
				C60.1,45.6,30,32.7,18.8,28.5c-3.6-1.3-9.9-1.8-10.5-4.6C7.8,21.4,13.3,18,16.5,18z"/>
		</g>
	</g>
	<path id="XMLID_152_" class="st0" d="M5.7,75.3C6,70,24.7,69.2,24.7,69.2S7,64.2,3.4,58.8C0.8,55.1,0.2,50.4,0.6,46
		c0.3-3.3,1.1-9.3,3.9-11.5c0.4-0.3,0.9-0.5,1.4-0.7c4.3-1.3,7.2,1,11.1,2.4c3.4,1.3,6.8,2.8,10.2,4.1c6.1,2.3,12.2,4.8,18.2,7.3
		c0.7,0.3,1.4,0.6,2.1,0.9c1.8,0.8,10.2,3.9,11,5.2c0.8,1.2,0.4,4.1,0.5,5.4c0.2,4.1,0.4,8.3,0.4,12.4c0.1,4.8,0,9.6-0.2,14.4
		C59,88,59.2,97,57,98c-1.8,0.8-5.3-0.6-7-1.1c-5.3-1.8-4.4-6.9-4.2-11.5c0.1-1.3,1.2-9.1-1.4-8.8c-2.6,0.3-4.9,2.2-7.4,3.1
		c-3.2,1.2-10.3,5.2-14,5.5c-3.5,0.3-7.8-0.8-11-2.2C9.2,81.8,5.5,78.8,5.7,75.3z M12,54.5c2,2.2,22.4,12,30.1,10
		c0.8-0.2,3.5-1.5,2.9-5.6c-1.2-8.4-25.6-12.7-29.5-12.7C8.9,46.2,10.2,52.5,12,54.5z"/>
</g>
<g id="XMLID_16_">
</g>
<g id="XMLID_17_">
</g>
<g id="XMLID_18_">
</g>
<g id="XMLID_19_">
</g>
<g id="XMLID_20_">
</g>
<g id="XMLID_21_">
</g>
<g id="XMLID_22_">
</g>
<g id="XMLID_23_">
</g>
<g id="XMLID_24_">
</g>
<g id="XMLID_25_">
</g>
<g id="XMLID_26_">
</g>
<g id="XMLID_27_">
</g>
<g id="XMLID_28_">
</g>
<g id="XMLID_29_">
</g>
<g id="XMLID_30_">
</g>
</svg>
