<?xml version="1.0" encoding="utf-8"?>
<!-- Generator: Adobe Illustrator 19.0.0, SVG Export Plug-In . SVG Version: 6.00 Build 0)  -->
<svg version="1.1" id="圖層_1" xmlns="http://www.w3.org/2000/svg" xmlns:xlink="http://www.w3.org/1999/xlink" x="0px" y="0px"
	 viewBox="0 0 786.8 829.7" style="enable-background:new 0 0 786.8 829.7;" xml:space="preserve">
<style type="text/css">
	.st0{fill:#4A9ACC;}
</style>
<path id="XMLID_1_" class="st0" d="M242.5,829.7c24.2-18.1,21.9-55.7,26.3-83.7c11.2-71-10-142.7-82.3-169.9
	c-52.1-19.6-128.8-5-168.1-51.8c-45.9-54.8,2-108.9,55.2-126.9c23.2-7.8,134.3-28,74.6-62.5C53.4,280-19.6,205.4,18,144.7
	s198.4,45.9,198.4,45.9S155.1,64.3,232.6,10.3s155.9,121.5,159.2,115.9c41.2-68.2,136-174.2,187.9-47.5c20.8,50.7-2,124.5-16,174.9
	C616.1,234.2,680,193.4,738,212c82.2,26.4,42.8,116,11,166.9c-35.1,56.4-106.8,81.3-144.7,139.5C558,589.6,550.1,675.7,569,757.3
	c2.8,11.9,14.7,50.6,24.2,72.4"/>
<g id="XMLID_2_">
</g>
<g id="XMLID_3_">
</g>
<g id="XMLID_4_">
</g>
<g id="XMLID_5_">
</g>
<g id="XMLID_6_">
</g>
<g id="XMLID_7_">
</g>
<g id="XMLID_8_">
</g>
<g id="XMLID_9_">
</g>
<g id="XMLID_10_">
</g>
<g id="XMLID_11_">
</g>
<g id="XMLID_12_">
</g>
<g id="XMLID_13_">
</g>
<g id="XMLID_14_">
</g>
<g id="XMLID_15_">
</g>
<g id="XMLID_16_">
</g>
</svg>
