<?xml version="1.0" encoding="utf-8"?>
<!-- Generator: Adobe Illustrator 19.0.0, SVG Export Plug-In . SVG Version: 6.00 Build 0)  -->
<svg version="1.1" id="圖層_1" xmlns="http://www.w3.org/2000/svg" xmlns:xlink="http://www.w3.org/1999/xlink" x="0px" y="0px"
	 viewBox="0 0 297.3 297.3" style="enable-background:new 0 0 297.3 297.3;" xml:space="preserve">
<style type="text/css">
	.st0{fill:#FFFFFF;}
</style>
<circle id="XMLID_55_" class="st0" cx="148.6" cy="148.6" r="148.6"/>
<path id="XMLID_57_" d="M82.3,147.8l1.2-0.7l2-4l9.2-13.7c0,0,11.7-13.8,18.3-18.3c19.2-12.9,41-19.4,63.9-13.2
	c13.4,3.6,28.6,9.3,37.1,21c8.8,12.2,12.2,22,13,28.8c0.9,7.8,1.8,15.5,1,23.3c-1.1,10.2-4.6,19.9-6.2,30c0,0-1,6,4.5,13.2
	c5.5,7.2,3.2,11.5,3.2,11.5c-1.9,3.6-2.8,7-5.8,10c-3.9,3.9-8.8,6.9-13.7,9.2c-10.2,4.8-21.5,7.2-32.6,8.6
	c-18.4,2.4-37.2,2.2-55.7-0.3c-14.3-1.9-30.3-5.1-42.1-13.9c-2.4-1.8-4.6-3.9-6.4-6.3c-4.9-6.7-7.1-16.7-9.6-24.5
	c-2.4-7.4-4.9-15-6.1-22.7c-3.5-22-5-44.4-3.5-66.6c0.5-6.9,1.2-13.7,2.3-20.6c0.9-6.3,1.9-12.9,0.5-19.2
	c-1.7-7.5-2.8-20.7,2.8-28.5s12.7-14.8,21.5-14c8.8,0.8,12,3,14.5,5.2c2.5,2.2,7.8,7.8,3.7,15.5c-1.5,2.7-4.3,6.2-4.3,9.4
	c0.1,4.4,4.5,5.1,7.6,3c3.2-2.1,7.5,2.3,7.7,5.4c0.4,6.2-8.4,10.4-12.9,13c-5.7,3.3-12.7,6.5-14,13.7c-1.7,9.2-1.3,15.3-1.7,22.5
	C81.4,132,82.3,147.8,82.3,147.8z"/>
<g id="XMLID_54_">
	<path id="XMLID_58_" class="st0" d="M137.8,130.2c0-4.3-4.5-6.8-7.2-6.8c-2.7,0-9.2,2.8-9.8,11c-0.3,4.3,3.8,7.7,6.5,7.7
		C135.3,142,137.8,134.4,137.8,130.2z"/>
	<path id="XMLID_59_" class="st0" d="M183.8,141.2c0-4.3-4.5-6.8-7.2-6.8s-9.2,2.8-9.8,11c-0.3,4.3,3.8,7.7,6.5,7.7
		C181.3,153,183.8,145.4,183.8,141.2z"/>
	<path id="XMLID_60_" class="st0" d="M119.6,164.7c-0.3,16.4,19.3,22.7,32.7,19.2c7.6-2,17.2-9.3,13.4-18.4
		c-4.6-10.8-15-4.2-23.1-6.9c-4.2-1.4-6.9-5.9-11.6-6.1C123.9,152.3,119.7,158,119.6,164.7z"/>
</g>
<g id="XMLID_1_">
</g>
<g id="XMLID_2_">
</g>
<g id="XMLID_3_">
</g>
<g id="XMLID_4_">
</g>
<g id="XMLID_5_">
</g>
<g id="XMLID_6_">
</g>
<g id="XMLID_7_">
</g>
<g id="XMLID_8_">
</g>
<g id="XMLID_9_">
</g>
<g id="XMLID_10_">
</g>
<g id="XMLID_11_">
</g>
<g id="XMLID_12_">
</g>
<g id="XMLID_13_">
</g>
<g id="XMLID_14_">
</g>
<g id="XMLID_15_">
</g>
</svg>
