<?xml version="1.0" encoding="utf-8"?>
<!-- Generator: Adobe Illustrator 19.0.0, SVG Export Plug-In . SVG Version: 6.00 Build 0)  -->
<svg version="1.1" id="圖層_1" xmlns="http://www.w3.org/2000/svg" xmlns:xlink="http://www.w3.org/1999/xlink" x="0px" y="0px"
	 viewBox="0 0 11.3 19.5" style="enable-background:new 0 0 11.3 19.5;" xml:space="preserve">
<style type="text/css">
	.st0{opacity:0.65;}
	.st1{fill:#4A9ACC;stroke:#4A9ACC;stroke-miterlimit:10;}
</style>
<g id="XMLID_15_" class="st0">
	<path id="XMLID_17_" class="st1" d="M5.3,17.9c-2.9-0.1-4.8-2.3-4.8-4.5c0-0.5,0.2-1,0.8-1c0.3,0,0.8,0.2,0.8,0.9
		c0,0.2,0,0.4-0.1,0.6c-0.1,0.2-0.1,0.4-0.1,0.7c0,0.4,0.3,0.9,0.9,1.5c0.7,0.7,1.6,1,2.8,1c2.8,0,4.2-2.2,4.2-3.9
		c0-0.7-0.3-1.4-0.8-2c-0.6-0.6-1.5-1.1-2.9-1.3C4,9.6,2.6,9,1.8,8.1C1.3,7.4,1,6.6,1,5.7c0-2.2,1.7-4.1,4.4-4.2V0.5h0.7v1.1
		C8.5,1.7,10,3.7,10,5.4c0,0.4-0.2,0.9-0.8,0.9c-0.2,0-0.7-0.2-0.7-0.8c0-0.4,0-0.4,0.1-0.7c0-0.8-0.7-2.4-2.8-2.4
		c-2.5,0-3.8,1.9-3.8,3.1c0,0.6,0.2,1.3,0.7,1.8C3,7.7,4.2,8.2,6.1,8.6C8,9,9.2,9.5,9.8,10.2c0.7,0.7,1,1.5,1,2.5
		c0,3.1-2.3,5.1-4.8,5.2V19H5.3V17.9z"/>
</g>
<g id="XMLID_14_">
</g>
<g id="XMLID_16_">
</g>
<g id="XMLID_18_">
</g>
<g id="XMLID_19_">
</g>
<g id="XMLID_20_">
</g>
<g id="XMLID_21_">
</g>
<g id="XMLID_22_">
</g>
<g id="XMLID_23_">
</g>
<g id="XMLID_24_">
</g>
<g id="XMLID_25_">
</g>
<g id="XMLID_26_">
</g>
<g id="XMLID_27_">
</g>
<g id="XMLID_28_">
</g>
<g id="XMLID_29_">
</g>
<g id="XMLID_30_">
</g>
</svg>
