<?xml version="1.0" encoding="utf-8"?>
<!-- Generator: Adobe Illustrator 19.0.0, SVG Export Plug-In . SVG Version: 6.00 Build 0)  -->
<svg version="1.1" id="圖層_1" xmlns="http://www.w3.org/2000/svg" xmlns:xlink="http://www.w3.org/1999/xlink" x="0px" y="0px"
	 viewBox="0 0 293.1 325.4" style="enable-background:new 0 0 293.1 325.4;" xml:space="preserve">
<style type="text/css">
	.st0{fill:#1C4256;stroke:#95CCF4;stroke-width:4;stroke-miterlimit:10;}
	.st1{fill:#FFFFFF;stroke:#95CCF4;stroke-width:4;stroke-miterlimit:10;}
</style>
<g id="XMLID_37_">
	<line id="XMLID_91_" class="st0" x1="291.4" y1="309" x2="250.4" y2="309"/>
	<path id="XMLID_51_" class="st0" d="M41.6,308.8c12.4,2.6,18.8,14.6,12.4,13.9c-6.5-0.7-12.8-2.4-19.1-4.1
		c-7.5-2-15.2-3.5-22.6-5.8c-0.8,3.3-1.5,6.5-2.3,9.8c-2.6,0.2-5.3,0.4-7.9,0.6c0.2-5.2,0.5-10.3,0.7-15.5"/>
	<g id="XMLID_43_">
		<path id="XMLID_119_" class="st0" d="M3.1,145.3L28.8,4.3c22.1,4,44.7,10.6,60.1,26.3s24.5,37.5,24.9,59.4
			c-11-0.8-21.8-3.2-32.1-7.1c8.1,12.5,11.3,28.1,8.9,42.8c-0.9,5.5-2.6,11.1-6.2,15.3c-4.6,5.4-11.5,8.2-18.4,9.9
			c-20.3,5.2-42.6,3.4-61.8-5.1"/>
		<path id="XMLID_117_" class="st0" d="M3.1,274.6c0,0,0.2-127.9,0.2-127.9c0-1.8,23.2,4.2,25.2,5c7.3,2.8,14.2,6.7,20.8,10.9
			c17,10.7,40.9,31.1,50.9,47.3c13.3,21.4,9.9,49.1-16,59.3c-5.5,2.2-11.5,2.9-17.4,3.5C45.7,274.7,24.3,275.4,3.1,274.6"/>
		<path id="XMLID_110_" class="st1" d="M157,210.7c1.3,0,2.7-0.7,3.3-1.9c-0.5-1.1-1.9-1.3-3.1-1.3c-4.4,0-8.8-0.1-13.2-0.1
			c-3.3,0-6.6,0-9.7,1.1c-3.1,1.1-5.9,3.3-7.6,6.2"/>
		<line id="XMLID_109_" class="st0" x1="37.2" y1="178.2" x2="127.2" y2="214.7"/>
		<line id="XMLID_108_" class="st0" x1="30.3" y1="191.4" x2="122.1" y2="222.9"/>
		<line id="XMLID_107_" class="st0" x1="127.2" y1="214.7" x2="122.1" y2="224.4"/>
		<line id="XMLID_106_" class="st0" x1="117.3" y1="210.7" x2="113.9" y2="220.1"/>
		
			<ellipse id="XMLID_105_" transform="matrix(-0.8432 -0.5375 0.5375 -0.8432 127.2776 494.544)" class="st0" cx="135.7" cy="228.7" rx="3.8" ry="5.5"/>
		
			<ellipse id="XMLID_104_" transform="matrix(-0.8432 -0.5375 0.5375 -0.8432 140.6127 502.7172)" class="st0" cx="143.6" cy="230.9" rx="3.8" ry="5.2"/>
		
			<ellipse id="XMLID_103_" transform="matrix(-0.8432 -0.5375 0.5375 -0.8432 149.5344 514.6116)" class="st0" cx="149.8" cy="235.5" rx="3.8" ry="5.2"/>
		<path id="XMLID_102_" class="st0" d="M153.9,211.2c-5.2,1-9.2,2.9-8.9,4.4c0.3,1.4,4.8,2.4,9.9,0.9c5.8-1.8,9.2-2.9,8.9-4.4
			C163.6,210.7,159.1,210.3,153.9,211.2z"/>
		<path id="XMLID_101_" class="st0" d="M123.9,222.2c3.5,0,6.9,1.6,9,4.3"/>
		<path id="XMLID_97_" class="st1" d="M153.4,218.5c3.8,0.8,7.3,2.5,10.3,4.9c1.5,1.2,2.9,2.9,2.9,4.8c0,1.9-2.1,3.9-3.9,2.9
			c-4.1-2.3-8.1-5.8-11.8-8.8"/>
		<path id="XMLID_96_" class="st1" d="M157,228c1.4,0,2.6,1,3.4,2.1c1.2,1.8,1.5,4.4,0.1,6.1s-4.7,1.4-5.3-0.7"/>
		<path id="XMLID_95_" class="st1" d="M158.7,214.7c4,1.1,7.9,2.6,11.5,4.5c1.9,1,4.1,3.2,3,5c-2.2,0-6.7,0.1-6.7,0.1"/>
		<line id="XMLID_94_" class="st0" x1="174.5" y1="218.5" x2="171.4" y2="209"/>
		<path id="XMLID_93_" class="st0" d="M290,142.8L261.5,2.4c-22,4.5-45.4,11.7-61.1,27.9s-24.5,38.1-24.6,60.1
			c11.3-1.1,22.6-3.8,33.2-8c-8.1,12.8-11.2,28.4-8.5,43.1c1,5.5,2.9,11,6.7,15.2c4.8,5.3,12,7.9,19.1,9.4
			c21.1,4.7,43.4,2.4,63.2-6.6"/>
		<path id="XMLID_92_" class="st0" d="M290.5,271.5c0,0-0.7-127.9-0.7-127.9c0-1.8-23.4,4.2-25.4,5c-7.5,2.8-14.4,6.7-21.2,10.9
			c-19.8,12-39.9,27.7-52.5,47.3c-13.7,21.4-10.2,49.1,16.6,59.3c5.7,2.2,11.9,2.9,18,3.5C247.1,271.6,268.6,272.3,290.5,271.5"/>
		<path id="XMLID_39_" class="st0" d="M250.9,307.9c-12.3,2.6-17.9,12-11.5,11.3c6.4-0.7,12.7-2.4,19-4.1c7.4-2,15.1-3.5,22.5-5.8
			c0.7,3.3,1.5,6.5,2.2,9.8c2.6,0.2,5.2,0.4,7.9,0.6c-0.2-5.2-0.4-10.3-0.7-15.5"/>
		<path id="XMLID_80_" class="st0" d="M236.4,89.9c-6,16.1-20,29.2-36.9,34.5"/>
		<line id="XMLID_38_" class="st0" x1="255.9" y1="175.1" x2="162.8" y2="211.6"/>
		<line id="XMLID_74_" class="st0" x1="263.1" y1="188.3" x2="170.2" y2="219.3"/>
		<polygon id="XMLID_46_" class="st0" points="40.8,310.8 3,310.8 3,274.4 53.3,275.5 		"/>
		<polygon id="XMLID_40_" class="st0" points="253.6,306.5 290.5,306.5 290.5,270.1 241.4,271.2 		"/>
		<polygon id="XMLID_41_" class="st0" points="228.9,270.1 241.4,270.5 253.9,305.8 252.6,306.5 		"/>
		<line id="XMLID_42_" class="st0" x1="288.4" y1="144" x2="288.4" y2="307"/>
		<polygon id="XMLID_36_" class="st0" points="62.7,274.7 51.5,275.2 40.3,310.4 41.5,311.1 		"/>
	</g>
	<path id="XMLID_2_" class="st0" d="M53.1,98.1c5.9,16.1,19.6,29.2,36.2,34.5"/>
</g>
<g id="XMLID_28_">
</g>
<g id="XMLID_29_">
</g>
<g id="XMLID_30_">
</g>
<g id="XMLID_31_">
</g>
<g id="XMLID_32_">
</g>
<g id="XMLID_33_">
</g>
<g id="XMLID_34_">
</g>
<g id="XMLID_35_">
</g>
<g id="XMLID_44_">
</g>
<g id="XMLID_45_">
</g>
<g id="XMLID_47_">
</g>
<g id="XMLID_48_">
</g>
<g id="XMLID_49_">
</g>
<g id="XMLID_50_">
</g>
<g id="XMLID_52_">
</g>
</svg>
