<?xml version="1.0" encoding="utf-8"?>
<!-- Generator: Adobe Illustrator 19.0.0, SVG Export Plug-In . SVG Version: 6.00 Build 0)  -->
<svg version="1.1" id="圖層_1" xmlns="http://www.w3.org/2000/svg" xmlns:xlink="http://www.w3.org/1999/xlink" x="0px" y="0px"
	 viewBox="0 0 100 30" style="enable-background:new 0 0 100 30;" xml:space="preserve">
<style type="text/css">
	.st0{fill:#FFFFFF;}
	.st1{fill:#FFFFFF;stroke:#FFFFFF;stroke-miterlimit:10;}
	.st2{fill:none;stroke:#FFFFFF;stroke-miterlimit:10;}
</style>
<g id="XMLID_1_">
	<g id="XMLID_6_">
		<path id="XMLID_30_" class="st0" d="M49,15.2c-0.9-0.6-2.3-0.6-3.2-0.1c-2.1,1.3-0.3,3.1,1.3,3.9c1.6,0.8,3.7,1.3,5.2,2.3
			c0.4,0.3,0.8,0.6,1.1,1c1.7,2.3-0.5,5.2-3.5,6c-1.5,0.4-3.2,0.4-4.7,0c-1.4-0.4-2.6-1.1-3.2-2.2c-0.8-1.5,0.1-3.1,0.8-4.5
			c-0.2,0.4,2,1.1,2,1.7c0,0.6-0.8,1-0.3,1.7c0.2,0.3,0.5,0.5,0.9,0.7c0.8,0.4,1.7,0.5,2.6,0.4c1.8-0.3,3.4-2,2.1-3.3
			c-0.6-0.6-1.5-0.9-2.4-1.1c-1.7-0.5-3.3-1.2-4.4-2.3c-1.8-1.7-1.6-4,0.2-5.7c0.6-0.5,1.3-0.9,2-1.1c0.8-0.2,1.6-0.3,2.5-0.2
			c0.8,0.1,1.6,0.2,2.4,0.6c2,0.8,3.2,2.9,2.6,4.6c-0.2,0.5-0.4,1-0.3,1.6c-0.7-0.1-2.3-0.8-2.6-1.3c-0.3-0.5,0.1-1.2-0.1-1.7
			C49.6,15.7,49.4,15.4,49,15.2z"/>
		<g id="XMLID_26_">
			<path id="XMLID_27_" class="st0" d="M49,15.2c-0.3-0.2-0.7-0.3-1.1-0.4c-0.4-0.1-0.8-0.1-1.2,0c-0.4,0.1-0.8,0.2-1.1,0.4
				c-0.2,0.1-0.3,0.2-0.4,0.4C45.1,15.8,45,16,45,16.1c-0.1,0.3-0.1,0.7,0.1,1.1c0.2,0.3,0.4,0.6,0.7,0.9c0.3,0.3,0.6,0.5,0.9,0.6
				c0.1,0,0.2,0.1,0.3,0.1l0.1,0.1l0.1,0.1c0.2,0.1,0.3,0.2,0.5,0.2c0.7,0.3,1.5,0.5,2.2,0.8c0.7,0.3,1.5,0.6,2.2,1
				c0.3,0.2,0.7,0.5,1,0.8c0.2,0.2,0.3,0.3,0.4,0.5c0.1,0.1,0.1,0.2,0.2,0.3c0.1,0.1,0.1,0.2,0.2,0.3c0.2,0.4,0.3,0.8,0.3,1.2
				c0,0.4-0.1,0.9-0.2,1.3c-0.3,0.8-0.8,1.5-1.5,2c-0.6,0.5-1.3,0.9-2.1,1.2c-0.8,0.3-1.6,0.4-2.4,0.4c-0.8,0-1.6,0-2.4-0.2
				c-0.8-0.2-1.5-0.4-2.2-0.8c-0.3-0.2-0.7-0.4-1-0.7c-0.3-0.3-0.6-0.6-0.7-1c-0.1-0.2-0.2-0.4-0.2-0.6c0-0.2-0.1-0.4-0.1-0.6
				c0-0.4,0.1-0.8,0.2-1.2c0.2-0.8,0.6-1.5,0.9-2.2l0.2,0.1c0,0,0,0,0,0c0,0,0.1,0.1,0.1,0.1c0.1,0.1,0.2,0.1,0.3,0.2
				c0.2,0.1,0.4,0.2,0.6,0.3c0.2,0.1,0.4,0.2,0.6,0.3c0.1,0.1,0.2,0.1,0.3,0.2c0.1,0.1,0.2,0.2,0.2,0.3c0,0.1,0,0.2,0,0.2
				c0,0,0,0.1,0,0.2c0,0.1-0.1,0.2-0.2,0.3c-0.1,0.2-0.2,0.4-0.3,0.5c0,0.1,0,0.2,0,0.3s0.1,0.2,0.1,0.2c0.1,0.2,0.3,0.3,0.4,0.4
				c0.7,0.5,1.6,0.6,2.4,0.6c0.2,0,0.4,0,0.6-0.1c0.2,0,0.4-0.1,0.6-0.2c0.4-0.2,0.7-0.4,1-0.6s0.5-0.6,0.6-1c0.1-0.4,0-0.7-0.3-1
				L49.8,23c0,0-0.1-0.1-0.1-0.1c-0.1-0.1-0.2-0.1-0.2-0.2c-0.2-0.1-0.3-0.2-0.5-0.3c-0.4-0.2-0.8-0.3-1.2-0.4
				c-0.8-0.3-1.7-0.5-2.5-0.9c-0.4-0.2-0.8-0.4-1.2-0.6c-0.2-0.1-0.4-0.3-0.6-0.4c-0.1-0.1-0.2-0.2-0.3-0.2l-0.1-0.1L43,19.7l0,0
				l0,0c-0.3-0.3-0.6-0.7-0.9-1.1c-0.2-0.4-0.4-0.9-0.5-1.4c-0.1-0.5,0-1,0.1-1.4s0.4-0.9,0.6-1.3c0.1-0.2,0.3-0.4,0.4-0.5
				c0.1-0.1,0.2-0.2,0.2-0.2c0,0,0.1-0.1,0.1-0.1c0,0,0.1-0.1,0.1-0.1c0.4-0.3,0.8-0.6,1.2-0.8c0.2-0.1,0.4-0.2,0.6-0.2
				c0.1,0,0.2-0.1,0.3-0.1c0.1,0,0.2,0,0.3-0.1c0.5-0.1,0.9-0.1,1.4-0.1c0.2,0,0.5,0,0.7,0c0.2,0,0.5,0,0.7,0.1
				c0.5,0.1,0.9,0.2,1.3,0.3c0.2,0.1,0.4,0.2,0.6,0.3c0.2,0.1,0.4,0.2,0.6,0.3c0.4,0.3,0.7,0.6,1,0.9c0.3,0.3,0.6,0.7,0.7,1.2
				c0.2,0.4,0.3,0.9,0.3,1.3c0,0.1,0,0.2,0,0.3c0,0.1,0,0.2-0.1,0.3c0,0.1-0.1,0.2-0.1,0.3c0,0.1-0.1,0.2-0.1,0.3
				c-0.2,0.4-0.3,0.8-0.3,1.2l0,0.1l-0.1,0c-0.2,0-0.5-0.1-0.7-0.2c-0.2-0.1-0.5-0.2-0.7-0.3c-0.2-0.1-0.4-0.2-0.6-0.4
				c-0.1-0.1-0.2-0.1-0.3-0.2s-0.2-0.2-0.3-0.3c0,0,0-0.1,0-0.1c0,0,0-0.1,0-0.1c0-0.1,0-0.1,0-0.2c0-0.1,0-0.3,0-0.4
				c0-0.2,0.1-0.5,0-0.7c0-0.2-0.1-0.5-0.3-0.7C49.4,15.5,49.2,15.4,49,15.2L49,15.2z M49,15.2c0.2,0.1,0.4,0.3,0.6,0.5
				c0.1,0.1,0.1,0.2,0.2,0.3c0,0.1,0.1,0.2,0.1,0.4c0,0.3,0,0.5,0,0.7c0,0.1,0,0.2,0,0.4c0,0.1,0,0.1,0,0.2c0,0,0,0.1,0,0.1
				c0,0,0,0,0,0.1c0.1,0.1,0.2,0.2,0.2,0.3c0.1,0.1,0.2,0.2,0.3,0.2c0.2,0.1,0.4,0.2,0.6,0.3c0.2,0.1,0.5,0.2,0.7,0.3
				c0.2,0.1,0.5,0.1,0.7,0.2l-0.1,0.1c0-0.2,0-0.5,0-0.7c0-0.2,0.1-0.4,0.2-0.6c0-0.1,0.1-0.2,0.1-0.3c0-0.1,0.1-0.2,0.1-0.3
				c0-0.1,0-0.2,0-0.3c0-0.1,0-0.2,0-0.3c0-0.8-0.5-1.6-1.1-2.2c-0.3-0.3-0.6-0.6-1-0.8c-0.2-0.1-0.3-0.2-0.6-0.3
				c-0.2-0.1-0.4-0.2-0.6-0.2c-0.4-0.1-0.8-0.2-1.2-0.3c-0.2,0-0.4,0-0.6-0.1c-0.2,0-0.4,0-0.6,0c-0.4,0-0.8,0.1-1.3,0.2
				c-0.1,0-0.2,0-0.3,0.1c-0.1,0-0.2,0.1-0.3,0.1c-0.2,0.1-0.4,0.1-0.6,0.2c-0.4,0.2-0.7,0.4-1,0.7c0,0-0.1,0.1-0.1,0.1l-0.1,0.1
				c-0.1,0.1-0.2,0.2-0.2,0.2c-0.1,0.2-0.3,0.3-0.4,0.5c-0.2,0.3-0.4,0.7-0.5,1.1c-0.1,0.4-0.2,0.8-0.1,1.2c0,0.4,0.2,0.8,0.4,1.1
				c0.2,0.4,0.4,0.6,0.8,1l0,0l0,0c0,0,0,0,0,0l0,0l0.1,0l0.1,0.1c0.1,0.1,0.2,0.1,0.2,0.2c0.2,0.1,0.3,0.3,0.5,0.4
				c0.4,0.2,0.7,0.4,1.1,0.6c0.8,0.4,1.6,0.7,2.4,0.9c0.4,0.1,0.8,0.3,1.3,0.5c0.2,0.1,0.4,0.2,0.6,0.3c0.1,0.1,0.2,0.1,0.3,0.2
				c0,0,0.1,0.1,0.1,0.1c0.1,0.1,0.1,0.1,0.1,0.2c0.2,0.2,0.3,0.4,0.3,0.7c0.1,0.3,0.1,0.5,0,0.8c-0.1,0.5-0.4,0.9-0.8,1.2
				c-0.3,0.3-0.8,0.6-1.2,0.7c-0.2,0.1-0.5,0.1-0.7,0.2c-0.2,0-0.5,0.1-0.7,0.1c-0.5,0-0.9-0.1-1.4-0.2c-0.2-0.1-0.4-0.1-0.6-0.2
				c-0.1,0-0.1,0-0.2-0.1l0,0l0,0l-0.1,0c-0.1-0.1-0.2-0.1-0.3-0.2c-0.2-0.1-0.4-0.3-0.5-0.5c-0.1-0.1-0.1-0.2-0.2-0.3
				c0-0.1,0-0.3,0-0.4c0.1-0.3,0.2-0.5,0.3-0.6c0.1-0.1,0.1-0.2,0.1-0.3c0,0,0-0.1,0-0.1v0v0c0,0,0,0,0,0c0,0,0,0,0,0
				c0-0.1-0.1-0.1-0.2-0.2s-0.2-0.1-0.2-0.2c-0.2-0.1-0.4-0.2-0.5-0.3c-0.2-0.1-0.4-0.2-0.6-0.3c-0.1-0.1-0.2-0.1-0.3-0.2
				c0,0-0.1-0.1-0.1-0.1l0,0c0,0,0,0,0-0.1c0,0,0,0,0-0.1c0,0,0,0,0-0.1l0.2,0.1c-0.3,0.7-0.7,1.4-0.9,2.1c-0.1,0.4-0.2,0.8-0.2,1.1
				c0,0.2,0,0.4,0.1,0.6c0,0.2,0.1,0.3,0.2,0.5c0.2,0.3,0.4,0.6,0.7,0.9c0.3,0.3,0.6,0.5,0.9,0.7c0.7,0.4,1.4,0.6,2.2,0.7
				c0.8,0.1,1.5,0.2,2.3,0.1c0.8-0.1,1.5-0.2,2.2-0.5c0.7-0.3,1.4-0.7,1.9-1.1c0.6-0.5,1-1.1,1.3-1.8c0.3-0.7,0.2-1.4-0.1-2.1
				c0-0.1-0.1-0.2-0.1-0.2c0-0.1-0.1-0.2-0.2-0.2c-0.1-0.1-0.2-0.3-0.3-0.4c-0.3-0.3-0.5-0.5-0.9-0.7c-0.6-0.4-1.3-0.7-2.1-1
				c-0.7-0.3-1.5-0.6-2.2-0.9c-0.2-0.1-0.4-0.2-0.5-0.3L47,19.2l-0.1-0.1c-0.1,0-0.2-0.1-0.3-0.2c-0.3-0.2-0.7-0.5-1-0.7
				s-0.6-0.6-0.7-1c-0.1-0.2-0.2-0.4-0.2-0.6c0-0.2,0-0.4,0.1-0.6c0.2-0.4,0.5-0.7,0.8-0.9c0.3-0.2,0.7-0.3,1.1-0.4
				c0.4-0.1,0.8-0.1,1.2,0C48.3,14.9,48.7,15,49,15.2L49,15.2z"/>
		</g>
	</g>
	<g id="XMLID_8_">
		<path id="XMLID_50_" class="st0" d="M65.9,12.4c2.1-0.2,4.2,0.1,5.8,1.2c0.7,0.5,1.3,1.1,1.7,1.7c0.6,1,0.8,2.1,0.4,3.2
			c-0.5,1.4-1.7,2.3-3.4,2.9c-0.2,0-0.1,0.7-0.1,0.7c0.9,1.3,1.9,2.5,2.8,3.7c0.6,0.9,1.4,1.9,2.4,2.5c-0.3-0.2-2.3,0.2-2.7,0.2
			c-0.6,0-0.8,0.2-1.3-0.2c-0.9-0.6-1.5-1.7-2.1-2.5c-0.8-1.1-1.2-2.3-1.9-3.4c-0.1-0.1-1,0.1-1.1,0.1l-0.6,0.2
			c-1.4,0.4,0.9,4.4-0.1,5.3c-0.2,0.1-0.4,0.2-0.7,0.2c-0.7,0.2-1.5,0.2-2.2,0.2c0.3,0,0.2-3.8,0.2-4.1c0-1.6-0.1-2.9-0.1-3.7
			c0-2.4,0.1-4.7,0.2-7.1c0-0.2,0-0.4,0.2-0.6c0.2-0.2,0.5-0.3,0.8-0.4C64.7,12.6,65.3,12.5,65.9,12.4z M65.8,20.1
			c1.1,0.6,4.4-0.7,5.2-1.6c0.4-0.4,0.6-1.3,0-2.2c-0.8-1.2-2.4-1.9-4.1-1.9c-0.2,0-0.5,0-0.6,0.1C65.1,15.6,64.3,19.3,65.8,20.1z"
			/>
		<g id="XMLID_43_">
			<path id="XMLID_47_" class="st0" d="M65.9,12.4c0.4,0,0.7-0.1,1.1-0.1c0.4,0,0.7,0,1.1,0c0.4,0,0.7,0.1,1.1,0.2
				c0.3,0.1,0.7,0.2,1,0.3c0.3,0.1,0.7,0.3,1,0.4l0.2,0.1c0.1,0,0.2,0.1,0.2,0.1c0.1,0,0.2,0.1,0.2,0.2c0.1,0,0.2,0.1,0.2,0.2
				c0.3,0.2,0.6,0.5,0.8,0.7c0.3,0.3,0.5,0.6,0.7,0.9c0.2,0.3,0.4,0.7,0.5,1s0.2,0.7,0.2,1.1c0,0.4-0.1,0.8-0.2,1.1L74,18.9
				c0,0.1-0.1,0.2-0.1,0.3c-0.1,0.2-0.2,0.3-0.3,0.5c-0.4,0.6-1,1.1-1.7,1.5c-0.3,0.2-0.7,0.3-1,0.5l-0.3,0.1l-0.1,0h0l0,0
				c0,0,0.1,0,0,0l0,0c0,0,0,0,0,0c0,0,0,0,0,0l0,0l0,0c0,0,0,0,0,0c0,0.1,0,0.3,0,0.5l0-0.1c0.7,1.1,1.6,2.2,2.4,3.3
				c0.2,0.3,0.4,0.6,0.6,0.8c0.2,0.3,0.4,0.5,0.6,0.8c0.1,0.1,0.2,0.3,0.3,0.4c0.1,0.1,0.2,0.2,0.4,0.4c0.1,0.1,0.3,0.2,0.4,0.3
				c0.1,0.1,0.3,0.2,0.4,0.3l0.5,0.3l-0.6-0.2c0,0,0,0,0,0l-0.1,0c0,0-0.1,0-0.2,0c-0.1,0-0.2,0-0.3,0c-0.2,0-0.4,0-0.7,0.1
				c-0.5,0-0.9,0.1-1.3,0.2c-0.1,0-0.2,0-0.3,0l-0.3,0c-0.1,0-0.2,0-0.4,0c-0.1,0-0.2-0.1-0.3-0.2c-0.4-0.3-0.7-0.6-1-0.9
				c-0.3-0.3-0.6-0.7-0.8-1.1c-0.3-0.4-0.5-0.7-0.8-1.1c-0.5-0.8-0.8-1.6-1.3-2.3c-0.1-0.1-0.1-0.2-0.2-0.3l0-0.1v0c0.1,0.1,0,0,0,0
				l0,0c0,0,0,0,0,0c0,0,0,0,0,0c0,0,0,0,0,0c0,0,0,0,0,0c0,0-0.1,0-0.1,0c-0.2,0-0.4,0.1-0.6,0.1l-0.2,0c0,0,0,0-0.1,0l-0.1,0
				l-0.3,0.1l-0.1,0c0,0-0.1,0-0.1,0.1c0,0,0,0,0,0c0,0,0,0,0,0c0,0,0,0,0,0c0,0.1-0.1,0.3,0,0.5c0,0.2,0,0.4,0.1,0.6
				c0.1,0.4,0.2,0.9,0.3,1.3c0.1,0.4,0.2,0.9,0.2,1.4c0,0.2,0,0.5-0.1,0.8c0,0.1-0.1,0.1-0.1,0.2c0,0,0,0.1-0.1,0.1
				c0,0-0.1,0.1-0.1,0.1c0,0,0,0,0,0l0,0c0,0-0.1,0-0.1,0.1c-0.1,0-0.1,0.1-0.2,0.1c-0.3,0.1-0.5,0.1-0.7,0.2
				c-0.2,0-0.5,0.1-0.7,0.1C63.9,29,63.4,29,62.9,29v-0.6c-0.1,0-0.2,0.1-0.2,0.1c0,0,0,0,0,0c0,0,0,0,0,0c0,0,0-0.1,0-0.1
				c0-0.1,0-0.2,0-0.3c0-0.2,0-0.4,0-0.6c0-0.4,0-0.8,0-1.1s0-0.8,0-1.1s0-0.8,0-1.1c0-0.8,0-1.5,0-2.3c0-0.4,0-0.8,0-1.1
				c0-0.4,0-0.8,0-1.1c0.1-1.5,0.2-3.1,0.3-4.6l0.1-1.1c0-0.2,0-0.4,0.1-0.6c0.1-0.2,0.3-0.3,0.5-0.4c0.2-0.1,0.4-0.1,0.6-0.2
				c0.2,0,0.4-0.1,0.6-0.1C65.2,12.5,65.5,12.4,65.9,12.4z M65.9,12.5c-0.4,0-0.8,0.1-1.1,0.2c-0.2,0-0.4,0.1-0.6,0.1
				c-0.2,0-0.4,0.1-0.5,0.2c-0.2,0.1-0.3,0.2-0.4,0.3c-0.1,0.2-0.1,0.3-0.1,0.5l0,1.1c0,1.5,0,3.1,0,4.6c0,0.4,0,0.8,0,1.1l0,1.1
				c0,0.8,0.1,1.5,0.1,2.3c0,0.4,0,0.8,0,1.1s0,0.8,0,1.1c0,0.4,0,0.8,0,1.2c0,0.2,0,0.4,0,0.6c0,0.1,0,0.2,0,0.3c0,0.1,0,0.1,0,0.2
				c0,0,0,0.1,0,0.1c0,0,0,0.1-0.1,0.1c0,0-0.1,0.1-0.3,0.1v-0.6c0.4,0,0.9,0,1.3-0.1c0.2,0,0.4,0,0.6-0.1c0.2,0,0.4-0.1,0.6-0.1
				c0,0,0.1,0,0.1,0l0,0l0,0c0,0,0,0,0,0c0,0,0,0,0,0l0,0c0,0,0-0.1,0-0.1c0.1-0.1,0.1-0.3,0.1-0.5c0-0.4-0.1-0.8-0.2-1.3
				c-0.1-0.4-0.2-0.9-0.3-1.3c0-0.2-0.1-0.5-0.1-0.7c0-0.2,0-0.5,0.1-0.8c0.1-0.1,0.2-0.3,0.3-0.4c0.1-0.1,0.1-0.1,0.2-0.1h0l0,0
				l0,0h0l0,0l0.1,0l0.3-0.1l0.1,0c0,0,0.1,0,0.1,0l0.2,0c0.2,0,0.5-0.1,0.7-0.1c0.1,0,0.1,0,0.2,0c0,0,0,0,0.1,0c0,0,0,0,0.1,0
				c0,0,0,0,0,0l0,0l0,0c0,0,0,0,0,0v0l0,0.1c0.1,0.1,0.1,0.2,0.2,0.3c0.5,0.8,0.8,1.6,1.2,2.4c0.2,0.4,0.5,0.7,0.7,1.1
				c0.2,0.4,0.5,0.7,0.8,1.1c0.3,0.3,0.6,0.7,0.9,0.9c0.2,0.1,0.3,0.2,0.6,0.2l0.3,0c0.1,0,0.2,0,0.3,0c0.2,0,0.4,0,0.7-0.1l0.7-0.1
				c0.2,0,0.5,0,0.7-0.1c0.1,0,0.2,0,0.3,0c0.1,0,0.1,0,0.2,0l0.1,0c0,0,0.1,0,0.1,0l-0.1,0.2c-0.2-0.1-0.3-0.2-0.4-0.3
				c-0.1-0.1-0.3-0.2-0.4-0.3c-0.3-0.2-0.5-0.5-0.7-0.7c-0.5-0.5-0.8-1.1-1.3-1.6c-0.8-1.1-1.8-2.1-2.6-3.2l0,0v-0.1
				c0-0.2,0-0.4,0-0.6c0,0,0-0.1,0-0.1c0,0,0,0,0-0.1l0,0c0,0,0,0,0-0.1c0,0,0.1-0.1,0.1-0.1l0,0c0,0,0.1,0,0.1,0l0,0h0l0.1,0
				l0.2-0.1c0.3-0.1,0.6-0.3,0.9-0.5c0.3-0.2,0.6-0.4,0.8-0.6c0.3-0.2,0.5-0.5,0.7-0.7c0.1-0.1,0.2-0.3,0.3-0.4
				c0-0.1,0.1-0.1,0.1-0.2l0.1-0.2c0.1-0.3,0.2-0.6,0.2-1c0-0.3,0-0.7-0.1-1c-0.1-0.3-0.2-0.6-0.4-0.9c-0.3-0.6-0.8-1.1-1.3-1.6
				c-0.1-0.1-0.1-0.1-0.2-0.2s-0.1-0.1-0.2-0.2c-0.1,0-0.1-0.1-0.2-0.2l-0.2-0.1c-0.3-0.2-0.6-0.3-1-0.5c-0.3-0.1-0.7-0.2-1-0.3
				c-0.3-0.1-0.7-0.1-1.1-0.2c-0.3,0-0.7-0.1-1.1-0.1C66.6,12.4,66.3,12.4,65.9,12.5z"/>
			<path id="XMLID_44_" class="st0" d="M65.8,20.1C65.8,20.1,65.8,20.1,65.8,20.1c0.1,0,0.1,0,0.1,0.1c0,0,0.1,0,0.1,0
				c0.1,0,0.3,0.1,0.6,0.1c0.1,0,0.3,0,0.4-0.1c0.2,0,0.3-0.1,0.5-0.1c0.3-0.1,0.7-0.3,1.1-0.5c0.4-0.2,0.8-0.4,1.3-0.6
				c0.2-0.1,0.5-0.2,0.7-0.4c0.1-0.1,0.2-0.2,0.3-0.2c0,0,0,0,0.1-0.1c0,0,0,0,0-0.1c0,0,0.1-0.1,0.1-0.2c0.2-0.5,0.2-1.1-0.1-1.6
				l0,0v0c0,0,0,0,0,0l0,0l-0.1-0.1l-0.1-0.1l-0.1-0.1c-0.1-0.1-0.2-0.2-0.3-0.3c-0.2-0.2-0.5-0.3-0.7-0.5c-0.3-0.1-0.5-0.2-0.8-0.3
				c-0.3-0.1-0.6-0.1-0.8-0.2c-0.3,0-0.6,0-0.8,0c-0.1,0-0.3,0-0.4,0c-0.1,0-0.1,0-0.2,0c0,0-0.1,0-0.1,0c-0.1,0.1-0.3,0.3-0.4,0.5
				c-0.1,0.2-0.2,0.4-0.3,0.7c-0.2,0.5-0.3,0.9-0.4,1.3c0,0.2-0.1,0.4-0.1,0.6c0,0.2,0,0.4,0,0.6c0,0.4,0,0.7,0.2,0.9
				c0.1,0.2,0.2,0.4,0.3,0.5C65.7,20,65.8,20.1,65.8,20.1C65.8,20.1,65.8,20.1,65.8,20.1L65.8,20.1z M65.8,20.1
				C65.8,20.1,65.8,20.1,65.8,20.1c-0.1,0-0.1-0.1-0.2-0.1c-0.1-0.1-0.3-0.2-0.4-0.5c0-0.1-0.1-0.1-0.1-0.2c0-0.1-0.1-0.1-0.1-0.2
				c0-0.2-0.1-0.3-0.1-0.5c-0.1-0.4-0.1-0.8-0.1-1.3c0-0.5,0.2-1,0.3-1.5c0.1-0.3,0.2-0.5,0.4-0.8c0.1-0.1,0.2-0.3,0.3-0.4
				c0-0.1,0.1-0.1,0.2-0.2c0,0,0.1,0,0.1-0.1l0,0c0,0,0.1-0.1,0.1-0.1c0.1-0.1,0.2-0.1,0.3-0.1c0.1,0,0.2,0,0.2,0c0.2,0,0.3,0,0.5,0
				c0.3,0,0.6,0,0.9,0.1c0.6,0.1,1.2,0.4,1.7,0.7c0.3,0.2,0.5,0.4,0.7,0.6c0.1,0.1,0.2,0.2,0.3,0.3L71,16l0.1,0.1l0.1,0.1l0,0l0,0v0
				l0,0c0.3,0.5,0.4,1.2,0.3,1.8c0,0.1,0,0.2-0.1,0.2c0,0.1-0.1,0.2-0.1,0.2c-0.1,0.1-0.2,0.2-0.3,0.3c-0.2,0.2-0.5,0.3-0.7,0.5
				c-0.5,0.3-0.9,0.5-1.4,0.6c-0.2,0.1-0.4,0.1-0.6,0.2c-0.2,0-0.4,0.1-0.6,0.1c-0.4,0-0.7,0.1-1,0c-0.3,0-0.5,0-0.6-0.1
				C65.9,20.2,65.9,20.2,65.8,20.1C65.8,20.1,65.8,20.1,65.8,20.1L65.8,20.1z"/>
		</g>
	</g>
	<g id="XMLID_11_">
		<path id="XMLID_39_" class="st0" d="M84.2,12.5c0.2,0,0.3,0,0.5,0c3.9-0.3,7.6,0,10.4,2.4c2.8,2.3,3.7,6.2,1.9,9.1
			c-2,3.2-6.4,4.4-10.7,4.7c-0.1,0-0.4,0-0.4,0s-0.2,0-0.2,0c-0.2,0.1-1.4,0.1-1.7-0.2c-0.8-0.8-0.2-2.8-0.2-4.1
			c0.1-1.4,0.2-2.6,0.2-3.4c0.1-1.5,0-3-0.1-4.5c-0.1-1.4-0.2-2.8-0.6-4.1c0.2,0.1,0.4,0.1,0.6,0.2C84,12.5,84.1,12.5,84.2,12.5z
			 M86.9,25.6c0,0.1,0.8,0.1,0.9,0.1c0.1,0-0.1,0,0,0c4.4-0.3,7.2-1.8,6.6-5.7c-0.3-1.8-1-4.1-3.2-4.9c-1-0.4-3-1.1-4-0.6
			c-1,0.6-0.5,1.5-0.4,2.3c0,0.8,0,1.6,0,2.6c0,0.9,0,1.7-0.1,2.3c-0.1,1.5-0.1,2.1-0.2,3.6C86.5,25.3,86.9,25.6,86.9,25.6z"/>
		<g id="XMLID_32_">
			<path id="XMLID_36_" class="st0" d="M84.2,12.5c0.3,0,0.7,0,1.1-0.1c0.2,0,0.3,0,0.5,0c0.2,0,0.3,0,0.5,0c0.7,0,1.4,0,2.1,0
				c0.7,0,1.4,0.1,2.1,0.2c0.4,0.1,0.7,0.1,1.1,0.2l0.5,0.2c0.2,0,0.3,0.1,0.5,0.2c0.1,0,0.2,0.1,0.3,0.1l0.2,0.1
				c0.2,0.1,0.3,0.2,0.5,0.2c0.2,0.1,0.3,0.2,0.5,0.3l0.5,0.3c0.2,0.1,0.3,0.2,0.4,0.3l0.2,0.2l0.2,0.2l0.2,0.2
				c0.1,0.1,0.1,0.1,0.2,0.2l0.4,0.4c0.5,0.6,0.9,1.2,1.2,1.8c0.3,0.7,0.5,1.4,0.6,2.1c0.1,0.7,0.1,1.5,0,2.2
				c-0.1,0.7-0.4,1.4-0.7,2L97,24l-0.2,0.2c-0.1,0.2-0.2,0.3-0.3,0.4L96.2,25c-0.1,0.1-0.3,0.3-0.4,0.4c-0.5,0.5-1.1,0.9-1.7,1.3
				l-0.2,0.1L93.6,27c-0.2,0.1-0.3,0.2-0.5,0.2c-0.3,0.2-0.6,0.3-1,0.4c-0.7,0.3-1.4,0.5-2.1,0.6c-0.3,0.1-0.7,0.2-1,0.2
				c-0.3,0.1-0.7,0.1-1.1,0.2c-0.3,0.1-0.7,0.1-1.1,0.2l-0.5,0.1l-0.1,0h0h0h-0.1c-0.1,0-0.2,0-0.3,0h0c0,0-0.1,0-0.1,0l0,0l0,0h0
				l0,0c0,0,0,0,0,0l0,0c0,0,0,0,0,0c0,0-0.1,0-0.1,0l-0.1,0c-0.1,0-0.1,0-0.2,0c-0.2,0-0.4,0-0.6,0c-0.2,0-0.4,0-0.6-0.1l-0.1,0
				l-0.1,0c0,0-0.1,0-0.1-0.1l0,0l0,0c0,0,0,0,0,0l0,0l0,0l-0.1-0.1c0,0,0,0,0-0.1l0-0.1c-0.1-0.2-0.2-0.4-0.2-0.6
				c0-0.1,0-0.2,0-0.3c0-0.1,0-0.2,0-0.3c0-0.4,0-0.8,0.1-1.2l0.2-1.1c0-0.1,0-0.2,0-0.3l0-0.1l0-0.1l0-0.6c0.1-0.8,0.1-1.5,0.2-2.3
				c0-0.2,0-0.4,0-0.6l0-0.6c0-0.4,0-0.8,0-1.1c0-0.8,0-1.5,0-2.3l0-1.1c0-0.4,0-0.8-0.1-1.1c0-0.4-0.1-0.8-0.1-1.1
				c-0.1-0.4-0.2-0.7-0.3-1.1l0-0.1l0.1,0c0.1,0,0.3,0.1,0.4,0.1c0,0,0.1,0,0.1,0l0,0c0,0,0,0,0,0L84.2,12.5L84.2,12.5z M84.2,12.5
				l-0.2,0c0,0,0,0-0.1,0l-0.1,0c0,0-0.1,0-0.1,0c-0.1,0-0.3-0.1-0.4-0.1l0,0c0.1,0.4,0.2,0.7,0.3,1.1c0.1,0.4,0.1,0.8,0.2,1.1
				s0.1,0.8,0.1,1.1l0.1,1.1c0.1,0.8,0.2,1.5,0.2,2.3c0,0.4,0,0.8,0,1.1c0,0.4,0,0.8,0,1.1c0,0.8-0.1,1.5-0.1,2.3l0,0.6
				c0,0.2,0,0.4,0,0.6c0,0.4-0.1,0.8-0.2,1.1s-0.1,0.7-0.1,1.1c0,0.2,0,0.3,0,0.5c0,0.1,0,0.2,0.1,0.2c0,0.1,0,0.2,0.1,0.2l0,0
				c0,0,0,0,0,0l0.1,0.1l0,0l0,0c0,0,0,0,0,0l0,0l0,0c0,0,0,0,0,0l0,0l0,0c0.1,0,0.3,0.1,0.5,0.1c0.2,0,0.4,0,0.5,0c0,0,0.1,0,0.1,0
				l0.1,0c0,0,0,0,0,0s0,0,0,0l0,0c0,0,0,0,0,0h0l0,0c0,0,0,0,0,0c0,0,0,0,0.1,0c0.1,0,0.1,0,0.2,0h0h0c0.1,0,0.2,0,0.2,0h0.1h0h0
				l0.1,0l0.5,0c0.3,0,0.7-0.1,1-0.1c0.3,0,0.7-0.1,1-0.2c0.3-0.1,0.7-0.1,1-0.2c0.7-0.2,1.4-0.3,2-0.6c0.3-0.1,0.6-0.2,1-0.4
				c0.2-0.1,0.3-0.2,0.5-0.2l0.2-0.1l0.2-0.1c0.6-0.3,1.2-0.7,1.7-1.2c0.1-0.1,0.3-0.2,0.4-0.4l0.3-0.4c0.1-0.1,0.1-0.1,0.2-0.2
				l0.2-0.2l0.2-0.2l0.1-0.2c0.3-0.6,0.6-1.3,0.7-2c0.1-0.7,0.1-1.4,0-2.1s-0.3-1.3-0.7-1.9c-0.3-0.6-0.7-1.2-1.2-1.7l-0.3-0.4
				c-0.1-0.1-0.1-0.1-0.2-0.2l-0.2-0.2L94.9,15l-0.2-0.2c-0.1-0.1-0.3-0.2-0.4-0.3c-0.6-0.4-1.2-0.7-1.8-1c-0.2-0.1-0.3-0.1-0.5-0.2
				l-0.5-0.2c-0.3-0.1-0.7-0.2-1-0.3c-0.7-0.2-1.4-0.3-2.1-0.3s-1.4-0.1-2.1-0.1c-0.3,0-0.7,0-1.1,0C84.9,12.5,84.5,12.5,84.2,12.5
				L84.2,12.5z"/>
			<path id="XMLID_33_" class="st0" d="M86.9,25.6L86.9,25.6C86.9,25.6,86.9,25.6,86.9,25.6C86.9,25.6,86.9,25.6,86.9,25.6
				c0.1,0,0.2,0,0.3,0c0.1,0,0.3,0,0.5,0c0,0,0,0,0.1,0h0l0,0l0,0l0,0c0,0,0,0,0,0.1c0,0,0,0,0,0c0,0,0,0-0.1,0c0,0,0,0,0,0
				c0,0,0,0,0,0c0,0,0,0,0,0c0,0,0,0,0,0c0,0,0,0,0.1,0c0.1,0,0.2,0,0.3,0c0.1,0,0.2,0,0.3,0c0.1,0,0.3,0,0.4-0.1
				c0.1,0,0.3-0.1,0.4-0.1c0.1,0,0.3-0.1,0.4-0.1c0.6-0.2,1.3-0.4,1.9-0.7c0.3-0.2,0.7-0.4,1-0.6s0.6-0.5,0.9-0.8s0.5-0.7,0.6-1.1
				c0.1-0.4,0.2-0.9,0.2-1.3c0-0.1,0-0.2,0-0.4c0-0.1,0-0.2,0-0.4c0-0.2-0.1-0.5-0.1-0.7c0-0.2-0.1-0.5-0.2-0.7
				c-0.1-0.2-0.2-0.5-0.3-0.7c-0.2-0.5-0.5-0.9-0.8-1.3c-0.3-0.4-0.7-0.7-1.1-1l-0.3-0.2l-0.3-0.1c-0.2-0.1-0.5-0.2-0.7-0.2
				c-0.5-0.2-1-0.3-1.5-0.4c-0.5-0.1-1-0.1-1.4,0l-0.2,0l-0.1,0.1l0,0c0,0,0,0,0,0h0l0,0l-0.1,0c-0.1,0-0.1,0.1-0.1,0.1
				c-0.1,0.1-0.1,0.1-0.2,0.2c0,0.1-0.1,0.2-0.1,0.2c0,0.2,0,0.4,0.1,0.6c0,0.2,0.1,0.5,0.1,0.7c0,0.5,0,0.9,0,1.4
				c0,0.5,0,0.9,0,1.3c0,0.4,0,0.8-0.1,1.2c0,0.4-0.1,0.8-0.1,1.1c0,0.3-0.1,0.7-0.1,1c0,0.3-0.1,0.6-0.1,0.9c0,0.3-0.1,0.5-0.1,0.7
				c0,0.2,0,0.4-0.1,0.6c0,0.1,0,0.2,0,0.2v0v0l0,0c0,0,0,0,0,0l0,0c0,0,0,0,0,0l0,0c0,0,0,0,0.1,0.1c0.1,0.1,0.2,0.1,0.2,0.2
				c0,0,0,0,0.1,0C86.9,25.6,86.9,25.6,86.9,25.6L86.9,25.6z M86.8,25.6C86.8,25.6,86.8,25.6,86.8,25.6
				C86.8,25.6,86.8,25.6,86.8,25.6c-0.1-0.1-0.2-0.1-0.3-0.2c0,0,0,0-0.1-0.1l0,0l0,0l0,0c0,0,0,0,0,0l0,0v0v0c0-0.1,0-0.2,0-0.2
				c0-0.2,0-0.4,0-0.6c0-0.2,0-0.5,0-0.8c0-0.3,0-0.6,0-0.9c0-0.3,0-0.6,0-1c0-0.3,0-0.7,0-1.1c0-0.4,0-0.8,0-1.2c0-0.4,0-0.8,0-1.3
				c0-0.2,0-0.4,0-0.7c0-0.2,0-0.5,0-0.7c0-0.2-0.1-0.4-0.1-0.6c0-0.2-0.1-0.5-0.1-0.8c0-0.2,0.1-0.3,0.1-0.5
				c0.1-0.1,0.2-0.3,0.3-0.4c0.1,0,0.1-0.1,0.2-0.1l0.1,0l0,0h0l0,0l0,0l0.2-0.1c0.1,0,0.1,0,0.2-0.1c0.3-0.1,0.6-0.1,0.8-0.1
				c0.3,0,0.5,0.1,0.8,0.1c0.5,0.1,1,0.3,1.5,0.5c0.2,0.1,0.5,0.2,0.7,0.3l0.4,0.2l0.3,0.2c0.5,0.3,0.8,0.7,1.1,1.1
				c0.3,0.4,0.6,0.9,0.8,1.4c0.2,0.5,0.3,1,0.5,1.5c0.1,0.2,0.1,0.5,0.2,0.7c0,0.1,0,0.2,0.1,0.4c0,0.1,0,0.2,0,0.4
				c0,0.5,0,1-0.1,1.5c0,0.1-0.1,0.2-0.1,0.4c0,0.1-0.1,0.2-0.1,0.3c-0.1,0.2-0.2,0.4-0.4,0.6c-0.3,0.4-0.6,0.7-1,1
				c-0.4,0.3-0.7,0.4-1.1,0.6c-0.4,0.2-0.7,0.2-1.1,0.3c-0.3,0.1-0.7,0.1-1,0.2c-0.6,0.1-1.2,0.1-1.6,0.2c-0.1,0-0.2,0-0.3,0
				c0,0,0,0-0.1,0c0,0,0,0,0,0c0,0,0,0,0,0c0,0,0,0,0,0c0,0,0,0,0,0h0c0,0,0,0,0,0c0,0,0,0,0,0l0,0l0,0c0,0,0,0,0,0h0c0,0,0,0-0.1,0
				c-0.2,0-0.3,0-0.4,0C87,25.7,86.8,25.7,86.8,25.6L86.8,25.6z"/>
		</g>
	</g>
</g>
<g id="XMLID_5_">
	<path id="XMLID_3_" class="st1" d="M21.1,29c-0.4,0-0.8-0.2-1.1-0.5c-0.5-0.6-0.3-1.5-0.3-2.3c0-1,0-2.1,0-3.1c0-2.2,0-4.4,0-6.6
		c0-0.2,0-0.3,0.1-0.5c0.3-0.5,1.7-0.8,2.2-1c1-0.4,2-0.8,3-1.2c2-0.8,3.9-1.6,5.9-2.3c1-0.3,2.3-1.2,3.3-0.5
		c0.9,0.6,1.1,2.3,1.1,3.2c0.1,2.6-0.3,5.2-1,7.6c-0.5,1.7-1.8,3.1-3.2,4c-1.5,1-3.3,1.7-5,2.3C24.6,28.6,22.8,29.2,21.1,29z
		 M24.6,17.3c-0.1,0.3,0.1,6,0.2,7.2c1.4,0.1,7.1-2,8.4-3.9c1-1.4,1.1-6,0-6.9c-1.6-1.4-6.4,2-8.4,3.2C24.7,17,24.6,17.2,24.6,17.3z
		"/>
</g>
<g id="XMLID_4_">
	<g id="XMLID_22_">
		<path id="XMLID_23_" class="st0" d="M32.6,6.7c1.2,0.5,1.7,1,1.5,1.5c-0.3,0.6-2.5,0.9-2.5,0.9s-1.8-0.9-2.1-1
			C26.4,7,24,5.7,21,4.4c-1.1-0.5-2.2-0.9-3.3-1C16.9,3.3,15,4.2,15.1,5c0.1,1,12.4,1.5,13.3,5c0.3,1.1-1.1,1.3-3.7,2.4
			c-1.5,0.6-4.6,2.2-6.3,2.1c-0.9-0.1-10.1-4-13.5-5.3C3.9,8.7,2,8.6,1.8,7.7C1.6,6.9,3.3,5.9,4.3,5.9c0.8,0,1.6,0.3,2.3,0.6
			c3.4,1.4,6.8,2.9,10.2,4.3c0.4,0.2,1,0.4,1.3,0.4c0.8,0,3-0.3,2.9-1.1C20.5,6.6,8.4,7.9,8,4.4c-0.2-2.1,6.2-3.7,7.7-3.8
			c2.1-0.2,4.1,0.7,6.1,1.5C25.3,3.5,32.3,6.6,32.6,6.7z"/>
	</g>
	<g id="XMLID_20_">
		<path id="XMLID_21_" class="st2" d="M4.3,5.9c0.8,0,1.6,0.3,2.3,0.6C10,8,13.4,9.4,16.8,10.8c0.4,0.2,1,0.4,1.3,0.4
			c0.8,0,3-0.3,2.9-1.1C20.5,6.6,8.4,8,8.1,4.4c-0.2-2.1,6.2-3.7,7.7-3.8c2.1-0.2,4.1,0.7,6.1,1.5c3.5,1.5,10.5,4.5,10.8,4.6
			c1.2,0.5,1.7,1,1.5,1.5c-0.3,0.6-2.5,0.9-2.5,0.9s-1.8-0.9-2.1-1C26.4,7,24,5.7,21,4.4c-1.1-0.5-2.2-0.9-3.3-1
			C16.9,3.3,15,4.2,15.1,5c0.1,1,12.4,1.5,13.3,5c0.3,1.1-1.1,1.3-3.7,2.4c-1.5,0.6-4.6,2.2-6.3,2.1c-0.9-0.1-10.1-4-13.5-5.3
			C3.9,8.7,2,8.6,1.8,7.7C1.6,7,3.3,5.9,4.3,5.9z"/>
	</g>
</g>
<path id="XMLID_24_" class="st1" d="M2.7,22.5c0.1-1.5,5.4-1.7,5.4-1.7s-5-1.4-6-2.9c-0.7-1.1-0.9-2.4-0.8-3.7
	c0.1-0.9,0.3-2.6,1.1-3.3c0.1-0.1,0.3-0.2,0.4-0.2C4,10.4,4.8,11,5.9,11.4c1,0.4,1.9,0.8,2.9,1.1c1.7,0.7,3.5,1.4,5.2,2.1
	c0.2,0.1,0.4,0.2,0.6,0.3c0.5,0.2,2.9,1.1,3.1,1.5c0.2,0.3,0.1,1.2,0.1,1.5c0.1,1.2,0.1,2.4,0.1,3.5c0,1.4,0,2.7-0.1,4.1
	c0,0.6,0,3.2-0.6,3.4c-0.5,0.2-1.5-0.2-2-0.3c-1.5-0.5-1.3-2-1.2-3.3c0-0.4,0.3-2.6-0.4-2.5s-1.4,0.6-2.1,0.9
	c-0.9,0.3-2.9,1.5-4,1.6c-1,0.1-2.2-0.2-3.1-0.6C3.7,24.4,2.7,23.5,2.7,22.5z M4.5,16.7c0.6,0.6,6.4,3.4,8.5,2.8
	c0.2-0.1,1-0.4,0.8-1.6c-0.3-2.4-7.3-3.6-8.4-3.6C3.6,14.3,4,16.1,4.5,16.7z"/>
</svg>
